#define rom_assault_width 20
#define rom_assault_height 320
static unsigned char rom_assault_bits[] = {
	0x00, 0x00, 0x00, 0x00, 0x00, 0x00, 0x00, 0x00, 0x00, 0x00, 0x0e, 0x00, 0x00, 0x1f, 0x00,
	0x80, 0x3f, 0x00, 0xa0, 0xbf, 0x00, 0xe0, 0xff, 0x00, 0xf0, 0xff, 0x01, 0xf0, 0xff, 0x01,
	0x60, 0xdf, 0x01, 0x20, 0x8e, 0x00, 0x20, 0x8e, 0x00, 0x20, 0x9f, 0x00, 0x20, 0x9f, 0x00,
0x00, 0x1b, 0x00, 0x00, 0x11, 0x00, 0x00, 0x00, 0x00, 0x00, 0x00, 0x00, 0x00, 0x00, 0x00,
0x00, 0x00, 0x00, 0x00, 0x00, 0x00, 0x00, 0x00, 0x00, 0x00, 0x00, 0x00, 0x40, 0x3e, 0x00,
    0x60, 0x7f, 0x00, 0xf0, 0x7f, 0x00, 0xf0, 0x7f, 0x00, 0xf0, 0x7f, 0x01, 0x70, 0xff, 0x01,
    0x18, 0xff, 0x01, 0x88, 0xf7, 0x01, 0xc0, 0xf7, 0x00, 0xc0, 0x27, 0x00, 0x40, 0x26, 0x00,
0x00, 0x12, 0x00, 0x00, 0x02, 0x00, 0x00, 0x00, 0x00, 0x00, 0x00, 0x00, 0x00, 0x00, 0x00,
0x00, 0x00, 0x00, 0x00, 0x00, 0x00, 0x00, 0x00, 0x00, 0x00, 0x02, 0x00, 0xc0, 0x79, 0x00,
    0xc0, 0xff, 0x00, 0xc0, 0xff, 0x00, 0x20, 0xff, 0x00, 0x10, 0xff, 0x00, 0x08, 0x7f, 0x00,
    0xc0, 0x7f, 0x01, 0xe0, 0xff, 0x00, 0xf0, 0xe3, 0x00, 0x80, 0xe3, 0x00, 0x80, 0x11, 0x00,
0x80, 0x08, 0x00, 0x00, 0x04, 0x00, 0x00, 0x00, 0x00, 0x00, 0x00, 0x00, 0x00, 0x00, 0x00,
0x00, 0x00, 0x00, 0x00, 0x00, 0x00, 0x00, 0x00, 0x00, 0x00, 0x0f, 0x00, 0x80, 0x07, 0x00,
    0x80, 0x7f, 0x00, 0xe0, 0xff, 0x00, 0x90, 0xff, 0x00, 0x00, 0xfe, 0x00, 0xe0, 0xff, 0x00,
    0xf8, 0xff, 0x00, 0xc0, 0x7f, 0x00, 0xc0, 0x39, 0x00, 0xe0, 0xfc, 0x00, 0x00, 0x7c, 0x00,
0x00, 0x3e, 0x00, 0x00, 0x03, 0x00, 0x00, 0x00, 0x00, 0x00, 0x00, 0x00, 0x00, 0x00, 0x00,
0x00, 0x00, 0x00, 0x00, 0x00, 0x00, 0x00, 0x00, 0x00, 0x00, 0x0e, 0x00, 0xe0, 0x3f, 0x00,
    0x00, 0x1e, 0x00, 0x00, 0x7c, 0x00, 0x78, 0xfe, 0x00, 0xf0, 0xff, 0x01, 0xe0, 0xff, 0x01,
    0xf0, 0xff, 0x01, 0x78, 0xfe, 0x00, 0x00, 0x7c, 0x00, 0x00, 0x1e, 0x00, 0xe0, 0x3f, 0x00,
0x00, 0x0c, 0x00, 0x00, 0x00, 0x00, 0x00, 0x00, 0x00, 0x00, 0x00, 0x00, 0x00, 0x00, 0x00,
0x00, 0x00, 0x00, 0x00, 0x00, 0x00, 0x00, 0x00, 0x00, 0x00, 0x03, 0x00, 0x00, 0x3e, 0x00,
    0x00, 0x7c, 0x00, 0xe0, 0xfc, 0x00, 0xc0, 0x39, 0x00, 0xc0, 0x7f, 0x00, 0xf8, 0xff, 0x00,
    0xe0, 0xff, 0x00, 0x00, 0xfe, 0x00, 0x90, 0xff, 0x00, 0xe0, 0xff, 0x00, 0x80, 0x7f, 0x00,
0x80, 0x07, 0x00, 0x00, 0x0f, 0x00, 0x00, 0x00, 0x00, 0x00, 0x00, 0x00, 0x00, 0x00, 0x00,
0x00, 0x00, 0x00, 0x00, 0x00, 0x00, 0x00, 0x00, 0x00, 0x00, 0x04, 0x00, 0x80, 0x08, 0x00,
    0x80, 0x11, 0x00, 0x80, 0xe3, 0x00, 0xf0, 0xe3, 0x00, 0xe0, 0xff, 0x00, 0xc0, 0x7f, 0x01,
    0x08, 0x7f, 0x00, 0x10, 0xff, 0x00, 0x20, 0xff, 0x00, 0xc0, 0xff, 0x00, 0xc0, 0xff, 0x00,
0xc0, 0x79, 0x00, 0x00, 0x02, 0x00, 0x00, 0x00, 0x00, 0x00, 0x00, 0x00, 0x00, 0x00, 0x00,
0x00, 0x00, 0x00, 0x00, 0x00, 0x00, 0x00, 0x00, 0x00, 0x00, 0x02, 0x00, 0x00, 0x12, 0x00,
    0x40, 0x26, 0x00, 0xc0, 0x27, 0x00, 0xc0, 0xf7, 0x00, 0x88, 0xf7, 0x01, 0x18, 0xff, 0x01,
    0x70, 0xff, 0x01, 0xf0, 0x7f, 0x01, 0xf0, 0x7f, 0x00, 0xf0, 0x7f, 0x00, 0x60, 0x7f, 0x00,
0x40, 0x3e, 0x00, 0x00, 0x00, 0x00, 0x00, 0x00, 0x00, 0x00, 0x00, 0x00, 0x00, 0x00, 0x00,
0x00, 0x00, 0x00, 0x00, 0x00, 0x00, 0x00, 0x00, 0x00, 0x00, 0x11, 0x00, 0x00, 0x1b, 0x00,
    0x20, 0x9f, 0x00, 0x20, 0x9f, 0x00, 0x20, 0x8e, 0x00, 0x20, 0x8e, 0x00, 0x60, 0xdf, 0x01,
    0xf0, 0xff, 0x01, 0xf0, 0xff, 0x01, 0xe0, 0xff, 0x00, 0xa0, 0xbf, 0x00, 0x80, 0x3f, 0x00,
0x00, 0x1f, 0x00, 0x00, 0x0e, 0x00, 0x00, 0x00, 0x00, 0x00, 0x00, 0x00, 0x00, 0x00, 0x00,
0x00, 0x00, 0x00, 0x00, 0x00, 0x00, 0x00, 0x00, 0x00, 0x00, 0x04, 0x00, 0x80, 0x04, 0x00,
    0x40, 0x26, 0x00, 0x40, 0x3e, 0x00, 0xf0, 0x3e, 0x00, 0xf8, 0x1e, 0x01, 0xf8, 0x8f, 0x01,
    0xf8, 0xef, 0x00, 0xe8, 0xff, 0x00, 0xe0, 0xff, 0x00, 0xe0, 0xff, 0x00, 0xe0, 0x6f, 0x00,
0xc0, 0x27, 0x00, 0x00, 0x00, 0x00, 0x00, 0x00, 0x00, 0x00, 0x00, 0x00, 0x00, 0x00, 0x00,
0x00, 0x00, 0x00, 0x00, 0x00, 0x00, 0x00, 0x00, 0x00, 0x00, 0x02, 0x00, 0x00, 0x11, 0x00,
    0x80, 0x18, 0x00, 0x70, 0x1c, 0x00, 0x70, 0xfc, 0x00, 0xf0, 0x7f, 0x00, 0xe8, 0x3f, 0x00,
    0xe0, 0x0f, 0x01, 0xf0, 0x8f, 0x00, 0xf0, 0x4f, 0x00, 0xf0, 0x3f, 0x00, 0xf0, 0x3f, 0x00,
0xe0, 0x39, 0x00, 0x00, 0x04, 0x00, 0x00, 0x00, 0x00, 0x00, 0x00, 0x00, 0x00, 0x00, 0x00,
0x00, 0x00, 0x00, 0x00, 0x00, 0x00, 0x00, 0x00, 0x00, 0x00, 0x0c, 0x00, 0xc0, 0x07, 0x00,
    0xe0, 0x03, 0x00, 0xf0, 0x73, 0x00, 0xc0, 0x39, 0x00, 0xe0, 0x3f, 0x00, 0xf0, 0xff, 0x01,
    0xf0, 0x7f, 0x00, 0xf0, 0x07, 0x00, 0xf0, 0x9f, 0x00, 0xf0, 0x7f, 0x00, 0xe0, 0x1f, 0x00,
0x00, 0x1e, 0x00, 0x00, 0x0f, 0x00, 0x00, 0x00, 0x00, 0x00, 0x00, 0x00, 0x00, 0x00, 0x00,
0x00, 0x00, 0x00, 0x00, 0x00, 0x00, 0x00, 0x00, 0x00, 0x00, 0x07, 0x00, 0xc0, 0x7f, 0x00,
    0x80, 0x07, 0x00, 0xe0, 0x03, 0x00, 0xf0, 0xe7, 0x01, 0xf8, 0xff, 0x00, 0xf8, 0x7f, 0x00,
    0xf8, 0xff, 0x00, 0xf0, 0xe7, 0x01, 0xe0, 0x03, 0x00, 0x80, 0x07, 0x00, 0xc0, 0x7f, 0x00,
0x00, 0x03, 0x00, 0x00, 0x00, 0x00, 0x00, 0x00, 0x00, 0x00, 0x00, 0x00, 0x00, 0x00, 0x00,
0x00, 0x00, 0x00, 0x00, 0x00, 0x00, 0x00, 0x00, 0x00, 0x00, 0x0f, 0x00, 0x00, 0x1e, 0x00,
    0xe0, 0x1f, 0x00, 0xf0, 0x7f, 0x00, 0xf0, 0x9f, 0x00, 0xf0, 0x07, 0x00, 0xf0, 0x7f, 0x00,
    0xf0, 0xff, 0x01, 0xe0, 0x3f, 0x00, 0xc0, 0x39, 0x00, 0xf0, 0x73, 0x00, 0xe0, 0x03, 0x00,
0xc0, 0x07, 0x00, 0x00, 0x0c, 0x00, 0x00, 0x00, 0x00, 0x00, 0x00, 0x00, 0x00, 0x00, 0x00,
0x00, 0x00, 0x00, 0x00, 0x00, 0x00, 0x00, 0x00, 0x00, 0x00, 0x04, 0x00, 0xe0, 0x39, 0x00,
    0xf0, 0x3f, 0x00, 0xf0, 0x3f, 0x00, 0xf0, 0x4f, 0x00, 0xf0, 0x8f, 0x00, 0xe0, 0x0f, 0x01,
    0xe8, 0x3f, 0x00, 0xf0, 0x7f, 0x00, 0x70, 0xfc, 0x00, 0x70, 0x1c, 0x00, 0x80, 0x18, 0x00,
0x00, 0x11, 0x00, 0x00, 0x02, 0x00, 0x00, 0x00, 0x00, 0x00, 0x00, 0x00, 0x00, 0x00, 0x00,
0x00, 0x00, 0x00, 0x00, 0x00, 0x00, 0x00, 0x00, 0x00, 0x00, 0x00, 0x00, 0xc0, 0x27, 0x00,
    0xe0, 0x6f, 0x00, 0xe0, 0xff, 0x00, 0xe0, 0xff, 0x00, 0xe8, 0xff, 0x00, 0xf8, 0xef, 0x00,
    0xf8, 0x8f, 0x01, 0xf8, 0x1e, 0x01, 0xf0, 0x3e, 0x00, 0x40, 0x3e, 0x00, 0x40, 0x26, 0x00,
0x80, 0x04, 0x00, 0x00, 0x04, 0x00, 0x00, 0x00, 0x00, 0x00, 0x00, 0x00, 0x00, 0x00, 0x00};
