/* XPM */
static char * C4_xpm[] = {
"20 320 7 1",
" 	c None",
".	c #91AC91",
"X	c #A1C1A1",
"o	c #B0D0B0",
"O	c #7F977F",
"+	c #00FF00",
"@	c #FF0000",
"                    ",
"                    ",
"                    ",
"         .X.        ",
"        .XoX.       ",
"       .XoooX.      ",
"     O .XoooX. O    ",
"     O..XoooX..O    ",
"    +O..XoooX..O+   ",
"    +O..XoooX..O+   ",
"    +O. .ooo. .O+   ",
"    .O  OoooO  O.   ",
"     O   .o.   O    ",
"     O  O.o.O  O    ",
"     O  O.X.O  O    ",
"     O  ..O..  O    ",
"        .@ @.       ",
"        O   O       ",
"                    ",
"                    ",
"                    ",
"                    ",
"                    ",
"           O.X      ",
"        O XXXo.     ",
"      +O..Xooo.O    ",
"     +X...XoooXO    ",
"     +O..XoooXXO    ",
"    OXO..XoooX..O   ",
"     O  .ooooX..O   ",
"     O  Oooo...OO+  ",
"    OO   .ooO .O+   ",
"    O  O.o.    O+   ",
"    O  ..X.O  OO    ",
"      O.OO.O  O     ",
"      O@ ..  OO     ",
"      O  @O  O      ",
"         O          ",
"                    ",
"                    ",
"                    ",
"                    ",
"                    ",
"                    ",
"       +O  OO.O     ",
"      +O.....XXX    ",
"      O....XXooXO   ",
"     OO.O.XooooX.   ",
"    O    .ooooX.O   ",
"   O    OoooooX.O   ",
"        .ooooX..    ",
"      .OXooX....    ",
"     .OXoX.O O..O   ",
"    O@.XXO   ..O+   ",
"       .O.   .O+    ",
"       @.    O      ",
"       O    O       ",
"           O        ",
"                    ",
"                    ",
"                    ",
"                    ",
"                    ",
"         +OO        ",
"       ++O.O        ",
"      OOOO....OO    ",
"    OOO .....XXXO   ",
"   OO    OXXXoooO   ",
"        O.ooooooX   ",
"     OO Xooooooo.   ",
"   .....oooooXX.    ",
"    @.Xo.XoXXX.     ",
"     O..  OO...     ",
"     @.O   ...OO    ",
"    O.     OOO+     ",
"         OOO++      ",
"       OOO O        ",
"                    ",
"                    ",
"                    ",
"                    ",
"                    ",
"                    ",
"                    ",
"        .+++        ",
"    OOOOOOOOOO      ",
"         ....       ",
"          .....     ",
"  O..OO O.XXXXX.    ",
"   @....oooooooX.   ",
"    OXooooooooooX   ",
"   @....oooooooX.   ",
"  O..OO O.XXXXX.    ",
"          .....     ",
"         ....       ",
"    OOOOOOOOOO      ",
"        .+++        ",
"                    ",
"                    ",
"                    ",
"                    ",
"                    ",
"                    ",
"                    ",
"      OOO  O        ",
"        OOOX++      ",
"   OOO     OOX+     ",
"    @..O   ...O     ",
"     O.. O.....O    ",
"  O@.OXo.ooXX..     ",
"   O....oooooXXX    ",
"     OO oooooooXO   ",
"        O.oooooX.   ",
"   OO    .XXXoooX   ",
"    OOO ....XX..    ",
"      OOOO..OOO     ",
"       ++OOO        ",
"         +          ",
"                    ",
"                    ",
"                    ",
"                    ",
"                    ",
"          O         ",
"      O    O        ",
"      @.    O       ",
"      .O.   OO+     ",
"   O@.XXO   ..O+    ",
"    .OXoX.O O..O    ",
"     .OXooo....     ",
"       .ooooX..     ",
"  O    OXooooX.O    ",
"   O    .ooooX.O    ",
"    O..O.XooooX.    ",
"     O....XXooXO    ",
"     +O.....XXX     ",
"      +O  OO.O      ",
"                    ",
"                    ",
"                    ",
"                    ",
"                    ",
"                    ",
"         .  O       ",
"     O  @.  OO      ",
"     .@O..O  O      ",
"      ..X.O  OO     ",
"   O  O.o.    O+    ",
"   O    .oXO .O+    ",
"   OO   Xoo.O.OO+   ",
"    .  OooooX...O   ",
"   OOO.OXoooX..OO   ",
"    +O..XoooX..     ",
"    +O..XXoooX.     ",
"     +O..XoooXO     ",
"      O  .oooXO     ",
"          .XOO      ",
"                    ",
"                    ",
"                    ",
"                    ",
"                    ",
"       O   O        ",
"       .@ @.        ",
"    O  ..O..  O     ",
"    O  O.X.O  O     ",
"    O  O.o.O  O     ",
"    O   .o.   O     ",
"   .O  OoooO  O.    ",
"   +O. .ooo. .O+    ",
"   +O..XoooX..O+    ",
"   +O..XoooX..O+    ",
"    O..XoooX..O     ",
"    O .XoooX. O     ",
"      .XoooX.       ",
"       .XoX.        ",
"        .X.         ",
"                    ",
"                    ",
"                    ",
"                    ",
"                    ",
"          O         ",
"      O  O@  O      ",
"     OO  .. @O      ",
"     O  O.OO.O      ",
"    OO  O.X..       ",
"   +O    .o.O   O   ",
"   +O. Ooo.    O    ",
"  +OO...oooO  OO    ",
"   O..Xoooo.  O     ",
"   O..XoooX..OXO    ",
"    OXXoooX..O+     ",
"    OXoooX...X+     ",
"    O.oooX..O+      ",
"     .oXXX O        ",
"      X.O           ",
"                    ",
"                    ",
"                    ",
"                    ",
"                    ",
"        O           ",
"       O    O       ",
"      O    .@       ",
"    +O.   .O.       ",
"   +O..   OXX.@O    ",
"   O..O O.XoXO.     ",
"    ....XooXO.      ",
"    ..Xoooo.        ",
"   O.XoooooO    O   ",
"   O.Xoooo.    O    ",
"   .XooooX.O.OO     ",
"   OXooXX....O      ",
"    XXX.....O+      ",
"     O.OO  O+       ",
"                    ",
"                    ",
"                    ",
"                    ",
"                    ",
"                    ",
"                    ",
"        O OOO       ",
"      ++OOO         ",
"     +OOO     .O    ",
"    OO...   O.@     ",
"     ...OO  ..O     ",
"     .XXXoX.oX.@    ",
"    .XXooooo.....   ",
"   .oooooooX OO     ",
"   Xoooooo.O        ",
"   OoooXXXO    OO   ",
"   OXXX..... OOO    ",
"    OO....OOOO      ",
"        O.O++       ",
"        OO+         ",
"                    ",
"                    ",
"                    ",
"                    ",
"                    ",
"                    ",
"        +++.        ",
"      OOOOOOOOOO    ",
"       ....         ",
"     .....          ",
"    .XXXXX.O OO..O  ",
"   .Xooooooo....@   ",
"   XooooooooooXO    ",
"   .Xooooooo....@   ",
"    .XXXXX.O OO..O  ",
"     .....          ",
"       ....         ",
"      OOOOOOOOOO    ",
"        +++.        ",
"                    ",
"                    ",
"                    ",
"                    ",
"                    ",
"                    ",
"          +         ",
"        OOO++       ",
"     OOO..OOOO      ",
"    ..XX.... OO     ",
"   XoooXXX.    OO   ",
"   .Xooooo.O        ",
"   OXooooooo OO     ",
"    XXXooooo....O   ",
"     ..XXoo.oXO.@O  ",
"    O.....O ..O     ",
"     O...   O..@    ",
"     +XOO     OOO   ",
"      ++XOO         ",
"        O OOO       ",
"                    ",
"                    ",
"                    ",
"                    ",
"                    ",
"                    ",
"                    ",
"      O.OO  O+      ",
"     XXX.....O+     ",
"    OXooXX....O     ",
"    .XooooX.O..O    ",
"    O.Xoooo.    O   ",
"    O.XooooXO    O  ",
"     ..Xoooo.       ",
"     ....oooXO.     ",
"    O..O O.XoXO.    ",
"    +O..   OXX.@O   ",
"     +OO   .O.      ",
"       O    .@      ",
"        O    O      ",
"         O          ",
"                    ",
"                    ",
"                    ",
"                    ",
"                    ",
"                    ",
"      OOX.          ",
"     OXooo.  O      ",
"     OXoooX..O+     ",
"     .XoooXX..O     ",
"     ..XoooX..O+    ",
"   OO..XoooXO.OOO   ",
"   O...XooooO  O    ",
"   +OO.O.ooX   O    ",
"    +O. OXo.    O   ",
"    +OO   .o.O  O   ",
"      O  O.X..      ",
"      O  O..O@.     ",
"       O  .@  O     ",
"       O  .         ",
"                    ",
"                    ",
"                    "};
