/* XPM */
static char * C3_xpm[] = {
"20 320 6 1",
" 	c None",
".	c #7F977F",
"X	c #91AC91",
"o	c #B0D0B0",
"O	c #A1C1A1",
"+	c #00FF00",
"                    ",
"        .XX.        ",
"       .XooX.       ",
"       XooooX       ",
"      .XooooX.      ",
"  .    XOooOX    .  ",
"  X      OO      X  ",
"  X.     OO     .X  ",
"  +X.    OO    .X+  ",
"  +XXX   OO   XXX+  ",
"  +XXX. XOOX .XXX+  ",
"  XXXOOOOooOOOOXXX  ",
"  +XXOOOooooOOOXX+  ",
"   XXXOOooooOOXXX   ",
"   .XXOOooooOOXX.   ",
"    XX OooooO XX    ",
"    .X XOooOX X.    ",
"     .  XOOX  .     ",
"         XX         ",
"                    ",
"                    ",
"           ..XX     ",
"     .    XoooX.    ",
"    X    .XoooX.    ",
"    X.   XOooooX    ",
"   ++X     ooOX.    ",
"   +XX     OO X.    ",
"   +XXX   OO.       ",
"  +XXXX.  OO      . ",
"   XXOOOXOOO     .X ",
"  .XXOOOOoOX  .X.X+ ",
"  .XXOOOoooOO.XXX+  ",
"  .XXOOooooOOOOXX+  ",
"  .XX OooooOOOXXXX  ",
"   . .OooooOOXXX+   ",
"   .  .oooO XXXX    ",
"      .OOOX XX.     ",
"       ..   X.      ",
"           .        ",
"                    ",
"        .           ",
"       X.           ",
"      X.     ...    ",
"     ++.   XXXXoX   ",
"    O+X.   .Xoooo.  ",
"   +XXXX    OoooX.  ",
"   +XXXX    OoooX.  ",
"   XXOO.   OOOOXX   ",
"  .XXOOO XOOO  .X   ",
"  XXXOOOOOOO        ",
"  XXOOOoooOX        ",
" .. OOooooO       . ",
"    .oooooOO.XX...X ",
"    XooooOOOOXXX+X  ",
"    OOooOOOOOXX++   ",
"     OX.OOXXXXXO    ",
"         XXXX++     ",
"        .XX.        ",
"        .           ",
"                    ",
"           .        ",
"         +X.        ",
"      X++X.         ",
"     +XXX.          ",
"    XXXXXX   ..X..  ",
"   .XXXOX.   XXoXXX ",
"  .XXXOO.     OoooX ",
"  XXXOOOO   .Ooooo. ",
" .   OOOOXOOOOoooo. ",
"   XOooooOOOO  OXX  ",
"   OooooooO    X.   ",
"  .OoooooOX         ",
"  .OooooOOO.        ",
"   ..OOOOOOXX       ",
"     . OOOOXXXX. .  ",
"      XXXXXXXX+XX   ",
"    ..XXXXXX+++     ",
"      .... +        ",
"                    ",
"                    ",
"                    ",
"                    ",
"       +X+++XX.     ",
"     .XXXXXX.       ",
"   .XXXXXXX.        ",
"  .XXXXOOXX         ",
"     OOOO.     .    ",
"   XOOOOO     XXX.  ",
"  XOooooOX    OooX. ",
" XOooooooOOOOOooooX ",
" XOooooooOOOOOooooX ",
"  XOooooOX    OooX. ",
"   XOOOOO     XXX.  ",
"     OOOO.     .    ",
"  .XXXXOOXX         ",
"   .XXXXXXX.        ",
"     .XXXXXX.       ",
"       +X+++X..     ",
"                    ",
"                    ",
"                    ",
"                    ",
"      .... +        ",
"    ..XXXXXX+++     ",
"      XXXXXXXX+     ",
"     . OOOOXXXXXX   ",
"   ..OOOOOOXX  . .  ",
"  .OooooOOO.        ",
"  .OoooooOX         ",
"   OooooooO    X.   ",
"   XOooooOOOO  OXX  ",
" .   OOOOXOOOOoooo. ",
"  XXXOOOO   .Ooooo. ",
"  .XXXOO.     OoooX ",
"   .XXXOX.   XXoXXX ",
"    XXXXXX   ..X..  ",
"     +XXX.          ",
"      X++X.         ",
"         +X.        ",
"           .        ",
"                    ",
"        .           ",
"        .XX.        ",
"         XXXX++     ",
"     OX.OOXXXXXO    ",
"    OOooOOOOOXX++   ",
"    XooooOOOOXXX+X  ",
"    .oooooOO.XX...X ",
" .. OOooooO       . ",
"  XXOOOoooOX        ",
"  XXXOOOOOOO        ",
"  .XXOOO XOOO  .X   ",
"   XXOO.   OOOOXX   ",
"   +XXXX    OoooX.  ",
"   +XXXX    OoooX.  ",
"    O+X.   .Xoooo.  ",
"     ++.   XXXoo.   ",
"      X.     ...    ",
"       X.           ",
"        .           ",
"                    ",
"           .        ",
"       ..   X.      ",
"      .OOOX XX.     ",
"   .  .oooO XXXX    ",
"   . .OooooOOXXX+   ",
"  .XX OooooOOOXXX   ",
"  .XXOOooooOOOOXX+  ",
"  .XXOOOoooOO.XXX+  ",
"  .XXOOOOoOX  .X.X+ ",
"   XXOOOXOOO     .X ",
"  +XXXX.  OO      . ",
"   +XXX   OO.       ",
"   +XX     OO X.    ",
"   ++X     ooOX.    ",
"    X.   XOooooX    ",
"    X    .Xooo..    ",
"     .    Xooo..    ",
"           ..XX     ",
"                    ",
"                    ",
"         XX         ",
"     .  XOOX  .     ",
"    .X XOooOX X     ",
"    XX OooooO X.    ",
"   .XXOOooooOOXX    ",
"   XXXOOooooOOXX.   ",
"  +XXOOOooooOOOXX+  ",
"  XXXOOOOooOOOOXXX  ",
"  +XXX. XOOX .XXX+  ",
"  +XXX   OO   XXX+  ",
"  +X.    OO    .X+  ",
"  X.     OO     .X  ",
"  .      OO      X  ",
"  .    XOooOX    .  ",
"      .XooooX.      ",
"       XooooX       ",
"       .XooX.       ",
"        .XX.        ",
"                    ",
"                    ",
"        .           ",
"      .X   ..       ",
"     .XX XOOO.      ",
"    XXXX Oooo.  .   ",
"   +XXXOOooooO. .   ",
"  XXXXOOOooooO X.   ",
"  +XXOOOOooooOOXX.  ",
"  +XXX.OOoooOOOXX.  ",
" +X.X.  XOoOOOOXX.  ",
" X.     OOOXOOOXX   ",
"..      OO  .XXXX+  ",
"       .OO   XXX+   ",
"    .X OO     XX+   ",
"    .XOoo     X++   ",
"    XooooOX   XX    ",
"    .XoooX.    .    ",
"    .XoooX    .     ",
"     XX..           ",
"                    ",
"                    ",
"           .        ",
"        .XX.        ",
"     ++XXXX         ",
"    OXXXXXOO.XO     ",
"   ++XXOOOOOooXO    ",
"  X+XXXOOOOooooX    ",
" X...XX.OOooooo.    ",
"..       OooooOO .. ",
"        XOoooOOOXX  ",
"        OOOOOOOXXX  ",
"   X.  OOOX OOOXX.  ",
"   XXOOOO   .OOXX   ",
"  .XoooO    XXXX+   ",
"  .ooooO    XXXX+   ",
"  .ooooX.   .X+O    ",
"   .oXXXX   .++     ",
"    ...     .X      ",
"           .X       ",
"           .        ",
"                    ",
"                    ",
"        + ...       ",
"     +++XXXXXX..    ",
"   XX+XXXXXXXX      ",
"  . .XXXXOOOO .     ",
"       XXOOOOOO..   ",
"        .OOOooooO.  ",
"         XOoooooO.  ",
"   .X    OooooooO   ",
"  XXO  OOOOooooOX   ",
" .ooooOOOOXOOOO   . ",
" .ooooO.   OOOOXXX  ",
" XoooO     .OOXXX.  ",
" X..oXX   .XOXXX.   ",
"  ..X..   XXXXXX    ",
"          .XXO+     ",
"         .X++       ",
"        .X+         ",
"        .           ",
"                    ",
"                    ",
"     ..X+++X+       ",
"       .XXXXXX.     ",
"        .XXXXXXX.   ",
"         XXOOXXX..  ",
"    .     .OOOO     ",
"  .XXX     OOOOOX   ",
" .XooO    XOooooOX  ",
" XooooOOOOOooooooOX ",
" XooooOOOOOooooooOX ",
" .XooO    XOooooOX  ",
"  .XXX     OOOOOX   ",
"    .     .OOOO     ",
"         XXOOXXXX.  ",
"        .XXXXXXX.   ",
"       .XXXXXX.     ",
"     .XX+++X+       ",
"                    ",
"                    ",
"        .           ",
"        .X+         ",
"         .X++X      ",
"          .XXX+     ",
"  ..X..   XXXXX     ",
" XXXoXX   .XOXXX    ",
" XoooO     .OOXX.   ",
" .ooooO.   OOOOXXX  ",
" .ooooOOOOXOOOO   . ",
"  XXO  OOOOooooOX   ",
"   .X    OooooooO   ",
"         XOoooooO.  ",
"        .OOOooooO.  ",
"       XXOOOOOO..   ",
"  . XXXXXOOOO .     ",
"   .X+XXXXXXXX      ",
"     +++XXXXX...    ",
"        + ...       ",
"                    ",
"                    ",
"           .        ",
"           .X       ",
"    ...     .X      ",
"   .ooXXX   .++     ",
"  .ooooX.   .X+O    ",
"  .XoooO    XXXX+   ",
"  .XoooO    XXXX+   ",
"   XXOOOO   .OOXX   ",
"   X.  OOOX OOOXX.  ",
"        OOOOOOOXXX  ",
"        XOoooOOOXX  ",
"..       OooooOO .. ",
" X...XX.OOooooo.    ",
"  X+XXXOOOOooooX    ",
"   ++XXOOOOOooXO    ",
"    OXXXXXOO.XO     ",
"     ++XXXX         ",
"        .XX.        ",
"           .        ",
"                    ",
"                    ",
"     XX..           ",
"    .XoooX    .     ",
"    .XoooX.    .    ",
"    XooooOX   .X    ",
"    .XOoo     X++   ",
"    .X OO     XX+   ",
"       .OO   XXX+   ",
"..      OO  .XXXX+  ",
" X.     OOOXOOOXX   ",
" +X.X.  XOoOOOOXX.  ",
"  +XXX.OOoooOOOXX.  ",
"  +XXOOOOooooOOXX.  ",
"   OXXOOOooooO XX   ",
"   +XXXOOooooO. .   ",
"    XXXX Oooo.  .   ",
"     .XX XOOO.      ",
"      .X   ..       ",
"        .           ",
"                    "};
