#define rom_battleship_width 20
#define rom_battleship_height 320
static unsigned char rom_battleship_bits[] = {
	0x00, 0x00, 0x00, 0x00, 0x00, 0x00, 0x08, 0x0f, 0x01, 0x88, 0x1f, 0x01, 0xc8, 0x3f, 0x01,
	0xe8, 0x7f, 0x01, 0xe8, 0x7f, 0x01, 0xf8, 0xff, 0x01, 0xf8, 0xff, 0x01, 0x38, 0xcf, 0x01,
	0x08, 0x06, 0x01, 0x48, 0x2f, 0x01, 0xc0, 0x3f, 0x00, 0xc0, 0x3f, 0x00, 0x40, 0x26, 0x00,
0x40, 0x20, 0x00, 0x40, 0x20, 0x00, 0x40, 0x20, 0x00, 0x00, 0x00, 0x00, 0x00, 0x00, 0x00,
0x00, 0x00, 0x00, 0x20, 0x00, 0x00, 0x10, 0x00, 0x00, 0x10, 0x0f, 0x00, 0xd8, 0x1f, 0x00,
    0xe8, 0x3f, 0x00, 0xf8, 0x3f, 0x02, 0xfc, 0x3f, 0x01, 0xdc, 0x3f, 0x01, 0x82, 0xbf, 0x01,
    0x90, 0xff, 0x00, 0xd0, 0xf3, 0x00, 0xf8, 0x61, 0x00, 0xe8, 0x4b, 0x00, 0xc8, 0x27, 0x00,
0x84, 0x04, 0x00, 0x04, 0x04, 0x00, 0x00, 0x02, 0x00, 0x00, 0x02, 0x00, 0x00, 0x00, 0x00,
0x00, 0x04, 0x00, 0x00, 0x02, 0x00, 0x00, 0x01, 0x00, 0x80, 0x00, 0x00, 0xc0, 0x3f, 0x00,
    0xe0, 0x7f, 0x00, 0xf0, 0xff, 0x00, 0x08, 0xff, 0x00, 0x00, 0xff, 0x00, 0x20, 0xff, 0x08,
    0x90, 0xff, 0x04, 0xf8, 0xff, 0x02, 0xe4, 0xe3, 0x01, 0xe2, 0xe1, 0x00, 0xc0, 0x65, 0x00,
0x00, 0x23, 0x00, 0x00, 0x11, 0x00, 0x80, 0x00, 0x00, 0x40, 0x00, 0x00, 0x00, 0x00, 0x00,
0x00, 0x00, 0x00, 0x00, 0x20, 0x00, 0x00, 0x38, 0x00, 0x00, 0x0e, 0x00, 0x80, 0x03, 0x00,
    0xe0, 0x7f, 0x00, 0x00, 0xff, 0x00, 0x40, 0xfe, 0x01, 0x70, 0xfc, 0x01, 0x7c, 0xfe, 0x01,
    0xe6, 0xff, 0x01, 0xe0, 0xff, 0x01, 0xe0, 0xf9, 0x00, 0xc0, 0x71, 0x04, 0x80, 0x73, 0x07,
0xc0, 0xf0, 0x01, 0x30, 0x38, 0x00, 0x00, 0x0c, 0x00, 0x00, 0x00, 0x00, 0x00, 0x00, 0x00,
0x00, 0x00, 0x00, 0x00, 0x00, 0x00, 0x00, 0x00, 0x00, 0x00, 0xff, 0x03, 0x00, 0x1c, 0x00,
    0x00, 0x7c, 0x00, 0xfc, 0xf9, 0x00, 0xc0, 0xf8, 0x01, 0xc0, 0xfd, 0x03, 0xe0, 0xff, 0x03,
    0xe0, 0xff, 0x03, 0xc0, 0xfd, 0x03, 0xc0, 0xf8, 0x01, 0xfc, 0xf9, 0x00, 0x00, 0x7c, 0x00,
0x00, 0x1c, 0x00, 0x00, 0xff, 0x03, 0x00, 0x00, 0x00, 0x00, 0x00, 0x00, 0x00, 0x00, 0x00,
0x00, 0x00, 0x00, 0x00, 0x00, 0x00, 0x00, 0x0c, 0x00, 0x30, 0x38, 0x00, 0xc0, 0xf0, 0x01,
    0x80, 0x73, 0x07, 0xc0, 0x71, 0x04, 0xe0, 0xf9, 0x00, 0xe0, 0xff, 0x01, 0xe6, 0xff, 0x01,
    0x7c, 0xfe, 0x01, 0x70, 0xfc, 0x01, 0x40, 0xfe, 0x01, 0x00, 0xff, 0x00, 0xe0, 0x7f, 0x00,
0x80, 0x03, 0x00, 0x00, 0x0e, 0x00, 0x00, 0x38, 0x00, 0x00, 0x20, 0x00, 0x00, 0x00, 0x00,
0x00, 0x00, 0x00, 0x40, 0x00, 0x00, 0x80, 0x00, 0x00, 0x00, 0x11, 0x00, 0x00, 0x23, 0x00,
    0xc0, 0x65, 0x00, 0xe2, 0xe1, 0x00, 0xe4, 0xe3, 0x01, 0xf8, 0xff, 0x02, 0x90, 0xff, 0x04,
    0x20, 0xff, 0x08, 0x00, 0xff, 0x00, 0x08, 0xff, 0x00, 0xf0, 0xff, 0x00, 0xe0, 0x7f, 0x00,
0xc0, 0x3f, 0x00, 0x80, 0x00, 0x00, 0x00, 0x01, 0x00, 0x00, 0x02, 0x00, 0x00, 0x04, 0x00,
0x00, 0x00, 0x00, 0x00, 0x04, 0x00, 0x00, 0x04, 0x00, 0x08, 0x08, 0x00, 0x08, 0x09, 0x00,
    0x90, 0x4f, 0x00, 0xd0, 0x97, 0x00, 0xf0, 0xc3, 0x00, 0xa0, 0xe7, 0x01, 0x20, 0xff, 0x01,
    0x04, 0x7f, 0x03, 0xb8, 0x7f, 0x02, 0xf8, 0x7f, 0x02, 0xf0, 0x7f, 0x04, 0xd0, 0x7f, 0x00,
0xb0, 0x3f, 0x00, 0x20, 0x1e, 0x00, 0x20, 0x00, 0x00, 0x40, 0x00, 0x00, 0x00, 0x00, 0x00,
0x00, 0x00, 0x00, 0x00, 0x00, 0x00, 0x40, 0x20, 0x00, 0x40, 0x20, 0x00, 0x40, 0x20, 0x00,
    0x40, 0x26, 0x00, 0xc0, 0x3f, 0x00, 0xc0, 0x3f, 0x00, 0x48, 0x2f, 0x01, 0x08, 0x06, 0x01,
    0x38, 0xcf, 0x01, 0xf8, 0xff, 0x01, 0xf8, 0xff, 0x01, 0xe8, 0x7f, 0x01, 0xe8, 0x7f, 0x01,
0xc8, 0x3f, 0x01, 0x88, 0x1f, 0x01, 0x08, 0x0f, 0x01, 0x00, 0x00, 0x00, 0x00, 0x00, 0x00,
0x00, 0x00, 0x00, 0x00, 0x02, 0x00, 0x00, 0x02, 0x00, 0x00, 0x01, 0x01, 0x00, 0x09, 0x01,
    0x20, 0x9f, 0x00, 0x90, 0xbe, 0x00, 0x30, 0xfc, 0x00, 0x78, 0x5e, 0x00, 0xf8, 0x4f, 0x00,
    0xec, 0x0f, 0x02, 0xe4, 0xdf, 0x01, 0xe4, 0xff, 0x01, 0xe2, 0xff, 0x00, 0xe0, 0xbf, 0x00,
0xc0, 0xdf, 0x00, 0x80, 0x47, 0x00, 0x00, 0x40, 0x00, 0x00, 0x20, 0x00, 0x00, 0x00, 0x00,
0x00, 0x00, 0x00, 0x00, 0x20, 0x00, 0x00, 0x10, 0x00, 0x80, 0x08, 0x00, 0x40, 0x0c, 0x00,
    0x60, 0x3a, 0x00, 0x70, 0x78, 0x04, 0x78, 0x7c, 0x02, 0xf4, 0xff, 0x01, 0xf2, 0x9f, 0x00,
    0xf1, 0x4f, 0x00, 0xf0, 0x0f, 0x00, 0xf0, 0x0f, 0x01, 0xf0, 0xff, 0x00, 0xe0, 0x7f, 0x00,
0xc0, 0x3f, 0x00, 0x00, 0x10, 0x00, 0x00, 0x08, 0x00, 0x00, 0x04, 0x00, 0x00, 0x02, 0x00,
0x00, 0x00, 0x00, 0x00, 0x00, 0x00, 0x00, 0x03, 0x00, 0xc0, 0xc1, 0x00, 0xf8, 0x30, 0x00,
    0xee, 0x1c, 0x00, 0xe2, 0x38, 0x00, 0xf0, 0x79, 0x00, 0xf8, 0x7f, 0x00, 0xf8, 0x7f, 0x06,
    0xf8, 0xe7, 0x03, 0xf8, 0xe3, 0x00, 0xf8, 0x27, 0x00, 0xf0, 0x0f, 0x00, 0xe0, 0x7f, 0x00,
0x00, 0x1c, 0x00, 0x00, 0x07, 0x00, 0xc0, 0x01, 0x00, 0x40, 0x00, 0x00, 0x00, 0x00, 0x00,
0x00, 0x00, 0x00, 0x00, 0x00, 0x00, 0x00, 0x00, 0x00, 0xfc, 0x0f, 0x00, 0x80, 0x03, 0x00,
    0xe0, 0x03, 0x00, 0xf0, 0xf9, 0x03, 0xf8, 0x31, 0x00, 0xfc, 0x3b, 0x00, 0xfc, 0x7f, 0x00,
    0xfc, 0x7f, 0x00, 0xfc, 0x3b, 0x00, 0xf8, 0x31, 0x00, 0xf0, 0xf9, 0x03, 0xe0, 0x03, 0x00,
0x80, 0x03, 0x00, 0xfc, 0x0f, 0x00, 0x00, 0x00, 0x00, 0x00, 0x00, 0x00, 0x00, 0x00, 0x00,
0x00, 0x00, 0x00, 0x40, 0x00, 0x00, 0xc0, 0x01, 0x00, 0x00, 0x07, 0x00, 0x00, 0x1c, 0x00,
    0xe0, 0x7f, 0x00, 0xf0, 0x0f, 0x00, 0xf8, 0x27, 0x00, 0xf8, 0xe3, 0x00, 0xf8, 0xe7, 0x03,
    0xf8, 0x7f, 0x06, 0xf8, 0x7f, 0x00, 0xf0, 0x79, 0x00, 0xe2, 0x38, 0x00, 0xee, 0x1c, 0x00,
0xf8, 0x30, 0x00, 0xc0, 0xc1, 0x00, 0x00, 0x03, 0x00, 0x00, 0x00, 0x00, 0x00, 0x00, 0x00,
0x00, 0x02, 0x00, 0x00, 0x04, 0x00, 0x00, 0x08, 0x00, 0x00, 0x10, 0x00, 0xc0, 0x3f, 0x00,
    0xe0, 0x7f, 0x00, 0xf0, 0xff, 0x00, 0xf0, 0x0f, 0x01, 0xf0, 0x0f, 0x00, 0xf1, 0x4f, 0x00,
    0xf2, 0x9f, 0x00, 0xf4, 0xff, 0x01, 0x78, 0x7c, 0x02, 0x70, 0x78, 0x04, 0x60, 0x3a, 0x00,
0x40, 0x0c, 0x00, 0x80, 0x08, 0x00, 0x00, 0x10, 0x00, 0x00, 0x20, 0x00, 0x00, 0x00, 0x00,
0x00, 0x00, 0x00, 0x00, 0x40, 0x00, 0x00, 0x80, 0x00, 0x00, 0x8f, 0x00, 0x80, 0xbf, 0x01,
    0xc0, 0x7f, 0x01, 0xc4, 0xff, 0x01, 0xc8, 0xff, 0x03, 0xc8, 0xbf, 0x03, 0xd8, 0x1f, 0x04,
    0xf0, 0x9f, 0x00, 0xf0, 0xbc, 0x00, 0x60, 0xf8, 0x01, 0x20, 0x7d, 0x01, 0x40, 0x3e, 0x01,
0x00, 0x12, 0x02, 0x00, 0x02, 0x02, 0x00, 0x04, 0x00, 0x00, 0x04, 0x00, 0x00, 0x00, 0x00};
