/* XPM */
static char * C2_xpm[] = {
"20 320 6 1",
" 	c None",
".	c #7F977F",
"X	c #91AC91",
"o	c #A1C1A1",
"O	c #B0D0B0",
"+	c #00FF00",
"                    ",
"                    ",
"                    ",
"                    ",
"        .  .        ",
"        X  X        ",
"     oooo  oooo     ",
"  .XoOOOO  OOOOoX.  ",
"  XoOOOOO  OOOOOoX  ",
"  ooOOOXX  XXOOOoo  ",
"  ooOOXooXXooXOOoo  ",
"  XXOO.OoXXoO.OOXX  ",
"  . OO.+O..O+.OO .  ",
"      .Oo  oO.      ",
"       +O  O+       ",
"       +O  O+       ",
"                    ",
"                    ",
"                    ",
"                    ",
"                    ",
"                    ",
"                    ",
"           .        ",
"    ......X  .      ",
"   XXooOOoo  X      ",
"   ooOOOOOO  o      ",
"   ooOOOOO  OOoX    ",
"  .XOOOXXX  OOOO.   ",
"    OO.OoXX.XOOOoX  ",
"     O.+oXXooOOOOo. ",
"     .OOO.XoOXOOoo  ",
"      +o  OO+.OOoo  ",
"      +O  oO.OOXXX  ",
"          O+.   .   ",
"         X+         ",
"                    ",
"                    ",
"                    ",
"                    ",
"                    ",
"                    ",
"      .             ",
"     oXX..          ",
"    ooooOoX  .      ",
"   XXooOOOOoX       ",
"   X.OOOOOOO   .    ",
"     OOXoXO   X     ",
"     O.+oo   Oo     ",
"     .oOoXX OOOX    ",
"     +OO.XXoXOOo.   ",
"    ++O ..oooOOO.   ",
"     O   OO+XOOoX   ",
"        OOo.OOooX.  ",
"       O++.OOOooo   ",
"        +    .Xo    ",
"             XX     ",
"                    ",
"                    ",
"                    ",
"                    ",
"         .          ",
"      XoooX         ",
"     .XooOo.        ",
"      XOOOOO.       ",
"      OOOOOOo       ",
"      O.XOOOOoX.    ",
"     ..+OoXOO       ",
"     +OOoo.     .   ",
"    +OoOXXX  OoX    ",
"    X   .XXXOOo.    ",
"        OooXOOO.    ",
"      OoO+OXOOO.    ",
"      ++O..OOOo.    ",
"        .OOOOOo.    ",
"          OOooX.    ",
"           XooX     ",
"           .        ",
"                    ",
"                    ",
"                    ",
"                    ",
"       .XooX.       ",
"        XoooX       ",
"       OOOOOo       ",
"       OOOOOOo      ",
"      ...XOOOo      ",
"    ++O+OoXOOo      ",
"    OOoOooXOOoX.    ",
"       .XX          ",
"       .XX          ",
"    OOoOooXOOoX.    ",
"    ++O+OoXOOo      ",
"      ...XOOOo      ",
"       OOOOOOo      ",
"       OOOOOo       ",
"        XoooX       ",
"       .XooX.       ",
"                    ",
"                    ",
"                    ",
"                    ",
"           .        ",
"           XooX     ",
"          OOooX     ",
"        .OOOOOo.    ",
"      ++O..OOOo.    ",
"      OoO+OXOOO.    ",
"        OooXOOO.    ",
"    X   .XXXOOo.    ",
"    +OoOXXX  OoX    ",
"     +OOoo.     .   ",
"     ..+OoXOO       ",
"      O.XOOOOoX.    ",
"      OOOOOOo       ",
"      XOOOOOX       ",
"     .XooOo.        ",
"      XoooX         ",
"         .          ",
"                    ",
"                    ",
"                    ",
"                    ",
"             XX     ",
"        +    .Xo    ",
"       O++.OOOooo   ",
"        OOo.OOooo.  ",
"     O   OO+XOOoX   ",
"    ++O ..oooOOO.   ",
"     +OO.XXoXOOo.   ",
"     .oOoXX OOOX    ",
"     O.+oo   Oo     ",
"     OOXoXO   X     ",
"   X.OOOOOOO   .    ",
"   XXooOOOOoX       ",
"    ooooOoX  .      ",
"     oXX..          ",
"      .             ",
"                    ",
"                    ",
"                    ",
"                    ",
"                    ",
"                    ",
"         X+         ",
"          O+.   .   ",
"      +O  oO.OOXXX  ",
"      +o  OO+.OOoo  ",
"     .OOO.XoOXOOoo  ",
"     O.+oXXooOOOOo. ",
"    OO.OoXX.XOOOoX  ",
"  .XOOOXXX  OOOO.   ",
"   ooOOOOO  OOo.    ",
"   ooOOOOOO  o      ",
"   XXooOOoo  X      ",
"    ......X  .      ",
"           .        ",
"                    ",
"                    ",
"                    ",
"                    ",
"                    ",
"                    ",
"                    ",
"       +O  O+       ",
"       +O  O+       ",
"      .Oo  oO.      ",
"  . OO.+O..O+.OO .  ",
"  XXOO.OoXXoO.OOXX  ",
"  ooOOXooXXooXOOoo  ",
"  ooOOOXX  XXOOOoo  ",
"  XoOOOOO  OOOOOoX  ",
"  .XoOOOO  OOOOoX.  ",
"     oooo  oooo     ",
"        X  X        ",
"        .  .        ",
"                    ",
"                    ",
"                    ",
"                    ",
"                    ",
"                    ",
"                    ",
"                    ",
"         +X         ",
"   .   .+O          ",
"  XXXOO.Oo  O+      ",
"  ooOO.+OO  o+      ",
"  ooOOXOoX.OOO.     ",
" .oOOOOooXXo+.O     ",
"  XoOOOX.XXoO.OO    ",
"   .OOOO  XXXOOOX.  ",
"    XoOO  OOOOOoo   ",
"      o  OOOOOOoo   ",
"      X  ooOOooXX   ",
"      .  X......    ",
"        .           ",
"                    ",
"                    ",
"                    ",
"                    ",
"                    ",
"                    ",
"     XX             ",
"    oX.    +        ",
"   oooOOO.++O       ",
"  .XooOO.oOO        ",
"   XoOOX+OO   O     ",
"   .OOOooo.. O++    ",
"   .oOOXoXX.OO+     ",
"    XOOO XXoOo.     ",
"     oO   oo+.O     ",
"     X   OXoXOO     ",
"    .   OOOOOOO.X   ",
"       XoOOOOooXX   ",
"      .  XoOoooo    ",
"          ..Xoo     ",
"             .      ",
"                    ",
"                    ",
"                    ",
"                    ",
"        .           ",
"     XooX           ",
"    .XooOO          ",
"    .oOOOOO.        ",
"    .oOOO..O++      ",
"    .OOOXO+OoO      ",
"    .OOOXooO        ",
"    .oOOXXX.   X    ",
"    XoO  XXXOoO+    ",
"   .     .ooOO+     ",
"       OOXoO+..     ",
"    .XoOOOOX.O      ",
"       oOOOOOO      ",
"       .OOOOOX      ",
"        .oOooX.     ",
"         XoooX      ",
"          .         ",
"                    ",
"                    ",
"                    ",
"       .XooX.       ",
"       XoooX        ",
"       oOOOOO       ",
"      oOOOOOO       ",
"      oOOOX...      ",
"      oOOXoO+O++    ",
"    .XoOOXooOoOO    ",
"          XX.       ",
"          XX.       ",
"    .XoOOXooOoOO    ",
"      oOOXoO+O++    ",
"      oOOOX...      ",
"      oOOOOOO       ",
"       oOOOOO       ",
"       XoooX        ",
"       .XooX.       ",
"                    ",
"                    ",
"                    ",
"          .         ",
"         XoooX      ",
"        .oOooX.     ",
"       XOOOOOX      ",
"       oOOOOOO      ",
"    .XoOOOOX.O      ",
"       OOXoO+..     ",
"   .     .ooOO+     ",
"    XoO  XXXOoO+    ",
"    .oOOXXX.   X    ",
"    .OOOXooO        ",
"    .OOOXO+OoO      ",
"    .oOOO..O++      ",
"    .oOOOOO.        ",
"    .XooOO          ",
"     XooX           ",
"        .           ",
"                    ",
"                    ",
"                    ",
"                    ",
"             .      ",
"          ..XXo     ",
"      .  XoOoooo    ",
"       XoOOOOoooX   ",
"    .   OOOOOOOXX   ",
"     X   OXoXOO     ",
"     oO   oo+.O     ",
"    XOOO XXoOo.     ",
"   .oOOXoXX.OO+     ",
"   .OOOooo.. O++    ",
"   XoOOX+OO   O     ",
"  .oooOO.oOO        ",
"   oooOOO.++O       ",
"    oX.    +        ",
"     XX             ",
"                    ",
"                    ",
"                    ",
"                    ",
"                    ",
"                    ",
"        .           ",
"      .  X......    ",
"      X  ooOOooXX   ",
"      o  OOOOOOoo   ",
"    .oOO  OOOOOoo   ",
"   .OOOO  XXXOOOX.  ",
"  XoOOOX.XXoO.OO    ",
" .oOOOOooXXo+.O     ",
"  ooOOXOoX.OOO.     ",
"  ooOO.+OO  o+      ",
"  XXXOO.Oo  O+      ",
"   .   .+O          ",
"         +X         ",
"                    ",
"                    ",
"                    ",
"                    "};
