#define rom_cruiser_width 20
#define rom_cruiser_height 320
static unsigned char rom_cruiser_bits[] = {
	0x00, 0x00, 0x00, 0x00, 0x00, 0x00, 0x00, 0x00, 0x00, 0x00, 0x00, 0x00, 0x00, 0x00, 0x00,
	0x08, 0x0f, 0x01, 0x88, 0x1f, 0x01, 0xc8, 0x3f, 0x01, 0xe8, 0x7f, 0x01, 0xe8, 0x7f, 0x01,
	0xf8, 0xff, 0x01, 0xf8, 0xff, 0x01, 0x38, 0xc0, 0x01, 0x08, 0x00, 0x01, 0x08, 0x00, 0x01,
0x00, 0x00, 0x00, 0x00, 0x00, 0x00, 0x00, 0x00, 0x00, 0x00, 0x00, 0x00, 0x00, 0x00, 0x00,
0x00, 0x00, 0x00, 0x00, 0x00, 0x00, 0x00, 0x00, 0x00, 0x20, 0x00, 0x00, 0x10, 0x00, 0x00,
    0x10, 0x0f, 0x00, 0xc8, 0x1f, 0x00, 0xe8, 0x3f, 0x00, 0xfc, 0x3f, 0x02, 0xfc, 0x3f, 0x01,
    0xc4, 0x3f, 0x01, 0x02, 0xbe, 0x00, 0x00, 0xf8, 0x00, 0x00, 0x70, 0x00, 0x00, 0x60, 0x00,
0x00, 0x40, 0x00, 0x00, 0x20, 0x00, 0x00, 0x00, 0x00, 0x00, 0x00, 0x00, 0x00, 0x00, 0x00,
0x00, 0x00, 0x00, 0x00, 0x02, 0x00, 0x00, 0x01, 0x00, 0x80, 0x00, 0x00, 0x40, 0x00, 0x00,
    0xa0, 0x1f, 0x00, 0xf0, 0x3f, 0x00, 0xf8, 0x7f, 0x00, 0xe4, 0x7f, 0x00, 0x80, 0x7f, 0x00,
    0x00, 0x7f, 0x04, 0x00, 0x7e, 0x02, 0x00, 0x7c, 0x01, 0x00, 0xb8, 0x00, 0x00, 0x78, 0x00,
0x00, 0x30, 0x00, 0x00, 0x10, 0x00, 0x00, 0x08, 0x00, 0x00, 0x00, 0x00, 0x00, 0x00, 0x00,
0x00, 0x00, 0x00, 0x00, 0x08, 0x00, 0x00, 0x06, 0x00, 0xc0, 0x01, 0x00, 0xf0, 0x00, 0x00,
    0xfc, 0x0f, 0x00, 0xe0, 0x3f, 0x00, 0xc0, 0x3f, 0x00, 0x80, 0x3f, 0x00, 0x80, 0x7f, 0x00,
    0x00, 0x7f, 0x00, 0x00, 0x3f, 0x00, 0x00, 0x3e, 0x00, 0x00, 0x1e, 0x01, 0x00, 0xce, 0x00,
0x00, 0x3e, 0x00, 0x00, 0x06, 0x00, 0x80, 0x01, 0x00, 0x00, 0x00, 0x00, 0x00, 0x00, 0x00,
0x00, 0x00, 0x00, 0x00, 0x00, 0x00, 0x00, 0x00, 0x00, 0xe0, 0x7f, 0x00, 0x80, 0x03, 0x00,
    0x80, 0x0f, 0x00, 0x00, 0x1f, 0x00, 0x00, 0x3f, 0x00, 0x00, 0x7f, 0x00, 0x00, 0x7f, 0x00,
    0x00, 0x7f, 0x00, 0x00, 0x7f, 0x00, 0x00, 0x3f, 0x00, 0x00, 0x1f, 0x00, 0x80, 0x0f, 0x00,
0x80, 0x03, 0x00, 0xe0, 0x7f, 0x00, 0x00, 0x00, 0x00, 0x00, 0x00, 0x00, 0x00, 0x00, 0x00,
0x00, 0x00, 0x00, 0x00, 0x00, 0x00, 0x80, 0x01, 0x00, 0x00, 0x06, 0x00, 0x00, 0x3e, 0x00,
    0x00, 0xce, 0x00, 0x00, 0x1e, 0x01, 0x00, 0x3e, 0x00, 0x00, 0x3f, 0x00, 0x00, 0x7f, 0x00,
    0x80, 0x7f, 0x00, 0x80, 0x3f, 0x00, 0xc0, 0x3f, 0x00, 0xe0, 0x3f, 0x00, 0xfc, 0x0f, 0x00,
0xf0, 0x00, 0x00, 0xc0, 0x01, 0x00, 0x00, 0x06, 0x00, 0x00, 0x08, 0x00, 0x00, 0x00, 0x00,
0x00, 0x00, 0x00, 0x00, 0x00, 0x00, 0x00, 0x08, 0x00, 0x00, 0x10, 0x00, 0x00, 0x30, 0x00,
    0x00, 0x78, 0x00, 0x00, 0xb8, 0x00, 0x00, 0x7c, 0x01, 0x00, 0x7e, 0x02, 0x00, 0x7f, 0x04,
    0x80, 0x7f, 0x00, 0xe4, 0x7f, 0x00, 0xf8, 0x7f, 0x00, 0xf0, 0x3f, 0x00, 0xa0, 0x1f, 0x00,
0x40, 0x00, 0x00, 0x80, 0x00, 0x00, 0x00, 0x01, 0x00, 0x00, 0x02, 0x00, 0x00, 0x00, 0x00,
0x00, 0x00, 0x00, 0x00, 0x00, 0x00, 0x00, 0x00, 0x00, 0x00, 0x20, 0x00, 0x00, 0x40, 0x00,
    0x00, 0x60, 0x00, 0x00, 0x70, 0x00, 0x00, 0xf8, 0x00, 0x02, 0xbe, 0x00, 0xc4, 0x3f, 0x01,
    0xfc, 0x3f, 0x01, 0xfc, 0x3f, 0x02, 0xe8, 0x3f, 0x00, 0xc8, 0x1f, 0x00, 0x10, 0x0f, 0x00,
0x10, 0x00, 0x00, 0x20, 0x00, 0x00, 0x00, 0x00, 0x00, 0x00, 0x00, 0x00, 0x00, 0x00, 0x00,
0x00, 0x00, 0x00, 0x00, 0x00, 0x00, 0x00, 0x00, 0x00, 0x00, 0x00, 0x00, 0x00, 0x00, 0x00,
    0x08, 0x00, 0x01, 0x08, 0x00, 0x01, 0x38, 0xc0, 0x01, 0xf8, 0xff, 0x01, 0xf8, 0xff, 0x01,
    0xe8, 0x7f, 0x01, 0xe8, 0x7f, 0x01, 0xc8, 0x3f, 0x01, 0x88, 0x1f, 0x01, 0x08, 0x0f, 0x01,
0x00, 0x00, 0x00, 0x00, 0x00, 0x00, 0x00, 0x00, 0x00, 0x00, 0x00, 0x00, 0x00, 0x00, 0x00,
0x00, 0x00, 0x00, 0x00, 0x00, 0x00, 0x00, 0x00, 0x00, 0x40, 0x00, 0x00, 0x20, 0x00, 0x00,
    0x60, 0x00, 0x00, 0xe0, 0x00, 0x00, 0xf0, 0x01, 0x00, 0xd0, 0x07, 0x04, 0xc8, 0x3f, 0x02,
    0xc8, 0xff, 0x03, 0xc4, 0xff, 0x03, 0xc0, 0x7f, 0x01, 0x80, 0x3f, 0x01, 0x00, 0x8f, 0x00,
0x00, 0x80, 0x00, 0x00, 0x40, 0x00, 0x00, 0x00, 0x00, 0x00, 0x00, 0x00, 0x00, 0x00, 0x00,
0x00, 0x00, 0x00, 0x00, 0x00, 0x00, 0x00, 0x02, 0x00, 0x00, 0x01, 0x00, 0x80, 0x01, 0x00,
    0xc0, 0x03, 0x00, 0xa0, 0x03, 0x00, 0xd0, 0x07, 0x00, 0xc8, 0x0f, 0x00, 0xc4, 0x1f, 0x00,
    0xc0, 0x3f, 0x00, 0xc0, 0xff, 0x04, 0xc0, 0xff, 0x03, 0x80, 0xff, 0x01, 0x00, 0xbf, 0x00,
0x00, 0x40, 0x00, 0x00, 0x20, 0x00, 0x00, 0x10, 0x00, 0x00, 0x08, 0x00, 0x00, 0x00, 0x00,
0x00, 0x00, 0x00, 0x00, 0x00, 0x00, 0x00, 0x18, 0x00, 0x00, 0x06, 0x00, 0xc0, 0x07, 0x00,
    0x30, 0x07, 0x00, 0x88, 0x07, 0x00, 0xc0, 0x07, 0x00, 0xc0, 0x0f, 0x00, 0xe0, 0x0f, 0x00,
    0xe0, 0x1f, 0x00, 0xc0, 0x1f, 0x00, 0xc0, 0x3f, 0x00, 0xc0, 0x7f, 0x00, 0x00, 0xff, 0x03,
0x00, 0xf0, 0x00, 0x00, 0x38, 0x00, 0x00, 0x06, 0x00, 0x00, 0x01, 0x00, 0x00, 0x00, 0x00,
0x00, 0x00, 0x00, 0x00, 0x00, 0x00, 0x00, 0x00, 0x00, 0xe0, 0x7f, 0x00, 0x00, 0x1c, 0x00,
    0x00, 0x1f, 0x00, 0x80, 0x0f, 0x00, 0xc0, 0x0f, 0x00, 0xe0, 0x0f, 0x00, 0xe0, 0x0f, 0x00,
    0xe0, 0x0f, 0x00, 0xe0, 0x0f, 0x00, 0xc0, 0x0f, 0x00, 0x80, 0x0f, 0x00, 0x00, 0x1f, 0x00,
0x00, 0x1c, 0x00, 0xe0, 0x7f, 0x00, 0x00, 0x00, 0x00, 0x00, 0x00, 0x00, 0x00, 0x00, 0x00,
0x00, 0x00, 0x00, 0x00, 0x01, 0x00, 0x00, 0x06, 0x00, 0x00, 0x38, 0x00, 0x00, 0xf0, 0x00,
    0x00, 0xff, 0x03, 0xc0, 0x7f, 0x00, 0xc0, 0x3f, 0x00, 0xc0, 0x1f, 0x00, 0xe0, 0x1f, 0x00,
    0xe0, 0x0f, 0x00, 0xc0, 0x0f, 0x00, 0xc0, 0x07, 0x00, 0x88, 0x07, 0x00, 0x30, 0x07, 0x00,
0xc0, 0x07, 0x00, 0x00, 0x06, 0x00, 0x00, 0x18, 0x00, 0x00, 0x00, 0x00, 0x00, 0x00, 0x00,
0x00, 0x00, 0x00, 0x00, 0x08, 0x00, 0x00, 0x10, 0x00, 0x00, 0x20, 0x00, 0x00, 0x40, 0x00,
    0x00, 0xbf, 0x00, 0x80, 0xff, 0x01, 0xc0, 0xff, 0x03, 0xc0, 0xff, 0x04, 0xc0, 0x3f, 0x00,
    0xc4, 0x1f, 0x00, 0xc8, 0x0f, 0x00, 0xd0, 0x07, 0x00, 0xa0, 0x03, 0x00, 0xc0, 0x03, 0x00,
0x80, 0x01, 0x00, 0x00, 0x01, 0x00, 0x00, 0x02, 0x00, 0x00, 0x00, 0x00, 0x00, 0x00, 0x00,
0x00, 0x00, 0x00, 0x00, 0x00, 0x00, 0x00, 0x00, 0x00, 0x00, 0x40, 0x00, 0x00, 0x80, 0x00,
    0x00, 0x8f, 0x00, 0x80, 0x3f, 0x01, 0xc0, 0x7f, 0x01, 0xc4, 0xff, 0x03, 0xc8, 0xff, 0x03,
    0xc8, 0x3f, 0x02, 0xd0, 0x07, 0x04, 0xf0, 0x01, 0x00, 0xe0, 0x00, 0x00, 0x60, 0x00, 0x00,
0x20, 0x00, 0x00, 0x40, 0x00, 0x00, 0x00, 0x00, 0x00, 0x00, 0x00, 0x00, 0x00, 0x00, 0x00};
