#define rom_lightcruiser_width 20
#define rom_lightcruiser_height 320
static unsigned char rom_lightcruiser_bits[] = {
	0x00, 0x00, 0x00, 0x00, 0x06, 0x00, 0x00, 0x0f, 0x00, 0x00, 0x0f, 0x00,
	0x00, 0x0f, 0x00, 0x00, 0x06, 0x00, 0x00, 0x06, 0x00, 0x08, 0x06, 0x01,
	0x08, 0x06, 0x01, 0x08, 0x0f, 0x01, 0x08, 0x0f, 0x01, 0x88, 0x1f, 0x01,
	0xf8, 0xff, 0x01, 0xf8, 0xff, 0x01, 0xf8, 0xff, 0x01, 0xc8, 0x3f, 0x01,
0x08, 0x0f, 0x01, 0x00, 0x0f, 0x00, 0x00, 0x09, 0x00, 0x00, 0x00, 0x00,
0x00, 0x00, 0x00, 0x00, 0x10, 0x00, 0x00, 0x38, 0x00, 0x00, 0x78, 0x00,
    0x00, 0x3c, 0x00, 0x10, 0x38, 0x00, 0x10, 0x1c, 0x00, 0x18, 0x0c, 0x00,
    0x08, 0x0f, 0x00, 0x08, 0x0f, 0x00, 0xfc, 0x0f, 0x01, 0xfc, 0x0f, 0x01,
    0xfe, 0x8f, 0x01, 0xf2, 0x9f, 0x00, 0xe0, 0xff, 0x00, 0xc0, 0x7f, 0x00,
0xe0, 0x6f, 0x00, 0xa0, 0x21, 0x00, 0x00, 0x21, 0x00, 0x00, 0x00, 0x00,
0x00, 0x00, 0x00, 0x00, 0x00, 0x00, 0x00, 0x00, 0x00, 0x80, 0xc0, 0x00,
    0x40, 0xe0, 0x01, 0x20, 0xe0, 0x01, 0x10, 0xf0, 0x00, 0x18, 0x38, 0x00,
    0x3c, 0x1e, 0x00, 0xfe, 0x0f, 0x00, 0xf8, 0x0f, 0x00, 0xf8, 0x07, 0x00,
    0xf0, 0x07, 0x01, 0xf0, 0x87, 0x00, 0xf8, 0x4f, 0x00, 0xf0, 0x3f, 0x00,
0x20, 0x1f, 0x00, 0x00, 0x0c, 0x00, 0x00, 0x04, 0x00, 0x00, 0x00, 0x00,
0x00, 0x00, 0x00, 0x00, 0x00, 0x00, 0x00, 0x00, 0x00, 0x80, 0x03, 0x00,
    0xe0, 0x00, 0x00, 0x38, 0x00, 0x01, 0x3e, 0xc0, 0x03, 0x70, 0xe0, 0x07,
    0xf8, 0xff, 0x03, 0xf8, 0xbf, 0x00, 0xf8, 0x0f, 0x00, 0xfe, 0x0f, 0x00,
    0xfc, 0x03, 0x00, 0xf8, 0x03, 0x00, 0xec, 0x03, 0x00, 0xc0, 0x73, 0x00,
0x80, 0x1f, 0x00, 0x80, 0x03, 0x00, 0xc0, 0x00, 0x00, 0x00, 0x00, 0x00,
0x00, 0x00, 0x00, 0x00, 0x00, 0x00, 0x00, 0x00, 0x00, 0xf8, 0x1f, 0x00,
    0xe0, 0x00, 0x00, 0xe0, 0x00, 0x00, 0xf0, 0x00, 0x00, 0xf0, 0x01, 0x00,
    0xfe, 0x87, 0x03, 0xfc, 0xff, 0x07, 0xfc, 0xff, 0x07, 0xfe, 0x87, 0x03,
    0xf0, 0x01, 0x00, 0xf0, 0x00, 0x00, 0xe0, 0x00, 0x00, 0xe0, 0x00, 0x00,
0xf8, 0x1f, 0x00, 0x00, 0x00, 0x00, 0x00, 0x00, 0x00, 0x00, 0x00, 0x00,
0x00, 0x00, 0x00, 0xc0, 0x00, 0x00, 0x80, 0x03, 0x00, 0x80, 0x1f, 0x00,
    0xc0, 0x73, 0x00, 0xec, 0x03, 0x00, 0xf8, 0x03, 0x00, 0xfc, 0x03, 0x00,
    0xfe, 0x0f, 0x00, 0xf8, 0x0f, 0x00, 0xf8, 0xbf, 0x00, 0xf8, 0xff, 0x03,
    0x70, 0xe0, 0x07, 0x3e, 0xc0, 0x03, 0x38, 0x00, 0x01, 0xe0, 0x00, 0x00,
0x80, 0x03, 0x00, 0x00, 0x00, 0x00, 0x00, 0x00, 0x00, 0x00, 0x00, 0x00,
0x00, 0x00, 0x00, 0x00, 0x04, 0x00, 0x00, 0x0c, 0x00, 0x20, 0x1f, 0x00,
    0xf0, 0x3f, 0x00, 0xf8, 0x4f, 0x00, 0xf0, 0x87, 0x00, 0xf0, 0x07, 0x01,
    0xf8, 0x07, 0x00, 0xf8, 0x0f, 0x00, 0xfe, 0x0f, 0x00, 0x3c, 0x1e, 0x00,
    0x18, 0x38, 0x00, 0x10, 0xf0, 0x00, 0x20, 0xe0, 0x01, 0x40, 0xe0, 0x01,
0x80, 0xc0, 0x00, 0x00, 0x00, 0x00, 0x00, 0x00, 0x00, 0x00, 0x00, 0x00,
0x00, 0x00, 0x00, 0x00, 0x21, 0x00, 0xa0, 0x21, 0x00, 0xe0, 0x6f, 0x00,
    0xc0, 0x7f, 0x00, 0xe0, 0xff, 0x00, 0xf2, 0x9f, 0x00, 0xfe, 0x8f, 0x01,
    0xfc, 0x0f, 0x01, 0xfc, 0x0f, 0x01, 0x08, 0x0f, 0x00, 0x08, 0x0f, 0x00,
    0x18, 0x0c, 0x00, 0x10, 0x1c, 0x00, 0x10, 0x38, 0x00, 0x00, 0x3c, 0x00,
0x00, 0x78, 0x00, 0x00, 0x38, 0x00, 0x00, 0x10, 0x00, 0x00, 0x00, 0x00,
0x00, 0x00, 0x00, 0x00, 0x09, 0x00, 0x00, 0x0f, 0x00, 0x08, 0x0f, 0x01,
    0xc8, 0x3f, 0x01, 0xf8, 0xff, 0x01, 0xf8, 0xff, 0x01, 0xf8, 0xff, 0x01,
    0x88, 0x1f, 0x01, 0x08, 0x0f, 0x01, 0x08, 0x0f, 0x01, 0x08, 0x06, 0x01,
    0x08, 0x06, 0x01, 0x00, 0x06, 0x00, 0x00, 0x06, 0x00, 0x00, 0x0f, 0x00,
0x00, 0x0f, 0x00, 0x00, 0x0f, 0x00, 0x00, 0x06, 0x00, 0x00, 0x00, 0x00,
0x00, 0x00, 0x00, 0x40, 0x08, 0x00, 0x40, 0x58, 0x00, 0x60, 0x7f, 0x00,
    0xe0, 0x3f, 0x00, 0xf0, 0x7f, 0x00, 0x90, 0xff, 0x04, 0x18, 0xff, 0x07,
    0x08, 0xff, 0x03, 0x08, 0xff, 0x03, 0x00, 0x0f, 0x01, 0x00, 0x0f, 0x01,
    0x00, 0x83, 0x01, 0x80, 0x83, 0x00, 0xc0, 0x81, 0x00, 0xc0, 0x03, 0x00,
0xe0, 0x01, 0x00, 0xc0, 0x01, 0x00, 0x80, 0x00, 0x00, 0x00, 0x00, 0x00,
0x00, 0x00, 0x00, 0x00, 0x02, 0x00, 0x00, 0x03, 0x00, 0x80, 0x4f, 0x00,
    0xc0, 0xff, 0x00, 0x20, 0xff, 0x01, 0x10, 0xfe, 0x00, 0x08, 0xfe, 0x00,
    0x00, 0xfe, 0x01, 0x00, 0xff, 0x01, 0x00, 0xff, 0x07, 0x80, 0xc7, 0x03,
    0xc0, 0x81, 0x01, 0xf0, 0x80, 0x00, 0x78, 0x40, 0x00, 0x78, 0x20, 0x00,
0x30, 0x10, 0x00, 0x00, 0x00, 0x00, 0x00, 0x00, 0x00, 0x00, 0x00, 0x00,
0x00, 0x00, 0x00, 0x00, 0x30, 0x00, 0x00, 0x1c, 0x00, 0x80, 0x1f, 0x00,
    0xe0, 0x3c, 0x00, 0x00, 0x7c, 0x03, 0x00, 0xfc, 0x01, 0x00, 0xfc, 0x03,
    0x00, 0xff, 0x07, 0x00, 0xff, 0x01, 0xd0, 0xff, 0x01, 0xfc, 0xff, 0x01,
    0x7e, 0xe0, 0x00, 0x3c, 0xc0, 0x07, 0x08, 0xc0, 0x01, 0x00, 0x70, 0x00,
0x00, 0x1c, 0x00, 0x00, 0x00, 0x00, 0x00, 0x00, 0x00, 0x00, 0x00, 0x00,
0x00, 0x00, 0x00, 0x00, 0x00, 0x00, 0x00, 0x00, 0x00, 0x80, 0xff, 0x01,
    0x00, 0x70, 0x00, 0x00, 0x70, 0x00, 0x00, 0xf0, 0x00, 0x00, 0xf8, 0x00,
    0x1c, 0xfe, 0x07, 0xfe, 0xff, 0x03, 0xfe, 0xff, 0x03, 0x1c, 0xfe, 0x07,
    0x00, 0xf8, 0x00, 0x00, 0xf0, 0x00, 0x00, 0x70, 0x00, 0x00, 0x70, 0x00,
0x80, 0xff, 0x01, 0x00, 0x00, 0x00, 0x00, 0x00, 0x00, 0x00, 0x00, 0x00,
0x00, 0x00, 0x00, 0x00, 0x00, 0x00, 0x00, 0x00, 0x00, 0x00, 0x1c, 0x00,
    0x00, 0x70, 0x00, 0x08, 0xc0, 0x01, 0x3c, 0xc0, 0x07, 0x7e, 0xe0, 0x00,
    0xfc, 0xff, 0x01, 0xd0, 0xff, 0x01, 0x00, 0xff, 0x01, 0x00, 0xff, 0x07,
    0x00, 0xfc, 0x03, 0x00, 0xfc, 0x01, 0x00, 0x7c, 0x03, 0xe0, 0x3c, 0x00,
0x80, 0x1f, 0x00, 0x00, 0x1c, 0x00, 0x00, 0x30, 0x00, 0x00, 0x00, 0x00,
0x00, 0x00, 0x00, 0x00, 0x00, 0x00, 0x00, 0x00, 0x00, 0x30, 0x10, 0x00,
    0x78, 0x20, 0x00, 0x78, 0x40, 0x00, 0xf0, 0x80, 0x00, 0xc0, 0x81, 0x01,
    0x80, 0xc7, 0x03, 0x00, 0xff, 0x07, 0x00, 0xff, 0x01, 0x00, 0xfe, 0x01,
    0x08, 0xfe, 0x00, 0x10, 0xfe, 0x00, 0x20, 0xff, 0x01, 0xc0, 0xff, 0x00,
0x80, 0x4f, 0x00, 0x00, 0x03, 0x00, 0x00, 0x02, 0x00, 0x00, 0x00, 0x00,
0x00, 0x00, 0x00, 0x80, 0x00, 0x00, 0xc0, 0x01, 0x00, 0xe0, 0x01, 0x00,
    0xc0, 0x03, 0x00, 0xc0, 0x81, 0x00, 0x80, 0x83, 0x00, 0x00, 0x83, 0x01,
    0x00, 0x0f, 0x01, 0x00, 0x0f, 0x01, 0x08, 0xff, 0x03, 0x08, 0xff, 0x03,
    0x18, 0xff, 0x07, 0x90, 0xff, 0x04, 0xf0, 0x7f, 0x00, 0xe0, 0x3f, 0x00,
0x60, 0x7f, 0x00, 0x40, 0x58, 0x00, 0x40, 0x08, 0x00, 0x00, 0x00, 0x00};
