/* XPM */
static char * CV_xpm[] = {
"20 320 7 1",
" 	c None",
".	c #7F977F",
"X	c #91AC91",
"o	c #B0D0B0",
"O	c #A1C1A1",
"+	c #00FF00",
"@	c #FF0000",
"                    ",
"        .XX.        ",
"       XXooXX       ",
"       XooooX       ",
"      .oooooo.      ",
" .    XXooooXX    . ",
" X      OooO      X ",
" +      OooO      + ",
" +      OooO      + ",
" +X   XOOooOOX   X+ ",
" OXX XOOooooOOX XXO ",
" +XXXOOooooooOOXXX+ ",
" +XXXOOooooooOOXXX+ ",
" O XXOOooooooOOXX O ",
"    XXOooXXooOXX    ",
"     XOoo@@ooOX     ",
"     .Ooo  ooO.     ",
"      .oO  Oo.      ",
"       OX  XO       ",
"       X.  .X       ",
"                    ",
"          ..XX      ",
"   .     XXooX.     ",
"  +     .ooooXX     ",
"  +     XoooooX     ",
" +       Ooooo.     ",
" OX      OooOXX     ",
" +XX    OooO        ",
"+XXX XOOOooO       .",
"O XXOOoooooO      X ",
"  XXOOoooooOX     + ",
"  XXOoooooooOX  X+  ",
"  .XOoooooooOO XX+  ",
"  .XOooXXooOOXXXXO  ",
"   Ooo@@XooOOXXX+   ",
"   .oO  @oOXXXX +   ",
"   OXO  ooOX.       ",
"   ..  Xo...        ",
"       .O.          ",
"        .           ",
"       .            ",
"      +             ",
"     +       ...    ",
"    OX     XXXOoO   ",
"   +XX     XOoooo.  ",
"  +XXX      ooooO.  ",
"   XXXXX.  OooooX.  ",
"   XXOOOOOOooooOX   ",
"   XOOOoOooooO XX   ",
"   XXOooooooO       ",
"   XOoooooooO       ",
"  .OoooooooOO.      ",
"  .ooo@XooooOX     .",
"  OoO .@oooOOX    + ",
" XXX   oooOOOXXXX+  ",
"  .   OooOXOXXXXO   ",
"     XooOXXXXXX+    ",
"    .XO..     +     ",
"     X              ",
"                    ",
"           .        ",
"         +X         ",
"      O++           ",
"    ++XXX           ",
"     XXX            ",
"    XXX      X.XX.  ",
"    XXXOX    XooXXX ",
"   .XOOOOX   OooooX ",
"  .XXOOooOOOOooooo. ",
"  .OOoooooooooooooX ",
" ..ooooooooooOOooX  ",
"XOoo@XXooooOO  X.   ",
" .X  @XooooO        ",
"     @oooooO        ",
"   OOooooOOX        ",
"  .XooOOOOO         ",
"  XO.OXXXXXXX    .  ",
"      ..XXXXXX ++   ",
"           X+O+     ",
"          O+        ",
"                    ",
"      O++O+++X.     ",
"       XXXX         ",
"      XXXX          ",
"     XXXX           ",
"   .XXOOOX          ",
"  .OOOOOOOX   X.    ",
"XOoooooooOO   XoXX  ",
".XOoooooooOOOOoooX. ",
"    @XooooooooooooX ",
"    @XooooooooooooX ",
".XOoooooooOOOOoooX. ",
"XOoooooooOO   XoXX  ",
"  .OOOOOOOX   X.    ",
"   .XXOOOX          ",
"     XXXX           ",
"      XXXX          ",
"       XXXX         ",
"      O++O+++..     ",
"                    ",
"                    ",
"          O+        ",
"           X+O+     ",
"      ..XXXXXX ++   ",
"  .O.OXXXXXXX    .  ",
"  .XooOOOOO         ",
"   OOooooOOX        ",
"     @oooooO        ",
" .X  @XooooO        ",
".Ooo@XXooooOO  X.   ",
" ..ooooooooooOOooX  ",
"  .OOooooooooooooX. ",
"  .XXOOooOOOOooooo. ",
"   .XOOOOX   OooooX ",
"    XXXOX    XooXXX ",
"    XXX      X.XX.  ",
"     XXX            ",
"    ++XXX           ",
"      O++           ",
"         +X         ",
"                    ",
"     X              ",
"    .XO..     +     ",
"     XooOXXXXXX+    ",
"  .   OooOXOXXXXO   ",
" XXX   oooOOOXXXX+  ",
"  OoO .@oooOOX    + ",
"  .ooo@XooooOX     .",
"  .OoooooooOO.      ",
"   XOoooooooO       ",
"   XXOooooooO       ",
"   XOOOoOooooO XX   ",
"   XXOOOOOOooooOX   ",
"   XXXXX.  OooooX.  ",
"  +XXX      ooooO.  ",
"   +XX     XOoooo.  ",
"    OX     XXXoOO   ",
"     +       ...    ",
"      +             ",
"       .            ",
"                    ",
"         X          ",
"        .O.         ",
"    X.  Xo...       ",
"    OXO  ooOX.      ",
"    .oO  @oOXXXX +  ",
"    Ooo@@XooOOXXX+  ",
"   .XOooXXooOOXXXO  ",
"   .XOoooooooOO XX+ ",
"   XXOoooooooOX  X+ ",
"   XXOOoooooOX     +",
" O XXOOoooooO      X",
" +XXX XOOOooO       ",
"  +XX    OooO       ",
"  OX      OooOXX    ",
"  +       Ooooo.    ",
"   +     XoooooX    ",
"   +     .ooooX.    ",
"    .     XoooX     ",
"           X.X      ",
"                    ",
"       X.  .X       ",
"       OX  XO       ",
"      .oO  Oo.      ",
"     .Ooo  ooO.     ",
"     XOoo@@ooOX     ",
"    XXOooXXooOXX    ",
" O XXOOooooooOOXX O ",
" +XXXOOooooooOOXXXO ",
" +XXXOOooooooOOXXX+ ",
" OXX XOOooooOOX XXO ",
" +X   XOOooOOX   X+ ",
" +      OooO      + ",
" +      OooO      + ",
" .      OooO      X ",
" .    XXooooXX    . ",
"      .oooooo.      ",
"       XooooX       ",
"       XXooXX       ",
"        .XXX        ",
"                    ",
"          .         ",
"         .O.        ",
"       ...oX  ..    ",
"      .XOoo  OX.    ",
"  + XXXXOo@  OoO    ",
"  +XXXOOooX@@oo.    ",
" OXXXXOOooXXooOOX   ",
" +XX OOoooooooOX.   ",
" +X  XOoooooooOXX   ",
"+     XOoooooOOXX   ",
"X      OoooooOOXX O ",
"       OooOOOX XXX+ ",
"       OooO    XX+  ",
"    XXOooO      XO  ",
"    .ooooO       +  ",
"    XoooooX     +   ",
"    XXoooo.     +   ",
"     XooXX     .    ",
"      X..           ",
"                    ",
"              X     ",
"     +     ..OX.    ",
"    +XXXXXXOooX     ",
"   OXXXXOXOooO   .  ",
"  +XXXXOOOooo   O.X ",
" +    XOOooo@. OOX  ",
".     XOooooX@ooo.  ",
"      .OOoooooooO.  ",
"       OoooooooOX   ",
"       OooooooOXX   ",
"   XX OooooOoOOOX   ",
"   XOooooOOOOOOXX   ",
"  .XooooO  .XXXXX   ",
"  .ooooo      XXX+  ",
"  .OoooOX     XX+   ",
"   OoOXXX     OO    ",
"    ...       +     ",
"             +      ",
"            .       ",
"                    ",
"        +O          ",
"     +O+X           ",
"   ++ XXXXXX..      ",
"  .    XXXXXXXXO..  ",
"         OOOOOooO.  ",
"        XOOooooOX   ",
"        Oooooo@     ",
"        OooooX@  X. ",
"   .X  OOooooXX@ooOX",
"  XooOOoooooooooo.. ",
" XoooooooooooooOO.  ",
" .oooooOOOOooOOXX.  ",
" XooooO   XOOOOX.   ",
"  XXooX    XOXXX    ",
"   .XX.      XXX    ",
"            XX.     ",
"           XXO++    ",
"           ++O      ",
"         X+         ",
"                    ",
"                    ",
"     ..+++O++O      ",
"         XXXX       ",
"          XXXX      ",
"           XXXX     ",
"          XOOOXX.   ",
"    .X   XOOOOOOX.  ",
"  XXoX   OOoooooooOX",
" .XoooOOOOoooooooOX.",
" XooooooooooooX@    ",
" XooooooooooooX@    ",
" XXoooOOOOoooooooOX.",
"  XXoX   OOoooooooOX",
"    .X   XOOOOOOO.  ",
"          XOOOXX.   ",
"           XXXX     ",
"          XXXX      ",
"         XXXX       ",
"     .X+++O+OO      ",
"                    ",
"         X+         ",
"           ++O      ",
"           XXX++    ",
"            XX.     ",
"   .XX.      XXX    ",
"  XXooX    XOXXX    ",
" XooooO   XOOOOX.   ",
" .oooooOOOOooOOXX.  ",
" .XooooooooooooOO.  ",
"  XooOOoooooooooo.. ",
"   .X  OOooooXX@ooOX",
"        OooooX@  X. ",
"        Oooooo@     ",
"        XOOooooOO   ",
"         OOOOOooX.  ",
"  .    XXXXXXO.O..  ",
"   ++ XXXXXX..      ",
"     +O+X           ",
"        +O          ",
"                    ",
"            .       ",
"             +      ",
"    ...       +     ",
"   OOoXXX     XO    ",
"  .ooooOX     XX+   ",
"  .Ooooo      XXX+  ",
"  .XooooO  .XXXXX   ",
"   XOooooOOOOOOXX   ",
"   XX OooooOoOOOX   ",
"       OooooooOXX   ",
"       OoooooooOX   ",
"      .OOoooooooO.  ",
".     XOooooX@ooo.  ",
" +    XOOooo@. OoO  ",
"  +OXXXOOOooo   XXX ",
"   OXXXXOXOooO   .  ",
"    +XXXXXXOoOX     ",
"     +     ..OX.    ",
"              X     ",
"                    ",
"      .X.           ",
"     XoooX     .    ",
"    .Ooooo.    +    ",
"    XoooooX     +   ",
"    XooooO      +   ",
"    .XOooO      XO  ",
"       OooO    XX+  ",
"       OooOOOX XX.+ ",
"X      OoooooOOXX . ",
"+     XOoooooOOXX   ",
" +X  XOoooooooOXX   ",
" +OX OOoooooooOX.   ",
" OOOXXOOooXXooOX.   ",
"  +.XXOOooX@@ooX    ",
"  + XXXXOo@  OoO    ",
"      .XOoo  OXX    ",
"       ...XX  ..    ",
"         ...        ",
"          .         "};
