#define rom_destroyer_width 20
#define rom_destroyer_height 320
static unsigned char rom_destroyer_bits[] = {
	0x00, 0x00, 0x00, 0x00, 0x04, 0x00, 0x00, 0x0e, 0x00, 0x00, 0x0e, 0x00, 0x00, 0x0e, 0x00,
	0x00, 0x04, 0x00, 0x00, 0x04, 0x00, 0x08, 0x04, 0x02, 0x08, 0x04, 0x02, 0x08, 0x04, 0x02,
	0xf8, 0xff, 0x03, 0xf8, 0xff, 0x03, 0xc8, 0x7f, 0x02, 0x00, 0x1f, 0x00, 0x00, 0x0e, 0x00,
0x00, 0x0e, 0x00, 0x00, 0x0e, 0x00, 0x00, 0x0e, 0x00, 0x00, 0x0a, 0x00, 0x00, 0x00, 0x00,
0x00, 0x00, 0x00, 0x00, 0x00, 0x00, 0x00, 0x38, 0x00, 0x00, 0x38, 0x00, 0x10, 0x38, 0x00,
    0x10, 0x08, 0x00, 0x08, 0x08, 0x00, 0x18, 0x04, 0x00, 0xfc, 0x04, 0x00, 0xf4, 0x07, 0x02,
    0xe0, 0x0f, 0x02, 0xc0, 0x3f, 0x01, 0x80, 0xff, 0x01, 0x80, 0xff, 0x00, 0xc0, 0x83, 0x00,
0xc0, 0x01, 0x00, 0xe0, 0x01, 0x00, 0x80, 0x00, 0x00, 0x00, 0x00, 0x00, 0x00, 0x00, 0x00,
0x00, 0x00, 0x00, 0x00, 0x00, 0x00, 0x00, 0x00, 0x00, 0x40, 0x00, 0x00, 0x20, 0xe0, 0x00,
    0x10, 0xe0, 0x00, 0x38, 0xe0, 0x00, 0x70, 0x10, 0x00, 0xe0, 0x08, 0x00, 0xe0, 0x07, 0x00,
    0xc0, 0x07, 0x00, 0xc0, 0x07, 0x00, 0xe0, 0x0f, 0x00, 0xf0, 0x1f, 0x01, 0xf8, 0xbc, 0x00,
0x68, 0x70, 0x00, 0x30, 0x20, 0x00, 0x00, 0x00, 0x00, 0x00, 0x00, 0x00, 0x00, 0x00, 0x00,
0x00, 0x00, 0x00, 0x00, 0x00, 0x00, 0x00, 0x02, 0x00, 0x80, 0x03, 0x00, 0xe0, 0x00, 0x00,
    0xc0, 0x00, 0x00, 0xc0, 0x81, 0x07, 0xc0, 0x81, 0x03, 0xc0, 0xf3, 0x03, 0xc0, 0x1f, 0x00,
    0xe0, 0x07, 0x00, 0xf8, 0x07, 0x00, 0xfe, 0x07, 0x00, 0x78, 0x0f, 0x00, 0x0c, 0x0e, 0x00,
0x00, 0x9c, 0x00, 0x00, 0x78, 0x00, 0x00, 0x0c, 0x00, 0x00, 0x00, 0x00, 0x00, 0x00, 0x00,
0x00, 0x00, 0x00, 0x00, 0x00, 0x00, 0xc0, 0x1f, 0x00, 0x00, 0x03, 0x00, 0x00, 0x03, 0x00,
    0x80, 0x03, 0x00, 0x80, 0x03, 0x00, 0xc0, 0x03, 0x00, 0xfe, 0x83, 0x03, 0xfc, 0xff, 0x07,
    0xfe, 0x83, 0x03, 0xc0, 0x03, 0x00, 0x80, 0x03, 0x00, 0x80, 0x03, 0x00, 0x00, 0x03, 0x00,
0x00, 0x03, 0x00, 0xc0, 0x1f, 0x00, 0x00, 0x00, 0x00, 0x00, 0x00, 0x00, 0x00, 0x00, 0x00,
0x00, 0x00, 0x00, 0x00, 0x00, 0x00, 0x00, 0x0c, 0x00, 0x00, 0x78, 0x00, 0x00, 0x9c, 0x00,
    0x0c, 0x0e, 0x00, 0x78, 0x0f, 0x00, 0xfe, 0x07, 0x00, 0xf8, 0x07, 0x00, 0xe0, 0x07, 0x00,
    0xc0, 0x1f, 0x00, 0xc0, 0xf3, 0x03, 0xc0, 0x81, 0x03, 0xc0, 0x81, 0x07, 0xc0, 0x00, 0x00,
0xe0, 0x00, 0x00, 0x80, 0x03, 0x00, 0x00, 0x02, 0x00, 0x00, 0x00, 0x00, 0x00, 0x00, 0x00,
0x00, 0x00, 0x00, 0x00, 0x00, 0x00, 0x00, 0x00, 0x00, 0x30, 0x20, 0x00, 0x68, 0x70, 0x00,
    0xf8, 0xbc, 0x00, 0xf0, 0x1f, 0x01, 0xe0, 0x0f, 0x00, 0xc0, 0x07, 0x00, 0xc0, 0x07, 0x00,
    0xe0, 0x07, 0x00, 0xe0, 0x08, 0x00, 0x70, 0x10, 0x00, 0x38, 0xe0, 0x00, 0x10, 0xe0, 0x00,
0x20, 0xe0, 0x00, 0x40, 0x00, 0x00, 0x00, 0x00, 0x00, 0x00, 0x00, 0x00, 0x00, 0x00, 0x00,
0x00, 0x00, 0x00, 0x00, 0x00, 0x00, 0x80, 0x00, 0x00, 0xe0, 0x01, 0x00, 0xc0, 0x01, 0x00,
    0xc0, 0x83, 0x00, 0x80, 0xff, 0x00, 0x80, 0xff, 0x01, 0xc0, 0x3f, 0x01, 0xe0, 0x0f, 0x02,
    0xf4, 0x07, 0x02, 0xfc, 0x04, 0x00, 0x18, 0x04, 0x00, 0x08, 0x08, 0x00, 0x10, 0x08, 0x00,
0x10, 0x38, 0x00, 0x00, 0x38, 0x00, 0x00, 0x38, 0x00, 0x00, 0x00, 0x00, 0x00, 0x00, 0x00,
0x00, 0x00, 0x00, 0x00, 0x0a, 0x00, 0x00, 0x0e, 0x00, 0x00, 0x0e, 0x00, 0x00, 0x0e, 0x00,
    0x00, 0x0e, 0x00, 0x00, 0x1f, 0x00, 0xc8, 0x7f, 0x02, 0xf8, 0xff, 0x03, 0xf8, 0xff, 0x03,
    0x08, 0x04, 0x02, 0x08, 0x04, 0x02, 0x08, 0x04, 0x02, 0x00, 0x04, 0x00, 0x00, 0x04, 0x00,
0x00, 0x0e, 0x00, 0x00, 0x0e, 0x00, 0x00, 0x0e, 0x00, 0x00, 0x04, 0x00, 0x00, 0x00, 0x00,
0x00, 0x00, 0x00, 0x00, 0x00, 0x00, 0x00, 0x10, 0x00, 0x00, 0x78, 0x00, 0x00, 0x38, 0x00,
    0x10, 0x3c, 0x00, 0xf0, 0x1f, 0x00, 0xf8, 0x1f, 0x00, 0xc8, 0x3f, 0x00, 0x04, 0x7f, 0x00,
    0x04, 0xfe, 0x02, 0x00, 0xf2, 0x03, 0x00, 0x82, 0x01, 0x00, 0x01, 0x01, 0x00, 0x81, 0x00,
0xc0, 0x81, 0x00, 0xc0, 0x01, 0x00, 0xc0, 0x01, 0x00, 0x00, 0x00, 0x00, 0x00, 0x00, 0x00,
0x00, 0x00, 0x00, 0x00, 0x00, 0x00, 0x00, 0x00, 0x00, 0x40, 0xc0, 0x00, 0xe0, 0x60, 0x01,
    0xd0, 0xf3, 0x01, 0x88, 0xff, 0x00, 0x00, 0x7f, 0x00, 0x00, 0x3e, 0x00, 0x00, 0x3e, 0x00,
    0x00, 0x7e, 0x00, 0x00, 0x71, 0x00, 0x80, 0xe0, 0x00, 0x70, 0xc0, 0x01, 0x70, 0x80, 0x00,
0x70, 0x40, 0x00, 0x00, 0x20, 0x00, 0x00, 0x00, 0x00, 0x00, 0x00, 0x00, 0x00, 0x00, 0x00,
0x00, 0x00, 0x00, 0x00, 0x00, 0x00, 0x00, 0x03, 0x00, 0xe0, 0x01, 0x00, 0x90, 0x03, 0x00,
    0x00, 0x07, 0x03, 0x00, 0xef, 0x01, 0x00, 0xfe, 0x07, 0x00, 0xfe, 0x01, 0x00, 0x7e, 0x00,
    0x80, 0x3f, 0x00, 0xfc, 0x3c, 0x00, 0x1c, 0x38, 0x00, 0x1e, 0x38, 0x00, 0x00, 0x30, 0x00,
0x00, 0x70, 0x00, 0x00, 0x1c, 0x00, 0x00, 0x04, 0x00, 0x00, 0x00, 0x00, 0x00, 0x00, 0x00,
0x00, 0x00, 0x00, 0x00, 0x00, 0x00, 0x80, 0x3f, 0x00, 0x00, 0x0c, 0x00, 0x00, 0x0c, 0x00,
    0x00, 0x1c, 0x00, 0x00, 0x1c, 0x00, 0x00, 0x3c, 0x00, 0x1c, 0xfc, 0x07, 0xfe, 0xff, 0x03,
    0x1c, 0xfc, 0x07, 0x00, 0x3c, 0x00, 0x00, 0x1c, 0x00, 0x00, 0x1c, 0x00, 0x00, 0x0c, 0x00,
0x00, 0x0c, 0x00, 0x80, 0x3f, 0x00, 0x00, 0x00, 0x00, 0x00, 0x00, 0x00, 0x00, 0x00, 0x00,
0x00, 0x00, 0x00, 0x00, 0x08, 0x00, 0x00, 0x38, 0x00, 0x00, 0xe0, 0x00, 0x00, 0x60, 0x00,
    0x3c, 0x70, 0x00, 0x38, 0x70, 0x00, 0xf8, 0x79, 0x00, 0x00, 0x7f, 0x00, 0x00, 0xfc, 0x00,
    0x00, 0xfc, 0x03, 0x00, 0xfc, 0x0f, 0x00, 0xde, 0x03, 0x00, 0x0e, 0x06, 0x20, 0x07, 0x00,
0xc0, 0x03, 0x00, 0x00, 0x06, 0x00, 0x00, 0x00, 0x00, 0x00, 0x00, 0x00, 0x00, 0x00, 0x00,
0x00, 0x00, 0x00, 0x00, 0x00, 0x00, 0x00, 0x20, 0x00, 0x70, 0x40, 0x00, 0x70, 0x80, 0x00,
    0x70, 0xc0, 0x01, 0x80, 0xe0, 0x00, 0x00, 0x71, 0x00, 0x00, 0x7e, 0x00, 0x00, 0x3e, 0x00,
    0x00, 0x3e, 0x00, 0x00, 0x7f, 0x00, 0x88, 0xff, 0x00, 0xd0, 0xf3, 0x01, 0xe0, 0x60, 0x01,
0x40, 0xc0, 0x00, 0x00, 0x00, 0x00, 0x00, 0x00, 0x00, 0x00, 0x00, 0x00, 0x00, 0x00, 0x00,
0x00, 0x00, 0x00, 0x00, 0x00, 0x00, 0xc0, 0x01, 0x00, 0xc0, 0x01, 0x00, 0xc0, 0x81, 0x00,
    0x00, 0x81, 0x00, 0x00, 0x01, 0x01, 0x00, 0x82, 0x01, 0x00, 0xf2, 0x03, 0x04, 0xfe, 0x02,
    0x04, 0x7f, 0x00, 0xc8, 0x3f, 0x00, 0xf8, 0x1f, 0x00, 0xf0, 0x1f, 0x00, 0x10, 0x3c, 0x00,
0x00, 0x38, 0x00, 0x00, 0x78, 0x00, 0x00, 0x10, 0x00, 0x00, 0x00, 0x00, 0x00, 0x00, 0x00};
