#define rom_galaxy_width 20
#define rom_galaxy_height 320
static unsigned char rom_galaxy_bits[] = {
	0x00, 0x00, 0x00, 0x00, 0x00, 0x00, 0x00, 0x06, 0x00, 0x00, 0x06, 0x00, 0x00, 0x0f, 0x00,
	0x00, 0x0f, 0x00, 0x00, 0x06, 0x00, 0x00, 0x06, 0x00, 0x04, 0x06, 0x02, 0xc4, 0x3f, 0x02,
	0x7c, 0xef, 0x03, 0x0c, 0x06, 0x03, 0xfc, 0xff, 0x03, 0xfc, 0xff, 0x03, 0xf8, 0xff, 0x01,
0xf8, 0xff, 0x01, 0xf0, 0xff, 0x00, 0xc0, 0x3f, 0x00, 0x00, 0x00, 0x00, 0x00, 0x00, 0x00,
0x00, 0x00, 0x00, 0x00, 0x00, 0x00, 0x00, 0x30, 0x00, 0x00, 0x38, 0x00, 0x00, 0x3c, 0x00,
    0x10, 0x38, 0x00, 0x18, 0x0c, 0x00, 0x18, 0x0c, 0x00, 0xfc, 0x0e, 0x00, 0xcc, 0x07, 0x00,
    0x3c, 0x0f, 0x02, 0xfc, 0x3b, 0x03, 0xf8, 0xe7, 0x01, 0xf8, 0xdf, 0x01, 0xf0, 0xff, 0x00,
0xf0, 0xff, 0x00, 0xe0, 0x3f, 0x00, 0xc0, 0x03, 0x00, 0x00, 0x00, 0x00, 0x00, 0x00, 0x00,
0x00, 0x00, 0x00, 0x00, 0x00, 0x00, 0x00, 0x00, 0x00, 0xc0, 0xc0, 0x01, 0x60, 0xe0, 0x01,
    0x30, 0xe0, 0x01, 0x78, 0xf0, 0x00, 0xd8, 0x39, 0x00, 0x38, 0x1f, 0x00, 0x78, 0x0f, 0x00,
    0xf8, 0x0f, 0x00, 0xf8, 0x1f, 0x00, 0xf0, 0x17, 0x01, 0xf0, 0xb7, 0x01, 0xf0, 0xef, 0x00,
0xe0, 0x7f, 0x00, 0x00, 0x3f, 0x00, 0x00, 0x00, 0x00, 0x00, 0x00, 0x00, 0x00, 0x00, 0x00,
0x00, 0x00, 0x00, 0x00, 0x00, 0x00, 0x00, 0x03, 0x00, 0xc0, 0x01, 0x00, 0xf0, 0x00, 0x00,
    0xf0, 0x00, 0x00, 0xb8, 0xc1, 0x03, 0x78, 0xc1, 0x03, 0x78, 0xfb, 0x01, 0xf8, 0xbe, 0x00,
    0xfc, 0x0f, 0x00, 0xfc, 0x07, 0x00, 0xfc, 0x0d, 0x00, 0xfc, 0x0d, 0x00, 0xf8, 0x0b, 0x00,
0xf0, 0x7b, 0x00, 0xc0, 0x3f, 0x00, 0x00, 0x0f, 0x00, 0x00, 0x00, 0x00, 0x00, 0x00, 0x00,
0x00, 0x00, 0x00, 0x00, 0x00, 0x00, 0xc0, 0x0f, 0x00, 0xf0, 0x03, 0x00, 0xf8, 0x02, 0x00,
    0xf8, 0x02, 0x00, 0xfc, 0x06, 0x00, 0xfc, 0x04, 0x00, 0xfc, 0xc6, 0x00, 0xfc, 0xff, 0x03,
    0xfc, 0xff, 0x03, 0xfc, 0xc6, 0x00, 0xfc, 0x04, 0x00, 0xfc, 0x06, 0x00, 0xf8, 0x02, 0x00,
0xf8, 0x02, 0x00, 0xf0, 0x03, 0x00, 0xc0, 0x0f, 0x00, 0x00, 0x00, 0x00, 0x00, 0x00, 0x00,
0x00, 0x00, 0x00, 0x00, 0x00, 0x00, 0x00, 0x0f, 0x00, 0xc0, 0x3f, 0x00, 0xf0, 0x7b, 0x00,
    0xf8, 0x0b, 0x00, 0xfc, 0x0d, 0x00, 0xfc, 0x0d, 0x00, 0xfc, 0x07, 0x00, 0xfc, 0x0f, 0x00,
    0xf8, 0xbe, 0x00, 0x78, 0xfb, 0x01, 0x78, 0xc1, 0x03, 0xb8, 0xc1, 0x03, 0xf0, 0x00, 0x00,
0xf0, 0x00, 0x00, 0xc0, 0x01, 0x00, 0x00, 0x03, 0x00, 0x00, 0x00, 0x00, 0x00, 0x00, 0x00,
0x00, 0x00, 0x00, 0x00, 0x00, 0x00, 0x00, 0x00, 0x00, 0x00, 0x3f, 0x00, 0xe0, 0x7f, 0x00,
    0xf0, 0xef, 0x00, 0xf0, 0xb7, 0x01, 0xf0, 0x17, 0x01, 0xf8, 0x1f, 0x00, 0xf8, 0x0f, 0x00,
    0x78, 0x0f, 0x00, 0x38, 0x1f, 0x00, 0xd8, 0x39, 0x00, 0x78, 0xf0, 0x00, 0x30, 0xe0, 0x01,
0x60, 0xe0, 0x01, 0xc0, 0xc0, 0x01, 0x00, 0x00, 0x00, 0x00, 0x00, 0x00, 0x00, 0x00, 0x00,
0x00, 0x00, 0x00, 0x00, 0x00, 0x00, 0xc0, 0x03, 0x00, 0xe0, 0x3f, 0x00, 0xf0, 0xff, 0x00,
    0xf0, 0xff, 0x00, 0xf8, 0xdf, 0x01, 0xf8, 0xe7, 0x01, 0xfc, 0x3b, 0x03, 0x3c, 0x0f, 0x02,
    0xcc, 0x07, 0x00, 0xfc, 0x0e, 0x00, 0x18, 0x0c, 0x00, 0x18, 0x0c, 0x00, 0x10, 0x38, 0x00,
0x00, 0x3c, 0x00, 0x00, 0x38, 0x00, 0x00, 0x30, 0x00, 0x00, 0x00, 0x00, 0x00, 0x00, 0x00,
0x00, 0x00, 0x00, 0x00, 0x00, 0x00, 0xc0, 0x3f, 0x00, 0xf0, 0xff, 0x00, 0xf8, 0xff, 0x01,
    0xf8, 0xff, 0x01, 0xfc, 0xff, 0x03, 0xfc, 0xff, 0x03, 0x0c, 0x06, 0x03, 0x7c, 0xef, 0x03,
    0xc4, 0x3f, 0x02, 0x04, 0x06, 0x02, 0x00, 0x06, 0x00, 0x00, 0x06, 0x00, 0x00, 0x0f, 0x00,
0x00, 0x0f, 0x00, 0x00, 0x06, 0x00, 0x00, 0x06, 0x00, 0x00, 0x00, 0x00, 0x00, 0x00, 0x00,
0x00, 0x00, 0x00, 0x00, 0x00, 0x00, 0x00, 0x3c, 0x00, 0xc0, 0x7f, 0x00, 0xf0, 0xff, 0x00,
    0xf0, 0xff, 0x00, 0xb8, 0xff, 0x01, 0x78, 0xfe, 0x01, 0xcc, 0xfd, 0x03, 0x04, 0xcf, 0x03,
    0x00, 0x3e, 0x03, 0x00, 0xf7, 0x03, 0x00, 0x83, 0x01, 0x00, 0x83, 0x01, 0xc0, 0x81, 0x00,
0xc0, 0x03, 0x00, 0xc0, 0x01, 0x00, 0xc0, 0x00, 0x00, 0x00, 0x00, 0x00, 0x00, 0x00, 0x00,
0x00, 0x00, 0x00, 0x00, 0x00, 0x00, 0x00, 0x00, 0x00, 0xc0, 0x0f, 0x00, 0xe0, 0x7f, 0x00,
    0x70, 0xff, 0x00, 0xd8, 0xfe, 0x00, 0x88, 0xfe, 0x00, 0x80, 0xff, 0x01, 0x00, 0xff, 0x01,
    0x00, 0xef, 0x01, 0x80, 0xcf, 0x01, 0xc0, 0xb9, 0x01, 0xf0, 0xe0, 0x01, 0x78, 0xc0, 0x00,
0x78, 0x60, 0x00, 0x38, 0x30, 0x00, 0x00, 0x00, 0x00, 0x00, 0x00, 0x00, 0x00, 0x00, 0x00,
0x00, 0x00, 0x00, 0x00, 0x00, 0x00, 0x00, 0x0f, 0x00, 0xc0, 0x3f, 0x00, 0xe0, 0xfd, 0x00,
    0x00, 0xfd, 0x01, 0x00, 0xfb, 0x03, 0x00, 0xfb, 0x03, 0x00, 0xfe, 0x03, 0x00, 0xff, 0x03,
    0xd0, 0xf7, 0x01, 0xf8, 0xed, 0x01, 0x3c, 0xe8, 0x01, 0x3c, 0xd8, 0x01, 0x00, 0xf0, 0x00,
0x00, 0xf0, 0x00, 0x00, 0x38, 0x00, 0x00, 0x0c, 0x00, 0x00, 0x00, 0x00, 0x00, 0x00, 0x00,
0x00, 0x00, 0x00, 0x00, 0x00, 0x00, 0x00, 0x3f, 0x00, 0x00, 0xfc, 0x00, 0x00, 0xf4, 0x01,
    0x00, 0xf4, 0x01, 0x00, 0xf6, 0x03, 0x00, 0xf2, 0x03, 0x30, 0xf6, 0x03, 0xfc, 0xff, 0x03,
    0xfc, 0xff, 0x03, 0x30, 0xf6, 0x03, 0x00, 0xf2, 0x03, 0x00, 0xf6, 0x03, 0x00, 0xf4, 0x01,
0x00, 0xf4, 0x01, 0x00, 0xfc, 0x00, 0x00, 0x3f, 0x00, 0x00, 0x00, 0x00, 0x00, 0x00, 0x00,
0x00, 0x00, 0x00, 0x00, 0x00, 0x00, 0x00, 0x0c, 0x00, 0x00, 0x38, 0x00, 0x00, 0xf0, 0x00,
    0x00, 0xf0, 0x00, 0x3c, 0xd8, 0x01, 0x3c, 0xe8, 0x01, 0xf8, 0xed, 0x01, 0xd0, 0xf7, 0x01,
    0x00, 0xff, 0x03, 0x00, 0xfe, 0x03, 0x00, 0xfb, 0x03, 0x00, 0xfb, 0x03, 0x00, 0xfd, 0x01,
0xe0, 0xfd, 0x00, 0xc0, 0x3f, 0x00, 0x00, 0x0f, 0x00, 0x00, 0x00, 0x00, 0x00, 0x00, 0x00,
0x00, 0x00, 0x00, 0x00, 0x00, 0x00, 0x00, 0x00, 0x00, 0x38, 0x30, 0x00, 0x78, 0x60, 0x00,
    0x78, 0xc0, 0x00, 0xf0, 0xe0, 0x01, 0xc0, 0xb9, 0x01, 0x80, 0xcf, 0x01, 0x00, 0xef, 0x01,
    0x00, 0xff, 0x01, 0x80, 0xff, 0x01, 0x88, 0xfe, 0x00, 0xd8, 0xfe, 0x00, 0x70, 0xff, 0x00,
0xe0, 0x7f, 0x00, 0xc0, 0x0f, 0x00, 0x00, 0x00, 0x00, 0x00, 0x00, 0x00, 0x00, 0x00, 0x00,
0x00, 0x00, 0x00, 0x00, 0x00, 0x00, 0xc0, 0x00, 0x00, 0xc0, 0x01, 0x00, 0xc0, 0x03, 0x00,
    0xc0, 0x81, 0x00, 0x00, 0x83, 0x01, 0x00, 0x83, 0x01, 0x00, 0xf7, 0x03, 0x00, 0x3e, 0x03,
    0x04, 0xcf, 0x03, 0xcc, 0xfd, 0x03, 0x78, 0xfe, 0x01, 0xb8, 0xff, 0x01, 0xf0, 0xff, 0x00,
0xf0, 0xff, 0x00, 0xc0, 0x7f, 0x00, 0x00, 0x3c, 0x00, 0x00, 0x00, 0x00, 0x00, 0x00, 0x00};
