/* XPM */
static char * C7_xpm[] = {
"20 20 6 1",
" 	c None",
".	c #A1C1A1",
"X	c #7F987F",
"o	c #91AC91",
"O	c #B0D0B0",
"+	c #00FF00",
"                    ",
"        .....       ",
"       X  .  X      ",
"    oX    o    Xo   ",
"    o     o     o   ",
"   o.     o     .o  ",
"   .OO    o    OO.  ",
"  oOOO    o    OO.o ",
"  .OO .. X.X .. OO. ",
"  o .   .OOO.   . o ",
"  o X   XOOOX   X o ",
"  X  O+  X.X  +O  X ",
"     +O+  o  +O+    ",
"      +O  o  O+     ",
"        X o X       ",
"    Xo   O.O   oX   ",
"      oo.OOO.oo     ",
"        o...o       ",
"                    ",
"                    "};
