#define rom_jumpship_width 20
#define rom_jumpship_height 20
static unsigned char rom_jumpship_bits[] = {
	0x00, 0x00, 0x00, 0x00, 0x1f, 0x00, 0x80, 0x24, 0x00, 0x30, 0x84, 0x01, 0x10, 0x04, 0x01,
	0x18, 0x04, 0x03, 0x38, 0x84, 0x03, 0x3c, 0x84, 0x07, 0xdc, 0x6e, 0x07, 0x04, 0x1f, 0x04,
	0x04, 0x1f, 0x04, 0x64, 0xce, 0x04, 0xe0, 0xe4, 0x00, 0xc0, 0x64, 0x00, 0x00, 0x04, 0x00,
0x30, 0x8e, 0x01, 0xc0, 0x7f, 0x00, 0x00, 0x1f, 0x00, 0x00, 0x00, 0x00, 0x00, 0x00, 0x00};
