#define rom_patrol_width 20
#define rom_patrol_height 320
static unsigned char rom_patrol_bits[] = {
	0x00, 0x00, 0x00, 0x00, 0x00, 0x00, 0x00, 0x00, 0x00, 0x00, 0x00, 0x00,
	0x00, 0x00, 0x00, 0x00, 0x00, 0x00, 0x80, 0x10, 0x00, 0xa0, 0x50, 0x00,
	0xa0, 0x50, 0x00, 0xe0, 0x76, 0x00, 0xa0, 0x5f, 0x00, 0x40, 0x2f, 0x00,
	0x80, 0x19, 0x00, 0x80, 0x16, 0x00, 0x80, 0x10, 0x00, 0x00, 0x00, 0x00,
0x00, 0x00, 0x00, 0x00, 0x00, 0x00, 0x00, 0x00, 0x00, 0x00, 0x00, 0x00,
0x00, 0x00, 0x00, 0x00, 0x00, 0x00, 0x00, 0x00, 0x00, 0x00, 0x00, 0x00,
    0x00, 0x00, 0x00, 0xc0, 0x06, 0x00, 0x40, 0x03, 0x00, 0x60, 0x21, 0x00,
    0xe0, 0x37, 0x00, 0x80, 0xdf, 0x00, 0x40, 0x57, 0x00, 0xc0, 0x7f, 0x00,
    0xe0, 0x34, 0x00, 0x20, 0x0f, 0x00, 0x00, 0x04, 0x00, 0x00, 0x04, 0x00,
0x00, 0x00, 0x00, 0x00, 0x00, 0x00, 0x00, 0x00, 0x00, 0x00, 0x00, 0x00,
0x00, 0x00, 0x00, 0x00, 0x00, 0x00, 0x00, 0x00, 0x00, 0x00, 0x00, 0x00,
    0x00, 0x01, 0x00, 0x80, 0x05, 0x00, 0xc0, 0x06, 0x00, 0xc0, 0x03, 0x00,
    0x40, 0x01, 0x00, 0x40, 0x67, 0x00, 0xe0, 0x37, 0x00, 0xb0, 0xde, 0x00,
    0x80, 0x73, 0x00, 0x00, 0x3e, 0x00, 0x00, 0x03, 0x00, 0x00, 0x01, 0x00,
0x00, 0x00, 0x00, 0x00, 0x00, 0x00, 0x00, 0x00, 0x00, 0x00, 0x00, 0x00,
0x00, 0x00, 0x00, 0x00, 0x00, 0x00, 0x00, 0x00, 0x00, 0x00, 0x00, 0x00,
    0x00, 0x04, 0x00, 0x00, 0x07, 0x00, 0x80, 0x19, 0x00, 0x80, 0x0f, 0x00,
    0x40, 0x05, 0x00, 0xf0, 0x4f, 0x00, 0x40, 0x6f, 0x00, 0x40, 0x3f, 0x00,
    0x80, 0x4d, 0x00, 0x80, 0x7b, 0x00, 0xc0, 0x18, 0x00, 0x00, 0x00, 0x00,
0x00, 0x00, 0x00, 0x00, 0x00, 0x00, 0x00, 0x00, 0x00, 0x00, 0x00, 0x00,
0x00, 0x00, 0x00, 0x00, 0x00, 0x00, 0x00, 0x00, 0x00, 0x00, 0x00, 0x00,
    0x00, 0x00, 0x00, 0x00, 0x1e, 0x00, 0x00, 0x05, 0x00, 0xe0, 0x3e, 0x00,
    0x80, 0x03, 0x00, 0x40, 0x07, 0x00, 0x40, 0x07, 0x00, 0x80, 0x03, 0x00,
    0xe0, 0x3e, 0x00, 0x00, 0x05, 0x00, 0x00, 0x1e, 0x00, 0x00, 0x00, 0x00,
0x00, 0x00, 0x00, 0x00, 0x00, 0x00, 0x00, 0x00, 0x00, 0x00, 0x00, 0x00,
0x00, 0x00, 0x00, 0x00, 0x00, 0x00, 0x00, 0x00, 0x00, 0x00, 0x00, 0x00,
    0x00, 0x00, 0x00, 0xc0, 0x18, 0x00, 0x80, 0x7b, 0x00, 0x80, 0x4d, 0x00,
    0x40, 0x3f, 0x00, 0x40, 0x6f, 0x00, 0xf0, 0x4f, 0x00, 0x40, 0x05, 0x00,
    0x80, 0x0f, 0x00, 0x80, 0x19, 0x00, 0x00, 0x07, 0x00, 0x00, 0x04, 0x00,
0x00, 0x00, 0x00, 0x00, 0x00, 0x00, 0x00, 0x00, 0x00, 0x00, 0x00, 0x00,
0x00, 0x00, 0x00, 0x00, 0x00, 0x00, 0x00, 0x00, 0x00, 0x00, 0x00, 0x00,
    0x00, 0x01, 0x00, 0x00, 0x03, 0x00, 0x00, 0x3e, 0x00, 0x80, 0x73, 0x00,
    0xb0, 0xde, 0x00, 0xe0, 0x37, 0x00, 0x40, 0x67, 0x00, 0x40, 0x01, 0x00,
    0xc0, 0x03, 0x00, 0xc0, 0x06, 0x00, 0x80, 0x05, 0x00, 0x00, 0x01, 0x00,
0x00, 0x00, 0x00, 0x00, 0x00, 0x00, 0x00, 0x00, 0x00, 0x00, 0x00, 0x00,
0x00, 0x00, 0x00, 0x00, 0x00, 0x00, 0x00, 0x00, 0x00, 0x00, 0x00, 0x00,
    0x00, 0x04, 0x00, 0x00, 0x04, 0x00, 0x20, 0x0f, 0x00, 0xe0, 0x34, 0x00,
    0xc0, 0x7f, 0x00, 0x40, 0x57, 0x00, 0x80, 0xdf, 0x00, 0xe0, 0x37, 0x00,
    0x60, 0x21, 0x00, 0x40, 0x03, 0x00, 0xc0, 0x06, 0x00, 0x00, 0x00, 0x00,
0x00, 0x00, 0x00, 0x00, 0x00, 0x00, 0x00, 0x00, 0x00, 0x00, 0x00, 0x00,
0x00, 0x00, 0x00, 0x00, 0x00, 0x00, 0x00, 0x00, 0x00, 0x00, 0x00, 0x00,
    0x00, 0x00, 0x00, 0x80, 0x10, 0x00, 0x80, 0x16, 0x00, 0x80, 0x19, 0x00,
    0x40, 0x2f, 0x00, 0xa0, 0x5f, 0x00, 0xe0, 0x76, 0x00, 0xa0, 0x50, 0x00,
    0xa0, 0x50, 0x00, 0x80, 0x10, 0x00, 0x00, 0x00, 0x00, 0x00, 0x00, 0x00,
0x00, 0x00, 0x00, 0x00, 0x00, 0x00, 0x00, 0x00, 0x00, 0x00, 0x00, 0x00,
0x00, 0x00, 0x00, 0x00, 0x00, 0x00, 0x00, 0x00, 0x00, 0x00, 0x00, 0x00,
    0x00, 0x02, 0x00, 0x00, 0x02, 0x00, 0x00, 0x4f, 0x00, 0xc0, 0x72, 0x00,
    0xe0, 0x3f, 0x00, 0xa0, 0x2e, 0x00, 0xb0, 0x1f, 0x00, 0xc0, 0x7e, 0x00,
    0x40, 0x68, 0x00, 0x00, 0x2c, 0x00, 0x00, 0x36, 0x00, 0x00, 0x00, 0x00,
0x00, 0x00, 0x00, 0x00, 0x00, 0x00, 0x00, 0x00, 0x00, 0x00, 0x00, 0x00,
0x00, 0x00, 0x00, 0x00, 0x00, 0x00, 0x00, 0x00, 0x00, 0x00, 0x00, 0x00,
    0x00, 0x08, 0x00, 0x00, 0x0c, 0x00, 0xc0, 0x07, 0x00, 0xe0, 0x1c, 0x00,
    0xb0, 0xd7, 0x00, 0xc0, 0x7e, 0x00, 0x60, 0x2e, 0x00, 0x00, 0x28, 0x00,
    0x00, 0x3c, 0x00, 0x00, 0x36, 0x00, 0x00, 0x1a, 0x00, 0x00, 0x08, 0x00,
0x00, 0x00, 0x00, 0x00, 0x00, 0x00, 0x00, 0x00, 0x00, 0x00, 0x00, 0x00,
0x00, 0x00, 0x00, 0x00, 0x00, 0x00, 0x00, 0x00, 0x00, 0x00, 0x00, 0x00,
    0x00, 0x00, 0x00, 0x80, 0x31, 0x00, 0xe0, 0x1d, 0x00, 0x20, 0x1b, 0x00,
    0xc0, 0x2f, 0x00, 0x60, 0x2f, 0x00, 0x20, 0xff, 0x00, 0x00, 0x2a, 0x00,
    0x00, 0x1f, 0x00, 0x80, 0x19, 0x00, 0x00, 0x0e, 0x00, 0x00, 0x02, 0x00,
0x00, 0x00, 0x00, 0x00, 0x00, 0x00, 0x00, 0x00, 0x00, 0x00, 0x00, 0x00,
0x00, 0x00, 0x00, 0x00, 0x00, 0x00, 0x00, 0x00, 0x00, 0x00, 0x00, 0x00,
    0x00, 0x00, 0x00, 0x80, 0x07, 0x00, 0x00, 0x0a, 0x00, 0xc0, 0x77, 0x00,
    0x00, 0x1c, 0x00, 0x00, 0x2e, 0x00, 0x00, 0x2e, 0x00, 0x00, 0x1c, 0x00,
    0xc0, 0x77, 0x00, 0x00, 0x0a, 0x00, 0x80, 0x07, 0x00, 0x00, 0x00, 0x00,
0x00, 0x00, 0x00, 0x00, 0x00, 0x00, 0x00, 0x00, 0x00, 0x00, 0x00, 0x00,
0x00, 0x00, 0x00, 0x00, 0x00, 0x00, 0x00, 0x00, 0x00, 0x00, 0x00, 0x00,
    0x00, 0x02, 0x00, 0x00, 0x0e, 0x00, 0x80, 0x19, 0x00, 0x00, 0x1f, 0x00,
    0x00, 0x2a, 0x00, 0x20, 0xff, 0x00, 0x60, 0x2f, 0x00, 0xc0, 0x2f, 0x00,
    0x20, 0x1b, 0x00, 0xe0, 0x1d, 0x00, 0x80, 0x31, 0x00, 0x00, 0x00, 0x00,
0x00, 0x00, 0x00, 0x00, 0x00, 0x00, 0x00, 0x00, 0x00, 0x00, 0x00, 0x00,
0x00, 0x00, 0x00, 0x00, 0x00, 0x00, 0x00, 0x00, 0x00, 0x00, 0x00, 0x00,
    0x00, 0x08, 0x00, 0x00, 0x1a, 0x00, 0x00, 0x36, 0x00, 0x00, 0x3c, 0x00,
    0x00, 0x28, 0x00, 0x60, 0x2e, 0x00, 0xc0, 0x7e, 0x00, 0xb0, 0xd7, 0x00,
    0xe0, 0x1c, 0x00, 0xc0, 0x07, 0x00, 0x00, 0x0c, 0x00, 0x00, 0x08, 0x00,
0x00, 0x00, 0x00, 0x00, 0x00, 0x00, 0x00, 0x00, 0x00, 0x00, 0x00, 0x00,
0x00, 0x00, 0x00, 0x00, 0x00, 0x00, 0x00, 0x00, 0x00, 0x00, 0x00, 0x00,
    0x00, 0x00, 0x00, 0x00, 0x36, 0x00, 0x00, 0x2c, 0x00, 0x40, 0x68, 0x00,
    0xc0, 0x7e, 0x00, 0xb0, 0x1f, 0x00, 0xa0, 0x2e, 0x00, 0xe0, 0x3f, 0x00,
    0xc0, 0x72, 0x00, 0x00, 0x4f, 0x00, 0x00, 0x02, 0x00, 0x00, 0x02, 0x00,
0x00, 0x00, 0x00, 0x00, 0x00, 0x00, 0x00, 0x00, 0x00, 0x00, 0x00, 0x00};
