#define rom_starbase_width 20
#define rom_starbase_height 20
static unsigned char rom_starbase_bits[] = {
	0x00, 0x00, 0x00, 0x00, 0x00, 0x00, 0x00, 0x0f, 0x00, 0xc0, 0x4f, 0x00, 0x10, 0xc4, 0x00,
	0xe0, 0xe4, 0x01, 0xe8, 0x67, 0x00, 0xe8, 0x1e, 0x00, 0x4c, 0x1f, 0x03, 0xcc, 0xff, 0x03,
	0xfc, 0x3f, 0x03, 0x8c, 0x2f, 0x03, 0xc0, 0x77, 0x01, 0xe0, 0x7e, 0x01, 0x68, 0x72, 0x00,
0x18, 0x82, 0x00, 0x30, 0x3f, 0x00, 0x00, 0x0f, 0x00, 0x00, 0x00, 0x00, 0x00, 0x00, 0x00};
