#define rom_scout_width 20
#define rom_scout_height 320
static unsigned char rom_scout_bits[] = {
	0x00, 0x00, 0x00, 0x00, 0x00, 0x00, 0x00, 0x00, 0x00, 0x00, 0x00, 0x00, 0x00, 0x00, 0x00,
	0x20, 0x20, 0x00, 0x20, 0x20, 0x00, 0x20, 0x20, 0x00, 0x20, 0x22, 0x00, 0x30, 0x67, 0x00,
	0xf0, 0x7f, 0x00, 0xf0, 0x7f, 0x00, 0xb0, 0x6f, 0x00, 0x60, 0x37, 0x00, 0xc0, 0x1a, 0x00,
0x00, 0x07, 0x00, 0x00, 0x00, 0x00, 0x00, 0x00, 0x00, 0x00, 0x00, 0x00, 0x00, 0x00, 0x00,
0x00, 0x00, 0x00, 0x00, 0x00, 0x00, 0x00, 0x00, 0x00, 0x00, 0x00, 0x00, 0x00, 0x01, 0x00,
    0x00, 0x01, 0x00, 0x80, 0x00, 0x00, 0xc0, 0x80, 0x00, 0xc0, 0x8c, 0x00, 0xe0, 0x4f, 0x00,
    0xe0, 0x4f, 0x00, 0xa0, 0x7f, 0x00, 0x60, 0x7f, 0x00, 0x40, 0x6f, 0x00, 0x80, 0x33, 0x00,
0x00, 0x1f, 0x00, 0x00, 0x00, 0x00, 0x00, 0x00, 0x00, 0x00, 0x00, 0x00, 0x00, 0x00, 0x00,
0x00, 0x00, 0x00, 0x00, 0x00, 0x00, 0x00, 0x00, 0x00, 0x00, 0x04, 0x00, 0x00, 0x02, 0x00,
    0x00, 0x01, 0x00, 0xc0, 0x00, 0x00, 0xe0, 0x00, 0x00, 0xe0, 0x0f, 0x00, 0xa0, 0x0f, 0x01,
    0xa0, 0x8f, 0x00, 0xa0, 0x4f, 0x00, 0xe0, 0x3f, 0x00, 0xc0, 0x38, 0x00, 0x80, 0x1f, 0x00,
0x00, 0x00, 0x00, 0x00, 0x00, 0x00, 0x00, 0x00, 0x00, 0x00, 0x00, 0x00, 0x00, 0x00, 0x00,
0x00, 0x00, 0x00, 0x00, 0x00, 0x00, 0x00, 0x00, 0x00, 0x00, 0x00, 0x00, 0x00, 0x18, 0x00,
    0xc0, 0x07, 0x00, 0xe0, 0x01, 0x00, 0xb0, 0x01, 0x00, 0xd0, 0x0f, 0x00, 0xd0, 0x0f, 0x00,
    0xf0, 0x07, 0x00, 0xf0, 0xc7, 0x00, 0x20, 0x3f, 0x00, 0xc0, 0x1e, 0x00, 0x80, 0x07, 0x00,
0x00, 0x00, 0x00, 0x00, 0x00, 0x00, 0x00, 0x00, 0x00, 0x00, 0x00, 0x00, 0x00, 0x00, 0x00,
0x00, 0x00, 0x00, 0x00, 0x00, 0x00, 0x00, 0x00, 0x00, 0x00, 0x00, 0x00, 0x00, 0x00, 0x00,
    0x80, 0x07, 0x00, 0xc0, 0x7f, 0x00, 0x60, 0x03, 0x00, 0xa0, 0x03, 0x00, 0xd0, 0x07, 0x00,
    0xf0, 0x0f, 0x00, 0xd0, 0x07, 0x00, 0xa0, 0x03, 0x00, 0x60, 0x03, 0x00, 0xc0, 0x7f, 0x00,
0x80, 0x07, 0x00, 0x00, 0x00, 0x00, 0x00, 0x00, 0x00, 0x00, 0x00, 0x00, 0x00, 0x00, 0x00,
0x00, 0x00, 0x00, 0x00, 0x00, 0x00, 0x00, 0x00, 0x00, 0x00, 0x00, 0x00, 0x00, 0x00, 0x00,
    0x80, 0x07, 0x00, 0xc0, 0x1e, 0x00, 0x20, 0x3f, 0x00, 0xf0, 0xc7, 0x00, 0xf0, 0x07, 0x00,
    0xd0, 0x0f, 0x00, 0xd0, 0x0f, 0x00, 0xb0, 0x01, 0x00, 0xe0, 0x01, 0x00, 0xc0, 0x07, 0x00,
0x00, 0x18, 0x00, 0x00, 0x00, 0x00, 0x00, 0x00, 0x00, 0x00, 0x00, 0x00, 0x00, 0x00, 0x00,
0x00, 0x00, 0x00, 0x00, 0x00, 0x00, 0x00, 0x00, 0x00, 0x00, 0x00, 0x00, 0x00, 0x00, 0x00,
    0x80, 0x1f, 0x00, 0xc0, 0x38, 0x00, 0xe0, 0x3f, 0x00, 0xa0, 0x4f, 0x00, 0xa0, 0x8f, 0x00,
    0xa0, 0x0f, 0x01, 0xe0, 0x0f, 0x00, 0xe0, 0x00, 0x00, 0xc0, 0x00, 0x00, 0x00, 0x01, 0x00,
0x00, 0x02, 0x00, 0x00, 0x04, 0x00, 0x00, 0x00, 0x00, 0x00, 0x00, 0x00, 0x00, 0x00, 0x00,
0x00, 0x00, 0x00, 0x00, 0x00, 0x00, 0x00, 0x00, 0x00, 0x00, 0x00, 0x00, 0x00, 0x1f, 0x00,
    0x80, 0x33, 0x00, 0x40, 0x6f, 0x00, 0x60, 0x7f, 0x00, 0xa0, 0x7f, 0x00, 0xe0, 0x4f, 0x00,
    0xe0, 0x4f, 0x00, 0xc0, 0x8c, 0x00, 0xc0, 0x80, 0x00, 0x80, 0x00, 0x00, 0x00, 0x01, 0x00,
0x00, 0x01, 0x00, 0x00, 0x00, 0x00, 0x00, 0x00, 0x00, 0x00, 0x00, 0x00, 0x00, 0x00, 0x00,
0x00, 0x00, 0x00, 0x00, 0x00, 0x00, 0x00, 0x00, 0x00, 0x00, 0x00, 0x00, 0x00, 0x07, 0x00,
    0xc0, 0x1a, 0x00, 0x60, 0x37, 0x00, 0xb0, 0x6f, 0x00, 0xf0, 0x7f, 0x00, 0xf0, 0x7f, 0x00,
    0x30, 0x67, 0x00, 0x20, 0x22, 0x00, 0x20, 0x20, 0x00, 0x20, 0x20, 0x00, 0x20, 0x20, 0x00,
0x00, 0x00, 0x00, 0x00, 0x00, 0x00, 0x00, 0x00, 0x00, 0x00, 0x00, 0x00, 0x00, 0x00, 0x00,
0x00, 0x00, 0x00, 0x00, 0x00, 0x00, 0x00, 0x00, 0x00, 0x00, 0x00, 0x00, 0x80, 0x0f, 0x00,
    0xc0, 0x1c, 0x00, 0x60, 0x2f, 0x00, 0xe0, 0x6f, 0x00, 0xe0, 0x5f, 0x00, 0x20, 0x7f, 0x00,
    0x20, 0x7f, 0x00, 0x10, 0x33, 0x00, 0x10, 0x30, 0x00, 0x00, 0x10, 0x00, 0x00, 0x08, 0x00,
0x00, 0x08, 0x00, 0x00, 0x00, 0x00, 0x00, 0x00, 0x00, 0x00, 0x00, 0x00, 0x00, 0x00, 0x00,
0x00, 0x00, 0x00, 0x00, 0x00, 0x00, 0x00, 0x00, 0x00, 0x00, 0x00, 0x00, 0x00, 0x00, 0x00,
    0x80, 0x1f, 0x00, 0xc0, 0x31, 0x00, 0xc0, 0x7f, 0x00, 0x20, 0x5f, 0x00, 0x10, 0x5f, 0x00,
    0x08, 0x5f, 0x00, 0x00, 0x7f, 0x00, 0x00, 0x70, 0x00, 0x00, 0x30, 0x00, 0x00, 0x08, 0x00,
0x00, 0x04, 0x00, 0x00, 0x02, 0x00, 0x00, 0x00, 0x00, 0x00, 0x00, 0x00, 0x00, 0x00, 0x00,
0x00, 0x00, 0x00, 0x00, 0x00, 0x00, 0x00, 0x00, 0x00, 0x00, 0x00, 0x00, 0x00, 0x00, 0x00,
    0x00, 0x1e, 0x00, 0x80, 0x37, 0x00, 0xc0, 0x4f, 0x00, 0x30, 0xfe, 0x00, 0x00, 0xfe, 0x00,
    0x00, 0xbf, 0x00, 0x00, 0xbf, 0x00, 0x00, 0xd8, 0x00, 0x00, 0x78, 0x00, 0x00, 0x3e, 0x00,
0x80, 0x01, 0x00, 0x00, 0x00, 0x00, 0x00, 0x00, 0x00, 0x00, 0x00, 0x00, 0x00, 0x00, 0x00,
0x00, 0x00, 0x00, 0x00, 0x00, 0x00, 0x00, 0x00, 0x00, 0x00, 0x00, 0x00, 0x00, 0x00, 0x00,
    0x00, 0x1e, 0x00, 0xe0, 0x3f, 0x00, 0x00, 0x6c, 0x00, 0x00, 0x5c, 0x00, 0x00, 0xbe, 0x00,
    0x00, 0xff, 0x00, 0x00, 0xbe, 0x00, 0x00, 0x5c, 0x00, 0x00, 0x6c, 0x00, 0xe0, 0x3f, 0x00,
0x00, 0x1e, 0x00, 0x00, 0x00, 0x00, 0x00, 0x00, 0x00, 0x00, 0x00, 0x00, 0x00, 0x00, 0x00,
0x00, 0x00, 0x00, 0x00, 0x00, 0x00, 0x00, 0x00, 0x00, 0x00, 0x00, 0x00, 0x80, 0x01, 0x00,
    0x00, 0x3e, 0x00, 0x00, 0x78, 0x00, 0x00, 0xd8, 0x00, 0x00, 0xbf, 0x00, 0x00, 0xbf, 0x00,
    0x00, 0xfe, 0x00, 0x30, 0xfe, 0x00, 0xc0, 0x4f, 0x00, 0x80, 0x37, 0x00, 0x00, 0x1e, 0x00,
0x00, 0x00, 0x00, 0x00, 0x00, 0x00, 0x00, 0x00, 0x00, 0x00, 0x00, 0x00, 0x00, 0x00, 0x00,
0x00, 0x00, 0x00, 0x00, 0x00, 0x00, 0x00, 0x00, 0x00, 0x00, 0x02, 0x00, 0x00, 0x04, 0x00,
    0x00, 0x08, 0x00, 0x00, 0x30, 0x00, 0x00, 0x70, 0x00, 0x00, 0x7f, 0x00, 0x08, 0x5f, 0x00,
    0x10, 0x5f, 0x00, 0x20, 0x5f, 0x00, 0xc0, 0x7f, 0x00, 0xc0, 0x31, 0x00, 0x80, 0x1f, 0x00,
0x00, 0x00, 0x00, 0x00, 0x00, 0x00, 0x00, 0x00, 0x00, 0x00, 0x00, 0x00, 0x00, 0x00, 0x00,
0x00, 0x00, 0x00, 0x00, 0x00, 0x00, 0x00, 0x00, 0x00, 0x00, 0x00, 0x00, 0x00, 0x08, 0x00,
    0x00, 0x08, 0x00, 0x00, 0x10, 0x00, 0x10, 0x30, 0x00, 0x10, 0x33, 0x00, 0x20, 0x7f, 0x00,
    0x20, 0x7f, 0x00, 0xe0, 0x5f, 0x00, 0xe0, 0x6f, 0x00, 0x60, 0x2f, 0x00, 0xc0, 0x1c, 0x00,
0x80, 0x0f, 0x00, 0x00, 0x00, 0x00, 0x00, 0x00, 0x00, 0x00, 0x00, 0x00, 0x00, 0x00, 0x00};
