#define rom_utility_width 20
#define rom_utility_height 320
static unsigned char rom_utility_bits[] = {
	0x00, 0x00, 0x00, 0x00, 0x0f, 0x00, 0x80, 0x19, 0x00, 0x80, 0x16, 0x00,
	0xc0, 0x3f, 0x00, 0x00, 0x0f, 0x00, 0x04, 0x0f, 0x02, 0x04, 0x06, 0x02,
	0x04, 0x06, 0x02, 0x1c, 0x86, 0x03, 0x3c, 0xc6, 0x03, 0xfc, 0xff, 0x03,
	0xfc, 0xf9, 0x03, 0xf4, 0xf9, 0x02, 0xe8, 0x79, 0x01, 0xa8, 0x59, 0x01,
0xb0, 0xd9, 0x00, 0x30, 0xcf, 0x00, 0x20, 0x46, 0x00, 0x00, 0x00, 0x00,
0x00, 0x00, 0x00, 0x00, 0x18, 0x00, 0x00, 0x6e, 0x00, 0x10, 0x57, 0x00,
    0x10, 0xdc, 0x00, 0x08, 0xfc, 0x00, 0x08, 0xbc, 0x00, 0x1c, 0x1c, 0x00,
    0x3c, 0x0c, 0x00, 0x3c, 0x06, 0x04, 0xfa, 0x07, 0x02, 0xfe, 0x07, 0x03,
    0xf2, 0xfc, 0x03, 0x6c, 0xfc, 0x01, 0x6c, 0xfe, 0x01, 0x64, 0xbe, 0x00,
0x64, 0xd7, 0x00, 0xe0, 0x39, 0x00, 0x80, 0x18, 0x00, 0x00, 0x0c, 0x00,
0x00, 0x00, 0x00, 0x00, 0x00, 0x00, 0xc0, 0x20, 0x00, 0x60, 0xf8, 0x00,
    0x30, 0x10, 0x01, 0x78, 0x70, 0x01, 0x7c, 0x78, 0x03, 0x7c, 0xf8, 0x01,
    0x7c, 0x3c, 0x01, 0xfa, 0x0e, 0x00, 0xfe, 0x07, 0x00, 0x77, 0x02, 0x00,
    0x3b, 0x06, 0x02, 0x18, 0x7f, 0x03, 0x98, 0xff, 0x01, 0xf8, 0xff, 0x00,
0xf0, 0x7e, 0x00, 0x00, 0x3b, 0x00, 0x80, 0x07, 0x00, 0x80, 0x01, 0x00,
0x00, 0x00, 0x00, 0x00, 0x04, 0x00, 0x80, 0x03, 0x00, 0xe0, 0x01, 0x00,
    0xf8, 0xe0, 0x00, 0xe8, 0xc0, 0x03, 0xf4, 0x60, 0x02, 0xfe, 0xf0, 0x05,
    0xf7, 0xf8, 0x06, 0xf9, 0xff, 0x03, 0x38, 0x07, 0x03, 0x0c, 0x03, 0x01,
    0x86, 0x03, 0x00, 0xfc, 0x03, 0x00, 0xfc, 0x0f, 0x00, 0x80, 0x9f, 0x01,
0x60, 0x7f, 0x00, 0x78, 0x1d, 0x00, 0x80, 0x03, 0x00, 0x00, 0x00, 0x00,
0x00, 0x00, 0x00, 0x00, 0x00, 0x00, 0xc0, 0x3f, 0x00, 0xb0, 0x07, 0x00,
    0xcc, 0x07, 0x00, 0xfe, 0x03, 0x00, 0xe0, 0x81, 0x00, 0xf8, 0x81, 0x03,
    0xfc, 0xe1, 0x06, 0x06, 0xff, 0x05, 0x06, 0xff, 0x05, 0xfc, 0xe1, 0x06,
    0xf8, 0x81, 0x03, 0xe0, 0x81, 0x00, 0xfe, 0x03, 0x00, 0xcc, 0x07, 0x00,
0xb0, 0x07, 0x00, 0xc0, 0x3f, 0x00, 0x00, 0x00, 0x00, 0x00, 0x00, 0x00,
0x00, 0x00, 0x00, 0x80, 0x03, 0x00, 0x78, 0x1d, 0x00, 0x60, 0x7f, 0x00,
    0x80, 0x9f, 0x01, 0xfc, 0x0f, 0x00, 0xfc, 0x03, 0x00, 0x86, 0x03, 0x00,
    0x0c, 0x03, 0x01, 0x38, 0x07, 0x03, 0xf9, 0xff, 0x03, 0xf7, 0xf8, 0x06,
    0xfe, 0xf0, 0x05, 0xf4, 0x60, 0x02, 0xe8, 0xc0, 0x03, 0xf8, 0xe0, 0x00,
0xe0, 0x01, 0x00, 0x80, 0x03, 0x00, 0x00, 0x04, 0x00, 0x00, 0x00, 0x00,
0x80, 0x01, 0x00, 0x80, 0x07, 0x00, 0x00, 0x3b, 0x00, 0xf0, 0x7e, 0x00,
    0xf8, 0xff, 0x00, 0x98, 0xff, 0x01, 0x18, 0x7f, 0x03, 0x3b, 0x06, 0x02,
    0x77, 0x02, 0x00, 0xfe, 0x07, 0x00, 0xfa, 0x0e, 0x00, 0x7c, 0x3c, 0x01,
    0x7c, 0xf8, 0x01, 0x7c, 0x78, 0x03, 0x78, 0x70, 0x01, 0x30, 0x10, 0x01,
0x60, 0xf8, 0x00, 0xc0, 0x20, 0x00, 0x00, 0x00, 0x00, 0x00, 0x00, 0x00,
0x00, 0x0c, 0x00, 0x80, 0x18, 0x00, 0xe0, 0x39, 0x00, 0x64, 0xd7, 0x00,
    0x64, 0xbe, 0x00, 0x6c, 0xfe, 0x01, 0x6c, 0xfc, 0x01, 0xf2, 0xfc, 0x03,
    0xfe, 0x07, 0x03, 0xfa, 0x07, 0x02, 0x3c, 0x06, 0x04, 0x3c, 0x0c, 0x00,
    0x1c, 0x1c, 0x00, 0x08, 0xbc, 0x00, 0x08, 0xfc, 0x00, 0x10, 0xdc, 0x00,
0x10, 0x57, 0x00, 0x00, 0x6e, 0x00, 0x00, 0x18, 0x00, 0x00, 0x00, 0x00,
0x00, 0x00, 0x00, 0x20, 0x46, 0x00, 0x30, 0xcf, 0x00, 0xb0, 0xd9, 0x00,
    0xa8, 0x59, 0x01, 0xe8, 0x79, 0x01, 0xf4, 0xf9, 0x02, 0xfc, 0xf9, 0x03,
    0xfc, 0xff, 0x03, 0x3c, 0xc6, 0x03, 0x1c, 0x86, 0x03, 0x04, 0x06, 0x02,
    0x04, 0x06, 0x02, 0x04, 0x0f, 0x02, 0x00, 0x0f, 0x00, 0xc0, 0x3f, 0x00,
0x80, 0x16, 0x00, 0x80, 0x19, 0x00, 0x00, 0x0f, 0x00, 0x00, 0x00, 0x00,
0x00, 0x03, 0x00, 0x80, 0x11, 0x00, 0xc0, 0x79, 0x00, 0xb0, 0x6e, 0x02,
    0xd0, 0x67, 0x02, 0xf8, 0x67, 0x03, 0xf8, 0x63, 0x03, 0xfc, 0xf3, 0x04,
    0x0c, 0xfe, 0x07, 0x04, 0xfe, 0x05, 0x02, 0xc6, 0x03, 0x00, 0xc3, 0x03,
    0x80, 0x83, 0x03, 0xd0, 0x03, 0x01, 0xf0, 0x03, 0x01, 0xb0, 0x83, 0x00,
0xa0, 0x8e, 0x00, 0x60, 0x07, 0x00, 0x80, 0x01, 0x00, 0x00, 0x00, 0x00,
0x00, 0x18, 0x00, 0x00, 0x1e, 0x00, 0xc0, 0x0d, 0x00, 0xe0, 0xf7, 0x00,
    0xf0, 0xff, 0x01, 0xf8, 0x9f, 0x01, 0xec, 0x8f, 0x01, 0x04, 0xc6, 0x0d,
    0x00, 0xe4, 0x0e, 0x00, 0xfe, 0x07, 0x00, 0xf7, 0x05, 0xc8, 0xe3, 0x03,
    0xf8, 0xe1, 0x03, 0xec, 0xe1, 0x03, 0xe8, 0xe0, 0x01, 0x88, 0xc0, 0x00,
0xf0, 0x61, 0x00, 0x40, 0x30, 0x00, 0x00, 0x00, 0x00, 0x00, 0x00, 0x00,
0x00, 0x00, 0x00, 0x00, 0x1c, 0x00, 0x80, 0xeb, 0x01, 0xe0, 0x6f, 0x00,
    0x98, 0x1f, 0x00, 0x00, 0xff, 0x03, 0x00, 0xfc, 0x03, 0x00, 0x1c, 0x06,
    0x08, 0x0c, 0x03, 0x0c, 0xce, 0x01, 0xfc, 0xff, 0x09, 0xf6, 0xf1, 0x0e,
    0xfa, 0xf0, 0x07, 0x64, 0xf0, 0x02, 0x3c, 0x70, 0x01, 0x70, 0xf0, 0x01,
0x00, 0x78, 0x00, 0x00, 0x1c, 0x00, 0x00, 0x02, 0x00, 0x00, 0x00, 0x00,
0x00, 0x00, 0x00, 0x00, 0x00, 0x00, 0xc0, 0x3f, 0x00, 0x00, 0xde, 0x00,
    0x00, 0x3e, 0x03, 0x00, 0xfc, 0x07, 0x10, 0x78, 0x00, 0x1c, 0xf8, 0x01,
    0x76, 0xf8, 0x03, 0xfa, 0x0f, 0x06, 0xfa, 0x0f, 0x06, 0x76, 0xf8, 0x03,
    0x1c, 0xf8, 0x01, 0x10, 0x78, 0x00, 0x00, 0xfc, 0x07, 0x00, 0x3e, 0x03,
0x00, 0xde, 0x00, 0xc0, 0x3f, 0x00, 0x00, 0x00, 0x00, 0x00, 0x00, 0x00,
0x00, 0x00, 0x00, 0x00, 0x02, 0x00, 0x00, 0x1c, 0x00, 0x00, 0x78, 0x00,
    0x70, 0xf0, 0x01, 0x3c, 0x70, 0x01, 0x64, 0xf0, 0x02, 0xfa, 0xf0, 0x07,
    0xf6, 0xf1, 0x0e, 0xfc, 0xff, 0x09, 0x0c, 0xce, 0x01, 0x08, 0x0c, 0x03,
    0x00, 0x1c, 0x06, 0x00, 0xfc, 0x03, 0x00, 0xff, 0x03, 0x98, 0x1f, 0x00,
0xe0, 0x6f, 0x00, 0x80, 0xeb, 0x01, 0x00, 0x1c, 0x00, 0x00, 0x00, 0x00,
0x00, 0x00, 0x00, 0x00, 0x00, 0x00, 0x40, 0x30, 0x00, 0xf0, 0x61, 0x00,
    0x88, 0xc0, 0x00, 0xe8, 0xe0, 0x01, 0xec, 0xe1, 0x03, 0xf8, 0xe1, 0x03,
    0xc8, 0xe3, 0x03, 0x00, 0xf7, 0x05, 0x00, 0xfe, 0x07, 0x00, 0xe4, 0x0e,
    0x04, 0xc6, 0x0d, 0xec, 0x8f, 0x01, 0xf8, 0x9f, 0x01, 0xf0, 0xff, 0x01,
0xe0, 0xf7, 0x00, 0xc0, 0x0d, 0x00, 0x00, 0x1e, 0x00, 0x00, 0x18, 0x00,
0x00, 0x00, 0x00, 0x80, 0x01, 0x00, 0x60, 0x07, 0x00, 0xa0, 0x8e, 0x00,
    0xb0, 0x83, 0x00, 0xf0, 0x03, 0x01, 0xd0, 0x03, 0x01, 0x80, 0x83, 0x03,
    0x00, 0xc3, 0x03, 0x02, 0xc6, 0x03, 0x04, 0xfe, 0x05, 0x0c, 0xfe, 0x07,
    0xfc, 0xf3, 0x04, 0xf8, 0x63, 0x03, 0xf8, 0x67, 0x03, 0xd0, 0x67, 0x02,
0xb0, 0x6e, 0x02, 0xc0, 0x79, 0x00, 0x80, 0x11, 0x00, 0x00, 0x03, 0x00};
