#define rom_warbase_width 20
#define rom_warbase_height 20
static char rom_warbase_bits[] = {
	0x00, 0x00, 0x00, 0x00, 0x00, 0x00, 0x00, 0x1f, 0x00, 0xc0, 0x0f, 0x00, 0x10, 0xe6, 0x00,
	0x20, 0x8f, 0x00, 0xc8, 0xb6, 0x00, 0x48, 0x26, 0x02, 0x2c, 0x4f, 0x03, 0xfc, 0xff, 0x03,
	0xfc, 0xff, 0x03, 0x2c, 0x4f, 0x03, 0x44, 0x26, 0x01, 0xd0, 0x36, 0x01, 0x10, 0x4f, 0x00,
0x70, 0x86, 0x00, 0x00, 0x3f, 0x00, 0x80, 0x0f, 0x00, 0x00, 0x00, 0x00, 0x00, 0x00, 0x00};
