#define 0011_width 30
#define 0011_height 30
static unsigned char 0011_bits[] = {
   0x00, 0x00, 0x00, 0x00, 0x00, 0x00, 0x00, 0x00, 0x00, 0x10, 0x01, 0x00,
   0x00, 0x18, 0x03, 0x00, 0x00, 0x18, 0x03, 0x00, 0x00, 0x18, 0x03, 0x00,
   0x00, 0xf8, 0x03, 0x00, 0x00, 0xf8, 0x03, 0x00, 0x00, 0xe0, 0xf8, 0x00,
   0x00, 0xe0, 0x08, 0x01, 0x00, 0x40, 0x08, 0x02, 0x00, 0xe0, 0xa8, 0x02,
   0x00, 0x40, 0x48, 0x02, 0x00, 0xe0, 0xa8, 0x02, 0x00, 0x40, 0x08, 0x02,
   0x00, 0xe0, 0x08, 0x02, 0x00, 0x40, 0x08, 0x02, 0x00, 0xe0, 0x08, 0x02,
   0x00, 0x40, 0xf8, 0x03, 0x00, 0xe0, 0x00, 0x00, 0x00, 0xe0, 0x00, 0x00,
   0x00, 0xf8, 0x03, 0x00, 0x00, 0xf8, 0x03, 0x00, 0x00, 0x18, 0x03, 0x00,
   0x00, 0x18, 0x03, 0x00, 0x00, 0x18, 0x03, 0x00, 0x00, 0x10, 0x01, 0x00,
   0x00, 0x00, 0x00, 0x00, 0x00, 0x00, 0x00, 0x00, 0x00, 0x00, 0x00, 0x00};
