/* XPM */
static char * 0101_xpm[] = {
"30 30 8 1 XPMEXT",
" 	c None",
".      c None",
"X	c #909090909090",
"o	c #C1C1C1C1C1C1",
"O	c #E0E0E0E0E0E0",
"+	c #B0B000000000",
"@	c #A1A1A1A1A1A1",
"#	c #FFFFFFFF0000",
"           .......            ",
"        ...       ...         ",
"      ..    X   X    ..       ",
"     .     Xo   oo     .      ",
"    .      oO   Xo      .     ",
"   .       oO   XO       .    ",
"  .        oO   XO        .   ",
"  .        ooXXXXO        .   ",
" .          ooooO          .  ",
" .           ooO           .  ",
" .            o     ++++   .  ",
".            XoO    ++  +   . ",
".             @    ++++ +   . ",
".            XoO   ++#+#+   . ",
".             @    +++#++   . ",
".            XoO   ++#+#+   . ",
".             @    ++++++   . ",
".            XoO   ++++++   . ",
" .            o            .  ",
" .           X@o           .  ",
" .          Xoooo          .  ",
"  .        XoOOOoO        .   ",
"  .        XO   XO        .   ",
"   .       XO   XO       .    ",
"    .      XO   XO      .     ",
"     .      o   O      .      ",
"      ..             ..       ",
"        ...       ...         ",
"           .......            ",
"                              ",
"XPMEXT num_views",
"1",
"XPMENDEXT"};
