#define 0100_width 30
#define 0100_height 30
static unsigned char 0100_bits[] = {
   0x00, 0x00, 0x00, 0x00, 0x00, 0x00, 0x00, 0x00, 0x00, 0x00, 0x00, 0x00,
   0x00, 0x00, 0x00, 0x00, 0x00, 0x00, 0x00, 0x00, 0x00, 0x00, 0x00, 0x00,
   0x00, 0x00, 0x00, 0x00, 0xe0, 0x00, 0x00, 0x00, 0xe0, 0x00, 0x00, 0x00,
   0xe0, 0x00, 0x00, 0x00, 0x40, 0x00, 0x00, 0x00, 0xf8, 0x03, 0x00, 0x00,
   0xf4, 0x05, 0x00, 0x00, 0x54, 0x05, 0x00, 0x00, 0xf4, 0x05, 0x00, 0x00,
   0x54, 0x05, 0x00, 0x00, 0xf4, 0x05, 0x00, 0x00, 0xb0, 0x01, 0x00, 0x00,
   0xb0, 0x01, 0x00, 0x00, 0xb0, 0x01, 0x00, 0x00, 0xb0, 0x01, 0x00, 0x00,
   0xb0, 0x01, 0x00, 0x00, 0x00, 0x00, 0x00, 0x00, 0x00, 0x00, 0x00, 0x00,
   0x00, 0x00, 0x00, 0x00, 0x00, 0x00, 0x00, 0x00, 0x00, 0x00, 0x00, 0x00,
   0x00, 0x00, 0x00, 0x00, 0x00, 0x00, 0x00, 0x00, 0x00, 0x00, 0x00, 0x00};
