/* XPM */
static char * 1001_xpm[] = {
"30 30 11 1 XPMEXT",
" 	c None",
".      c None",
"X	c #FFFFB0B0B0B0",
"o	c #B0B000000000",
"O	c #666679796666",
"+	c #C6C6C6C6E0E0",
"@	c #909090909090",
"#	c #98988A8A6D6D",
"$	c #B0B0A0A09090",
"%	c #FFFFFFFF0000",
"&	c #A0A0C0C0A0A0",
"           .......            ",
"        ...       ...         ",
"      ..             ..       ",
"     .                 .      ",
"    .                   .     ",
"   .                     .    ",
"  .                       .   ",
"  .  XXX                  .   ",
" .   XXX                   .  ",
" .   XXX  o                .  ",
" .    O  +          oooo   .  ",
".  OOOOO+O          oo  o   . ",
". @ @#O+@ O        oooo o   . ",
". @ OO++$ $        oo%o%o   . ",
". O @++@$ O        ooo%oo   . ",
". O +++OO @        oo%o%o   . ",
". X+&&&&& X        oooooo   . ",
".   && &&          oooooo   . ",
" .  && &&                  .  ",
" .  && &&                  .  ",
" .  && &&                  .  ",
"  . && &&                 .   ",
"  .                       .   ",
"   .                     .    ",
"    .                   .     ",
"     .                 .      ",
"      ..             ..       ",
"        ...       ...         ",
"           .......            ",
"                              ",
"XPMEXT num_views",
"1",
"XPMENDEXT"};
