#define 0110_width 30
#define 0110_height 30
static unsigned char 0110_bits[] = {
   0x00, 0x00, 0x00, 0x00, 0x00, 0x00, 0x00, 0x00, 0x00, 0x10, 0x01, 0x00,
   0x00, 0x18, 0x03, 0x00, 0x00, 0x18, 0x03, 0x00, 0x00, 0x18, 0x03, 0x00,
   0x00, 0xf8, 0x03, 0x00, 0xe0, 0xf8, 0x03, 0x00, 0xe0, 0xe0, 0x00, 0x00,
   0xe0, 0xe0, 0x00, 0x00, 0x40, 0x40, 0x00, 0x00, 0xf8, 0xe3, 0x00, 0x00,
   0xf4, 0x45, 0x00, 0x00, 0x54, 0xe5, 0x00, 0x00, 0xf4, 0x45, 0x00, 0x00,
   0x54, 0xe5, 0x00, 0x00, 0xf4, 0x45, 0x00, 0x00, 0xb0, 0xe1, 0x00, 0x00,
   0xb0, 0x41, 0x00, 0x00, 0xb0, 0xe1, 0x00, 0x00, 0xb0, 0xe1, 0x00, 0x00,
   0xb0, 0xf9, 0x03, 0x00, 0x00, 0xf8, 0x03, 0x00, 0x00, 0x18, 0x03, 0x00,
   0x00, 0x18, 0x03, 0x00, 0x00, 0x18, 0x03, 0x00, 0x00, 0x10, 0x01, 0x00,
   0x00, 0x00, 0x00, 0x00, 0x00, 0x00, 0x00, 0x00, 0x00, 0x00, 0x00, 0x00};
