/* XPM */
static char * 1101_xpm[] = {
"30 30 14 1 XPMEXT",
" 	c None",
".      c None",
"X	c #909090909090",
"o	c #C1C1C1C1C1C1",
"O	c #E0E0E0E0E0E0",
"+	c #FFFFB0B0B0B0",
"@	c #B0B000000000",
"#	c #666679796666",
"$	c #C6C6C6C6E0E0",
"%	c #98988A8A6D6D",
"&	c #A1A1A1A1A1A1",
"*	c #B0B0A0A09090",
"=	c #FFFFFFFF0000",
"-	c #A0A0C0C0A0A0",
"           .......            ",
"        ...       ...         ",
"      ..    X   X    ..       ",
"     .     Xo   Xo     .      ",
"    .      oO   Xo      .     ",
"   .       oO   XO       .    ",
"  .        oO   XO        .   ",
"  .  +++   ooXXXXO        .   ",
" .   +++    ooooO          .  ",
" .   +++  @  ooO           .  ",
" .    #  $    o     @@@@   .  ",
".  #####$#   XoO    @@  @   . ",
". X X%#$X #   &    @@@@ @   . ",
". X ##$$* *  XoO   @@=@=@   . ",
". # X$$X* #   &    @@@=@@   . ",
". # $$$## X  XoO   @@=@=@   . ",
". +$----- +   &    @@@@@@   . ",
".   -- --    XoO   @@@@@@   . ",
" .  -- --     o            .  ",
" .  -- --    X&o           .  ",
" .  -- --   Xoooo          .  ",
"  . -- --  XoOOOoO        .   ",
"  .        XO   XO        .   ",
"   .       XO   XO       .    ",
"    .      XO   XO      .     ",
"     .      o   O      .      ",
"      ..             ..       ",
"        ...       ...         ",
"           .......            ",
"                              ",
"XPMEXT num_views",
"1",
"XPMENDEXT"};
