/* XPM */
static char * 0111_xpm[] = {
"30 30 10 1 XPMEXT",
" 	c None",
".      c None",
"X	c #A1A1A1A1A1A1",
"o	c #D0D0D0D0D0D0",
"O	c #E0E0E0E0E0E0",
"+	c #B0B0B0B0B0B0",
"@	c #FFFFFFFFFFFF",
"#	c #B0B000000000",
"$	c #FFFFFFFF0000",
"%	c #909090909090",
"           .......            ",
"        ...       ...         ",
"      ..     X X     ..       ",
"     .      Xo XO      .      ",
"    .       Xo +@       .     ",
"   .        Xoo@@        .    ",
"  .           O           .   ",
"  .          Xo@          .   ",
" .            O            .  ",
" .           Xo@           .  ",
" .            O     ####   .  ",
".            Xo@    ##  #   . ",
".             O    #### #   . ",
".           XXoo@  ##$#$#   . ",
".           XO X@  ###$##   . ",
".           XO X@  ##$#$#   . ",
".            o @   ######   . ",
".                  ######   . ",
" .          %  %+          .  ",
" .          %%%+           .  ",
" .        % +OO+++O        .  ",
"  .       %+O   +O        .   ",
"  .        +     +        .   ",
"   .       ++   o++      .    ",
"    .     %%++++o O     .     ",
"     .       %OO+      .      ",
"      ..    %O  O    ..       ",
"        ...       ...         ",
"           .......            ",
"                              ",
"XPMEXT num_views",
"1",
"XPMENDEXT"};
