#define 1011_width 30
#define 1011_height 30
static unsigned char 1011_bits[] = {
   0x00, 0x00, 0x00, 0x00, 0x00, 0x00, 0x00, 0x00, 0x00, 0xa0, 0x00, 0x00,
   0x00, 0xb0, 0x01, 0x00, 0x00, 0xb0, 0x01, 0x00, 0x00, 0xf0, 0x01, 0x00,
   0x00, 0x40, 0x00, 0x00, 0x00, 0xe0, 0x00, 0x00, 0x00, 0x40, 0xf8, 0x00,
   0x00, 0xe0, 0x08, 0x01, 0x00, 0x40, 0x08, 0x02, 0x00, 0xe0, 0xa8, 0x02,
   0x00, 0x40, 0x48, 0x02, 0x00, 0xf0, 0xa9, 0x02, 0x00, 0xb0, 0x09, 0x02,
   0x00, 0xb0, 0x09, 0x02, 0x00, 0xa0, 0x08, 0x02, 0x00, 0x00, 0x08, 0x02,
   0x00, 0x90, 0xf9, 0x03, 0x00, 0xf0, 0x00, 0x00, 0x00, 0xf4, 0x07, 0x00,
   0x00, 0x1c, 0x03, 0x00, 0x00, 0x18, 0x03, 0x00, 0x00, 0x18, 0x07, 0x00,
   0x00, 0xfc, 0x05, 0x00, 0x00, 0xe0, 0x01, 0x00, 0x00, 0x30, 0x01, 0x00,
   0x00, 0x00, 0x00, 0x00, 0x00, 0x00, 0x00, 0x00, 0x00, 0x00, 0x00, 0x00};
