#define 1110_width 30
#define 1110_height 30
static unsigned char 1110_bits[] = {
   0x00, 0x00, 0x00, 0x00, 0x00, 0x00, 0x00, 0x00, 0x00, 0xa0, 0x00, 0x00,
   0x00, 0xb0, 0x01, 0x00, 0x00, 0xb0, 0x01, 0x00, 0x00, 0xf0, 0x01, 0x00,
   0x00, 0x40, 0x00, 0x00, 0xe0, 0xe0, 0x00, 0x00, 0xe0, 0x40, 0x00, 0x00,
   0xe0, 0xe0, 0x00, 0x00, 0x40, 0x40, 0x00, 0x00, 0xf8, 0xe3, 0x00, 0x00,
   0xf4, 0x45, 0x00, 0x00, 0x54, 0xf5, 0x01, 0x00, 0xf4, 0xb5, 0x01, 0x00,
   0x54, 0xb5, 0x01, 0x00, 0xf4, 0xa5, 0x00, 0x00, 0xb0, 0x01, 0x00, 0x00,
   0xb0, 0x91, 0x01, 0x00, 0xb0, 0xf1, 0x00, 0x00, 0xb0, 0xf5, 0x07, 0x00,
   0xb0, 0x1d, 0x03, 0x00, 0x00, 0x18, 0x03, 0x00, 0x00, 0x18, 0x07, 0x00,
   0x00, 0xfc, 0x05, 0x00, 0x00, 0xe0, 0x01, 0x00, 0x00, 0x30, 0x01, 0x00,
   0x00, 0x00, 0x00, 0x00, 0x00, 0x00, 0x00, 0x00, 0x00, 0x00, 0x00, 0x00};
