#define 1111_width 30
#define 1111_height 30
static unsigned char 1111_bits[] = {
   0x00, 0x00, 0x00, 0x00, 0x00, 0x00, 0x00, 0x00, 0x00, 0xa0, 0x00, 0x00,
   0x00, 0xb0, 0x01, 0x00, 0x00, 0xb0, 0x01, 0x00, 0x00, 0xf0, 0x01, 0x00,
   0x00, 0x40, 0x00, 0x00, 0xe0, 0xe0, 0x00, 0x00, 0xe0, 0x40, 0xf8, 0x00,
   0xe0, 0xe0, 0x08, 0x01, 0x40, 0x40, 0x08, 0x02, 0xf8, 0xe3, 0xa8, 0x02,
   0xf4, 0x45, 0x48, 0x02, 0x54, 0xf5, 0xa9, 0x02, 0xf4, 0xb5, 0x09, 0x02,
   0x54, 0xb5, 0x09, 0x02, 0xf4, 0xa5, 0x08, 0x02, 0xb0, 0x01, 0x08, 0x02,
   0xb0, 0x91, 0xf9, 0x03, 0xb0, 0xf1, 0x00, 0x00, 0xb0, 0xf5, 0x07, 0x00,
   0xb0, 0x1d, 0x03, 0x00, 0x00, 0x18, 0x03, 0x00, 0x00, 0x18, 0x07, 0x00,
   0x00, 0xfc, 0x05, 0x00, 0x00, 0xe0, 0x01, 0x00, 0x00, 0x30, 0x01, 0x00,
   0x00, 0x00, 0x00, 0x00, 0x00, 0x00, 0x00, 0x00, 0x00, 0x00, 0x00, 0x00};
