#define m0101_width 16
#define m0101_height 16
static unsigned char m0101_bits[] = {
   0x00, 0x00, 0x00, 0x00, 0x00, 0x00, 0x18, 0x00, 0x18, 0x00, 0x00, 0x0c,
   0x18, 0x14, 0x24, 0x14, 0x3c, 0x14, 0x24, 0x1c, 0x18, 0x00, 0x18, 0x00,
   0x00, 0x00, 0x00, 0x00, 0x00, 0x00, 0x00, 0x00};
