#define m0100_width 16
#define m0100_height 16
static unsigned char m0100_bits[] = {
   0x00, 0x00, 0x00, 0x00, 0x00, 0x00, 0x18, 0x00, 0x18, 0x00, 0x00, 0x00,
   0x18, 0x00, 0x24, 0x00, 0x3c, 0x00, 0x24, 0x00, 0x18, 0x00, 0x18, 0x00,
   0x00, 0x00, 0x00, 0x00, 0x00, 0x00, 0x00, 0x00};
