#define m0111_width 16
#define m0111_height 16
static unsigned char m0111_bits[] = {
   0x00, 0x00, 0x00, 0x00, 0x40, 0x01, 0x58, 0x01, 0xd8, 0x01, 0x80, 0x0c,
   0x98, 0x14, 0xa4, 0x14, 0xbc, 0x14, 0xa4, 0x1c, 0xd8, 0x01, 0x58, 0x01,
   0x40, 0x01, 0x00, 0x00, 0x00, 0x00, 0x00, 0x00};
