#define m1010_width 16
#define m1010_height 16
static unsigned char m1010_bits[] = {
   0x00, 0x00, 0x00, 0x00, 0x40, 0x01, 0xc0, 0x01, 0x80, 0x00, 0xc0, 0x01,
   0x40, 0x01, 0x00, 0x00, 0x00, 0x00, 0x80, 0x00, 0x80, 0x03, 0xc0, 0x01,
   0x00, 0x01, 0x00, 0x00, 0x00, 0x00, 0x00, 0x00};
