#define m1011_width 16
#define m1011_height 16
static unsigned char m1011_bits[] = {
   0x00, 0x00, 0x00, 0x00, 0x40, 0x01, 0xc0, 0x01, 0x80, 0x00, 0xc0, 0x0d,
   0x40, 0x15, 0x00, 0x14, 0x00, 0x14, 0x80, 0x1c, 0x80, 0x03, 0xc0, 0x01,
   0x00, 0x01, 0x00, 0x00, 0x00, 0x00, 0x00, 0x00};
