#define m1110_width 16
#define m1110_height 16
static unsigned char m1110_bits[] = {
   0x00, 0x00, 0x00, 0x00, 0x40, 0x01, 0xd8, 0x01, 0x98, 0x00, 0xc0, 0x01,
   0x58, 0x01, 0x24, 0x00, 0x3c, 0x00, 0xa4, 0x00, 0x98, 0x03, 0xd8, 0x01,
   0x00, 0x01, 0x00, 0x00, 0x00, 0x00, 0x00, 0x00};
