#define MOO_m0011_width 16
#define MOO_m0011_height 16
static unsigned char MOO_m0011_bits[] = {
   0x00, 0x00, 0x00, 0x00, 0x40, 0x01, 0x40, 0x01, 0xc0, 0x01, 0x80, 0x0c,
   0x80, 0x14, 0x80, 0x14, 0x80, 0x14, 0x80, 0x1c, 0xc0, 0x01, 0x40, 0x01,
   0x40, 0x01, 0x00, 0x00, 0x00, 0x00, 0x00, 0x00};
