/* XPM */
static char * C4_xpm[] = {
"20 320 7 1",
" 	c None",
".	c #A1A1A1",
"X	c #B0B0B0",
"o	c #909090",
"O	c #C1C1C1",
"+	c #00FF00",
"@	c #FF0000",
"                    ",
"         .X.        ",
"        oXOXo       ",
"       oXOOOXo      ",
"     o .XXXXX. o    ",
"     ooXXOOOXXoo    ",
"     +.XXOOOXX.+    ",
"     +.XXOOOXX.+    ",
"     +..XXXXX..+    ",
"     +o  ooo  o+    ",
"     o  oXOXo  o    ",
"     o  .XOX.  o    ",
"     o  oXOXo  o    ",
"         ooo        ",
"        oXXXo       ",
"        .X@X.       ",
"        .o o.       ",
"        o   o       ",
"                    ",
"                    ",
"                    ",
"                    ",
"           ooX      ",
"       o  o.OX.     ",
"       o .XOOXo     ",
"      +.XXXXXOXo    ",
"      +.XXOOOX.     ",
"     +.XXXOOOXX o   ",
"     +o.XXOOXXXoo   ",
"     o  ooXXXX.+    ",
"    o   XOooX..+    ",
"    o  .XOXo o++    ",
"       oXOX.  +     ",
"       ooXo   o     ",
"      oXXo   o      ",
"     .X@.X          ",
"     oo X.          ",
"     o  o.          ",
"        o           ",
"                    ",
"                    ",
"                    ",
"         .          ",
"        .    .Xo    ",
"       +oooo.XOOo   ",
"      +o.X.XOOXOX   ",
"     +o.XXXOOOOX.   ",
"    .ooooXXXOOO.    ",
"   .    oXXXXOXo    ",
"       o.oXXXX.o    ",
"      oXXOoXXXXo .  ",
"      .XOX.ooX.o.   ",
"    oXoOXXo o.o+    ",
"   .XXXo.o  oo+     ",
"  .o@.XX    o+      ",
"     @Xo    .       ",
"     o.    .        ",
"     .              ",
"                    ",
"                    ",
"                    ",
"                    ",
"                    ",
"           oo       ",
"        +++o  o     ",
"      o++..XX.Xo.   ",
"     o  o.XXXXOXX.  ",
"         XXXOOXOOo  ",
"       .ooXOOOXOXo  ",
"      oXXoXOOOXXo   ",
"  ..XoXOOOoXXXX.    ",
" ooX.XoXXX XXXX     ",
"    @Xoo.  .X..oo   ",
"   oXo     o.++     ",
"  oo.     o++       ",
"        oo          ",
"                    ",
"                    ",
"                    ",
"                    ",
"                    ",
"                    ",
"                    ",
"                    ",
"                    ",
"       ooo++++oo    ",
"          o...o     ",
"           .XXX.o   ",
"  o..o o.o XXXXXXo  ",
"   oXXoXXXoXOOOXOX. ",
"    @XoOOOoXOOOXOOX ",
"   oXXoXXXoXOOOXOX. ",
"  o..o o.o XXXXXXo  ",
"           .XXX.o   ",
"          o...o     ",
"       ooo++++oo    ",
"                    ",
"                    ",
"                    ",
"                    ",
"                    ",
"                    ",
"                    ",
"                    ",
"        oo          ",
"  oo.     o++       ",
"   oXo     o.++     ",
"    @Xoo.o .X..oo   ",
" ooX.XoXXXoXXXX     ",
"  ..XoXOOOoXXXX.    ",
"      oXXoXOOOXXo   ",
"       .ooXOOOXOXo  ",
"         XXXOOXOOo  ",
"     o  o.XXXXOXXX  ",
"      o++..XX.Xoo   ",
"        +++o  o     ",
"           oo       ",
"                    ",
"                    ",
"                    ",
"                    ",
"                    ",
"     .              ",
"     o.    .        ",
"     @Xo    .       ",
"  .o@.XX    o+      ",
"   .XXXo.o  oo+     ",
"    oXoOXXo o.o+    ",
"      .XOX.ooX.o.   ",
"      oXXOoXXXXo .  ",
"       o.oXXXXX.    ",
"   .    oXXXXO.o    ",
"    .ooooXXXOOO.    ",
"     +o.XXXOOOO.o   ",
"      +o.XX.OOXOX   ",
"       +oo.o..OOo   ",
"        .    oXo    ",
"         .          ",
"                    ",
"                    ",
"                    ",
"        o           ",
"     o  o.          ",
"     oo X.          ",
"     .X@.X          ",
"      oXXo   o      ",
"       ooXo   o     ",
"       oXOX.  +     ",
"    o  .XOXo o++    ",
"    o  oXOooX..+    ",
"     o  ooXXXX.+    ",
"     +o.XXOOXXXoo   ",
"     +.XXXOOOXX o   ",
"      +.XXOOOX.     ",
"      +.XXXXXOXo    ",
"       o .XOOXo     ",
"       o  oXX..     ",
"           ooX      ",
"                    ",
"                    ",
"                    ",
"        o   o       ",
"        .o o.       ",
"        .X@X.       ",
"        oXXXo       ",
"         ooo        ",
"     o  oXOXo  o    ",
"     o  .XOX.  o    ",
"     o  oXOXo  o    ",
"     +o  ooo  o+    ",
"     +..XXXXX..+    ",
"     +.XXOOOXX.+    ",
"     +.XXOOOXX.+    ",
"     ooXXOOOXXoo    ",
"     o .XXXXX. o    ",
"       oXOOOXo      ",
"        oXOXo       ",
"         .X.        ",
"                    ",
"                    ",
"                    ",
"           o        ",
"          .o  o     ",
"          .X oo     ",
"          X.@X.     ",
"      o   oXXo      ",
"     o   oXoo       ",
"     +  .XOXo       ",
"    ++o oXOX.  o    ",
"    +..XooOXo  o    ",
"    +.XXXXoo  o     ",
"   ooXXXOOXX.o+     ",
"   o XXOOOXXX.+     ",
"     .XOOOXX.+      ",
"    oXOXXXXX.+      ",
"     oXOOX. o       ",
"     .XOXo  o       ",
"      Xoo           ",
"                    ",
"                    ",
"                    ",
"                    ",
"              .     ",
"        .    .o     ",
"       .    oX@     ",
"      +o    XX.@o.  ",
"     +oo  o.oXXX.   ",
"    +o.o oXXOoXo    ",
"   .o.Xoo.XOX.      ",
"  . oXXXXoOXXo      ",
"    ..XXXXo.o       ",
"    oXOXXXXo    .   ",
"    .OOOXXXoooo.    ",
"   oXOOOOXXX.o+     ",
"   XOXOOX.X.o+      ",
"   oOOX.o.oo+       ",
"    oXo    .        ",
"          .         ",
"                    ",
"                    ",
"                    ",
"                    ",
"                    ",
"                    ",
"          oo        ",
"       ++o     .oo  ",
"     ++.o     oXo   ",
"   oo..X. o.ooX@    ",
"     XXXXoXXXoX.Xoo ",
"    .XXXXoOOOXoX..  ",
"   oXXOOOXoXXoo     ",
"  oXOXOOOXoo.o      ",
"  oOOXOOXXX         ",
"  .XXOXXXX.o  o     ",
"   .oX.XX..++o      ",
"     o  o+++        ",
"       oo           ",
"                    ",
"                    ",
"                    ",
"                    ",
"                    ",
"                    ",
"                    ",
"                    ",
"    oo++++ooo       ",
"     o...o          ",
"   o.XXX.           ",
"  oXXXXXX o.o o..o  ",
" .XOXOOOXoXXXoXXo   ",
" XOOXOOOXoOOOoX@    ",
" .XOXOOOXoXXXoXXo   ",
"  oXXXXXX o.o o..o  ",
"   o.XXX.           ",
"     o...o          ",
"    oo++++ooo       ",
"                    ",
"                    ",
"                    ",
"                    ",
"                    ",
"                    ",
"                    ",
"       oo           ",
"     o  o+++        ",
"   .oX.XX..++o      ",
"  XXXOXXXX.o  o     ",
"  oOOXOOXXX         ",
"  oXOXOOOXoo.o      ",
"   oXXOOOXoXXoo     ",
"    .XXXXoOOOXoX..  ",
"     XXXX XXXoX.Xoo ",
"   oo..X.  .ooX@    ",
"     ++.o     oXo   ",
"       ++o     .oo  ",
"          oo        ",
"                    ",
"                    ",
"                    ",
"                    ",
"                    ",
"                    ",
"                    ",
"          .         ",
"    oXo    .        ",
"   oOO..X.oo+       ",
"   XOXOO.XX.o+      ",
"   o.OOOOXXX.o+     ",
"    .OOOXXXoooo.    ",
"    oXOXXXXo    .   ",
"    .XXXXXo.o       ",
"  . oXXXXoOXXo      ",
"   .o.Xoo.XOX.      ",
"    +o.o oXXOoXo    ",
"     +oo  o.oXXX.   ",
"      +o    XX.@o.  ",
"       .    oX@     ",
"        .    .o     ",
"              .     ",
"                    ",
"                    ",
"                    ",
"       X.o          ",
"      ..XXo  o      ",
"      oXOOX. o      ",
"      .OXXXXX.+     ",
"      oXOOOXX.+     ",
"    o oXOOOXXX.+    ",
"    ooXXXOOXX.o+    ",
"     +.XXXXo   o    ",
"     +..XooOX   o   ",
"     ++o oXOX.  o   ",
"      +  .XOXo      ",
"      o  ooXoo      ",
"       o  ooXXo     ",
"           X.@X.    ",
"           .X oo    ",
"           .o  o    ",
"            o       ",
"                    "};
