/* XPM */
static char * C3_xpm_plain[] = {
"20 320 7 1",
" 	c None",
".	c #C1C1C1",
"X	c #909090",
"o	c #A1A1A1",
"O	c #B0B0B0",
"+	c #00FF00",
"@	c #FF0000",
"                    ",
"                    ",
"                    ",
"   .    XooX    .   ",
"   X   XOOOOX   X   ",
"   X  XOO..OOX  X   ",
"   X XO......OX X   ",
"   + OO......OO +   ",
"   +oO........Oo+   ",
"   +oOOOOOOOOOOo+   ",
"   +oX  oOOo  Xo+   ",
"   X     oo     X   ",
"   X  X oOOo X  X   ",
"      XoO..OoX      ",
"      +oO..Oo+      ",
"      +  @@  +      ",
"      +      +      ",
"      X      X      ",
"      X      X      ",
"                    ",
"                    ",
"      .             ",
"      o             ",
"     o   XXXX       ",
"     + XXOOOoo      ",
"    +XooO...OOX     ",
"    +oOO.....Oo   . ",
"   +oOO.......oX  o ",
"   X X O......OX o  ",
"  X     OO....OX +  ",
"     X  oOOOOOOo+   ",
"     XooOo   Xoo+   ",
"    +oo..Oo   o+    ",
"    + O...ooX  X    ",
"   +   @@OoX  X     ",
"   X       +        ",
"          +         ",
"          +         ",
"         X          ",
"                    ",
"          .         ",
"         X          ",
"        X           ",
"       + X          ",
"      +oOOOOOoX     ",
"     +oOOOO..OoX    ",
"    X XO......Oo    ",
"        oO.....O    ",
"         OO....O    ",
"     X   OOO..OO   .",
"    +oooOoOOO.OOX X ",
"   + oO.OO  o.OO X  ",
"  X   ...o   OOo+   ",
" X   @O.Oo   Xo+    ",
"      @ ooX   +     ",
"         +   X      ",
"        +           ",
"       X            ",
"      X             ",
"                    ",
"                    ",
"            o.      ",
"          +o        ",
"        ++          ",
"      X+ooXXX       ",
"     X ooOOOooX     ",
"        XO...OOo    ",
"      X  O....OoX   ",
"    +Xo  O.....OX   ",
"  ++ ooo O.....OX   ",
" X   O.OoOO....OX   ",
"     @..OoO...OX    ",
"     @..o  O.OoX    ",
"      Ooo   OOo  o. ",
"       oXX XOoX+o   ",
"      ++    o++     ",
"    X+     X+       ",
"          X         ",
"                    ",
"                    ",
"                    ",
"                    ",
"                    ",
"       XX++++XXX.   ",
"         ooo        ",
"         XOOOX      ",
" XX+++XX  O.OOX     ",
"     oo   O...OX    ",
"     OOo oO...OOX   ",
"    @..OoOO....Oo   ",
"    @..OoOO....Oo   ",
"     OOo oO...OOX   ",
"     oo   O...OX    ",
" XX+++XX  O.OOX     ",
"         XOOOX      ",
"         ooo        ",
"       XX++++XXX.   ",
"                    ",
"                    ",
"                    ",
"                    ",
"                    ",
"          X         ",
"    X+     X+       ",
"      ++    o++     ",
"       oXX XOoX+o   ",
"      Ooo   OOo  o. ",
"     @..o  O.OoX    ",
"     @..OoO...OX    ",
" X   O.OoOO....OX   ",
"  ++ ooo O.....OX   ",
"    +Xo  O.....OX   ",
"      X  O....OoX   ",
"        XO...OOo    ",
"     X ooOOOooX     ",
"      X+ooXXX       ",
"        ++          ",
"          +o        ",
"            o.      ",
"                    ",
"                    ",
"      X             ",
"       X            ",
"        +           ",
"         +   X      ",
"      @ ooX   +     ",
" X   @O.Oo   Xo+    ",
"  X   ...o   OOo+   ",
"   + oO.OO  o.OO X  ",
"    +oooOoOOO.OOX X ",
"     X   OOO..OO   .",
"         OO....O    ",
"        oO.....O    ",
"    X XO......Oo    ",
"     +oOOOO..OoX    ",
"      +oOOOOOoX     ",
"       + X          ",
"        X           ",
"         X          ",
"          .         ",
"                    ",
"         X          ",
"          +         ",
"          +         ",
"   X       +        ",
"   +   @@OoX  X     ",
"    + O...ooX  o    ",
"    +oo..Oo   o+    ",
"     XooOo   Xoo+   ",
"     X  oOOOOOOo+   ",
"  X     OO....OX +  ",
"   X X O......OX o  ",
"   +oOO.......oX  o ",
"    +oOO.....Oo   . ",
"    +XooO...OOX     ",
"     + XXOOOoo      ",
"     o   XXXX       ",
"      o             ",
"      .             ",
"                    ",
"                    ",
"      X      X      ",
"      X      X      ",
"      +      +      ",
"      +  @@  +      ",
"      +oO..Oo+      ",
"      XoO..OoX      ",
"   X  X oOOo X  X   ",
"   X     oo     X   ",
"   +oX  oOOo  Xo+   ",
"   +oOOOOOOOOOOo+   ",
"   +oO........Oo+   ",
"   + OO......OO +   ",
"   X XO......OX X   ",
"   X  XOO..OOX  X   ",
"   X   XOOOOX   X   ",
"   .    XooX    .   ",
"                    ",
"                    ",
"                    ",
"                    ",
"          X         ",
"         +          ",
"         +          ",
"        +       X   ",
"     X  XoO@@   +   ",
"    X  Xoo...O +    ",
"    +o   oO..oo+    ",
"   +ooX   oOooX     ",
"   +oOOOOOOo  X     ",
"  + XO....OO     X  ",
"  o XO......O X X   ",
" o  Xo.......OOo+   ",
" .   oO.....OOo+    ",
"     XOO...OooX+    ",
"      ooOOOXX +     ",
"       XXXX   o     ",
"             o      ",
"             .      ",
"                    ",
"                    ",
"             X      ",
"            X       ",
"           +        ",
"      X   +         ",
"     +   Xoo @      ",
"    +oX   oO.O@   X ",
"   +oOO   o...   X  ",
"  X OO.o  OO.Oo +   ",
" X XOO.OOOoOooo+    ",
".   OO..OOO   X     ",
"    O....OO         ",
"    O.....Oo        ",
"    oO......OX X    ",
"    XoO..OOOOo+     ",
"     XoOOOOOo+      ",
"          X +       ",
"           X        ",
"          X         ",
"         .          ",
"                    ",
"                    ",
"         X          ",
"       +X     +X    ",
"     ++o    ++      ",
"   o+XoOX XXo       ",
" .o  oOO   ooO      ",
"    XoO.O  o..@     ",
"    XO...OoO..@     ",
"   XO....OOoO.O   X ",
"   XO.....O ooo ++  ",
"   XO.....O  oX+    ",
"   XoO....O  X      ",
"    oOO...OX        ",
"     XooOOOoo X     ",
"       XXXoo+o      ",
"          ++        ",
"        o+          ",
"      .o            ",
"                    ",
"                    ",
"                    ",
"                    ",
"   .XXX++++XX       ",
"        ooo         ",
"      XOOOX         ",
"     XOO.O  XX+++XX ",
"    XO...O   oo     ",
"   XOO...Oo oOO     ",
"   oO....OOoO..@    ",
"   oO....OOoO..@    ",
"   XOO...Oo oOO     ",
"    XO...O   oo     ",
"     XOO.O  XX+++XX ",
"      XOOOX         ",
"        ooo         ",
"   .XXX++++XX       ",
"                    ",
"                    ",
"                    ",
"                    ",
"      .o            ",
"        o+          ",
"          ++        ",
"       XXXoo+X      ",
"     XooOOOoo X     ",
"    oOO...OX        ",
"   XoO....O  X      ",
"   XO.....O  oX+    ",
"   XO.....O ooo ++  ",
"   XO....OOoO.O   X ",
"    XO...OoO..@     ",
"    XoO.O  o..@     ",
" .o  oOO   ooO      ",
"   o+XoOX XXo       ",
"     ++o    ++      ",
"       +X     +X    ",
"         X          ",
"                    ",
"                    ",
"         .          ",
"          X         ",
"           X        ",
"          X +       ",
"     XoOOOOOo+      ",
"    XoO..OOOOo+     ",
"    oO......OX      ",
"    O.....Oo        ",
"    O....OO         ",
".   OO..OOO   X     ",
" X XOO.OOOoOooo+    ",
"  X OO.o  OO.Oo +   ",
"   +oOO   o...   X  ",
"    +oX   oO.O@   X ",
"     +   Xoo @      ",
"      X   +         ",
"           +        ",
"            X       ",
"             X      ",
"                    ",
"                    ",
"             .      ",
"             o      ",
"       XXXX   o     ",
"      ooOOOXX +     ",
"     XOO...OooX+    ",
" .   oO.....OOo+    ",
" o  Xo.......OOo+   ",
"  o XO......O X X   ",
"  + XO....OO     X  ",
"   +oOOOOOOo  X     ",
"   +ooX   oOooX     ",
"    +o   oO..oo+    ",
"    o  Xoo...O +    ",
"     X  XoO@@   +   ",
"        +       X   ",
"         +          ",
"         +          ",
"          X         ",
"                    "};
