/* XPM */
static char * C2_xpm_plain[] = {
"20 320 7 1",
" 	c None",
".	c #C1C1C1",
"X	c #B0B0B0",
"o	c #00FF00",
"O	c #909090",
"+	c #A1A1A1",
"@	c #FF0000",
"                    ",
"                    ",
"                    ",
"  .              .  ",
"  .      XX      .  ",
"  o    O+..+O    o  ",
"  oX  OXX..XXO  Xo  ",
"  oX+O+XX..XX+O+Xo  ",
"  oX+OXXXXXXXXO+Xo  ",
"  oX+OXXXXXXXXO+Xo  ",
"  . +OXXXXXXXXO+ .  ",
"  .  O+XXXXXX+O  .  ",
"  .   +XX++XX+   .  ",
"      OX+@@+XO      ",
"       XO  OX       ",
"       X    X       ",
"                    ",
"                    ",
"                    ",
"                    ",
"                    ",
"     .              ",
"    .               ",
"    o               ",
"   oX     O         ",
"   oX  OO+XXO       ",
"   oX+O+XX..XO      ",
"  oX+OXXXX..XO    . ",
"  . +OXXXXXXXXO   . ",
" O  +OXXXXXXXXO Xo  ",
"     XXXXXXXXXO+Xo  ",
"     +XXXXXXXXO+Xo  ",
"     +X++XXXX++Xo   ",
"     XO@@+XX+OO .   ",
"     X   @X+    X   ",
"         OX    +    ",
"         X          ",
"                    ",
"                    ",
"                    ",
"         O          ",
"        .           ",
"       o            ",
"      oX            ",
"     oX+            ",
"    .X+OOOOO        ",
"   + +O++XX+.X      ",
"     O+XXXX...      ",
"     OXXXXXX.+O     ",
"     +XXXXXXXXO     ",
"    OXXXXXXXXXO     ",
"    X+++XXXXX+O   . ",
"   OO @O+XXXX+O+Xo  ",
"       @+XXX+O+Xo   ",
"        +X+OO+Xo    ",
"       OXO    .     ",
"       O     +      ",
"                    ",
"                    ",
"                    ",
"                    ",
"           ..       ",
"        ooo         ",
"     X.oXXX         ",
"    +  X++          ",
"      O+OOOO        ",
"      O+XXXXOO      ",
"      +XXXXXXXO     ",
"     +XXXXXX..X     ",
"    XXXXXXXX..XO    ",
"   XO@+XXXXXXX+     ",
"      @+XXXXXXO     ",
"      @+XXXXX+O     ",
"      OXXXXXXO      ",
"     XX++XOOO+    . ",
"          +++XXXo.  ",
"            Xooo    ",
"           .o       ",
"          O         ",
"                    ",
"                    ",
"                    ",
"       ...ooooo..   ",
"          XXXX      ",
"         ++++       ",
"        OOOOO       ",
"      O++XXX+O      ",
"    XXXXXXXXXXO     ",
"     O+XXXXXXX+     ",
"      @+XXXX...X    ",
"      @+XXXX...X    ",
"     O+XXXXXXX+     ",
"    XXXXXXXXXXO     ",
"      O++XXX+O      ",
"        OOOOO       ",
"         ++++       ",
"          XXXX      ",
"       ...ooooo.X   ",
"                    ",
"                    ",
"                    ",
"          O         ",
"           .o       ",
"            Xooo    ",
"          +++XX.o.  ",
"     XX++XOOO+    . ",
"      OXXXXXXO      ",
"      @+XXXXX+O     ",
"      @+XXXXXXO     ",
"   XO@+XXXXXXX+     ",
"    XXXXXXXX..XO    ",
"     +XXXXXX..X     ",
"      +XXXXXXXO     ",
"      O+XXXXOO      ",
"      O+OOOO        ",
"    +  X++          ",
"     X.oXXX         ",
"        ooo         ",
"           ..       ",
"                    ",
"                    ",
"                    ",
"                    ",
"       O     +      ",
"       OXO    .     ",
"        +X+OO+Xo    ",
"       @+XXX+O+Xo   ",
"   OO @O+XXXX+O+Xo  ",
"    X+++XXXXX+O   . ",
"    OXXXXXXXXXO     ",
"     +XXXXXXXXO     ",
"     OXXXXXX.+O     ",
"     O+XXXX...      ",
"   + +O++XX+.X      ",
"    .X+OOOOO        ",
"     oX+            ",
"      oX            ",
"       o            ",
"        .           ",
"         O          ",
"                    ",
"                    ",
"                    ",
"         X          ",
"         OX    +    ",
"     X   @X+    X   ",
"     XO@@+XX+OO X   ",
"     +X++XXXX++Xo   ",
"     +XXXXXXXXO+Xo  ",
"     XXXXXXXXXO+Xo  ",
" O  +OXXXXXXXXO Xo  ",
"  . +OXXXXXXXXO   . ",
"  oX+OXXXX..XO    . ",
"   oX+O+XX..XO      ",
"   oX  OO+XXO       ",
"   oX     O         ",
"    o               ",
"    .               ",
"     .              ",
"                    ",
"                    ",
"                    ",
"                    ",
"                    ",
"       X    X       ",
"       XO  OX       ",
"      OX+@@+XO      ",
"  .   +XX++XX+   .  ",
"  .  O+XXXXXX+O  .  ",
"  . +OXXXXXXXXO+ .  ",
"  oX+OXXXXXXXXO+Xo  ",
"  oX+OXXXXXXXXO+Xo  ",
"  oX+O+XX..XX+O+Xo  ",
"  oX  OXX..XXO  Xo  ",
"  o    O+..+O    o  ",
"  .      XX      .  ",
"  X              .  ",
"                    ",
"                    ",
"                    ",
"                    ",
"                    ",
"                    ",
"          X         ",
"    +    XO         ",
"   X    +X@   X     ",
"   . OO+XX+@@OX     ",
"   oX++XXXX++X+     ",
"  oX+OXXXXXXXX+     ",
"  oX+OXXXXXXXXX     ",
"  oX OXXXXXXXXO+  O ",
" .   OXXXXXXXXO+ .  ",
" .    OX..XXXXO+Xo  ",
"      OX..XX+O+Xo   ",
"       OXX+OO  Xo   ",
"         O     .o   ",
"               o    ",
"               .    ",
"              .     ",
"                    ",
"                    ",
"                    ",
"                    ",
"      +     O       ",
"     .    OXO       ",
"    oX+OO+X+        ",
"   oX+O+XXX+@       ",
"  oX+O+XXXX+O@ OO   ",
" .   O+XXXXX+++X    ",
"O    OXXXXXXXXXO    ",
"     OXXXXXXXX+     ",
"     O+.XXXXXXO     ",
"      ...XXXX+O     ",
"      X.+XX++O+ +   ",
"        OOOOO+X.    ",
"            +Xo     ",
"            Xo      ",
"            o       ",
"           .        ",
"          O         ",
"                    ",
"         O          ",
"       o.           ",
"    oooX            ",
"  .oXXX+++          ",
" .    +OOOX++XX     ",
"      OXXXXXXO      ",
"     O+XXXXX+@      ",
"     OXXXXXX+@      ",
"     +XXXXXXX+@OX   ",
"    OX..XXXXXXXX    ",
"     X..XXXXXX+     ",
"     OXXXXXXX+      ",
"      OOXXXX+O      ",
"        OOOO+O      ",
"          ++X  +    ",
"         XXXoX+     ",
"         ooo        ",
"       ..           ",
"                    ",
"                    ",
"                    ",
"   X.ooooo...       ",
"      XXXX          ",
"       ++++         ",
"       OOOOO        ",
"      O+XXX++O      ",
"     OXXXXXXXXXX    ",
"     +XXXXXXX+O     ",
"    X...XXXX+@      ",
"    X...XXXX+@      ",
"     +XXXXXXX+O     ",
"     OXXXXXXXXXX    ",
"      O+XXX++O      ",
"       OOOOO        ",
"       ++++         ",
"      XXXX          ",
"   ..ooooo...       ",
"                    ",
"                    ",
"                    ",
"       ..           ",
"         ooo        ",
"         XXXo.+     ",
"          ++X  O    ",
"        OOOO+O      ",
"      OOXXXX+O      ",
"     OXXXXXXX+      ",
"     X..XXXXXX+     ",
"    OX..XXXXXXXX    ",
"     +XXXXXXX+@OX   ",
"     OXXXXXX+@      ",
"     O+XXXXX+@      ",
"      OXXXXXXO      ",
" .    +OOOX++XX     ",
"  .o.XX+++          ",
"    oooX            ",
"       o.           ",
"         O          ",
"                    ",
"          O         ",
"           .        ",
"            o       ",
"            Xo      ",
"            +Xo     ",
"        OOOOO+X.    ",
"      X.+XX++O+ +   ",
"      ...XXXX+O     ",
"     O+.XXXXXXO     ",
"     OXXXXXXXX+     ",
"O    OXXXXXXXXXO    ",
" .   O+XXXXX+++X    ",
"  oX+O+XXXX+O@ OO   ",
"   oX+O+XXX+@       ",
"    oX+OO+X+        ",
"     .    OXO       ",
"      +     O       ",
"                    ",
"                    ",
"                    ",
"                    ",
"              .     ",
"               .    ",
"               o    ",
"         O     Xo   ",
"       OXX+OO  Xo   ",
"      OX..XX+O+Xo   ",
" .    OX..XXXXO+Xo  ",
" .   OXXXXXXXXO+ .  ",
"  oX OXXXXXXXXO+  O ",
"  oX+OXXXXXXXXX     ",
"  oX+OXXXXXXXX+     ",
"   oX++XXXX++X+     ",
"   X OO+XX+@@OX     ",
"   +    +X@   X     ",
"    +    XO         ",
"          X         ",
"                    ",
"                    ",
"                    "};
