/* XPM */
static char * C1_xpm_plain[] = {
"20 320 7 1",
" 	c None",
".	c #909090",
"X	c #B0B0B0",
"o	c #C1C1C1",
"O	c #A1A1A1",
"+	c #00FF00",
"@	c #FF0000",
"                    ",
"          .         ",
"         .X.        ",
"         XoX        ",
"         OXO        ",
"          O         ",
"          O         ",
"   .      O      .  ",
"   +      O      +  ",
"   +      O      +  ",
"   +OOOOXXOXXOOOO+  ",
"   .OOOOXXXXXOOOO.  ",
"   .  OOXXoXXOO  .  ",
"        OXoXO       ",
"         OoO        ",
"         XoX        ",
"         OoO        ",
"         X@X        ",
"         . .        ",
"                    ",
"                    ",
"                    ",
"             .      ",
"           .X.      ",
"           XoO      ",
"    .      OXO      ",
"    +      O.       ",
"   +       O        ",
"   +.     ..        ",
"  .OOO.   O         ",
"  . OOOXXOO         ",
"     OOXXOX.     .  ",
"      OXXoXXO.  +   ",
"       XoXXXOOOO+   ",
"       OoXOOO.O+.   ",
"      .ooO     .    ",
"      OoX           ",
"     .X@O           ",
"       O.           ",
"                    ",
"                    ",
"                    ",
"                    ",
"      .             ",
"     +       .O.    ",
"    +        XoO    ",
"   ..O       XX.    ",
"    OOO     O       ",
"     OOO   O        ",
"     OOOXXO         ",
"      OXXXX         ",
"      OXoXX         ",
"     XOoXXOO        ",
"    OOoOOOOOO   .   ",
"   .XoOX  OOO. +    ",
"   O@XO     O.+     ",
"    O.       .      ",
"                    ",
"                    ",
"                    ",
"                    ",
"                    ",
"        .           ",
"      ++            ",
"    .+O             ",
"     OO             ",
"     .O.      OX..  ",
"     OOO     .XoX   ",
"     OXX.  .OOOX.   ",
"     OXXXOO.        ",
"    OXXoOO          ",
" .OXoooXXX          ",
" O@ooOXXXX          ",
"  XO.  OOO.         ",
"  .     OOO         ",
"         OO. +.     ",
"          O++       ",
"         ..         ",
"                    ",
"                    ",
"                    ",
"                    ",
"                    ",
"       ..+++.       ",
"        OO          ",
"        OO          ",
"       OOO          ",
"       OOO          ",
"      OXXX          ",
" .XOXOXXXX     OX.  ",
"  @oooooXOOOOOOXoX. ",
" .XOXOXXXX     OX.  ",
"      OXXX          ",
"       OOO          ",
"       OOO          ",
"        OO          ",
"        OO          ",
"       ..+++.       ",
"                    ",
"                    ",
"                    ",
"                    ",
"         ..         ",
"          O++       ",
"         OO. +.     ",
"  .     OOO         ",
"  XO.  OOO.         ",
" O@ooOXXXX          ",
" .OXoooXXX          ",
"    OXXoOO          ",
"     OXXXOO.        ",
"     OXX.  .OOOX.   ",
"     OOO     .XoX   ",
"     .O.      OO..  ",
"     OO             ",
"    .+O             ",
"     .++            ",
"        .           ",
"                    ",
"                    ",
"                    ",
"                    ",
"                    ",
"    O.       .      ",
"   O@XO     O.+     ",
"   .XoOX  OOO. +    ",
"    OOoOOOOOO   .   ",
"     XOoXXOO        ",
"      OXoXX         ",
"      OXXXX         ",
"     OOOXXO         ",
"     OOO   O        ",
"    OOO     O       ",
"   ...       XX.    ",
"    +        XoO    ",
"     +       .O.    ",
"      .             ",
"                    ",
"                    ",
"                    ",
"                    ",
"       O.           ",
"     .X@O           ",
"      OoX           ",
"      .ooO     O    ",
"       OoXOOO.O+    ",
"       XoXXXOOOO+   ",
"      OXXoXXO.  +   ",
"     OOXXOX.     .  ",
"  . OOOXXOO         ",
"  .OOO.   O         ",
"   +.     ..        ",
"   +       O        ",
"    +      O.       ",
"    .      OXO      ",
"           XoX      ",
"           .X.      ",
"             .      ",
"                    ",
"                    ",
"                    ",
"        . .         ",
"        X@X         ",
"        OoO         ",
"        XoX         ",
"        OoO         ",
"       OXoXO        ",
"  .  OOXXoXXOO  .   ",
"  .OOOOXXXXXOOOO.   ",
"  +OOOOXXOXXOOOO+   ",
"  +      O      +   ",
"  +      O      +   ",
"  .      O      .   ",
"         O          ",
"         O          ",
"        OXO         ",
"        XoX         ",
"        .X.         ",
"         .          ",
"                    ",
"                    ",
"           .O       ",
"           O@X.     ",
"           XoO      ",
"    .     Ooo.      ",
"   .+O.OOOXoO       ",
"   +OOOOXXXoX       ",
"   +  .OXXoXXO      ",
"  .     .XOXXOO     ",
"         OOXXOOO .  ",
"         O   .OOO.  ",
"        ..     .+   ",
"        O       +   ",
"       .O      +    ",
"      OXO      .    ",
"      OoX           ",
"      .X.           ",
"      .             ",
"                    ",
"                    ",
"                    ",
"                    ",
"                    ",
"      .       .X    ",
"     +.O     OX@X   ",
"    + .OOO  XOoX.   ",
"   .   OOOOOOoOO    ",
"        OOXXoOX     ",
"         XXoXO      ",
"         XXXXO      ",
"         OXXOOO     ",
"        O   OOO     ",
"       O     OOO    ",
"    .XX       ...   ",
"    OoX        +    ",
"    .O.       +     ",
"             .      ",
"                    ",
"                    ",
"                    ",
"                    ",
"                    ",
"         ..         ",
"       ++O          ",
"     .+ .OO         ",
"         OOO     .  ",
"         .OOO  .OX  ",
"          XXXXOoo@  ",
"          XXXoooXO. ",
"          OOoXXO    ",
"        .OOXXXO     ",
"   .XOOO.  .XXO     ",
"   XoX.     OOO     ",
"  ..XO      .O.     ",
"             OO     ",
"             O+O    ",
"            ++      ",
"           .        ",
"                    ",
"                    ",
"                    ",
"                    ",
"       .+++..       ",
"          OO        ",
"          OO        ",
"          OOO       ",
"          OOO       ",
"          XXXO      ",
"  .XO     XXXXOXOX. ",
" .XoXOOOOOOXooooo@  ",
"  .XO     XXXXOXOX. ",
"          XXXO      ",
"          OOO       ",
"          OOO       ",
"          OO        ",
"          OO        ",
"       .+++..       ",
"                    ",
"                    ",
"                    ",
"                    ",
"                    ",
"           .        ",
"            ++.     ",
"             O+O    ",
"             OO     ",
"  ..OO      .O.     ",
"   XoX.     OOO     ",
"   .XOOO.  .XXO     ",
"        .OOXXXO     ",
"          OOoXXO    ",
"          XXXoooXO. ",
"          XXXXOoo@O ",
"         .OOO  .OX  ",
"         OOO     .  ",
"     .+ .OO         ",
"       ++O          ",
"         ..         ",
"                    ",
"                    ",
"                    ",
"                    ",
"                    ",
"             .      ",
"    .O.       +     ",
"    OoX        +    ",
"    .XX       ...   ",
"       O     OOO    ",
"        O   OOO     ",
"         OXXOOO     ",
"         XXXXO      ",
"         XXoXO      ",
"        OOXXoOX     ",
"   .   OOOOOOoOO    ",
"    + .OOO  XOoX.   ",
"     +.O     OX@X   ",
"      .       .X    ",
"                    ",
"                    ",
"                    ",
"                    ",
"                    ",
"      .             ",
"      .X.           ",
"      XoX           ",
"      OXO      .    ",
"       .O      +    ",
"        O       +   ",
"        ..     .+   ",
"         O   .OOO.  ",
"         OOXXOOO .  ",
"  .     .XOXXOO     ",
"   +  .OXXoXXO      ",
"   +OOOOXXXoX       ",
"    +O.OOOXoO       ",
"    O     Ooo.      ",
"           XoO      ",
"           O@X.     ",
"           .        ",
"                    "};
