/* XPM */
static char * C0_xpm[] = {
"20 320 7 1",
" 	c None",
".	c #B0B0B0",
"X	c #C1C1C1",
"o	c #909090",
"O	c #00FF00",
"+	c #A1A1A1",
"@	c #FF0000",
"                    ",
"                    ",
"                    ",
"                    ",
"                    ",
"     .       .      ",
"     X       X      ",
"     X       X      ",
"     X   o   X      ",
"    .X  o.o  X.     ",
"    OX++.X.++XO     ",
"    OX++XXX++XO     ",
"    .X  @.@  X.     ",
"     X       X      ",
"     .       .      ",
"                    ",
"                    ",
"                    ",
"                    ",
"                    ",
"                    ",
"                    ",
"                    ",
"        .           ",
"       X            ",
"       X            ",
"     .X        .    ",
"     OX   o    X    ",
"    OX++ o.o  X     ",
"    .X++.X.o  X     ",
"    oX  XXX.+X.     ",
"    .   @.X++XO     ",
"          @  XO     ",
"            +.      ",
"            X       ",
"                    ",
"                    ",
"                    ",
"                    ",
"                    ",
"                    ",
"                    ",
"                    ",
"          X         ",
"         X          ",
"        X           ",
"      OX            ",
"     OX+            ",
"     X++o.+    X    ",
"    X  @.X.   X     ",
"       oX.o  X      ",
"        o@++X       ",
"          +XO       ",
"          XO        ",
"         X          ",
"                    ",
"                    ",
"                    ",
"                    ",
"                    ",
"                    ",
"                    ",
"                    ",
"                    ",
"            +.      ",
"       OO.XX        ",
"      .XXX          ",
"     Xo ++          ",
"        +.oo        ",
"       @XX..o       ",
"        .XXo        ",
"        @X.     .   ",
"          ++  .+    ",
"          ++XX      ",
"         XXXO.      ",
"        .o.O        ",
"                    ",
"                    ",
"                    ",
"                    ",
"                    ",
"                    ",
"                    ",
"                    ",
"       .OO.         ",
"     .XXXXXXXX.     ",
"        ++          ",
"        ++          ",
"       @X.o         ",
"       .XX.o        ",
"       @X.o         ",
"        ++          ",
"        ++          ",
"     .XXXXXXXX.     ",
"       .OO.         ",
"                    ",
"                    ",
"                    ",
"                    ",
"                    ",
"                    ",
"                    ",
"                    ",
"                    ",
"        .o.O        ",
"         XXXO.      ",
"          ++XX      ",
"          ++  XX    ",
"        @X.     .   ",
"        .XXo        ",
"       @XX..o       ",
"        +.oo        ",
"     X+ ++          ",
"      .XXX          ",
"       OO.XX        ",
"            X.      ",
"                    ",
"                    ",
"                    ",
"                    ",
"                    ",
"                    ",
"                    ",
"                    ",
"          X         ",
"           XO       ",
"           +XO      ",
"         o@++X      ",
"        oX.o  X     ",
"     X  @.X.   X    ",
"      X++o.+    X   ",
"      OX+           ",
"       OX           ",
"         X          ",
"          X         ",
"           X        ",
"                    ",
"                    ",
"                    ",
"                    ",
"                    ",
"                    ",
"                    ",
"                    ",
"                    ",
"            X       ",
"            o.      ",
"          @  XO     ",
"    .   @.X++XO     ",
"    oX  XXX.+X.     ",
"    .X++.X.o  X     ",
"    OX++ o.o  X     ",
"     OX   o    +    ",
"     .X        .    ",
"       .            ",
"       +            ",
"        .           ",
"                    ",
"                    ",
"                    ",
"                    ",
"                    ",
"                    ",
"                    ",
"                    ",
"      .       .     ",
"      X       X     ",
"     .X  @.@  X.    ",
"     OX++XXX++XO    ",
"     OX++.X.++XO    ",
"     .X  o.o  X.    ",
"      X   o   X     ",
"      X       X     ",
"      X       X     ",
"      .       .     ",
"                    ",
"                    ",
"                    ",
"                    ",
"                    ",
"                    ",
"                    ",
"                    ",
"                    ",
"                    ",
"       X            ",
"      .+            ",
"     OX  @          ",
"     OX++X.@   .    ",
"     .X+.XXX  Xo    ",
"     X  o.X.++X.    ",
"     X  o.o ++XO    ",
"    X    o   XO     ",
"    .        X.     ",
"            X       ",
"            X       ",
"           .        ",
"                    ",
"                    ",
"                    ",
"                    ",
"                    ",
"                    ",
"                    ",
"                    ",
"          X         ",
"        OX          ",
"       OX+          ",
"       X++@o        ",
"      X  o.Xo       ",
"     X   .X.@  X    ",
"    X    +.o++X     ",
"            +XO     ",
"            XO      ",
"           X        ",
"          X         ",
"         X          ",
"                    ",
"                    ",
"                    ",
"                    ",
"                    ",
"                    ",
"                    ",
"        O.o.        ",
"      .OXXX         ",
"      XX++          ",
"    +.  ++          ",
"   .     .X@        ",
"        oXX.        ",
"       o..XX@       ",
"        oo.+        ",
"          ++ oX     ",
"          XXX.      ",
"        XX.OO       ",
"      .+            ",
"                    ",
"                    ",
"                    ",
"                    ",
"                    ",
"                    ",
"                    ",
"                    ",
"                    ",
"         .OO.       ",
"     .XXXXXXXX.     ",
"          ++        ",
"          ++        ",
"         o.X@       ",
"        o.XX.       ",
"         o.X@       ",
"          ++        ",
"          ++        ",
"     .XXXXXXXX.     ",
"         .OO.       ",
"                    ",
"                    ",
"                    ",
"                    ",
"                    ",
"                    ",
"                    ",
"                    ",
"      .X            ",
"        XX.OO       ",
"          XXX.      ",
"          ++ +X     ",
"        oo.+        ",
"       o..XX@       ",
"        oXX.        ",
"   .     .X@        ",
"    XX  ++          ",
"      XX++          ",
"      .OXXX         ",
"        O.o.        ",
"                    ",
"                    ",
"                    ",
"                    ",
"                    ",
"                    ",
"                    ",
"                    ",
"        X           ",
"         X          ",
"          X         ",
"           XO       ",
"           +XO      ",
"   X    +.o++X      ",
"    X   .X.@  X     ",
"     X  o.Xo        ",
"      X++@o         ",
"      OX+           ",
"       OX           ",
"         X          ",
"                    ",
"                    ",
"                    ",
"                    ",
"                    ",
"                    ",
"                    ",
"           .        ",
"            +       ",
"            .       ",
"    .        X.     ",
"    +    o   XO     ",
"     X  o.o ++XO    ",
"     X  o.X.++X.    ",
"     .X+.XXX  Xo    ",
"     OX++X.@   .    ",
"     OX  @          ",
"      .o            ",
"       X            ",
"                    ",
"                    ",
"                    ",
"                    ",
"                    "};
