/* XPM */
static char * C4_xpm[] = {
"20 320 7 1",
" 	c None",
".	c #A1A1A1",
"X	c #B0B0B0",
"o	c #C1C1C1",
"O	c #909090",
"+	c #00FF00",
"@	c #FF0000",
"                    ",
"         ...        ",
"        .XoX.       ",
"        .XoX.       ",
"         OOO        ",
"        .XoX.       ",
"        .XoX.       ",
"        .XoX.       ",
"         OOO        ",
"     O  .XoX.  O    ",
"     OO.XXoXX.OO    ",
"     +O.XXoXX.O+    ",
"     OO.XXoXX.OO    ",
"     OO.XXoXX.OO    ",
"     +  .XoX.  +    ",
"     +  .XoX.  +    ",
"     O   @@@   O    ",
"     O         O    ",
"                    ",
"                    ",
"                    ",
"            O..     ",
"           .XoX.    ",
"            XoX.    ",
"           OOOX.    ",
"          .XoX      ",
"          .XoX.     ",
"      O   OoX..     ",
"      OO .XOO.      ",
"     +O.XXooX       ",
"     OO.XXoXX       ",
"    +O..XXoXX.OOO   ",
"    +  XXoXXX.OO    ",
"   OO  .XoXX.OO+    ",
"   O   XooX..OO     ",
"       @@X.  O+     ",
"         @   +      ",
"             O      ",
"            O       ",
"                    ",
"                    ",
"                    ",
"                    ",
"             .X.    ",
"             Xoo.   ",
"           .XOooX   ",
"      .O  .XooOX.   ",
"     +O.  XoooX     ",
"    OO..XXOooX.     ",
"   +O..XXooOX.      ",
"  +  .XXooo.        ",
" O   .XoooXX        ",
"    .XoooXX..O      ",
"    @oooXX..O.      ",
"     @XX...O+       ",
"      @.  OO        ",
"          +         ",
"         +          ",
"        O           ",
"                    ",
"                    ",
"                    ",
"                    ",
"                    ",
"                    ",
"       +OO     ...  ",
"     OOOO    .O.XX. ",
"   ++OO... O.XXOoo. ",
" OO   ..XXXOXooO.X. ",
"     OXXXXooOXX.O.  ",
"    .XXXoooXO..O    ",
"    @XooXXX.O       ",
"    @oXXXXX.        ",
"     @..X..O        ",
"        .OOOOO      ",
"         OO+        ",
"       ++           ",
"     OO             ",
"                    ",
"                    ",
"                    ",
"                    ",
"                    ",
"                    ",
"                    ",
"  OO++OO+OO         ",
"      OOOO          ",
"      ....          ",
"    ..XXXX. ... ..  ",
"   @XXXXXXXOXXXOXX. ",
"   @oooooooOoooOoo. ",
"   @XXXXXXXOXXXOXX. ",
"    ..XXXX. ... ..  ",
"      ....          ",
"      OOOO          ",
"  OO++OO+OO         ",
"                    ",
"                    ",
"                    ",
"                    ",
"                    ",
"                    ",
"                    ",
"     OO             ",
"      O++           ",
"        OO+         ",
"        .OOOO       ",
"    @X.X...O        ",
"    @oXXXXX         ",
"   @XoooXXX.        ",
"    .XXXoooXO..     ",
"     .XXXXoOoXXO .  ",
" O   ..XXXXOXooOXXO ",
"  O+OOO..  ..XXOoo. ",
"    +OOOO   .. XXX. ",
"      +OO      ...  ",
"        O           ",
"                    ",
"                    ",
"                    ",
"                    ",
"        O           ",
"         +          ",
"          +         ",
"      @.  OO        ",
"     @oX...O+       ",
"    @XooXX..O.      ",
"    .XoooXX..O      ",
" O   .XoooXX        ",
"  +  .XXoooX        ",
"   +O..XXooOX.      ",
"    OO..X.OooX.     ",
"     +O.  XoooX     ",
"      .O  .XooOX.   ",
"           .XOooX   ",
"             Xoo.   ",
"             .X.    ",
"                    ",
"                    ",
"                    ",
"                    ",
"           O        ",
"           O        ",
"            +       ",
"       @@.  +       ",
"  O   @oXXO OO      ",
"  O   .XoXX.OO      ",
"   +  .XoXX..O+     ",
"   + .XXXoXX.OO     ",
"    OO.XXoXX. O     ",
"    OO.XXooX        ",
"    +OO..XoOO       ",
"     O  OOOX.       ",
"     O   .XoX.      ",
"         .XoXO      ",
"         O.OO..     ",
"          O.oX.     ",
"          .XoX.     ",
"           ...      ",
"                    ",
"                    ",
"                    ",
"    O         O     ",
"    O   @@@   O     ",
"    +  .XoX.  +     ",
"    +  .XoX.  +     ",
"    OO.XXoXX.OO     ",
"    OO.XXoXX.OO     ",
"    +O.XXoXX.O+     ",
"    OO.XXoXX.OO     ",
"    O  .XoX.  O     ",
"        OOO         ",
"       .XoX.        ",
"       .XoX.        ",
"       .XoX.        ",
"        OOO         ",
"       .XoX.        ",
"       .XoX.        ",
"        ...         ",
"                    ",
"                    ",
"       O            ",
"      O             ",
"      +   @         ",
"     +O  .X@@       ",
"     OO..XooX       ",
"    +OO.XXoX.   O   ",
"    OO.XXXoXX  +    ",
"   OOO.XXoXX..O+    ",
"       XXoXX.OO     ",
"       XooXX.O+     ",
"      .OOX. OO      ",
"     ..XoO   O      ",
"     .XoX.          ",
"      XoX.          ",
"    .XOOO           ",
"    .XoX            ",
"    .XoX.           ",
"     ..O            ",
"                    ",
"                    ",
"           O        ",
"          +         ",
"         +          ",
"        OO  .@      ",
"       +O...XX@     ",
"      .O..XXooo@    ",
"      O..XXoooX.    ",
"        XXoooX.   O ",
"        .oooXX.  +  ",
"      .XOooXX..O+   ",
"     .XooOXX..OO    ",
"     XoooX  .O+     ",
"   .XOooX.  O.      ",
"   XooOX.           ",
"   .ooX             ",
"    .X.             ",
"                    ",
"                    ",
"                    ",
"                    ",
"                    ",
"             OO     ",
"           ++       ",
"        +OO         ",
"      OOOOO.        ",
"        O..X..@     ",
"        .XXXXXo@    ",
"       O.XXXooX@    ",
"    O..OXoooXXX.    ",
"  .O.XXOooXXXXO     ",
" .X.OooXOXXX..   OO ",
" .ooOXX.O ...OO++   ",
" .XX.O.    OOOO     ",
"  ...     OO+       ",
"                    ",
"                    ",
"                    ",
"                    ",
"                    ",
"                    ",
"                    ",
"                    ",
"                    ",
"         OO+OO++OO  ",
"          OOOO      ",
"          ....      ",
"  .. ... .XXXX..    ",
" .XXOXXXOXXXXXXX@   ",
" .ooOoooOooooooo@   ",
" .XXOXXXOXXXXXXX@   ",
"  .. ... .XXXX..    ",
"          ....      ",
"          OOOO      ",
"         OO+OO++OO  ",
"                    ",
"                    ",
"                    ",
"                    ",
"                    ",
"                    ",
"                    ",
"                    ",
"           O        ",
"  ...      OO+      ",
" .XXX ..   OOOO+    ",
" .ooOXX..  ..OOO+O  ",
" OXXOooXOXXXX..   O ",
"  . OXXoOoXXXX.     ",
"     ..OXoooXXX.    ",
"        .XXXoooX@   ",
"         XXXXXo@    ",
"        O...X.X@    ",
"       OOOO.        ",
"         +OO        ",
"           ++       ",
"             O      ",
"                    ",
"                    ",
"                    ",
"                    ",
"                    ",
"                    ",
"    .X.             ",
"   .ooX             ",
"   XooOX.           ",
"   .XOooX.  O.      ",
"     XoooX  .O+     ",
"     .XooO.X..OO    ",
"      .XOooXX..O+   ",
"        XoooXX.  +  ",
"        XXoooX.   O ",
"      O..XXoooX.    ",
"      .O..XXooX@    ",
"       +O...Xo@     ",
"        OO  .@      ",
"         +          ",
"          +         ",
"           O        ",
"                    ",
"                    ",
"      ...           ",
"     .XoX.          ",
"     .Xo.O          ",
"     ..OO.O         ",
"      OXoX.         ",
"      .XoX.   O     ",
"       .XOOO  O     ",
"       OOoX..OO+    ",
"        XooXX.OO    ",
"     O .XXoXX.OO    ",
"     OO.XXoXXX. +   ",
"     +O..XXoX.  +   ",
"      OO.XXoX.   O  ",
"      OO OXXo@   O  ",
"       +  .@@       ",
"       +            ",
"        O           ",
"        O           ",
"                    "};
