/* XPM */
static char * C3_xpm[] = {
"20 320 7 1",
" 	c None",
".	c #A1A1A1",
"X	c #B0B0B0",
"o	c #C1C1C1",
"O	c #909090",
"+	c #00FF00",
"@	c #B00000",
"                    ",
"         . .        ",
"        .X X.       ",
"        .o o.       ",
"        Xo.oX       ",
"        .ooo.       ",
"        O.X.O       ",
"         OXO        ",
"         OXO        ",
"     O  OOXOO  O    ",
"     + O.XXX.O +    ",
"     +..XXOXX..+    ",
"     O..XoOoX..O    ",
"     OOOXo+oXOOO    ",
"     +  Xo+oX  +    ",
"     O   @+@   O    ",
"     O    O    O    ",
"          O         ",
"                    ",
"                    ",
"                    ",
"            O.      ",
"           O.O .    ",
"           .o O.    ",
"          OXoXoO    ",
"          O.ooX     ",
"      O   O.X.O     ",
"      +   OX.O      ",
"     +O O.OXO       ",
"     +...XX.O       ",
"    OO..XXOX.  O    ",
"    +OOXooOX.O +    ",
"    O  Xo+oX..O+    ",
"   O   @X+oXO.+     ",
"        +@  OOO     ",
"        O    +      ",
"       O     O      ",
"            O       ",
"                    ",
"                    ",
"                    ",
"                    ",
"              O.O   ",
"             O.O O  ",
"            OXo O.  ",
"       O    .ooo.O  ",
"      +    OOXoXO   ",
"     +....OOXO.O    ",
"    OOO.XX.XOO      ",
"   +  .XXXX.O       ",
"  O   XooOXX.       ",
"      oo+oXX.       ",
"      @+ooX.. O     ",
"      O@oX.O.+      ",
"     O     O+       ",
"           O        ",
"          +         ",
"         O          ",
"                    ",
"                    ",
"                    ",
"                    ",
"                    ",
"                    ",
"       ++O     O..  ",
"     O+O     OXoO   ",
"   O+O..O   O.oO O. ",
"  O  OO...OO.XoooXO ",
"      XXXX.XX..X.O  ",
"      ooOOXOOOOO    ",
"     @++oXXOO       ",
"    O+XooX.O        ",
"   O  @XX..         ",
"        O..O+O      ",
"        OO++        ",
"       O+O          ",
"      O             ",
"                    ",
"                    ",
"                    ",
"                    ",
"                    ",
"                    ",
"                    ",
"                    ",
"   OO+OO++O         ",
"      O..           ",
"      O..O          ",
"     XXXX.O  O.X..  ",
"    @oooXXOOO.oooX. ",
"  OO+++OOXXXXXo.    ",
"    @oooXXOOO.oooX. ",
"     XXXX.O  O.X..  ",
"      O..O          ",
"      O..           ",
"   OO+OO++O         ",
"                    ",
"                    ",
"                    ",
"                    ",
"                    ",
"                    ",
"                    ",
"      O             ",
"       O+O          ",
"        OO++        ",
"        O..O+O      ",
"   O  @XX..         ",
"    O+XooX.O        ",
"     @++oXX.        ",
"      ooOOXOOOOO    ",
"      XXXX.XX..X.O  ",
"  O  OO...OO.Xooo.O ",
"   O+O..O   O.oX O. ",
"     O+O     OXoO   ",
"       ++O     O..  ",
"                    ",
"                    ",
"                    ",
"                    ",
"                    ",
"                    ",
"         O          ",
"          +         ",
"           O        ",
"     O     O+       ",
"      O@oX.O.+      ",
"      @+ooX.. O     ",
"      oo+oXX.       ",
"  O   XooOXX.       ",
"   +  .XXXX.O       ",
"    OOO.XX.XOO      ",
"     +....OOXO.O    ",
"      +    OOXoXO   ",
"       O    .ooo.O  ",
"            OXo O.  ",
"             O.O O  ",
"              O.O   ",
"                    ",
"                    ",
"                    ",
"                    ",
"            O       ",
"       O     O      ",
"        O    +      ",
"        +@  OOO     ",
"   O   @X+oXO.+     ",
"    O  Xo+oX..O+    ",
"    +OOXooOX.O +    ",
"    OO..XXOX.  O    ",
"     +...XX.O       ",
"     +O OOOXO       ",
"      +  OOX.O      ",
"      O   O.X.O     ",
"          O.ooX     ",
"          OXoOoO    ",
"           .o O.    ",
"           OXO .    ",
"            O.      ",
"                    ",
"                    ",
"                    ",
"         O          ",
"    O    O    O     ",
"    O   @+@   O     ",
"    +  Xo+oX  +     ",
"    OOOXo+oXOOO     ",
"    O..XoOoX..O     ",
"    +..XXOXX..+     ",
"    + O.XXX.O +     ",
"    O  OOXOO  O     ",
"        OXO         ",
"        OXO         ",
"       O.X.O        ",
"       .ooo.        ",
"       Xo.oX        ",
"       .o o.        ",
"       .X X.        ",
"        . .         ",
"                    ",
"                    ",
"                    ",
"       O            ",
"      O     O       ",
"      +    O        ",
"     OOO  @+        ",
"     +.OXo+X@   O   ",
"    +O..Xo+oX  O    ",
"    + O.XOooXOO+    ",
"    O  .XOXX..OO    ",
"       O.XX...+     ",
"       OXO.O O+     ",
"      O.XO   +      ",
"     O.X.O   O      ",
"     Xoo.O          ",
"    OoXoXO          ",
"    .O o.           ",
"    . O.O           ",
"      .O            ",
"                    ",
"                    ",
"                    ",
"          O         ",
"         +          ",
"        O           ",
"       +O     O     ",
"      +.O.Xo@O      ",
"     O ..Xoo+@      ",
"       .XXo+oo      ",
"       .XXOooX   O  ",
"       O.XXXX.  +   ",
"      OOX.XX.OOO    ",
"    O.OXOO....+     ",
"   OXoXOO    +      ",
"  O.ooo.    O       ",
"  .O oXO            ",
"  O O.O             ",
"   O.O              ",
"                    ",
"                    ",
"                    ",
"                    ",
"                    ",
"             O      ",
"          O+O       ",
"        ++OO        ",
"      O+O..O        ",
"         ..XX@  O   ",
"        O.XooX+O    ",
"       OOXXo++@     ",
"    OOOOOXOOoo      ",
"  O.X..XX.XXXX      ",
" OXoooX.OO...OO  O  ",
" .O Oo.O   O..O+O   ",
"   OoXO     O+O     ",
"  ..O     O++       ",
"                    ",
"                    ",
"                    ",
"                    ",
"                    ",
"                    ",
"                    ",
"                    ",
"         O++OO+OO   ",
"           ..O      ",
"          O..O      ",
"  ..X.O  O.XXXX     ",
" .Xooo.OOOXXooo@    ",
"    .oXXXXXOO+++OO  ",
" .Xooo.OOOXXooo@    ",
"  ..X.O  O.XXXX     ",
"          O..O      ",
"           ..O      ",
"         O++OO+OO   ",
"                    ",
"                    ",
"                    ",
"                    ",
"                    ",
"                    ",
"                    ",
"                    ",
"                    ",
"  ..O     O++       ",
"   OoXO     O+O     ",
" .O Xo.O   O..O+O   ",
" O.oooX.OO...OO  O  ",
"  O.X..XX.XXXX      ",
"    OOOOOXOOoo      ",
"        .XXo++@     ",
"        O.XooX+O    ",
"         ..XX@  O   ",
"      O+O..O        ",
"        ++OO        ",
"          O+O       ",
"             O      ",
"                    ",
"                    ",
"                    ",
"                    ",
"                    ",
"   O.O              ",
"  O O.O             ",
"  .O oXO            ",
"  O.ooo.    O       ",
"   OXoXOO    +      ",
"    O.OXOO....+     ",
"      OOX.XX.OOO    ",
"       O.XXXX.  +   ",
"       .XXOooX   O  ",
"       .XXo+oo      ",
"     O ..Xoo+@      ",
"      +.O.Xo@O      ",
"       +O     O     ",
"        O           ",
"         +          ",
"          O         ",
"                    ",
"                    ",
"                    ",
"      .O            ",
"    . OXO           ",
"    .O o.           ",
"    OoOoXO          ",
"     Xoo.O          ",
"     O.X.O   O      ",
"      O.XOO  +      ",
"       OXOOO O+     ",
"       O.XX...+     ",
"    O  .XOXX..OO    ",
"    + O.XOooXOO+    ",
"    +O..Xo+oX  O    ",
"     +.OXo+X@   O   ",
"     OOO  @+        ",
"      +    O        ",
"      O     O       ",
"       O            ",
"                    ",
"                    "};
