/* XPM */
static char * C2_xpm[] = {
"20 320 9 1",
" 	c None",
".	c #B0B0B0",
"X	c #C1C1C1",
"o	c #A1A1A1",
"O	c #D0D0D0",
"+	c #909090",
"@	c #00FF00",
"#	c #FF0000",
"$	c #B00000",
"                    ",
"                    ",
"         .X.        ",
"        o.O.o       ",
"         o.o        ",
"          o         ",
"          o         ",
"          o         ",
"          o         ",
"          o         ",
"     +   ...   +    ",
"     +oo.....oo+    ",
"     @oo.XXX.oo@    ",
"     @oo.XXX.oo@    ",
"     @ o.XXX.o @    ",
"     +   +#+   +    ",
"     +         +    ",
"                    ",
"                    ",
"                    ",
"                    ",
"                    ",
"             +      ",
"            +.X.    ",
"            +.O.+   ",
"             o+o    ",
"             o      ",
"            o       ",
"            o       ",
"      o    o        ",
"     @oo++++        ",
"     @oo....        ",
"    @ooo.X...       ",
"    + o.XXX..oo+    ",
"   +   .XXX.oo@     ",
"       +$#X.oo@     ",
"         +   @      ",
"             +      ",
"            +       ",
"                    ",
"                    ",
"                    ",
"                    ",
"             ++     ",
"             .XX    ",
"             .OX+   ",
"             ...+   ",
"     .      .       ",
"    @o+    .        ",
"   @ooo.o+.         ",
"  @ +o....+         ",
" +   .XX..o         ",
"     +XXX..         ",
"     $oXX.o+        ",
"      $+.ooo.       ",
"         +o@        ",
"          @         ",
"         @          ",
"        +           ",
"                    ",
"                    ",
"                    ",
"                    ",
"                    ",
"                +   ",
"       ++      o..  ",
"     @@o       +OX  ",
"   +@ooo+     o.o.+ ",
"  +  ooo.   oo  ++  ",
"     ......o        ",
"     +XXX.+         ",
"     #XXX.+         ",
"     $XX..+         ",
"      +..oo         ",
"       oooo++       ",
"         @@+        ",
"       +@           ",
"      +             ",
"                    ",
"                    ",
"                    ",
"                    ",
"                    ",
"                    ",
"                    ",
"   ++@@@++          ",
"      ooo           ",
"     oooo           ",
"     ....       o   ",
"    +XXX..     o..  ",
"    #XXX..ooooo.OX  ",
"    +XXX..     o..  ",
"     ....       o   ",
"     oooo           ",
"      ooo           ",
"   ++@@@++          ",
"                    ",
"                    ",
"                    ",
"                    ",
"                    ",
"                    ",
"                    ",
"     +              ",
"      +@            ",
"       o@@          ",
"      ooooo         ",
"    +..ooo          ",
"    $XX..+          ",
"   +#XXX.+          ",
"    XXX..+          ",
"    .....oo         ",
" +  oo..   oo  ++   ",
"  +@ooo      oo..+  ",
"    @@o       +OX   ",
"      +       o..   ",
"               +    ",
"                    ",
"                    ",
"                    ",
"                    ",
"        +           ",
"         @          ",
"          @         ",
"         +o@        ",
"      $+.ooo.       ",
"     $oXX.o+        ",
"     +XXX..         ",
" +   .XX..o         ",
"  @ +o....+         ",
"   @ooo.o+.         ",
"    @o+    .        ",
"     .      .       ",
"             ...+   ",
"             .OX+   ",
"             .XX    ",
"             ++     ",
"                    ",
"                    ",
"                    ",
"                    ",
"                    ",
"           +        ",
"            +       ",
"            @       ",
"       $#+.oo@      ",
"  +   +XXX.oo@      ",
"   + o.XXX.ooo+     ",
"   @ o..XX..+ +     ",
"    @oo....         ",
"    @oo+++.         ",
"    ++    o         ",
"     +     o        ",
"           o        ",
"            o       ",
"            ..o     ",
"           +oO.+    ",
"           +...     ",
"            +       ",
"                    ",
"                    ",
"                    ",
"                    ",
"    +         +     ",
"    +   +#+   +     ",
"    @ o.XXX.o @     ",
"    @oo.XXX.oo@     ",
"    @oo.XXX.oo@     ",
"    +oo.....oo+     ",
"    +   ...   +     ",
"         o          ",
"         o          ",
"         o          ",
"         o          ",
"         o          ",
"        o.o         ",
"       o.O.o        ",
"        .X.         ",
"                    ",
"                    ",
"                    ",
"       +            ",
"      +             ",
"      @   +         ",
"     @oo.X#$+       ",
"     @oo.XXX.   +   ",
"    +oo..XXX.o +    ",
"       ...X.ooo@    ",
"        ....oo@     ",
"        o+++oo@     ",
"        o    o      ",
"       o            ",
"       o            ",
"      o             ",
"    o+o             ",
"   +.O.+            ",
"    .X.+            ",
"      +             ",
"                    ",
"                    ",
"                    ",
"           +        ",
"          @         ",
"         @          ",
"        @o+         ",
"       .ooo.+$      ",
"        +o.XXo$     ",
"         ..XXX+     ",
"         o..XX.   + ",
"         +....o+ @  ",
"         .+o.ooo@   ",
"        .    +o@    ",
"       .      .     ",
"   +...             ",
"   +XO.             ",
"    XX.             ",
"     ++             ",
"                    ",
"                    ",
"                    ",
"                    ",
"                    ",
"             +      ",
"           @+       ",
"        +@@         ",
"       ++oooo       ",
"         oo..+      ",
"         +..XX$     ",
"         +.XXX#     ",
"         +.XXX+     ",
"        o......     ",
"  ++  oo   .ooo  +  ",
" +.o.o     +ooo@+   ",
"  .O.       o@@     ",
"  ..o      ++       ",
"   +                ",
"                    ",
"                    ",
"                    ",
"                    ",
"                    ",
"                    ",
"                    ",
"                    ",
"          ++@@@++   ",
"           ooo      ",
"           oooo     ",
"   o       ....     ",
"  ..o     ..XXX+    ",
"  XO.ooooo..XXX#    ",
"  ..o     ..XXX+    ",
"   o       ....     ",
"           oooo     ",
"           ooo      ",
"          ++@@@++   ",
"                    ",
"                    ",
"                    ",
"                    ",
"                    ",
"                    ",
"                    ",
"                    ",
"    +               ",
"   ..o       +      ",
"   XO+       o@@    ",
"  +..oo      ooo@+  ",
"   ++  oo   ..oo  + ",
"         oo.....    ",
"          +..XXX    ",
"          +.XXX#+   ",
"          +..XX$    ",
"          ooo..+    ",
"         ooooo      ",
"          @@o       ",
"            @+      ",
"              +     ",
"                    ",
"                    ",
"                    ",
"                    ",
"                    ",
"                    ",
"     ++             ",
"    XX.             ",
"   +XO.             ",
"   +...             ",
"       .      .     ",
"        .    +o@    ",
"         .+o.ooo@   ",
"         +....o+ @  ",
"         o..XX.   + ",
"         ..XXX+     ",
"        +o.XXo$     ",
"       .ooo.+$      ",
"        @o+         ",
"         @          ",
"          @         ",
"           +        ",
"                    ",
"                    ",
"       +            ",
"     ...+           ",
"    +.Oo+           ",
"     o..            ",
"       o            ",
"        o           ",
"        o     +     ",
"         o    ++    ",
"         .+++oo@    ",
"         ....oo@    ",
"     + +..XX..o @   ",
"     +ooo.XXX.o +   ",
"      @oo.XXX+   +  ",
"      @oo.+#$       ",
"       @            ",
"       +            ",
"        +           ",
"                    ",
"                    "};
