#define m1_width 16
#define m1_height 16
static unsigned char m1_bits[] = {
   0x00, 0x00, 0x00, 0x00, 0xa0, 0x02, 0x00, 0x00, 0xa8, 0x0a, 0x00, 0x00,
   0xa8, 0x0a, 0x00, 0x00, 0xa8, 0x0a, 0x00, 0x00, 0xa8, 0x0a, 0x00, 0x00,
   0xa0, 0x02, 0x00, 0x00, 0x00, 0x00, 0x00, 0x00};
