#define m2_width 16
#define m2_height 16
static unsigned char m2_bits[] = {
   0x00, 0x00, 0x40, 0x01, 0xa0, 0x02, 0x50, 0x05, 0xa8, 0x0a, 0x54, 0x15,
   0xaa, 0x2a, 0x54, 0x15, 0xaa, 0x2a, 0x54, 0x15, 0xa8, 0x0a, 0x50, 0x05,
   0xa0, 0x02, 0x40, 0x01, 0x00, 0x00, 0x00, 0x00};
