#define m3_width 16
#define m3_height 16
static unsigned char m3_bits[] = {
   0x00, 0x00, 0x50, 0x05, 0xf8, 0x0f, 0x54, 0x15, 0xfe, 0x3f, 0x54, 0x15,
   0xfe, 0x3f, 0x54, 0x15, 0xfe, 0x3f, 0x54, 0x15, 0xfe, 0x3f, 0x54, 0x15,
   0xf8, 0x0f, 0x50, 0x05, 0x00, 0x00, 0x00, 0x00};
