#define m4_width 16
#define m4_height 16
static unsigned char m4_bits[] = {
   0x00, 0x00, 0xf0, 0x07, 0xf8, 0x0f, 0xfc, 0x1f, 0xfe, 0x3f, 0xfe, 0x3f,
   0xfe, 0x3f, 0xfe, 0x3f, 0xfe, 0x3f, 0xfe, 0x3f, 0xfe, 0x3f, 0xfc, 0x1f,
   0xf8, 0x0f, 0xf0, 0x07, 0x00, 0x00, 0x00, 0x00};
