/* XPM */
static char * AT_xpm[] = {
"28 448 5 1",
" 	c None",
".	c #00A000",
"+	c #00FF00",
"@	c #007800",
"#	c #000000",
"          ........          ",
"       ......+.......       ",
"      .+.........+....      ",
"    .......+...........     ",
"   .....@@....... . .       ",
"   .+.@@#@@..+..   . . +    ",
"  ....@#@#@@..... .         ",
" ....@#@#@#@...... .        ",
" ..+..@#@#@..+...+.         ",
" ....@#@#@#@.. ... . .      ",
".....@@#@#@.. . . . .      .",
"......@##@@.......   . .  . ",
"....+..@@...+.. . . . .   ..",
".......................  ...",
".#.....+..+......+.... ....#",
"...#.....................#..",
".....#.#.#.........#.#.#....",
"..+........#.#.#.#..........",
" ...... ........... . ..  . ",
" ... . . ..... .. .   .   . ",
" .... ..  . . .     .     . ",
"  .. . . . .   . .          ",
"   ...... .   . .           ",
"   ..+.... ....        +    ",
"    ....+........           ",
"      .........  .   .      ",
"       ......+.... ..       ",
"          ........+         ",
"          ........          ",
"       ......+.......       ",
"      .+.........+....      ",
"    .......+...........     ",
"   .....@@....... . .       ",
"   .+.@@#@@..+..   . . +    ",
"  ....@#@#@@..... .         ",
" ....@#@#@#@...... .        ",
" ..+..@#@#@..+...+.         ",
" ....@#@#@#@.. ... . .      ",
".....@@#@#@.. . . . .      .",
"......@##@@.......   . .  . ",
"....+..@@...+.. . . . .   ..",
".......................  ...",
".#.....+..+......+.... ....#",
"...#.....................#..",
".....#.#.#.........#.#.#....",
"..+........#.#.#.#..........",
" ...... ........... . ..  . ",
" ... . . ..... .. .   .   . ",
" .... ..  . . .     .     . ",
"  .. . . . .   . .          ",
"   ...... .   . .           ",
"   ..+.... ....        +    ",
"    ....+........           ",
"      .........  .   .      ",
"       ......+.... ..       ",
"          ........+         ",
"          ........          ",
"       ......+.......       ",
"      .+.........+....      ",
"    .......+...........     ",
"   .....@@....... . .       ",
"   .+.@@#@@..+..   . . +    ",
"  ....@#@#@@..... .         ",
" ....@#@#@#@...... .        ",
" ..+..@#@#@..+...+.         ",
" ....@#@#@#@.. ... . .      ",
".....@@#@#@.. . . . .      .",
"......@##@@.......   . .  . ",
"....+..@@...+.. . . . .   ..",
".......................  ...",
".#.....+..+......+.... ....#",
"...#.....................#..",
".....#.#.#.........#.#.#....",
"..+........#.#.#.#..........",
" ...... ........... . ..  . ",
" ... . . ..... .. .   .   . ",
" .... ..  . . .     .     . ",
"  .. . . . .   . .          ",
"   ...... .   . .           ",
"   ..+.... ....        +    ",
"    ....+........           ",
"      .........  .   .      ",
"       ......+.... ..       ",
"          ........+         ",
"          ........          ",
"       ......+.......       ",
"      .+.........+....      ",
"    .......+...........     ",
"   .....@@....... . .       ",
"   .+.@@#@@..+..   . . +    ",
"  ....@#@#@@..... .         ",
" ....@#@#@#@...... .        ",
" ..+..@#@#@..+...+.         ",
" ....@#@#@#@.. ... . .      ",
".....@@#@#@.. . . . .      .",
"......@##@@.......   . .  . ",
"....+..@@...+.. . . . .   ..",
".......................  ...",
".#.....+..+......+.... ....#",
"...#.....................#..",
".....#.#.#.........#.#.#....",
"..+........#.#.#.#..........",
" ...... ........... . ..  . ",
" ... . . ..... .. .   .   . ",
" .... ..  . . .     .     . ",
"  .. . . . .   . .          ",
"   ...... .   . .           ",
"   ..+.... ....        +    ",
"    ....+........           ",
"      .........  .   .      ",
"       ......+.... ..       ",
"          ........+         ",
"          ........          ",
"       ......+.......       ",
"      .+.........+....      ",
"    .......+...........     ",
"   .....@@....... . .       ",
"   .+.@@#@@..+..   . . +    ",
"  ....@#@#@@..... .         ",
" ....@#@#@#@...... .        ",
" ..+..@#@#@..+...+.         ",
" ....@#@#@#@.. ... . .      ",
".....@@#@#@.. . . . .      .",
"......@##@@.......   . .  . ",
"....+..@@...+.. . . . .   ..",
".......................  ...",
".#.....+..+......+.... ....#",
"...#.....................#..",
".....#.#.#.........#.#.#....",
"..+........#.#.#.#..........",
" ...... ........... . ..  . ",
" ... . . ..... .. .   .   . ",
" .... ..  . . .     .     . ",
"  .. . . . .   . .          ",
"   ...... .   . .           ",
"   ..+.... ....        +    ",
"    ....+........           ",
"      .........  .   .      ",
"       ......+.... ..       ",
"          ........+         ",
"          ........          ",
"       ......+.......       ",
"      .+.........+....      ",
"    .......+...........     ",
"   .....@@....... . .       ",
"   .+.@@#@@..+..   . . +    ",
"  ....@#@#@@..... .         ",
" ....@#@#@#@...... .        ",
" ..+..@#@#@..+...+.         ",
" ....@#@#@#@.. ... . .      ",
".....@@#@#@.. . . . .      .",
"......@##@@.......   . .  . ",
"....+..@@...+.. . . . .   ..",
".......................  ...",
".#.....+..+......+.... ....#",
"...#.....................#..",
".....#.#.#.........#.#.#....",
"..+........#.#.#.#..........",
" ...... ........... . ..  . ",
" ... . . ..... .. .   .   . ",
" .... ..  . . .     .     . ",
"  .. . . . .   . .          ",
"   ...... .   . .           ",
"   ..+.... ....        +    ",
"    ....+........           ",
"      .........  .   .      ",
"       ......+.... ..       ",
"          ........+         ",
"          ........          ",
"       ......+.......       ",
"      .+.........+....      ",
"    .......+...........     ",
"   .....@@....... . .       ",
"   .+.@@#@@..+..   . . +    ",
"  ....@#@#@@..... .         ",
" ....@#@#@#@...... .        ",
" ..+..@#@#@..+...+.         ",
" ....@#@#@#@.. ... . .      ",
".....@@#@#@.. . . . .      .",
"......@##@@.......   . .  . ",
"....+..@@...+.. . . . .   ..",
".......................  ...",
".#.....+..+......+.... ....#",
"...#.....................#..",
".....#.#.#.........#.#.#....",
"..+........#.#.#.#..........",
" ...... ........... . ..  . ",
" ... . . ..... .. .   .   . ",
" .... ..  . . .     .     . ",
"  .. . . . .   . .          ",
"   ...... .   . .           ",
"   ..+.... ....        +    ",
"    ....+........           ",
"      .........  .   .      ",
"       ......+.... ..       ",
"          ........+         ",
"          ........          ",
"       ......+.......       ",
"      .+.........+....      ",
"    .......+...........     ",
"   .....@@....... . .       ",
"   .+.@@#@@..+..   . . +    ",
"  ....@#@#@@..... .         ",
" ....@#@#@#@...... .        ",
" ..+..@#@#@..+...+.         ",
" ....@#@#@#@.. ... . .      ",
".....@@#@#@.. . . . .      .",
"......@##@@.......   . .  . ",
"....+..@@...+.. . . . .   ..",
".......................  ...",
".#.....+..+......+.... ....#",
"...#.....................#..",
".....#.#.#.........#.#.#....",
"..+........#.#.#.#..........",
" ...... ........... . ..  . ",
" ... . . ..... .. .   .   . ",
" .... ..  . . .     .     . ",
"  .. . . . .   . .          ",
"   ...... .   . .           ",
"   ..+.... ....        +    ",
"    ....+........           ",
"      .........  .   .      ",
"       ......+.... ..       ",
"          ........+         ",
"          ........          ",
"       ......+.......       ",
"      .+.........+....      ",
"    .......+...........     ",
"   .....@@....... . .       ",
"   .+.@@#@@..+..   . . +    ",
"  ....@#@#@@..... .         ",
" ....@#@#@#@...... .        ",
" ..+..@#@#@..+...+.         ",
" ....@#@#@#@.. ... . .      ",
".....@@#@#@.. . . . .      .",
"......@##@@.......   . .  . ",
"....+..@@...+.. . . . .   ..",
".......................  ...",
".#.....+..+......+.... ....#",
"...#.....................#..",
".....#.#.#.........#.#.#....",
"..+........#.#.#.#..........",
" ...... ........... . ..  . ",
" ... . . ..... .. .   .   . ",
" .... ..  . . .     .     . ",
"  .. . . . .   . .          ",
"   ...... .   . .           ",
"   ..+.... ....        +    ",
"    ....+........           ",
"      .........  .   .      ",
"       ......+.... ..       ",
"          ........+         ",
"          ........          ",
"       ......+.......       ",
"      .+.........+....      ",
"    .......+...........     ",
"   .....@@....... . .       ",
"   .+.@@#@@..+..   . . +    ",
"  ....@#@#@@..... .         ",
" ....@#@#@#@...... .        ",
" ..+..@#@#@..+...+.         ",
" ....@#@#@#@.. ... . .      ",
".....@@#@#@.. . . . .      .",
"......@##@@.......   . .  . ",
"....+..@@...+.. . . . .   ..",
".......................  ...",
".#.....+..+......+.... ....#",
"...#.....................#..",
".....#.#.#.........#.#.#....",
"..+........#.#.#.#..........",
" ...... ........... . ..  . ",
" ... . . ..... .. .   .   . ",
" .... ..  . . .     .     . ",
"  .. . . . .   . .          ",
"   ...... .   . .           ",
"   ..+.... ....        +    ",
"    ....+........           ",
"      .........  .   .      ",
"       ......+.... ..       ",
"          ........+         ",
"          ........          ",
"       ......+.......       ",
"      .+.........+....      ",
"    .......+...........     ",
"   .....@@....... . .       ",
"   .+.@@#@@..+..   . . +    ",
"  ....@#@#@@..... .         ",
" ....@#@#@#@...... .        ",
" ..+..@#@#@..+...+.         ",
" ....@#@#@#@.. ... . .      ",
".....@@#@#@.. . . . .      .",
"......@##@@.......   . .  . ",
"....+..@@...+.. . . . .   ..",
".......................  ...",
".#.....+..+......+.... ....#",
"...#.....................#..",
".....#.#.#.........#.#.#....",
"..+........#.#.#.#..........",
" ...... ........... . ..  . ",
" ... . . ..... .. .   .   . ",
" .... ..  . . .     .     . ",
"  .. . . . .   . .          ",
"   ...... .   . .           ",
"   ..+.... ....        +    ",
"    ....+........           ",
"      .........  .   .      ",
"       ......+.... ..       ",
"          ........+         ",
"          ........          ",
"       ......+.......       ",
"      .+.........+....      ",
"    .......+...........     ",
"   .....@@....... . .       ",
"   .+.@@#@@..+..   . . +    ",
"  ....@#@#@@..... .         ",
" ....@#@#@#@...... .        ",
" ..+..@#@#@..+...+.         ",
" ....@#@#@#@.. ... . .      ",
".....@@#@#@.. . . . .      .",
"......@##@@.......   . .  . ",
"....+..@@...+.. . . . .   ..",
".......................  ...",
".#.....+..+......+.... ....#",
"...#.....................#..",
".....#.#.#.........#.#.#....",
"..+........#.#.#.#..........",
" ...... ........... . ..  . ",
" ... . . ..... .. .   .   . ",
" .... ..  . . .     .     . ",
"  .. . . . .   . .          ",
"   ...... .   . .           ",
"   ..+.... ....        +    ",
"    ....+........           ",
"      .........  .   .      ",
"       ......+.... ..       ",
"          ........+         ",
"          ........          ",
"       ......+.......       ",
"      .+.........+....      ",
"    .......+...........     ",
"   .....@@....... . .       ",
"   .+.@@#@@..+..   . . +    ",
"  ....@#@#@@..... .         ",
" ....@#@#@#@...... .        ",
" ..+..@#@#@..+...+.         ",
" ....@#@#@#@.. ... . .      ",
".....@@#@#@.. . . . .      .",
"......@##@@.......   . .  . ",
"....+..@@...+.. . . . .   ..",
".......................  ...",
".#.....+..+......+.... ....#",
"...#.....................#..",
".....#.#.#.........#.#.#....",
"..+........#.#.#.#..........",
" ...... ........... . ..  . ",
" ... . . ..... .. .   .   . ",
" .... ..  . . .     .     . ",
"  .. . . . .   . .          ",
"   ...... .   . .           ",
"   ..+.... ....        +    ",
"    ....+........           ",
"      .........  .   .      ",
"       ......+.... ..       ",
"          ........+         ",
"          ........          ",
"       ......+.......       ",
"      .+.........+....      ",
"    .......+...........     ",
"   .....@@....... . .       ",
"   .+.@@#@@..+..   . . +    ",
"  ....@#@#@@..... .         ",
" ....@#@#@#@...... .        ",
" ..+..@#@#@..+...+.         ",
" ....@#@#@#@.. ... . .      ",
".....@@#@#@.. . . . .      .",
"......@##@@.......   . .  . ",
"....+..@@...+.. . . . .   ..",
".......................  ...",
".#.....+..+......+.... ....#",
"...#.....................#..",
".....#.#.#.........#.#.#....",
"..+........#.#.#.#..........",
" ...... ........... . ..  . ",
" ... . . ..... .. .   .   . ",
" .... ..  . . .     .     . ",
"  .. . . . .   . .          ",
"   ...... .   . .           ",
"   ..+.... ....        +    ",
"    ....+........           ",
"      .........  .   .      ",
"       ......+.... ..       ",
"          ........+         ",
"          ........          ",
"       ......+.......       ",
"      .+.........+....      ",
"    .......+...........     ",
"   .....@@....... . .       ",
"   .+.@@#@@..+..   . . +    ",
"  ....@#@#@@..... .         ",
" ....@#@#@#@...... .        ",
" ..+..@#@#@..+...+.         ",
" ....@#@#@#@.. ... . .      ",
".....@@#@#@.. . . . .      .",
"......@##@@.......   . .  . ",
"....+..@@...+.. . . . .   ..",
".......................  ...",
".#.....+..+......+.... ....#",
"...#.....................#..",
".....#.#.#.........#.#.#....",
"..+........#.#.#.#..........",
" ...... ........... . ..  . ",
" ... . . ..... .. .   .   . ",
" .... ..  . . .     .     . ",
"  .. . . . .   . .          ",
"   ...... .   . .           ",
"   ..+.... ....        +    ",
"    ....+........           ",
"      .........  .   .      ",
"       ......+.... ..       ",
"          ........+         ",
"          ........          ",
"       ......+.......       ",
"      .+.........+....      ",
"    .......+...........     ",
"   .....@@....... . .       ",
"   .+.@@#@@..+..   . . +    ",
"  ....@#@#@@..... .         ",
" ....@#@#@#@...... .        ",
" ..+..@#@#@..+...+.         ",
" ....@#@#@#@.. ... . .      ",
".....@@#@#@.. . . . .      .",
"......@##@@.......   . .  . ",
"....+..@@...+.. . . . .   ..",
".......................  ...",
".#.....+..+......+.... ....#",
"...#.....................#..",
".....#.#.#.........#.#.#....",
"..+........#.#.#.#..........",
" ...... ........... . ..  . ",
" ... . . ..... .. .   .   . ",
" .... ..  . . .     .     . ",
"  .. . . . .   . .          ",
"   ...... .   . .           ",
"   ..+.... ....        +    ",
"    ....+........           ",
"      .........  .   .      ",
"       ......+.... ..       ",
"          ........+         "};
