/* XPM */
static char * CL_xpm[] = {
"20 320 8 1",
" 	c None",
".	c #007800",
"+	c #00A000",
"@	c #00FF00",
"#	c #00C800",
"$	c #C1C1C1",
"%	c #FF0000",
"&	c #B00000",
"                    ",
"                    ",
"        .++.        ",
"       .+@@+.       ",
"        .@@.        ",
"         ..         ",
"         ..         ",
"         ..         ",
"         ..         ",
"         ..         ",
"        .++.        ",
"   .   .+##+.   .   ",
"   $.+++#@@#+++.$   ",
"   $.+++@@@@+++.$   ",
"   $..++@@@@++..$   ",
"   .    .%%.    .   ",
"   .            .   ",
"                    ",
"                    ",
"                    ",
"                    ",
"           ...      ",
"          .+##.     ",
"           .@@..    ",
"           +@+.     ",
"           ..       ",
"           ..       ",
"          ..        ",
"   .      ..        ",
"   $.   ..+.        ",
"   $.++++#+.        ",
"  $..+++#@#+        ",
"  .  ++@@@#++.      ",
"       @@@@+++..    ",
"       .%%@+++.$    ",
"          . +..$    ",
"              $     ",
"              .     ",
"                    ",
"                    ",
"                    ",
"                    ",
"                    ",
"             .+.    ",
"             +@@.   ",
"     .       .@@+   ",
"    $       ...+.   ",
"   $.+     ...      ",
"  $.+++  ....       ",
" . .+++++++.        ",
"    +++@@#+.        ",
"     +@@@@+         ",
"     .%@@@+         ",
"      &%@+++        ",
"       .+++++ .     ",
"         +++.$      ",
"          ..$       ",
"           $        ",
"          .         ",
"                    ",
"                    ",
"                    ",
"                    ",
"                    ",
"    $$.         .   ",
"  .$...        +..  ",
"    .++.       #@#. ",
"    ++++     ..@@#. ",
"     ++++......+.+. ",
"    .@@##++..    .  ",
"     %@@@#.         ",
"     %@@#+.         ",
"     .@@++          ",
"       +++          ",
"       +++          ",
"        ...         ",
"        .$$.        ",
"       .$           ",
"                    ",
"                    ",
"                    ",
"                    ",
"                    ",
"   ..$$$.           ",
"     ...            ",
"     .++            ",
"     +++            ",
"     +++.       .   ",
"    .@@#+.     .+.  ",
"    %@@@#+.....@@+  ",
"    %@@@#+.....@@+  ",
"    .@@#+.     .+.  ",
"     +++.       .   ",
"     +++            ",
"     .++            ",
"     ...            ",
"   ..$$$.           ",
"                    ",
"                    ",
"                    ",
"                    ",
"                    ",
"       .$           ",
"        .$$.        ",
"        ...         ",
"       +++          ",
"       +++          ",
"     .@@++          ",
"     %@@#+.         ",
"     %@@@#.         ",
"    .@@##++..    .  ",
"     ++++......+.+. ",
"    ++++     ..@@#. ",
"    .++.       +@#. ",
"  .$...        ...  ",
"    $$.         .   ",
"                    ",
"                    ",
"                    ",
"                    ",
"                    ",
"          .         ",
"           $        ",
"          ..$       ",
"         +++.$      ",
"       .+++++ .     ",
"      &%@+++        ",
"     .%@@@+         ",
"     +@@@@+         ",
"    +++@@#+.        ",
" . .+++++++.        ",
"  $.+++  ....       ",
"   $.+     ...      ",
"    $       ...+.   ",
"     .       .@@+   ",
"             +@..   ",
"             .+.    ",
"                    ",
"                    ",
"                    ",
"                    ",
"                    ",
"              .     ",
"              $     ",
"          . +..$    ",
"       .%%@+++.$    ",
"       @@@@+++..    ",
"  .  ++@@@#++.      ",
"  $..+++#@#+        ",
"   $.++++#+.        ",
"   $.   ..+.        ",
"   .      ..        ",
"          ..        ",
"           ..       ",
"           ..       ",
"           +@#+     ",
"           .@@..    ",
"          .+#+.     ",
"           ...      ",
"                    ",
"                    ",
"                    ",
"                    ",
"   .            .   ",
"   .    .%%.    .   ",
"   $..++@@@@++..$   ",
"   $.+++@@@@+++.$   ",
"   $.+++#@@#+++.$   ",
"   .   .+##+.   .   ",
"        .++.        ",
"         ..         ",
"         ..         ",
"         ..         ",
"         ..         ",
"         ..         ",
"        .@@.        ",
"       .+@@+.       ",
"        .++.        ",
"                    ",
"                    ",
"                    ",
"                    ",
"     .              ",
"     $              ",
"    $..+ .          ",
"    $.+++@%%.       ",
"    ..+++@@@@       ",
"      .++#@@@++  .  ",
"        +#@#+++..$  ",
"        .+#++++.$   ",
"        .+..   .$   ",
"        ..      .   ",
"        ..          ",
"       ..           ",
"       ..           ",
"     .+@+           ",
"    ..@@.           ",
"     .##+.          ",
"      ...           ",
"                    ",
"                    ",
"         .          ",
"        $           ",
"       $..          ",
"      $.+++         ",
"     . +++++.       ",
"        +++@%&      ",
"         +@@@%.     ",
"         +@@@@+     ",
"        .+#@@+++    ",
"        .+++++++. . ",
"       ....  +++.$  ",
"      ...     +.$   ",
"   .+...       $    ",
"   +@@.       .     ",
"   ..@+             ",
"    .+.             ",
"                    ",
"                    ",
"                    ",
"                    ",
"                    ",
"           $.       ",
"        .$$.        ",
"         ...        ",
"          +++       ",
"          +++       ",
"          ++@@.     ",
"         .+#@@%     ",
"         .#@@@%     ",
"  .    ..++##@@.    ",
" .+.+......++++     ",
" .#@@..     ++++    ",
" .+@#       .++.    ",
"  ..+        ...$.  ",
"   .         .$$    ",
"                    ",
"                    ",
"                    ",
"                    ",
"                    ",
"                    ",
"                    ",
"           .$$$..   ",
"            ...     ",
"            ++.     ",
"            +++     ",
"   .       .+++     ",
"  .+.     .+#@@.    ",
"  +@@.....+#@@@%    ",
"  +@@.....+#@@@%    ",
"  .+.     .+#@@.    ",
"   .       .+++     ",
"            +++     ",
"            ++.     ",
"            ...     ",
"           .$$$..   ",
"                    ",
"                    ",
"                    ",
"                    ",
"                    ",
"                    ",
"                    ",
"   .         .$$    ",
"  ...        ...$.  ",
" .#@+       .++.    ",
" .#@@..     ++++    ",
" .+.+......++++     ",
"  .    ..++##@@.    ",
"         .#@@@%     ",
"         .+#@@%     ",
"          ++@@.     ",
"          +++       ",
"          +++       ",
"         ...        ",
"        .$$.        ",
"           $.       ",
"                    ",
"                    ",
"                    ",
"                    ",
"                    ",
"    .+.             ",
"   ..@+             ",
"   +@@.       .     ",
"   .+...       $    ",
"      ...     +.$   ",
"       ....  +++.$  ",
"        .+++++++. . ",
"        .+#@@+++    ",
"         +@@@@+     ",
"         +@@@%.     ",
"        +++@%&      ",
"     . +++++.       ",
"      $.+++         ",
"       $..          ",
"        $           ",
"         .          ",
"                    ",
"                    ",
"      ...           ",
"     .+#+.          ",
"    ..@@.           ",
"     +#@+           ",
"       ..           ",
"       ..           ",
"        ..          ",
"        ..      .   ",
"        .+..   .$   ",
"        .+#++++.$   ",
"        +#@#+++..$  ",
"      .++#@@@++  .  ",
"    ..+++@@@@       ",
"    $.+++@%%.       ",
"    $..+ .          ",
"     $              ",
"     .              ",
"                    ",
"                    "};
