#define fed_lightcruiser_width 20
#define fed_lightcruiser_height 320
static unsigned char fed_lightcruiser_bits[] = {
	0x00, 0x00, 0x00, 0x00, 0x00, 0x00, 0x00, 0x0f, 0x00, 0x80, 0x1f, 0x00,
	0xc0, 0x3f, 0x00, 0xc0, 0x3f, 0x00, 0xc0, 0x3f, 0x00, 0xc0, 0x3f, 0x00,
	0xa0, 0x5f, 0x00, 0x20, 0x4f, 0x00, 0xa0, 0x5f, 0x00, 0xe0, 0x7f, 0x00,
	0xe0, 0x70, 0x00, 0x20, 0x40, 0x00, 0x20, 0x40, 0x00, 0x20, 0x40, 0x00,
0x20, 0x40, 0x00, 0x00, 0x00, 0x00, 0x00, 0x00, 0x00, 0x00, 0x00, 0x00,
0x00, 0x00, 0x00, 0x00, 0x00, 0x00, 0x00, 0x1c, 0x00, 0x00, 0x7e, 0x00,
    0x00, 0x7f, 0x00, 0x00, 0xff, 0x00, 0x80, 0xff, 0x00, 0x20, 0xff, 0x00,
    0x20, 0xff, 0x00, 0xe0, 0x7f, 0x00, 0xf0, 0x0f, 0x00, 0x50, 0x5f, 0x00,
    0x10, 0x78, 0x00, 0x08, 0x38, 0x00, 0x08, 0x30, 0x00, 0x00, 0x10, 0x00,
0x00, 0x10, 0x00, 0x00, 0x08, 0x00, 0x00, 0x00, 0x00, 0x00, 0x00, 0x00,
0x00, 0x00, 0x00, 0x00, 0x00, 0x00, 0x00, 0x00, 0x00, 0x00, 0x78, 0x00,
    0x00, 0xfc, 0x00, 0x80, 0xfe, 0x01, 0xc0, 0xfe, 0x01, 0x60, 0xfe, 0x01,
    0xf0, 0xff, 0x01, 0xf8, 0xff, 0x00, 0x4c, 0x7f, 0x00, 0x04, 0x0e, 0x00,
    0x00, 0x6c, 0x00, 0x00, 0x3e, 0x00, 0x00, 0x1c, 0x00, 0x00, 0x0c, 0x00,
0x00, 0x06, 0x00, 0x00, 0x03, 0x00, 0x00, 0x00, 0x00, 0x00, 0x00, 0x00,
0x00, 0x00, 0x00, 0x00, 0x00, 0x00, 0x00, 0x00, 0x00, 0x00, 0x00, 0x00,
    0x00, 0x70, 0x00, 0x00, 0xfd, 0x01, 0xe0, 0xfc, 0x01, 0xf8, 0xfd, 0x03,
    0xc4, 0xff, 0x03, 0x00, 0xff, 0x01, 0x00, 0xff, 0x01, 0x00, 0xff, 0x00,
    0x00, 0x06, 0x00, 0x00, 0x17, 0x00, 0x00, 0x0e, 0x00, 0x80, 0x03, 0x00,
0x60, 0x00, 0x00, 0x00, 0x00, 0x00, 0x00, 0x00, 0x00, 0x00, 0x00, 0x00,
0x00, 0x00, 0x00, 0x00, 0x00, 0x00, 0x00, 0x00, 0x00, 0x00, 0x00, 0x00,
    0x00, 0x00, 0x00, 0xf8, 0x0f, 0x00, 0x80, 0xf1, 0x00, 0x80, 0xfb, 0x01,
    0x00, 0xff, 0x03, 0x00, 0xff, 0x03, 0x00, 0xff, 0x03, 0x00, 0xff, 0x03,
    0x80, 0xfb, 0x01, 0x80, 0xf1, 0x00, 0xf8, 0x0f, 0x00, 0x00, 0x00, 0x00,
0x00, 0x00, 0x00, 0x00, 0x00, 0x00, 0x00, 0x00, 0x00, 0x00, 0x00, 0x00,
0x00, 0x00, 0x00, 0x00, 0x00, 0x00, 0x00, 0x00, 0x00, 0x60, 0x00, 0x00,
    0x80, 0x03, 0x00, 0x00, 0x1e, 0x00, 0x00, 0x07, 0x00, 0x00, 0x26, 0x00,
    0x00, 0xff, 0x00, 0x00, 0xff, 0x01, 0x00, 0xff, 0x03, 0xc4, 0xff, 0x03,
    0xf8, 0xfd, 0x03, 0xe0, 0xfc, 0x01, 0x80, 0xfd, 0x01, 0x00, 0x78, 0x00,
0x00, 0x00, 0x00, 0x00, 0x00, 0x00, 0x00, 0x00, 0x00, 0x00, 0x00, 0x00,
0x00, 0x00, 0x00, 0x00, 0x00, 0x00, 0x00, 0x03, 0x00, 0x00, 0x06, 0x00,
    0x00, 0x0c, 0x00, 0x00, 0x1c, 0x00, 0x00, 0x3e, 0x00, 0x00, 0x6c, 0x00,
    0x04, 0x0e, 0x00, 0x4c, 0x7f, 0x00, 0xf8, 0xff, 0x00, 0xf0, 0xff, 0x01,
    0x60, 0xfe, 0x01, 0xc0, 0xfe, 0x01, 0x80, 0xfe, 0x01, 0x00, 0xfc, 0x00,
0x00, 0x78, 0x00, 0x00, 0x00, 0x00, 0x00, 0x00, 0x00, 0x00, 0x00, 0x00,
0x00, 0x00, 0x00, 0x00, 0x00, 0x00, 0x00, 0x08, 0x00, 0x00, 0x10, 0x00,
    0x00, 0x10, 0x00, 0x08, 0x30, 0x00, 0x08, 0x38, 0x00, 0x10, 0x38, 0x00,
    0x50, 0x5f, 0x00, 0xf0, 0x0f, 0x00, 0xe0, 0x7f, 0x00, 0x20, 0x7f, 0x00,
    0x40, 0xff, 0x00, 0x00, 0xff, 0x00, 0x00, 0xff, 0x00, 0x00, 0x7f, 0x00,
0x00, 0x7e, 0x00, 0x00, 0x18, 0x00, 0x00, 0x00, 0x00, 0x00, 0x00, 0x00,
0x00, 0x00, 0x00, 0x00, 0x00, 0x00, 0x00, 0x00, 0x00, 0x20, 0x40, 0x00,
    0x20, 0x40, 0x00, 0x20, 0x40, 0x00, 0x20, 0x40, 0x00, 0xe0, 0x70, 0x00,
    0xe0, 0x7f, 0x00, 0xa0, 0x5f, 0x00, 0x20, 0x4f, 0x00, 0xa0, 0x5f, 0x00,
    0xc0, 0x3f, 0x00, 0xc0, 0x3f, 0x00, 0xc0, 0x3f, 0x00, 0xc0, 0x3f, 0x00,
0x80, 0x1f, 0x00, 0x00, 0x0f, 0x00, 0x00, 0x00, 0x00, 0x00, 0x00, 0x00,
0x00, 0x00, 0x00, 0x00, 0x00, 0x00, 0x00, 0x01, 0x00, 0x80, 0x00, 0x00,
    0x80, 0x00, 0x00, 0xc0, 0x00, 0x01, 0xc0, 0x01, 0x01, 0xe0, 0x81, 0x00,
    0xa0, 0xaf, 0x00, 0x00, 0xff, 0x00, 0xe0, 0x7f, 0x00, 0xf0, 0x4f, 0x00,
    0xf0, 0x4f, 0x00, 0xf0, 0x1f, 0x00, 0xf0, 0x0f, 0x00, 0xe0, 0x0f, 0x00,
0xe0, 0x07, 0x00, 0x80, 0x03, 0x00, 0x00, 0x00, 0x00, 0x00, 0x00, 0x00,
0x00, 0x00, 0x00, 0x00, 0x00, 0x00, 0x00, 0x0c, 0x00, 0x00, 0x06, 0x00,
    0x00, 0x03, 0x00, 0x80, 0x03, 0x00, 0xc0, 0x07, 0x00, 0x60, 0x03, 0x00,
    0x00, 0x07, 0x02, 0xe0, 0x2f, 0x03, 0xf0, 0xff, 0x01, 0xf8, 0xff, 0x00,
    0xf8, 0x67, 0x00, 0xf8, 0x37, 0x00, 0xf8, 0x17, 0x00, 0xf0, 0x03, 0x00,
0xe0, 0x01, 0x00, 0x00, 0x00, 0x00, 0x00, 0x00, 0x00, 0x00, 0x00, 0x00,
0x00, 0x00, 0x00, 0x00, 0x00, 0x00, 0x00, 0x00, 0x00, 0x00, 0x60, 0x00,
    0x00, 0x1c, 0x00, 0x00, 0x07, 0x00, 0x80, 0x0e, 0x00, 0x00, 0x06, 0x00,
    0xf0, 0x0f, 0x00, 0xf8, 0x0f, 0x00, 0xf8, 0x0f, 0x00, 0xfc, 0x3f, 0x02,
    0xfc, 0xfb, 0x01, 0xf8, 0x73, 0x00, 0xf8, 0x0b, 0x00, 0xe0, 0x00, 0x00,
0x00, 0x00, 0x00, 0x00, 0x00, 0x00, 0x00, 0x00, 0x00, 0x00, 0x00, 0x00,
0x00, 0x00, 0x00, 0x00, 0x00, 0x00, 0x00, 0x00, 0x00, 0x00, 0x00, 0x00,
    0x00, 0x00, 0x00, 0x00, 0xff, 0x01, 0xf0, 0x18, 0x00, 0xf8, 0x1d, 0x00,
    0xfc, 0x0f, 0x00, 0xfc, 0x0f, 0x00, 0xfc, 0x0f, 0x00, 0xfc, 0x0f, 0x00,
    0xf8, 0x1d, 0x00, 0xf0, 0x18, 0x00, 0x00, 0xff, 0x01, 0x00, 0x00, 0x00,
0x00, 0x00, 0x00, 0x00, 0x00, 0x00, 0x00, 0x00, 0x00, 0x00, 0x00, 0x00,
0x00, 0x00, 0x00, 0x00, 0x00, 0x00, 0x00, 0x00, 0x00, 0x00, 0x00, 0x00,
    0xe0, 0x01, 0x00, 0xf8, 0x1b, 0x00, 0xf8, 0x73, 0x00, 0xfc, 0xfb, 0x01,
    0xfc, 0x3f, 0x02, 0xfc, 0x0f, 0x00, 0xf8, 0x0f, 0x00, 0xf0, 0x0f, 0x00,
    0x40, 0x06, 0x00, 0x00, 0x0e, 0x00, 0x80, 0x07, 0x00, 0x00, 0x1c, 0x00,
0x00, 0x60, 0x00, 0x00, 0x00, 0x00, 0x00, 0x00, 0x00, 0x00, 0x00, 0x00,
0x00, 0x00, 0x00, 0x00, 0x00, 0x00, 0x00, 0x00, 0x00, 0xe0, 0x01, 0x00,
    0xf0, 0x03, 0x00, 0xf8, 0x17, 0x00, 0xf8, 0x37, 0x00, 0xf8, 0x67, 0x00,
    0xf8, 0xff, 0x00, 0xf0, 0xff, 0x01, 0xe0, 0x2f, 0x03, 0x00, 0x07, 0x02,
    0x60, 0x03, 0x00, 0xc0, 0x07, 0x00, 0x80, 0x03, 0x00, 0x00, 0x03, 0x00,
0x00, 0x06, 0x00, 0x00, 0x0c, 0x00, 0x00, 0x00, 0x00, 0x00, 0x00, 0x00,
0x00, 0x00, 0x00, 0x00, 0x00, 0x00, 0x80, 0x01, 0x00, 0xe0, 0x07, 0x00,
    0xe0, 0x0f, 0x00, 0xf0, 0x0f, 0x00, 0xf0, 0x0f, 0x00, 0xf0, 0x2f, 0x00,
    0xe0, 0x4f, 0x00, 0xe0, 0x7f, 0x00, 0x00, 0xff, 0x00, 0xa0, 0xaf, 0x00,
    0xc0, 0x81, 0x00, 0xc0, 0x01, 0x01, 0xc0, 0x00, 0x01, 0x80, 0x00, 0x00,
0x80, 0x00, 0x00, 0x00, 0x01, 0x00, 0x00, 0x00, 0x00, 0x00, 0x00, 0x00};
