/* XPM */
static char * C10_xpm[] = {
"20 320 7 1",
" 	c None",
".	c #B0B0B0",
"X	c #C1C1C1",
"o	c #D0D0D0",
"O	c #E0E0E0",
"+	c #FF0000",
"@	c #00FFFF",
"                    ",
"                    ",
"        ....        ",
"       .XXXX.       ",
"      .XooooX.      ",
"      .XoOOoX.      ",
"      .XoOOoX.      ",
"      .XoOOoX.      ",
"     + .XooX. +     ",
"     O  .XX.  O     ",
"     @ X.XXoX @     ",
"     @oX.++XXo@     ",
"     @oX    Xo@     ",
"     O        O     ",
"     @        @     ",
"     @        @     ",
"     O        O     ",
"                    ",
"                    ",
"                    ",
"                    ",
"                    ",
"          ....      ",
"         .XoXX.     ",
"        .XooooX.    ",
"        .XoOOoX.    ",
"      + .XoOOoX.    ",
"      O .XoOoXX.    ",
"      @  .XoXX.     ",
"     @oX.XXX.. +    ",
"     @oX.+XX  O     ",
"    @     +.X @     ",
"    @      XXo@     ",
"   O        X@      ",
"            oO      ",
"            @       ",
"            @       ",
"           O        ",
"                    ",
"                    ",
"                    ",
"                    ",
"             .      ",
"           .....    ",
"          .XXoX..   ",
"       @+ XXoOoX.   ",
"      @. .XoOOOo..  ",
"     @O   XOOOoXX   ",
"    @OoXX.XoOoXX.   ",
"   @. .X.XXXXXX.    ",
"  O.    +XX. .      ",
"  .      +.X  +     ",
"          XX .@     ",
"          .oO@      ",
"           O@       ",
"          .@        ",
"         .@         ",
"        .O          ",
"                    ",
"                    ",
"                    ",
"                    ",
"                    ",
"                    ",
"          + ....    ",
"       @@O .XXXX.   ",
"     O@o  .XXoooX.  ",
"   @@XoXX .XoOOoX.  ",
"  O    X.XXoOOOooX  ",
"        +XXXooooX.  ",
"         +..XXXX.   ",
"         .X .X..    ",
"         XX         ",
"         oo@O+      ",
"         @@         ",
"       @@           ",
"      O             ",
"                    ",
"                    ",
"                    ",
"                    ",
"                    ",
"                    ",
"                    ",
"                    ",
"   O@@O@@@O+        ",
"       oo   ....    ",
"       XXX .XXXX.   ",
"        ...XooooX.  ",
"        +XXoOOOoX.  ",
"        +XXoOOOoX.  ",
"        ...XooooX.  ",
"       XXX .XXXX.   ",
"       oo   ....    ",
"   O@@O@@@O+        ",
"                    ",
"                    ",
"                    ",
"                    ",
"                    ",
"                    ",
"                    ",
"      O             ",
"       @@           ",
"         @@         ",
"         oo@O+      ",
"         XX         ",
"         .. ....    ",
"         +X.XXXX.   ",
"        +XXXooooX.  ",
"  O    X.XXoOOOoo.  ",
"   @@oXXX .XoOOoX.  ",
"     O@o  .XXoooX.  ",
"       @@O .XXXX.   ",
"          + ....    ",
"                    ",
"                    ",
"                    ",
"                    ",
"                    ",
"                    ",
"                    ",
"        .@          ",
"         .@         ",
"          .@        ",
"           oO       ",
"          .oo@      ",
"          XX .@     ",
"  .      +.X  +     ",
"  @.    +XX. .      ",
"   @. .X.XXXXXX.    ",
"    @ooXX.XoOoXX.   ",
"     Oo   XOOOoXX   ",
"      @. .XoOOOo..  ",
"       @+ XXoOoX.   ",
"          .XXoX..   ",
"           .X...    ",
"             .      ",
"                    ",
"                    ",
"                    ",
"                    ",
"           O        ",
"            @       ",
"            @       ",
"            XO      ",
"   O        o@      ",
"    @      XXo@     ",
"    @     +.X @     ",
"     @oX.+XX  O     ",
"     @oXX.XX.. +    ",
"      @  .XoXX.     ",
"      O .XoOoXX.    ",
"      + XXoOOoX.    ",
"        .XoOOoX.    ",
"        .XooooX.    ",
"         .XoX..     ",
"          .X..      ",
"                    ",
"                    ",
"                    ",
"                    ",
"                    ",
"     O        O     ",
"     @        @     ",
"     @        @     ",
"     O        O     ",
"     @oX    Xo@     ",
"     @oX.++.Xo@     ",
"     @ X.XX.X @     ",
"     O  .XX.  O     ",
"     + .XooX. +     ",
"      .XoOOoX.      ",
"      .XoOOoX.      ",
"      .XoOOoX.      ",
"      .XooooX.      ",
"       .XXXX.       ",
"        ....        ",
"                    ",
"                    ",
"                    ",
"                    ",
"         O          ",
"        @           ",
"        @           ",
"       Oo           ",
"       @X        O  ",
"      @oXX      @   ",
"      @ X.+     @   ",
"      O  XX+.Xo@    ",
"     + ..XXX.Xo@    ",
"      .XXoX.  @     ",
"     .XXoOoX. O     ",
"     .XoOOoX. +     ",
"     .XoOOoX.       ",
"     .XooooX.       ",
"      .XXoX.        ",
"       ....         ",
"                    ",
"                    ",
"                    ",
"                    ",
"          @.        ",
"         @.         ",
"        @.          ",
"       Oo           ",
"      @oo.          ",
"     @. XX          ",
"     +  X.+      .  ",
"      . .XX+    .@  ",
"    .XXXXXX.X. .@   ",
"   .XXoOoX.XXoo@    ",
"   XXoOOOX   oO     ",
"  ..oOOOoX. .@      ",
"   .XoOoXX +@       ",
"   ..XoXX.          ",
"    ...X.           ",
"      .             ",
"                    ",
"                    ",
"                    ",
"                    ",
"                    ",
"             O      ",
"           @@       ",
"         @@         ",
"      +O@oo         ",
"         XX         ",
"    ..X. X.         ",
"   .XXXX..+         ",
"  .XooooXXX+        ",
"  XooOOOoXX.X    O  ",
"  .XoOOoX. XXoX@@   ",
"  ..oooXX.  o@O     ",
"   .XXXX. O@@       ",
"    .... +          ",
"                    ",
"                    ",
"                    ",
"                    ",
"                    ",
"                    ",
"                    ",
"                    ",
"                    ",
"        +O@@@O@@O   ",
"    ....   oo       ",
"   .XXXX. XXX       ",
"  .XooooX...        ",
"  .XoOOOoXX+        ",
"  .XoOOOoXX+        ",
"  .XooooX...        ",
"   .XXXX. XXX       ",
"    ....   oo       ",
"        +O@@@O@@O   ",
"                    ",
"                    ",
"                    ",
"                    ",
"                    ",
"                    ",
"                    ",
"                    ",
"                    ",
"                    ",
"    .... +          ",
"   .XXXX. O@@       ",
"  .XoooXX.  o@O     ",
"  .XoOOoX. XXXo@@   ",
"  .ooOOOoXX.X    O  ",
"  .XooooXXX+        ",
"   .XXXX.X+         ",
"    .... ..         ",
"         XX         ",
"      +O@oo         ",
"         @@         ",
"           @@       ",
"             O      ",
"                    ",
"                    ",
"                    ",
"                    ",
"      .             ",
"    ...X.           ",
"   ..XoXX.          ",
"   .XoOoXX +@       ",
"  ..oOOOoX. .@      ",
"   XXoOOOX   oO     ",
"   .XXoOoX.XXoo@    ",
"    .XXXXXX.X. .@   ",
"      . .XX+    .@  ",
"     +  X.+      .  ",
"     @. XX          ",
"      @oo.          ",
"       Oo           ",
"        @.          ",
"         @.         ",
"          @.        ",
"                    ",
"                    ",
"                    ",
"                    ",
"      ..X.          ",
"     ..XoX.         ",
"    .XooooX.        ",
"    .XoOOoX.        ",
"    .XoOOoXX +      ",
"    .XXoOoX. O      ",
"     .XXoX.  @      ",
"    + ..XX.XXo@     ",
"     O  XX+.Xo@     ",
"     @ X.+     @    ",
"     @oXX      @    ",
"      @o        O   ",
"      OX            ",
"       @            ",
"       @            ",
"        O           ",
"                    ",
"                    "};
