/* XPM */
static char * C11_xpm[] = {
"20 320 7 1",
" 	c None",
".	c #B0B0B0",
"X	c #D0D0D0",
"o	c #E0E0E0",
"O	c #C1C1C1",
"+	c #FF0000",
"@	c #00FFFF",
"        ....        ",
"      ..XXXX..      ",
"     .XXXooXXX.     ",
"     .XXooooXX.     ",
"    .XXooooooXX.    ",
"     .XXooooXX.     ",
"     .XXooooXX.     ",
"      .XXooXX.      ",
"       OXXXXO       ",
"       XXXXXX       ",
"    +   O++O   +    ",
"    oX  ....  Xo    ",
"    @X  .OO.  X@    ",
"    @X  .XX.  X@    ",
"    @X  .XX.  X@    ",
"    @X.O.XX.O.X@    ",
"    @X  .XX.  X@    ",
"    @X  OooO  X@    ",
"    oX  X..X  Xo    ",
"     X   ..   X     ",
"         ......     ",
"        .XXXXXX.    ",
"       .XXXoooXX.   ",
"       ..XooooXXO   ",
"       .XXoooooXX.  ",
"       ..XoooooXX.  ",
"        XXXoooXX.   ",
"     +  OXXoXXXX.   ",
"    oo  XXXXXX..    ",
"    @X  O+XXX.      ",
"    @X  ..+O        ",
"   @X   .O..        ",
"   @X  .XX.   X+    ",
"  @XX.O.XX.  .@     ",
"  @X  .XXX.  X@     ",
"  oX  OXX.O.X@@     ",
"     .Xoo   X@      ",
"     ...X   X@      ",
"      ..   X@       ",
"           Xo       ",
"                    ",
"           X.X...   ",
"          XXXXXX..  ",
"         ..XoXXoX.. ",
"         .XXXooooX. ",
"      +  .XXooooXX. ",
"     o   OXXooooXXX ",
"    @XX  XXooooXoX. ",
"   @XX   OXXoXXXXXX ",
"  @XX   .+XXXXXX.X  ",
" @XX.  .O.+OXO...   ",
"oXX O..XOO.         ",
"XX   .XXX.          ",
"    OXXX.   X +     ",
"   XooX..  XXo      ",
"   ..oO O.XX@       ",
"   ..X   XX@        ",
"        XX@         ",
"       XX@          ",
"       Xo           ",
"                    ",
"                    ",
"              ..    ",
"            ..XXO.  ",
"       .   .XXXXXX. ",
"    @@@X+  .XXooXXX.",
"  @@@XX   OXXoooooX.",
"o@XXX     XXXoooooX.",
"XX  .   .OXXooooooX.",
"    O.....+XXXoooXX.",
"    .XXXO.+XXXXXXXX.",
"  XoXXXX..OXOX.X.X. ",
" ..oXX..      ....  ",
" ..XO.O             ",
"  .X  .  XXo+       ",
"      XXX@@.        ",
"    XXX@@           ",
"   Xo@@             ",
"                    ",
"                    ",
"                    ",
"                    ",
"                    ",
"                    ",
" o@@@@@@o+     .    ",
"XXXXXXXXX    ..O..  ",
"    .       .XXXXX. ",
"    O     XOXXXoXX. ",
" XO......OXXXooooXX.",
"..oXXXXO.+XXooooooX.",
"..oXXXXO.+XXooooooX.",
" XO......OXXXooooXX.",
"    O     XOXXXoXX. ",
"    .       .XXXXX. ",
"XXXXXXXXX    ..X..  ",
" o@@@@@@o+     .    ",
"                    ",
"                    ",
"                    ",
"                    ",
"                    ",
"    .               ",
"   .o@@             ",
"    .XX@@           ",
"      X.X@@O        ",
"  ..  .  .Xo+       ",
" ..XO.O             ",
" ..oXX..      ....  ",
"  XoXXXX..OXOX.X.X. ",
"    .XXXO.+XXXXXXXX.",
"    O....+XXXXoooXX.",
"XX  .   .OXXooooooX.",
"o@XXX     XXXoooooX.",
"  @@@XX   .XXoooooX.",
"    @@@X   .XXooXXX.",
"       +   .XXXXXX. ",
"            ..XXO.  ",
"              ..    ",
"                    ",
"                    ",
"       Xo           ",
"       XX@          ",
"        XX@         ",
"   ..X   XX@        ",
"   ..oO O.XX@       ",
"   XooX..  XXo      ",
"    OXXX.   X +     ",
"XX   .XXX.          ",
"oXX O..XOO.         ",
" @XX.  .O.+OXO...   ",
"  @XX   .+XXXXXX.X  ",
"   @XX   OXXoXXXXXX ",
"    @XX  XXooooXoX. ",
"     o   OXXooooXXO ",
"      +  .XXooooXX. ",
"         .XXXooooX. ",
"         ..XoXooX.. ",
"          XXXXXX..  ",
"           X.O...   ",
"                    ",
"           XO       ",
"      ..   O@       ",
"     ...X   X@      ",
"  .  XXoo   X@      ",
" .oX  OXX.O.X@@     ",
"  @X  .XXX.  X@     ",
"  @XX.O.XX.  O@     ",
"   @X  .XX.   X+    ",
"   @X   .O..        ",
"    @X  ...O        ",
"    @X  O++XXO      ",
"    oo  XXXXXX..    ",
"     +  OXXoXXXX.   ",
"        XXXoooXX.   ",
"       ..XoooooXX.  ",
"       .XXoooooXX.  ",
"       ..XooooXXO   ",
"       .XXXoooXX.   ",
"        .XXXXXX.    ",
"         ......     ",
"     X   ..   X     ",
"    oX  X..X  Xo    ",
"    @X  OooO  X@    ",
"    @X  .XX.  X@    ",
"    @X.O.XX.O.X@    ",
"    @X  .XX.  X@    ",
"    @X  .XX.  X@    ",
"    @X  .OO.  X@    ",
"    oX  ....  Xo    ",
"    +   O++O   +    ",
"       XXXXXX       ",
"       OXXXXO       ",
"      .XXooXX.      ",
"     .XXooooXX.     ",
"     .XXooooXX.     ",
"    .XXooooooXO.    ",
"     .XXooooX..     ",
"     .XXXooXX..     ",
"      ..XXXX..      ",
"        ....        ",
"       oX           ",
"       @X   ..      ",
"      @X   X...     ",
"      @X   ooX.  .  ",
"     @@X.O.XXO  OX. ",
"     @X  .XXX.  X@  ",
"     @X  .XX.O. X@  ",
"    +X   .XX.  X@   ",
"        ..O.   X@   ",
"        O+..  X@    ",
"      .XXX+O  X@    ",
"    ..XXXXXX  oo    ",
"   .XXXXoXXO  +     ",
"   .XXoooXXX        ",
"  .XXoooooX..       ",
"  .XXoooooXX.       ",
"   OXXooooX..       ",
"   .XXoooXXX.       ",
"    .XXXXXX.        ",
"     ......         ",
"           oX       ",
"          @XX       ",
"         @XX        ",
"        @XX   X..   ",
"       @XX.O Oo..   ",
"      oXX  ..XooX   ",
"     + X   .XXXO    ",
"          .XXX.   XX",
"         .OOX..O XXo",
"   ...OXO+.O.  .XX@ ",
"  X.XXXXXX+.   XX@  ",
" XXXXXXoXXO   XX@   ",
" .XoXooooXX  XX@    ",
" OXXooooXXO   o     ",
" .XoooooXX.  +      ",
" .XooooXXX.         ",
" ..XoXXoX..         ",
"  ..XXXXXX          ",
"   ...O.X           ",
"                    ",
"                    ",
"               .    ",
"             @@oX   ",
"           @@XX.    ",
"        o@@XXX      ",
"       +oXX  .      ",
"             O  X.  ",
"  ....      ..XXo.. ",
" .X.X.XOXO..XXXXo.. ",
".XXXXXXXX+.OXXX.oO  ",
".XXoooXXX+.....O    ",
".XooooooXXO.   .  XO",
".XoooooXXX     XXX@o",
".XoooooXXO   XX@@@  ",
".XXXooXX.   X@@@    ",
" .XXXXXX.   +       ",
"  .OXX..            ",
"    ..              ",
"                    ",
"                    ",
"                    ",
"                    ",
"                    ",
"                    ",
"    .     +o@@@@@@o ",
"  ..X..    XXXXXXXo ",
" .XXXXX.       X    ",
" .XXoXXXOX     O    ",
".XXooooXXXO......OX ",
".XooooooXX+.OXXXXo..",
".XooooooXX+.OXXXXo..",
".XXooooXXXO......OX ",
" .XXoXXXOX     O    ",
" ...XXX.       .    ",
"  ..O..    XXXXXXXX ",
"    .     +o@@@@@@o ",
"                    ",
"                    ",
"                    ",
"                    ",
"                    ",
"    ..              ",
"  .OXX..            ",
" .XXXXXX.  +.       ",
".XXXooXX.   X@@@    ",
".XoooooXX.   XX@@@  ",
".XoooooXXX     XXX@o",
".XooooooXXO.   .  X.",
".XXoooXXXX+....O    ",
".XXXXXXXX+.OXXX.    ",
" .X.X.XOXO..XXXXoX  ",
"  ....      ..XXo.. ",
"             O.OX.. ",
"       +oXX  .  ..  ",
"        o@@XX       ",
"           @@XXX    ",
"             @@oO   ",
"               .    ",
"                    ",
"                    ",
"                    ",
"   ...O.X           ",
"  ..XXXXXX          ",
" ..XooXoX..         ",
" .XooooXXX.         ",
" .XoooooXX.  +      ",
" OXXooooXXO   o     ",
" .XoXooooXX  XX@    ",
" XXXXXXoXXO   XX@   ",
"  X.XXXXXX+.   XX@  ",
"   ...OXO+.O.  .XX@ ",
"         .OOX..O XXX",
"          .XXX.   X ",
"     + X   .XXXO    ",
"      oXX  ..XooX   ",
"       @XX.O Oo..   ",
"        @XX   X..   ",
"         @XX        ",
"          @XX       ",
"           X        ",
"     ......         ",
"    .XXXXXX.        ",
"   .XXoooXXX.       ",
"   OXXooooX..       ",
"  .XXoooooXX.       ",
"  .XXoooooX..       ",
"   .XXoooXXX        ",
"   .XXXXoXXO  +     ",
"    ..XXXXXX  oo    ",
"      OXX++O  X@    ",
"        O...  X@    ",
"    +   ..O.   X@   ",
"    .X   .XX.  X@   ",
"     @X  .XX.O.XX@  ",
"     @X  .XXX   X@  ",
"     @@X.O.XX   oo. ",
"      @X  oooO   X  ",
"      @X  O...      ",
"       @X  ..       ",
"       oO           "};
