#define fed_destroyer_width 20
#define fed_destroyer_height 320
static unsigned char fed_destroyer_bits[] = {
	0x00, 0x00, 0x00, 0x00, 0x00, 0x00, 0x00, 0x00, 0x00, 0x00, 0x0f, 0x00, 0x80, 0x1f, 0x00,
	0xc0, 0x3f, 0x00, 0xc0, 0x3f, 0x00, 0xc0, 0x3f, 0x00, 0x80, 0x1f, 0x00, 0x00, 0x0f, 0x00,
	0x40, 0x26, 0x00, 0xc0, 0x36, 0x00, 0xc0, 0x3f, 0x00, 0x40, 0x26, 0x00, 0x40, 0x20, 0x00,
0x40, 0x20, 0x00, 0x40, 0x20, 0x00, 0x00, 0x00, 0x00, 0x00, 0x00, 0x00, 0x00, 0x00, 0x00,
0x00, 0x00, 0x00, 0x00, 0x00, 0x00, 0x00, 0x00, 0x00, 0x00, 0x1e, 0x00, 0x00, 0x3f, 0x00,
    0x80, 0x7f, 0x00, 0x80, 0x7f, 0x00, 0x00, 0x7f, 0x00, 0x00, 0x3f, 0x00, 0x40, 0x1e, 0x00,
    0xc0, 0x06, 0x00, 0xe0, 0x27, 0x00, 0x20, 0x3e, 0x00, 0x20, 0x18, 0x00, 0x10, 0x18, 0x00,
0x00, 0x08, 0x00, 0x00, 0x08, 0x00, 0x00, 0x00, 0x00, 0x00, 0x00, 0x00, 0x00, 0x00, 0x00,
0x00, 0x00, 0x00, 0x00, 0x00, 0x00, 0x00, 0x00, 0x00, 0x00, 0x00, 0x00, 0x00, 0x3c, 0x00,
    0x00, 0x7e, 0x00, 0x00, 0xfe, 0x00, 0x00, 0xfe, 0x00, 0x40, 0xfe, 0x00, 0x60, 0xfe, 0x00,
    0xd0, 0x7f, 0x00, 0x88, 0x03, 0x00, 0x00, 0x03, 0x00, 0x00, 0x0e, 0x00, 0x00, 0x04, 0x00,
0x00, 0x02, 0x00, 0x00, 0x01, 0x00, 0x00, 0x00, 0x00, 0x00, 0x00, 0x00, 0x00, 0x00, 0x00,
0x00, 0x00, 0x00, 0x00, 0x00, 0x00, 0x00, 0x00, 0x00, 0x00, 0x00, 0x00, 0x00, 0x00, 0x00,
    0x00, 0x70, 0x00, 0x80, 0xf9, 0x00, 0xe0, 0xfc, 0x01, 0xf8, 0xfc, 0x01, 0x80, 0xff, 0x01,
    0x80, 0xff, 0x01, 0x00, 0xf9, 0x00, 0x00, 0x63, 0x00, 0x00, 0x07, 0x00, 0xc0, 0x01, 0x00,
0x20, 0x00, 0x00, 0x00, 0x00, 0x00, 0x00, 0x00, 0x00, 0x00, 0x00, 0x00, 0x00, 0x00, 0x00,
0x00, 0x00, 0x00, 0x00, 0x00, 0x00, 0x00, 0x00, 0x00, 0x00, 0x00, 0x00, 0x00, 0x00, 0x00,
    0x00, 0x00, 0x00, 0xf8, 0x73, 0x00, 0x80, 0xf9, 0x00, 0x80, 0xfc, 0x01, 0xc0, 0xff, 0x01,
    0xc0, 0xff, 0x01, 0x80, 0xfc, 0x01, 0x80, 0xf9, 0x00, 0xf8, 0x73, 0x00, 0x00, 0x00, 0x00,
0x00, 0x00, 0x00, 0x00, 0x00, 0x00, 0x00, 0x00, 0x00, 0x00, 0x00, 0x00, 0x00, 0x00, 0x00,
0x00, 0x00, 0x00, 0x00, 0x00, 0x00, 0x00, 0x00, 0x00, 0x00, 0x00, 0x00, 0x20, 0x00, 0x00,
    0xc0, 0x01, 0x00, 0x00, 0x07, 0x00, 0x00, 0x63, 0x00, 0x00, 0xf9, 0x00, 0x80, 0xff, 0x01,
    0x80, 0xff, 0x01, 0xf8, 0xfc, 0x01, 0xe0, 0xfc, 0x01, 0x80, 0xf9, 0x00, 0x00, 0x70, 0x00,
0x00, 0x00, 0x00, 0x00, 0x00, 0x00, 0x00, 0x00, 0x00, 0x00, 0x00, 0x00, 0x00, 0x00, 0x00,
0x00, 0x00, 0x00, 0x00, 0x00, 0x00, 0x00, 0x00, 0x00, 0x00, 0x01, 0x00, 0x00, 0x02, 0x00,
    0x00, 0x04, 0x00, 0x00, 0x0e, 0x00, 0x00, 0x03, 0x00, 0x88, 0x03, 0x00, 0xd0, 0x7f, 0x00,
    0x60, 0xfe, 0x00, 0x40, 0xfe, 0x00, 0x00, 0xfe, 0x00, 0x00, 0xfe, 0x00, 0x00, 0x7e, 0x00,
0x00, 0x3c, 0x00, 0x00, 0x00, 0x00, 0x00, 0x00, 0x00, 0x00, 0x00, 0x00, 0x00, 0x00, 0x00,
0x00, 0x00, 0x00, 0x00, 0x00, 0x00, 0x00, 0x00, 0x00, 0x00, 0x08, 0x00, 0x00, 0x08, 0x00,
    0x10, 0x18, 0x00, 0x20, 0x18, 0x00, 0x20, 0x3e, 0x00, 0xe0, 0x27, 0x00, 0xc0, 0x06, 0x00,
    0x40, 0x1e, 0x00, 0x00, 0x3f, 0x00, 0x00, 0x7f, 0x00, 0x80, 0x7f, 0x00, 0x80, 0x7f, 0x00,
0x00, 0x3f, 0x00, 0x00, 0x1e, 0x00, 0x00, 0x00, 0x00, 0x00, 0x00, 0x00, 0x00, 0x00, 0x00,
0x00, 0x00, 0x00, 0x00, 0x00, 0x00, 0x00, 0x00, 0x00, 0x40, 0x20, 0x00, 0x40, 0x20, 0x00,
    0x40, 0x20, 0x00, 0x40, 0x26, 0x00, 0xc0, 0x3f, 0x00, 0xc0, 0x36, 0x00, 0x40, 0x26, 0x00,
    0x00, 0x0f, 0x00, 0x80, 0x1f, 0x00, 0xc0, 0x3f, 0x00, 0xc0, 0x3f, 0x00, 0xc0, 0x3f, 0x00,
0x80, 0x1f, 0x00, 0x00, 0x0f, 0x00, 0x00, 0x00, 0x00, 0x00, 0x00, 0x00, 0x00, 0x00, 0x00,
0x00, 0x00, 0x00, 0x00, 0x00, 0x00, 0x00, 0x00, 0x00, 0x00, 0x01, 0x00, 0x00, 0x01, 0x00,
    0x80, 0x81, 0x00, 0x80, 0x41, 0x00, 0xc0, 0x47, 0x00, 0x40, 0x7e, 0x00, 0x00, 0x36, 0x00,
    0x80, 0x27, 0x00, 0xc0, 0x0f, 0x00, 0xe0, 0x0f, 0x00, 0xe0, 0x1f, 0x00, 0xe0, 0x1f, 0x00,
0xc0, 0x0f, 0x00, 0x80, 0x07, 0x00, 0x00, 0x00, 0x00, 0x00, 0x00, 0x00, 0x00, 0x00, 0x00,
0x00, 0x00, 0x00, 0x00, 0x00, 0x00, 0x00, 0x00, 0x00, 0x00, 0x08, 0x00, 0x00, 0x04, 0x00,
    0x00, 0x02, 0x00, 0x00, 0x07, 0x00, 0x00, 0x0c, 0x00, 0x00, 0x1c, 0x01, 0xe0, 0xbf, 0x00,
    0xf0, 0x67, 0x00, 0xf0, 0x27, 0x00, 0xf0, 0x07, 0x00, 0xf0, 0x07, 0x00, 0xe0, 0x07, 0x00,
0xc0, 0x03, 0x00, 0x00, 0x00, 0x00, 0x00, 0x00, 0x00, 0x00, 0x00, 0x00, 0x00, 0x00, 0x00,
0x00, 0x00, 0x00, 0x00, 0x00, 0x00, 0x00, 0x00, 0x00, 0x00, 0x00, 0x00, 0x00, 0x40, 0x00,
    0x00, 0x38, 0x00, 0x00, 0x0e, 0x00, 0x60, 0x0c, 0x00, 0xf0, 0x09, 0x00, 0xf8, 0x1f, 0x00,
    0xf8, 0x1f, 0x00, 0xf8, 0xf3, 0x01, 0xf8, 0x73, 0x00, 0xf0, 0x19, 0x00, 0xe0, 0x00, 0x00,
0x00, 0x00, 0x00, 0x00, 0x00, 0x00, 0x00, 0x00, 0x00, 0x00, 0x00, 0x00, 0x00, 0x00, 0x00,
0x00, 0x00, 0x00, 0x00, 0x00, 0x00, 0x00, 0x00, 0x00, 0x00, 0x00, 0x00, 0x00, 0x00, 0x00,
    0x00, 0x00, 0x00, 0xe0, 0xfc, 0x01, 0xf0, 0x19, 0x00, 0xf8, 0x13, 0x00, 0xf8, 0x3f, 0x00,
    0xf8, 0x3f, 0x00, 0xf8, 0x13, 0x00, 0xf0, 0x19, 0x00, 0xe0, 0xfc, 0x01, 0x00, 0x00, 0x00,
0x00, 0x00, 0x00, 0x00, 0x00, 0x00, 0x00, 0x00, 0x00, 0x00, 0x00, 0x00, 0x00, 0x00, 0x00,
0x00, 0x00, 0x00, 0x00, 0x00, 0x00, 0x00, 0x00, 0x00, 0x00, 0x00, 0x00, 0x00, 0x00, 0x00,
    0xe0, 0x00, 0x00, 0xf0, 0x19, 0x00, 0xf8, 0x73, 0x00, 0xf8, 0xf3, 0x01, 0xf8, 0x1f, 0x00,
    0xf8, 0x1f, 0x00, 0xf0, 0x09, 0x00, 0x60, 0x0c, 0x00, 0x00, 0x0e, 0x00, 0x00, 0x38, 0x00,
0x00, 0x40, 0x00, 0x00, 0x00, 0x00, 0x00, 0x00, 0x00, 0x00, 0x00, 0x00, 0x00, 0x00, 0x00,
0x00, 0x00, 0x00, 0x00, 0x00, 0x00, 0x00, 0x00, 0x00, 0x00, 0x00, 0x00, 0xc0, 0x03, 0x00,
    0xe0, 0x07, 0x00, 0xf0, 0x07, 0x00, 0xf0, 0x07, 0x00, 0xf0, 0x27, 0x00, 0xf0, 0x67, 0x00,
    0xe0, 0xbf, 0x00, 0x00, 0x1c, 0x01, 0x00, 0x0c, 0x00, 0x00, 0x07, 0x00, 0x00, 0x02, 0x00,
0x00, 0x04, 0x00, 0x00, 0x08, 0x00, 0x00, 0x00, 0x00, 0x00, 0x00, 0x00, 0x00, 0x00, 0x00,
0x00, 0x00, 0x00, 0x00, 0x00, 0x00, 0x00, 0x00, 0x00, 0x80, 0x07, 0x00, 0xc0, 0x0f, 0x00,
    0xe0, 0x1f, 0x00, 0xe0, 0x1f, 0x00, 0xe0, 0x0f, 0x00, 0xc0, 0x0f, 0x00, 0x80, 0x27, 0x00,
    0x00, 0x36, 0x00, 0x40, 0x7e, 0x00, 0xc0, 0x47, 0x00, 0x80, 0x41, 0x00, 0x80, 0x81, 0x00,
0x00, 0x01, 0x00, 0x00, 0x01, 0x00, 0x00, 0x00, 0x00, 0x00, 0x00, 0x00, 0x00, 0x00, 0x00};
