#define fed_jumpship_width 20
#define fed_jumpship_height 20
static unsigned char fed_jumpship_bits[] = {
	0x00, 0x00, 0x00, 0x00, 0x07, 0x00, 0x00, 0x02, 0x00, 0x00, 0x02, 0x00, 0x90, 0x0f, 0x00,
	0xe0, 0x3f, 0x00, 0x60, 0x32, 0x00, 0xb0, 0x6f, 0x00, 0xb2, 0x6f, 0x02, 0xfe, 0xff, 0x03,
	0xb2, 0x6f, 0x02, 0xb0, 0x6f, 0x00, 0x60, 0x32, 0x00, 0xe0, 0x3f, 0x00, 0x80, 0x4f, 0x00,
0x00, 0x02, 0x00, 0x00, 0x02, 0x00, 0x00, 0x07, 0x00, 0x00, 0x00, 0x00, 0x00, 0x00, 0x00};
