#define fed_patrol_width 20
#define fed_patrol_height 320
static unsigned char fed_patrol_bits[] = {
	0x00, 0x00, 0x00, 0x00, 0x00, 0x00, 0x00, 0x00, 0x00, 0x00, 0x00, 0x00,
	0x00, 0x0c, 0x00, 0x00, 0x3f, 0x00, 0x80, 0x7f, 0x00, 0x80, 0x7f, 0x00,
	0x00, 0x3f, 0x00, 0x00, 0x1e, 0x00, 0x80, 0x4c, 0x00, 0x80, 0x4c, 0x00,
	0x80, 0x6d, 0x00, 0x80, 0x7f, 0x00, 0x00, 0x12, 0x00, 0x00, 0x00, 0x00,
0x00, 0x00, 0x00, 0x00, 0x00, 0x00, 0x00, 0x00, 0x00, 0x00, 0x00, 0x00,
0x00, 0x00, 0x00, 0x00, 0x00, 0x00, 0x00, 0x00, 0x00, 0x00, 0x00, 0x00,
    0x00, 0x00, 0x00, 0x00, 0x3e, 0x00, 0x00, 0x7e, 0x00, 0x00, 0x7e, 0x00,
    0x00, 0xfe, 0x00, 0x80, 0xfe, 0x00, 0x80, 0x7c, 0x00, 0xc0, 0x0e, 0x00,
    0xc0, 0x26, 0x00, 0x80, 0x37, 0x00, 0x00, 0x1c, 0x00, 0x00, 0x0c, 0x00,
0x00, 0x00, 0x00, 0x00, 0x00, 0x00, 0x00, 0x00, 0x00, 0x00, 0x00, 0x00,
0x00, 0x00, 0x00, 0x00, 0x00, 0x00, 0x00, 0x00, 0x00, 0x00, 0x00, 0x00,
    0x00, 0x00, 0x00, 0x00, 0x1c, 0x00, 0x00, 0x7e, 0x00, 0x00, 0x7e, 0x00,
    0x80, 0xfe, 0x00, 0xc0, 0xfc, 0x00, 0x60, 0xfe, 0x00, 0x40, 0x37, 0x00,
    0xc0, 0x03, 0x00, 0x00, 0x19, 0x00, 0x00, 0x0f, 0x00, 0x00, 0x04, 0x00,
0x00, 0x00, 0x00, 0x00, 0x00, 0x00, 0x00, 0x00, 0x00, 0x00, 0x00, 0x00,
0x00, 0x00, 0x00, 0x00, 0x00, 0x00, 0x00, 0x00, 0x00, 0x00, 0x00, 0x00,
    0x00, 0x00, 0x00, 0x00, 0x0c, 0x00, 0x00, 0x3e, 0x00, 0xc0, 0x7e, 0x00,
    0x60, 0x7e, 0x00, 0x30, 0x7f, 0x00, 0xf0, 0x7f, 0x00, 0xc0, 0x7d, 0x00,
    0x40, 0x00, 0x00, 0xc0, 0x07, 0x00, 0x80, 0x01, 0x00, 0x00, 0x00, 0x00,
0x00, 0x00, 0x00, 0x00, 0x00, 0x00, 0x00, 0x00, 0x00, 0x00, 0x00, 0x00,
0x00, 0x00, 0x00, 0x00, 0x00, 0x00, 0x00, 0x00, 0x00, 0x00, 0x00, 0x00,
    0x00, 0x00, 0x00, 0x00, 0x00, 0x00, 0x00, 0x00, 0x00, 0xc0, 0x33, 0x00,
    0xc0, 0x78, 0x00, 0x60, 0x7c, 0x00, 0xc0, 0xff, 0x00, 0xc0, 0xff, 0x00,
    0x60, 0x7c, 0x00, 0xc0, 0x78, 0x00, 0xc0, 0x33, 0x00, 0x00, 0x00, 0x00,
0x00, 0x00, 0x00, 0x00, 0x00, 0x00, 0x00, 0x00, 0x00, 0x00, 0x00, 0x00,
0x00, 0x00, 0x00, 0x00, 0x00, 0x00, 0x00, 0x00, 0x00, 0x00, 0x00, 0x00,
    0x00, 0x00, 0x00, 0x00, 0x00, 0x00, 0x80, 0x01, 0x00, 0xc0, 0x07, 0x00,
    0x40, 0x00, 0x00, 0xc0, 0x7d, 0x00, 0xf0, 0x7f, 0x00, 0x30, 0x7f, 0x00,
    0x60, 0x7e, 0x00, 0xc0, 0x7e, 0x00, 0x00, 0x3e, 0x00, 0x00, 0x0c, 0x00,
0x00, 0x00, 0x00, 0x00, 0x00, 0x00, 0x00, 0x00, 0x00, 0x00, 0x00, 0x00,
0x00, 0x00, 0x00, 0x00, 0x00, 0x00, 0x00, 0x00, 0x00, 0x00, 0x00, 0x00,
    0x00, 0x00, 0x00, 0x00, 0x02, 0x00, 0x80, 0x07, 0x00, 0x80, 0x0c, 0x00,
    0xe0, 0x01, 0x00, 0xa0, 0x3b, 0x00, 0x30, 0x7f, 0x00, 0x60, 0x7e, 0x00,
    0x40, 0x7f, 0x00, 0x00, 0x3f, 0x00, 0x00, 0x3e, 0x00, 0x00, 0x0e, 0x00,
0x00, 0x00, 0x00, 0x00, 0x00, 0x00, 0x00, 0x00, 0x00, 0x00, 0x00, 0x00,
0x00, 0x00, 0x00, 0x00, 0x00, 0x00, 0x00, 0x00, 0x00, 0x00, 0x00, 0x00,
    0x00, 0x06, 0x00, 0x00, 0x0e, 0x00, 0xc0, 0x1b, 0x00, 0x60, 0x13, 0x00,
    0x60, 0x07, 0x00, 0x40, 0x3e, 0x00, 0x40, 0x7f, 0x00, 0x00, 0x7f, 0x00,
    0x00, 0x3f, 0x00, 0x00, 0x3f, 0x00, 0x00, 0x1f, 0x00, 0x00, 0x00, 0x00,
0x00, 0x00, 0x00, 0x00, 0x00, 0x00, 0x00, 0x00, 0x00, 0x00, 0x00, 0x00,
0x00, 0x00, 0x00, 0x00, 0x00, 0x00, 0x00, 0x00, 0x00, 0x00, 0x00, 0x00,
    0x00, 0x00, 0x00, 0x80, 0x04, 0x00, 0xe0, 0x1f, 0x00, 0x60, 0x1b, 0x00,
    0x20, 0x13, 0x00, 0x20, 0x13, 0x00, 0x80, 0x07, 0x00, 0xc0, 0x0f, 0x00,
    0xe0, 0x1f, 0x00, 0xe0, 0x1f, 0x00, 0xc0, 0x0f, 0x00, 0x00, 0x03, 0x00,
0x00, 0x00, 0x00, 0x00, 0x00, 0x00, 0x00, 0x00, 0x00, 0x00, 0x00, 0x00,
0x00, 0x00, 0x00, 0x00, 0x00, 0x00, 0x00, 0x00, 0x00, 0x00, 0x00, 0x00,
    0x00, 0x03, 0x00, 0x80, 0x03, 0x00, 0xc0, 0x1e, 0x00, 0x40, 0x36, 0x00,
    0x00, 0x37, 0x00, 0xe0, 0x13, 0x00, 0xf0, 0x17, 0x00, 0xf0, 0x07, 0x00,
    0xe0, 0x07, 0x00, 0xe0, 0x07, 0x00, 0xc0, 0x07, 0x00, 0x00, 0x00, 0x00,
0x00, 0x00, 0x00, 0x00, 0x00, 0x00, 0x00, 0x00, 0x00, 0x00, 0x00, 0x00,
0x00, 0x00, 0x00, 0x00, 0x00, 0x00, 0x00, 0x00, 0x00, 0x00, 0x00, 0x00,
    0x00, 0x02, 0x00, 0x00, 0x0f, 0x00, 0x80, 0x09, 0x00, 0x00, 0x3c, 0x00,
    0xc0, 0x2e, 0x00, 0xf0, 0x67, 0x00, 0xf0, 0x33, 0x00, 0xf0, 0x17, 0x00,
    0xe0, 0x07, 0x00, 0xe0, 0x07, 0x00, 0x80, 0x03, 0x00, 0x00, 0x00, 0x00,
0x00, 0x00, 0x00, 0x00, 0x00, 0x00, 0x00, 0x00, 0x00, 0x00, 0x00, 0x00,
0x00, 0x00, 0x00, 0x00, 0x00, 0x00, 0x00, 0x00, 0x00, 0x00, 0x00, 0x00,
    0x00, 0x00, 0x00, 0x00, 0x18, 0x00, 0x00, 0x3e, 0x00, 0x00, 0x20, 0x00,
    0xe0, 0x3b, 0x00, 0xe0, 0xff, 0x00, 0xe0, 0xcf, 0x00, 0xe0, 0x67, 0x00,
    0xe0, 0x37, 0x00, 0xc0, 0x07, 0x00, 0x00, 0x03, 0x00, 0x00, 0x00, 0x00,
0x00, 0x00, 0x00, 0x00, 0x00, 0x00, 0x00, 0x00, 0x00, 0x00, 0x00, 0x00,
0x00, 0x00, 0x00, 0x00, 0x00, 0x00, 0x00, 0x00, 0x00, 0x00, 0x00, 0x00,
    0x00, 0x00, 0x00, 0xc0, 0x3c, 0x00, 0xe0, 0x31, 0x00, 0xe0, 0x63, 0x00,
    0xf0, 0x3f, 0x00, 0xf0, 0x3f, 0x00, 0xe0, 0x63, 0x00, 0xe0, 0x31, 0x00,
    0xc0, 0x3c, 0x00, 0x00, 0x00, 0x00, 0x00, 0x00, 0x00, 0x00, 0x00, 0x00,
0x00, 0x00, 0x00, 0x00, 0x00, 0x00, 0x00, 0x00, 0x00, 0x00, 0x00, 0x00,
0x00, 0x00, 0x00, 0x00, 0x00, 0x00, 0x00, 0x00, 0x00, 0x00, 0x00, 0x00,
    0x00, 0x03, 0x00, 0xc0, 0x07, 0x00, 0xe0, 0x37, 0x00, 0xe0, 0x67, 0x00,
    0xe0, 0xcf, 0x00, 0xe0, 0xff, 0x00, 0xe0, 0x3b, 0x00, 0x00, 0x20, 0x00,
    0x00, 0x3e, 0x00, 0x00, 0x18, 0x00, 0x00, 0x00, 0x00, 0x00, 0x00, 0x00,
0x00, 0x00, 0x00, 0x00, 0x00, 0x00, 0x00, 0x00, 0x00, 0x00, 0x00, 0x00,
0x00, 0x00, 0x00, 0x00, 0x00, 0x00, 0x00, 0x00, 0x00, 0x00, 0x00, 0x00,
    0x00, 0x07, 0x00, 0xc0, 0x07, 0x00, 0xc0, 0x0f, 0x00, 0xe0, 0x2f, 0x00,
    0xe0, 0x67, 0x00, 0xe0, 0xcf, 0x00, 0xc0, 0x5d, 0x00, 0x00, 0x78, 0x00,
    0x00, 0x13, 0x00, 0x00, 0x1e, 0x00, 0x00, 0x04, 0x00, 0x00, 0x00, 0x00,
0x00, 0x00, 0x00, 0x00, 0x00, 0x00, 0x00, 0x00, 0x00, 0x00, 0x00, 0x00,
0x00, 0x00, 0x00, 0x00, 0x00, 0x00, 0x00, 0x00, 0x00, 0x00, 0x00, 0x00,
    0x00, 0x00, 0x00, 0x80, 0x0f, 0x00, 0xc0, 0x0f, 0x00, 0xc0, 0x0f, 0x00,
    0xe0, 0x0f, 0x00, 0xe0, 0x2f, 0x00, 0xc0, 0x27, 0x00, 0x00, 0x6e, 0x00,
    0x80, 0x6c, 0x00, 0x80, 0x3d, 0x00, 0x00, 0x07, 0x00, 0x00, 0x06, 0x00,
0x00, 0x00, 0x00, 0x00, 0x00, 0x00, 0x00, 0x00, 0x00, 0x00, 0x00, 0x00};
