/* XPM */
static char * C13_xpm[] = {
"20 320 7 1",
" 	c None",
".	c #B0B0B0",
"X	c #C1C1C1",
"o	c #D0D0D0",
"O	c #E0E0E0",
"+	c #00FFFF",
"@	c #FF0000",
"                    ",
"                    ",
"                    ",
"                    ",
"         ..         ",
"       ..XX..       ",
"      .XoOOoX.      ",
"      .XoOOoX.      ",
"       .XooX.       ",
"        .oo.        ",
"      X  oo  X      ",
"      .  oo  .      ",
"      .X oo X.      ",
"      +.O@@O.+      ",
"        O  O        ",
"                    ",
"                    ",
"                    ",
"                    ",
"                    ",
"                    ",
"                    ",
"                    ",
"                    ",
"         ....       ",
"        XXoXX.      ",
"        XoOOoX.     ",
"        .XoOoX.     ",
"       X oooXX.     ",
"      .  oo...      ",
"     ..  oo         ",
"     +X oo   X      ",
"      .O@o  .       ",
"       o @O..       ",
"         oX+        ",
"                    ",
"                    ",
"                    ",
"                    ",
"                    ",
"                    ",
"                    ",
"                    ",
"                    ",
"           .        ",
"         .XX..      ",
"         XXoX..     ",
"         XoOOXX     ",
"      .  XoOOoX.    ",
"     .   ooooXX     ",
"    +.X oOoXXX.     ",
"     .Oooo          ",
"     O@@o           ",
"       @OX .        ",
"       O...         ",
"         +          ",
"                    ",
"                    ",
"                    ",
"                    ",
"                    ",
"                    ",
"                    ",
"                    ",
"                    ",
"           ...      ",
"        X .XXX.     ",
"      ..  .XooX.    ",
"     +.   .oOOX.    ",
"     .XX ooooOo.    ",
"     oO@ooOoXoX.    ",
"       @o  ..XX     ",
"      oO.    .      ",
"       ..X.X        ",
"        +.          ",
"                    ",
"                    ",
"                    ",
"                    ",
"                    ",
"                    ",
"                    ",
"                    ",
"                    ",
"                    ",
"                    ",
"      +..X  ..      ",
"      .X   .XX.     ",
"     OO   .Xoo.     ",
"      @oooooOOX.    ",
"      @oooooOOX.    ",
"     OO   .Xoo.     ",
"      .X   .XX.     ",
"      +..X  ..      ",
"                    ",
"                    ",
"                    ",
"                    ",
"                    ",
"                    ",
"                    ",
"                    ",
"                    ",
"                    ",
"                    ",
"        +.          ",
"       .X..         ",
"      oO   X        ",
"       @o   .XX     ",
"     o@oooooXoX.    ",
"     XO  ooooOo.    ",
"     +.   .oOOX.    ",
"      ..  .XooX.    ",
"        X .XXX.     ",
"           ...      ",
"                    ",
"                    ",
"                    ",
"                    ",
"                    ",
"                    ",
"                    ",
"                    ",
"                    ",
"         +          ",
"       O...         ",
"       @OX .        ",
"     O@@o           ",
"     .Oooo          ",
"    +.X oOoXXX.     ",
"     .   ooooXX     ",
"      .  XoOOoX.    ",
"         XoOOX.     ",
"         XXoX..     ",
"         .XXX.      ",
"           .        ",
"                    ",
"                    ",
"                    ",
"                    ",
"                    ",
"                    ",
"                    ",
"                    ",
"                    ",
"         o.+        ",
"       o OX..       ",
"      .O@@X .       ",
"     +..oo   X      ",
"     .X  oo         ",
"      .  Oo...      ",
"      X .oooXX.     ",
"        .XoOoX.     ",
"       .XoOOoX.     ",
"        XXoXX.      ",
"         ....       ",
"                    ",
"                    ",
"                    ",
"                    ",
"                    ",
"                    ",
"                    ",
"                    ",
"                    ",
"        O  O        ",
"      +.O@@O.+      ",
"      .X oo X.      ",
"      .  oo  .      ",
"      X  oo  X      ",
"        .oo.        ",
"       .XooX.       ",
"      .XoOOoX.      ",
"      .XoOOoX.      ",
"       ..XX..       ",
"         ..         ",
"                    ",
"                    ",
"                    ",
"                    ",
"                    ",
"                    ",
"                    ",
"                    ",
"                    ",
"        +Xo         ",
"       ..O@ o       ",
"       .  o@O.      ",
"      X   oo X+     ",
"         oo  ..     ",
"      ...oo  .      ",
"     .XXooo X       ",
"     .XoOoX.        ",
"     .XoOOoX        ",
"      .XXoXX        ",
"       ....         ",
"                    ",
"                    ",
"                    ",
"                    ",
"                    ",
"                    ",
"                    ",
"                    ",
"          +         ",
"         ...O       ",
"        . XO@       ",
"           o@@O     ",
"          oooO.     ",
"     .XXXoOo X.+    ",
"     XXoooo   .     ",
"    .XoOOoX  .      ",
"     XXOOoX         ",
"     ..XoXX         ",
"      ..XX.         ",
"        .           ",
"                    ",
"                    ",
"                    ",
"                    ",
"                    ",
"                    ",
"                    ",
"                    ",
"                    ",
"          .+        ",
"        X.X..       ",
"      .    .Oo      ",
"     XX..  o@       ",
"    .XoXoOoo@Oo     ",
"    .oOoooo XX.     ",
"    .XOOo.   .+     ",
"    .XooX.  ..      ",
"     .XXX. X        ",
"      ...           ",
"                    ",
"                    ",
"                    ",
"                    ",
"                    ",
"                    ",
"                    ",
"                    ",
"                    ",
"                    ",
"                    ",
"      ..  X..+      ",
"     .XX.   X.      ",
"     .ooX.   OO     ",
"    .XOOooooo@      ",
"    .XOOooooo@      ",
"     .ooX.   OO     ",
"     .XX.   X.      ",
"      ..  X..+      ",
"                    ",
"                    ",
"                    ",
"                    ",
"                    ",
"                    ",
"                    ",
"                    ",
"                    ",
"                    ",
"                    ",
"      ...           ",
"     .XXX. X        ",
"    .XooX.  ..      ",
"    .XOOo.   .+     ",
"    .oOoooo  OX     ",
"    .XoXooooo@o     ",
"     XX.   o@       ",
"        X   Oo      ",
"         ..X.       ",
"          .+        ",
"                    ",
"                    ",
"                    ",
"                    ",
"                    ",
"                    ",
"                    ",
"                    ",
"                    ",
"        .           ",
"      .XXX.         ",
"     ..XoXX         ",
"     .XOOoX         ",
"    .XoOOoX  .      ",
"     XXoooo   .     ",
"     .XXXoOo X.+    ",
"          oooO.     ",
"           o@@O     ",
"        . XO@       ",
"         ...O       ",
"          +         ",
"                    ",
"                    ",
"                    ",
"                    ",
"                    ",
"                    ",
"                    ",
"                    ",
"       ....         ",
"      .XXoXX        ",
"     .XoOOoX.       ",
"     .XoOoX.        ",
"     .XXooo. X      ",
"      ...oO  .      ",
"         oo  X.     ",
"      X   oo..+     ",
"       . X@@O       ",
"       ..XO         ",
"        +           ",
"                    ",
"                    ",
"                    ",
"                    ",
"                    "};
