/* XPM */
static char * C12_xpm[] = {
"20 320 7 1",
" 	c None",
".	c #B0B0B0",
"X	c #C1C1C1",
"o	c #D0D0D0",
"O	c #E0E0E0",
"+	c #FF0000",
"@	c #00FFFF",
"                    ",
"       .....        ",
"     .XXXXXXX.      ",
"    .XooOOOooX.     ",
"    .XoOOOOOoX.     ",
"    .XoOOOOOoX.     ",
"    .XooOOOooX.     ",
"    .XooOOOooX.     ",
"     .XooOooX.      ",
"      +XoOoX+       ",
"   +   XoOoX   +    ",
"   .   XoOoX   .    ",
"   @   XoOoX   @    ",
"   @ XXXoOoXXX @    ",
"   @.XXXoOoXXX.@    ",
"   @.XX oOo XX.@    ",
"   ..   oOo   ..    ",
"   .    oOo    .    ",
"        oOo         ",
"                    ",
"                    ",
"         . .        ",
"       .XXXXX..     ",
"       .XooOXXX.    ",
"      ..XoOOOOXX.   ",
"      .XoOOOOOooX   ",
"      .XooOOOOoX..  ",
"      .XooOOOooX.   ",
"    +  +ooOOoooX.   ",
"   .    XoOoooX.    ",
"   @   .oOoo+X.     ",
"   @   XoOoX        ",
"  @.XXXXoOo.        ",
"  @.XXXoOoX    +    ",
" ...  XoOoXX  .     ",
"      oOooXXX @     ",
"      oOo  X..@     ",
"     ooO   ..@      ",
"      o.    .@      ",
"            .       ",
"                    ",
"           ..       ",
"         ..X.X.     ",
"         .XooXX.    ",
"        .XooooXX.   ",
"        XooOOOoXX.  ",
"     +  XooOOOOoXX  ",
"    .   +oOOOOOooX. ",
"   @    XXoOOOOooX. ",
"  @..  XXoOoOoooX.  ",
" @.XXXXXoOoXoooX..  ",
".  ..XXoOoXX+XX.    ",
"     XoOoXX         ",
"    .oOoXX          ",
"   .oOoXXX   +      ",
"   oOo. .X. .       ",
"    o.  .X.@        ",
"         .@         ",
"         @          ",
"        .           ",
"                    ",
"                    ",
"             .      ",
"           ...X.    ",
"       +  ..XXXoX.  ",
"    @@.   .XooooX.  ",
"  @@.     XooOOOXX. ",
" X...    +oooOOOOX. ",
"  .XXX .XXooOOOOOX. ",
"    XXXXooOOOOOOOoX ",
"     oooOOoooooOoo. ",
"   .oOOOoooXooooXX. ",
"  .OOOooXXX+XoXX..  ",
"  OoooXX.    ...    ",
"   o  XX            ",
"      XX    +       ",
"      ...@@.        ",
"     ..@@           ",
"      .             ",
"                    ",
"                    ",
"                    ",
"                    ",
"  ..@@@@.+          ",
"   ...      .....   ",
"    XXX    .XXXXX.  ",
"    XXX   +XoooooX  ",
"     XXXXXXoooOOoX. ",
" oooooooooooOOOOOX. ",
" OOOOOOOOOOOOOOOOX. ",
" oooooooooooOOOOOX. ",
"     XXXXXXoooOOoX. ",
"    XXX   +XoooooX  ",
"    XXX    .XXXXX.  ",
"   ...      .....   ",
"  ..@@@@.+          ",
"                    ",
"                    ",
"                    ",
"                    ",
"                    ",
"     .              ",
"     .@@            ",
"     ...@@.         ",
"      XX   +        ",
"  o   XX            ",
" ooooXXX    ....    ",
" .OOOooXX. +XXX...  ",
"   ooOOoooXooooXXX  ",
"    oooOOOooooOooX. ",
"    XXXoooOOOOOOoX  ",
"  .XXX .XooOOOOOOX. ",
"....X    +ooOOOOXX  ",
" @@.     XoooOOOX.  ",
"   @@.   .XooooXX.  ",
"      +   .XXXoX.   ",
"           ...X.    ",
"             .      ",
"                    ",
"                    ",
"        .           ",
"         @          ",
"         .@         ",
"    o.  .X.@        ",
"   oOo. .X. .       ",
"   .oOoXXX   +      ",
"    .oOoXX          ",
"     XoOoXX         ",
".  ..XXoOoXX+.X.    ",
" @.XXXXXoOoXoooX..  ",
"  @..  XXoOoOoooX.  ",
"   @    XXoOOOOooX. ",
"    .   +oOOOOOoo.. ",
"     +  XooOOOOoXX  ",
"        XooOOOoXX.  ",
"        .XooooXX.   ",
"         .XooX..    ",
"         ..XX..     ",
"           ..       ",
"                    ",
"                    ",
"            X       ",
"      O.   ..@      ",
"     ooO.  X.@      ",
"      oOo XX..@     ",
"  .   oOOoXX  @     ",
" ...XXXoOoX   .     ",
"  @.XXXoOoX.   +    ",
"  @.  .XoOoX        ",
"   @   XoOoX+       ",
"   @   .ooOooX..    ",
"   .   +XoOoooX..   ",
"    +  XooOOoooX.   ",
"      .oooOOOOoX..  ",
"      .XooOOOOoXX   ",
"      .XoOOOOOoo.   ",
"       .XoOOOXXX    ",
"       .XooXXX..    ",
"        ..X...      ",
"                    ",
"                    ",
"         oOo        ",
"    .    oOo    .   ",
"    ..   oOo   ..   ",
"    @.XX oOo XX.@   ",
"    @.XXXoOoXXX.@   ",
"    @ XXXoOoXXX @   ",
"    @   XoOoX   @   ",
"    .   XoOoX   .   ",
"    +   XoOoX   +   ",
"       +XoOoX+      ",
"      .XooOooX.     ",
"     .XooOOOooX.    ",
"     .XooOOOooX.    ",
"     .XoOOOOOoX.    ",
"     .XoOOOOOoX.    ",
"     .XooOOOooX.    ",
"      .XXXXXXX.     ",
"        .....       ",
"                    ",
"       .            ",
"      @.    .o      ",
"      @..   Ooo     ",
"     @..X  oOo      ",
"     @ XXXooOo      ",
"     .  XXoOoX  ... ",
"    +    XoOoXXX.@  ",
"        .oOoXXXX.@  ",
"        XoOoX   @   ",
"     .X+ooOo.   @   ",
"    .XoooOoX    .   ",
"   .XoooOOoo+  +    ",
"   .XooOOOooX.      ",
"  ..XoOOOOooX.      ",
"   XooOOOOOoX.      ",
"   .XXOOOOoX..      ",
"    .XXXOooX.       ",
"     ..XXXXX.       ",
"        . .         ",
"                    ",
"           .        ",
"          @         ",
"         @.         ",
"        @.X.  .     ",
"       . .X. .oO    ",
"      +   XXXoOo.   ",
"          XXoOo.    ",
"         XXoOoX     ",
"    .X.+XXoOoXX..  .",
"  ..XoooXoOoXXXXX.@ ",
"  .XoooOoOoXX  ..@  ",
" .XooOOOOoXX    @   ",
" .XooOOOOOo+   .    ",
"  .XoOOOOoo.  +     ",
"  .XXoOOOooX        ",
"   .XXooooX.        ",
"    .XXooX.         ",
"     ..XX..         ",
"       ..           ",
"                    ",
"                    ",
"             .      ",
"           @@..     ",
"        .@@...      ",
"       +    XX      ",
"            XX  o   ",
"    ...    .XXoooO  ",
"  ..XXoX+XXXooOOO.  ",
" .XXooooXoooOOOo.   ",
" .ooOoooooOOooo     ",
" XoOOOOOOOooXXXX    ",
" .XOOOOOooXX. XXX.  ",
" .XOOOOooo+    ...X ",
" .XXOOOooX     .@@  ",
"  .XooooX.   .@@    ",
"  .XoXXX..  +       ",
"    .X...           ",
"      .             ",
"                    ",
"                    ",
"                    ",
"                    ",
"                    ",
"                    ",
"          +.@@@@..  ",
"   .....      ...   ",
"  .XXXXX.    XXX    ",
"  XoooooX+   XXX    ",
" .XoOOoooXXXXXX     ",
" .XOOOOOooooooooooo ",
" .XOOOOOOOOOOOOOOOO ",
" .XOOOOOooooooooooo ",
" .XoOOoooXXXXXX     ",
"  XoooooX+   XXX    ",
"  .XXXXX.    XXX    ",
"   .....      ...   ",
"          +.@@@@..  ",
"                    ",
"                    ",
"                    ",
"                    ",
"                    ",
"      .             ",
"    .X...           ",
"   .XoXXX.   +      ",
"  .XXooooX.   .     ",
"  .XOOOoooX    @@   ",
"  XXOOOOoo+     .@@ ",
" .XOOOOOOooX.  X....",
"  XoOOOOOOoooXXXX.  ",
" .XooOooooOOOooo    ",
"  XXXooooXoooOOoo   ",
"  ...XXX+ .XXooOOO. ",
"    ....    XXXoooo ",
"            XX   o  ",
"        +   XX      ",
"         .@@...     ",
"            @@.     ",
"              .     ",
"                    ",
"                    ",
"       ..           ",
"     ..XX..         ",
"    .XXooX.         ",
"   .XXooooX.        ",
"  .XXoOOOooX        ",
"  .XoOOOOoo.  +     ",
" .XooOOOOOo+   .    ",
" .XooOOOOoXX    @   ",
"  .XoooOoOoXX  ..@  ",
"  ..XoooXoOoXXXXX.@ ",
"    .X.+XXoOoXX..   ",
"         XXoOoX     ",
"          XXoOo.    ",
"      +   XXXoOo.   ",
"       . .X. .oO    ",
"        @.X.  .     ",
"         @.         ",
"          @         ",
"                    ",
"                    ",
"      ...X..        ",
"    ..XXXooX.       ",
"    XXXOOOoX.       ",
"   .ooOOOOOoX.      ",
"   XXoOOOOooX.      ",
"  ..XoOOOOooo.      ",
"   .XoooOOooX  +    ",
"   ..XoooOoX+   .   ",
"    ..XooOooX   @   ",
"       +XoOoX   @   ",
"        XoOoX.  .@  ",
"    +   .XoOoXXX.@  ",
"     .   XoOoXXX... ",
"     @  XXoOOo   .  ",
"     @..XX oOo      ",
"      @.X  .OoX     ",
"      @..   .O      ",
"       X            ",
"                    "};
