#define fed_warbase_width 20
#define fed_warbase_height 20
static unsigned char fed_warbase_bits[] = {
	0x00, 0x00, 0x00, 0x00, 0x00, 0x00, 0x80, 0x1f, 0x00, 0xe0, 0x76, 0x00, 0xb0, 0xdf, 0x00,
	0xf8, 0xf9, 0x01, 0xe8, 0x70, 0x01, 0xfc, 0xf9, 0x03, 0xb4, 0xdf, 0x02, 0x1c, 0x8f, 0x03,
	0x1c, 0x8f, 0x03, 0xb4, 0xdf, 0x02, 0xfc, 0xf9, 0x03, 0xe8, 0x70, 0x01, 0xf8, 0xf9, 0x01,
0xb0, 0xdf, 0x00, 0xe0, 0x76, 0x00, 0x80, 0x1f, 0x00, 0x00, 0x00, 0x00, 0x00, 0x00, 0x00};
