/* XPM */
static char *noname[] = {
/* width height ncolors chars_per_pixel */
"100 100 25 1",
/* colors */
"` c #000000",
"a c #ADADAD",
"b c #A5A5A5",
"c c #7B7B7B",
"d c #737373",
"e c #6B6B6B",
"f c #313131",
"g c #292929",
"h c #D6D6D6",
"i c #CECECE",
"j c #C6C6C6",
"k c #9C9C9C",
"l c #949494",
"m c #8C8C8C",
"n c #5A5A5A",
"o c #525252",
"p c #FFFFFF",
"q c #4A4A4A",
"r c #F7F7F7",
"s c #424242",
"t c #E7E7E7",
"u c #181818",
"v c #101010",
"w c #BDBDBD",
"x c #B5B5B5",
/* pixels */
"rppppppppppppppppppppppppppppppppppppppppppppppppppppppppppppppppppppppppppppppppppppppppppppppppprt",
"tttttttttttttttrrrrrrrrrrrrrrrrrrrrrrrrrrrrrrrrrrrrrrrrrrrrrrrrrrrrrrrtrrrrtrpppppppppppppppppppppbe",
"rtwxwwwwwwwwjjjjiijjwwwjjjjijiiijiijjjiihhhhiiihhhhhhhiiiiiijjiiiiiijjjwwwjjwwwwxxxwxxwjxxwxaxwjxbcn",
"rtjwxwwwjwjwwjjjjjijjwwjjjiiijihiiiiijjiihhhhiiiihhhhhhiiiiiijjjjiiiijwwwwwwwwxxxxaxxxawjaaxaaawwwen",
"rthwwwwwwwwwwwwjjjiiijwwjjjjiijiiiiiijjjiihhhhiiiihhhhhhiiiiiijjijjiiijwwxwwwwxxxxxaxxaawwaaxabawwee",
"rrhijxxwwwjwjwwjjjjjijjwwwjjjiijiiiiiijjjiihhhhiiiihhhhhhiiiiiijjjjjjjijwxwwwwxxxxxaaaxaawwaaxabawdn",
"rthhijwxwwwjwwwwwjjjjiijwwjjijiiiiiiiiijjjjihhhiiiiihhhhhhijiiijjjjjjjjjwwxxxxwxxxaxaaaaaaxwabxabbde",
"rthiiijwxwwwwjwwwjjjjijijwwwjjjijjiiijjijjjiiihhiiiiiihhhhhiijijjwwjjwwjjwwaxxxxxaxaaabaabbxwbbabbee",
"rthhhhiwwwxwwwjwwwwjjjjijjjwwjijiiiiiiijijjjjihhhiiijihihhhhijiijjjwwjwwjwwxaxxxxxaaaaabaabbxwbbaben",
"priihillmkmmlbxbmmlkllimlllllkwjjmmklkbmxxklllkkwhiiijibxihhijllmlkmmkwlajwbmclmkxaammlccclbkxxbkaen",
"rrhiih```````ol```````w````````mw```````ko```````chiiiu``qihhk````````m`bb```````vam```````ubkxxbkdn",
"pthhii``kkllmbl`nmkkclj``kkkcmu`x`glkkkkjo`ckmkmf`hhin`ns`khijbkd`gllcl`ms`cmlcmn`cc`qmlcmn`ckkaxbne",
"rrhhhi``wjwxxxk`dwxxxxw``jiiijn`c`qwwwxwin`bwwajn`jhj`uxa`uiihiiw`ojwwc`m``xwwxab`nc`kbbbak`qbkkaxen",
"prhhhh```````lc```````w``jjjijo`l```````wn````````iif``````dhiiij`ojwwm`m``xaxxxb`om`mbbbbk`okbllaen",
"rrthhh``nnnnnal`fooonow``jjjjin`k`vnnnnnwn`qonnqu`xl`fnnnnu`wiiiw`nwwwm`c``wxaxxa`oc`cbbbkk`olkbllee",
"rrtthh``iihhhil`lwwwjjw``jjjjis`k`njjjiiio`jijijl`lu`whhiik`eiiij`ojwwm`mu`xxaaak`nc`labkbb`okllklen",
"pthtth``hiiiiik```````x````````gw```````ln`jiijjl`m``iiiiiw`niiix`niwxl`cd````````bc`cbbbkb`okklkknn",
"prhhtt``hhiiiim```````x```````nij```````lq`wjijjl`l``jjiiiw`ojiix`njjwl`lxev````gcxm`ckbbbl`qkkkllen",
"rrthhhthhhhiiiiiiwwwwwwjjwwwwijjjiijjwwjjijjjjiijjjjwwjjiiiijjjjiijjjjwxxxaxabaxabbabblkkbkklklkllen",
"rrtthhhhhihhiiiiiiwxxxwwwjwwwwjjjjiijwwwwjjjjjjjijjwwwwjjiiiijjjjjjjjjjwaaxaabbaaabbabklkkbkkllllknn",
"prhthththhhhiiiijijwwwxwwwjwwwjjjjijjjwwwwjjjjjjijjjjwwwjjiiijjwjjjjwwwjwaaaaabbbabkbbbkllkkklllllen",
"rrhtthhhthhhhiiiiiijwwwxwwjjwwwwjjjiiijwwwwjjjjjjijjjwwwwwjiiijjwwjjjwwwwwaaababkaabkbbbkmlkkkllmmnn",
"prthhtthhhhhihijjiiiiwwwxwwwjwwwwjjjjiijwwwwjjjjjjijjjwwwwwjjiijjwwwwjwwwwxabababkbabkbbkkmmkllmllen",
"rrtttththhthhihhijijijwxwwxwjwjwwwjjjjjjjwwwwjjjjwjijjjwwwwjjjijjwwwjwwwxxwxabbbbblbablkkklmmkllmlnn",
"rrtthhthhhhhhhhhiijijijwwxwwwwjwwwwjjjiijjwwwwwjjjwjjjjjwwwwwjjijwwwwwwwxxwxxbbbkbkkkbklkkklmmlllmne",
"rttttthtthhhthhihiijijijwwxwwwwjwwwjjjjjijjwxwwwjjjwjijjjwwwwwjjjjwxxwwwwxxxxabkbkbklbaklkkkmcmlllnn",
"rrhhththhthhhhhhihiijijijwxwxwwjwjwwwjjjjjjjwwwwwjjjwjjjjwwwwwwjjjjwxxxwxxxaxxabkkkbklkbkllkklcmmlen",
"rrhhtttthhthhhhhhihiijiijjjxwxwwjwwwwwjjjjjjjwwwwwjwjwjjjjwwwxwwwjjwwxxxxxxaaxxabkklbllkblmllllcclnn",
"prhhhhththhthhhhhhihiijjjjjwwwxwwjwwwwwjjjjijwwxwwwjwjwjjjwwwwwxwwjjwwxaxxxxaaaxakkklkkmkblmlllmcmnn",
"rrthhhhtthhhhhhhhhhiiiiiijjjwxwxwwjwwwwwjwjjjjjwxwwwwwwjjjjwwwwxxxwwwwxxaxxxaabaaakkklklmkblclllmcnn",
"rrtthhhhttthhhhhhhhiiiiijijjjwwwwxwjjwwxwjwjjjjwwxxwwjwwwjjjwwwxxxxwwwxxaaxaxaabaabklllklmlbkcmmmmnn",
"rrhtthhhhththhhhhhhhhiiijijjjwwxwwwwwwwwxwjwjjjjjwxxwwwwwwjjjwwwxxxxxwwxaaaaaaabbaablllmkmmlklcmmmnn",
"rthththhhhththhhhhhhhiiiiijijjjwxwxwwjwwwxwjwjjjjwwxxwwwjwwjjjwwxxxxxxwwxaabaaaabkbablllmlmclklcmmen",
"prhhththhhhthhhhhhhhhhiiiiijjjjwwwwxwwwwwwxwwwjjjjwwxxxwwwwwjjwwxxaaaaxxxaabbaabbbkbabmmlmllclkmcmnn",
"rrhhhththhhhtthhhhhhhhhiiiiijjjjwwwwxwwwwwwxwjwwjjjwxxxxwwwwwwjwwxxaxaaxxxaabbbaabbkbbblmmmlmcmkmcen",
"rrthhhhthhhhhhthhhhhhhhhijiiijjjjwwwwwxwwwwwxxjwwjwjwxxxxwwwwwwjwxxaaaaaaxabbbbbbbbkkkbkmmmcmmcmkcnn",
"rththhhthhhhhhhhhhhhhhhhhijiijjjjjwwxwxwxwwwwxxjwwjjwwxxxxwwwwwwwwxxaaaabaxabbkbbbbbkkkbkmmmmmmcmknn",
"rthhthhhtthhhhhthhhhhhihhhijiiijjjwwwwwxwxwwwxxwwwwjjjwxxxxwwwwwwwwxxabaabaxabbkkbbbkklkbkmcccmccmen",
"prihhthhhhthhhhhthhhhhhihhhijiijjjjjwxxwxwxwwwxxwjwwwjjwxxxxwwwxxwwxaaabbabaxakbkkkbbkklkbklcmclccnn",
"rrhiihthhhhthhhhhhhhhhhhihihijiijjjwwwwwxwwwwwwxxxwwjjwjwxxxxwwwxxwwxxabbbbbbxakkkkkbkkllkkkmcccmcnn",
"rrthhihhhhhhthhhhhhhhhhhiihiiijiijjjjwwwxwxxwwwwwxwwwwjwjwxxxxwwwxxxwxaabbbbbbxbkkkkkbkklmkkkmcccmnn",
"pttthihhthhhhhhhhhhhhhhihiihiiijiijjwjwwwxwxxwwwwwxwwwjjwjwxxxxxwxxxxxxaabbbbkbxbkklkkbkklmlklmcccen",
"rphhthiihhhhhthhhhhhhhhhhhhihiijjjijjwjjwwxwwxwwwwwxwwwwjjwwxxxxxxxaxxxxabbkbbkbxbkkllkklklmlkkcccnn",
"rrtththihhhhhhhhhhihhhhhiihiihiiijjijjjwwwwxxwxwwwwxxwwwjwjwwxxxxxxxxaxxaabbkbbkkablkllkkklmmlkkccnn",
"rtthhhthiihhhhhhhhhhihhhhhihiiihijjjjjjwjjwwxwwxwwwwwxwwwjwjwwxxxaxxaaaaxabbkkkbkkabllllkkllmmmklcnn",
"pthtthhthhhhhhhhhhhhhhhhhhiihiiiiiijjjijwjjwwxwwwwwwwwxwwjjjjwwxxxaxxxaaxxabbkkkbkkablllllkllmmmklnn",
"rrhhtthhhhihhhhhhhhhhiihhhhiiiiiiiiijjjjjwjjjwwwwwwjjjwwwjwjjjjwxxxaaxxaaxxabbkkbbkbabmlmlkkllmcmken",
"rrhhhthththiihhhhhhhhhhihhhhihiiiiiijjjijjjjjjwwwwwwjwjwwwjjjijjwxxxaxxxaaxxabaklbbkkxkmlmlkkklmcmen",
"rrthhhthhhhhhihhhhhhhhhiihihhiiiiiiijjjjjjjjjjjjwwjwjjjjwwwjjjjjjwxxxaxxxaaxxaabkkkbkbakmlllkkklmcnn",
"pththihthhhthiihhhihhhhhiihihiiiiiiiiijjjiijiijjjwjjjjjjjjwwijjjjwwwxxaxxxaaxxaabkkbbkbakmlmlkkklmnn",
"rphhthhhtthhhhiihhhihhhhhiiihhhiiijiiiiijjiiijiiijwwjjjjijjwjijjjjwwxwxaxxxaaaxaabklbblbxkmlllkkklnn",
"prtththhhhhhhhhiihhhhihhhhiihiiiiiiijiiijjjiiiiiijjjjjjjjijjjjjjjjjwjxwxaxxxaaxxaabkkbakkxkmmllkblen",
"prthhhthihthhhthiihhhihhhihiihhiiiiijiiiijjiiiijiiijjjjijijijjjijjjwwwwxxxxxxxaxaabbkkbakbakmmmlbknn",
"rrttthhhhhhhhhhhhiihhhiihhhhiiihiiiiijiiiiiiiiiijiiiijijiiiiiijjijjjjwwwwxaxxaxaxaabbkkbalkakclmlben",
"rrhttthhhhhhthhhhhiihhhiihhhiiiiiiiiiijjiijijiiiiiiiiijijijiiiijjijjjwwwwwxaaxaaaaabbkklbakkakcmmlen",
"rrttthtthhhhhhhhhhhiihhhiiihihiihiiijiiiiiiijiiiiijiiiijjjiijiijjjjjjjwwwwxxaaxaaaaabbkklbalkakcmmen",
"rrthtththhthihhhhhhhiiihiiihhiiiiiiiiiiijiiiijiiiiiiiiiijiijiiiijjjjwjwwxwxxxaaxaaaaabbkllkalkalcmnn",
"rththtththhhhihhhhhhhiihhhiiihhiiiiiijiiijiiiijiiiiiiiiiijjijjiijjwjjwjwxwwxxaaaaabbabbkkllkbllalcnn",
"prhtthtththhhhhhhhhhhhiiihiiiihiiiiiiiijiijjiiiiiiiiiiiiiijjiijjijjwwjwwwxxxxxabaaaababbkkllkbllalnn",
"rrhhhtthhthhhhhihhhhhhhiiihiiiihiiiiijiijiiiiijijiiiiiiiiiijjjiijjjjwwwwwwxxxxxabbabbbbbkkkllkbmlaen",
"rtthhhthththhhhhihhhhhhhiiiiiiiihiiiiiiiijiijiijiiiiiiiiiiiijijjjjjjjwwwwwxxxxxaabbbbbbbbkklmmkbmlen",
"prhthhhthththhhhhihhhihhhiiihiiiihiiiiiiiijiijiijiiiiiiiiiiiijijijjjjwwxwwwxxaxxaabbbbbbbbkkllmkbmne",
"rrhhhthhthththhhhhihhhihhhiiiiiiiiiiijiiiiijiijiijjiiiiiiiiiiijjjjjjjjwwxwwxxaaaaabbbbkbkbkkllmmlbnn",
"rrhhhhhhhthhhhhhhhiihhhiihiiiiiijiiiijijiijjijijjijijjiiiijiiijjjjjjwwjwxxxwxxaaaaabkbbkbkbkkllmmken",
"rrhhhhhhhhhthhhhhihijhhiiihiijiiijjiiijjijijjjjijjijjijjiiijjiijjjjjjjwwwxxxxxxaaaaabkkbkkkkklllcmne",
"rtthhhhhhihhhhhhhiihijiiiiiiijjjjijjjiijjjijjjjjjjjjjjjjjjiijjjijjwjwjwwwxxxxxxxaaaabbkkbkkkkklllmnn",
"pthhhhhihhihhhhhhhiiijjiiijjiijjjjjjjjjjjjjjjjjjjjwjjwjjjjjjjjjjjjjwjwjwwwxxaxxaabbbabbkkkkkkkklmlnn",
"rrihhhhiihiihhhhhhiiiijjiijjjjijjjjjjjjjjjjjjjjwjjjjwjjwjjjijjwjjjjwjwjwwwwxaaaxxabbbabkkkkkkkkllmen",
"rthiihhiijiijihiiihijiijwjijjjjjjjjjjwjjjjwjjjwjwwjwwwwwjwjjjjjwjjjwwwwwwwxwxaaxaaabbbbbklkklllklmnn",
"rthhjiiiiijiijihiiiiijjjjwjijjjjjjwwjwwjjjjwwjjwjwwjwwwwwwwwjjjjwwjjjwwwwwwxxxaaaaaabbbbbkllklllklen",
"rtiihjiiiiijiijiiiijiijjiwwjjjwwjwjjwjwwwjwjwwwjwwwwwwwwwwwwwwwwjwwwjwwwwwwwxxxbaaaaakbbbbkllkllllen",
"ptijiijjiijjjjjwjiiijjjwwjwwwjwwwjjwwwwwwwwwwwwwwwwwwwwwwwwwwwjwjwwwwjwxwxwxwxxaabababkkkbkkllllllen",
"rthjjiijjjijjwjijjjjjjjjjwjwwwjwwwwwwwwwwwwwwwwwwwwwxwxwxwxwwwwwwwjwwwwwxwxwxxxxabbababkkkbklmlllmnn",
"rriijjjiwjjjjjwjjwjjjjjjjwwjwxwwwwwwwwwwwwxwwwwxwwwwwxxwxxxwxxxwwwwwxwwwwxxxxxxxaabbbbabkkkkblmlmlen",
"rtiijjwjiwwjjjjwjjwjjjjwwjwwwwxwwxwwwwwwxwwxxwwwxxxxxxxxwxxxxxxxxwwwwxxwwwxxxxxxxaabbbbbbkkkkblmmlnn",
"rtiiijjwjjwwjwwwwwjxwjjwjwwwxwxxwwxxxwwwwxxwxxxwxwxxwxxxxxxxxxxxxxwxwwxxxwxxxxxxaxabkbkbbkllkkklmmen",
"ttjiijjwwwjwwjwwwwwwwwwwwwwwxwwxxxwxxxxxwxxxxxxxxxxxxxxxxxxxxxxxxxxxwxwxxxwxxxxxaxaabkkbkbblllkkmmnn",
"rtwjjijjwwwjxwwjwwwwwxwwwwwwwxxxxxxwxxxxwxxxxxxxxxxxaxxxaxxxaxaaaxxxxxxxxxxxxaaxxaaaabkkbkbklllkkmnn",
"ttxwwjjjwwxwjxxwwwxxwwxwwwwxwxxxxxaxxxxxxwxxxxxaxxxaxaaaxaaxaxaxaaxaxxxxxaxxxxxaaxaaaabkkkkbkllllken",
"rtxxxwjjjwwxwwxxwxwxxxxaxwxxxxxaxxaaxxaaxxxxxaxaaaaxaxaxaaaaaaaaaaaaaaxxxxaaxxaaxaaaaabblkkkkkmlllen",
"rtjxxxwwjwwxxxwxxwxxxxxxxxxxxxxxaaxaaxxaaxxxxxaxaaaaaaaaaaaaaaaaaaaaaaaxaxxaaxxxaaaaababkklkkkkmmlnn",
"ttjwxxxxwwwwxxxwaxxxxxxxxaxxxxxxxaaxaaaxaaaxaxaaaaaaaaaaaaaaaaaaaaaaaaaaxaxxaaaaaaaaaababkllklklmmen",
"rtjwwaaxxwwwxxaxxxaxxaaaxaaaxxaaaxaaabaxaaaaxaaaaabaaaaaaaaaaabbaabaabaaaaaaaaaxaaaaaabbbbkllklklmnn",
"rtwwwwaaxxxwwxxaxxaaaxaaaaaaaaxaaaaaaabbxaabaaaaaaabbbaabababbabbbabbabbbaaaaaabaaabbaabbbkkllllklen",
"ttwwxwxaaaxxxxxxaaxaaaaaaaaaaaaaaaaaababbaaabaaaabbabbbbababbabbbbbabbababaaaaaabaababbabbbkkmlllknn",
"rtwwxwwxabaxxxxaaaaaaaaaaabaabaaaabaabaabbaabbaaaabbbbbbbbbbbbbbbbbbbbbbbbbbaaaabbaabbbbabbkklmmllen",
"ttwwxxxxaabaaxxxxaaaabbabbabbabbababbabbabbaabbbbabbbbbbbbbbbbbbbkbbbbbbbbbbbbbaabbbabbbbbbbbklmmlen",
"ttxxxxxxxabbbaaxaaabaabbbabbbbbbbbbbbbbbbbkbbbbbbabbbbkbkbbbbbbkbbbkkbbkbbbbbbabbabbbbbbbbbkkkklmmnn",
"rtaxxxxaxaabbbaaaaabbbabbbbbbbbbkbbbbbbbbbbkbbbkkbbbbbbkkbkbbkkbkkkkbkkbkbkkbkbbbbbbkbbbkbbbbkkklmnn",
"ttaxxxxaaaxabbbaaaabbbbbbkbbbkbbbkbbbbbbbkbbkkbbkkbbbkkbkkbkbbkkbkbkkkkkbkbkkbkbbbbbbbbbbkkbbkkkllnn",
"ttxaaaaxaaaabbkbbaaabbkbbbkbkbkkkbkkbkbkbbkkbkkbbkkbkbbkbkkkkkbkkkkbkkkkkkkbkkkkkbbbbkkkbbkkkbkkklen",
"ttaaaaaaaabaabkkbbbbbbbkkbkkbkkbkkbkkkbkkbbkkbkkkbkkkbkkkkkkkkkkkkkkkkkkkkkkkkkkkkbkbbkkkbkkkkbklken",
"ttaaabaaaabbbabkkkbbbbbkkkbkkkkkkkkkkkkkbkkbkkkkkkkklkkbkkkkkkkkkkkkkkkkklkkkkkkkkkbkbbkkkkkkkkkkknn",
"ttaaaabbbaabbbbbkkkbbbbbkkkkkkkkkkkkkkkkkkkkkkkklkkkklkkkkkkklkkkklklklklklkkkkkkkkkkbkbkkkkkkkkkken",
"thaaabbbbbbbbbbbbkkkkbkkkklkklllkklkkkkkkkkkkklkkllkkllkkklklklllkklkllkllllkllkllklkkkkkkkkkklkkken",
"ttabbbbbbkbbbkbkbkllkkkbkkkllkklllkllklllkkkkkkllkllkklllkkkllllllklllllllllllllkllklkkkkkllkkkllken",
"ttbbbbbbbkbbbbkkkbklllkkkkkklllllllllllkllklklklllllllllllkllllllllllllllllllllllllllllkkkklllkkllne",
"twbabbbbkblkkkbkkkkkllllkkkllllllllllllllllllkllklllmllllllkllllllllklllllllllllllllllllklkkllllllen",
"jmcneneneneeeeeeeeeeeeeeneeeeeneeneneneeeeeeeneeneneendddeddddddddddddddeddddcdcccccccccccccccccccnn",
"dddeeenenennnnnnnnnnnnnnnnnnnnnnnnnnnnnnnnnnnnnnnnnnnnnnnnnnnnnonnonnnonnnnnooooooooooooooooooooooon"
};
