#define header1_width 300
#define header1_height 79
#define header1_x_hot 0
#define header1_y_hot 0
static char header1_bits[] = {
    0x00, 0x00, 0x00, 0x00, 0x00, 0x00, 0x00, 0x00, 0x00, 0x00, 0x00, 0x00,
    0x00, 0x00, 0x00, 0x00, 0x00, 0x00, 0x00, 0x00, 0x00, 0x00, 0x00, 0x00,
    0x00, 0x00, 0x00, 0x00, 0x00, 0x00, 0x00, 0x00, 0x00, 0x00, 0x00, 0x00,
    0x00, 0x00, 0x00, 0x00, 0x00, 0x00, 0x00, 0x00, 0x00, 0x00, 0x00, 0x00,
    0x00, 0x00, 0x00, 0x00, 0x00, 0x00, 0x00, 0x00, 0x00, 0x00, 0x00, 0x00,
    0x00, 0x00, 0x00, 0x00, 0x00, 0x00, 0x00, 0x00, 0x00, 0x00, 0x00, 0x00,
    0x00, 0x00, 0x00, 0x00, 0x00, 0x00, 0x00, 0x00, 0x00, 0x00, 0x00, 0x00,
    0x00, 0x00, 0x00, 0x00, 0x00, 0x00, 0x00, 0x00, 0x00, 0x00, 0x00, 0x00,
    0x00, 0x00, 0x00, 0x00, 0x00, 0x00, 0x00, 0x00, 0x00, 0x00, 0x00, 0x00,
    0x00, 0x00, 0x00, 0x00, 0x00, 0x00, 0x00, 0x00, 0x00, 0x00, 0x00, 0x00,
    0x00, 0x00, 0x00, 0x00, 0x00, 0x00, 0x00, 0x00, 0x00, 0x00, 0x00, 0x00,
    0x00, 0x00, 0x00, 0x00, 0x00, 0x00, 0x00, 0x00, 0x00, 0x00, 0x00, 0x00,
    0x00, 0x00, 0x00, 0x00, 0x00, 0x00, 0x00, 0x00, 0x00, 0x00, 0x00, 0x00,
    0x00, 0x00, 0x00, 0x00, 0x00, 0x00, 0x00, 0x00, 0x00, 0x00, 0x00, 0x00,
    0x00, 0x00, 0x00, 0x00, 0x00, 0x00, 0x00, 0x00, 0x00, 0x00, 0x00, 0x00,
    0x00, 0x00, 0x00, 0x00, 0x00, 0x00, 0x00, 0x00, 0x00, 0x00, 0x00, 0x00,
    0x00, 0x00, 0x00, 0x00, 0x00, 0x00, 0x00, 0x00, 0x00, 0x00, 0x00, 0x1e,
    0x00, 0x00, 0x10, 0x10, 0x08, 0x08, 0xc7, 0x71, 0x10, 0x00, 0x00, 0x00,
    0x00, 0x00, 0x00, 0x00, 0x00, 0x00, 0x00, 0x00, 0x00, 0x00, 0x00, 0x00,
    0x00, 0x00, 0x00, 0x00, 0x00, 0x00, 0x00, 0x00, 0x00, 0x00, 0x00, 0x00,
    0x00, 0x21, 0x00, 0x00, 0x00, 0x10, 0x08, 0x8c, 0x28, 0x8a, 0x10, 0x00,
    0x00, 0x00, 0x00, 0x00, 0x00, 0x00, 0x00, 0x00, 0x00, 0x00, 0x00, 0x00,
    0x00, 0x00, 0x00, 0x00, 0x00, 0x00, 0x00, 0x00, 0x00, 0x00, 0x00, 0x00,
    0x00, 0x00, 0x00, 0x01, 0xa7, 0x49, 0x95, 0xd5, 0x1c, 0x88, 0x28, 0x82,
    0xd0, 0x24, 0x01, 0x00, 0x00, 0x00, 0x00, 0x00, 0x00, 0x00, 0x00, 0x00,
    0x00, 0x00, 0x00, 0x00, 0x00, 0x00, 0x00, 0x00, 0x00, 0x00, 0x00, 0x00,
    0x00, 0x00, 0x00, 0x00, 0x00, 0x81, 0x68, 0x4a, 0x53, 0x36, 0x09, 0x08,
    0xcf, 0x63, 0x30, 0x25, 0x00, 0x00, 0x00, 0x00, 0x00, 0x00, 0x00, 0x00,
    0x00, 0x00, 0x00, 0x00, 0x00, 0x00, 0x00, 0x00, 0x00, 0x00, 0x00, 0x00,
    0x00, 0x00, 0x00, 0x00, 0x00, 0x00, 0x00, 0x81, 0x28, 0x2a, 0x51, 0x14,
    0x09, 0x08, 0x08, 0x82, 0x10, 0x15, 0x00, 0x00, 0x00, 0x00, 0x00, 0x00,
    0x00, 0x00, 0x00, 0x00, 0x00, 0x00, 0x00, 0x00, 0x00, 0x00, 0x00, 0x00,
    0x00, 0x00, 0x00, 0x00, 0x00, 0x00, 0x00, 0x00, 0x00, 0xa1, 0x68, 0x32,
    0x51, 0x16, 0x09, 0x88, 0x28, 0x8a, 0x30, 0x19, 0x00, 0x00, 0x00, 0x00,
    0x00, 0x00, 0x00, 0x00, 0x00, 0x00, 0x00, 0x00, 0x00, 0x00, 0x00, 0x00,
    0x00, 0x00, 0x00, 0x00, 0x00, 0x00, 0x00, 0x00, 0x00, 0x00, 0x00, 0x1e,
    0xa7, 0x11, 0x91, 0x15, 0x19, 0x08, 0xc7, 0x71, 0xd0, 0x08, 0x01, 0x00,
    0x00, 0x00, 0x00, 0x00, 0x00, 0x00, 0x00, 0x00, 0x00, 0x00, 0x00, 0x00,
    0x00, 0x00, 0x00, 0x00, 0x00, 0x00, 0x00, 0x00, 0x00, 0x00, 0x00, 0x00,
    0x00, 0x00, 0x20, 0x10, 0x00, 0x04, 0x00, 0x00, 0x00, 0x00, 0x00, 0x08,
    0x00, 0x00, 0x00, 0x00, 0x00, 0x00, 0x00, 0x00, 0x00, 0x00, 0x00, 0x00,
    0x00, 0x00, 0x00, 0x00, 0x00, 0x00, 0x00, 0x00, 0x00, 0x00, 0x00, 0x00,
    0x00, 0x00, 0x00, 0x00, 0x20, 0x08, 0x80, 0x03, 0x00, 0x00, 0x00, 0x00,
    0x00, 0x04, 0x00, 0x00, 0x00, 0x00, 0x00, 0x00, 0x00, 0x00, 0x00, 0x00,
    0x00, 0x00, 0x00, 0x00, 0x00, 0x00, 0x00, 0x00, 0x00, 0x00, 0x00, 0x00,
    0x00, 0x00, 0x00, 0x00, 0x00, 0x00, 0x00, 0x00, 0x00, 0x00, 0x00, 0x00,
    0x00, 0x00, 0x00, 0x00, 0x00, 0x00, 0x00, 0x00, 0x00, 0x00, 0x00, 0x00,
    0x00, 0x00, 0x00, 0x00, 0x00, 0x00, 0x00, 0x00, 0x00, 0x00, 0x00, 0x00,
    0x00, 0x00, 0x00, 0x00, 0x00, 0x00, 0x00, 0x00, 0x00, 0x00, 0x00, 0x00,
    0x00, 0x00, 0x00, 0x00, 0x00, 0x00, 0x00, 0x00, 0x00, 0x00, 0x00, 0x00,
    0x00, 0x00, 0x00, 0x00, 0x00, 0x00, 0x00, 0x00, 0x00, 0x00, 0x00, 0x00,
    0x00, 0x00, 0x00, 0x00, 0x00, 0x00, 0x00, 0x00, 0x00, 0x00, 0x00, 0x00,
    0x00, 0x00, 0x00, 0x00, 0x00, 0x00, 0x00, 0x00, 0x00, 0x00, 0x00, 0x00,
    0x00, 0x00, 0x00, 0x00, 0x00, 0x00, 0x00, 0x00, 0x00, 0x00, 0x00, 0x00,
    0x00, 0x00, 0x00, 0x00, 0x00, 0x00, 0x00, 0x00, 0x00, 0x00, 0x00, 0x00,
    0x00, 0x00, 0x00, 0x00, 0x00, 0x00, 0x00, 0x00, 0x00, 0x00, 0x00, 0x00,
    0x00, 0x00, 0x00, 0x00, 0x00, 0x00, 0x00, 0x00, 0x00, 0x00, 0x00, 0x00,
    0x00, 0x20, 0x00, 0x00, 0x00, 0x0f, 0x00, 0x00, 0x00, 0x00, 0x00, 0x00,
    0x30, 0x00, 0x00, 0x00, 0x00, 0x00, 0x00, 0x00, 0x44, 0x00, 0x80, 0x0f,
    0x00, 0x00, 0xa0, 0x00, 0x00, 0x02, 0x20, 0x10, 0x00, 0x00, 0x00, 0x40,
    0x00, 0x00, 0x00, 0x20, 0x00, 0x00, 0x00, 0x11, 0x00, 0x00, 0x00, 0x00,
    0x00, 0x00, 0x08, 0x00, 0x00, 0x00, 0x00, 0x00, 0x00, 0x00, 0x64, 0x00,
    0x40, 0x10, 0x00, 0x00, 0x20, 0x00, 0x00, 0x02, 0x20, 0x10, 0x00, 0x00,
    0x00, 0x40, 0x00, 0x00, 0x00, 0x20, 0x9c, 0xaa, 0x04, 0x21, 0xd3, 0x24,
    0x03, 0x00, 0x00, 0x00, 0x58, 0x6a, 0xac, 0x64, 0x00, 0x00, 0x00, 0xc0,
    0x44, 0xa4, 0x22, 0xab, 0x73, 0xea, 0xa8, 0x8c, 0x81, 0x33, 0xa6, 0x73,
    0x90, 0x4c, 0x82, 0x71, 0x09, 0x00, 0x00, 0x20, 0xa0, 0x99, 0x04, 0xa1,
    0x34, 0xa5, 0x04, 0x00, 0x00, 0x00, 0x48, 0x9a, 0xb2, 0x94, 0x00, 0x00,
    0x00, 0x20, 0x45, 0xa4, 0x95, 0xa4, 0x84, 0x06, 0xb5, 0x52, 0x42, 0x4a,
    0x29, 0x94, 0x90, 0x52, 0x42, 0x4a, 0x09, 0x00, 0x00, 0x20, 0xb8, 0x88,
    0x02, 0xa1, 0x17, 0x15, 0x03, 0x00, 0x00, 0x00, 0x48, 0x8a, 0xa2, 0x64,
    0x00, 0x00, 0x00, 0xc0, 0x44, 0x94, 0x54, 0xa4, 0xe4, 0xc2, 0xa5, 0xcc,
    0x43, 0x7a, 0x21, 0x97, 0x90, 0x4c, 0xc2, 0x4b, 0x09, 0x00, 0x00, 0x20,
    0xa4, 0x88, 0x02, 0xa1, 0x10, 0x15, 0x04, 0x00, 0x00, 0x00, 0x48, 0x8a,
    0xa2, 0x84, 0x00, 0x00, 0x00, 0x00, 0x45, 0x94, 0x54, 0x92, 0x94, 0x22,
    0xa5, 0x50, 0x40, 0x0a, 0xa1, 0x94, 0x90, 0x50, 0x42, 0x48, 0x09, 0x00,
    0x00, 0x20, 0xa4, 0x08, 0x03, 0x91, 0x14, 0x99, 0x04, 0x00, 0x00, 0x00,
    0x48, 0x8a, 0xb2, 0x94, 0x00, 0x00, 0x00, 0x20, 0x45, 0x98, 0x54, 0x92,
    0x95, 0x22, 0xb5, 0x52, 0x42, 0x4b, 0xa9, 0xb4, 0x90, 0x52, 0x42, 0x6a,
    0x09, 0x00, 0x00, 0xe0, 0xd9, 0x08, 0x01, 0x0f, 0x13, 0x09, 0x03, 0x00,
    0x00, 0x00, 0x88, 0x8b, 0x2c, 0x67, 0x00, 0x00, 0x00, 0xc0, 0x44, 0x88,
    0x94, 0x8d, 0x62, 0xc3, 0xaa, 0x8c, 0x91, 0x32, 0x26, 0x5b, 0xe4, 0x8c,
    0x93, 0x51, 0x0e, 0x00, 0x00, 0x00, 0x00, 0x00, 0x01, 0x00, 0x00, 0x08,
    0x00, 0x00, 0x00, 0x00, 0x00, 0x00, 0x20, 0x00, 0x00, 0x00, 0x00, 0x00,
    0x00, 0x08, 0x20, 0x80, 0x00, 0x00, 0x00, 0x00, 0x00, 0x00, 0x00, 0x00,
    0x00, 0x00, 0x00, 0x00, 0x00, 0x00, 0x00, 0x00, 0x00, 0x80, 0x00, 0x00,
    0x00, 0x04, 0x00, 0x00, 0x00, 0x00, 0x00, 0x00, 0x1c, 0x00, 0x00, 0x00,
    0x00, 0x00, 0x00, 0x04, 0xc0, 0x87, 0x00, 0x00, 0x00, 0x00, 0x00, 0x00,
    0x00, 0x00, 0x00, 0x00, 0x00, 0x00, 0x00, 0x00, 0x00, 0x00, 0x00, 0x00,
    0x00, 0x00, 0x00, 0x00, 0x00, 0x00, 0x00, 0x00, 0x00, 0x00, 0x00, 0x00,
    0x00, 0x00, 0x00, 0x00, 0x00, 0x00, 0x00, 0x00, 0x00, 0x00, 0x00, 0x00,
    0x00, 0x00, 0x00, 0x00, 0x00, 0x00, 0x00, 0x00, 0x00, 0x00, 0x00, 0x00,
    0x00, 0x00, 0x00, 0x00, 0x00, 0x00, 0x00, 0x00, 0x00, 0x00, 0x00, 0x00,
    0x00, 0x00, 0x00, 0x00, 0x00, 0x00, 0x00, 0x00, 0x00, 0x00, 0x00, 0x00,
    0x00, 0x00, 0x00, 0x00, 0x00, 0x00, 0x00, 0x00, 0x00, 0x00, 0x00, 0x00,
    0x00, 0x00, 0x00, 0x00, 0x00, 0x00, 0x00, 0x00, 0x00, 0x00, 0x00, 0x00,
    0x00, 0x00, 0x00, 0x00, 0x00, 0x00, 0x00, 0x00, 0x00, 0x00, 0x00, 0x00,
    0x00, 0x00, 0x00, 0x00, 0x00, 0x00, 0x00, 0x00, 0x00, 0x00, 0x00, 0x00,
    0x00, 0x00, 0x00, 0x00, 0x00, 0x00, 0x00, 0x00, 0x00, 0x00, 0x00, 0x00,
    0x00, 0x00, 0x00, 0x00, 0x00, 0x00, 0x00, 0x00, 0x00, 0x00, 0x00, 0x00,
    0x00, 0x00, 0x00, 0x00, 0x00, 0x00, 0x00, 0x00, 0x00, 0x00, 0x00, 0x00,
    0x00, 0x00, 0x00, 0x00, 0x00, 0x00, 0x00, 0x00, 0x00, 0x00, 0x00, 0x00,
    0x00, 0x00, 0x00, 0x00, 0x00, 0x00, 0x00, 0x00, 0x00, 0x00, 0x00, 0x00,
    0x00, 0x00, 0x00, 0x00, 0x00, 0x00, 0x00, 0x00, 0x00, 0x00, 0x00, 0x00,
    0x00, 0x00, 0x00, 0x00, 0x00, 0x00, 0x00, 0xe0, 0x01, 0x02, 0xf8, 0x00,
    0x00, 0x00, 0x00, 0x00, 0x00, 0x00, 0x08, 0x01, 0x00, 0x00, 0x00, 0x00,
    0x00, 0x40, 0x02, 0x40, 0x02, 0x7c, 0x14, 0x10, 0x08, 0x10, 0x00, 0x00,
    0x04, 0x00, 0x38, 0x00, 0x08, 0x00, 0x00, 0x00, 0x00, 0x20, 0x02, 0x02,
    0x08, 0x00, 0x00, 0x00, 0x00, 0x00, 0x00, 0x00, 0x08, 0x01, 0x00, 0x00,
    0x00, 0x00, 0x00, 0x40, 0x02, 0x40, 0x02, 0x82, 0x04, 0x10, 0x08, 0x00,
    0x00, 0x00, 0x00, 0x00, 0x24, 0x00, 0x08, 0x00, 0x00, 0x00, 0x00, 0x20,
    0x72, 0x1a, 0x08, 0x4e, 0x99, 0x9b, 0xd3, 0x00, 0x00, 0x00, 0x08, 0x9d,
    0x9b, 0x1b, 0xa7, 0x00, 0x00, 0xe0, 0x1a, 0xe7, 0x1a, 0x59, 0x95, 0xd5,
    0x5c, 0x53, 0x63, 0xc1, 0x64, 0x90, 0x2e, 0x18, 0x0b, 0x00, 0x00, 0x00,
    0x00, 0xe0, 0x89, 0x26, 0x78, 0xd1, 0xa4, 0x24, 0x34, 0x01, 0x00, 0x00,
    0xf8, 0xa1, 0xa4, 0xa4, 0x68, 0x00, 0x00, 0x40, 0xa6, 0x48, 0xa6, 0x24,
    0x55, 0x36, 0xc9, 0xd4, 0x94, 0x21, 0x95, 0x90, 0x24, 0xa4, 0x0c, 0x00,
    0x00, 0x00, 0x00, 0x20, 0x8a, 0x22, 0x08, 0x51, 0x98, 0x24, 0x17, 0x01,
    0x00, 0x00, 0x08, 0xb9, 0xa4, 0xa4, 0x28, 0x00, 0x00, 0x40, 0xa2, 0x48,
    0xa2, 0x22, 0x55, 0x14, 0x49, 0x54, 0x14, 0x21, 0x64, 0x90, 0x24, 0xbc,
    0x08, 0x00, 0x00, 0x00, 0x00, 0x20, 0x8a, 0x22, 0x08, 0x51, 0xa0, 0xa4,
    0x14, 0x01, 0x00, 0x00, 0x08, 0xa5, 0xa4, 0xa4, 0x28, 0x00, 0x00, 0x40,
    0xa2, 0x48, 0xa2, 0x92, 0x54, 0x14, 0x49, 0x54, 0x14, 0x21, 0x84, 0x90,
    0x24, 0x84, 0x08, 0x00, 0x00, 0x00, 0x00, 0x20, 0x8a, 0x26, 0x08, 0x51,
    0xa4, 0xa4, 0x14, 0x01, 0x00, 0x00, 0x08, 0xa5, 0xa4, 0xa4, 0x28, 0x00,
    0x00, 0x40, 0xa2, 0x48, 0xa2, 0x92, 0x54, 0x16, 0x49, 0x54, 0x94, 0x21,
    0x95, 0x90, 0x24, 0xa4, 0x0c, 0x00, 0x00, 0x00, 0x00, 0x20, 0x72, 0x1a,
    0x08, 0x4e, 0x98, 0x24, 0x1b, 0x01, 0x00, 0x00, 0x08, 0xd9, 0xa4, 0x24,
    0x27, 0x00, 0x00, 0xc0, 0x22, 0xc7, 0xa2, 0x6c, 0x94, 0x15, 0x59, 0x54,
    0x64, 0xc9, 0x64, 0xe4, 0x24, 0x19, 0x0b, 0x00, 0x00, 0x00, 0x00, 0x00,
    0x00, 0x00, 0x00, 0x00, 0x00, 0x00, 0x00, 0x00, 0x00, 0x00, 0x00, 0x00,
    0x00, 0x00, 0x00, 0x00, 0x00, 0x00, 0x00, 0x00, 0x00, 0x01, 0x00, 0x04,
    0x00, 0x00, 0x00, 0x01, 0x00, 0x00, 0x00, 0x00, 0x00, 0x00, 0x00, 0x00,
    0x00, 0x00, 0x00, 0x00, 0x00, 0x00, 0x00, 0x00, 0x00, 0x00, 0x00, 0x00,
    0x00, 0x00, 0x00, 0x00, 0x00, 0x00, 0x00, 0x00, 0x00, 0x00, 0x00, 0x3e,
    0x80, 0x03, 0x00, 0x00, 0xe0, 0x00, 0x00, 0x00, 0x00, 0x00, 0x00, 0x00,
    0x00, 0x00, 0x00, 0x00, 0x00, 0x00, 0x00, 0x00, 0x00, 0x00, 0x00, 0x00,
    0x00, 0x00, 0x00, 0x00, 0x00, 0x00, 0x00, 0x00, 0x00, 0x00, 0x00, 0x00,
    0x00, 0x00, 0x00, 0x00, 0x00, 0x00, 0x00, 0x00, 0x00, 0x00, 0x00, 0x00,
    0x00, 0x00, 0x00, 0x00, 0x00, 0x00, 0x00, 0x00, 0x00, 0x00, 0x00, 0x00,
    0x00, 0x00, 0x00, 0x00, 0x00, 0x00, 0x00, 0x00, 0x00, 0x00, 0x00, 0x00,
    0x00, 0x00, 0x00, 0x00, 0x00, 0x00, 0x00, 0x00, 0x00, 0x00, 0x00, 0x00,
    0x00, 0x00, 0x00, 0x00, 0x00, 0x00, 0x00, 0x00, 0x00, 0x00, 0x00, 0x00,
    0x00, 0x00, 0x00, 0x00, 0x00, 0x00, 0x00, 0x00, 0x00, 0x00, 0x00, 0x00,
    0x00, 0x00, 0x00, 0x00, 0x00, 0x00, 0x00, 0x00, 0x00, 0x00, 0x00, 0x00,
    0x00, 0x00, 0x00, 0x00, 0x00, 0x00, 0x00, 0x00, 0x00, 0x00, 0x00, 0x00,
    0x00, 0x00, 0x00, 0x00, 0x00, 0x00, 0x00, 0x00, 0x00, 0x00, 0x00, 0x00,
    0x00, 0x00, 0x00, 0x00, 0x00, 0x00, 0x00, 0x00, 0x00, 0x00, 0x00, 0x00,
    0x00, 0x00, 0x00, 0x00, 0x00, 0x00, 0x00, 0x00, 0x00, 0x00, 0x00, 0x00,
    0x00, 0x00, 0x00, 0x00, 0x00, 0x00, 0x00, 0x00, 0x00, 0x00, 0x00, 0x00,
    0x00, 0x00, 0x00, 0x00, 0x00, 0x00, 0x00, 0x00, 0x00, 0x00, 0x00, 0x00,
    0x00, 0x00, 0x00, 0x00, 0x00, 0x00, 0x00, 0x00, 0x00, 0x00, 0x00, 0x00,
    0x00, 0xe0, 0x01, 0x00, 0x40, 0x00, 0x00, 0x9e, 0x0a, 0x00, 0x20, 0x00,
    0x08, 0x00, 0x00, 0x00, 0x00, 0x00, 0x00, 0x40, 0x00, 0x00, 0x80, 0x00,
    0x00, 0x1f, 0x00, 0x00, 0x00, 0x00, 0x00, 0x01, 0x00, 0x00, 0x00, 0x00,
    0x00, 0x00, 0x00, 0x20, 0x02, 0x00, 0x40, 0x00, 0x00, 0x21, 0x0a, 0x00,
    0x00, 0x00, 0x08, 0x00, 0x00, 0x00, 0x00, 0x00, 0x00, 0x40, 0x00, 0x00,
    0x80, 0x00, 0x80, 0x20, 0x00, 0x00, 0x00, 0x00, 0x00, 0x01, 0x00, 0x00,
    0x00, 0x00, 0x00, 0x00, 0x00, 0x20, 0xaa, 0xd3, 0x58, 0x4e, 0x03, 0x81,
    0xca, 0x98, 0x26, 0x03, 0x08, 0xa9, 0x89, 0x00, 0x00, 0x00, 0x00, 0x40,
    0x53, 0xa7, 0xb1, 0x9c, 0x46, 0x56, 0xc6, 0x20, 0x99, 0x04, 0x63, 0x25,
    0x00, 0x00, 0x00, 0x00, 0x00, 0x00, 0x00, 0xe0, 0x19, 0x34, 0x65, 0xd1,
    0x04, 0x81, 0x2a, 0xa5, 0xa9, 0x04, 0x08, 0x69, 0x52, 0x00, 0x00, 0x00,
    0x00, 0xc0, 0x34, 0x68, 0xca, 0xa2, 0x29, 0x49, 0x29, 0x21, 0xa5, 0x84,
    0x94, 0x25, 0x00, 0x00, 0x00, 0x00, 0x00, 0x00, 0x00, 0x20, 0x0a, 0x17,
    0x45, 0x51, 0x04, 0xb1, 0xea, 0x99, 0xa8, 0x07, 0x08, 0x25, 0x22, 0x00,
    0x00, 0x00, 0x00, 0x40, 0x14, 0x2e, 0x8a, 0xa2, 0xa8, 0x48, 0x21, 0x20,
    0x99, 0x84, 0x17, 0x25, 0x00, 0x00, 0x00, 0x00, 0x00, 0x00, 0x00, 0x20,
    0x8a, 0x14, 0x45, 0x51, 0x04, 0xa1, 0x2a, 0xa0, 0xa8, 0x00, 0x08, 0x25,
    0x52, 0x00, 0x00, 0x00, 0x00, 0x40, 0x14, 0x29, 0x8a, 0xa2, 0xa8, 0x24,
    0x21, 0x20, 0xa1, 0x84, 0x10, 0x25, 0x00, 0x00, 0x00, 0x00, 0x00, 0x00,
    0x00, 0x20, 0x8a, 0x14, 0x65, 0x51, 0x04, 0xb1, 0x2a, 0xa5, 0xa9, 0x04,
    0x08, 0x26, 0x8a, 0x00, 0x00, 0x00, 0x00, 0xc0, 0x14, 0x29, 0xca, 0xa2,
    0xa8, 0x24, 0x29, 0x21, 0xa5, 0x84, 0x94, 0x25, 0x00, 0x00, 0x00, 0x00,
    0x00, 0x00, 0x00, 0xe0, 0x09, 0x1b, 0x59, 0x4e, 0x04, 0xae, 0xca, 0x98,
    0x26, 0x03, 0x78, 0x22, 0x8a, 0x00, 0x00, 0x00, 0x00, 0x40, 0x13, 0x36,
    0xb2, 0x9c, 0x28, 0x1b, 0xc6, 0xc8, 0x19, 0x27, 0x63, 0x39, 0x00, 0x00,
    0x00, 0x00, 0x00, 0x00, 0x00, 0x00, 0x00, 0x00, 0x00, 0x00, 0x00, 0x00,
    0x00, 0x80, 0x00, 0x00, 0x00, 0x02, 0x00, 0x00, 0x00, 0x00, 0x00, 0x00,
    0x00, 0x00, 0x00, 0x00, 0x40, 0x00, 0x00, 0x00, 0x00, 0x00, 0x00, 0x00,
    0x00, 0x00, 0x00, 0x00, 0x00, 0x00, 0x00, 0x00, 0x00, 0x00, 0x00, 0x00,
    0x00, 0x00, 0x00, 0x80, 0x00, 0x00, 0x00, 0x01, 0x00, 0x00, 0x00, 0x00,
    0x00, 0x00, 0x00, 0x00, 0x00, 0x00, 0x80, 0x0f, 0x00, 0x00, 0x00, 0x00,
    0x00, 0x00, 0x00, 0x00, 0x00, 0x00, 0x00, 0x00, 0x00, 0x00, 0x00, 0x00,
    0x00, 0x00, 0x00, 0x00, 0x00, 0x00, 0x00, 0x00, 0x00, 0x00, 0x00, 0x00,
    0x00, 0x00, 0x00, 0x00, 0x00, 0x00, 0x00, 0x00, 0x00, 0x00, 0x00, 0x00,
    0x00, 0x00, 0x00, 0x00, 0x00, 0x00, 0x00, 0x00, 0x00, 0x00, 0x00, 0x00,
    0x00, 0x00, 0x00, 0x00, 0x00, 0x00, 0x00, 0x00, 0x00, 0x00, 0x00, 0x00,
    0x00, 0x00, 0x00, 0x00, 0x00, 0x00, 0x00, 0x00, 0x00, 0x00, 0x00, 0x00,
    0x00, 0x00, 0x00, 0x00, 0x00, 0x00, 0x00, 0x00, 0x00, 0x00, 0x00, 0x00,
    0x00, 0x00, 0x00, 0x00, 0x00, 0x00, 0x00, 0x00, 0x00, 0x00, 0x00, 0x00,
    0x00, 0x00, 0x00, 0x00, 0x00, 0x00, 0x00, 0x00, 0x00, 0x00, 0x00, 0x00,
    0x00, 0x00, 0x00, 0x00, 0x00, 0x00, 0x00, 0x00, 0x00, 0x00, 0x00, 0x00,
    0x00, 0x00, 0x00, 0x00, 0x00, 0x00, 0x00, 0x00, 0x00, 0x00, 0x00, 0x00,
    0x00, 0x00, 0x00, 0x00, 0x00, 0x00, 0x00, 0x00, 0x00, 0x00, 0x00, 0x00,
    0x00, 0x00, 0x00, 0x00, 0x00, 0x00, 0x00, 0x00, 0x00, 0x00, 0x00, 0x00,
    0x00, 0x00, 0x00, 0x00, 0x00, 0x00, 0x00, 0x00, 0x00, 0x00, 0x00, 0x00,
    0x00, 0x00, 0x00, 0x00, 0x00, 0x00, 0x00, 0x00, 0x00, 0x00, 0x00, 0x00,
    0x00, 0x00, 0x00, 0x00, 0x00, 0x00, 0x00, 0x00, 0x00, 0x00, 0x00, 0x00,
    0x00, 0x00, 0x00, 0x00, 0x00, 0x00, 0x00, 0x20, 0x02, 0x20, 0xe0, 0x09,
    0x00, 0x00, 0x00, 0x00, 0x00, 0x00, 0x78, 0x40, 0x10, 0x04, 0x00, 0x00,
    0x00, 0x40, 0x00, 0x20, 0x00, 0x3e, 0x00, 0x00, 0x00, 0x00, 0x00, 0x02,
    0x00, 0x00, 0x00, 0x00, 0x00, 0x00, 0x00, 0x00, 0x00, 0x20, 0x01, 0x20,
    0x10, 0x0a, 0x00, 0x00, 0x00, 0x00, 0x00, 0x00, 0x88, 0x40, 0x10, 0x04,
    0x00, 0x00, 0x00, 0x40, 0x00, 0x20, 0x00, 0x41, 0x00, 0x00, 0x00, 0x00,
    0x00, 0x02, 0x00, 0x00, 0x00, 0x00, 0x00, 0x00, 0x00, 0x00, 0x00, 0xa0,
    0x48, 0x75, 0x10, 0xca, 0x98, 0x06, 0x00, 0x00, 0x00, 0x00, 0x88, 0x52,
    0xd3, 0x64, 0x0c, 0x00, 0x00, 0x40, 0x4a, 0x75, 0x8e, 0xac, 0x8c, 0x41,
    0x32, 0x09, 0xc6, 0x4a, 0x00, 0x00, 0x00, 0x00, 0x00, 0x00, 0x00, 0x00,
    0x00, 0xe0, 0x48, 0x23, 0x10, 0x2a, 0xa5, 0x09, 0x00, 0x00, 0x00, 0x00,
    0x78, 0xd2, 0x34, 0x95, 0x12, 0x00, 0x00, 0x40, 0x49, 0x23, 0x51, 0x92,
    0x52, 0x42, 0x4a, 0x09, 0x29, 0x4b, 0x00, 0x00, 0x00, 0x00, 0x00, 0x00,
    0x00, 0x00, 0x00, 0x20, 0x49, 0x21, 0x10, 0xca, 0xbc, 0x08, 0x00, 0x00,
    0x00, 0x00, 0x88, 0x52, 0x14, 0xf5, 0x0c, 0x00, 0x00, 0xc0, 0x48, 0x21,
    0x51, 0x91, 0x42, 0x40, 0x32, 0x09, 0x2f, 0x4a, 0x00, 0x00, 0x00, 0x00,
    0x00, 0x00, 0x00, 0x00, 0x00, 0x20, 0x49, 0x21, 0x10, 0x0a, 0x85, 0x08,
    0x00, 0x00, 0x00, 0x00, 0x88, 0x52, 0x14, 0x15, 0x10, 0x00, 0x00, 0x40,
    0x49, 0x21, 0x51, 0x49, 0x42, 0x40, 0x42, 0x09, 0x21, 0x4a, 0x00, 0x00,
    0x00, 0x00, 0x00, 0x00, 0x00, 0x00, 0x00, 0x20, 0x4a, 0x21, 0x10, 0x2a,
    0xa5, 0x08, 0x00, 0x00, 0x00, 0x00, 0x88, 0xd2, 0x34, 0x95, 0x12, 0x00,
    0x00, 0x40, 0x4a, 0x21, 0x51, 0x49, 0x52, 0x42, 0x4a, 0x09, 0x29, 0x4b,
    0x00, 0x00, 0x00, 0x00, 0x00, 0x00, 0x00, 0x00, 0x00, 0x20, 0x72, 0x61,
    0xe0, 0xc9, 0x98, 0x08, 0x00, 0x00, 0x00, 0x00, 0x78, 0x5c, 0xd3, 0x64,
    0x0c, 0x00, 0x00, 0x40, 0x72, 0x61, 0x4e, 0x36, 0x8c, 0x91, 0x33, 0x4e,
    0xc6, 0x72, 0x00, 0x00, 0x00, 0x00, 0x00, 0x00, 0x00, 0x00, 0x00, 0x00,
    0x00, 0x00, 0x00, 0x00, 0x00, 0x00, 0x00, 0x00, 0x00, 0x00, 0x00, 0x00,
    0x00, 0x00, 0x00, 0x00, 0x00, 0x00, 0x00, 0x00, 0x80, 0x00, 0x00, 0x00,
    0x00, 0x00, 0x00, 0x00, 0x00, 0x00, 0x00, 0x00, 0x00, 0x00, 0x00, 0x00,
    0x00, 0x00, 0x00, 0x00, 0x00, 0x00, 0x00, 0x00, 0x00, 0x00, 0x00, 0x00,
    0x00, 0x00, 0x00, 0x00, 0x00, 0x00, 0x00, 0x00, 0x00, 0x00, 0x00, 0x1f,
    0x00, 0x00, 0x00, 0x00, 0x00, 0x00, 0x00, 0x00, 0x00, 0x00, 0x00, 0x00,
    0x00, 0x00, 0x00, 0x00, 0x00, 0x00, 0x00, 0x00, 0x00, 0x00, 0x00, 0x00,
    0x00, 0x00, 0x00, 0x00, 0x00, 0x00, 0x00, 0x00, 0x00, 0x00, 0x00, 0x00,
    0x00, 0x00, 0x00, 0x00, 0x00, 0x00, 0x00, 0x00, 0x00, 0x00, 0x00, 0x00,
    0x00, 0x00, 0x00, 0x00, 0x00, 0x00, 0x00, 0x00, 0x00, 0x00, 0x00, 0x00,
    0x00, 0x00, 0x00, 0x00, 0x00, 0x00, 0x00, 0x00, 0x00, 0x00, 0x00, 0x00,
    0x00, 0x00, 0x00, 0x00, 0x00, 0x00, 0x00, 0x00, 0x00, 0x00, 0x00, 0x00,
    0x00, 0x00, 0x00, 0x00, 0x00, 0x08, 0x00, 0x00, 0x00, 0x00, 0x00, 0x00,
    0x00, 0x00, 0x00, 0x00, 0x00, 0x00, 0x00, 0x00, 0x00, 0x00, 0x00, 0x00,
    0x00, 0x00, 0x00, 0x00, 0x00, 0x00, 0x00, 0x00, 0x00, 0x00, 0x00, 0x00,
    0x00, 0x00, 0x00, 0x00, 0x00, 0x00, 0x00, 0x08, 0x00, 0x00, 0x00, 0x00,
    0x00, 0x00, 0x00, 0x00, 0x00, 0x00, 0x00, 0x00, 0x00, 0x00, 0x00, 0x00,
    0x00, 0x00, 0x00, 0x00, 0x00, 0x00, 0x00, 0x00, 0x00, 0x00, 0x00, 0x00,
    0x00, 0x00, 0x00, 0x00, 0x00, 0x00, 0x00, 0x00, 0x00, 0x0c, 0x00, 0x00,
    0x00, 0x00, 0x00, 0x00, 0x00, 0x00, 0x00, 0x00, 0x00, 0x00, 0x00, 0x00,
    0x00, 0x00, 0x00, 0x00, 0x00, 0x00, 0x00, 0x00, 0x00, 0x00, 0x00, 0x00,
    0x00, 0x00, 0x00, 0x00, 0x00, 0x00, 0x00, 0x00, 0x00, 0x00, 0x00, 0x0f,
    0xff, 0xff, 0xff, 0xff, 0xff, 0xff, 0xff, 0xff, 0xff, 0xff, 0xff, 0xff,
    0xff, 0xff, 0xff, 0xff, 0xff, 0xff, 0xff, 0xff, 0xff, 0xff, 0xff, 0xff,
    0xff, 0xff, 0xff, 0xff, 0xff, 0xff, 0xff, 0xff, 0xff, 0xff, 0xff, 0xff,
0xff, 0x0f};
