/* XPM */
static char *noname[] = {
/* width height ncolors chars_per_pixel */
"100 100 24 1",
/* colors */
"` c #000000",
"a c #ADADAD",
"b c #A5A5A5",
"c c #7B7B7B",
"d c #737373",
"e c #6B6B6B",
"f c #636363",
"g c #DEDEDE",
"h c #292929",
"i c #D6D6D6",
"j c #CECECE",
"k c #C6C6C6",
"l c #9C9C9C",
"m c #949494",
"n c #8C8C8C",
"o c #5A5A5A",
"p c #525252",
"q c #FFFFFF",
"r c #4A4A4A",
"s c #F7F7F7",
"t c #E7E7E7",
"u c #181818",
"v c #BDBDBD",
"w c #B5B5B5",
/* pixels */
"qqqqqqqqqqqqqqqqqqqqqqqqqqqqqqqqqqqqqqqqqqqqqqqqqqqqqqqqqqqqqqqqqqqqqqqqqqqqqqqqqqqqqqqqqqqqqqqqqqsm",
"qsttststtttststssssstsststtsstststtsttttttsttstttsttttttttsttttttttttttttttttgttgtttggtggigggggggild",
"qsjijiigiijjiigiiggggiggiiijigiiiiiiiiijjjjiijijjjgiijjjjjjiiiijkkkvkjjvvvvwvwaawawkvaaaabmbabablblf",
"qsijjjjiiijjjjiiiggggggiiiijiigiiiijiiijjjjjjjjjjkjiijjkjjjjijjjjkvvvkjjvvwvwwwaawaakwabaabmlababbcf",
"qtijjjjijiijkjjiiiiggggigiijjjiiiiiijjijjjkjjjjjjjkjiijjkkjjjjjjjkkvvwvkkvwvwwwwbawaakwbbaalmlbbbbdo",
"qsjjjjjjjiiijjjjiiiigggiigiiijjiiiiijjjijjjjjjjjjjjkjijjjkkkjjijkkkvvvwvjkvwwwwwabawbavwbbbammlbbbdo",
"qsijjjkjjjjijjkkjjiiiiggiiiiijjjiiiiiijjijjjkjjjjjjkkkijjkkkkjjjjkkkvvwwvkkwwwawwalbwbavwblbamnmblco",
"qtgijjjjkjjijijkjjijiigiggiiijijjjiijjijjjjjjkkjjkjjjkkijjkkkjkjjjkkvwwwwvkvwawaawalbabbvwllbbmnmbdo",
"qsjiijjjkjjjjjjjkkjjiiiigiiiiijjjjiijiijjjijjkkjjjkjjkkjjjjkkkkkjjjkkvwwawvkvaawaaaalbalbwalmlbmcmdo",
"qsjjiikjjppcijijjprmjjnpfggiiiijjjpfmjipoppoppfckkjjkjnpopofpoprkkkkcoprpprewvaacrrprrrronvalmlbmcdo",
"qsikjiijj``pkjjjv``cjje``iigiiiijj``oij``````````akkju``````````kkku`````````vvbr`````````ewalmllmeo",
"qsgijjijj``pkjjjv``bkjp``iigiiiiij``fji``ufpoor``pkjc``hprropoopkkc``hfrprr``rvvp``rpopp```bwbmnlleo",
"qsggikjij``okkkjd``vkkp``iiiiiijji``pjj``pijjjjr``kkp``jjkkkjjjkvvo``jkvvwar``wvp``bbbabd``nlwbmnmdo",
"qstggikji``````````jkko``jjiiiiiji``ojj``fjijjjr``kko``kk````hlkvvr``vkkwwwp``bwo``bbblbc``bmmwbmndo",
"qsigggijj``````````cjkf``jjjiiiiji``fkj``pjjjjjo``kko``kk``````nkkp``vwvkwwr``lbr``llbblm``lbnmabneo",
"qsggggiik``hnamlc``hjjo``kjjjjiiii``ojj``pijijjf``jkf``kvmlbc``hkvr``vvwvkwp``blr``wlllbc``nmlnmaldo",
"qstgggggi``oikjkko``jjp``kkvkwvjii``ojj``ojjjjjf``jke``bwwwvwu`ujko``lbabvwu`ubbp``valmlc``mnnlnmado",
"qsgggiggi``oijkjko``kjp````````rii``ojj``pkjijjo``jja``````````dkkw``````````cblr``awalmc``mmnnlcmco",
"qsggggigg``pjijkjr``kko````````pji``pjj``okkjjjp``kkjc````````pvwvjc````````pwaar``mbwamc``llmcnlcdo",
"qstggggigjjjkkijkkvwvkvavvvwwvwkjjjkjjjkvkkkkjjjkijjkjjvvwvvwkkkvwvkkavbbwbavvaallmmmbwallllmllccleo",
"qsggggggigiiikjijkkkkvkkkkkkvvkkjjjjijjjjjkkkkjjjjjjkjkkkvvvkkkkvwwvkvaaaawaawvaabmlmmbwbnnmmmmmcndo",
"qsiggggggigiiikkijkkkvvkkkkkkvvkkkjjjiijjjjkkkkkjkkjkkjkkkvvvkvkkvwavkvaaabwabwwablmlnmlwannmnmmmceo",
"qstiggggggigiiikkijkkkvvkkkkkkvvkkkjjjijjkjjkkkkkjjkjjkjkkkvvvkvkvvaawkvaaabaabwwablmmnnlwbncmnnmneo",
"qsgggiggigiiigijkjjjkkkvvkkkkkvvvvkkjjjjjjkjkkkkkkjjkjkkkkkvvvvvvvvvwbwvvbabbaabwwbblmmnnlabnnnnnmeo",
"qsigggigggggiigijkkijkkkvvvkkkkkvvkkkjjjijjjjkkvkkkjkjkjkkkvkvvvvvvvwabwvwbbbbablwwbbmnmnnlabccnnndo",
"qsiigggigiigiiiiijkkjjkkvvvvkkkkvvvvkkjkjjjjkjkkvvkkjkkkkkkkvvvwvwwvvwabwvwbbllablwwlbmnncnlabccnceo",
"qstgiggigggiggigiijkkjkkkvvvvkvkkvwvvkkkjjjjjkjjkvvvkjkkkkkkkkvvwwwwwwwblwvwbbllbblawllmnmccmabccneo",
"qsgtiigggigiigiiiiijkkjjkkvvwvkkvkvvvvkkkkjjjjkkkkvkvkjkkkkkkkvvwwwwwwwwblavalbllbbmawllmcnncmalcceo",
"qsjgtiiggiigiigiiiiijkkjkkkvvwvvkkvvwvvvkkjjjjkkjkkvkvkjkkkkvkkvvwwaawawwblavallllbbmawllmcnccmblceo",
"qsgjgtiiggiigiigiiiiijkkjkkkvvwvvvkkvwvvkkkkjjjkkkkkvvvkjkkkkkkkvvwaaaaaaabmavallmmblmballncnccmblfo",
"qsggjgtiiggiiiiigiiiiijkkjkvkvwwvvvvvvwwvvkkkkjjjkkkkvvvkkkkkkvvvvwwaaaaaaalmbvamlmmblnaammnccccmbdo",
"qsiggjggiiggiiiiiiiiiijjkkjkkkvwwvvkvvvwvvvkkkkjkkkkkvvvvkkkkkkkvvwwaabbbaaalmbwammmnllnbwmmnccccndo",
"qsgiggjgtijggiiiiiiiiiiikkkjkvkvwwwvvkvvwvvvkkkjjkkkkkvvvvkkvkkvvvvvwabbbbbaamnbwbmmmnllnbammcccdddo",
"qsggigijggiiigiiiiiiiiiijjkkjkkkvwwwvvvvvwwvvkkkkjkkkkkvvvvkkkkkvvvwwaabbbbbaamnbwbnmmnlmnbammcccdfo",
"qsggiigijggiiggiiiiiiiiiijkkkkkvkvwwwvvvvvwwvvvkkkjkkkkkvvvvvkvvkvwvvwabbblbbbblcbwbnmnnlmclammcdcfo",
"qsggggigijggiiiiiiijjiijijikkkkkvvvwwwvvvvwwwvvvvkkkkkkkkvwvvkkvvvvwwwaabbllllbblclwlnnncllclbnncdeo",
"qsgtigiigijggijgiiiiijiiiijjkkkkkvkwwwwvvvvvwwvvkvkkkkkvkkvvwvvkvvvvwwwwallllllbbmclwlcnnclmcbbnncfo",
"qsgggggiigijggijgiijijjjjiijjkkkkkvvvawwvvvvwwwwvkkkkkkkkkkvvwvvkwvvwwwaaabllllllbmclwlcnncmmclbnnfo",
"qsggggigiigijggijiiiiiijijjijjkkkkkvvvwwwvvvvwwwwvvkkkkkkvkvvvvwvvwvvwwwwabllmmlllbnclwbccncmnclbneo",
"qsiigggigiiiijggiiiiijjijjijijjkvkkkvvwwwwvvvvwwwvvvvkkkkkkkkvvvwvvwwvwaawabllmmmmlbncmwlncncmnclbeo",
"qsgjgggggiiiiijggijiiiijjjjjijjjkkvkkvvwwwvvvvvwwwwvkkkkkkkvkvvvwwvwwwwwaaaablmmmmmllncmwmccncmndlco",
"qstgjigggigiiiijigijiiiijijjjijjjkkvkkvvwwwwvvvvvwwvvvvkkkkkkkvvvwwvwawwaaaaablmmmmmllccmwlccccnnddo",
"qsttgiiiggiiijiijigijiiijjjjjjijjjkkvkkvvvwwvvvvvwwwwvvkkkkkkkkvvwwwwwawwaaaaalmmnnmmlbcdmalccccnnfo",
"qsggtiiigggiiijiijigjjjiiijjjjjjjkjkkvkkvvvwwvvvvvvwwvvvvkkkkkkkvvwwwwaawwaaaabbmmnnnnmbcdmamccccneo",
"qsgtgtiiiiggiiiiijjggjijiijjjjjjijjkkkvkkvvvwwvvvvvwwwvvvkkkjkkvvvwwawwaaawabaablmnnnnnmlcdmamdccddo",
"qsgggtggjiiggiiijijjigjjjiijjjjjjjjjkkkvkkvvwwwvvvvvwwwvvvvkkkkkvvwwwwwwabawabaaalmnncnnmlcdmamcccfo",
"qqgggggtiiiiiiiiijijjigijjjijkjjjjjjjkkkvkkvvvwvvvvvvvvwvvkkjkkkvvvwwawwwabwwaaaaabmmmcnnmlcdmwmcceo",
"qstgggggggjigigjiijiijiijjijijjkkjjjjjkkvkvkvkvvwvvvvvvvwvvkkkkkkvvvwwawwwbbwwaaaaabmmnccnllcdmamceo",
"qtgtggggggiiiiiiiiijijjigjjjjijjjkjjjjjkkvvkkvkvvwvvvkkvvwvkkjkkkkwvvwwwwwwbbwwaaaaabmnnnnnmlcemwnfo",
"qsvgtggggggijiiiijijjijjiijjjjijkjkkjjjjjkvvkkkkkvvvkvkkkvvvkkjkkkkwwwwawwwwabwwbbbaabmnccnnmlcemwdo",
"qskvgtgiggggijiiiiijijijjiijjjjijkjkkjjjjkkkvkkkkkkvvkkkkvvvkkkkkkkvwwvwwawwwbbawabaawbmmnncnmbcemco",
"qsgkvitggigggijiiiijjijjjjiijjjjijkkkkjjjjkkvkkjkkkkvkkkkvkkvvkkkkvkvwwvwawwwwblawbbaaabmnncncmbcddo",
"qqtgkvgtgiggggijiiiiijijijjiijjjjjjkkkkjjjjkkkkjjkjkkvkkkkkkkvkkvvkvkvwwvwawwvwblawbaaaabmnncnnmlcfo",
"qsttgkvgggiiiggijiiiijjjjjjjiijjkjijkkkkjjjjkkkkjjkkkkkkjkkkkkkkkkkkvkvwwvwawwwwbmawbaaaabmnnccnmbeo",
"qsgttgkvgggggigiijjiiijijjjkjiijjkjijkkkkjjjjjkkkkjkjkkkkjkkjjkkkkkkvvkvwwvwawwwwlmawabaaabmmncncmdo",
"qstgtggkvgggiigiiijjiiijjjjjkjiijjkjjjkjkkjjjjjjjkjjkjjkkkkjkkjkvkkvkvvkvawwwawwwalmaabbbaabmnnccndo",
"qqtggtggkkiggiiggiijiijijjjjjjjiijjkjjjkkkjjjjjjkjkkjkkjkkjkjjkjkvkkvkvvkvawwwaawwalmaabbbaabmnncceo",
"qsttggtggkkiggiiiigijjiiijjjjjkjiijjkjjjkjkkjjkjjkjkjjkkjkkkkjkkjkvvkvvvwkvaawaaawaammbabbbbalnncceo",
"qsgttgggtikkiggigiiiijjjjijjjjjkkijjjkjjjkjkkjjjjjjkkjjkkjkkkkjkkkkvvvvvvwvwaawabawaammbalbbbabnnceo",
"qstgttgggtikkiggiiiiiijjiijjjjjjkjjjjjkkjjkjkjjjkjjkjkkjkjkkkkkkkkkkvvvwvwvvwbaaabaaabmnballbbalnneo",
"qstgtgtggtgikvigiiiiiijjjjijjkjjjkjjijjkjjkjjkkjjjjjjkkjjkkjkkkkkkkkkvvvwvwwvwbaaalaaabmnbalblbblceo",
"qsgtggtgggtgikkigiiiiiijjjijjjjjjkkjjjjjkjjkkjkjjjjjjjkkjjkjjkjkkkkkkvvwvwwwwvwbaaalaaabnnlallbbaleo",
"qsggtggtgggtgikvigiiiijijjjijjkjkjkkjjijjkkjjkjkkjjjjjjjkjjkkjkkkkkvkkvvwwwwwwvwlbablbaabnclblllbbdo",
"qsggggggggiiggikvjiiiiijijkjjjjjkkjkkkjjjjjkjkkkkkjjkkjkjkkjjkkkkkkvvkkvwwwwwawvwlbablbbabnnlblllbco",
"qsgiiggigggiggiikvjijjijjjjkkjjkkkkkkvkjjjkkkkkkkkkjjkjkkkkkkkkkkkvkvvkvvwwwawaavalbabmbbbbccbbmlldo",
"qsggiiigiggiiigiivvjijjjjjjkkkjjjkkkkkkkjjjkkkjkkkvkjkkkkkkkkjkkkkkkkvvkkwwawaawavallabmbbabcclbmldo",
"qsjggiiiiiigijiiijvvkjjjjjkjkkkkkkkkvkvvkkjjkkkkvkkvkjkkkkkkkkkvkkkvvvvvvkwwaaaaaawamlalmlbabcclbmdo",
"qsijiijjiiiiiijiiijvwkjkkjkkkkkkkkkkvkvkvvjkkkkvkvvkvvkkvkkkvvkkvvkvkvvwvkvwwaabaaavamlalmlbbbcclldo",
"qsgijiijjjijiiijjjjjvwkjkkkkkkkvkkkvvkvkvvvkjkkvvkvvvvkkkvkvkkvvkvvkvvvkwwkvwwaabaaawbmlblmlbblccmdo",
"qsigijiijjjijjijjjjjkvwvjkkkkvkkvvkkvvvvvvvvkkkkvvvvvvvvkvvkvvvvvvvvvvvvvwwvvwaaabbaawbnlblnlbbmccdo",
"qsjiijkjjjkjjjjijkkjkkvwvkkvkkvvkvvkvvvvvvvwvvkvvvvvvvvwvkvvvvvvvvvvvvvvvvwwvwwaablbbawbnlbmnmbbmcfo",
"qtjjjijkjjjkkjkjjjkkjkvwwvkvvkvvvvvvvvvvvvvvwvvkvvwwvwvvwvvvvvvvvvvvwvvvvwvwwvwwaablbbawlnmbmnmlbmfo",
"qsjjjjijkjjkkkjkkjkkkkkvwavvvvvvvvvvvvvvvwvvwwvvvvvwwvwvvwvvvvvwvvvvvwvwwvwvwwvwwbablbbbwlnmbmcmlbdo",
"qtjjkkjjkkkjkkkkkkkkvkkvvwawvvvvvvvwwvvvvwwvvwwwvvvvwwwwwvwwvwvwwwwvwvwwvwvwwawvwwbbbmlbbwlcmbmcmldo",
"qtvjkkkkjjvkkvkkkvkkkvvkvvwawvwvvvwwvwwwvvwwwwwwwwvvwwwwwwwwwvwwwwwvwwwwwwwwwwaavwwbbbllbbwbcmbmcmdo",
"qswvkkvkkjkvkkvvvkvvkvvvvvwaawvwwvvwwwvwwvwwwwwwwwwwwwwawawwwwwwwwwwwwwwwwwwwwwaavwabblmllbwlcmlmcdo",
"qskwvkkvkkkkvkkvvvvvvvvwvvvwaaavwwvwwwwwwwvwwawwaawwvwwawwawwawwwwwwwwwwwwwwwwwwaawwabblmlllwlcmlneo",
"qtjkwwkvvvkkvvvkvvvvvvvvwwvwwaaawwwwwwwwwwwwwwaawaaawwwwaawaawawwwaawwwwwaawwwwawaawwabllmmllwmcnleo",
"qsjkvwwkvvvvkvvvvwwvwvwvvwwwwaaaawwwwwaawawwwwwaaaaaawwaaaaaaaaaaawaaaaawwwaaaawawbawabbllmmllwmcndo",
"qtkkkvawvvvvvvvwvvwwwwwwwwawwwaabaaaawwwwawawwaaaaaaaawawaaaaaaaaawaaaawaaaaaaaawaabawwblllnmllamddo",
"qskkkkvawvvwvvvvwvvwwwwwwwwaawaaabaaaawaaaaaawwaaababaaaaaabaabaaaaaaaaaaaawaaaaawawbbwabllmnmmlamfo",
"qtjkkvkwaavwwwvvwwwwawwawwwaaawaaabaaaaaaaaaaaawaabbabbaaaaabbabbbbaaaaaaaaaaabaaaaaabawabllmnmmlado",
"qtvkvkvvwaawwwwwvwawwaawaaawabaaaabbbaaawaabaaaaaaabbbbbaaaaabbbbbabbaabaabaaaabbaaaaalbwabllmcnmlco",
"qsvvkvvvvwaawwawwwwawaaaaaaaaabaaaabbbbbaaaabbbaaaabbbbbbbbabbbbbbbbbbaabbabbababbbaaaalbwablmmnnmdo",
"qtvvvvvvvwwbawaaawwaaaabaaabaaabbabbbbbabbaababbaababbbbbbbbabbbbbbbbbbbabbbbbabbbbbaabalbabbmmmcneo",
"qtkvwvvvwvwwbbwwaaawaaaabbbabbabbbabbblbbbbabbbbbbabbbbblbbbbbbblblbbblbabbbbbbabbbbbbaaalbwbbmmncdo",
"qtwvwwwvwwwwabbaaabaaabbabbbbbbablbbbbblbbbbbbbbbbbbbbllbllbbbbbbllbllblbbbbbbbbbbblbbbbballwblmmneo",
"qtwwvwwwwwwwwabbaabbbaabbbblbblbbbblbblbllbbbbblbllbbbbbllllllbblblllblbllbbblblbbbbllbbbbbllwblmmeo",
"qtvwwwwawwwwaaabbbabbbbbbbbllbblbbbllbblbllblbbbllblbbblllblllllblllllllbllblblbllblbllbbbbbllwblndo",
"qtwwawwaawwaaaablbbbbbbbbbbblllbllbbllbllllllllbblllllbbllllllllllblllllllllbllllllllblllbbbbmlableo",
"qtawwaawaaawaaaabllbbllbbblllllllllllmlbblllllllllllllllblllllmmllllllmlllllllbllllbllllllbbbbmlabdo",
"qtbbaabaaaaaaaaabblllblllbllllmlllllllllllllmlllllllllllllllmlmlmlllllmmlmllmllllllllllllmllblbmlaco",
"qtabbaabaabbaaabbbbllllllllllllmllllmllllllllmmlmlllmlmlmlllmmlmmmllmlmmmlmmlmmllllmllllllmllblbnmco",
"qtaabbaabbabbbababllmllllmlllmllmmlmmlllmlllmlmmlmmllmmlmllllmmmmmmmlmlmmmmmmlmmllmlmmllmmmmmlblbndo",
"qtbbbblbabbabbbbbbbblmmllmmmllmlmmmmmmmllmmmlmmmmmmmlmmmmmmmlmmmmmmmmmmmmmmmmmmmmllmmmmlmmlmmmlblldo",
"qtwbbbllbbbbbblbbbllllmmlmmmmlmmlmmmmmmmmlmmmmmmnmmmnlmmmmmmmmmmnmmnmmmmmmnmmmmmmmmmmmmmlmmmmmmllldo",
"qtaablbllbbllbbllbllllmmmmmmnmmmmmmnnmmmmmmmmmmmmnnmmnmmmnmmmmmmnmnmnnmmmmmnnmnmmnmmmmmmmmmmmmnmlldo",
"qgaaabllllbbllblllllllmmnmmmnnmmmmmmnnmmmmmmmmmmmmnnmnnmmnnmnmmmmnnmnnnmmmmmnnmnnmnnmmmnmmmmmmmnnldo",
"tlcdcddddddddddddddddddddeeedeeeededeeedeedddededeeeedeeddeedededdeedeeeeededeeeeedeededeeddededeecf",
"cdeeeeeeeefeeeeeeeeeeeeeefefefefefefefeffefffefeffeefffefffeffffeffeffeffefeffeffeffeffefeffeffefefo"
};
