/* XPM */
static char * noentry_xpm[] = {
"100 100 2 1",
" 	c None",
".	c #FFFF00000000",
"                                                                                                    ",
"                                                                                                    ",
"                                                                                                    ",
"                                                                                                    ",
"                                                                                                    ",
"                                                                                                    ",
"                                                                                                    ",
"                                                                                                    ",
"                                                                                                    ",
"                                                 .                                                  ",
"                                         .................                                          ",
"                                     .........................                                      ",
"                                  ...............................                                   ",
"                                ...................................                                 ",
"                              .......................................                               ",
"                            ...........................................                             ",
"                           .............................................                            ",
"                         ........................ .......................                           ",
"                        ..................               ..................                         ",
"                       ...............                       ...............                        ",
"                      ..............                           ..............                       ",
"                     .............                               .............                      ",
"                    ............                                   ............                     ",
"                   ............                                     ............                    ",
"                  ............                                       ............                   ",
"                 ...........                                         ............                   ",
"                 ..........                                         ..............                  ",
"                ..........                                         ................                 ",
"               ..........                                         ..................                ",
"               ..........                                        ...................                ",
"              ..........                                        .....................               ",
"              .........                                        ...........  .........               ",
"             .........                                        ...........    .........              ",
"             .........                                       ...........     .........              ",
"            .........                                       ...........       .........             ",
"            .........                                      ...........        .........             ",
"            ........                                      ...........          ........             ",
"           .........                                     ...........           .........            ",
"           ........                                     ...........             ........            ",
"           ........                                    ...........              ........            ",
"           ........                                   ...........               ........            ",
"          .........                                  ...........                .........           ",
"          ........                                  ...........                  ........           ",
"          ........                                 ...........                   ........           ",
"          ........                                ...........                    ........           ",
"          ........                               ...........                     ........           ",
"          ........                              ...........                      ........           ",
"          ........                             ...........                       ........           ",
"          ........                            ...........                        ........           ",
"         ........                            ...........                         ........           ",
"          ........                          ...........                          ........           ",
"          ........                         ...........                           ........           ",
"          ........                        ...........                            ........           ",
"          ........                       ...........                             ........           ",
"          ........                      ...........                              ........           ",
"          ........                     ...........                               ........           ",
"          ........                    ...........                                ........           ",
"          .........                  ...........                                .........           ",
"           ........                 ...........                                 ........            ",
"           ........                ...........                                  ........            ",
"           ........               ...........                                   ........            ",
"           .........             ...........                                   .........            ",
"            ........            ...........                                    ........             ",
"            .........          ...........                                    .........             ",
"            .........         ...........                                     .........             ",
"             .........       ...........                                     .........              ",
"             .........      ...........                                      .........              ",
"              .........    ...........                                      .........               ",
"              ..........  ...........                                      ..........               ",
"               .....................                                      ..........                ",
"               ....................                                       ..........                ",
"                ..................                                       ..........                 ",
"                 ................                                       ..........                  ",
"                 ...............                                       ..........                   ",
"                  .............                                      ............                   ",
"                   ............                                     ............                    ",
"                    ............                                   ............                     ",
"                     .............                               .............                      ",
"                      ..............                           ..............                       ",
"                       ...............                       ...............                        ",
"                        ..................               ..................                         ",
"                         ................................................                           ",
"                           .............................................                            ",
"                            ...........................................                             ",
"                              .......................................                               ",
"                                ...................................                                 ",
"                                  ...............................                                   ",
"                                     .........................                                      ",
"                                         .................                                          ",
"                                                                                                    ",
"                                                                                                    ",
"                                                                                                    ",
"                                                                                                    ",
"                                                                                                    ",
"                                                                                                    ",
"                                                                                                    ",
"                                                                                                    ",
"                                                                                                    ",
"                                                                                                    ",
"                                                                                                    "};
