/* XPM */
static char *noname[] = {
/* width height ncolors chars_per_pixel */
"100 100 25 1",
/* colors */
"` c #000000",
"a c #A5A5A5",
"b c #737373",
"c c #6B6B6B",
"d c #636363",
"e c #393939",
"f c #DEDEDE",
"g c #292929",
"h c #D6D6D6",
"i c #CECECE",
"j c #C6C6C6",
"k c #9C9C9C",
"l c #949494",
"m c #8C8C8C",
"n c #848484",
"o c #525252",
"p c #FFFFFF",
"q c #4A4A4A",
"r c #EFEFEF",
"s c #E7E7E7",
"t c #181818",
"u c #101010",
"v c #BDBDBD",
"w c #080808",
"x c #B5B5B5",
/* pixels */
"pppppppppppppppppppppppppppppppppppppppppppppppppppppppppppppppppppppppppppppppppppppppppppppppppppp",
"pprrrrrrrrrrrrrrrrrrrrrrrrrrrrrrrrrrrrrrrrrrrrrrrrrrrrrrrrrrrrrrrrrrrssssssrssssssffssffsrsfssfffhmd",
"pphhhhfhfffhihhhhhfffhihhhhhihiihhhhffhhihhihhhhiihhhhhhhihiihihiijjjjjvvvxvjxaxvjvaaxvaajixavjaaaco",
"ppihhhhhhhfhhhihfhhhhhhhiihhhihiiihhhhfhhhiiihhihihihhhhihiihiiiiiijjjjvvvxxvjvaxxvvakxvaavhxkxjaabo",
"ppfiihihhhhfhhihhhhhfhhhihihihihiiihhhhfhhihiiihhiihhihhhihihiiiiiijjjjvvvvxxvvxaavvxakavaavixkxvabo",
"pphfihhhhhhhfhhiihhhhhhhhihihiiihiiihhhhfhhihiiihiiiihihhihiiiijijiijvjjvvvxxavjxaaxvxakaxaavixkxvbo",
"pphhfiiiihhhhhhiiiihihhhhhihihhiiiiiiihhhfhhiiiiihiihihihhihhiiijjjjijvjvvvvxxaxvxaaavxakaxaavixkxbo",
"pphhhhiihihhhhfhiiiihhhhhhhiiiiiiiiiiiihhhfhiiiiiihiiiihiihhiiiijjjjjjjvvjxxvxxaxvaaxaxxkkaaakviakbo",
"ppihhhfiiiiihhxamnnnmkxihhhiihivllaaviihhhhhhiiiiiihiiiiiihixamnnnmkxjjvvvvaxxxaaxvaaaaxaklaakkviabo",
"ppfihhhhiiixqtw`gqoqgwwteahhiiim``wwtgggobahfhiiilwwwtiiivotw`tqoqgw`teavxvetokxaaxvowuwoxklaakkvibo",
"ppshihhhhihb```thhhiie```dhhhhil```wiimdu`wtdfhiil```wiiim```thijiie```qvvxe```tolaao```oxalmaalkxno",
"ppfshihhhhib```thhhhie```diihiil```wiiiiig```qhhim```wiiin```tiiijjo```ovvve```tw`uog```oaxalmkalkbo",
"ppffshiihhhb```ghihhhe```diihhhl```whijiit```chhhl```whiin```thijjjq```oxvve```camou````okaaalnkalbo",
"ppfffshihhhb```thiihhe```ciiiihn```wiibg``tqkhihhm```wjiim```tiiijjq```oxxve```cxaaae```olkaaalnkaco",
"ppffffshiihb```tiiiihq```dxceeeg````gttttuteobiihl```wijin```tjjjijo```qxxxe```dxaaao```oklkaaamnlbo",
"ppfffhfshihat```obnbdw``umhivjim````xiiiia````khim````iijat```obnbdw``ubvxxg```daxaaq```qxkmlkaambco",
"ppsfffhffhiihkbdqoooqobmvijjiijadddciiiiijcdcdxjiacddcijjjikbdqqooqobmvvvxxndddlaaxamdddmaakmlkakmdo",
"ppssfffhffhiiihhjijjihiiiiijjiiiiiiiiijjiiijjijjihihhiiiijjiiijjjjjjjvvxxvxaxaxxaaaaaaakllaaknlkakco",
"ppfsffhffhshihihiijijjiiihijjjiijiiiijiijjiijjijjiiihhijjijjiijjjvjvvjvvxxxvaaaxxaaaaakakllaalnmlabo",
"ppsfsshfhhhfhiiihijjjjjiiiiijjjjijjiiijjjiijijjjjjjiiihiiijjjjijjvvjvvvvxxxxxxaaaxaaaaakkklmaalnmlbo",
"ppssfsffhfhffhiiihijjjjjiiiiijjjjijjjijijijjijjjjjjiiihhijijjjjjjvvvvvvvvxxaxxaaaxaakaakkkllmkalnmco",
"ppffsfsffhfhhfhiiihijjjjjijiiijjjjjjjijjjjijjijjjjjjjiiihijijjvjjjvvvvxvvxxxaxxaaaaaakkaklklmmkambco",
"ppfffffffhhhhhfhiiihijjjjjiiiiijvjjjjjiiijjjjjjjjjjjjjiiihijjjjvjjvxxxvxxvxxxaxaaaaaakkkaklklmmlaldo",
"pphffsffsfhhhhhhhiiiiijjjvjjjiiijjjjjjjjjjjjjjjjjjvjjjjiiiiiijjvvvjvxxxvxxvxaxaxaakaaaklkalllmmnlaco",
"ppfifffffffhhhhhfhiiiiijjjjjjjiiijvjjjjjjijjjjjjjjjvjjjjiiihijjjvvvvvxxxxxavxaaaaakkkaakllalmlmmnlbo",
"ppsfihffffffhhhhhhhiiiijjvjvjjjjijjvjjjjjjijjjjjjjjjvjjvjiiiiijjvvxvvvaaxxxaxxaaaaakkkaalllklmlmnnco",
"pphsfhfffffffhhhhhhhiiiijjvjvjjjjijjvvjjjjjjjjjjvjjjjvjjvjjiiijjjvvxxvvxaaxxaxxaaaaakllaalmlklmmmndo",
"ppihshihffffffhhhhhhiiiiijjvjvjjjjijjvvjjvjjjvjjjvjjjjvvjjjjiiijvvvxxxxxaxaxxaxaaaaaalllkalmlklnmmdo",
"ppfjhsfhhffhfffhhhhhhhiiiijjvjvjjjjijjvvjjjvjjjvjjvjjjvvjvjjijiijvvvxxxxxaaaxaaxaaakaalllkklmmlmnmdo",
"ppsfihshhhffhhfhhihihhiiiiijvvjvjjjjjjvvvjjvjjjvjjvvjjjvvjvvjijjijvvxxaxxxaaaxaaxaakkakllmkkmmmkmnco",
"ppfshjhshihhffhffihhiihiiiiiivvvvvjjjijjvvjjvvjjvvjjvjjjvvvjvjjjjjvvvxxaaxaaaaxaaaaakkakmmmkkmnmlmdo",
"ppffsfjhshhhfhfhfhhihhhhiijiiivvvvvjvjijvvvjjjvvjjvjjvvjjvvvjvjjjjjvxxxaxaxaakaaaaaakklakmmmklmnnlco",
"ppfffshihfhihhhhhfhhihiihiiijijvvvvvjvjjjvvvvjvvjvjvjvvjjvvvvvvvjvjjvxxxaaaxaakaaaaaakklkkmnmllnnnco",
"ppsfffshihshihhhhhfhiihhihiiijijvvvvvjvjijvvvvjvvjvvjjvvjjjvvvjvvvvvjvxxxaaaaakkkaakaakllkkmnnllnbco",
"ppsffffshjhfhihhhhhfhiihiiiiiiiijvvvvvjvjijvvvvvvvjvvvjvvvjvvvvvvvvvvvxxaxaaaaaklkakkakkllklnnnllndo",
"ppfsffffshihfhihhhhhhhiiihiiiijjijvvvvvjjvjjvvvvvvvvvvvjvvvjjxvxvvvvxvvxxxaaaaaallkaklakllmklnnnmldo",
"ppffsfffffhihfhihhhhhhhiiiiiiiiijjjvvvxvjvjjjvxvvvvvvvvvjvvvvvvxxxvxvxvxxaaaaakaalmlaklkkllmllbnblco",
"ppfffffffffhihfhihhhhhhhiiiiiiiijijjxvvxvjvvjjvvvvvvvvvvvjvvvjvxxxxxxvxxxxxaaakkaalmlaklkkmmmllbnbco",
"ppsfffffhfffhjhfhihhihihhiiiiiiiijijjxvvvvjvjjjvvvvvvvvvvvvvvvjvvxxxxxxxxxxaaaaklakmmlkklkllmmllnbdo",
"pphsfffffffffhiifhihhihihhiiiiiiiiijivvvvxvjvvjvvvvvvvvvvvjjvvvvvxxxxxxvaxxxaaaaklakmnlkllklmmnlmbdo",
"pphhsfhfffhhffhjhhhihhihihiiiiiiiiijijjvvvvvjvjjjvvvvvvvvvvvjvvvvxxxxxxxxaxaaaaakklkkmnlkllklmmnlmdo",
"rpfhhsfhfffhhffhiifiiihiiihiiiiiijiijjjvvvvxjvvvjvvvvvvvvvvvvjvxvxvaxaxxxxaxxaaakkllkknnmklmklmmnmco",
"ppifhhsfhfffhhhfhiifiiihhiiiiijiiijiijjjvxvvxjjvjjjvvvvvvvjvvvvvxxxvxxaxxxvaaxaaakkllkknnmklmllmnnco",
"ppvihhhffhffhhhfhhihhiiiiiiiiijijiijiijjjjvvvvvjvvjvvvvvvvvvvvvvvxxxxxaxaaxxaxaaakkklmllnbmklmlmmndo",
"ppivifihffhhfhhhhfhjihhiihiiiiijijiijiijijvxvvxvjvjjjvvvvvvvjvvvvvxxxxxaxxaxxaaaaakkllmklnbmllnllmdo",
"ppiivifhhffhhfhhhhfhiihiiihiiiiijijiijjijjjvvxvvjjvjjjvvjvjvvjvvvvxxxxxxaaxaxxaaaakkkllmlknbmllmllco",
"pphjivihhhffhhfhhhhhhiihijiiiiiiijijjijiijijvvvvvjjjjjjvvvjjvvvvxxvxxxxvxxaxxxxaaaakkkklmllnbnkmmlco",
"ppshjivifihfhhfhhhhhhhihhiiiiiiiiijjiijjjijjivvvvvijjjijvvjjijvvvvxxvxxxxxaaaxxxaaakklkklmllbbnklmco",
"ppsshjivihhhfhhhfhhhhhhiihijiiijjijjjjiijiijjivvvjjjivjjjjjjijjvvxxxvvxxxxxaaxxvxaaakkkkklmllbbmklco",
"rpssshjivihhhfhhhhhhhhhiiihiiiiiijijjjjijjiijiivvvjjjijjjjjjjijvvvvxxvvxxxxxaaxxvxaaakkkkklmllbbmkco",
"ppffsshjijihihfhhhhhhihhhiiiijiiijiijjjjijjiijjijvjjjjjjjjijjiijvvxvxvvvxxxxxxaxxxxaaakkkaklmllnbmbo",
"rphffffhjivifihfhhhhhihhhiiiiijiiijjijjijiijiijiiijjjjiijjiiijjijvvvvxvvvxaxxxxaxxvaaaakkkkklnllbbco",
"ppfhfsfshjijjhihfhhhhhiihhhiihijiiijjijjjijjjjijjijjijjiijjiijjijjxxvvxvvvxaxaxxaxxvaaaakakkllnllbdo",
"ppffhffffhjijihihhhhhhhiihhiiiiijiiijjjjjjiijjiijiiijjijiijjiijjjjjxxxvxxvvxaxaxxaxxxakakkkkklmnlldo",
"pphhfhffsfhjjjihihhhhhhhiihhiiiiijjiijjijjjjiijiijjiijjjjiijiiijjjjvxxxxxxxvxaxaxxaxxvakaklkkklmnmco",
"rpfiffhffffhjjjihihhhihhiiiihiiiijjiiijjijjijijjiijiiijijjiijjiijjjvvxxvxxxxvaaaaxaaaxxakaklklllmnco",
"ppsfhhfhffffijijihihhhhhhiiihiiiiiijjijjjjjjjiijjiijjiijijjiijjijjjjvvaxxxxxxvaaaaxaaxxxakkklklllmdo",
"ppssfihfiffffijijihihhhihhiiihiiiiijjiiijjijjjiijjiijiiijijjijjjjjjjvvvaxxxxavxaaaaxaaaxxalkklkllmco",
"rphfsfihfhffffijjjihiihhihiijihiiijijjiiijjjjjjjijjiijjiijijjijjjjjvjvvvaaaxxavxaaaaxaaaaxalkkllllco",
"pphhssfifhiffffijijihiihhihhijiiiiiiijjiijjjjjjijijjiijjiijjjjijvjjjvjvvxxaxxxaxxakaaxaaaxaalkllllco",
"ppshhfsfihfiffffijjjihihhiihhijiiiiijijjiiijjjjjjjiijiijiiiijjjjjvjjvvvvxxaaaxaxxxakkaaaaaaxamklllco",
"ppsshhfsfifhihffhijjjihiihiihhijiiiiijijjiijjjjjjijijjiijjiiijjjjjvvjvvjvxxaaxaaaxaalkaaaaaaaalllmco",
"rpfsfhhffhihhihhfhijjjiiiihiiiiijiijijjijjiijjjjjjjjijjjijjijijjvjvvvjvvvvxxaaxxaaxakkkaaaaaaakmllco",
"ppffffihffhihhihhhhjjjjjiiiiiiiijjjijijjjjvjijjjjvjjjjjjjjjjijjjjvvvvvvxvvvxaaaaxaaxxklkaaaaaaaamlco",
"rpsffffiiffhjhiiihhhjvjjjijiijiiijvjijjjjjjvjjjjvjvvjjjjvjjvjijjjjvvvxvvxxvxxaaaaaaaxakllaaakaaakmco",
"rphfhffhiihfiiiijiihijvjvjijjijjiijvjjjjjjjvvjjjjvjvvjjjjvjjvjjjvjvvvvxvvxxvvaakaaaaaxakmlkaakaaakco",
"ppvhfhhhhiihhijiijiihijvjvjijjijjijjvvjjjvvjvvjjjvvjvvjvjjvjjvjjjvvvxvxxvvxxvvaakaaaaaxakmlkaakaaabo",
"ppjvhhhhhijihhijijjjiiivvvvvjvjjjjjjvvvjvjvvjvvjjvvvvvvvjvvvvjvvjjvvvvxxaxvaxvvaakkaaaaaalmmkaakaabo",
"rphjvihihhijjhhijjjjjjijvvvvjjvjjvjjjvvvvvvvvvvxjjvvvjvvvvjvxvjvvvjvvxxxxxxvaxxxaakkaaaaaalmmkaklabo",
"rphhvvihiihijjiijjjjvjjijvxvvvjvjjvvjjvxvvvvvvvvxvjvvvvvvvvvvxvvvvvvvvvxxaxxvaxvxaklkaaaaaalnmlaklbo",
"ppvihvviiiiiijjiijvjjvjjjjvxvvvjvvjvvvjvxvvvvxvvvxvvvxvvxxvvvvxvvxvvvxxxxxxaxvaaxxakllkakaaamnmlakco",
"rpxxihvxiijiijjjijjvvvvvvjvvxxxvvvvjvvjvvxxvxvxvvxxvvvxvvxxxvvxxvvxxvvxxxxaxaxvaavaakllkakaaamnnlabo",
"rpixxiixxjijjijvvjjvvjvvvvjvxxxvvvvxvvxvvxxxxvvxxvxxvvvxxvxxxxvxaxvxxvxxxxxaaaxxaavakkmlkkkkaamnnlbo",
"ppiixxiixxjjjjijvvjjvxvvxvvvvxxxxxvvxvvvvvxaxxxvxxvxxvvvxxxxxxxvxaxxaxvxaxxaxaaxxaavakllmkkkkaambnco",
"rpvjiaxjixxjjjjjjvvvjvxvvxvvvvxaxxxvxxvxxvvxaxxxxxxxxxxvxxxxaxxxvvaxxxaxvaxxaaaaaaaavaklmmkkllaambdo",
"rpivjixajjxajjvvjvxvvjvxxxxxvvxxxxxxvxxxxxvxxaxxxxxaxxxxvxxxxxaxaxxaaxxaxxaxxaaaaxakaxaklmmkkllakmdo",
"rpijvjjaxvjxajjvvvvxxvvxxxxxxxvxaaxxxxxxxxxxxxaxxaxxxxaxxxxaxxaxxxxxaxaaxaxaaxaaaaaxkaxallmmlkllakdo",
"rpjijxjjaavjxavvvvvvxxvvxxxxaxxvvxaaxxxxxxaxxxxaxxaxaxxaxxxxaxxaaaaxaaxaaaxxaaxakaaaakaxalmnmlkllkbo",
"rpjjjjxvjaavvxavvxvvxxxxxxaxxaxxxxxaxaxxaxxaaxxaaaxxxaxxaaxxxaaxaaxaxaaaxaaxaaaaakkaaakkxalmnnllllbo",
"rpvjvjvxvjaavvxaxvxxvxxaxxxaaxaxaxxaaaxaxxaxxaxxxaaaaaxaxxaaxaxaxaaaaaaaaaaaaaaaaakkkaalkxammnnllmco",
"rpxvjvjvxvvaavvaaxxxxxxaxxxxaxaaxxaxaaaxaxaxaaaxaaaaxxaaaaaaxxaaaaaaaaaaaaaaaaaaaaalkkaalkxamnnnllco",
"rpxavvvvvavvaavvaaxxxxxxaaxxxaxaaaxaxaaaaaxaaxaaxxaaaaxxaxaaaaxxaaaaaaaaaaaaaaaaaaakkkkaalkxamnnblco",
"rpjvaxvvvvaxxaaxvaaxxaaxxaaaxaaxaaaxaaaaaaaxaaxaaxaaaaaaaaxaaaaaaaaaaaaaaakaakkaakaaklllaamkaamnbnco",
"rpvvxaxvxvvaxxaaaxaaaxaxaxaaaxaaaaaaaxaaaaaaaaaaaaxaaaaxaaaaaaaaxaaaakaakakkaakkkakaaklllaamkakmmbdo",
"rpxxvxaxxxxxaxxaaxaaaxxaaaxaaaaaaaaaaaaaaaaaaaaaaaaaaaaaaaaaaaaaaaaaakkkakkkkkakkkkkkalllmakmkaanndo",
"rpxxxvaaxxxxxaxakaaxakaaaaaaaaaaaaaaaaaaaaaaaaaaaaaaaaakaaaaaaaaaaaakakkkkkkklkkkkkkkkalmlmakmkakndo",
"rpvxxxvaaaxxxxaxakaaaaaaaaaaaaaaaaaaaaaaaakkaaaaaaaaaaaakaaaaaaaakaaakkkkkkkkklkklkkklkalmmmaknkakco",
"rpxxxaxxaaaxaxaaxakkaakaaaaaaaaaaaakakkaaaakkaaaaaaaaaaakkakakakkakkakkkkkkkkkllkklllklkklmmmkknlabo",
"rpxxxxaxxaaaxaxaaaakkaakkaaaaaakkaakkkkkkakakkkaaaakakaaakkkkkakkakkkkkkklllklllllkllllllklmmmkknlbo",
"rpxxaxaaaxakaaaaaaaakkaakkaakakakkaakkakkkkkkkkkkkakakkaaakkkkkkkkkkkkkklklllklllmllllllmlkmnmmkknco",
"spxaxxxaaaaaaaxaaakaallakkkkakkkaklkakkkkkkkkkkkkkkkkakkkkaklkkkkkkkklkkllllllllllmllmlllmlkmnnnkldo",
"spaaxaaxaaaaakaaaaakaallkklkkkkkkkklkklkkllkkkkkkkkkkakkkkakklkkkkllklllklllllllllmmllmmllmlkmnnnkco",
"spaaaaxaaaaaaakaaaaalakllkkllkkkkkkklkkklklllkkkllkkkkkkkkkkkkllklkllkllllllmlmlmmlmmmlmmmmmmlmbnnco",
"fpaaaaaaaaaaaaklkakaklkkllkkllkllkklllklllkllllkklllkkkkkklkkklllllkllllllllmmmmmmmmmnmmmmmmnmkmbndo",
"splaaaaaaaaakaaklkkkaklkkmllkllkllllklllklllllllllllllkkkklllkklllllllllmmlllmmmmmmmmmnmmnmmmnmlmbdo",
"spmmkaaaaaaakkakklkkkkkllkmllllllllllllllllllmlllllllkllkklllllklmllllmllmmmmmmmmmmmmmnnmmnnmmnmlndo",
"splmmkkakkakkkkkklmlkkklllkmmllmllllllllmllmmllmllllmlllllklllllllmmmlmmmlmmmmmmmnnmnnmnbmnnnnnnmldo",
"rrklmmkkkkkkakkkkklmlllklmllmmllmllmmllmmmllmmlmmllllmllllllllllllmmmmmlmmmmmmmmnmnnnmnnnbmnnnnnbmco",
"fanbbbbbnbnbnbnbbbnbbbbbbbbbbbbbbbbbbbbbbbbbbbbbbbbbbbbbbbbbbbbbbbbbbbbbbbbbbbbbbbbbbcbbbbccbccbbcoo",
"vboooooooooooooooooooooooooooooooooooooooooooooooooooooooooooooooooooooooooooooooooooooooooooooooooo"
};
