/* XPM */
static char *noname[] = {
/* width height ncolors chars_per_pixel */
"100 100 25 1",
/* colors */
"` c #000000",
"a c #ADADAD",
"b c #A5A5A5",
"c c #7B7B7B",
"d c #737373",
"e c #6B6B6B",
"f c #393939",
"g c #313131",
"h c #D6D6D6",
"i c #212121",
"j c #CECECE",
"k c #C6C6C6",
"l c #9C9C9C",
"m c #949494",
"n c #8C8C8C",
"o c #5A5A5A",
"p c #525252",
"q c #FFFFFF",
"r c #4A4A4A",
"s c #EFEFEF",
"t c #E7E7E7",
"u c #181818",
"v c #101010",
"w c #BDBDBD",
"x c #B5B5B5",
/* pixels */
"qqqqqqqqqqqqqqqqqqqqqqqqqqqqqqqqqqqqqqqqqqqqqqqqqqqqqqqqqqqqqqqqqqqqqqqqqqsqqqsqqqqsqqqqqqsqqqsqqqqs",
"qsthhhhthhhtttttththththtthththhhhthtttttthththttttttsttttththhhhhththhhhhhhhhhhhhhhkjjhjhhhjhhkhjwc",
"qtjhhjjkhhjkjhhhhhjjjjjjjhhjjjhhjkkjjjhjhhhhjjjjjjhhhhhhhhhhjhjjkkkjjjjkkwxxxwxxawkwbbbxxxwwxaxabxlo",
"qthjjjkkkjjjkjhhhjjjjjkjjjjhjjkjjjkkjjhjhhhhjjjjjjjhhhhthhhhhjjkkwwkkjkkkkwxxxwxaaxkwbbbxxaxwxaxabmo",
"qsjhjjjkkkjjkkjjhhhjjjjjkjjjhkjkjjkkkjjhjjhhhjjjjjjjhhhhhthhhjjjkkwwkkkkwkwwaaxxxaaxwwblbaxaxwxaxace",
"qshhjjjjkkkkjkkjjhhjjjjjkkjjjhjkkjjkkkjjhjjhhhjjjjkjjhhhhhhhhhhjjkkwxkkkkwwwwaaxxxabxwxblbaxaxwabxno",
"qsthjhjjjkkkjjkkjjhhjjjjjjkjjjjjjkkjkwkjjhjjhhhjkjjjjjjhhhhhhhhjkkkwwxwkkkwwwxabaxaabawxlmlbxbawaamo",
"qththjjjkjkkkkjkkjjhhjjkkjkkjjhjjkjkjkwkkjjjjhhjjkjjkjhjhjhhhhhhjkkkkxxwkwwxwwxabaxabbawxlmlbaaaxano",
"qthhthhjjjkkkkkjkkkhhjjjjkjkkkjjjjkkjkkwkjjjjjjhhjkjkkjjjhhhhhhhhkkwwwxaxkwwxwxxbbbaabbaxxlmlbabaxno",
"qshjhthjjjjwopoproodwhhjacpoprodxjkroooorroexjjopjjkjjkdpadokhhhhjkkkwwxcrcwwxxxpropppopmxxmnmbabamo",
"qsthjhthjjjm`````````khc`````````bk``````````aw``hjjjkj``k``khhhjhjkwwku```pwxxx`````````dxxmnmbbbmo",
"qstthjhhhjjd`pcllllu`nk``mlmmnlv`px`gnm``clg`ob`rjhjjjk``j``hjjhhjjjkwf`fo``awxn`gnndcnf``bxannnlaco",
"qsththjhthjg`bjkkwkg`ae`cjjjjkjc`cc`cjk``jke`cc`cjjhjka`ix`gjhjjjhjjkc`uwwv`ewxd`dxallbl`illxancmlno",
"qsttthhhhhh`````````ukp`lhjkjkko`lo`ljw``kkr`co`njjjhjm`ol`pjjjjkjjja````````awo`cxablmd`pmmlaancnco",
"qshhtshhjhh`````````gk``wjhjkjk``x``kjm`okj``x``kjkjjho`no`mkjjjjkjku````````ca``baaablp`nbmmlaancco",
"qshhttthhhx`iwkwxkl``k``xkjjjjk``k``kjc`dkj``x``kkjjkhi`ai`akkjjjkjf`okxlbwo`il``xbbaabi`cblmmlabndo",
"qsthhhtthhn`ehjjjka`ua``aaxkxwc`ib`vkkf`xka`ua``xawkwb``j``lwwwwwka`ujkkkxam`ul`vxabbaa``mmllnnlbbdo",
"qssthhhttho`bhjjjkn`rku`````````xn`okw``xjm`on`````````nk````````ol`okjkkwxn`on`rbxablb``mnmllnnmano",
"qhhtthhhttu`ahhjjjd`nwxr``````pwke`ckw``kje`cd```````rbjm````````ce`mwkkwkwo`ee`cmbaaln`flnnmllnnmno",
"qsjhtthhhhthhjhhjjjjkkwkwkkwwkjjjkkkkkkwkkjjkkkkkwwwkkjkkjjjkkkkwkwkkwwkkwwwaabaxlnbaallablncnmlcnco",
"qthjhtthhththhjhhjjjkkwwwwkkwwwjjjkkkwkwwkkkjkwwwwwxwkkjkjjjjkkkwwkwwkwxwkwwwbbbbalnlaallbblncmmlcco",
"qsjhjhtthhhthhhjhhjkjkkwwwwkkwwwkjjkkkwkwwkkkjkwkwkwxwwkkkkjjkkwkwwwwwkwxwwwwxabbbalnlbblmbllncnmmdo",
"qshhhjhtthhhthhjjhhjkjkkwwwwwkwwkkjkkkkwkwwkkkkkwwwwwxwkkkkkjjjkwwwwwxxwwxwwwwxbbbbalclabmmblmncnmco",
"qsshjhjhhthhhthhjjhhjkjkkwwwwkwwwwkjkkkkwkwwwkkjwkwwwwxxkkkkkkjkkwwwxwxwwxxxwxwablllalcmbbmmblmcccco",
"qstthhhjhthhhhthhjjjhjkjkwwwwwwkwwwkjkkkkwwwwkwkkkwwwwwxxkkkkkkkkwwxxxwaxwxaxwxxabllbbmclblmnllmccco",
"qsttthjhjhthhhhhhhjjjhjkjkkwwwwwkwwwkjkkkkwwwwkkkkkwwwwwxxkkkkkkkkwwxxxxaxwxaxwxxallllamcmblnmllmceo",
"qshttthjhjhthhhhthhjjjjjkjkwwwwwwwwwwkkkkwkwwwxwwkkkwwwwwxxwwkkkkkkwxxxxxaawaaxxxxalmllbmcnblnnlmndo",
"qstthtthjhjhthhhhhhhjjjhjkjkwwwwwwwwwwkjkwkwwwwxkwkkwwwwwxxwwkkwwwkwwxaaaxaawabaxxaammmlbncnllnnlmco",
"qstttththhhjhthhhhhhhjkjjjkjkwwwxwwwxxwkkkwkwwwwxwwkkwwwwwxxxwkwwwwwwwxaaaxbaxabaaxaammmlbndnlmcnmco",
"qsththtthhjhjhthhhhhhhjkjjjkkkwwwxwwwwxwkkkwkwwwwxwwwkwwwwwxxxwkwwwwwwwaaaaabaxabaaaabmnmlbndnllcnco",
"qstttthttthjjjhthhhhhhjjjjjjkkkwwwwxwwwxxkkkwwwwwwxwwwkwwwxwxxxwwwwwwxwxabaaabbxblaaaabmnnmbndcllcco",
"qsththththhhhjjhhhhhhhhhkkjjkkkkwwxwxwwxwxkkkwwwxwxwwwwkwwxwwxxxwwwxxwxwxabbaalbxblbaabbnnnmbcenmmdo",
"qsttttthththhhjjhthhhhhhjjkjjjkjwwwxxxwwxxwwkkwwwwwxxwwwkwwxxwxaxxwxxxxxxxbbbbalbablbbabbncnmbceclco",
"qsththtthtthhhhjjhhhhhhhhjkjjjkkjkwwwxxwwxxwwkkwwwxwxxwwwwwwxxwxaaxwxxaxxxxblbbbllablbbbblncnmbcecco",
"qttthtththhtthhhjjhhhjhhhhjkkjjkkkkxxwxxwwxxxwkkwwxwwxxwwwwwwwxxxaaxxxaaxaxxblbbbmlalmbbbblnccnbcedo",
"qshhtththtthhhhhjjjhhhjhhhhjkkjjkkkkwxwxxxwxxxwwkwwwxwxxwwwwwxxxxaaaxxxaaaaaxlllbbmmalmlbbblncnnlcoo",
"qshththththththhhhjjhhhjjhhjjkkkjkkkwwxxxxwxxxxwkkwwxxwxxwwwwwwxxxabaaxaaaaaaxlmlbbmmalmlbllmcccnldo",
"qsthhththththhthhhjjjhhhjjhhjjkkkkkkjwwxxxxwwxxxwkwwwwxwxxwwwwwxxaaabaaxabaaaaalmllbnmbmmlbbllcccnco",
"qstthhththththhthhhhjjhhhjjhhjkkkjkkkjwwxxxxxwxxxwkkwwwxwxxwwwwwxxxabbaaaabbbbxalmllbnmamnmllllcccco",
"qshtthhthhhththhhhhhjjkhhhjjhhhkkkkkwkkwwxxxxwxxxxwkwwwwxwxxwwwwxxxaablbaaabbbbaalnlllnnbmmmbllmcddo",
"qshttthhhthhhhthhthhhjjjhhjjjhjjjkkkkkkkkwxxxxwxxxxwkwwwxxwxxwwwwxxxaablbaaabbbbaamnlllnnbmnmlllmceo",
"qshhhthhhhhthhhthhhhhhjjjjhhjjhjjkkkkkkkkwwxxxxwxxxxwkkwwxxwxawwwwxaxabblbaablbblaamnmllnnbmnmllmmeo",
"qshthttthhhhhhhhhhhhhhjhjjjhjjjhjjkkkkkkkkkwxxxxwxxxxwwkwwwxwxawxwxxaaabllbbabllblaamnmllcnlmnnllmco",
"qshthhhtthhhhhhhthhhhhhjjjjjhjkjhjjkkkkkkkkwwxxxxwxxxxwwkwwxxwxaxxxxxaaabllbbablbllaamcmlbcnlnnnmlco",
"qsthhthhthhhthhhhhthhhhhhjjjjhjjjhjjkkkkkkkkwwxxxxxwxxxwwkwwxxwxaxxxxaaabblmbbbblllmbamcmmlcnlncmmco",
"qstthhhhhtthhhhhhhhhhhhhhhjjjjjjkjhjjkwkkkkkkwwxxwxwxxxwwwkwwwxwxaxxxxaaabblmbbbbllllbancmmlcnlmcnco",
"qshtththhhthhhhhhhhhhhhhhhjjjjjjjkjjjjkwkkkkkkwwwwwwwwwwxwwwkwwwwxaxxxxaaaabllbballllmbancnllccbmcco",
"qshththhhhhthhhhhhhhhhhhhhhjjjjjjjkjhjjkkkkkkkkwwxwwwwwwwwwkkwkwxwxaxwxxxaaabllbballllmbbncnllncbndo",
"qshhtthhthhhthhhhhhhhhhhhhhjjjjjjjjkjjjjkkkkkkkkkwwwwwwwkwwwkkkwwxwxxxxwxaaxalllbbabllmmbbncmmlcnlco",
"qsshhhthhhhhhthhhhhhhhhhhjhhhjjjjjjjkjjjjkwkkkkjkkwwwkkkkwkwwkkwwwxxxaxxxxaaxalllbaalmlmmbbncmllccco",
"qsstthhtthhhhhhhhhhhhhhhhhjhhjjjjjjjkkjjjjjwkkkkjjkkwwkwkkkkkwkkwwxxxxxxxxxaaxabllbaabmlmnbancmlbcco",
"qhhtthhhhthhhhhthhhhhhjhhhhjjhjjjjjjjkkjjjjkkkkkjjjkkwkkkkkkkwkwwwwxwxxxxxwxaaaalllbablmmnmbbncnlleo",
"qsjhtthhhhthhhhhhhhhhhhjhhhhjhjjjjjjjjkkjjjjkkkjkjjjkkwkkkkjkkwwkwwwwxwxaxxxxaaxabllabalmmmnbancnlco",
"qshjhtthhhhthhhhhhhhhhhjjjhhjjhjjjjjjjjjkjjjjkkkjkjjjjkkkkjjjjkkwkwwwxxwxaxxwxbaxabllaaalmmmnbancmco",
"qsthjhtthhhhhhhhhhhhjhhhjhjhhjjjjjjjjjjjkkjjjjjkkjkjjjkkkkkjjjjkkwwwwwwxxxaxxxxaaxabllaaalmmmnaamcco",
"qththjhtthhhthhhhhhhhjhhjhjjhhjjjjjkjjjjjjkjjjjjjkjkkjjjkkkkjjjjkwwwwwwxxxaaaxwxbaxalllabalmmmnbando",
"qthhthjhhthhhhhhhhjhhhjhhjjjjhhjjjjjjjjjjkjkjjjkjkjkjkjjjkkkkjjjjkwwwwxwxxxaaaaxxbaxalmlabalnmnnbaco",
"qthjhthjhtthhhthhhhjhhhjhhjjjjjhjkjjjjjjjjjkkjjjjjkjkjkjjjkkkkjjjjkwxxwxxxxxabaaxxbbaalmlbbblnmnnbno",
"qtjhhhthjhhthhhhhjhhjhhhjhhjjjjhjjkjjkkjjkjjjkjjjjjjkjkjjjjkkkkkkkkkwxxwxxaaaabaaxabbablmlbbbmnmcnno",
"qthjhhhhhjhthhhhhhjhjjhhjjjhjjjjhjjjkjjkjjjjkjkjjjjkjkjkkjjkkkkkjkjkkxaxxxxxaaababxabbablmlbbbmnmcdo",
"qshhhjhhthjhhthhhhhhjjjjhhjhjjjkjjjjkjjkjjjjjkjkjjjjjkjjjjjjjkkkkkkkkkxaxxxaaaabbbbxabbabmmlbblmcmco",
"qshhhhhjhhhjhhthhhhhhjjjjhjjhjjjkjjjjkjjkjjjjjkjjjjjjjkjjkjjjjkwkkkkkkwxaaxxaaaabbbbaalbabmnmbbbmcco",
"qthhhhjhhhhhjhhhhhhhhjhjjjhjjhjjjjjjjjkkjkkjjjjkjkjjjjjkjjkjhjjkwwwkwkkwxbaxaaabablbbaallbbmnmlllmdo",
"qthhhhhjjhhhhjhhhhhhhhjjjjjhjjjjkkkkjjjkjkjkkkjjkjkjjkkkkkjjkjjkkkwkkwwkwxbbaaaabbbllbaallalnnmbllco",
"qshjhhhjjjjhhhkhhhjjjhhjkkkjjjkjjjkkkjjkkkkkkkjkkkkkkjjkjkkkkkjjkwwwwkwwkwabbaaabbbbllbabllalncmllco",
"qtthjhhjjjjjjhjkjhhjjjjjjkjkkjkkjkkkwkkjkkkkkkkkkkkkkkkkkkkkkkkjjkwwwwkwwwwabbaaablbblllabmlalncmlco",
"qhjthjhhjjjjkjhjkkhhjjjjjkkkkkjkkjkkkwkkkkwkkwkkkkkwkwkjkkkkkkkkjjkwwwwwwwwwallbbablblmllabmlalncmno",
"qtjjhhkhhjjkkkjjjkkjjkkkjjkkkwkjkkkkwwwwkkwkwkkwkkkkwwwkkkkkwkkkkkjkwxxwwxwwxallbbbbmblmmlabmmblncco",
"qshkjhhkjjkjkkkkjkwkjjjkkkkkwwwkkkwkkwwwwkkwwwwwwwwkwwwwkkkwkwwwwkkjwwwxwwxwwxallbbbllllmmlbbmlbmcdo",
"qthhkjhhkjjkkkkkkjkwkjjkwkkkkwwwwkkwkkwwwwkkwwwkwwwkwwwwwkkkwwwkkwkkjwxxxwwxxwxbmlbbblmllmmmblnmbldo",
"qthhjkjhjkjjkkkwwkkkwwjkkwwkkwwwwwkwxkwwxxwwwwwwwwwwwwwwwwwkwwwwwwwwkjwwxaxwxxwxbmmlbblmlmnmmblmmbco",
"qthhhjkkhjwjkkkkkwwkwwwkkkwwwkwwwxwwwwwwwwxwwwxxwwxwwwwwxwxwkwwwwwwwwkjwxxaxwaxxxbmmllblmlmnnmblnmno",
"qhjjhjjwkhjwjkwwwwwwkwwwkkwwwwwwxxxwwwwwwxxxxwwwxxwxxwwwwxxwwwwwwwwwwwkkwxxaxwaaxxlnmllllnlmnnmblnco",
"qtjjjjjjwkhkwkkwwwwxwwwxxwkwwwwwwxxxxwxxwwxxxxwwxxxxxxxwwxxxxwwwxwwwwwwkkwxaaxxxaxxlnnllllnmmnnnblco",
"qtkkjjjjkwkjkwkkwwwwxwwwxxwwwxxwwxxxaxwxxwwxxaxxwxxxxaxxxwxxxxxwwxwxxwxwwkwxaaaxaaxxlnnmllmnmmncnlco",
"qtjkjkjjjkwwjkwwwwxwxxxwwxxwwxxxwwxaxxxwxxxxxxaxwxxaxxaxxxxxxxxxwxwxxxwxwkwwaaaaxaaxalcnmllmnmmncnno",
"qhhjkkkkjkkxwjwxwwxwxxxxxxxxxwxxxxxxaaaxxxxxxxaaaxxxaaxaaxxxxxxxxwxxxxxwxxwkxaaaaxabxalncmllnnnnncco",
"qhjjkkkkkkkkxwjwxwwxxxxxxxxaxxxxxxxxxaaaxxxaxxxaaaxxaaaaxaxxxaaaxxwxxxxxxxxwkxaabaaabxamccmmlncmncdo",
"qhkkjkwkkkkkwxwkwawxxxxaaaxxaaxxxaaxxaaaaaxxaaxaaaaxxaaaaaaaxxxaaaxxxxxxxxxxwwxaabaxbaxalccnmlmcnmdo",
"qtkwkjkwwwkkkwxxkwxxxaxxaaaaxaaxxxaaaxaabaaxaaaxaabaaxaaaaaaaaaxaaaxxxxaxxxxxwwxabbbxbbxalccnmmmcnco",
"qhkkwkkkwwwwwwxxxwxaxxaaaaaaaaaaaxaaaaxaabbaaaaaaabbaaaabaaaaaaaaaaaxxaxaaxxxxwwaabbbabbaamccnmmncco",
"qhkwkwkkkwwwwwwxaxwxaxxaaaaaaaabaaaaabaaababbaaaaaabbbaaabbbbaaaaaaaaaxxxaaaxaawwabblbabbaanccnmmneo",
"qhkwwwwwkwwwwwwwxaxwxbxaaaabbbaabaaaababaabbbbabbaabbbbaaabbbbbaaaabaaaaaxaaaxaawxxbbbbabbabnddcmmco",
"qhwwwwwxwkwxxwxwxaaaxxaaaabaabbbabbababbbabbbbbaabbbblbbbabbbbbbbaaabaaaxaaaaaaaxxxabbllalbabndccnco",
"qhwwwwwwxwwwxxxxxxaaaxabaabbbbbbbbbbbabbbbbbbllbabbabbblbbabbbbbbbaaabbaaaxaaaaaaxxxabbllalbabnddcco",
"qhwwwwxwwxxwwxxxxxxabaxabbabbbbbbbbbbbbbbbbbbbblbbbbbbbllbbbblbbbbbbabbbaaaaaaaaaaaxxalbllblbabcdddo",
"qhwwxxwxxwxxwxaxaxaaabaaabbbbbbblblblbbbblbbblbllbblbbbbllbbbbllblbbbabbbaaaaababaaaxxallmlbllaacdoo",
"qhxxwxxwxxxxxxxaaaxaaabbabbbblblblllblllbblllblllllbllbbblllbblllbblbbbbbbbaaaaababaaxxalbmmbllabceo",
"qjaxxwxxxxxxaxxxaaaaabbbbablbblbllllllllblblllblllllbllllllllbblllllblbbbbbbbabbbbabaaaxbllmmbmlaldo",
"qhbaxxxaxxaxxaaxababaabblbabllllblllllllllbllllllllmlbllblllmllbllllllbbblbbbaaaabbbbbaaxbllmmbmlbco",
"qhxbaaxxaaxaaaaaaabbbabbbllbblllllllmlllllllllllllllmllllllllmllblmllllllbblbbbbbbbbbbbaaabllmmlmlno",
"qjxabaaaxaaxaaabaaabbbbbblllbllllllllmmmlmllllmlllmmlmmllllllmmllllmllllllbllbbbbbbbbbbbbaablmnmlmco",
"qjbxabaaaxaaaaaabbabbbbblblllbllllmlmlmmmmmmlllmmlmmmmmmlmmlllmmllllmllllllbllblbbbbbbbbbbaabmlnnlco",
"qjbbaalbaaabaabbbbbbblllblllllllmlmmmlmmmmlmmmllmmlmmmmmmllmlmmmmmlllmmlmlllblllbbbbllbbbbbaabmmnnco",
"qjabbaalbbaabbabbbbbbbblllllmmlllmmmmmlmmmmmmmmmmmmmmmmmmmlmmmlmmmmllmmmlmllllllllbbbblblblbbalmmnco",
"qjaalbablbbabbbbbbbllblllllllmmmllmmmmmmmnnmmmmmmmnmmmnmmnnlmmmmmmmmllmmmlmmlllllllblbllblblbbalmmco",
"qjaballablbbbbblbllbllbllllllmmmmlmmmnmnmmnnnnmmmmmnnmnnmmnmmmmmmmnnmllmmmmmmlllllllblllllbllbbalmco",
"qkbabbllabmblbbllblllllllmmmlmmmmmlmmmnnmnnnnnnnnmmmnnmmnnmnnmmmmmmnnmmlmnmmmmmllmmlllbllllbllbbblco",
"sjndcccddcdddddddddddddddddddddddeeddeddeeddeedeeeeedeeeeeeddedeededdededdeddddddddddddddddddddddcdo",
"sdeooooooooooooooooooooooooooooooooooooooooooooooooooooooooooooooooooooooooooooooooooooooooooooooooo"
};
