#define safe_width 99
#define safe_height 99
static char safe_bits[] = {
    0x00, 0x00, 0x00, 0x00, 0x00, 0x00, 0x00, 0x00, 0x00, 0x00, 0x00, 0x00,
    0xf8, 0x00, 0x00, 0x00, 0x00, 0x00, 0x00, 0x00, 0x00, 0x00, 0x00, 0x00,
    0x00, 0xf8, 0x00, 0x00, 0x00, 0x00, 0x00, 0x00, 0x00, 0x00, 0x00, 0x00,
    0x00, 0x00, 0xf8, 0x00, 0x00, 0x00, 0x00, 0x00, 0x00, 0xe0, 0x18, 0x00,
    0x00, 0x00, 0x00, 0xf8, 0x00, 0x00, 0x00, 0x00, 0x00, 0x00, 0xc0, 0x19,
    0x00, 0x00, 0x00, 0x0c, 0xf8, 0x00, 0x00, 0x00, 0x00, 0x00, 0x00, 0xc0,
    0x1b, 0x00, 0x00, 0x00, 0xcc, 0xf8, 0x7c, 0x0e, 0xcf, 0xe1, 0x21, 0xf7,
    0xc0, 0x1e, 0xe7, 0xe7, 0xe1, 0x4c, 0xf8, 0xcc, 0x1e, 0xdb, 0x63, 0xb3,
    0x31, 0xc0, 0x9c, 0x81, 0x61, 0x33, 0x2c, 0xf8, 0xcc, 0x16, 0xdb, 0x62,
    0x36, 0xf3, 0xc0, 0x98, 0x87, 0x61, 0xf3, 0x3c, 0xf8, 0xcc, 0x36, 0xcf,
    0x66, 0x36, 0x36, 0xc0, 0x98, 0x81, 0xe1, 0x31, 0x6c, 0xf8, 0x7c, 0x2e,
    0xdb, 0x65, 0x36, 0x36, 0xc0, 0x98, 0x81, 0x61, 0x33, 0xec, 0xf8, 0x0c,
    0x66, 0xdb, 0xec, 0xb3, 0xf3, 0xe0, 0x18, 0x87, 0x61, 0xe3, 0xcc, 0xf9,
    0x0c, 0x00, 0x00, 0x00, 0x00, 0x00, 0x00, 0x00, 0x00, 0x00, 0x00, 0x00,
    0xf8, 0x0c, 0x00, 0x00, 0x00, 0x00, 0x00, 0x00, 0x00, 0x00, 0x00, 0x00,
    0x00, 0xf8, 0x00, 0x00, 0x00, 0x00, 0x00, 0x00, 0x00, 0x00, 0x00, 0x00,
    0x00, 0x00, 0xf8, 0x00, 0x00, 0x00, 0x00, 0x00, 0x00, 0x00, 0x00, 0x00,
    0x00, 0x00, 0x00, 0xf8, 0x00, 0x00, 0x00, 0x00, 0x00, 0x00, 0x00, 0x00,
    0x00, 0x00, 0x00, 0x00, 0xf8, 0x00, 0x00, 0x00, 0x00, 0x00, 0x00, 0x00,
    0x00, 0x00, 0x00, 0x00, 0x00, 0xf8, 0x00, 0x00, 0x00, 0x00, 0x00, 0x00,
    0x00, 0x00, 0x00, 0x00, 0x00, 0x00, 0xf8, 0x00, 0x00, 0x00, 0x00, 0x00,
    0x00, 0x00, 0x00, 0x00, 0x00, 0x00, 0x00, 0xf8, 0x00, 0x00, 0x00, 0x00,
    0x00, 0x00, 0x00, 0x00, 0x00, 0x00, 0x00, 0x00, 0xf8, 0x00, 0x00, 0x00,
    0x00, 0x00, 0x00, 0x00, 0x00, 0x00, 0x00, 0x00, 0x00, 0xf8, 0x00, 0x28,
    0x00, 0x00, 0x00, 0x00, 0x00, 0x00, 0x00, 0x00, 0x00, 0x00, 0xf8, 0x00,
    0x10, 0x00, 0x08, 0x00, 0x00, 0x00, 0x00, 0x00, 0x00, 0x00, 0x00, 0xf8,
    0x00, 0x20, 0x04, 0x24, 0x00, 0x00, 0x00, 0x48, 0xb5, 0x0b, 0x00, 0x00,
    0xf8, 0x00, 0x88, 0x48, 0x11, 0x00, 0x54, 0x6d, 0xb7, 0xef, 0x3e, 0x00,
    0x00, 0xf8, 0x00, 0x20, 0x51, 0x65, 0xe8, 0xb5, 0xdb, 0xfd, 0xba, 0x2b,
    0x00, 0x00, 0xf8, 0x00, 0x40, 0x24, 0xa8, 0x96, 0x5a, 0xed, 0x56, 0xdf,
    0xfd, 0x00, 0x00, 0xf8, 0x00, 0x00, 0x80, 0xd4, 0x5a, 0xab, 0x5a, 0xfb,
    0x75, 0x57, 0x00, 0x00, 0xf8, 0x40, 0x00, 0x52, 0x81, 0xaa, 0x55, 0xab,
    0xae, 0xde, 0xbd, 0x01, 0x00, 0xf8, 0x80, 0x02, 0xa0, 0x22, 0x6d, 0xb5,
    0x76, 0xf5, 0x75, 0x57, 0x01, 0x00, 0xf8, 0x40, 0x11, 0xc4, 0x81, 0xaa,
    0x4a, 0x55, 0x5b, 0xbf, 0xbb, 0x02, 0x00, 0xf8, 0x80, 0x0b, 0x4c, 0x10,
    0xaa, 0xaa, 0xaa, 0xaa, 0xea, 0xa6, 0x02, 0x00, 0xf8, 0xa0, 0x07, 0x98,
    0x40, 0xa9, 0xa4, 0x54, 0x55, 0xad, 0x2a, 0x01, 0x00, 0xf8, 0x00, 0x00,
    0x00, 0x00, 0x15, 0x92, 0x52, 0xb5, 0xb5, 0x85, 0x00, 0x00, 0xf8, 0x40,
    0xa1, 0x00, 0x50, 0x85, 0x48, 0x94, 0xaa, 0xaa, 0x52, 0x00, 0x00, 0xf8,
    0x00, 0x11, 0x00, 0x40, 0x12, 0x91, 0x22, 0x40, 0x55, 0x01, 0x00, 0x00,
    0xf8, 0x00, 0x05, 0x40, 0xa8, 0x40, 0x24, 0x08, 0x10, 0x6a, 0x04, 0x00,
    0x00, 0xf8, 0x40, 0x00, 0x00, 0x12, 0x04, 0x81, 0x22, 0x47, 0x0a, 0x00,
    0x00, 0x00, 0xf8, 0x10, 0x00, 0x08, 0x84, 0x40, 0x28, 0x88, 0x0e, 0x91,
    0x00, 0x00, 0x00, 0xf8, 0x28, 0x20, 0x41, 0x01, 0x08, 0x01, 0x01, 0xaa,
    0x02, 0x00, 0x00, 0x00, 0xf8, 0x0a, 0x00, 0x00, 0x00, 0x02, 0x40, 0xa8,
    0x40, 0x10, 0x00, 0x00, 0x00, 0xf8, 0x0a, 0x00, 0x00, 0x20, 0x10, 0x0a,
    0x01, 0x0a, 0x81, 0x00, 0x00, 0x00, 0xf8, 0x05, 0x44, 0x00, 0x80, 0x00,
    0x10, 0x92, 0x00, 0x04, 0x00, 0x00, 0x00, 0xf8, 0x42, 0x00, 0x08, 0x02,
    0x80, 0x80, 0x00, 0x22, 0x10, 0x00, 0x00, 0x00, 0xf8, 0x01, 0x00, 0x00,
    0x20, 0x00, 0x10, 0x90, 0x40, 0x00, 0x00, 0x00, 0x00, 0xf8, 0x00, 0x00,
    0x40, 0x00, 0x22, 0x02, 0x05, 0x24, 0x00, 0x00, 0x00, 0x00, 0xf8, 0x00,
    0x00, 0x02, 0x00, 0x00, 0x44, 0x40, 0x00, 0x00, 0x00, 0x00, 0x00, 0xf8,
    0x84, 0x08, 0x00, 0x11, 0x00, 0x00, 0x10, 0x00, 0xf8, 0x00, 0x00, 0x00,
    0xf8, 0x00, 0x40, 0x00, 0x00, 0x00, 0x89, 0x00, 0x00, 0xfc, 0x00, 0x00,
    0x00, 0xf8, 0x00, 0x00, 0x08, 0x00, 0x11, 0x00, 0x00, 0x00, 0x04, 0x1c,
    0xf8, 0x3c, 0xf8, 0x10, 0x00, 0x00, 0x00, 0x00, 0x00, 0x00, 0x00, 0x18,
    0x3c, 0x7c, 0x0c, 0xf8, 0x00, 0x00, 0x40, 0x44, 0x00, 0x10, 0x02, 0x00,
    0x60, 0x2c, 0x0c, 0x3c, 0xf8, 0x00, 0x09, 0x02, 0xa0, 0x00, 0x01, 0x10,
    0x00, 0x80, 0x6c, 0x3c, 0x0c, 0xf8, 0x00, 0x00, 0x00, 0x12, 0x08, 0x00,
    0x00, 0x00, 0xfc, 0x5c, 0x0c, 0x0c, 0xf8, 0x00, 0x40, 0x80, 0x00, 0x00,
    0x00, 0x00, 0x00, 0x7c, 0xcc, 0x0c, 0x3c, 0xf8, 0x08, 0x00, 0x28, 0x00,
    0x00, 0x48, 0x00, 0x00, 0x00, 0x00, 0x00, 0x00, 0xf8, 0x40, 0x00, 0x10,
    0x00, 0x00, 0x01, 0x00, 0x00, 0x00, 0x00, 0x00, 0x00, 0xf8, 0x00, 0x04,
    0x00, 0x84, 0x08, 0xa8, 0x00, 0x80, 0x03, 0x00, 0x00, 0x00, 0xf8, 0x00,
    0x00, 0x02, 0x00, 0x00, 0x22, 0x00, 0x80, 0x87, 0x99, 0x67, 0xe6, 0xf9,
    0x00, 0x00, 0x80, 0x00, 0x40, 0x48, 0x01, 0x80, 0x89, 0x99, 0x61, 0x66,
    0xf8, 0x08, 0x40, 0x00, 0x00, 0x10, 0x95, 0x00, 0x80, 0x91, 0x99, 0x67,
    0xe6, 0xf9, 0x40, 0x00, 0x10, 0x10, 0x45, 0x00, 0x2f, 0x80, 0x95, 0x99,
    0x61, 0x66, 0xf8, 0x00, 0x08, 0x00, 0x00, 0x20, 0xa8, 0xba, 0x81, 0x89,
    0x99, 0x61, 0x66, 0xf8, 0x00, 0x00, 0x01, 0xa2, 0x4a, 0x01, 0xf6, 0x06,
    0x17, 0x9b, 0xc7, 0xe6, 0xf9, 0x00, 0x00, 0x00, 0x00, 0x40, 0x48, 0xad,
    0x15, 0x00, 0x00, 0x00, 0x00, 0xf8, 0x88, 0x00, 0x10, 0x28, 0x05, 0x82,
    0x7a, 0x2f, 0x00, 0x00, 0x00, 0x00, 0xf8, 0x00, 0x40, 0x80, 0x02, 0x20,
    0x60, 0xaa, 0xb5, 0x00, 0x00, 0x00, 0x00, 0xf8, 0x00, 0x04, 0x08, 0x92,
    0x02, 0x15, 0x54, 0xad, 0x00, 0x00, 0x00, 0x00, 0xf8, 0x00, 0x00, 0xa0,
    0x24, 0x4b, 0x14, 0x50, 0x55, 0x03, 0x00, 0x00, 0x00, 0xf8, 0x10, 0x00,
    0x00, 0x00, 0x04, 0x03, 0x81, 0xaa, 0x0a, 0x00, 0x00, 0x00, 0xf8, 0x40,
    0x00, 0x00, 0x09, 0xa0, 0x00, 0x20, 0x50, 0x05, 0x00, 0x00, 0x00, 0xf8,
    0x00, 0x00, 0x20, 0x40, 0x2a, 0x20, 0x11, 0x54, 0x0b, 0x00, 0x00, 0x00,
    0xf8, 0x00, 0x00, 0x00, 0x12, 0x05, 0x08, 0x00, 0x80, 0x34, 0x00, 0x00,
    0x00, 0xf8, 0x00, 0x00, 0xa0, 0x64, 0x00, 0x00, 0x04, 0x01, 0x0a, 0x00,
    0x00, 0x00, 0xf8, 0x00, 0x00, 0x00, 0x09, 0x40, 0x45, 0x00, 0x00, 0x68,
    0x00, 0x00, 0x00, 0xf8, 0x00, 0x00, 0x00, 0x00, 0x04, 0x10, 0x24, 0x08,
    0x11, 0x00, 0x00, 0x00, 0xf8, 0x00, 0x00, 0x20, 0x80, 0x40, 0x40, 0x00,
    0x00, 0xa0, 0x00, 0x00, 0x00, 0xf8, 0x00, 0x00, 0x04, 0x20, 0x00, 0x09,
    0x00, 0x00, 0x00, 0x00, 0x00, 0x00, 0xf8, 0x00, 0x00, 0x90, 0x0a, 0x50,
    0x00, 0x01, 0x42, 0x00, 0x00, 0x00, 0x00, 0xf8, 0x00, 0x00, 0x40, 0x20,
    0x01, 0x00, 0x10, 0x10, 0x04, 0x00, 0x00, 0x00, 0xf8, 0x00, 0x00, 0x14,
    0x00, 0x00, 0x04, 0x00, 0x28, 0x00, 0x00, 0x00, 0x00, 0xf8, 0x00, 0x00,
    0x00, 0xa5, 0x80, 0x20, 0x00, 0x14, 0x00, 0x00, 0x00, 0x00, 0xf8, 0x00,
    0x00, 0x48, 0x08, 0x20, 0x02, 0x80, 0x00, 0x00, 0x00, 0x00, 0x00, 0xf8,
    0x00, 0x00, 0x01, 0x20, 0x04, 0x00, 0x51, 0x00, 0x01, 0x00, 0x00, 0x00,
    0xf8, 0x00, 0x00, 0x24, 0x81, 0x00, 0x08, 0x20, 0x00, 0xe0, 0x00, 0x00,
    0x00, 0xf8, 0x00, 0x00, 0x02, 0x04, 0x20, 0x40, 0x00, 0x04, 0xe0, 0x61,
    0x66, 0x1e, 0xf8, 0x00, 0x00, 0x20, 0x51, 0x04, 0x09, 0x05, 0x20, 0x60,
    0x62, 0x66, 0x0c, 0xf8, 0x00, 0x00, 0x05, 0x00, 0x01, 0x60, 0x20, 0x00,
    0x60, 0x64, 0x66, 0x0c, 0xf8, 0x00, 0x00, 0x90, 0x24, 0x80, 0x04, 0x02,
    0x00, 0x60, 0x65, 0x66, 0x0c, 0xf8, 0x00, 0x00, 0x01, 0x00, 0x00, 0x00,
    0x00, 0x00, 0x60, 0x62, 0x66, 0x0c, 0xf8, 0x00, 0x00, 0x54, 0x92, 0x24,
    0x11, 0x00, 0x02, 0xc0, 0xc5, 0x66, 0x0c, 0xf8, 0x00, 0x00, 0x02, 0x00,
    0x00, 0x00, 0x10, 0x00, 0x00, 0x00, 0x00, 0x00, 0xf8, 0x00, 0x00, 0x11,
    0x49, 0x11, 0x10, 0x01, 0x10, 0x00, 0x00, 0x00, 0x00, 0xf8, 0x00, 0x00,
    0x44, 0x00, 0x84, 0x00, 0x00, 0x00, 0x00, 0x00, 0x00, 0x00, 0xf8, 0x00,
    0x00, 0x11, 0x24, 0x01, 0x02, 0x90, 0x10, 0x00, 0x00, 0x00, 0x00, 0xf8,
    0x00, 0x00, 0x44, 0x01, 0x00, 0x20, 0x00, 0x00, 0x00, 0x00, 0x00, 0x00,
    0xf8, 0x00, 0x00, 0x10, 0x90, 0x04, 0x00, 0x01, 0x50, 0x00, 0x00, 0x00,
    0x00, 0xf8, 0x00, 0x00, 0x44, 0x02, 0x00, 0x04, 0x20, 0x00, 0x00, 0x00,
0x00, 0x00, 0xf8};
