#define kli_assault_width 20
#define kli_assault_height 320
static unsigned char kli_assault_bits[] = {
	0x00, 0x00, 0x00, 0x00, 0x00, 0x00, 0x00, 0x0a, 0x00, 0x00, 0x1f, 0x00, 0x00, 0x1f, 0x00,
	0x00, 0x0e, 0x00, 0x08, 0x0e, 0x02, 0x08, 0x1f, 0x02, 0x08, 0x1f, 0x02, 0x08, 0x0e, 0x02,
	0x18, 0x1f, 0x03, 0xf8, 0xff, 0x03, 0xf8, 0xff, 0x03, 0x78, 0xdf, 0x03, 0xe8, 0xee, 0x02,
0x80, 0x3f, 0x00, 0x00, 0x0e, 0x00, 0x00, 0x00, 0x00, 0x00, 0x00, 0x00, 0x00, 0x00, 0x00,
0x00, 0x00, 0x00, 0x00, 0x00, 0x00, 0x00, 0x18, 0x00, 0x10, 0x7c, 0x00, 0x10, 0x7c, 0x00,
    0x08, 0x3c, 0x00, 0x08, 0x1f, 0x00, 0x0c, 0x1f, 0x00, 0x1c, 0x1f, 0x00, 0xfe, 0x0f, 0x02,
    0xfe, 0x0f, 0x02, 0xda, 0x0f, 0x01, 0xb0, 0xff, 0x01, 0xe0, 0xff, 0x00, 0xc0, 0xf5, 0x00,
0xc0, 0x7f, 0x00, 0x00, 0x40, 0x00, 0x00, 0x00, 0x00, 0x00, 0x00, 0x00, 0x00, 0x00, 0x00,
0x00, 0x00, 0x00, 0x00, 0x00, 0x00, 0x80, 0x00, 0x00, 0x40, 0xe0, 0x00, 0x20, 0x60, 0x01,
    0x30, 0xf0, 0x01, 0x38, 0xfc, 0x01, 0x7c, 0x7c, 0x00, 0xf0, 0x3f, 0x00, 0xf0, 0x3f, 0x00,
    0xd0, 0x0f, 0x00, 0xd0, 0x0f, 0x00, 0xe0, 0x0f, 0x02, 0xe0, 0x1f, 0x01, 0xc0, 0xfc, 0x00,
0x00, 0x7f, 0x00, 0x00, 0x30, 0x00, 0x00, 0x10, 0x00, 0x00, 0x00, 0x00, 0x00, 0x00, 0x00,
0x00, 0x00, 0x00, 0x00, 0x03, 0x00, 0xc0, 0x00, 0x00, 0x70, 0x00, 0x00, 0x7c, 0xc0, 0x00,
    0x78, 0xe0, 0x00, 0x78, 0xfc, 0x01, 0xe8, 0xff, 0x01, 0xf8, 0xff, 0x00, 0xe8, 0x1f, 0x00,
    0xf8, 0x1f, 0x00, 0xf8, 0x03, 0x00, 0xb8, 0x03, 0x00, 0x60, 0x03, 0x00, 0xc0, 0xc7, 0x00,
0x80, 0x3f, 0x00, 0x00, 0x0f, 0x00, 0x80, 0x03, 0x00, 0x00, 0x00, 0x00, 0x00, 0x00, 0x00,
0x00, 0x00, 0x00, 0x00, 0x00, 0x00, 0xe0, 0x3f, 0x00, 0xc0, 0x03, 0x00, 0xe0, 0x01, 0x00,
    0xe0, 0x01, 0x00, 0xb0, 0x01, 0x00, 0xd0, 0x9b, 0x01, 0xf8, 0xff, 0x03, 0xf8, 0xff, 0x01,
    0xf8, 0xff, 0x03, 0xd0, 0x9b, 0x01, 0xb0, 0x01, 0x00, 0xe0, 0x01, 0x00, 0xe0, 0x01, 0x00,
0xc0, 0x03, 0x00, 0xe0, 0x3f, 0x00, 0x00, 0x00, 0x00, 0x00, 0x00, 0x00, 0x00, 0x00, 0x00,
0x00, 0x00, 0x00, 0x00, 0x00, 0x00, 0x80, 0x03, 0x00, 0x00, 0x0f, 0x00, 0x80, 0x3f, 0x00,
    0xc0, 0xc7, 0x00, 0x60, 0x03, 0x00, 0xb8, 0x03, 0x00, 0xf8, 0x03, 0x00, 0xf8, 0x1f, 0x00,
    0xe8, 0x1f, 0x00, 0xf8, 0xff, 0x00, 0xe8, 0xff, 0x01, 0x78, 0xfc, 0x01, 0x78, 0xe0, 0x00,
0x7c, 0xc0, 0x00, 0x70, 0x00, 0x00, 0xc0, 0x00, 0x00, 0x00, 0x03, 0x00, 0x00, 0x00, 0x00,
0x00, 0x00, 0x00, 0x00, 0x00, 0x00, 0x00, 0x10, 0x00, 0x00, 0x30, 0x00, 0x00, 0x7f, 0x00,
    0xc0, 0xfc, 0x00, 0xe0, 0x1f, 0x01, 0xe0, 0x0f, 0x02, 0xd0, 0x0f, 0x00, 0xd0, 0x0f, 0x00,
    0xf0, 0x3f, 0x00, 0xf0, 0x3f, 0x00, 0x7c, 0x7c, 0x00, 0x38, 0xfc, 0x01, 0x30, 0xf0, 0x01,
0x20, 0x60, 0x01, 0x40, 0xe0, 0x00, 0x80, 0x00, 0x00, 0x00, 0x00, 0x00, 0x00, 0x00, 0x00,
0x00, 0x00, 0x00, 0x00, 0x00, 0x00, 0x00, 0x00, 0x00, 0x00, 0x40, 0x00, 0xc0, 0x7f, 0x00,
    0xc0, 0xf5, 0x00, 0xe0, 0xff, 0x00, 0xb0, 0xff, 0x01, 0xda, 0x0f, 0x01, 0xfe, 0x0f, 0x02,
    0xfe, 0x0f, 0x02, 0x1c, 0x1f, 0x00, 0x0c, 0x1f, 0x00, 0x08, 0x1f, 0x00, 0x08, 0x3c, 0x00,
0x10, 0x7c, 0x00, 0x10, 0x7c, 0x00, 0x00, 0x18, 0x00, 0x00, 0x00, 0x00, 0x00, 0x00, 0x00,
0x00, 0x00, 0x00, 0x00, 0x00, 0x00, 0x00, 0x00, 0x00, 0x00, 0x0e, 0x00, 0x80, 0x3f, 0x00,
    0xe8, 0xee, 0x02, 0x78, 0xdf, 0x03, 0xf8, 0xff, 0x03, 0xf8, 0xff, 0x03, 0x18, 0x1f, 0x03,
    0x08, 0x0e, 0x02, 0x08, 0x1f, 0x02, 0x08, 0x1f, 0x02, 0x08, 0x0e, 0x02, 0x00, 0x0e, 0x00,
0x00, 0x1f, 0x00, 0x00, 0x1f, 0x00, 0x00, 0x0a, 0x00, 0x00, 0x00, 0x00, 0x00, 0x00, 0x00,
0x00, 0x00, 0x00, 0x00, 0x00, 0x00, 0x00, 0x00, 0x00, 0x20, 0x00, 0x00, 0xe0, 0x3f, 0x00,
    0xf0, 0x3a, 0x00, 0xf0, 0x7f, 0x00, 0xf8, 0xdf, 0x00, 0x08, 0xbf, 0x05, 0x04, 0xff, 0x07,
    0x04, 0xff, 0x07, 0x80, 0x8f, 0x03, 0x80, 0x0f, 0x03, 0x80, 0x0f, 0x01, 0xc0, 0x03, 0x01,
0xe0, 0x83, 0x00, 0xe0, 0x83, 0x00, 0x80, 0x01, 0x00, 0x00, 0x00, 0x00, 0x00, 0x00, 0x00,
0x00, 0x00, 0x00, 0x00, 0x00, 0x00, 0x80, 0x00, 0x00, 0xc0, 0x00, 0x00, 0xe0, 0x0f, 0x00,
    0xf0, 0x33, 0x00, 0x88, 0x7f, 0x00, 0x04, 0x7f, 0x00, 0x00, 0xbf, 0x00, 0x00, 0xbf, 0x00,
    0xc0, 0xff, 0x00, 0xc0, 0xff, 0x00, 0xe0, 0xe3, 0x03, 0xf8, 0xc3, 0x01, 0xf8, 0xc0, 0x00,
0x68, 0x40, 0x00, 0x70, 0x20, 0x00, 0x00, 0x10, 0x00, 0x00, 0x00, 0x00, 0x00, 0x00, 0x00,
0x00, 0x00, 0x00, 0x00, 0x00, 0x00, 0x00, 0x1c, 0x00, 0x00, 0x0f, 0x00, 0xc0, 0x1f, 0x00,
    0x30, 0x3e, 0x00, 0x00, 0x6c, 0x00, 0x00, 0xdc, 0x01, 0x00, 0xfc, 0x01, 0x80, 0xff, 0x01,
    0x80, 0x7f, 0x01, 0xf0, 0xff, 0x01, 0xf8, 0x7f, 0x01, 0xf8, 0xe3, 0x01, 0x70, 0xe0, 0x01,
0x30, 0xe0, 0x03, 0x00, 0xe0, 0x00, 0x00, 0x30, 0x00, 0x00, 0x0c, 0x00, 0x00, 0x00, 0x00,
0x00, 0x00, 0x00, 0x00, 0x00, 0x00, 0xc0, 0x7f, 0x00, 0x00, 0x3c, 0x00, 0x00, 0x78, 0x00,
    0x00, 0x78, 0x00, 0x00, 0xd8, 0x00, 0x98, 0xbd, 0x00, 0xfc, 0xff, 0x01, 0xf8, 0xff, 0x01,
    0xfc, 0xff, 0x01, 0x98, 0xbd, 0x00, 0x00, 0xd8, 0x00, 0x00, 0x78, 0x00, 0x00, 0x78, 0x00,
0x00, 0x3c, 0x00, 0xc0, 0x7f, 0x00, 0x00, 0x00, 0x00, 0x00, 0x00, 0x00, 0x00, 0x00, 0x00,
0x00, 0x00, 0x00, 0x00, 0x0c, 0x00, 0x00, 0x30, 0x00, 0x00, 0xe0, 0x00, 0x30, 0xe0, 0x03,
    0x70, 0xe0, 0x01, 0xf8, 0xe3, 0x01, 0xf8, 0x7f, 0x01, 0xf0, 0xff, 0x01, 0x80, 0x7f, 0x01,
    0x80, 0xff, 0x01, 0x00, 0xfc, 0x01, 0x00, 0xdc, 0x01, 0x00, 0x6c, 0x00, 0x30, 0x3e, 0x00,
0xc0, 0x1f, 0x00, 0x00, 0x0f, 0x00, 0x00, 0x1c, 0x00, 0x00, 0x00, 0x00, 0x00, 0x00, 0x00,
0x00, 0x00, 0x00, 0x00, 0x00, 0x00, 0x00, 0x10, 0x00, 0x70, 0x20, 0x00, 0x68, 0x40, 0x00,
    0xf8, 0xc0, 0x00, 0xf8, 0xc3, 0x01, 0xe0, 0xe3, 0x03, 0xc0, 0xff, 0x00, 0xc0, 0xff, 0x00,
    0x00, 0xbf, 0x00, 0x00, 0xbf, 0x00, 0x04, 0x7f, 0x00, 0x88, 0x7f, 0x00, 0xf0, 0x33, 0x00,
0xe0, 0x0f, 0x00, 0xc0, 0x00, 0x00, 0x80, 0x00, 0x00, 0x00, 0x00, 0x00, 0x00, 0x00, 0x00,
0x00, 0x00, 0x00, 0x00, 0x00, 0x00, 0x80, 0x01, 0x00, 0xe0, 0x83, 0x00, 0xe0, 0x83, 0x00,
    0xc0, 0x03, 0x01, 0x80, 0x0f, 0x01, 0x80, 0x0f, 0x03, 0x80, 0x8f, 0x03, 0x04, 0xff, 0x07,
    0x04, 0xff, 0x07, 0x08, 0xbf, 0x05, 0xf8, 0xdf, 0x00, 0xf0, 0x7f, 0x00, 0xf0, 0x3a, 0x00,
0xe0, 0x3f, 0x00, 0x20, 0x00, 0x00, 0x00, 0x00, 0x00, 0x00, 0x00, 0x00, 0x00, 0x00, 0x00};
