#define kli_lightcruiser_width 20
#define kli_lightcruiser_height 320
static unsigned char kli_lightcruiser_bits[] = {
	0x00, 0x00, 0x00, 0x00, 0x00, 0x00, 0x00, 0x0f, 0x00, 0x80, 0x1f, 0x00,
	0x00, 0x0f, 0x00, 0x00, 0x06, 0x00, 0x00, 0x06, 0x00, 0x00, 0x06, 0x00,
	0x00, 0x06, 0x00, 0x00, 0x06, 0x00, 0x00, 0x0f, 0x00, 0x88, 0x1f, 0x01,
	0xf8, 0xff, 0x01, 0xf8, 0xf6, 0x01, 0xf8, 0xf6, 0x01, 0x08, 0x0f, 0x01,
0x08, 0x00, 0x01, 0x00, 0x00, 0x00, 0x00, 0x00, 0x00, 0x00, 0x00, 0x00,
0x00, 0x00, 0x00, 0x00, 0x00, 0x00, 0x00, 0x18, 0x00, 0x00, 0x7c, 0x00,
    0x00, 0x7c, 0x00, 0x00, 0x78, 0x00, 0x00, 0x1c, 0x00, 0x00, 0x0c, 0x00,
    0x08, 0x0e, 0x00, 0x08, 0x07, 0x00, 0xfc, 0x07, 0x00, 0xfc, 0x0f, 0x00,
    0x7e, 0x0f, 0x00, 0xa2, 0x9d, 0x00, 0xc0, 0xfd, 0x00, 0x00, 0x7f, 0x00,
0x00, 0x70, 0x00, 0x00, 0x20, 0x00, 0x00, 0x20, 0x00, 0x00, 0x00, 0x00,
0x00, 0x00, 0x00, 0x00, 0x00, 0x00, 0x00, 0x00, 0x00, 0x00, 0x60, 0x00,
    0x00, 0xf0, 0x00, 0x00, 0xe0, 0x01, 0x10, 0xf0, 0x01, 0x18, 0xb8, 0x00,
    0x3c, 0x1c, 0x00, 0xfe, 0x0f, 0x00, 0xfa, 0x07, 0x00, 0xb0, 0x07, 0x00,
    0xc0, 0x07, 0x00, 0xe0, 0x06, 0x00, 0x40, 0x0f, 0x00, 0x00, 0x3f, 0x00,
0x00, 0x1e, 0x00, 0x00, 0x0c, 0x00, 0x00, 0x06, 0x00, 0x00, 0x00, 0x00,
0x00, 0x00, 0x00, 0x00, 0x00, 0x00, 0x00, 0x00, 0x00, 0x00, 0x00, 0x00,
    0x60, 0x00, 0x00, 0x38, 0xc0, 0x01, 0x3e, 0xc0, 0x01, 0x70, 0xe0, 0x03,
    0xf0, 0xfd, 0x03, 0xf0, 0xbf, 0x01, 0x90, 0x07, 0x00, 0xf0, 0x07, 0x00,
    0x60, 0x03, 0x00, 0xa0, 0x03, 0x00, 0xc0, 0x03, 0x00, 0x80, 0x03, 0x00,
0x80, 0x0f, 0x00, 0x80, 0x03, 0x00, 0xc0, 0x00, 0x00, 0x00, 0x00, 0x00,
0x00, 0x00, 0x00, 0x00, 0x00, 0x00, 0x00, 0x00, 0x00, 0xf8, 0x01, 0x00,
    0xe0, 0x00, 0x00, 0xe0, 0x00, 0x00, 0xe0, 0x00, 0x00, 0xe0, 0x01, 0x01,
    0x90, 0x83, 0x03, 0xf0, 0xff, 0x03, 0xf0, 0xff, 0x03, 0x90, 0x83, 0x03,
    0xe0, 0x01, 0x01, 0xe0, 0x00, 0x00, 0xe0, 0x00, 0x00, 0xe0, 0x00, 0x00,
0xf8, 0x01, 0x00, 0x00, 0x00, 0x00, 0x00, 0x00, 0x00, 0x00, 0x00, 0x00,
0x00, 0x00, 0x00, 0xc0, 0x00, 0x00, 0x80, 0x03, 0x00, 0x80, 0x0f, 0x00,
    0x80, 0x03, 0x00, 0xc0, 0x03, 0x00, 0xa0, 0x03, 0x00, 0x60, 0x03, 0x00,
    0xf0, 0x07, 0x00, 0x90, 0x0f, 0x00, 0xf0, 0xbf, 0x01, 0xf0, 0xf9, 0x03,
    0x78, 0xe0, 0x03, 0x3e, 0xc0, 0x01, 0x38, 0xc0, 0x01, 0x60, 0x00, 0x00,
0x00, 0x00, 0x00, 0x00, 0x00, 0x00, 0x00, 0x00, 0x00, 0x00, 0x00, 0x00,
0x00, 0x00, 0x00, 0x00, 0x06, 0x00, 0x00, 0x0c, 0x00, 0x00, 0x1e, 0x00,
    0x00, 0x3f, 0x00, 0x40, 0x0f, 0x00, 0xe0, 0x06, 0x00, 0xc0, 0x07, 0x00,
    0xb0, 0x07, 0x00, 0xfa, 0x07, 0x00, 0xfe, 0x0f, 0x00, 0x3c, 0x1c, 0x00,
    0x18, 0xb8, 0x00, 0x10, 0xf0, 0x01, 0x00, 0xe0, 0x01, 0x00, 0xf0, 0x00,
0x00, 0x60, 0x00, 0x00, 0x00, 0x00, 0x00, 0x00, 0x00, 0x00, 0x00, 0x00,
0x00, 0x00, 0x00, 0x00, 0x20, 0x00, 0x00, 0x20, 0x00, 0x00, 0x60, 0x00,
    0x00, 0x7f, 0x00, 0xc0, 0xfd, 0x00, 0xa2, 0x9d, 0x00, 0x7e, 0x0f, 0x00,
    0xfc, 0x0f, 0x00, 0xfc, 0x07, 0x00, 0x08, 0x0f, 0x00, 0x08, 0x0c, 0x00,
    0x00, 0x0c, 0x00, 0x00, 0x1c, 0x00, 0x00, 0x78, 0x00, 0x00, 0x7c, 0x00,
0x00, 0x7c, 0x00, 0x00, 0x18, 0x00, 0x00, 0x00, 0x00, 0x00, 0x00, 0x00,
0x00, 0x00, 0x00, 0x00, 0x00, 0x00, 0x00, 0x00, 0x00, 0x08, 0x00, 0x01,
    0x08, 0x0f, 0x01, 0xf8, 0xf6, 0x01, 0xf8, 0xf6, 0x01, 0xf8, 0xff, 0x01,
    0x88, 0x1f, 0x01, 0x00, 0x0f, 0x00, 0x00, 0x06, 0x00, 0x00, 0x06, 0x00,
    0x00, 0x06, 0x00, 0x00, 0x06, 0x00, 0x00, 0x06, 0x00, 0x00, 0x0f, 0x00,
0x80, 0x1f, 0x00, 0x00, 0x0f, 0x00, 0x00, 0x00, 0x00, 0x00, 0x00, 0x00,
0x00, 0x00, 0x00, 0x40, 0x00, 0x00, 0x40, 0x00, 0x00, 0xe0, 0x00, 0x00,
    0xe0, 0x0f, 0x00, 0xf0, 0x3b, 0x00, 0x90, 0x5b, 0x04, 0x00, 0xef, 0x07,
    0x00, 0xff, 0x03, 0x00, 0xfe, 0x03, 0x00, 0x0e, 0x01, 0x00, 0x07, 0x01,
    0x00, 0x03, 0x00, 0x80, 0x03, 0x00, 0xe0, 0x01, 0x00, 0xe0, 0x03, 0x00,
0xe0, 0x03, 0x00, 0x80, 0x01, 0x00, 0x00, 0x00, 0x00, 0x00, 0x00, 0x00,
0x00, 0x00, 0x00, 0x00, 0x06, 0x00, 0x00, 0x03, 0x00, 0x80, 0x07, 0x00,
    0xc0, 0x0f, 0x00, 0x00, 0x2f, 0x00, 0x00, 0x76, 0x00, 0x00, 0x3e, 0x00,
    0x00, 0xde, 0x00, 0x00, 0xfe, 0x05, 0x00, 0xff, 0x07, 0x80, 0xc3, 0x03,
    0xd0, 0x81, 0x01, 0xf8, 0x80, 0x00, 0x78, 0x00, 0x00, 0xf0, 0x00, 0x00,
0x60, 0x00, 0x00, 0x00, 0x00, 0x00, 0x00, 0x00, 0x00, 0x00, 0x00, 0x00,
0x00, 0x00, 0x00, 0x00, 0x30, 0x00, 0x00, 0x1c, 0x00, 0x00, 0x1f, 0x00,
    0x00, 0x1c, 0x00, 0x00, 0x3c, 0x00, 0x00, 0x5c, 0x00, 0x00, 0x6c, 0x00,
    0x00, 0xfe, 0x00, 0x00, 0x9e, 0x00, 0xd8, 0xff, 0x00, 0xfc, 0xfb, 0x00,
    0x7c, 0xe0, 0x00, 0x38, 0xc0, 0x07, 0x38, 0xc0, 0x01, 0x00, 0x60, 0x00,
0x00, 0x00, 0x00, 0x00, 0x00, 0x00, 0x00, 0x00, 0x00, 0x00, 0x00, 0x00,
0x00, 0x00, 0x00, 0x00, 0x00, 0x00, 0x00, 0x00, 0x00, 0x00, 0xf8, 0x01,
    0x00, 0x70, 0x00, 0x00, 0x70, 0x00, 0x00, 0x70, 0x00, 0x08, 0x78, 0x00,
    0x1c, 0x9c, 0x00, 0xfc, 0xff, 0x00, 0xfc, 0xff, 0x00, 0x1c, 0x9c, 0x00,
    0x08, 0x78, 0x00, 0x00, 0x70, 0x00, 0x00, 0x70, 0x00, 0x00, 0x70, 0x00,
0x00, 0xf8, 0x01, 0x00, 0x00, 0x00, 0x00, 0x00, 0x00, 0x00, 0x00, 0x00,
0x00, 0x00, 0x00, 0x00, 0x00, 0x00, 0x00, 0x00, 0x00, 0x00, 0x00, 0x00,
    0x00, 0x60, 0x00, 0x38, 0xc0, 0x01, 0x38, 0xc0, 0x07, 0x7c, 0xe0, 0x01,
    0xfc, 0xf9, 0x00, 0xd8, 0xff, 0x00, 0x00, 0x9f, 0x00, 0x00, 0xfe, 0x00,
    0x00, 0x6c, 0x00, 0x00, 0x5c, 0x00, 0x00, 0x3c, 0x00, 0x00, 0x1c, 0x00,
0x00, 0x1f, 0x00, 0x00, 0x1c, 0x00, 0x00, 0x30, 0x00, 0x00, 0x00, 0x00,
0x00, 0x00, 0x00, 0x00, 0x00, 0x00, 0x00, 0x00, 0x00, 0x60, 0x00, 0x00,
    0xf0, 0x00, 0x00, 0x78, 0x00, 0x00, 0xf8, 0x80, 0x00, 0xd0, 0x81, 0x01,
    0x80, 0xc3, 0x03, 0x00, 0xff, 0x07, 0x00, 0xfe, 0x05, 0x00, 0xde, 0x00,
    0x00, 0x3e, 0x00, 0x00, 0x76, 0x00, 0x00, 0x2f, 0x00, 0xc0, 0x0f, 0x00,
0x80, 0x07, 0x00, 0x00, 0x03, 0x00, 0x00, 0x06, 0x00, 0x00, 0x00, 0x00,
0x00, 0x00, 0x00, 0x00, 0x00, 0x00, 0x80, 0x01, 0x00, 0xe0, 0x03, 0x00,
    0xe0, 0x03, 0x00, 0xe0, 0x01, 0x00, 0x80, 0x03, 0x00, 0x00, 0x03, 0x00,
    0x00, 0x03, 0x01, 0x00, 0x0f, 0x01, 0x00, 0xfe, 0x03, 0x00, 0xff, 0x03,
    0x00, 0xef, 0x07, 0x90, 0x5b, 0x04, 0xf0, 0x3b, 0x00, 0xe0, 0x0f, 0x00,
0x60, 0x00, 0x00, 0x40, 0x00, 0x00, 0x40, 0x00, 0x00, 0x00, 0x00, 0x00};
