/* XPM */
static char * C11_xpm[] = {
"20 320 8 1",
" 	c None",
".	c #B0B0B0",
"X	c #C1C1C1",
"o	c #909090",
"O	c #00FF00",
"+	c #A1A1A1",
"@	c #FF0000",
"#	c #B00000",
"                    ",
"        ....        ",
"       ..XX..       ",
"        .XX.        ",
"         ..         ",
"         ..         ",
"         ..         ",
"         ..         ",
"         ..         ",
"        o..o        ",
"  o   oo....oo   o  ",
"  O  o...XX...o  O  ",
"  Oo....XXXX....oO  ",
"  Oo++.XoXXoX.++oO  ",
"  Oooo+X+XX+X++ooO  ",
"  o oooX.XX.Xooo o  ",
"       oX@@Xo       ",
"         ##         ",
"                    ",
"                    ",
"                    ",
"           ...o     ",
"           .XX.o    ",
"           oXX..    ",
"           o..o     ",
"           ..       ",
"           ..       ",
"   o      ..        ",
"  O      o..        ",
"  Oo.o......        ",
" OOo+....X..o       ",
"ooooo.X.XXX..o      ",
"   oo+XoXXX...o  o  ",
"    ooX+XXoX...  O  ",
"     o.XXX+X.++oO   ",
"      #@@.Xo+oooO   ",
"        #XoooooO    ",
"               o    ",
"                    ",
"                    ",
"                    ",
"                    ",
"             oo+    ",
"             o.X.   ",
"    oo       +XXX+  ",
"   Oo        +.X.o  ",
"  Ooo       o.++oo  ",
" Oo+..ooo  o.o      ",
" oo++...o...o       ",
"   ++.......        ",
"   o+XXXXX..        ",
"    X+oXXX.oo       ",
"    o.XXXX..o       ",
"     @XXoX..o       ",
"     #@.+X...  o    ",
"       oX+++.ooo    ",
"         o+++oO     ",
"           ooO      ",
"           oO       ",
"                    ",
"                    ",
"                    ",
"      Oo            ",
"    OO              ",
"  oOoo          .o  ",
"   oo+.o       o..o ",
"   oo+..o      .XX. ",
"   oo....o   ...XX. ",
"   ooXX........oo.. ",
"   oX+oXX....       ",
"   X.XXXXX.o        ",
"   #@XXXX..         ",
"    @X+o...         ",
"    #.XXX..         ",
"     oo+..o         ",
"      oo++.         ",
"       oooo o       ",
"        oOOO        ",
"        oO          ",
"        o           ",
"                    ",
"                    ",
"    oOOOOo          ",
"     ooo            ",
"    oo+.            ",
"    oo+.o           ",
"    o+...o          ",
"   oXXX..o       .  ",
"   X.+oX..o     ... ",
"  #@XXXXX.......XX. ",
"  #@XXXXX.......XX. ",
"   X.+oX..o     ... ",
"   oXXX..o       .  ",
"    o+...o          ",
"    o++.o           ",
"    oo+.            ",
"     ooo            ",
"    oOOOOo          ",
"                    ",
"                    ",
"        o           ",
"        oO          ",
"        oOOO        ",
"       oooo o       ",
"      ooo+.         ",
"     oo+..o         ",
"    #.XXX..         ",
"    @X+o...         ",
"   #@XXXX..         ",
"   X.XXXXX.o        ",
"   oX+oXX....       ",
"   ooXX........oo.. ",
"   o+....o   ...XX. ",
"   oo+..o      .XX. ",
"   oo+.o       o..o ",
"  oOoo          .o  ",
"    OO              ",
"      Oo            ",
"                    ",
"                    ",
"                    ",
"           oO       ",
"           ooO      ",
"         o+++oO     ",
"       oX+++.ooo    ",
"     #@.+X...  o    ",
"     @XXoX..o       ",
"    o.XXXX..o       ",
"    X+oXXX.oo       ",
"   o+XXXXX..        ",
"   ++.......        ",
" oo++...o...o       ",
" Oo+..ooo  o.o      ",
"  Ooo       o.++oo  ",
"   Oo        +.X.o  ",
"    oo       +XXX+  ",
"             o.X.   ",
"             oo+    ",
"                    ",
"                    ",
"                    ",
"                    ",
"               o    ",
"        #XoooooO    ",
"      #@@.XoooooO   ",
"     o.XXX+X.++oO   ",
"    ooX+XXoX...  O  ",
"   oo+XoXXX...o  o  ",
"oooo+.X.XXX..o      ",
" OOo+....X..o       ",
"  Oo.o......        ",
"  O      o..        ",
"   o      ..        ",
"           ..       ",
"           ..       ",
"           o..o     ",
"           oXX..    ",
"           .XX.o    ",
"           ...o     ",
"                    ",
"                    ",
"                    ",
"         ##         ",
"       oX@@Xo       ",
"  o oooX.XX.Xooo o  ",
"  Ooo++X+XX+X++ooO  ",
"  Oo++.XoXXoX.++oO  ",
"  Oo....XXXX....oO  ",
"  O  o...XX...o  O  ",
"  o   oo....oo   o  ",
"        o..o        ",
"         ..         ",
"         ..         ",
"         ..         ",
"         ..         ",
"         ..         ",
"        .XX.        ",
"       ..XX..       ",
"        ....        ",
"                    ",
"                    ",
"                    ",
"    o               ",
"    OoooooX#        ",
"   Oooo+oX.@@#      ",
"   Oo++.X+XXX.o     ",
"  O  ...XoXX+Xo     ",
"  o  o...XXXoX+oo   ",
"      o..XXX.X.ooooo",
"       o..X....+oOO ",
"        ......o.oO  ",
"        ..o      O  ",
"        ..      o   ",
"       ..           ",
"       ..           ",
"     o..o           ",
"    ..XXo           ",
"    o.XX.           ",
"     o...           ",
"                    ",
"                    ",
"       Oo           ",
"      Ooo           ",
"     Oo+++o         ",
"    ooo.+++Xo       ",
"    o  ...X+.@#     ",
"       o..XoXX@     ",
"       o..XXXX.o    ",
"       oo.XXXo+X    ",
"        ..XXXXX+o   ",
"        .......++   ",
"       o...o...++oo ",
"      o.o  ooo..+oO ",
"  oo++.o       ooO  ",
"  o.X.+        oO   ",
"  +XXX+       oo    ",
"   .X.o             ",
"    +oo             ",
"                    ",
"                    ",
"           o        ",
"          Oo        ",
"        OOOo        ",
"       o oooo       ",
"         .++oo      ",
"         o..+oo     ",
"         ..XXX.#    ",
"         ...o+X@    ",
"         ..XXXX@#   ",
"        o.XXXXX.X   ",
"       ....XXo+Xo   ",
" ..oo........XXoo   ",
" .XX...   o....oo   ",
" .XX.      o..+oo   ",
" o..o       o.+oo   ",
"  o.          ooOo  ",
"              OO    ",
"            oO      ",
"                    ",
"                    ",
"                    ",
"                    ",
"          oOOOOo    ",
"            ooo     ",
"            .+oo    ",
"           o.++o    ",
"          o...+o    ",
"  .       o..XXXo   ",
" ...     o..Xo+.X   ",
" .XX.......XXXXX@#  ",
" .XX.......XXXXX@#  ",
" ...     o..Xo+.X   ",
"  .       o..XXXo   ",
"          o...+o    ",
"           o.++o    ",
"            .+oo    ",
"            ooo     ",
"          oOOOOo    ",
"                    ",
"                    ",
"                    ",
"                    ",
"            oO      ",
"              OO    ",
"  o.          ooOo  ",
" o..o       o.+oo   ",
" .XX.      o..+oo   ",
" .XX...   o....+o   ",
" ..oo........XXoo   ",
"       ....XXo+Xo   ",
"        o.XXXXX.X   ",
"         ..XXXX@#   ",
"         ...o+X@    ",
"         ..XXX.#    ",
"         o..+oo     ",
"         .++oo      ",
"       o oooo       ",
"        OOOo        ",
"          Oo        ",
"           o        ",
"                    ",
"                    ",
"    +oo             ",
"   .X.o             ",
"  +XXX+       oo    ",
"  o.X.+        oO   ",
"  oo++.o       ooO  ",
"      o.o  ooo..+oO ",
"       o...o...++oo ",
"        .......++   ",
"        ..XXXXX+o   ",
"       oo.XXXo+X    ",
"       o..XXXX.o    ",
"       o..XoXX@     ",
"    o  ...X+.@#     ",
"    ooo.+++Xo       ",
"     Oo+++o         ",
"      Ooo           ",
"       Oo           ",
"                    ",
"                    ",
"     o...           ",
"    o.XX.           ",
"    ..XXo           ",
"     o..o           ",
"       ..           ",
"       ..           ",
"        ..      o   ",
"        ..o      O  ",
"        ......o.oO  ",
"       o..X....+oOO ",
"      o..XXX.X.+oooo",
"  o  o...XXXoX+oo   ",
"  O  ...XoXX+Xoo    ",
"   Oo++.X+XXX.o     ",
"   OoooooX.@@#      ",
"    OoooooX#        ",
"    o               ",
"                    ",
"                    "};
