#define kli_galaxy_width 20
#define kli_galaxy_height 320
static unsigned char kli_galaxy_bits[] = {
	0x00, 0x00, 0x00, 0x00, 0x00, 0x00, 0x00, 0x06, 0x00, 0x00, 0x0f, 0x00, 0x00, 0x0f, 0x00,
	0x00, 0x06, 0x00, 0x02, 0x06, 0x04, 0x02, 0x06, 0x04, 0x02, 0x06, 0x04, 0x02, 0x0f, 0x04,
	0x06, 0x0f, 0x06, 0x9e, 0x9f, 0x07, 0xfe, 0xf9, 0x07, 0xbc, 0xdf, 0x03, 0xb8, 0xdf, 0x01,
0xb0, 0xdf, 0x00, 0xe0, 0x7f, 0x00, 0x80, 0x1f, 0x00, 0x00, 0x0f, 0x00, 0x00, 0x00, 0x00,
0x00, 0x00, 0x00, 0x00, 0x00, 0x00, 0x00, 0x30, 0x00, 0x10, 0x38, 0x00, 0x08, 0x38, 0x00,
    0x08, 0x38, 0x00, 0x0c, 0x0c, 0x00, 0x04, 0x0c, 0x00, 0x06, 0x06, 0x00, 0x8e, 0x07, 0x04,
    0xfe, 0x07, 0x04, 0xbe, 0x0e, 0x02, 0xde, 0x0d, 0x02, 0xdc, 0x9f, 0x03, 0xec, 0xfd, 0x01,
0xf8, 0xfe, 0x01, 0xf8, 0xfe, 0x00, 0xe0, 0x7f, 0x00, 0x00, 0x0f, 0x00, 0x00, 0x00, 0x00,
0x00, 0x00, 0x00, 0x20, 0x00, 0x00, 0x10, 0x00, 0x00, 0x08, 0xc0, 0x01, 0x0c, 0xe0, 0x01,
    0x1c, 0xe0, 0x01, 0x3c, 0xf0, 0x00, 0x3c, 0x38, 0x00, 0xfc, 0x1f, 0x00, 0xbc, 0x0d, 0x00,
    0xdc, 0x0b, 0x00, 0xe8, 0x0f, 0x00, 0xf8, 0x0f, 0x00, 0xf8, 0x0b, 0x00, 0xf8, 0x3d, 0x04,
0xf0, 0x7e, 0x02, 0xe0, 0xff, 0x01, 0x00, 0xfc, 0x00, 0x00, 0x00, 0x00, 0x00, 0x00, 0x00,
0x00, 0x00, 0x00, 0x00, 0x02, 0x00, 0xc0, 0x01, 0x00, 0x60, 0x00, 0x00, 0x78, 0x00, 0x00,
    0x3c, 0x00, 0x00, 0x3c, 0xc0, 0x03, 0x7c, 0xc0, 0x03, 0xfe, 0xf1, 0x01, 0xfe, 0xbf, 0x00,
    0x5e, 0x0f, 0x00, 0xe6, 0x06, 0x00, 0xfc, 0x07, 0x00, 0xfc, 0x02, 0x00, 0x3c, 0x03, 0x00,
0xd8, 0x03, 0x01, 0xf8, 0xe7, 0x00, 0xe0, 0x3f, 0x00, 0x80, 0x0f, 0x00, 0x00, 0x00, 0x00,
0x00, 0x00, 0x00, 0x80, 0x3f, 0x00, 0xc0, 0x03, 0x00, 0xe0, 0x01, 0x00, 0xf0, 0x01, 0x00,
    0xf8, 0x00, 0x00, 0x88, 0x00, 0x00, 0xfc, 0x01, 0x00, 0xfe, 0x87, 0x01, 0x7e, 0xff, 0x03,
    0x7e, 0xff, 0x03, 0xfe, 0x87, 0x01, 0xfc, 0x01, 0x00, 0x88, 0x00, 0x00, 0xf8, 0x00, 0x00,
0xf0, 0x01, 0x00, 0xe0, 0x01, 0x00, 0xc0, 0x03, 0x00, 0x80, 0x3f, 0x00, 0x00, 0x00, 0x00,
0x00, 0x00, 0x00, 0x80, 0x0f, 0x00, 0xe0, 0x3f, 0x00, 0xf8, 0xe7, 0x00, 0xd8, 0x83, 0x01,
    0x3c, 0x03, 0x00, 0xfc, 0x02, 0x00, 0xfc, 0x07, 0x00, 0xe6, 0x06, 0x00, 0x5e, 0x0f, 0x00,
    0xfe, 0xbf, 0x00, 0xfe, 0xf1, 0x01, 0x7c, 0xc0, 0x03, 0x3c, 0xc0, 0x03, 0x3c, 0x00, 0x00,
0x78, 0x00, 0x00, 0xe0, 0x00, 0x00, 0x00, 0x03, 0x00, 0x00, 0x00, 0x00, 0x00, 0x00, 0x00,
0x00, 0x00, 0x00, 0x00, 0x00, 0x00, 0x00, 0xfe, 0x00, 0xe0, 0xff, 0x01, 0xf0, 0x7e, 0x02,
    0xf8, 0x3d, 0x04, 0xf8, 0x0b, 0x00, 0xf8, 0x0f, 0x00, 0xe8, 0x0f, 0x00, 0xd8, 0x0b, 0x00,
    0xbc, 0x0d, 0x00, 0xfc, 0x1f, 0x00, 0x3c, 0x38, 0x00, 0x3c, 0xf0, 0x00, 0x1c, 0xe0, 0x01,
0x0c, 0xe0, 0x01, 0x08, 0xc0, 0x01, 0x10, 0x00, 0x00, 0x20, 0x00, 0x00, 0x00, 0x00, 0x00,
0x00, 0x00, 0x00, 0x00, 0x0f, 0x00, 0xe0, 0x7f, 0x00, 0xf8, 0xfe, 0x00, 0xf8, 0xfe, 0x00,
    0xec, 0xfd, 0x01, 0xdc, 0x9f, 0x03, 0xde, 0x0d, 0x02, 0xbe, 0x0e, 0x02, 0xfe, 0x07, 0x04,
    0x8e, 0x07, 0x04, 0x06, 0x06, 0x00, 0x04, 0x0c, 0x00, 0x0c, 0x0c, 0x00, 0x08, 0x38, 0x00,
0x18, 0x3c, 0x00, 0x10, 0x38, 0x00, 0x00, 0x30, 0x00, 0x00, 0x00, 0x00, 0x00, 0x00, 0x00,
0x00, 0x00, 0x00, 0x00, 0x0f, 0x00, 0x80, 0x1f, 0x00, 0xe0, 0x7f, 0x00, 0xb0, 0xdf, 0x00,
    0xb8, 0xdf, 0x01, 0xbc, 0xdf, 0x03, 0xfe, 0xf9, 0x07, 0x9e, 0x9f, 0x07, 0x06, 0x0f, 0x06,
    0x02, 0x0f, 0x04, 0x02, 0x06, 0x04, 0x02, 0x06, 0x04, 0x02, 0x06, 0x04, 0x00, 0x06, 0x00,
0x00, 0x0f, 0x00, 0x00, 0x0f, 0x00, 0x00, 0x06, 0x00, 0x00, 0x00, 0x00, 0x00, 0x00, 0x00,
0x00, 0x00, 0x00, 0x00, 0x0f, 0x00, 0xe0, 0x7f, 0x00, 0xf0, 0xf7, 0x01, 0xf0, 0xf7, 0x01,
    0xf8, 0x7b, 0x03, 0x98, 0xbf, 0x03, 0x0c, 0xbb, 0x07, 0x04, 0xd7, 0x07, 0x04, 0xfe, 0x07,
    0x00, 0x1e, 0x07, 0x00, 0x06, 0x06, 0x00, 0x03, 0x02, 0x00, 0x03, 0x03, 0x80, 0x01, 0x01,
0xc0, 0x81, 0x01, 0xc0, 0x81, 0x00, 0xc0, 0x00, 0x00, 0x00, 0x00, 0x00, 0x00, 0x00, 0x00,
0x00, 0x00, 0x00, 0x00, 0x00, 0x00, 0xf0, 0x03, 0x00, 0xf8, 0x7f, 0x00, 0xe4, 0xf7, 0x00,
    0xc2, 0xfb, 0x01, 0x00, 0xfd, 0x01, 0x00, 0xff, 0x01, 0x00, 0x7f, 0x01, 0x00, 0xbd, 0x03,
    0x00, 0xdb, 0x03, 0x80, 0xff, 0x03, 0xc0, 0xc1, 0x03, 0xf0, 0xc0, 0x03, 0x78, 0x80, 0x03,
0x78, 0x00, 0x03, 0x38, 0x00, 0x01, 0x00, 0x80, 0x00, 0x00, 0x40, 0x00, 0x00, 0x00, 0x00,
0x00, 0x00, 0x00, 0x00, 0x1f, 0x00, 0xc0, 0x7f, 0x00, 0x70, 0xff, 0x01, 0x08, 0xbc, 0x01,
    0x00, 0xcc, 0x03, 0x00, 0xf4, 0x03, 0x00, 0xfe, 0x03, 0x00, 0x76, 0x06, 0x00, 0xaf, 0x07,
    0xc0, 0xff, 0x07, 0xf8, 0xf8, 0x07, 0x3c, 0xe0, 0x03, 0x3c, 0xc0, 0x03, 0x00, 0xc0, 0x01,
0x00, 0xc0, 0x01, 0x00, 0xe0, 0x00, 0x00, 0x38, 0x00, 0x00, 0x0c, 0x00, 0x00, 0x00, 0x00,
0x00, 0x00, 0x00, 0xc0, 0x1f, 0x00, 0x00, 0x3c, 0x00, 0x00, 0x78, 0x00, 0x00, 0xf8, 0x00,
    0x00, 0xf0, 0x01, 0x00, 0x10, 0x01, 0x00, 0xf8, 0x03, 0x18, 0xfe, 0x07, 0xfc, 0xef, 0x07,
    0xfc, 0xef, 0x07, 0x18, 0xfe, 0x07, 0x00, 0xf8, 0x03, 0x00, 0x10, 0x01, 0x00, 0xf0, 0x01,
0x00, 0xf8, 0x00, 0x00, 0x78, 0x00, 0x00, 0x3c, 0x00, 0xc0, 0x1f, 0x00, 0x00, 0x00, 0x00,
0x00, 0x00, 0x00, 0x00, 0x06, 0x00, 0x00, 0x3c, 0x00, 0x00, 0xe0, 0x00, 0x00, 0xe0, 0x01,
    0x1e, 0xc0, 0x01, 0x1e, 0xe0, 0x01, 0x7c, 0xf0, 0x03, 0xe8, 0xff, 0x03, 0x80, 0x97, 0x03,
    0x00, 0x7b, 0x02, 0x00, 0xfb, 0x03, 0x00, 0xfe, 0x01, 0x00, 0xe6, 0x01, 0x04, 0x9e, 0x01,
0x38, 0xff, 0x00, 0xe0, 0xff, 0x00, 0x80, 0x3f, 0x00, 0x00, 0x07, 0x00, 0x00, 0x00, 0x00,
0x00, 0x00, 0x00, 0x00, 0x40, 0x00, 0x00, 0x80, 0x00, 0x38, 0x00, 0x01, 0x78, 0x00, 0x03,
    0x78, 0x80, 0x03, 0xf0, 0xc0, 0x03, 0xc0, 0xc1, 0x03, 0x80, 0xff, 0x03, 0x00, 0xdb, 0x03,
    0x00, 0xbd, 0x01, 0x00, 0x7f, 0x01, 0x00, 0xff, 0x01, 0x00, 0xfd, 0x01, 0xc2, 0xfb, 0x01,
0xe4, 0xf7, 0x00, 0xf8, 0x7f, 0x00, 0xf0, 0x07, 0x00, 0x00, 0x00, 0x00, 0x00, 0x00, 0x00,
0x00, 0x00, 0x00, 0x00, 0x00, 0x00, 0xc0, 0x00, 0x00, 0xc0, 0x81, 0x01, 0xc0, 0x03, 0x01,
    0xc0, 0x01, 0x03, 0x00, 0x03, 0x02, 0x00, 0x03, 0x06, 0x00, 0x06, 0x06, 0x00, 0x1e, 0x07,
    0x02, 0xfe, 0x07, 0x06, 0xd6, 0x07, 0x04, 0xbb, 0x07, 0x0c, 0xbf, 0x03, 0xf8, 0x7b, 0x03,
0xf8, 0xf7, 0x01, 0xf0, 0xf7, 0x01, 0xe0, 0x7f, 0x00, 0x00, 0x0f, 0x00, 0x00, 0x00, 0x00};
