#define kli_jumpship_width 20
#define kli_jumpship_height 20
static unsigned char kli_jumpship_bits[] = {
	0x00, 0x00, 0x00, 0x00, 0x04, 0x00, 0x00, 0x0e, 0x00, 0x00, 0x04, 0x00, 0x00, 0x04, 0x00,
	0x80, 0x35, 0x00, 0xc0, 0x64, 0x00, 0x40, 0x5f, 0x00, 0x08, 0x1f, 0x02, 0xfc, 0xff, 0x07,
	0x08, 0x1f, 0x02, 0x40, 0x5f, 0x00, 0xc0, 0x64, 0x00, 0x80, 0x35, 0x00, 0x00, 0x04, 0x00,
    0x00, 0x04, 0x00, 0x00, 0x0e, 0x00, 0x00, 0x04, 0x00, 0x00, 0x00, 0x00, 0x00, 0x00, 0x00};
