/* XPM */
static char * C7_xpm[] = {
"20 20 6 1",
" 	c None",
".	c #A1A1A1",
"X	c #00FF00",
"o	c #C1C1C1",
"O	c #909090",
"+	c #FF0000",
"                    ",
"                    ",
"          .         ",
"         .X.        ",
"          o         ",
"          o         ",
"       Oo o oO      ",
"      Oo  o  oO     ",
"      o O+o+O o     ",
"   .    +ooo+    .  ",
"  .XoooooooooooooX. ",
"   .    +ooo+    .  ",
"      o O+o+O o     ",
"      Oo  o  oO     ",
"       Oo o oO      ",
"          o         ",
"          o         ",
"         .X.        ",
"          .         ",
"                    "};
