/* XPM */
static char * C13_xpm[] = {
"20 320 8 1",
" 	c None",
".	c #B0B0B0",
"X	c #C1C1C1",
"o	c #909090",
"O	c #A1A1A1",
"+	c #00FF00",
"@	c #FF0000",
"#	c #B00000",
"                    ",
"                    ",
"                    ",
"                    ",
"          .         ",
"         .X.        ",
"         oXo        ",
"      X   .   X     ",
"      .   .   .     ",
"      oo  .  oo     ",
"      oO..X..Oo     ",
"      ooOXXXOoo     ",
"        o+@+o       ",
"         #@#        ",
"                    ",
"                    ",
"                    ",
"                    ",
"                    ",
"                    ",
"                    ",
"                    ",
"                    ",
"                    ",
"           O.o      ",
"        X  .X.      ",
"       .   Xo       ",
"       o   .        ",
"      oOo .o   X    ",
"      oo...   .     ",
"       oOXX..oo     ",
"       o+@XOOOo     ",
"        #@+oo       ",
"          #         ",
"                    ",
"                    ",
"                    ",
"                    ",
"                    ",
"                    ",
"                    ",
"                    ",
"                    ",
"                    ",
"         X          ",
"        .   o.o     ",
"       oO   .X.     ",
"      ooO   ..o     ",
"       OO. .        ",
"       o.XX         ",
"       o+XX.   X    ",
"       #@+.OOO.     ",
"        #ooOoo      ",
"            o       ",
"                    ",
"                    ",
"                    ",
"                    ",
"                    ",
"                    ",
"                    ",
"                    ",
"                    ",
"                    ",
"          X         ",
"       oo.          ",
"       oO    .o     ",
"      oo.   oX.     ",
"      oO. o...O     ",
"      #+XX.         ",
"      @@X.          ",
"       #+Oo  X      ",
"        ooOo.       ",
"         oo         ",
"                    ",
"                    ",
"                    ",
"                    ",
"                    ",
"                    ",
"                    ",
"                    ",
"                    ",
"                    ",
"                    ",
"                    ",
"        ooo.X       ",
"        oOo         ",
"       oO.          ",
"      #+X.   o.     ",
"      @@XX...XX.    ",
"      #+X.   o.     ",
"       oO.          ",
"        oOo         ",
"        ooo.X       ",
"                    ",
"                    ",
"                    ",
"                    ",
"                    ",
"                    ",
"                    ",
"                    ",
"                    ",
"                    ",
"                    ",
"          oo        ",
"        oooOo.      ",
"       #+O.o  X     ",
"       @@X.         ",
"      #+XX..        ",
"       oO. o.X.O    ",
"       oO.   oX.    ",
"        Oo    .o    ",
"        oo.         ",
"           X        ",
"                    ",
"                    ",
"                    ",
"                    ",
"                    ",
"                    ",
"                    ",
"                    ",
"                    ",
"                    ",
"            o       ",
"        #ooOoo      ",
"       #@+.OOO.     ",
"       o+XX.   X    ",
"       o.XX         ",
"       OO. .        ",
"      ooO   ..o     ",
"       oO   .X.     ",
"        .   o.o     ",
"         X          ",
"                    ",
"                    ",
"                    ",
"                    ",
"                    ",
"                    ",
"                    ",
"                    ",
"                    ",
"                    ",
"         @#oo       ",
"        #@+Oooo     ",
"       o+XX..Oo     ",
"      ooO.X   .     ",
"      oOo .o   X    ",
"       o   .        ",
"       .   .o       ",
"        X  .X.      ",
"           O.o      ",
"                    ",
"                    ",
"                    ",
"                    ",
"                    ",
"                    ",
"                    ",
"                    ",
"                    ",
"                    ",
"                    ",
"        #@#         ",
"       o+@+o        ",
"     ooOXXXOoo      ",
"     oO..X..Oo      ",
"     oo  .  oo      ",
"     .   .   .      ",
"     X   .   X      ",
"        oXo         ",
"        .X.         ",
"         .          ",
"                    ",
"                    ",
"                    ",
"                    ",
"                    ",
"                    ",
"                    ",
"                    ",
"                    ",
"                    ",
"         #          ",
"       oo+@#        ",
"     oOOOX@+o       ",
"     oo..XXOo       ",
"     .   ...oo      ",
"    X   o. oOo      ",
"        .   o       ",
"       oX   .       ",
"      .X.  X        ",
"      o.O           ",
"                    ",
"                    ",
"                    ",
"                    ",
"                    ",
"                    ",
"                    ",
"                    ",
"                    ",
"                    ",
"       o            ",
"      ooOoo#        ",
"     .OOO.+@#       ",
"    X   .XX+o       ",
"         XX.o       ",
"        . .OO       ",
"     o..   Ooo      ",
"     .X.   Oo       ",
"     o.o   .        ",
"          X         ",
"                    ",
"                    ",
"                    ",
"                    ",
"                    ",
"                    ",
"                    ",
"                    ",
"                    ",
"                    ",
"         oo         ",
"       .oOoo        ",
"      X  oO+#       ",
"          .X@@      ",
"         .XX+#      ",
"     O...o .Oo      ",
"     .Xo   .oo      ",
"     o.    Oo       ",
"          .oo       ",
"         X          ",
"                    ",
"                    ",
"                    ",
"                    ",
"                    ",
"                    ",
"                    ",
"                    ",
"                    ",
"       X.ooo        ",
"         oOo        ",
"          .Oo       ",
"     .o   .X+#      ",
"    .XX...XX@@      ",
"     .o   .X+#      ",
"          .Oo       ",
"         oOo        ",
"       X.ooo        ",
"                    ",
"                    ",
"                    ",
"                    ",
"                    ",
"                    ",
"                    ",
"                    ",
"                    ",
"                    ",
"        X           ",
"         .oo        ",
"    o.    oO        ",
"    .Xo   .Oo       ",
"    O.X.o .Oo       ",
"        ..XX+#      ",
"         .X@@       ",
"     X  o.O+#       ",
"      .oOooo        ",
"        oo          ",
"                    ",
"                    ",
"                    ",
"                    ",
"                    ",
"                    ",
"                    ",
"                    ",
"                    ",
"                    ",
"          X         ",
"     o.o   .        ",
"     .X.   Oo       ",
"     o..   Ooo      ",
"        . .OO       ",
"         XX.o       ",
"    X   .XX+o       ",
"     .OOO.+@#       ",
"      ooOoo#        ",
"       o            ",
"                    ",
"                    ",
"                    ",
"                    ",
"                    ",
"                    ",
"                    ",
"                    ",
"                    ",
"                    ",
"                    ",
"      o.O           ",
"      .X.  X        ",
"       o.   .       ",
"        .   o       ",
"    X   o. oOo      ",
"     .   X.Ooo      ",
"     oO..XX+o       ",
"     oooO+@#        ",
"       oo#@         ",
"                    ",
"                    ",
"                    ",
"                    ",
"                    ",
"                    "};
