#define kli_scout_width 20
#define kli_scout_height 320
static unsigned char kli_scout_bits[] = {
	0x00, 0x00, 0x00, 0x00, 0x00, 0x00, 0x00, 0x00, 0x00, 0x00, 0x00, 0x00, 0x00, 0x02, 0x00,
	0x00, 0x07, 0x00, 0x00, 0x07, 0x00, 0x00, 0x02, 0x00, 0x10, 0x42, 0x00, 0x10, 0x42, 0x00,
	0x30, 0x67, 0x00, 0xf0, 0x7f, 0x00, 0xf0, 0x7f, 0x00, 0xd0, 0x5f, 0x00, 0x00, 0x07, 0x00,
0x00, 0x00, 0x00, 0x00, 0x00, 0x00, 0x00, 0x00, 0x00, 0x00, 0x00, 0x00, 0x00, 0x00, 0x00,
0x00, 0x00, 0x00, 0x00, 0x00, 0x00, 0x00, 0x00, 0x00, 0x00, 0x00, 0x00, 0x00, 0x00, 0x00,
    0x00, 0x18, 0x00, 0x40, 0x1c, 0x00, 0x20, 0x18, 0x00, 0x20, 0x04, 0x00, 0x70, 0x06, 0x00,
    0xf0, 0x87, 0x00, 0xe8, 0x87, 0x00, 0xc0, 0x7f, 0x00, 0x80, 0x7f, 0x00, 0x00, 0x3f, 0x00,
0x00, 0x20, 0x00, 0x00, 0x00, 0x00, 0x00, 0x00, 0x00, 0x00, 0x00, 0x00, 0x00, 0x00, 0x00,
0x00, 0x00, 0x00, 0x00, 0x00, 0x00, 0x00, 0x00, 0x00, 0x00, 0x00, 0x00, 0x00, 0x01, 0x00,
    0x80, 0x60, 0x00, 0xc0, 0x60, 0x00, 0xe0, 0x10, 0x00, 0xd0, 0x0f, 0x00, 0xc0, 0x0f, 0x00,
    0x80, 0x0f, 0x00, 0x80, 0x8f, 0x00, 0x00, 0x7f, 0x00, 0x00, 0x3c, 0x00, 0x00, 0x10, 0x00,
0x00, 0x08, 0x00, 0x00, 0x00, 0x00, 0x00, 0x00, 0x00, 0x00, 0x00, 0x00, 0x00, 0x00, 0x00,
0x00, 0x00, 0x00, 0x00, 0x00, 0x00, 0x00, 0x00, 0x00, 0x00, 0x00, 0x00, 0x00, 0x03, 0x00,
    0xc0, 0x00, 0x00, 0xf0, 0x00, 0x00, 0xe0, 0x70, 0x00, 0xe0, 0x71, 0x00, 0xe0, 0x2f, 0x00,
    0xe0, 0x07, 0x00, 0xe0, 0x03, 0x00, 0xc0, 0x03, 0x00, 0x80, 0x27, 0x00, 0x00, 0x1f, 0x00,
0x00, 0x06, 0x00, 0x00, 0x01, 0x00, 0x00, 0x00, 0x00, 0x00, 0x00, 0x00, 0x00, 0x00, 0x00,
0x00, 0x00, 0x00, 0x00, 0x00, 0x00, 0x00, 0x00, 0x00, 0x00, 0x00, 0x00, 0x00, 0x00, 0x00,
    0xc0, 0x0f, 0x00, 0x80, 0x03, 0x00, 0xc0, 0x01, 0x00, 0xc0, 0x01, 0x00, 0xe0, 0x63, 0x00,
    0xe0, 0xff, 0x00, 0xe0, 0x63, 0x00, 0xc0, 0x01, 0x00, 0xc0, 0x01, 0x00, 0x80, 0x03, 0x00,
0xc0, 0x0f, 0x00, 0x00, 0x00, 0x00, 0x00, 0x00, 0x00, 0x00, 0x00, 0x00, 0x00, 0x00, 0x00,
0x00, 0x00, 0x00, 0x00, 0x00, 0x00, 0x00, 0x00, 0x00, 0x00, 0x00, 0x00, 0x00, 0x02, 0x00,
    0x00, 0x0c, 0x00, 0x00, 0x3e, 0x00, 0x00, 0x4f, 0x00, 0x80, 0x07, 0x00, 0xc0, 0x07, 0x00,
    0xc0, 0x0f, 0x00, 0xc0, 0x5f, 0x00, 0xc0, 0xe3, 0x00, 0xc0, 0xe1, 0x00, 0xe0, 0x01, 0x00,
0x80, 0x01, 0x00, 0x00, 0x06, 0x00, 0x00, 0x00, 0x00, 0x00, 0x00, 0x00, 0x00, 0x00, 0x00,
0x00, 0x00, 0x00, 0x00, 0x00, 0x00, 0x00, 0x00, 0x00, 0x00, 0x00, 0x00, 0x00, 0x08, 0x00,
    0x00, 0x10, 0x00, 0x00, 0x3c, 0x00, 0x00, 0x7f, 0x00, 0x80, 0x8f, 0x00, 0x80, 0x0f, 0x00,
    0xc0, 0x0f, 0x00, 0xd0, 0x0f, 0x00, 0xe0, 0x10, 0x00, 0xc0, 0x60, 0x00, 0x80, 0x60, 0x00,
0x00, 0x01, 0x00, 0x00, 0x00, 0x00, 0x00, 0x00, 0x00, 0x00, 0x00, 0x00, 0x00, 0x00, 0x00,
0x00, 0x00, 0x00, 0x00, 0x00, 0x00, 0x00, 0x00, 0x00, 0x00, 0x00, 0x00, 0x00, 0x00, 0x00,
    0x00, 0x20, 0x00, 0x00, 0x3f, 0x00, 0x80, 0x7f, 0x00, 0xc0, 0x7f, 0x00, 0xe8, 0x87, 0x00,
    0xf0, 0x87, 0x00, 0x70, 0x06, 0x00, 0x20, 0x04, 0x00, 0x20, 0x18, 0x00, 0x40, 0x1c, 0x00,
0x00, 0x18, 0x00, 0x00, 0x00, 0x00, 0x00, 0x00, 0x00, 0x00, 0x00, 0x00, 0x00, 0x00, 0x00,
0x00, 0x00, 0x00, 0x00, 0x00, 0x00, 0x00, 0x00, 0x00, 0x00, 0x00, 0x00, 0x00, 0x00, 0x00,
    0x00, 0x07, 0x00, 0xd0, 0x5f, 0x00, 0xf0, 0x7f, 0x00, 0xf0, 0x7f, 0x00, 0x30, 0x67, 0x00,
    0x10, 0x42, 0x00, 0x10, 0x42, 0x00, 0x00, 0x02, 0x00, 0x00, 0x07, 0x00, 0x00, 0x07, 0x00,
0x00, 0x02, 0x00, 0x00, 0x00, 0x00, 0x00, 0x00, 0x00, 0x00, 0x00, 0x00, 0x00, 0x00, 0x00,
0x00, 0x00, 0x00, 0x00, 0x00, 0x00, 0x00, 0x00, 0x00, 0x00, 0x00, 0x00, 0x00, 0x00, 0x00,
    0x20, 0x00, 0x00, 0xe0, 0x07, 0x00, 0xf0, 0x0f, 0x00, 0xf0, 0x1f, 0x00, 0x08, 0xbf, 0x00,
    0x08, 0x7f, 0x00, 0x00, 0x73, 0x00, 0x00, 0x21, 0x00, 0xc0, 0x20, 0x00, 0xc0, 0x11, 0x00,
0xc0, 0x00, 0x00, 0x00, 0x00, 0x00, 0x00, 0x00, 0x00, 0x00, 0x00, 0x00, 0x00, 0x00, 0x00,
0x00, 0x00, 0x00, 0x00, 0x00, 0x00, 0x00, 0x00, 0x00, 0x00, 0x00, 0x00, 0x00, 0x01, 0x00,
    0x80, 0x00, 0x00, 0xc0, 0x03, 0x00, 0xe0, 0x0f, 0x00, 0x10, 0x1f, 0x00, 0x00, 0x1f, 0x00,
    0x00, 0x3f, 0x00, 0x00, 0xbf, 0x00, 0x80, 0x70, 0x00, 0x60, 0x30, 0x00, 0x60, 0x10, 0x00,
0x00, 0x08, 0x00, 0x00, 0x00, 0x00, 0x00, 0x00, 0x00, 0x00, 0x00, 0x00, 0x00, 0x00, 0x00,
0x00, 0x00, 0x00, 0x00, 0x00, 0x00, 0x00, 0x00, 0x00, 0x00, 0x00, 0x00, 0x00, 0x04, 0x00,
    0x00, 0x03, 0x00, 0xc0, 0x07, 0x00, 0x20, 0x0f, 0x00, 0x00, 0x1e, 0x00, 0x00, 0x3e, 0x00,
    0x00, 0x3f, 0x00, 0xa0, 0x3f, 0x00, 0x70, 0x3c, 0x00, 0x70, 0x38, 0x00, 0x00, 0x78, 0x00,
0x00, 0x18, 0x00, 0x00, 0x06, 0x00, 0x00, 0x00, 0x00, 0x00, 0x00, 0x00, 0x00, 0x00, 0x00,
0x00, 0x00, 0x00, 0x00, 0x00, 0x00, 0x00, 0x00, 0x00, 0x00, 0x00, 0x00, 0x00, 0x00, 0x00,
    0x00, 0x3f, 0x00, 0x00, 0x1c, 0x00, 0x00, 0x38, 0x00, 0x00, 0x38, 0x00, 0x60, 0x7c, 0x00,
    0xf0, 0x7f, 0x00, 0x60, 0x7c, 0x00, 0x00, 0x38, 0x00, 0x00, 0x38, 0x00, 0x00, 0x1c, 0x00,
0x00, 0x3f, 0x00, 0x00, 0x00, 0x00, 0x00, 0x00, 0x00, 0x00, 0x00, 0x00, 0x00, 0x00, 0x00,
0x00, 0x00, 0x00, 0x00, 0x00, 0x00, 0x00, 0x00, 0x00, 0x00, 0x00, 0x00, 0x00, 0x0c, 0x00,
    0x00, 0x30, 0x00, 0x00, 0xf0, 0x00, 0xe0, 0x70, 0x00, 0xe0, 0x78, 0x00, 0x40, 0x7f, 0x00,
    0x00, 0x7e, 0x00, 0x00, 0x7c, 0x00, 0x00, 0x3c, 0x00, 0x40, 0x1e, 0x00, 0x80, 0x0f, 0x00,
0x00, 0x06, 0x00, 0x00, 0x08, 0x00, 0x00, 0x00, 0x00, 0x00, 0x00, 0x00, 0x00, 0x00, 0x00,
0x00, 0x00, 0x00, 0x00, 0x00, 0x00, 0x00, 0x00, 0x00, 0x00, 0x00, 0x00, 0x00, 0x08, 0x00,
    0x60, 0x10, 0x00, 0x60, 0x30, 0x00, 0x80, 0x70, 0x00, 0x00, 0xbf, 0x00, 0x00, 0x3f, 0x00,
    0x00, 0x1f, 0x00, 0x10, 0x1f, 0x00, 0xe0, 0x0f, 0x00, 0xc0, 0x03, 0x00, 0x80, 0x00, 0x00,
0x00, 0x01, 0x00, 0x00, 0x00, 0x00, 0x00, 0x00, 0x00, 0x00, 0x00, 0x00, 0x00, 0x00, 0x00,
0x00, 0x00, 0x00, 0x00, 0x00, 0x00, 0x00, 0x00, 0x00, 0x00, 0x00, 0x00, 0xc0, 0x00, 0x00,
    0xc0, 0x11, 0x00, 0xc0, 0x20, 0x00, 0x00, 0x21, 0x00, 0x00, 0x73, 0x00, 0x08, 0x7f, 0x00,
    0x08, 0xbf, 0x00, 0xf0, 0x1f, 0x00, 0xf0, 0x0f, 0x00, 0xe0, 0x07, 0x00, 0x20, 0x00, 0x00,
0x00, 0x00, 0x00, 0x00, 0x00, 0x00, 0x00, 0x00, 0x00, 0x00, 0x00, 0x00, 0x00, 0x00, 0x00};
