/* XPM */
static char * C12_xpm[] = {
"20 320 8 1",
" 	c None",
".	c #909090",
"X	c #A1A1A1",
"o	c #B0B0B0",
"O	c #C1C1C1",
"+	c #00FF00",
"@	c #FF0000",
"#	c #B00000",
"        ....        ",
"       XoOOoX       ",
"       .OOOO.       ",
"        XOOX        ",
"        .oo.        ",
"         XX         ",
"         XX         ",
"      OOOOOOOO      ",
"      .OOOOOO.      ",
"        .XX.        ",
"        .XX.        ",
"       XoOOoX       ",
"  X  XXoOOOOoXX  X  ",
"  X XXooOOOOooXX X  ",
"  +.XXXoOOOOoXXX.+  ",
"  +.....OooO.....+  ",
"  +.    X@@X    .+  ",
"  .      ##      .  ",
"                    ",
"                    ",
"            XX..    ",
"           .OOOX.   ",
"           .oOOOX   ",
"            OOOo.   ",
"            oo.     ",
"        Oo .XX      ",
"        .OOOX       ",
"         OOOOO      ",
"   X     .XXOOOO    ",
"  XX    ..XX. X     ",
"  +.XXooXoOX.       ",
"  +.XXooOOOoX       ",
" +...XXoOOOOo.      ",
" .    .OOOOOoX.     ",
"       XooOoXXX. X  ",
"       .@@O..XX.X   ",
"        #    ...+   ",
"              .+    ",
"               +    ",
"               .    ",
"                    ",
"              .XX   ",
"              .OOX  ",
"              XOOOX ",
"         ..  .oOOOX ",
"   X     .O. XooX.. ",
"  +X      OOXXX.    ",
" +X.XX    .OOX      ",
"+X.XXXoXX.XXOO.     ",
"X. .XooooOXX.OO.    ",
"    .ooOOOO.  ..    ",
"     .OOOOoX        ",
"     XoOOOoX        ",
"     @XoOooX        ",
"     #@X.ooXX       ",
"         .XXX       ",
"          .X.XX     ",
"           .X+      ",
"          .X+       ",
"          X+        ",
"                    ",
"                    ",
"     X              ",
"   +X           .X. ",
".++...     O    Ooo.",
"  ..XX.   .O   .OOO.",
"   .XXo.   OO XoOOOX",
"    .XooX..OOXXoOoOX",
"    .oOOoXXXOO.  .. ",
"    OOOOOOXXOO      ",
"    @oOOOo..OOo     ",
"   #@oOOOXX  .O     ",
"    .XOooo          ",
"      .XoX          ",
"      .XXX          ",
"       .XX          ",
"       ...XX        ",
"       .++X         ",
"      .+            ",
"                    ",
"                    ",
"                    ",
"  .+++XX            ",
"   ...              ",
"    .XX             ",
"    .XXX            ",
"    .XoX   .O       ",
"    .oooX  OO    .X ",
"   XOOOOo..OO  .XOo.",
"  #@oOOOOXXOOXXoOOO.",
"  #@oOOOOXXOOXXoOOO.",
"   XOOOOo..OO  .XOo.",
"    .oooX  OO    .X ",
"    .XoX   .O       ",
"    .XXX            ",
"    .XX             ",
"   ...              ",
"  .+++XX            ",
"                    ",
"                    ",
"                    ",
"      .+            ",
"       .++X         ",
"       ...XX        ",
"       .XX          ",
"       XXX          ",
"      .Xoo          ",
"    .XOooo          ",
"   #@oOOOX.  .O     ",
"    @oOOOo..OOo     ",
"    OOOOOOXXOO      ",
"    .oOOoXXXOO.  .. ",
"    .XooX..OOXXoOoOX",
"   .XXX.   OO XoOOOX",
"  ..XX.   XO   .OOO.",
".++...     O    oOX.",
"   +X           .X. ",
"     X              ",
"                    ",
"                    ",
"          X+        ",
"          .X+       ",
"           .X+      ",
"          .X.XX     ",
"         .XXX       ",
"     #@X.ooXX       ",
"     @XoOooo        ",
"     XoOOOoX        ",
"     .OOOOoX        ",
"    .ooOOOO.  ..    ",
"X. .XooooOXX.OO.    ",
"+X.XXXXXX.XXOO.     ",
" +X.XX    .OOX      ",
"  +X      OOXXX.    ",
"   X     .O. XooX.. ",
"         ..  .oOOOX ",
"              XOOOX ",
"              .OOX  ",
"              .XX   ",
"                    ",
"               .    ",
"               +    ",
"              .+    ",
"        #    ...+   ",
"       .@@O..XX.X   ",
"       XooOoXXX. .  ",
" .   ..OOOOOoo.     ",
" +...XXoOOOOo.      ",
"  +.XXooOOOoX       ",
"  +.XXXoXoOX.       ",
"  XX    X.XX. .     ",
"   X     .XXOOOO    ",
"         OOOOO      ",
"        .OOOX       ",
"        Oo .XX      ",
"            oo.     ",
"            OOOo.   ",
"           .oOOOo   ",
"           .OOOXX   ",
"            XX..    ",
"                    ",
"                    ",
"  .      ##      .  ",
"  +.    X@@X    .+  ",
"  +.....OooO.....+  ",
"  +.XXXoOOOOoXX..+  ",
"  X XXooOOOOooXX X  ",
"  X  XXoOOOOoXX  X  ",
"       XoOOoX       ",
"        .XX.        ",
"        .XX.        ",
"      .OOOOOO.      ",
"      OOOOOOOO      ",
"         XX         ",
"         XX         ",
"        .oo.        ",
"        XOOX        ",
"       .OOOO.       ",
"       XoOOoX       ",
"        ....        ",
"    .               ",
"    +               ",
"    +.              ",
"   +...    #        ",
"   X.XX..O@@.       ",
"  X .XXXoOooX       ",
"     .XoOOOOO.    . ",
"      .oOOOOoXX...+ ",
"       XoOOOooXX.+  ",
"       .XOoXooXX.+  ",
"     X .XX..    XX  ",
"    OOOOXX.     X   ",
"      OOOOO         ",
"       XOOO.        ",
"      XX. oO        ",
"     .oo            ",
"   .oOOO            ",
"   XOOOo.           ",
"   .XOOO.           ",
"    ..XX            ",
"        +X          ",
"       +X.          ",
"      +X.           ",
"     XX.X.          ",
"       XXX.         ",
"       XXoo.X@#     ",
"        XooOoX@     ",
"        XoOOOoX     ",
"        XoOOOO.     ",
"    ..  .OOOOoo.    ",
"    .OO.XXOooooX. .X",
"     .OOXX.XXoXXX.X+",
"      XOO.    XX.X+ ",
"    .XXXOO      X+  ",
" ..XooX .O.     X   ",
" XOOOo.  ..         ",
" XOOOX              ",
"  XOO.              ",
"   XX.              ",
"                    ",
"                    ",
"            +.      ",
"         X++.       ",
"        XX...       ",
"          XX.       ",
"          XXX.      ",
"          XoX.      ",
"          oooOX.    ",
"     O.  XXOOOo@#   ",
"     oOO..oOOOo@    ",
"      OOXXOOOOOO    ",
" ..  .OOXXXoOOo.    ",
"XOoOoXXOO..XooX.    ",
"XOOOoX OO   .oXX.   ",
".OOO.   O.   .XX..  ",
".XOo    O     ...++.",
" Xo.           X+   ",
"              X     ",
"                    ",
"                    ",
"                    ",
"                    ",
"            XX+++.  ",
"             ....   ",
"             XX.    ",
"            XXX.    ",
"       O.   XoX.    ",
" X.    OO  Xooo.    ",
".oOX.  OO..oOOOOX   ",
".OOOoXXOOXXOOOOo@#  ",
".OOOoXXOOXXOOOOo@#  ",
".oOX.  OO..oOOOOX   ",
" X.    OO  Xooo.    ",
"       O.   XoX.    ",
"            XXX.    ",
"             X..    ",
"             ....   ",
"            XX+++.  ",
"                    ",
"                    ",
"                    ",
"                    ",
"              X     ",
" .X.           X+   ",
".XOo    O     ...++.",
".OOO.   OX   .XX..  ",
"XOOOoX OO   .XXX.   ",
"XOoOoXXOO..XooX.    ",
" ..  .OOXXXoOOo.    ",
"      OOXXOOOOOO    ",
"     oOO..oOOOo@    ",
"     O.  .XOOOo@#   ",
"          oooOX.    ",
"          ooX.      ",
"          XXX.      ",
"          XX.       ",
"        XX...       ",
"         X++.       ",
"            +X      ",
"                    ",
"                    ",
"   XX.              ",
"  XOO.              ",
" XOOOX              ",
" XOOOo.  ..         ",
" ..XooX .O.     X   ",
"    .XXXOO      X+  ",
"      XOO.    XX.X+ ",
"     .OOXX.XXXXXX.X+",
"    .OO.XXOooooX. .X",
"    ..  .OOOOoo.    ",
"        XoOOOO.     ",
"        XoOOOoX     ",
"        oooOoX@     ",
"       XXoo.X@#     ",
"       XXX.         ",
"     XX.X.          ",
"      +X.           ",
"       +X.          ",
"        +X          ",
"    ..XX            ",
"   XXOOO.           ",
"   oOOOo.           ",
"   .oOOO            ",
"     .oo            ",
"      XX. oO        ",
"       XOOO.        ",
"      OOOOO         ",
"    OOOOXX.     X   ",
"     . .XX.X    XX  ",
"       .XOoXoXXX.+  ",
"       XoOOOooXX.+  ",
"      .oOOOOoXX...+ ",
"     .ooOOOOO..   . ",
"  X .XXXoOooX       ",
"   X.XX..O@@.       ",
"   +...    #        ",
"    +.              ",
"    +               ",
"    .               "};
