#define kli_warbase_width 20
#define kli_warbase_height 20
static unsigned char kli_warbase_bits[] = {
	0x00, 0x00, 0x00, 0x00, 0x00, 0x00, 0x40, 0x20, 0x00, 0x60, 0x60, 0x00, 0x80, 0x10, 0x00,
	0x88, 0x19, 0x01, 0xcc, 0x39, 0x03, 0xd8, 0xbf, 0x01, 0xf0, 0xff, 0x00, 0xfc, 0xff, 0x03,
	0xfc, 0xff, 0x03, 0xf0, 0xff, 0x00, 0xd8, 0xbf, 0x01, 0xcc, 0x39, 0x03, 0x88, 0x19, 0x01,
0x80, 0x10, 0x00, 0x60, 0x60, 0x00, 0x40, 0x20, 0x00, 0x00, 0x00, 0x00, 0x00, 0x00, 0x00};
