/* XPM */
static char * JS_xpm[] = {
"20 20 6 1",
" 	c None",
".	c #A0A000",
"+	c #FFFF00",
"@	c #787800",
"#	c #C8C800",
"$	c #00FFFF",
"                    ",
"         ...        ",
"          .         ",
"          .         ",
"     +  @...@       ",
"      +.##.##.@     ",
"      .+  .  @.     ",
"     @# @$#$@ #@    ",
"  .  .# $+++$ #.  . ",
"  ......#+++#...... ",
"  .  .# $+++$ #.  . ",
"     @# @$#$@ #@    ",
"      .@  .  +.     ",
"      @.##.##.+     ",
"        @...@  +    ",
"          .         ",
"          .         ",
"         ...        ",
"                    ",
"                    "};
