/* XPM */
static char * SC_xpm[] = {
"20 320 7 1",
" 	c None",
".	c #787800",
"+	c #A0A000",
"@	c #C8C800",
"#	c #FFFF00",
"$	c #FF0000",
"%	c #00FFFF",
"                    ",
"                    ",
"                    ",
"                    ",
"          .         ",
"        .+@+.       ",
"       .+@#@+.      ",
"       .+@#@+.      ",
"        .+@+.       ",
"       $ .@. $      ",
"       %  $  %      ",
"       %  #  %      ",
"       +  %  +      ",
"          %         ",
"          %         ",
"          #         ",
"                    ",
"                    ",
"                    ",
"                    ",
"                    ",
"                    ",
"                    ",
"                    ",
"         ....       ",
"        .++@+.      ",
"        .+@#@+      ",
"        .+#@++.     ",
"       $ .@++.      ",
"      %  $...       ",
"      %  @  $       ",
"     +   %  %       ",
"        %  %        ",
"        %  +        ",
"       @            ",
"                    ",
"                    ",
"                    ",
"                    ",
"                    ",
"                    ",
"                    ",
"                    ",
"                    ",
"                    ",
"          ...       ",
"         .+@@.      ",
"        $.@#@@.     ",
"       % .@##@.     ",
"      +  .@@@+.     ",
"         $....      ",
"        %   $       ",
"       %   %        ",
"      %   +         ",
"                    ",
"                    ",
"                    ",
"                    ",
"                    ",
"                    ",
"                    ",
"                    ",
"                    ",
"                    ",
"                    ",
"           .        ",
"          ..+.      ",
"       %$..+@+.     ",
"     +%  .+@#@.     ",
"         .@@@@+     ",
"       %#$.+++.     ",
"     %%    .+.      ",
"    #     $         ",
"        %%          ",
"       +            ",
"                    ",
"                    ",
"                    ",
"                    ",
"                    ",
"                    ",
"                    ",
"                    ",
"                    ",
"                    ",
"                    ",
"                    ",
"       +%%$ ..      ",
"           .++.     ",
"          .+@@+     ",
"    #%%%#$@@##@.    ",
"          .+@@+     ",
"           .++.     ",
"       +%%$ ..      ",
"                    ",
"                    ",
"                    ",
"                    ",
"                    ",
"                    ",
"                    ",
"                    ",
"                    ",
"                    ",
"                    ",
"        +           ",
"         %%         ",
"     @     $        ",
"      %%    ...     ",
"        %@$.+++.    ",
"          .@#@+.    ",
"      +%  .+@#@.    ",
"        %$.++@+.    ",
"           .++.     ",
"            .       ",
"                    ",
"                    ",
"                    ",
"                    ",
"                    ",
"                    ",
"                    ",
"                    ",
"                    ",
"                    ",
"                    ",
"      %   +         ",
"       %   %        ",
"        %   $       ",
"         $....      ",
"      +  .@@@+.     ",
"       % .@##@.     ",
"        $.@#@@.     ",
"         .+@@.      ",
"          ...       ",
"                    ",
"                    ",
"                    ",
"                    ",
"                    ",
"                    ",
"                    ",
"                    ",
"                    ",
"       #            ",
"        %  +        ",
"        %  %        ",
"     +   %  %       ",
"      %  #  $       ",
"      %  $...       ",
"       $ .@+..      ",
"        .+#@+..     ",
"        ++@#@+      ",
"        .+@@+.      ",
"         .+..       ",
"                    ",
"                    ",
"                    ",
"                    ",
"                    ",
"                    ",
"                    ",
"                    ",
"                    ",
"         #          ",
"         %          ",
"         %          ",
"      +  %  +       ",
"      %  #  %       ",
"      %  $  %       ",
"      $ .@. $       ",
"       .+@+.        ",
"      .+@#@+.       ",
"      .+@#@+.       ",
"       .+@+.        ",
"         .          ",
"                    ",
"                    ",
"                    ",
"                    ",
"                    ",
"                    ",
"                    ",
"                    ",
"                    ",
"            @       ",
"        +  %        ",
"        %  %        ",
"       %  %   +     ",
"       $  @  %      ",
"       ...$  %      ",
"      .++@. $       ",
"     .++@#+.        ",
"      +@#@+.        ",
"      .+@++.        ",
"       ....         ",
"                    ",
"                    ",
"                    ",
"                    ",
"                    ",
"                    ",
"                    ",
"                    ",
"                    ",
"                    ",
"         +   %      ",
"        %   %       ",
"       $   %        ",
"      ....$         ",
"     .+@@@.  +      ",
"     .@##@. %       ",
"     .@@#@.$        ",
"      .@@+.         ",
"       ...          ",
"                    ",
"                    ",
"                    ",
"                    ",
"                    ",
"                    ",
"                    ",
"                    ",
"                    ",
"                    ",
"            +       ",
"          %%        ",
"         $     #    ",
"      .+.    %%     ",
"     .+++.$#%       ",
"     +@@#@.         ",
"     .@#@+.  %+     ",
"     .+@+..$%       ",
"      .+..          ",
"        .           ",
"                    ",
"                    ",
"                    ",
"                    ",
"                    ",
"                    ",
"                    ",
"                    ",
"                    ",
"                    ",
"                    ",
"      .. $%%+       ",
"     .++.           ",
"     +@@+.          ",
"    .@##@@$#%%%#    ",
"     +@@+.          ",
"     .++.           ",
"      .. $%%+       ",
"                    ",
"                    ",
"                    ",
"                    ",
"                    ",
"                    ",
"                    ",
"                    ",
"                    ",
"                    ",
"                    ",
"                    ",
"       .            ",
"     .++.           ",
"    .+@++.$%        ",
"    .@#@+.  %+      ",
"    .+@#@.          ",
"    .+++.$@%        ",
"     ...    %%      ",
"        $     @     ",
"         %%         ",
"           +        ",
"                    ",
"                    ",
"                    ",
"                    ",
"                    ",
"                    ",
"                    ",
"                    ",
"                    ",
"                    ",
"       ...          ",
"      .@@+.         ",
"     .@@#@.$        ",
"     .@##@. %       ",
"     .+@@@.  +      ",
"      ....$         ",
"       $   %        ",
"        %   %       ",
"         +   %      ",
"                    ",
"                    ",
"                    ",
"                    ",
"                    ",
"                    ",
"                    ",
"                    ",
"                    ",
"                    ",
"                    ",
"       ..+.         ",
"      .+@@+.        ",
"      +@#@++        ",
"     ..+@#+.        ",
"      ..+@. $       ",
"       ...$  %      ",
"       $  #  %      ",
"       %  %   +     ",
"        %  %        ",
"        +  %        ",
"            #       ",
"                    ",
"                    ",
"                    ",
"                    "};
