/* XPM */
static char * WB_xpm[] = {
"20 20 7 1",
" 	c None",
".	c #787800",
"+	c #00FFFF",
"@	c #FFFF00",
"#	c #C8C800",
"$	c #A0A000",
"%	c #FF0000",
"                    ",
"        ....        ",
"     ...+@@+...     ",
"    .@@@#$$#@@@.    ",
"   .%###$..$###%.   ",
"  .@#@#$.  .$#@#@.  ",
"  .@##@.    .@##@.  ",
"  @##$$@.  .@.$##@  ",
" .+#$. .#@@#. .$#+. ",
" .@$.   @@@@   .$@. ",
" .@$.   @@@@   .$@. ",
" .+#$. .#@@#. .$$+. ",
"  @##$.@.  .@.$$#@  ",
"  .@##@.    .@$##@  ",
"  .@#@#$.  .$$@#@.  ",
"   .%###$..$$##%.   ",
"    .@@#$$$$##@.    ",
"     ..@+@@+@@.     ",
"        ....        ",
"                    "};
