#define klimplanet_width 16
#define klimplanet_height 16
static char klimplanet_bits[] = {
    0xe0, 0x03, 0x18, 0x0c, 0x84, 0x10, 0x82, 0x20, 0x82, 0x20, 0xc1, 0x41,
    0xc1, 0x41, 0xc1, 0x41, 0xb1, 0x42, 0x71, 0x47, 0x3a, 0x27, 0x0a, 0x2c,
0x04, 0x10, 0x18, 0x0c, 0xe0, 0x03, 0x00, 0x00};
