#define orimplanet_width 16
#define orimplanet_height 16
static char orimplanet_bits[] = {
    0xe0, 0x03, 0x18, 0x0c, 0xc4, 0x11, 0xf2, 0x27, 0x02, 0x20, 0x39, 0x4e, 0xe1, 0x43, 0xc5,
    0x51, 0xcd, 0x59, 0x89, 0x48, 0x9a, 0x2c, 0x92, 0x24, 0xa4, 0x12, 0x18, 0x0c, 0xe0, 0x03,
0x00, 0x00};
