#define rommplanet_width 16
#define rommplanet_height 16
static char rommplanet_bits[] = {
    0xe0, 0x03, 0x18, 0x0c, 0x84, 0x10, 0x82, 0x20, 0xc2, 0x21, 0xa1, 0x42,
    0x31, 0x45, 0xd1, 0x44, 0x11, 0x47, 0xa1, 0x42, 0xc2, 0x21, 0x82, 0x20,
0x84, 0x10, 0x18, 0x0c, 0xe0, 0x03, 0x00, 0x00};
