#define romplanet_width 30
#define romplanet_height 30
static char romplanet_bits[] = {
    0x00, 0xf8, 0x03, 0x00, 0x00, 0x07, 0x1c, 0x00, 0xc0, 0x00, 0x60, 0x00, 0x20, 0x40, 0x80,
    0x00, 0x10, 0xe0, 0x00, 0x01, 0x08, 0xf8, 0x03, 0x02, 0x04, 0xa0, 0x00, 0x04, 0x04, 0xa0,
    0x00, 0x04, 0x02, 0xb0, 0x01, 0x08, 0x02, 0xac, 0x06, 0x08, 0x02, 0xaa, 0x09, 0x08, 0x01,
    0x4a, 0x09, 0x10, 0x01, 0x11, 0x11, 0x10, 0x01, 0x21, 0x11, 0x10, 0x01, 0x21, 0x11, 0x10,
    0x01, 0xc1, 0x10, 0x10, 0x01, 0x01, 0x16, 0x10, 0x01, 0x02, 0x09, 0x10, 0x02, 0x02, 0x09,
    0x08, 0x02, 0x0c, 0x06, 0x08, 0x02, 0xf0, 0x01, 0x08, 0x04, 0xa0, 0x00, 0x04, 0x04, 0xa0,
    0x00, 0x04, 0x08, 0xa0, 0x00, 0x02, 0x10, 0x40, 0x00, 0x01, 0x20, 0x00, 0x80, 0x00, 0xc0,
0x00, 0x60, 0x00, 0x00, 0x07, 0x1c, 0x00, 0x00, 0xf8, 0x03, 0x00, 0x00, 0x00, 0x00, 0x00};
