/* XPM */
static char * C4_xpm[] = {
"20 320 8 1",
" 	c None",
".	c #9A9AAF",
"X	c #C6C6E0",
"o	c #8D8DA0",
"O	c #A9A9C0",
"+	c #FFFF00",
"@	c #FF0000",
"#	c #B00000",
"                    ",
"         ..         ",
"        .XX.        ",
"        .XX.        ",
"         oo         ",
"        .XX.        ",
"        .XX.        ",
"         oo         ",
"        .OO.        ",
"      O.OXXO.O      ",
"     OO.OXXO.OO     ",
"     OO.OXXO.OO     ",
"    XXO.OXXO.OXX    ",
"    +XO.OXXO.OX+    ",
"    +XO OXXO OX+    ",
"    +X  .OO.  X+    ",
"    Xo   @@   oX    ",
"                    ",
"                    ",
"                    ",
"                    ",
"                    ",
"           o..      ",
"           OXX      ",
"           OXXo     ",
"          .oo       ",
"          XXXo      ",
"          oX.       ",
"       Oo.Oo        ",
"     OO.OXXO.       ",
"    XOO.OXXO.o      ",
"   +XO..OXXO.O      ",
"   +XO.OXXO..OO     ",
"  +XOo OXXO.OOo     ",
"  Xo  oXXXO.OXX     ",
"      #OOO OXX+     ",
"       @#o  X+      ",
"            X+      ",
"            X       ",
"                    ",
"                    ",
"                    ",
"                    ",
"               .    ",
"             .XO.   ",
"             .XX    ",
"           .Xo..    ",
"     OOO.  XXX      ",
"   +XOO..OOoX.      ",
"  +XXO..OXXO        ",
" +XXO..OXXXO        ",
" oo  .OXXXO..       ",
"     OXXXO..O       ",
"     OXXO..OO       ",
"    @OOO..OOO       ",
"     @   OXX        ",
"         XX+        ",
"        oX+         ",
"        o+          ",
"                    ",
"                    ",
"                    ",
"                    ",
"                    ",
"                    ",
"    +XoO       .    ",
"  ++XXOOOo   . XX.  ",
" XXXXOO.... .XoXX.  ",
"    O...OOOoXXoOOo  ",
"     OOOXXXOoX.     ",
"   .OXXXXXX.        ",
"   #OXXXOOOo        ",
"   @OXOO...O        ",
"    #. ..OO         ",
"      oOOOO         ",
"      OXXX          ",
"     oX++           ",
"     X+             ",
"                    ",
"                    ",
"                    ",
"                    ",
"                    ",
"                    ",
"   X+++X            ",
"   oXXXXOO          ",
"     OOOOOO         ",
"      .....         ",
"    .OOOOOO. .. ..  ",
"   @OXXXXXXOoXXoXX. ",
"   @OXXXXXXOoXXoXX. ",
"    .OOOOOO. .. ..  ",
"      .....         ",
"     OOOOOO         ",
"   oXXXXOO          ",
"   X+++X            ",
"                    ",
"                    ",
"                    ",
"                    ",
"                    ",
"                    ",
"     X+             ",
"     oX++           ",
"      OXXX          ",
"      oOOOO         ",
"    #o ..OO         ",
"   @OXOO...O        ",
"   #OXXXOOOo        ",
"   oOXXXXXX.        ",
"     OOOXXXOoX.     ",
"    O...OOOoXXoOOo  ",
" XXXXOO.... .XoXX.  ",
"  ++XXOOOo   o XX.  ",
"    +XoO       o    ",
"                    ",
"                    ",
"                    ",
"                    ",
"                    ",
"                    ",
"        o+          ",
"        oX+         ",
"         XX+        ",
"     @   OXX        ",
"    @OOO..OOO       ",
"     OXXO..OO       ",
"     OXXXO..O       ",
" oo  .OXXXO..       ",
" +XXO..OXXXO        ",
"  +XXO..OXXO        ",
"   +XOO..OOoX.      ",
"     OOO.  XXX      ",
"           .Xo..    ",
"             .XX.   ",
"             .XO.   ",
"              ..    ",
"                    ",
"                    ",
"                    ",
"                    ",
"            X       ",
"            X+      ",
"       @#.  X+      ",
"      #OOO OXX+     ",
"  Xo  .XXXO.OXX     ",
"  +XOo OXXO.OOo     ",
"   +XO.OXXO..OO     ",
"   +XO..OXXO.O      ",
"    XOO.OXXO.o      ",
"     OO.OXXO.       ",
"       Oo.Oo        ",
"          oX.       ",
"          XXX.      ",
"          .oo       ",
"           OXX.     ",
"           OXX      ",
"           o.O      ",
"                    ",
"                    ",
"                    ",
"                    ",
"                    ",
"    Xo   @@   oX    ",
"    +X  .OO.  X+    ",
"    +XO OXXO OX+    ",
"    +XO.OXXO.OX+    ",
"    XXO.OXXO.OXX    ",
"     OO.OXXO.OO     ",
"     OO.OXXO.OO     ",
"      O.OXXO.O      ",
"        .OO.        ",
"         oo         ",
"        .XX.        ",
"        .XX.        ",
"         oo         ",
"        .XX.        ",
"        .XX.        ",
"         ..         ",
"                    ",
"                    ",
"       X            ",
"      +X            ",
"      +X  o#@       ",
"     +XXO OOO#      ",
"     XXO.OXXXo  oX  ",
"     oOO.OXXO oOo+  ",
"     OO..OXXO.OX+   ",
"      O.OXXO..OX+   ",
"      o.OXXO.OOX    ",
"       .OXXO.OO     ",
"        oO.oO       ",
"       .Xo          ",
"      oXXX          ",
"       oo.          ",
"     oXXO           ",
"      XXO           ",
"      ..o           ",
"                    ",
"                    ",
"                    ",
"          +o        ",
"         +Xo        ",
"        +XX         ",
"        XXO   @     ",
"       OOO..OOO@    ",
"       OO..OXXO     ",
"       O..OXXXO     ",
"       ..OXXXO.  oo ",
"        OXXXO..OXX+ ",
"        OXXO..OXX+  ",
"      .XoOO..OOX+   ",
"      XXX  .OOO     ",
"    ..oX.           ",
"   .XX.             ",
"   .OX.             ",
"    ..              ",
"                    ",
"                    ",
"                    ",
"                    ",
"                    ",
"             +X     ",
"           ++Xo     ",
"          XXXO      ",
"         OOOOo      ",
"         OO.. .#    ",
"        O...OOXO@   ",
"        oOOOXXXO#   ",
"        .XXXXXXO.   ",
"     .XoOXXXOOO     ",
"  oOOoXXoOOO...O    ",
"  .XXoX. ....OOXXXX ",
"  OXX .   oOOOXX++  ",
"    .       OoX+    ",
"                    ",
"                    ",
"                    ",
"                    ",
"                    ",
"                    ",
"                    ",
"                    ",
"                    ",
"            X+++X   ",
"          OOXXXXo   ",
"         OOOOOO     ",
"         .....      ",
"  .. .. .OOOOOO.    ",
" .XXoXXoOXXXXXXO@   ",
" .XXoXXoOXXXXXXO@   ",
"  .. .. .OOOOOO.    ",
"         .....      ",
"         OOOOOO     ",
"          OOXXXXo   ",
"            X+++X   ",
"                    ",
"                    ",
"                    ",
"                    ",
"                    ",
"                    ",
"                    ",
"                    ",
"                    ",
"    o       OoX+    ",
"  .XX o   oOOOXX++  ",
"  .XXoX. ....OOXXXX ",
"  oOOoXXoOOO...O    ",
"     .XoOXXXOOO     ",
"        .XXXXXXOo   ",
"        oOOOXXXO#   ",
"        O...OOXO@   ",
"         OO.. o#    ",
"         OOOOo      ",
"          XXXO      ",
"           ++oo     ",
"             +X     ",
"                    ",
"                    ",
"                    ",
"                    ",
"                    ",
"    ..              ",
"   .OX.             ",
"   .XX.             ",
"    ..oX.           ",
"      XXX  .OOO     ",
"      .XoOO..OOX+   ",
"        OXXO..OXX+  ",
"        OXXXO..OXX+ ",
"       ..OXXXO.  oo ",
"       O..OXXXO     ",
"       OO..OXXO     ",
"       OOO..OOO@    ",
"        XXO   @     ",
"        +XX         ",
"         +Xo        ",
"          +o        ",
"                    ",
"                    ",
"                    ",
"      O.o           ",
"      XXO           ",
"     .XXO           ",
"       oo.          ",
"      .XXX          ",
"       .Xo          ",
"        oO.oO       ",
"       .OXXO.OO     ",
"      o.OXXO.OOX    ",
"      O.OXXO..OX+   ",
"     OO..OXXO.OX+   ",
"     oOO.OXXO oOX+  ",
"     XXO.OXXX.  oX  ",
"     +XXO OOO#      ",
"      +X  .#@       ",
"      +X            ",
"       X            ",
"                    "};
