/* XPM */
static char * C8_xpm[] = {
"20 320 7 1",
" 	c None",
".	c #9A9AAF",
"X	c #8D8DA0",
"o	c #C6C6E0",
"O	c #A9A9C0",
"+	c #FFFF00",
"@	c #FF0000",
"                    ",
"         ..         ",
"        XooX        ",
"     . .OooO. .     ",
"    .O .OooO. O.    ",
"    O  . oo .  O    ",
"    O  . OO .  O    ",
"   .O    oo    O.   ",
"   OO   OooO   OO   ",
"   OO XOOooOOX OO   ",
"   +OX.  oo  .XO+   ",
"   +O   OooO   O+   ",
"   +OX.  oo  .XO+   ",
"   +OXXO oo OXXO+   ",
"   ++  OOooOO  ++   ",
"    +O  OooO  O+    ",
"     .  @OO@  .     ",
"         XX         ",
"                    ",
"                    ",
"                    ",
"        .   X..     ",
"       .  X.ooX     ",
"      OO  .Ooo.X    ",
"     .O  . oooO.    ",
"     OO  . oo .  X  ",
"    OOX    OO .  X  ",
"    +OOO.Ooo     O  ",
"   +OO  XOooO   O.  ",
"   +OX   oooO.  O.  ",
"  +.O.X Ooo  .XOOX  ",
"  +. XO  ooO  XOO   ",
"  +.  OXoo     O.   ",
"   O  XOooXO.XO.+   ",
"      @OooOO XO+    ",
"       OOOX  OX+    ",
"       XX@  OX+     ",
"            O+      ",
"                    ",
"                    ",
"                    ",
"          ..        ",
"         O          ",
"       .O   X.Xo.   ",
"      OO   ..Oooo   ",
"     +OX   . oooX   ",
"    +OXXXX  OooO.   ",
"   +OX  XOOooO .X   ",
"  ++XXX   ooo ..  . ",
"  +  .. o.ooO     . ",
"  .O .O .o. OX   O  ",
"     OOoo.o XX  O   ",
"     Oooo    XXO.   ",
"    @OooOO.X XOO    ",
"    XXOOO..XXO+     ",
"     X@    XO+      ",
"         O ++       ",
"         .++        ",
"                    ",
"                    ",
"                    ",
"                    ",
"         O..OXX     ",
"      +.OOOO        ",
"    ++OOOO     .X   ",
"   +OOO XX   ..O... ",
"  +OO X  XX    ooo. ",
"  OO X.   OO OooooX ",
"     OO O oooOooOO  ",
"     OO ooooo   .X  ",
"   @OooooooOO ..    ",
"   XOooo O OX     . ",
"   XOoOO   XX   O.  ",
"     @XOO  XX OOO   ",
"       XXX OOOO.    ",
"         OO+OO      ",
"     O.XX++         ",
"      +++           ",
"                    ",
"                    ",
"                    ",
"                    ",
"                    ",
"     +++++OO.       ",
"    ++OOOOOOOOO.    ",
"   .O XX X     O.   ",
"      X. .X         ",
"     OO   O  ....   ",
"   @OO  O OO   OOX  ",
"  XOoooooooooOoooo. ",
"  XOoooooooooOoooo. ",
"   @OO  O OO   OOX  ",
"     OO   O  ....   ",
"      X. .X         ",
"   .O XX X     O.   ",
"    ++OOOOOOOOO.    ",
"     +++++OO.       ",
"                    ",
"                    ",
"                    ",
"                    ",
"                    ",
"       +++          ",
"      O...++        ",
"         OOO+O      ",
"        X.XOOOOO    ",
"     @XOOX  OXOOO   ",
"   XOOOX    O   OO  ",
"   XOooo O X.     . ",
"   @OooooooOO ..    ",
"    XOX ooooo   .X  ",
"     OO O oooOooO.  ",
"  OO  .   OO OooooX ",
"  +XOXX  ..    ooo. ",
"   +XOO XX   ..O.X. ",
"    ++.OOO     .X   ",
"      +.OOOO        ",
"         X..OXX     ",
"                    ",
"                    ",
"                    ",
"                    ",
"         .++        ",
"         O ++       ",
"     X@    XO+      ",
"    XXOOO..XXO+     ",
"    @OooOO.X XOO    ",
"     Oooo    XXO.   ",
"     OOoo.o XX  O   ",
"  .O .O .o. OX   O  ",
"  +  .. o.ooO     . ",
"  ++XXX   ooo ..  . ",
"   +OX  XOOooO .X   ",
"    +OXXXX  OooO.   ",
"     +OX   . oooX   ",
"      OO   ..Oooo   ",
"       .O   X.Xo.   ",
"         O          ",
"          ..        ",
"                    ",
"                    ",
"                    ",
"            O+      ",
"       XX@  OO+     ",
"       OOO   OO+    ",
"   O  @oooOOX O+    ",
"  +.  XOooOO.XOO+   ",
"  +X XOOoo     O.   ",
"  +X XO  ooO  XOO   ",
"   +OX  Ooo  XXOOO  ",
"   +O    oooOX  O.  ",
"    +OXXOOooO   O.  ",
"    OOXXXOoo     O  ",
"    OO     OO .  X  ",
"     OO  . oo .  X  ",
"     .O  . oooO.    ",
"      OO  .OooOX    ",
"       .  XOoo.     ",
"        .   X..     ",
"                    ",
"                    ",
"                    ",
"         XX         ",
"     .  @OO@  .     ",
"    +O  OooO  O+    ",
"   ++  OOooOO  ++   ",
"   +OXXO oo OXXO+   ",
"   +OX.  oo  .XO+   ",
"   +O   OooO   O+   ",
"   +OX.  oo  .XO+   ",
"   OO XOOooOOX OO   ",
"   OO   OooO   OO   ",
"   .O    oo    O.   ",
"    O  . OO .  O    ",
"    O  . oo .  O    ",
"    .O .OooO. O.    ",
"     . .OooO. .     ",
"        XooX        ",
"         ..         ",
"                    ",
"                    ",
"                    ",
"      +O            ",
"     +XO  @XX       ",
"    +XO  XOOO       ",
"    +OX OOooO@      ",
"   +.OX.OXooOX  O   ",
"   .O     ooXO  .+  ",
"   OOX  Ooo  OX .+  ",
"  XOOX.  ooO X.O.+  ",
"  .O  .Oooo   XO+   ",
"  .O   OooOX  OO+   ",
"  O     ooO.OOO+    ",
"  X  . OO    XOO    ",
"  X  . oo .  OO     ",
"    .Oooo .  OO     ",
"    X.ooO.  OO      ",
"     Xoo.X  O       ",
"     ..X   .        ",
"                    ",
"                    ",
"                    ",
"        ++.         ",
"       ++ O         ",
"      +OX    @X     ",
"     +OXX..OOO.X    ",
"    OOX X.OOooO@    ",
"   .OXX    oooO     ",
"   O  XX o.ooOO     ",
"  O   XO .o. O. O.  ",
" .     Ooo.o ..  +  ",
" .  .. ooo   XXX++  ",
"   X. OooOOX  XO+   ",
"   .OooO  XXXXO+    ",
"   Xooo .   XO+     ",
"   oooO..   OO      ",
"   .oX.X   O.       ",
"          O         ",
"        ..          ",
"                    ",
"                    ",
"                    ",
"           +++      ",
"         ++XX.O     ",
"      OO+OO         ",
"    .OOOO XXX       ",
"   OOO XX  OOX@     ",
"  .O   XX   OOoOX   ",
" .     XO O oooOX   ",
"    .. OOooooooO@   ",
"  X.   ooooo OO     ",
"  OOooOooo O OO     ",
" XooooO OO   .X OO  ",
" .ooo    XX  X OO+  ",
" ..OO..   XX OOO+   ",
"   X.     OOOO++    ",
"        OOOO.+      ",
"     XXO..O         ",
"                    ",
"                    ",
"                    ",
"                    ",
"                    ",
"       .OO+++++     ",
"    .OOOOOOOOO++    ",
"   .O     X XX O.   ",
"         X. .X      ",
"   ....  O   OO     ",
"  XOO   OO O  OO@   ",
" .ooooOoooooooooOX  ",
" .ooooOoooooooooOX  ",
"  XOO   OO O  OO@   ",
"   ....  O   OO     ",
"         X. .X      ",
"   .O     X XX O.   ",
"    .OOOOOOOOO++    ",
"       .OO++++      ",
"                    ",
"                    ",
"                    ",
"                    ",
"                    ",
"     XXO..X         ",
"        OOOO.+      ",
"   X.     OOO.++    ",
" .X.O..   XX OO.+   ",
" .ooo    ..  XXO.+  ",
" XooooO OO   .  OO  ",
"  .OooOooo O OO     ",
"  X.   ooooo XOX    ",
"    .. OOooooooO@   ",
" .     .X O oooOX   ",
"  OO   O    XOOOX   ",
"   OOOXO  XOOX@     ",
"    OOOOOX.X        ",
"      O+OOO         ",
"        ++...       ",
"          +++       ",
"                    ",
"                    ",
"                    ",
"        ..          ",
"          O         ",
"   .oX.X   O.       ",
"   oooO..   OO      ",
"   Xooo .   XO+     ",
"   .OooO  XXXXO+    ",
"   X. OooOOX  XO+   ",
" .  .. ooo   XXX++  ",
" .     Ooo.o ..  +  ",
"  O   XO .o. O. O.  ",
"   O  XX o.ooOO     ",
"   .OXX    oooO     ",
"    OOX X.OOooO@    ",
"     +OXX..OOO.X    ",
"      +OX    @X     ",
"       ++ O         ",
"        ++.         ",
"                    ",
"                    ",
"                    ",
"     ..X   .        ",
"     .ooOX  .       ",
"    XOooO.  OO      ",
"    .Oooo .  O.     ",
"  X  . oo .  OO     ",
"  X  . OO     OO    ",
"  O     ooOXXXOO    ",
"  .O   OooOOXXO+    ",
"  .O  XOooo    O+   ",
"  OOOXX  ooO  XO+   ",
"   OOX  Ooo  OX X+  ",
"   .O     ooOOX X+  ",
"   +OOX.OOooOX  .+  ",
"    +O XOOooo@  O   ",
"    +OO   OOO       ",
"     +OO  @XX       ",
"      +O            ",
"                    ",
"                    "};
