/* XPM */
static char * C3_xpm[] = {
"20 320 7 1",
" 	c None",
".	c #8D8DA0",
"X	c #9A9AAF",
"o	c #A9A9C0",
"O	c #C6C6E0",
"+	c #FFFF00",
"@	c #FF0000",
"                    ",
"         .X.        ",
"        .oOo.       ",
"        XOOOX       ",
"        oOOOo       ",
"        oOOOo       ",
"        oOOOo       ",
"      O oOOOo O     ",
"      . .XOX. .     ",
"      .  XOX  .     ",
"      .  XOX  .     ",
"      .  XOX  .     ",
"      +X oOo X+     ",
"      +XXoOoXX+     ",
"      +XXoOoXX+     ",
"      +XXoOoXX+     ",
"      +XXoOoXX+     ",
"      .X oOo X.     ",
"      .. @X@ ..     ",
"                    ",
"                    ",
"             .X     ",
"           .oOo.    ",
"           oOOo.    ",
"          .OOOO.    ",
"        O oOOOo     ",
"       .  oOOOo     ",
"       X .XOOo.     ",
"       .  XOXo O    ",
"      .  .OOX. .    ",
"      +X XOX  .     ",
"     +XX oOX  X     ",
"     +XXoOo   .     ",
"     +XXoOoXX+      ",
"    +XXoOOoXX+      ",
"    .X oOoXX+       ",
"    . @oooXX+       ",
"       X@ XX+       ",
"          ..        ",
"           .        ",
"                    ",
"                    ",
"                    ",
"             .X.    ",
"         O  XooX.   ",
"        .  XoOOoX   ",
"       .  XoOOOo.   ",
"      .  .oOOOoX    ",
"     +   .OOOoX     ",
"    +X  .XOOoX      ",
"   +XX .XOX..  O    ",
"  +XXXooOX.   .     ",
" .XXXooOo.   .      ",
"    ooOoo   .       ",
"   @oOooXXX+        ",
"    .ooXXX+         ",
"     @ XX+          ",
"       X+           ",
"       .            ",
"                    ",
"                    ",
"                    ",
"                    ",
"                    ",
"                    ",
"          .O   X..  ",
"       ...   ooOOoX ",
"     ++X   .oOOOOO. ",
"  +++XXX  XXOOOOOO. ",
" ..XXXX XXOOOOOOoX  ",
" .XXXoooOOOXXooo    ",
"   oooOOoXX  .      ",
"  @oOOoo      O     ",
"  XoooXXXX ...      ",
"   @ XXXX++         ",
"    XX.++           ",
"    ..+             ",
"                    ",
"                    ",
"                    ",
"                    ",
"                    ",
"                    ",
"                    ",
"                    ",
"                    ",
" ..+++++....O       ",
" .XXXXXX            ",
"   XXXX    .ooooX.  ",
" @ooooooXXXXOOOOOo. ",
" XOOOOOOOOOOOOOOOOX ",
" @ooooooXXXXOOOOOo. ",
"   XXXX    .ooooX.  ",
" .XXXXXX            ",
" ..+++++....O       ",
"                    ",
"                    ",
"                    ",
"                    ",
"                    ",
"                    ",
"                    ",
"                    ",
"                    ",
"   ..+              ",
"    XX+++           ",
"   @ XXXX+.         ",
"  XoooXXXX .X.      ",
"  @oOOoo      O     ",
"   ooOOOoX. .       ",
" .XXXoooOOOXXoo.    ",
"..XXXXX XXOOOOOOo.  ",
"  +++XX   XXOOOOOo  ",
"     ++   .ooOOOOO. ",
"       .X.  .ooOooX ",
"          .O   ...  ",
"                    ",
"                    ",
"                    ",
"                    ",
"                    ",
"       .            ",
"       X+           ",
"     @ XX+          ",
"    .ooXXX+         ",
"   @oOooXXX+        ",
"    ooOoo   .       ",
" .XXXooOo.   .      ",
"  +XXXooOX.   .     ",
"   +XX .XOX..  O    ",
"    +X  .XOOoX      ",
"     +   .OOOoX     ",
"      .  .oOOOoX    ",
"       .  XoOOOo.   ",
"        .  XoOOoX   ",
"         O  ooX..   ",
"             .X.    ",
"                    ",
"                    ",
"                    ",
"                    ",
"         ..         ",
"      X@ X.+        ",
"     @oooXX+        ",
"   .X oOoXX+        ",
"   .XXoOooXX+       ",
"   +.XXoOoXX+       ",
"    +XXoOo XX.      ",
"    +XX oOX  .      ",
"     +X XOX  .      ",
"     +  XOOX  .     ",
"      .  XOX. O     ",
"      .  XOOo       ",
"      . .oOOOo      ",
"       O oOOOo      ",
"         oOOOOX     ",
"          oOOO.     ",
"          XOOo.     ",
"           ..X      ",
"                    ",
"                    ",
"     .. @X@ ..      ",
"     .X oOo X.      ",
"     +XXoOoXX+      ",
"     +XXoOoXX+      ",
"     +XXoOoXX+      ",
"     +XXoOoXX+      ",
"     +X oOo X+      ",
"     .  XOX  .      ",
"     .  XOX  .      ",
"     .  XOX  .      ",
"     . .XOX. .      ",
"     O oOOOo O      ",
"       oOOOo        ",
"       oOOOo        ",
"       oOOOo        ",
"       XOOOX        ",
"       .oOo.        ",
"        .X.         ",
"                    ",
"        .           ",
"        ..          ",
"       +XX @X       ",
"       +XXooo@ .    ",
"       +XXoOo X.    ",
"      +XXoOOoXX+    ",
"      +XXoOoXX+     ",
"     .   oOoXX+     ",
"     X  XOo XX+     ",
"     .  XOX X+      ",
"    . .XOO.  .      ",
"    O oXOX  .       ",
"     .oOOX. X       ",
"     oOOOo  .       ",
"     oOOOo O        ",
"    .OOOO.          ",
"    .oOOo           ",
"    .oOo.           ",
"     X.             ",
"                    ",
"                    ",
"            .       ",
"           +X       ",
"          +XX @     ",
"         +XXXoo.    ",
"        +XXXooOo@   ",
"       .   ooOoo    ",
"      .   .oOooXXX. ",
"     .   .XOooXXX+  ",
"    O  ..XOX. XX+   ",
"      XoOOX.  X+    ",
"     XoOOO.   +     ",
"    ooOOOo.  .      ",
"   .oOOOoX  .       ",
"   XXOOoX  .        ",
"   ..ooX  O         ",
"    .X.             ",
"                    ",
"                    ",
"                    ",
"                    ",
"                    ",
"                    ",
"             +.     ",
"           ++.X.    ",
"         ++XXXX @   ",
"      ... XXXXoooX  ",
"     O      ooOOo@  ",
"      .  XXoOOooo   ",
"    oooXXOOOoooXXX. ",
"  XoOOOOOOXX XXXX.. ",
" .OOOOOOXX  XXX+++  ",
" .OOOOOo.   X++     ",
" XoOOoo   ...       ",
"  ..X   O.          ",
"                    ",
"                    ",
"                    ",
"                    ",
"                    ",
"                    ",
"                    ",
"                    ",
"                    ",
"                    ",
"       O....+++++.. ",
"            XXXXXX. ",
"  .Xoooo.    XXXX   ",
" .oOOOOOXXXXoooooo@ ",
" XOOOOOOOOOOOOOOOOX ",
" .oOOOOOXXXXoooooo@ ",
"  .Xoooo.    XXXX   ",
"            XXXXXX. ",
"       O....+++++.. ",
"                    ",
"                    ",
"                    ",
"                    ",
"                    ",
"                    ",
"                    ",
"                    ",
"                    ",
"                    ",
"  ...   O.          ",
" XooOoo.  .X.       ",
" .OOOOOoo.   ++     ",
"  oOOOOOXX   XX+++  ",
"  .oOOOOOOXX XXXXX..",
"    .ooXXOOOoooXXX. ",
"       . .XoOOOoo   ",
"     O      ooOOo@  ",
"      .X. XXXXoooX  ",
"         .+XXXX @   ",
"           +++XX    ",
"              +..   ",
"                    ",
"                    ",
"                    ",
"                    ",
"                    ",
"                    ",
"                    ",
"    .X.             ",
"   ..Xoo  O         ",
"   XoOOoX  .        ",
"   .oOOOoX  .       ",
"    XoOOOo.  .      ",
"     XoOOO.   +     ",
"      XoOOX.  X+    ",
"    O  ..XOX. XX+   ",
"     .   .XOooXXX+  ",
"      .   .oOooXXX. ",
"       .   ooOoo    ",
"        +XXXooOo@   ",
"         +XXXoo.    ",
"          +XX @     ",
"           +X       ",
"            .       ",
"                    ",
"                    ",
"      X..           ",
"     .oOOX          ",
"     .OOOo          ",
"     XOOOOo         ",
"      oOOOo O       ",
"      oOOOo. .      ",
"       oOOX  .      ",
"     O .XOX  .      ",
"     .  XOOX  +     ",
"      .  XOX X+     ",
"      .  XOo XX+    ",
"      .XX oOoXX+    ",
"       +XXoOoXX.+   ",
"       +XXooOoXX.   ",
"        +XXoOo .    ",
"        +XXooo@     ",
"        +.X @       ",
"         ..         ",
"                    "};
