/* XPM */
static char * C2_xpm[] = {
"20 320 8 1",
" 	c None",
".	c #9A9AAF",
"X	c #A9A9C0",
"o	c #C6C6E0",
"O	c #8D8DA0",
"+	c #FFFF00",
"@	c #FF0000",
"#	c #B00000",
"                    ",
"                    ",
"         ..         ",
"        .XX.        ",
"        XooX        ",
"        OooO        ",
"         ..         ",
"         ..         ",
"     o  OXXO  o     ",
"     o  XooX  o     ",
"    Oo  XooX  oO    ",
"    .o .XooX. o.    ",
"    +o..XooX..o+    ",
"    +o..XooX..o+    ",
"    +o .@OO@. o+    ",
"    +o  #XX#  o+    ",
"     X        X     ",
"     .        .     ",
"                    ",
"                    ",
"                    ",
"                    ",
"           O..      ",
"           XoXO     ",
"          Oooo.     ",
"           oo.      ",
"      o    .O       ",
"     Oo   X.O       ",
"    .oO  XoX        ",
"    +o O.oooO       ",
"    +o..Xooo  Oo    ",
"   +o...XooX. oO    ",
"   +o .XooX.. oO    ",
"   Xo  @OOX..o+     ",
"   .   #XX@..o+     ",
"         #  o+      ",
"            o+      ",
"            X       ",
"           .        ",
"                    ",
"                    ",
"                    ",
"                    ",
"               .    ",
"             XX..   ",
"      OoX   OooX    ",
"     .oX    .ooX    ",
"    +oX   O...O     ",
"   +oX.O XoX.       ",
"  +oX...XoooO       ",
"  XX ..XoooX        ",
" ..  O@oooX   X     ",
"     #OOoX.O Xo     ",
"      XO@...XoO     ",
"       #O..Xo.      ",
"          Xo+       ",
"         Xo+        ",
"        .X+         ",
"        .           ",
"                    ",
"                    ",
"                    ",
"                    ",
"                    ",
"       OOo          ",
"     ++ooO     ..   ",
"   ++oo       .oX.  ",
"  Xoo.... . ..ooo.  ",
" .   ...XooX..ooXO  ",
"     @XXooooX  O    ",
"    #XOooooX        ",
"     XOoXXX         ",
"     #@X..O         ",
"       ... Ooo      ",
"        .oooO       ",
"      ooo++.        ",
"     .X++           ",
"                    ",
"                    ",
"                    ",
"                    ",
"                    ",
"                    ",
"                    ",
"    ++++.O          ",
"  .Xoooooooo        ",
"      ..            ",
"     ....           ",
"    #@XXXXXO  OX.   ",
"    XOoooooX..ooX.  ",
"    XOoooooX..ooX.  ",
"    #@XXXXXO  OX.   ",
"     ....           ",
"      ..            ",
"  .Xoooooooo        ",
"    ++++.O          ",
"                    ",
"                    ",
"                    ",
"                    ",
"                    ",
"                    ",
"                    ",
"     .X++           ",
"      ooo++.        ",
"        .oooO       ",
"       ... Ooo      ",
"     #@X..O         ",
"     XOoXX.         ",
"    #XOooooX        ",
"     @XXooooX  O    ",
" .   ...XooX..ooXO  ",
"  Xoo.... O OOooo.  ",
"   ++oo       .oX.  ",
"     ++ooO     .O   ",
"       OOo          ",
"                    ",
"                    ",
"                    ",
"                    ",
"                    ",
"        .           ",
"        .X+         ",
"         Xo+        ",
"          Xo+       ",
"       #O..Xo.      ",
"      XO@...XoO     ",
"     #OOoX.O Xo     ",
" ..  O@oooX   X     ",
"  XX ..XoooX        ",
"  +oX...XoooO       ",
"   +oX.O XoX.       ",
"    +oX   O...O     ",
"     .oX    .ooX    ",
"      OoX   OooX    ",
"             XX..   ",
"               .    ",
"                    ",
"                    ",
"                    ",
"                    ",
"           .        ",
"            X       ",
"            o+      ",
"         #  o+      ",
"   .   #XX@..o+     ",
"   Xo  @OOX..o+     ",
"   +o .XooX.. oO    ",
"   +o...XooX. oO    ",
"    +o..Xooo  Oo    ",
"    +o OXooo.       ",
"    .oO  XoX        ",
"     Oo   X..       ",
"      o    ..       ",
"           oo.      ",
"          Oooo.     ",
"           Xo..     ",
"           O..      ",
"                    ",
"                    ",
"                    ",
"                    ",
"     .        .     ",
"     X        X     ",
"    +o  #XX#  o     ",
"    +o .@OO@. o+    ",
"    +o..XooX..o+    ",
"    +o..XooX..o+    ",
"    .o .XooX. o.    ",
"    Oo  XooX  oO    ",
"     o  XooX  o     ",
"     o  OXXO  o     ",
"         ..         ",
"         ..         ",
"        OooO        ",
"        XooX        ",
"        .XX.        ",
"         ..         ",
"                    ",
"                    ",
"                    ",
"        .           ",
"       X            ",
"      +o            ",
"      +o  #         ",
"     +o..@XX#   O   ",
"     +o..XOO@  oX   ",
"    Oo ..XooX. o+   ",
"    Oo .XooX...o+   ",
"    oO  oooX..o+    ",
"       Oooo.O o+    ",
"        XoX  Oo.    ",
"       O.X   oO     ",
"       O.    o      ",
"      .oo           ",
"     .oooO          ",
"     OXoX           ",
"      ..O           ",
"                    ",
"                    ",
"                    ",
"           .        ",
"         +X.        ",
"        +oX         ",
"       +oX          ",
"      .oX..O#       ",
"     OoX...@OX      ",
"     oX O.XoOO#     ",
"     X   Xooo@O  .. ",
"        XoooX.. XX  ",
"       OoooX...Xo+  ",
"       .XoX O.Xo+   ",
"     O...O   Xo+    ",
"    Xoo.    Xo.     ",
"    XooO   XoO      ",
"   ..XX             ",
"    .               ",
"                    ",
"                    ",
"                    ",
"                    ",
"                    ",
"                    ",
"           ++X.     ",
"        .++ooo      ",
"       Oooo.        ",
"      ooO ...       ",
"         O..X@#     ",
"         XXXoOX     ",
"        XooooOX#    ",
"    O  XooooXX@     ",
"  OXoo..XooX...   . ",
"  .ooo.. . ....ooX  ",
"  ..o.       oo++   ",
"   ..     Ooo++     ",
"          oOO       ",
"                    ",
"                    ",
"                    ",
"                    ",
"                    ",
"                    ",
"                    ",
"                    ",
"          O.++++    ",
"        ooooooooX.  ",
"            ..      ",
"           ....     ",
"   .XO  OXXXXX@#    ",
"  .Xoo..XoooooOX    ",
"  .Xoo..XoooooOX    ",
"   .XO  OXXXXX@#    ",
"           ....     ",
"            ..      ",
"        ooooooooX.  ",
"          O.++++    ",
"                    ",
"                    ",
"                    ",
"                    ",
"                    ",
"                    ",
"                    ",
"                    ",
"          oOO       ",
"   O.     Ooo++     ",
"  .Xo.       oo++   ",
"  .oooOO O ....ooX  ",
"  OXoo..XooX...   O ",
"    O  XooooXX@     ",
"        XooooOX#    ",
"         .XXoOX     ",
"         O..X@#     ",
"      ooO ...       ",
"       Oooo.        ",
"        .++ooo      ",
"           ++X.     ",
"                    ",
"                    ",
"                    ",
"                    ",
"                    ",
"                    ",
"    .               ",
"   ..XX             ",
"    XooO   XoO      ",
"    Xoo.    Xo.     ",
"     O...O   Xo+    ",
"       .XoX O.Xo+   ",
"       OoooX...Xo+  ",
"        XoooX.. XX  ",
"     X   Xooo@O  .. ",
"     oX O.XoOO#     ",
"     OoX...@OX      ",
"      .oX..O#       ",
"       +oX          ",
"        +oX         ",
"         +X.        ",
"           .        ",
"                    ",
"                    ",
"                    ",
"      ..O           ",
"     ..oX           ",
"     .oooO          ",
"      .oo           ",
"       ..    o      ",
"       ..X   oO     ",
"        XoX  Oo.    ",
"       .oooXO o+    ",
"    oO  oooX..o+    ",
"    Oo .XooX...o+   ",
"    Oo ..XooX. o+   ",
"     +o..XOO@  oX   ",
"     +o..@XX#   .   ",
"      +o  #         ",
"      +o            ",
"       X            ",
"        .           ",
"                    "};
