/* XPM */
static char * C1_xpm[] = {
"20 320 8 1",
" 	c None",
".	c #8D8DA0",
"X	c #A9A9C0",
"o	c #C6C6E0",
"O	c #9A9AAF",
"+	c #FFFF00",
"@	c #FF0000",
"#	c #B00000",
"                    ",
"         ..         ",
"         XX         ",
"        .oo.        ",
"        XooX        ",
"        XooX        ",
"        XooX        ",
"        OXXO        ",
"      o  XX  o      ",
"      oX XX Xo      ",
"     XoXOXXOXoX     ",
"    .XoXOXXOXoX.    ",
"    +Xo@#OO#@oX+    ",
"    +Xo  ..  oX+    ",
"    +X        X+    ",
"    +O        O+    ",
"    .O        O.    ",
"    .          .    ",
"                    ",
"                    ",
"                    ",
"             .      ",
"           .XX      ",
"           XoX      ",
"          Oooo.     ",
"          XooX      ",
"       o  OooO      ",
"     ..o  XXO       ",
"    .OoXX XX        ",
"    +XoXOOXX  o     ",
"    +Xo@OXXOXo.     ",
"   +Xo @ OOXXoX     ",
"   +O   .. @@oX     ",
"  .OO       oX+     ",
"  .         oX+     ",
"            X+      ",
"            O+      ",
"            O.      ",
"            .       ",
"                    ",
"                    ",
"                    ",
"                    ",
"               X.   ",
"             XoXX   ",
"            Xooo    ",
"     .OXo  OoooX    ",
"    +OXoXX XXoX     ",
"   +OXoXXOXXXO      ",
"  +OXo@@OXXX        ",
" .OO    OXXOX       ",
"       ..OOXXo      ",
"        . @XoX      ",
"          @oXO      ",
"          oXO.      ",
"          XO+       ",
"         OO+        ",
"         O+         ",
"         .          ",
"                    ",
"                    ",
"                    ",
"                    ",
"                    ",
"                    ",
"    +++XX.o    .    ",
"  .++XXooo   OXoXX. ",
" .OOXoo@XX  OooooX  ",
"       @XOXXXoooX.  ",
"        OXXXXOXO    ",
"       .OXO         ",
"       . OOX        ",
"        @@XXoo      ",
"         ooo.       ",
"        oXX..       ",
"      OOX++.        ",
"      O++           ",
"     ..             ",
"                    ",
"                    ",
"                    ",
"                    ",
"                    ",
"                    ",
"  ..++++.           ",
"   OOXXXXX          ",
"      oooooo        ",
"       @XXX         ",
"       #OO  OXXX.   ",
"      .OXXXXXooooX. ",
"      .OXXXXXooooX. ",
"       #OO  OXXX.   ",
"       @XXX         ",
"      oooooo        ",
"   OOXXXXX          ",
"  ..++++.           ",
"                    ",
"                    ",
"                    ",
"                    ",
"                    ",
"                    ",
"     ..             ",
"      O++           ",
"      OOX++.        ",
"        oXXO.       ",
"         ooo.       ",
"        @@XXoo      ",
"       . OOX        ",
"       .OXO         ",
"        OXXXXOXO    ",
"       @XOXXXoooX.  ",
" .OOXoo@XX  OooooX  ",
"  .++XXooo   OXoXX. ",
"     ++XX.o    .    ",
"                    ",
"                    ",
"                    ",
"                    ",
"                    ",
"                    ",
"         .          ",
"         O+         ",
"         OO+        ",
"          XO+       ",
"          oXO.      ",
"          @oXO      ",
"        . @XoX      ",
"       ..OOXXo      ",
" .OO    OXXOX       ",
"  +OXo@@OXXX        ",
"   +OXoXXOXXXO      ",
"    +OXoXX XXoX     ",
"     .OXo  OoooX    ",
"            Xooo    ",
"             XoXX   ",
"               X.   ",
"                    ",
"                    ",
"                    ",
"                    ",
"            .       ",
"            O.      ",
"            O+      ",
"            X+      ",
"  .         oX+     ",
"  .OO       oX+     ",
"   +O   .. @@oX     ",
"   +Xo @ OOXXoX     ",
"    +Xo@OXXOXo.     ",
"    +XoXOOXX  o     ",
"    ..oXX XX        ",
"     ..o  XXO       ",
"       o  OooO      ",
"          XooX      ",
"          Oooo.     ",
"           XoX      ",
"           .XX      ",
"             .      ",
"                    ",
"                    ",
"                    ",
"    .          .    ",
"    .O        O.    ",
"    +O        O.    ",
"    +X        X+    ",
"    +Xo  ..  oX+    ",
"    +Xo@#OO#@oX+    ",
"    .XoXOXXOXoX.    ",
"     XoXOXXOXoX     ",
"      oX XX Xo      ",
"      o  XX  o      ",
"        OXXO        ",
"        XooX        ",
"        XooX        ",
"        XooX        ",
"        .oo.        ",
"         XX         ",
"         ..         ",
"                    ",
"                    ",
"       .            ",
"      .O            ",
"      +O            ",
"      +X            ",
"     +Xo            ",
"     +Xo         .  ",
"     Xo@@ ..   O+   ",
"     XoXXOO @ oX+   ",
"     .oXOXXO@oX+    ",
"     o  XXOOXoX+    ",
"        XX XXoO.    ",
"       OXX  o..     ",
"      OooO  o       ",
"      XooX          ",
"     .oooO          ",
"      XoX           ",
"      XX.           ",
"      .             ",
"                    ",
"                    ",
"          .         ",
"         +O         ",
"        +OO         ",
"       +OX          ",
"      .OXo          ",
"      OXo@          ",
"      XoX@ .        ",
"      oXXOO..       ",
"       XOXXO    OO. ",
"        XXXO@@oXO+  ",
"      OXXXOXXoXO+   ",
"     XoXX XXoXO+    ",
"    XoooO  oXO.     ",
"    oooX            ",
"   XXoX             ",
"   .X               ",
"                    ",
"                    ",
"                    ",
"                    ",
"                    ",
"             ..     ",
"           ++O      ",
"        .++XOO      ",
"       ..XXo        ",
"       .ooo         ",
"      ooXX@@        ",
"        XOO .       ",
"         OXO.       ",
"    OXOXXXXO        ",
"  .XoooXXXOX@       ",
"  XooooO  XX@ooXOO. ",
" .XXoXO   oooXX++.  ",
"    .    o.XX++     ",
"                    ",
"                    ",
"                    ",
"                    ",
"                    ",
"                    ",
"                    ",
"                    ",
"                    ",
"           .++++..  ",
"          XXXXXOO   ",
"        oooooo      ",
"         XXX@       ",
"   .XXXO  OO#       ",
" .XooooXXXXXO.      ",
" .XooooXXXXXO.      ",
"   .XXXO  OO#       ",
"         XXX@       ",
"        oooooo      ",
"          XXXXXOO   ",
"           .+++...  ",
"                    ",
"                    ",
"                    ",
"                    ",
"                    ",
"                    ",
"                    ",
"                    ",
"                    ",
"    .    o.XX++     ",
" .XXoXO   oooXX++.  ",
"  XooooO  XX@ooXOO. ",
"  .XoooXXXOX@       ",
"    OXOXXXXO        ",
"         OXO.       ",
"        XOO .       ",
"      ooXX@@        ",
"       .ooo         ",
"       .OXXo        ",
"        .++XO       ",
"           ++       ",
"             .      ",
"                    ",
"                    ",
"                    ",
"                    ",
"                    ",
"   .X               ",
"   XXoX             ",
"    oooX            ",
"    XoooO  oXO.     ",
"     XoXX XXoXO+    ",
"      OXXXOXXoXO+   ",
"        XXXO@@oXO+  ",
"       XOXXO    OO. ",
"      oXXOO..       ",
"      XoX@ .        ",
"      OXo@          ",
"      .OXo          ",
"       +OX          ",
"        +OO         ",
"         +O         ",
"          .         ",
"                    ",
"                    ",
"      .             ",
"      XX.           ",
"      XoX           ",
"     .oooO          ",
"      XooX          ",
"      OooO  o       ",
"       OXX  o..     ",
"        XX XXo..    ",
"     o  XXOOXoX+    ",
"     .oXOXXO@oX+    ",
"     XoXXOO @ oX+   ",
"     Xo@@ ..   O+   ",
"     +Xo       OO.  ",
"     +Xo         .  ",
"      +X            ",
"      +O            ",
"      .O            ",
"       .            ",
"                    "};
