/* XPM */
static char * C0_xpm[] = {
"20 320 8 1",
" 	c None",
".	c #A9A9C0",
"X	c #C6C6E0",
"o	c #8D8DA0",
"O	c #9A9AAF",
"+	c #FFFF00",
"@	c #FF0000",
"#	c #909090",
"                    ",
"                    ",
"          .         ",
"         .X.        ",
"         o.o        ",
"          .         ",
"        .....       ",
"         O.O        ",
"          .         ",
"        X . X       ",
"        + . +       ",
"        +.@.+       ",
"        X. .X       ",
"        +   +       ",
"        X   X       ",
"        X   X       ",
"        #   o       ",
"                    ",
"                    ",
"                    ",
"                    ",
"                    ",
"             o      ",
"            o.O     ",
"           o.X.     ",
"          o OOO     ",
"          O..       ",
"           .O.o     ",
"         . .o       ",
"        + ..        ",
"        +..  .      ",
"       oX...+       ",
"       + @.X+       ",
"       X   X        ",
"      O    +        ",
"          X         ",
"          O         ",
"                    ",
"                    ",
"                    ",
"                    ",
"                    ",
"                    ",
"                    ",
"              O.o   ",
"             oOX.   ",
"           O  .OO   ",
"           O.. o    ",
"         . o..      ",
"        + O.oOO     ",
"       +oO.O        ",
"      .oO@O .       ",
"     +   Oo+        ",
"    .    o+         ",
"         .          ",
"        +           ",
"       .            ",
"                    ",
"                    ",
"                    ",
"                    ",
"                    ",
"                    ",
"                    ",
"                    ",
"                    ",
"            o O.O   ",
"         .  . OX.o  ",
"       ++  oO.O.o   ",
"     +XX. .... o    ",
"   OX  ....  Oo     ",
"       @.. .        ",
"        X++         ",
"      X+o           ",
"     O              ",
"                    ",
"                    ",
"                    ",
"                    ",
"                    ",
"                    ",
"                    ",
"                    ",
"                    ",
"                    ",
"                    ",
"                    ",
"                    ",
"   #XX+X++X  .      ",
"       ..   O. o.   ",
"        @.......X.  ",
"       ..   O. o.   ",
"   oXX+X++X  .      ",
"                    ",
"                    ",
"                    ",
"                    ",
"                    ",
"                    ",
"                    ",
"                    ",
"                    ",
"                    ",
"                    ",
"                    ",
"                    ",
"     O              ",
"      X+o           ",
"        X++         ",
"       @.. .        ",
"   OX  ....  Oo     ",
"     +XX. .... o    ",
"       ++  oO.O.o   ",
"         .  . OX.o  ",
"            o O.O   ",
"                    ",
"                    ",
"                    ",
"                    ",
"                    ",
"                    ",
"                    ",
"                    ",
"                    ",
"      .             ",
"       +            ",
"        .           ",
"   .    o+          ",
"    +   Oo+         ",
"     .oO@O .        ",
"      +oO.O         ",
"       + O.oOO      ",
"        . o..       ",
"          O.. o     ",
"          O  .OO    ",
"            oOX.    ",
"             O.o    ",
"                    ",
"                    ",
"                    ",
"                    ",
"                    ",
"                    ",
"         O          ",
"         X          ",
"     O    +         ",
"      X   X         ",
"      + @.X+        ",
"      oX...+        ",
"       +..  .       ",
"       + ..         ",
"        . .o        ",
"          .O.o      ",
"         O..        ",
"         o OOO      ",
"          o.X.      ",
"           o.O      ",
"            o       ",
"                    ",
"                    ",
"                    ",
"                    ",
"                    ",
"       o   #        ",
"       X   X        ",
"       X   X        ",
"       +   +        ",
"       X. .X        ",
"       +.@.+        ",
"       + . +        ",
"       X . X        ",
"         .          ",
"        O.O         ",
"       .....        ",
"         .          ",
"        o.o         ",
"        .X.         ",
"         .          ",
"                    ",
"                    ",
"                    ",
"                    ",
"                    ",
"         O          ",
"         X          ",
"        +    O      ",
"        X   X       ",
"       +X.@ +       ",
"       +...Xo       ",
"      .  ..+        ",
"        .. +        ",
"       o. .         ",
"     o.O.           ",
"       ..O          ",
"     OOO o          ",
"     .X.o           ",
"     O.o            ",
"      o             ",
"                    ",
"                    ",
"                    ",
"                    ",
"                    ",
"            .       ",
"           +        ",
"          .         ",
"         +o    .    ",
"        +oO   +     ",
"       . O@Oo.      ",
"        O.Oo+       ",
"     OOo.O +        ",
"      ..o .         ",
"    o ..O           ",
"   OO.  O           ",
"   .XOo             ",
"   o.O              ",
"                    ",
"                    ",
"                    ",
"                    ",
"                    ",
"                    ",
"                    ",
"                    ",
"                    ",
"              O     ",
"           o+X      ",
"         ++X        ",
"        . ..@       ",
"     oO  ....  XO   ",
"    o .... .XX+     ",
"   o.O.Oo  ++       ",
"  o.XO .  .         ",
"   O.O o            ",
"                    ",
"                    ",
"                    ",
"                    ",
"                    ",
"                    ",
"                    ",
"                    ",
"                    ",
"                    ",
"                    ",
"                    ",
"                    ",
"      .  X++X+XXo   ",
"   .o .O   ..       ",
"  .X.......@        ",
"   .o .O   ..       ",
"      .  X++X+XX#   ",
"                    ",
"                    ",
"                    ",
"                    ",
"                    ",
"                    ",
"                    ",
"                    ",
"                    ",
"                    ",
"                    ",
"                    ",
"                    ",
"   O.O o            ",
"  o.XO .  .         ",
"   o.O.Oo  ++       ",
"    o .... .XX+     ",
"     oO  ....  XO   ",
"        . ..@       ",
"         ++X        ",
"           o+X      ",
"              O     ",
"                    ",
"                    ",
"                    ",
"                    ",
"                    ",
"                    ",
"                    ",
"                    ",
"                    ",
"    o.O             ",
"    .XOo            ",
"    OO.  O          ",
"     o ..O          ",
"       ..o .        ",
"      OOo.O +       ",
"         O.Oo+      ",
"        . O@Oo.     ",
"         +oO   +    ",
"          +o    .   ",
"           .        ",
"            +       ",
"             .      ",
"                    ",
"                    ",
"                    ",
"                    ",
"                    ",
"                    ",
"       o            ",
"      O.o           ",
"      .X.o          ",
"      OOO o         ",
"        ..O         ",
"      o.O.          ",
"        o. .        ",
"         .. +       ",
"       .  ..+       ",
"        +...Xo      ",
"        +X.@ +      ",
"         X   X      ",
"         +    O     ",
"          X         ",
"          O         ",
"                    ",
"                    ",
"                    "};
