#define ori_battleship_width 20
#define ori_battleship_height 320
static unsigned char ori_battleship_bits[] = {
	0x00, 0x00, 0x00, 0x00, 0x06, 0x00, 0x00, 0x09, 0x00, 0x80, 0x1f, 0x00, 0xa0, 0x5f, 0x00,
	0x90, 0x9f, 0x00, 0x90, 0x9f, 0x00, 0x98, 0x96, 0x01, 0x18, 0x86, 0x01, 0x18, 0x86, 0x01,
	0x38, 0xcf, 0x01, 0xf8, 0xff, 0x01, 0xb8, 0xdf, 0x01, 0x78, 0xef, 0x01, 0x70, 0xef, 0x00,
0xf0, 0xff, 0x00, 0xf0, 0xf9, 0x00, 0x20, 0x40, 0x00, 0x80, 0x1f, 0x00, 0x00, 0x00, 0x00,
0x00, 0x00, 0x00, 0x00, 0x30, 0x00, 0x00, 0x48, 0x00, 0xc0, 0x5c, 0x00, 0x60, 0x7e, 0x00,
    0x30, 0x7e, 0x00, 0x30, 0x7c, 0x00, 0x38, 0x7c, 0x02, 0x38, 0x0c, 0x02, 0x78, 0x07, 0x02,
    0xf8, 0x0f, 0x03, 0xb8, 0xcf, 0x03, 0xb8, 0xff, 0x01, 0xb8, 0xef, 0x01, 0xf8, 0xf7, 0x00,
0x00, 0x7a, 0x00, 0x30, 0x3e, 0x00, 0xc0, 0x0c, 0x00, 0x00, 0x01, 0x00, 0x00, 0x00, 0x00,
0x00, 0x00, 0x00, 0x00, 0x00, 0x00, 0x00, 0x00, 0x00, 0x80, 0xe3, 0x00, 0xe0, 0x38, 0x01,
    0x70, 0x7c, 0x01, 0x78, 0xfa, 0x01, 0x78, 0xf8, 0x00, 0x7c, 0xfc, 0x00, 0xdc, 0x4f, 0x00,
    0xdc, 0x27, 0x01, 0xde, 0x07, 0x01, 0xfa, 0x87, 0x01, 0xf0, 0xff, 0x00, 0xc4, 0xf8, 0x00,
0xc8, 0x7f, 0x00, 0x90, 0x3f, 0x00, 0x20, 0x0f, 0x00, 0x80, 0x01, 0x00, 0x00, 0x00, 0x00,
0x00, 0x00, 0x00, 0x00, 0x00, 0x00, 0x00, 0x1f, 0x00, 0xc0, 0x03, 0x00, 0xe0, 0x01, 0x00,
    0xf0, 0xf1, 0x03, 0xf8, 0xf0, 0x04, 0xb8, 0xf0, 0x05, 0xdc, 0xfb, 0x03, 0xec, 0xff, 0x01,
    0xf8, 0xc7, 0x00, 0xe2, 0x07, 0x00, 0xe4, 0x03, 0x01, 0x24, 0x86, 0x01, 0xe8, 0xff, 0x00,
0xe8, 0x7f, 0x00, 0xe0, 0x1f, 0x00, 0x00, 0x00, 0x00, 0x00, 0x00, 0x00, 0x00, 0x00, 0x00,
0x00, 0x00, 0x00, 0x00, 0x00, 0x00, 0x00, 0x00, 0x00, 0xc0, 0x1f, 0x00, 0xf8, 0x7f, 0x00,
    0xfc, 0x83, 0x00, 0x78, 0x01, 0x00, 0x9a, 0xf1, 0x01, 0xfa, 0xe3, 0x03, 0xf2, 0xff, 0x05,
    0xf2, 0xff, 0x05, 0xfa, 0xe3, 0x03, 0x9a, 0xf1, 0x01, 0x78, 0x01, 0x00, 0xfc, 0x83, 0x00,
0xf8, 0x7f, 0x00, 0xc0, 0x1f, 0x00, 0x00, 0x00, 0x00, 0x00, 0x00, 0x00, 0x00, 0x00, 0x00,
0x00, 0x00, 0x00, 0x00, 0x00, 0x00, 0x00, 0x00, 0x00, 0xe0, 0x1f, 0x00, 0xe8, 0x7f, 0x00,
    0xe8, 0xff, 0x00, 0x24, 0x86, 0x01, 0xe4, 0x03, 0x01, 0xe2, 0x07, 0x00, 0xf8, 0xc7, 0x00,
    0xec, 0xff, 0x01, 0xdc, 0xfb, 0x03, 0xb8, 0xf0, 0x05, 0xf8, 0xf0, 0x04, 0xf0, 0xf1, 0x03,
0xe0, 0x01, 0x00, 0xc0, 0x03, 0x00, 0x00, 0x1f, 0x00, 0x00, 0x00, 0x00, 0x00, 0x00, 0x00,
0x00, 0x00, 0x00, 0x80, 0x01, 0x00, 0x20, 0x0f, 0x00, 0x90, 0x3f, 0x00, 0xc8, 0x7f, 0x00,
    0xc4, 0xf8, 0x00, 0xf0, 0xff, 0x00, 0xfa, 0x87, 0x01, 0xde, 0x07, 0x01, 0xdc, 0x27, 0x01,
    0xdc, 0x4f, 0x00, 0x7c, 0xfc, 0x00, 0x78, 0xf8, 0x00, 0x78, 0xfa, 0x01, 0x70, 0x7c, 0x01,
0xe0, 0x38, 0x01, 0x80, 0xe3, 0x00, 0x00, 0x00, 0x00, 0x00, 0x00, 0x00, 0x00, 0x00, 0x00,
0x00, 0x00, 0x00, 0x00, 0x01, 0x00, 0xc0, 0x0c, 0x00, 0x30, 0x3e, 0x00, 0x00, 0x7a, 0x00,
    0xf8, 0xf7, 0x00, 0xb8, 0xef, 0x01, 0xb8, 0xff, 0x01, 0xb8, 0xcf, 0x03, 0xf8, 0x0f, 0x03,
    0x78, 0x07, 0x02, 0x38, 0x0c, 0x02, 0x38, 0x7c, 0x02, 0x30, 0x7c, 0x00, 0x30, 0x7e, 0x00,
0x60, 0x7e, 0x00, 0xc0, 0x5c, 0x00, 0x00, 0x48, 0x00, 0x00, 0x30, 0x00, 0x00, 0x00, 0x00,
0x00, 0x00, 0x00, 0x80, 0x1f, 0x00, 0x20, 0x40, 0x00, 0xf0, 0xf9, 0x00, 0xf0, 0xff, 0x00,
    0x70, 0xef, 0x00, 0x78, 0xef, 0x01, 0xb8, 0xdf, 0x01, 0xf8, 0xff, 0x01, 0x38, 0xcf, 0x01,
    0x18, 0x86, 0x01, 0x18, 0x86, 0x01, 0x98, 0x96, 0x01, 0x90, 0x9f, 0x00, 0x90, 0x9f, 0x00,
0xa0, 0x5f, 0x00, 0x80, 0x1f, 0x00, 0x00, 0x09, 0x00, 0x00, 0x06, 0x00, 0x00, 0x00, 0x00,
0x00, 0x00, 0x00, 0x00, 0x08, 0x00, 0x00, 0x33, 0x00, 0xc0, 0xc7, 0x00, 0xe0, 0x05, 0x00,
    0xf0, 0xfe, 0x01, 0x78, 0xdf, 0x01, 0xf8, 0xdf, 0x01, 0x3c, 0xdf, 0x01, 0x0c, 0xff, 0x01,
    0x04, 0xee, 0x01, 0x04, 0xc3, 0x01, 0xe4, 0xc3, 0x01, 0xe0, 0xc3, 0x00, 0xe0, 0xc7, 0x00,
0xe0, 0x67, 0x00, 0xa0, 0x33, 0x00, 0x20, 0x01, 0x00, 0xc0, 0x00, 0x00, 0x00, 0x00, 0x00,
0x00, 0x00, 0x00, 0x00, 0x18, 0x00, 0x00, 0x4f, 0x00, 0xc0, 0x9f, 0x00, 0xe0, 0x3f, 0x01,
    0xf0, 0x31, 0x02, 0xf0, 0xff, 0x00, 0x18, 0xfe, 0x05, 0x08, 0xbe, 0x07, 0x48, 0xbe, 0x03,
    0x20, 0xbf, 0x03, 0xf0, 0xe3, 0x03, 0xf0, 0xe1, 0x01, 0xf8, 0xe5, 0x01, 0xe8, 0xe3, 0x00,
0xc8, 0x71, 0x00, 0x70, 0x1c, 0x00, 0x00, 0x00, 0x00, 0x00, 0x00, 0x00, 0x00, 0x00, 0x00,
0x00, 0x00, 0x00, 0x00, 0x00, 0x00, 0x00, 0x00, 0x00, 0x80, 0x7f, 0x00, 0xe0, 0x7f, 0x01,
    0xf0, 0x7f, 0x01, 0x18, 0x46, 0x02, 0x08, 0x7c, 0x02, 0x00, 0x7e, 0x04, 0x30, 0xfe, 0x01,
    0xf8, 0x7f, 0x03, 0xfc, 0xbd, 0x03, 0xfa, 0xd0, 0x01, 0xf2, 0xf0, 0x01, 0xfc, 0xf8, 0x00,
0x00, 0x78, 0x00, 0x00, 0x3c, 0x00, 0x80, 0x0f, 0x00, 0x00, 0x00, 0x00, 0x00, 0x00, 0x00,
0x00, 0x00, 0x00, 0x00, 0x00, 0x00, 0x00, 0x00, 0x00, 0x80, 0x3f, 0x00, 0xe0, 0xff, 0x01,
    0x10, 0xfc, 0x03, 0x00, 0xe8, 0x01, 0xf8, 0x98, 0x05, 0x7c, 0xfc, 0x05, 0xfa, 0xff, 0x04,
    0xfa, 0xff, 0x04, 0x7c, 0xfc, 0x05, 0xf8, 0x98, 0x05, 0x00, 0xe8, 0x01, 0x10, 0xfc, 0x03,
0xe0, 0xff, 0x01, 0x80, 0x3f, 0x00, 0x00, 0x00, 0x00, 0x00, 0x00, 0x00, 0x00, 0x00, 0x00,
0x00, 0x00, 0x00, 0x00, 0x00, 0x00, 0x80, 0x0f, 0x00, 0x00, 0x3c, 0x00, 0x00, 0x78, 0x00,
    0xfc, 0xf8, 0x00, 0xf2, 0xf0, 0x01, 0xfa, 0xd0, 0x01, 0xfc, 0xbd, 0x03, 0xf8, 0x7f, 0x03,
    0x30, 0xfe, 0x01, 0x00, 0x7e, 0x04, 0x08, 0x7c, 0x02, 0x18, 0x46, 0x02, 0xf0, 0x7f, 0x01,
0xe0, 0x7f, 0x01, 0x80, 0x7f, 0x00, 0x00, 0x00, 0x00, 0x00, 0x00, 0x00, 0x00, 0x00, 0x00,
0x00, 0x00, 0x00, 0x00, 0x00, 0x00, 0x00, 0x00, 0x00, 0x70, 0x1c, 0x00, 0xc8, 0x71, 0x00,
    0xe8, 0xe3, 0x00, 0xf8, 0xe5, 0x01, 0xf0, 0xe1, 0x01, 0xf0, 0xe3, 0x03, 0x20, 0xbf, 0x03,
    0x48, 0xbe, 0x03, 0x08, 0xbe, 0x07, 0x18, 0xfe, 0x05, 0xf0, 0xff, 0x00, 0xf0, 0x31, 0x02,
0xe0, 0x3f, 0x01, 0xc0, 0x9f, 0x00, 0x00, 0x4f, 0x00, 0x00, 0x18, 0x00, 0x00, 0x00, 0x00,
0x00, 0x00, 0x00, 0xc0, 0x00, 0x00, 0x20, 0x01, 0x00, 0xa0, 0x33, 0x00, 0xe0, 0x67, 0x00,
    0xe0, 0xc7, 0x00, 0xe0, 0xc3, 0x00, 0xe4, 0xc3, 0x01, 0x04, 0xc3, 0x01, 0x04, 0xee, 0x01,
    0x0c, 0xff, 0x01, 0x3c, 0xdf, 0x01, 0xf8, 0xdf, 0x01, 0x78, 0xdf, 0x01, 0xf0, 0xfe, 0x01,
0xe0, 0x05, 0x00, 0xc0, 0xc7, 0x00, 0x00, 0x33, 0x00, 0x00, 0x08, 0x00, 0x00, 0x00, 0x00};
