#define ori_cruiser_width 20
#define ori_cruiser_height 320
static unsigned char ori_cruiser_bits[] = {
	0x00, 0x00, 0x00, 0x00, 0x00, 0x00, 0x00, 0x06, 0x00, 0x00, 0x09, 0x00, 0x00, 0x0f, 0x00,
	0x20, 0x4f, 0x00, 0x10, 0x86, 0x00, 0x10, 0x86, 0x00, 0x10, 0x8f, 0x00, 0x30, 0xcf, 0x00,
	0x30, 0xcf, 0x00, 0xb0, 0xdf, 0x00, 0xf0, 0xff, 0x00, 0xf0, 0xf0, 0x00, 0x70, 0xef, 0x00,
0x20, 0x40, 0x00, 0x20, 0x40, 0x00, 0x40, 0x20, 0x00, 0x00, 0x00, 0x00, 0x00, 0x00, 0x00,
0x00, 0x00, 0x00, 0x00, 0x00, 0x00, 0x00, 0x30, 0x00, 0x00, 0x48, 0x00, 0xc0, 0x5c, 0x00,
    0x60, 0x78, 0x00, 0x20, 0x18, 0x00, 0x30, 0x1e, 0x01, 0x30, 0x0e, 0x01, 0x30, 0x0f, 0x01,
    0xf0, 0x8f, 0x01, 0xf8, 0xcf, 0x00, 0x78, 0xde, 0x00, 0x88, 0xf9, 0x00, 0x10, 0x7e, 0x00,
0x10, 0x30, 0x00, 0x00, 0x10, 0x00, 0x00, 0x0c, 0x00, 0x00, 0x00, 0x00, 0x00, 0x00, 0x00,
0x00, 0x00, 0x00, 0x00, 0x00, 0x00, 0x00, 0x00, 0x00, 0x00, 0x06, 0x00, 0x80, 0x61, 0x00,
    0xc0, 0x90, 0x00, 0x60, 0xb0, 0x00, 0x70, 0x78, 0x00, 0x38, 0x1f, 0x00, 0xf8, 0x0f, 0x01,
    0xfc, 0x0f, 0x01, 0xa4, 0x8f, 0x00, 0x44, 0xc7, 0x00, 0x80, 0x76, 0x00, 0x00, 0x3f, 0x00,
0x00, 0x1e, 0x00, 0x00, 0x0e, 0x00, 0x80, 0x03, 0x00, 0x00, 0x00, 0x00, 0x00, 0x00, 0x00,
0x00, 0x00, 0x00, 0x00, 0x00, 0x00, 0x00, 0x00, 0x00, 0x00, 0x1e, 0x00, 0xc0, 0x03, 0x00,
    0xe0, 0xc1, 0x01, 0x70, 0x40, 0x02, 0xf8, 0xf0, 0x02, 0xe4, 0xff, 0x01, 0xa4, 0x9f, 0x00,
    0xa0, 0x1f, 0x00, 0x40, 0x07, 0x00, 0x40, 0x83, 0x00, 0x80, 0xc3, 0x00, 0x80, 0x7f, 0x00,
0xb0, 0x1f, 0x00, 0xc0, 0x01, 0x00, 0x00, 0x00, 0x00, 0x00, 0x00, 0x00, 0x00, 0x00, 0x00,
0x00, 0x00, 0x00, 0x00, 0x00, 0x00, 0x00, 0x00, 0x00, 0x00, 0x00, 0x00, 0xe0, 0x3f, 0x00,
    0xf8, 0x47, 0x00, 0xe4, 0x00, 0x00, 0xc0, 0x01, 0x00, 0xa0, 0xcf, 0x01, 0xa0, 0xff, 0x02,
    0xa0, 0xff, 0x02, 0xa0, 0xcf, 0x01, 0xc0, 0x01, 0x00, 0xe4, 0x00, 0x00, 0xf8, 0x47, 0x00,
0xe0, 0x3f, 0x00, 0x00, 0x00, 0x00, 0x00, 0x00, 0x00, 0x00, 0x00, 0x00, 0x00, 0x00, 0x00,
0x00, 0x00, 0x00, 0x00, 0x00, 0x00, 0x00, 0x00, 0x00, 0xc0, 0x01, 0x00, 0xb0, 0x1f, 0x00,
    0x80, 0x7f, 0x00, 0x80, 0xc3, 0x00, 0x40, 0x83, 0x00, 0x40, 0x07, 0x00, 0xa0, 0x1f, 0x00,
    0xa4, 0x9f, 0x00, 0xe4, 0xff, 0x01, 0xf8, 0xf0, 0x02, 0x70, 0x40, 0x02, 0xe0, 0xc1, 0x01,
0xc0, 0x03, 0x00, 0x00, 0x1e, 0x00, 0x00, 0x00, 0x00, 0x00, 0x00, 0x00, 0x00, 0x00, 0x00,
0x00, 0x00, 0x00, 0x00, 0x00, 0x00, 0x80, 0x03, 0x00, 0x00, 0x0e, 0x00, 0x00, 0x1e, 0x00,
    0x00, 0x3f, 0x00, 0x80, 0x76, 0x00, 0x44, 0xc7, 0x00, 0xa4, 0x8f, 0x00, 0xfc, 0x0f, 0x01,
    0xf8, 0x0f, 0x01, 0x38, 0x1f, 0x00, 0x70, 0x78, 0x00, 0x60, 0xb0, 0x00, 0xc0, 0x90, 0x00,
0x80, 0x61, 0x00, 0x00, 0x06, 0x00, 0x00, 0x00, 0x00, 0x00, 0x00, 0x00, 0x00, 0x00, 0x00,
0x00, 0x00, 0x00, 0x00, 0x00, 0x00, 0x00, 0x0c, 0x00, 0x00, 0x10, 0x00, 0x10, 0x30, 0x00,
    0x10, 0x7e, 0x00, 0x88, 0xf9, 0x00, 0x78, 0xde, 0x00, 0xf8, 0xcf, 0x00, 0xf0, 0x8f, 0x01,
    0x30, 0x0f, 0x01, 0x30, 0x0e, 0x01, 0x30, 0x1e, 0x01, 0x20, 0x18, 0x00, 0x60, 0x78, 0x00,
0xc0, 0x5c, 0x00, 0x00, 0x48, 0x00, 0x00, 0x30, 0x00, 0x00, 0x00, 0x00, 0x00, 0x00, 0x00,
0x00, 0x00, 0x00, 0x00, 0x00, 0x00, 0x40, 0x20, 0x00, 0x20, 0x40, 0x00, 0x20, 0x40, 0x00,
    0x70, 0xef, 0x00, 0xf0, 0xf0, 0x00, 0xf0, 0xff, 0x00, 0xb0, 0xdf, 0x00, 0x30, 0xcf, 0x00,
    0x30, 0xcf, 0x00, 0x10, 0x8f, 0x00, 0x10, 0x86, 0x00, 0x10, 0x86, 0x00, 0x20, 0x4f, 0x00,
0x00, 0x0f, 0x00, 0x00, 0x09, 0x00, 0x00, 0x06, 0x00, 0x00, 0x00, 0x00, 0x00, 0x00, 0x00,
0x00, 0x00, 0x00, 0x00, 0x00, 0x00, 0x00, 0x03, 0x00, 0x80, 0x00, 0x00, 0xc0, 0x80, 0x00,
    0xe0, 0x87, 0x00, 0xf0, 0x19, 0x01, 0xb0, 0xe7, 0x01, 0x30, 0xff, 0x01, 0x18, 0xff, 0x00,
    0x08, 0xcf, 0x00, 0x08, 0xc7, 0x00, 0x88, 0xc7, 0x00, 0x80, 0x41, 0x00, 0xe0, 0x61, 0x00,
0xa0, 0x33, 0x00, 0x20, 0x01, 0x00, 0xc0, 0x00, 0x00, 0x00, 0x00, 0x00, 0x00, 0x00, 0x00,
0x00, 0x00, 0x00, 0x00, 0x00, 0x00, 0x00, 0x1c, 0x00, 0x00, 0x07, 0x00, 0x80, 0x07, 0x00,
    0xc0, 0x0f, 0x00, 0xe0, 0x16, 0x00, 0x30, 0x2e, 0x02, 0x10, 0x5f, 0x02, 0x08, 0xff, 0x03,
    0x08, 0xff, 0x01, 0x80, 0xcf, 0x01, 0xe0, 0xe1, 0x00, 0xd0, 0x60, 0x00, 0x90, 0x30, 0x00,
0x60, 0x18, 0x00, 0x00, 0x06, 0x00, 0x00, 0x00, 0x00, 0x00, 0x00, 0x00, 0x00, 0x00, 0x00,
0x00, 0x00, 0x00, 0x00, 0x00, 0x00, 0x00, 0x00, 0x00, 0x00, 0x38, 0x00, 0x80, 0xdf, 0x00,
    0xe0, 0x1f, 0x00, 0x30, 0x1c, 0x00, 0x10, 0x2c, 0x00, 0x00, 0x2e, 0x00, 0x80, 0x5f, 0x00,
    0x90, 0x5f, 0x02, 0xf8, 0x7f, 0x02, 0xf4, 0xf0, 0x01, 0x24, 0xe0, 0x00, 0x38, 0x78, 0x00,
0x00, 0x3c, 0x00, 0x80, 0x07, 0x00, 0x00, 0x00, 0x00, 0x00, 0x00, 0x00, 0x00, 0x00, 0x00,
0x00, 0x00, 0x00, 0x00, 0x00, 0x00, 0x00, 0x00, 0x00, 0x00, 0x00, 0x00, 0xc0, 0x7f, 0x00,
    0x20, 0xfe, 0x01, 0x00, 0x70, 0x02, 0x00, 0x38, 0x00, 0x38, 0x5f, 0x00, 0xf4, 0x5f, 0x00,
    0xf4, 0x5f, 0x00, 0x38, 0x5f, 0x00, 0x00, 0x38, 0x00, 0x00, 0x70, 0x02, 0x20, 0xfe, 0x01,
0xc0, 0x7f, 0x00, 0x00, 0x00, 0x00, 0x00, 0x00, 0x00, 0x00, 0x00, 0x00, 0x00, 0x00, 0x00,
0x00, 0x00, 0x00, 0x00, 0x00, 0x00, 0x00, 0x00, 0x00, 0x80, 0x07, 0x00, 0x00, 0x3c, 0x00,
    0x38, 0x78, 0x00, 0x24, 0xe0, 0x00, 0xf4, 0xf0, 0x01, 0xf8, 0x7f, 0x02, 0x90, 0x5f, 0x02,
    0x80, 0x5f, 0x00, 0x00, 0x2e, 0x00, 0x10, 0x2c, 0x00, 0x30, 0x1c, 0x00, 0xe0, 0x1f, 0x00,
0x80, 0xdf, 0x00, 0x00, 0x38, 0x00, 0x00, 0x00, 0x00, 0x00, 0x00, 0x00, 0x00, 0x00, 0x00,
0x00, 0x00, 0x00, 0x00, 0x00, 0x00, 0x00, 0x00, 0x00, 0x00, 0x06, 0x00, 0x60, 0x18, 0x00,
    0x90, 0x30, 0x00, 0xd0, 0x60, 0x00, 0xe0, 0xe1, 0x00, 0x80, 0xcf, 0x01, 0x08, 0xff, 0x01,
    0x08, 0xff, 0x03, 0x10, 0x5f, 0x02, 0x30, 0x2e, 0x02, 0xe0, 0x16, 0x00, 0xc0, 0x0f, 0x00,
0x80, 0x07, 0x00, 0x00, 0x07, 0x00, 0x00, 0x1c, 0x00, 0x00, 0x00, 0x00, 0x00, 0x00, 0x00,
0x00, 0x00, 0x00, 0x00, 0x00, 0x00, 0xc0, 0x00, 0x00, 0x20, 0x01, 0x00, 0xa0, 0x33, 0x00,
    0xe0, 0x61, 0x00, 0x80, 0x41, 0x00, 0x88, 0xc7, 0x00, 0x08, 0xc7, 0x00, 0x08, 0xcf, 0x00,
    0x18, 0xff, 0x00, 0x30, 0xff, 0x01, 0xb0, 0xe7, 0x01, 0xf0, 0x19, 0x01, 0xe0, 0x87, 0x00,
0xc0, 0x80, 0x00, 0x80, 0x00, 0x00, 0x00, 0x03, 0x00, 0x00, 0x00, 0x00, 0x00, 0x00, 0x00};
