#define ori_lightcruiser_width 20
#define ori_lightcruiser_height 320
static unsigned char ori_lightcruiser_bits[] = {
	0x00, 0x00, 0x00, 0x00, 0x00, 0x00, 0x00, 0x00, 0x00, 0x00, 0x06, 0x00,
	0x00, 0x0f, 0x00, 0x10, 0x8f, 0x00, 0x10, 0x8f, 0x00, 0x10, 0x86, 0x00,
	0x10, 0x86, 0x00, 0x18, 0x86, 0x01, 0x18, 0x8f, 0x01, 0xf8, 0xf9, 0x01,
	0xf8, 0xff, 0x01, 0x90, 0x9f, 0x00, 0x10, 0x8f, 0x00, 0x10, 0x86, 0x00,
0x20, 0x46, 0x00, 0x00, 0x06, 0x00, 0x00, 0x00, 0x00, 0x00, 0x00, 0x00,
0x00, 0x00, 0x00, 0x00, 0x00, 0x00, 0x00, 0x00, 0x00, 0x40, 0x10, 0x00,
    0x40, 0x38, 0x00, 0x20, 0x3c, 0x00, 0x20, 0x3c, 0x00, 0x38, 0x1c, 0x01,
    0x18, 0x0c, 0x01, 0x38, 0x07, 0x01, 0xf8, 0x87, 0x00, 0xc8, 0x8d, 0x00,
    0xcc, 0xdf, 0x01, 0xc8, 0xff, 0x00, 0x88, 0xe7, 0x00, 0x80, 0x21, 0x00,
0xc0, 0x20, 0x00, 0x80, 0x18, 0x00, 0x00, 0x00, 0x00, 0x00, 0x00, 0x00,
0x00, 0x00, 0x00, 0x00, 0x00, 0x00, 0x00, 0x02, 0x00, 0x00, 0x01, 0x00,
    0x80, 0x00, 0x00, 0x60, 0x70, 0x00, 0x30, 0x78, 0x00, 0x38, 0x78, 0x00,
    0x78, 0x3c, 0x00, 0xe4, 0x0f, 0x00, 0xe0, 0x06, 0x02, 0xc4, 0x05, 0x01,
    0xe0, 0x87, 0x00, 0xe0, 0x4f, 0x00, 0xf0, 0x7e, 0x00, 0x30, 0x38, 0x00,
0x00, 0x18, 0x00, 0x00, 0x05, 0x00, 0x00, 0x00, 0x00, 0x00, 0x00, 0x00,
0x00, 0x00, 0x00, 0x00, 0x00, 0x00, 0x00, 0x00, 0x00, 0x80, 0x1c, 0x00,
    0xe0, 0x03, 0x00, 0xe0, 0x00, 0x00, 0x78, 0xe0, 0x00, 0xc4, 0xf0, 0x01,
    0xc4, 0xf9, 0x00, 0xe0, 0x7f, 0x00, 0xe0, 0x06, 0x00, 0xf0, 0x07, 0x00,
    0xfc, 0x03, 0x00, 0xc8, 0x83, 0x01, 0x00, 0x76, 0x00, 0x00, 0x1e, 0x00,
0xe0, 0x1f, 0x00, 0x80, 0x00, 0x00, 0x00, 0x00, 0x00, 0x00, 0x00, 0x00,
0x00, 0x00, 0x00, 0x00, 0x00, 0x00, 0x00, 0x00, 0x00, 0x80, 0x07, 0x00,
    0xf0, 0x7f, 0x00, 0x88, 0x01, 0x00, 0x80, 0x01, 0x00, 0xc0, 0x01, 0x00,
    0xe0, 0xe3, 0x00, 0xfc, 0xfe, 0x01, 0xfc, 0xfe, 0x01, 0xe0, 0xe3, 0x00,
    0xc0, 0x01, 0x00, 0x80, 0x01, 0x00, 0x88, 0x01, 0x00, 0xf0, 0x7f, 0x00,
0x80, 0x07, 0x00, 0x00, 0x00, 0x00, 0x00, 0x00, 0x00, 0x00, 0x00, 0x00,
0x00, 0x00, 0x00, 0x00, 0x00, 0x00, 0x80, 0x00, 0x00, 0xe0, 0x1f, 0x00,
    0x00, 0x1e, 0x00, 0x00, 0x76, 0x00, 0xc8, 0x83, 0x01, 0xfc, 0x03, 0x00,
    0xf0, 0x07, 0x00, 0xe0, 0x06, 0x00, 0xe0, 0x7f, 0x00, 0xc4, 0xf9, 0x00,
    0xc4, 0xf0, 0x01, 0x78, 0xe0, 0x00, 0xe0, 0x00, 0x00, 0xe0, 0x03, 0x00,
0x80, 0x1c, 0x00, 0x00, 0x00, 0x00, 0x00, 0x00, 0x00, 0x00, 0x00, 0x00,
0x00, 0x00, 0x00, 0x00, 0x00, 0x00, 0x00, 0x05, 0x00, 0x00, 0x18, 0x00,
    0x30, 0x38, 0x00, 0xf0, 0x7e, 0x00, 0xe0, 0x4f, 0x00, 0xe0, 0x87, 0x00,
    0xc4, 0x05, 0x01, 0xe0, 0x06, 0x02, 0xe4, 0x0f, 0x00, 0x78, 0x3c, 0x00,
    0x38, 0x78, 0x00, 0x30, 0x78, 0x00, 0x60, 0x70, 0x00, 0x80, 0x00, 0x00,
0x00, 0x01, 0x00, 0x00, 0x02, 0x00, 0x00, 0x00, 0x00, 0x00, 0x00, 0x00,
0x00, 0x00, 0x00, 0x00, 0x00, 0x00, 0x80, 0x18, 0x00, 0xc0, 0x20, 0x00,
    0x80, 0x21, 0x00, 0x88, 0xe7, 0x00, 0xc8, 0xff, 0x00, 0xcc, 0xdf, 0x01,
    0xc8, 0x8d, 0x00, 0xf8, 0x87, 0x00, 0x38, 0x07, 0x01, 0x18, 0x0c, 0x01,
    0x38, 0x1c, 0x01, 0x20, 0x3c, 0x00, 0x20, 0x3c, 0x00, 0x40, 0x38, 0x00,
0x40, 0x10, 0x00, 0x00, 0x00, 0x00, 0x00, 0x00, 0x00, 0x00, 0x00, 0x00,
0x00, 0x00, 0x00, 0x00, 0x00, 0x00, 0x00, 0x06, 0x00, 0x20, 0x46, 0x00,
    0x10, 0x86, 0x00, 0x10, 0x8f, 0x00, 0x90, 0x9f, 0x00, 0xf8, 0xff, 0x01,
    0xf8, 0xf9, 0x01, 0x18, 0x8f, 0x01, 0x18, 0x86, 0x01, 0x10, 0x86, 0x00,
    0x10, 0x86, 0x00, 0x10, 0x8f, 0x00, 0x10, 0x8f, 0x00, 0x00, 0x0f, 0x00,
0x00, 0x06, 0x00, 0x00, 0x00, 0x00, 0x00, 0x00, 0x00, 0x00, 0x00, 0x00,
0x00, 0x00, 0x00, 0x00, 0x00, 0x00, 0x80, 0x11, 0x00, 0x40, 0x30, 0x00,
    0x40, 0x18, 0x00, 0x70, 0x1e, 0x01, 0xf0, 0x3f, 0x01, 0xb8, 0x3f, 0x03,
    0x10, 0x3b, 0x01, 0x10, 0xfe, 0x01, 0x08, 0xce, 0x01, 0x08, 0x83, 0x01,
    0x88, 0xc3, 0x01, 0xc0, 0x43, 0x00, 0xc0, 0x43, 0x00, 0xc0, 0x21, 0x00,
0x80, 0x20, 0x00, 0x00, 0x00, 0x00, 0x00, 0x00, 0x00, 0x00, 0x00, 0x00,
0x00, 0x00, 0x00, 0x00, 0x00, 0x00, 0x00, 0x0a, 0x00, 0x80, 0x01, 0x00,
    0xc0, 0xc1, 0x00, 0xe0, 0xf7, 0x00, 0x20, 0x7f, 0x00, 0x10, 0x7e, 0x00,
    0x08, 0x3a, 0x02, 0x04, 0x76, 0x00, 0x00, 0x7f, 0x02, 0xc0, 0xe3, 0x01,
    0xe0, 0xc1, 0x01, 0xe0, 0xc1, 0x00, 0xe0, 0x60, 0x00, 0x00, 0x10, 0x00,
0x00, 0x08, 0x00, 0x00, 0x04, 0x00, 0x00, 0x00, 0x00, 0x00, 0x00, 0x00,
0x00, 0x00, 0x00, 0x00, 0x00, 0x00, 0x00, 0x10, 0x00, 0x80, 0x7f, 0x00,
    0x80, 0x07, 0x00, 0xe0, 0x06, 0x00, 0x18, 0x3c, 0x01, 0x00, 0xfc, 0x03,
    0x00, 0xfe, 0x00, 0x00, 0x76, 0x00, 0xe0, 0x7f, 0x00, 0xf0, 0x39, 0x02,
    0xf8, 0x30, 0x02, 0x70, 0xe0, 0x01, 0x00, 0x70, 0x00, 0x00, 0x7c, 0x00,
0x80, 0x13, 0x00, 0x00, 0x00, 0x00, 0x00, 0x00, 0x00, 0x00, 0x00, 0x00,
0x00, 0x00, 0x00, 0x00, 0x00, 0x00, 0x00, 0x00, 0x00, 0x00, 0x1e, 0x00,
    0xe0, 0xff, 0x00, 0x00, 0x18, 0x01, 0x00, 0x18, 0x00, 0x00, 0x38, 0x00,
    0x70, 0x7c, 0x00, 0xf8, 0xf7, 0x03, 0xf8, 0xf7, 0x03, 0x70, 0x7c, 0x00,
    0x00, 0x38, 0x00, 0x00, 0x18, 0x00, 0x00, 0x18, 0x01, 0xe0, 0xff, 0x00,
0x00, 0x1e, 0x00, 0x00, 0x00, 0x00, 0x00, 0x00, 0x00, 0x00, 0x00, 0x00,
0x00, 0x00, 0x00, 0x00, 0x00, 0x00, 0x00, 0x00, 0x00, 0x80, 0x13, 0x00,
    0x00, 0x7c, 0x00, 0x00, 0x70, 0x00, 0x70, 0xe0, 0x01, 0xf8, 0x30, 0x02,
    0xf0, 0x39, 0x02, 0xe0, 0x7f, 0x00, 0x00, 0x76, 0x00, 0x00, 0xfe, 0x00,
    0x00, 0xfc, 0x03, 0x18, 0x3c, 0x01, 0xe0, 0x06, 0x00, 0x80, 0x07, 0x00,
0x80, 0x7f, 0x00, 0x00, 0x10, 0x00, 0x00, 0x00, 0x00, 0x00, 0x00, 0x00,
0x00, 0x00, 0x00, 0x00, 0x00, 0x00, 0x00, 0x04, 0x00, 0x00, 0x08, 0x00,
    0x00, 0x10, 0x00, 0xe0, 0x60, 0x00, 0xe0, 0xc1, 0x00, 0xe0, 0xc1, 0x01,
    0xc0, 0xe3, 0x01, 0x00, 0x7f, 0x02, 0x04, 0x76, 0x00, 0x08, 0x3a, 0x02,
    0x10, 0x7e, 0x00, 0x20, 0x7f, 0x00, 0xe0, 0xf7, 0x00, 0xc0, 0xc1, 0x00,
0x80, 0x01, 0x00, 0x00, 0x0a, 0x00, 0x00, 0x00, 0x00, 0x00, 0x00, 0x00,
0x00, 0x00, 0x00, 0x00, 0x00, 0x00, 0x00, 0x00, 0x00, 0x80, 0x20, 0x00,
    0xc0, 0x21, 0x00, 0xc0, 0x43, 0x00, 0xc0, 0x43, 0x00, 0x88, 0xc3, 0x01,
    0x08, 0x83, 0x01, 0x08, 0xce, 0x01, 0x10, 0xfe, 0x01, 0x10, 0x3b, 0x01,
    0xb8, 0x3f, 0x03, 0xf0, 0x3f, 0x01, 0x70, 0x1e, 0x01, 0x40, 0x18, 0x00,
0x40, 0x30, 0x00, 0x80, 0x11, 0x00, 0x00, 0x00, 0x00, 0x00, 0x00, 0x00};
