/* XPM */
static char * C10_xpm[] = {
"20 320 7 1",
" 	c None",
".	c #9A9AAF",
"X	c #8D8DA0",
"o	c #C6C6E0",
"O	c #A9A9C0",
"+	c #FFFF00",
"@	c #FF0000",
"                    ",
"                    ",
"         ..         ",
"        XooX        ",
"    .   OooO   .    ",
"    O   .OO.   O    ",
"    o    OO    o    ",
"    o    OO    o    ",
"   .o    OO    o.   ",
"   Oo   .oo.   oO   ",
"   +o.OOOooOOO.o+   ",
"   ++.OooooooO.++   ",
"    +  XOooOX  +    ",
"    o   @OO@   o    ",
"    O    OO    O    ",
"     .   ..   .     ",
"         XX         ",
"                    ",
"                    ",
"                    ",
"                    ",
"                    ",
"                    ",
"      X    .O       ",
"     XO   Ooo.      ",
"     o    oooX      ",
"    .X    OO.       ",
"   Oo     OX    .   ",
"   +O    OO     O   ",
"  ++o.O .oO    OX   ",
"  X+XOoOooo    o    ",
"  XO  XoooOX  .o    ",
"  .   XOooooO oO    ",
"  X   @OOOXXO.o+    ",
"      XOO@  X++     ",
"      ...    o+     ",
"      XX    OO      ",
"           .        ",
"                    ",
"                    ",
"                    ",
"                    ",
"         .          ",
"        O           ",
"       o      .     ",
"     Oo     OoO.    ",
"    +o     .Ooo     ",
"   ++..    OOOO     ",
"   + .OO  OOO.      ",
"  O   oOOoOO        ",
"  .  XXoooo      .  ",
"      OoooO     O   ",
"     @OoooOO   o    ",
"     OOOOXoO. o     ",
"    X.O@ X ..oO     ",
"     X      ++      ",
"           ++       ",
"         .O         ",
"                    ",
"                    ",
"                    ",
"                    ",
"                    ",
"          XO.       ",
"      +OooO         ",
"    ++ooO           ",
"   Oo+.X      X.    ",
"   O  OO     .oo.   ",
"  .   XoO   OOoo.   ",
"      XoOoOOOOoO    ",
"     @OooooO        ",
"    .OOooo.         ",
"   X.OOOoO          ",
"   X.X@XXo.    O.   ",
"         OO  .o.    ",
"         XoOo.      ",
"        O+++O       ",
"      XOXX+         ",
"                    ",
"                    ",
"                    ",
"                    ",
"                    ",
"        ++O.        ",
"     Oo++oooooO.    ",
"    .   ..          ",
"        OO          ",
"       XoO          ",
"      @OoO.   .OX   ",
"   X.OOooooOOOOoo.  ",
"   X.OOooooOOOOoo.  ",
"      @OoO.   .OX   ",
"       XoO          ",
"        OO          ",
"    .   ..          ",
"     Oo++oooooO.    ",
"        ++O.        ",
"                    ",
"                    ",
"                    ",
"                    ",
"                    ",
"      X.XX+         ",
"        O+++O       ",
"         XoOo.      ",
"         O.  XOX    ",
"   X.X@XXoO    OX   ",
"   X.OOOoO          ",
"    .OOooo.         ",
"     @OooooO        ",
"      XoOoOOOOoO    ",
"  .   XoX   XOoo.   ",
"   O XOO     .ooO   ",
"   Oo+.       X.    ",
"    ++oo.           ",
"      +OooO         ",
"          XOX       ",
"                    ",
"                    ",
"                    ",
"                    ",
"                    ",
"         .O         ",
"           ++       ",
"     X      ++      ",
"    X.O@ X ..oO     ",
"     OOOOXoO. o     ",
"     @OoooOO   o    ",
"      OoooO     O   ",
"  .  XXoooo      .  ",
"  O   oOOoOO        ",
"   + .OO  OOO.      ",
"   ++..    OOOO     ",
"    +o     .Ooo     ",
"     Oo     OoO.    ",
"       o      .     ",
"        O           ",
"         .          ",
"                    ",
"                    ",
"                    ",
"                    ",
"           .        ",
"      XX    OO      ",
"      ...    o+     ",
"      XOO@   ++     ",
"  X   @OOOXXO.o+    ",
"  O   XOooooOXoO    ",
"  XO  XoooOO  Oo    ",
"  X+XOoOooo    o    ",
"  ++oO. .oO    OX   ",
"   +O    OO     O   ",
"   Oo     OO    .   ",
"    ..    OO.       ",
"     o    oooX      ",
"     .O   Oo..      ",
"      .    ..       ",
"                    ",
"                    ",
"                    ",
"                    ",
"                    ",
"                    ",
"         XX         ",
"     .   ..   .     ",
"    O    OO    .    ",
"    o   @OO@   O    ",
"    +  XOooOX  +    ",
"   ++.OooooooO.++   ",
"   +o.OOOooOOO.o+   ",
"   Oo   .oo.   oO   ",
"   .o    OO    o.   ",
"    o    OO    o    ",
"    o    OO    o    ",
"    O   .OO.   O    ",
"    .   OooO   .    ",
"        XooX        ",
"         ..         ",
"                    ",
"                    ",
"                    ",
"                    ",
"        .           ",
"      OO    XX      ",
"     +o    ...      ",
"     ++X  @OOX      ",
"    +o.OXXOOO@   X  ",
"    Oo OooooOX   .  ",
"    o.  XOoooX  OX  ",
"    o    oooOoOX+X  ",
"   XO    Oo. O.o++  ",
"   O     OO    O+   ",
"   X    XO     oO   ",
"       .OO    X.    ",
"      Xooo    O     ",
"      .ooO   O.     ",
"       O.    X      ",
"                    ",
"                    ",
"                    ",
"                    ",
"                    ",
"         O.         ",
"       ++           ",
"      ++      X     ",
"     Oo.. X @O.X    ",
"     o .OoXOOOO     ",
"    o   OOoooO@     ",
"   O     OoooO      ",
"  .      ooooXX  .  ",
"        OOoOOo   O  ",
"      .OOO  OO. +   ",
"     OOOO    ..++   ",
"     ooO.     o+    ",
"    .OoO     oO     ",
"     .      o       ",
"           O        ",
"          .         ",
"                    ",
"                    ",
"                    ",
"                    ",
"         +XXOX      ",
"       O+++O        ",
"      .oOoX         ",
"    .o.  OO         ",
"   .O    .oXX@X.X   ",
"          OoOOO.X   ",
"         .oooOO.    ",
"        OooooO@     ",
"    OoOOOOoOoX      ",
"   .ooOO   OoX   .  ",
"   ..o.     OO  O   ",
"    .X      X.+oO   ",
"           Ooo++    ",
"         OooO+      ",
"       .OX          ",
"                    ",
"                    ",
"                    ",
"                    ",
"                    ",
"                    ",
"        .O++        ",
"    .Oooooo++oO     ",
"          ..   .    ",
"          OO        ",
"          OoX       ",
"   XO.   .OoO@      ",
"  .ooOOOOooooOO.X   ",
"  .ooOOOOooooOO.X   ",
"   XO.   .OoO@      ",
"          OoX       ",
"          OO        ",
"          ..   .    ",
"    .Oooooo++O.     ",
"        .O++        ",
"                    ",
"                    ",
"                    ",
"                    ",
"                    ",
"                    ",
"       XOX          ",
"         OooO+      ",
"           .oo++    ",
"    .X       .+o.   ",
"   Ooo.     OOX O   ",
"   .ooOX   XoX   .  ",
"    OoOOOOoOoX      ",
"        OooooO@     ",
"         .oooOO.    ",
"          OoOOO.X   ",
"   XO    OoXX@X.X   ",
"    .OX  .O         ",
"      .oOoX         ",
"       O+++O        ",
"         +XX.X      ",
"                    ",
"                    ",
"                    ",
"                    ",
"          .         ",
"           O        ",
"     .      o       ",
"    .OoO     oO     ",
"     ooO.     o+    ",
"     OOOO    ..++   ",
"      .OOO  OO. +   ",
"        OOoOOo   O  ",
"  .      ooooXX  .  ",
"   O     OoooO      ",
"    o   OOoooO@     ",
"     o .OoXOOOO     ",
"     Oo.. X @O.X    ",
"      ++      X     ",
"       ++           ",
"         O.         ",
"                    ",
"                    ",
"                    ",
"                    ",
"                    ",
"       ..    .      ",
"      ..oO   O.     ",
"      Xooo    o     ",
"       .OO    ..    ",
"   .    OO     oO   ",
"   O     OO    O+   ",
"   XO    Oo. .Oo++  ",
"    o    oooOoOX+X  ",
"    oO  OOoooX  OX  ",
"    OoXOooooOX   O  ",
"    +o.OXXOOO@   X  ",
"     ++   @OOX      ",
"     +o    ...      ",
"      OO    XX      ",
"        .           ",
"                    ",
"                    "};
