/* XPM */
static char * C11_xpm[] = {
"20 320 8 1",
" 	c None",
".	c #8D8DA0",
"X	c #9A9AAF",
"o	c #A9A9C0",
"O	c #C6C6E0",
"+	c #FFFF00",
"@	c #FF0000",
"#	c #B00000",
"        .  .        ",
"       .X  X.       ",
"       Xo  oX       ",
"       .oooo.       ",
"   .    XOOX    .   ",
"  .o  .XoOOoX.  o.  ",
"  oo  XoOOOOoX  oo  ",
"  +o  .oOooOo.  o+  ",
"  +o.  oOooOo  .o+  ",
"  ++oXooOXXOooXo++  ",
"   +oXXoO..OoXXo+   ",
"   +oXXooOOooXXo+   ",
"        XOOX        ",
"     X ooOOoo X     ",
"    .oXoOOOOoXo.    ",
"    ooXooOOooXoo    ",
"    Xoo oOOo ooX    ",
"    .@@ oooo @@.    ",
"     ## X@@X ##     ",
"         ##         ",
"           ..       ",
"          ..  .     ",
"         .XX  ..    ",
"    .o   .o. oX.    ",
"   oo     XoooX     ",
"   +o  XXoOOOo.     ",
"  ++o  .oOOOo       ",
"  +oo. ooOOOOX.     ",
"  +ooXooOooOooX  .  ",
"  +oXXXoOXooo.   o. ",
"    XXoO..XOo   oo. ",
"       oO.OooXoXo+  ",
"  .o ..XOOooXXoo+   ",
"  ooXooOOX  XXo++   ",
" XooXoOOOo.   ++    ",
" .@o oOOOOo X       ",
"  #@ oOOooXo..      ",
"     oooo ooo       ",
"     @@X @ooX       ",
"     ##  #@.        ",
"                    ",
"                    ",
"      o.o    X..    ",
"     ++o    XXX     ",
"     +o   . .o   .  ",
"    ++.  XXXXo  X.  ",
"    +oX  oooOOooXX  ",
"    oXXoooOOOOX.X   ",
"     XXooOooOoX     ",
"  .X  ooOXooOoX.    ",
" ooo   o..XOooX     ",
".ooXooXOO.Ooo    o  ",
"@@oooOOOOoooo   o.  ",
"#@  oOOOX oXXX.o+o  ",
"   oOOOOo  XXo+++   ",
"  XooOooo   o++     ",
"  @@oo oXoX         ",
"  #@X  ooo.         ",
"      @@oo          ",
"      #@.           ",
"                    ",
"         .          ",
"        +oo.        ",
"      ++oo          ",
"     ++o.       ..  ",
"     +ooo  X. .XX.. ",
"   .  XXX .oX ooo   ",
" Xo.X XXooooOoOo   .",
".ooo   ooOOOOOOo.X..",
"@ooXoX oOXooOOOXoX. ",
"#@ oOoXO..XoOOo ..  ",
"  ooOOOOO.OOooX     ",
" XoOOOOXoOooo.X     ",
"#@oOOOoX oXo        ",
"#@ooooo. XXX.   o   ",
"     XX  Xoooooo.   ",
"   @oooo  ooo++o    ",
"   #@oo.  ++++      ",
"    .X              ",
"                    ",
"                    ",
"                    ",
"          +++o.     ",
"        +++oooo.    ",
"  .Xo.  ooo.        ",
" #@oooX XXX         ",
" #@oXX  XXo .X.     ",
"    ooo ooooooX .X. ",
" XoooOoXoOOOOOoXooX.",
"#@oOOOOOO.XooOOOo   ",
"#@oOOOOOO.XooOOOo   ",
" XoooOoXoOOOOOoXooX.",
"    ooo ooooooX .X. ",
" #@oXX  XXo .X.     ",
" #@oooX XXX         ",
"  .Xo.  ooo.        ",
"        +++ooo.     ",
"          +++.      ",
"                    ",
"                    ",
"                    ",
"    .X              ",
"   #@oo.  ++++      ",
"   @oooo  ooo++     ",
"     XX  XXooooo    ",
"#@ooooo. XXX.  o.   ",
"#@oOOOo. oXo        ",
" XoOOOOXoOooo.X     ",
"  ooOOOOO.OOooX     ",
"#@ oOoXO..XoOOo ..  ",
"@ooXo. oOXooOOOXoX. ",
".ooo   ooOoOOOOo.X..",
" Xo.X XXooooOoOo   .",
"   .  XXX .oX ooo   ",
"     +ooo  X. .XX.. ",
"     ++oX       ..  ",
"      ++oo          ",
"        +oo.        ",
"         .          ",
"                    ",
"      #@.           ",
"      @@oo          ",
"  #@X  ooo.         ",
"  @@oo oXoX         ",
"  XooOooo   o++     ",
"   oOOOOo  XXo+++   ",
"#@  oOOOX oXXX.o+o  ",
"@@oooOOOOoooo   o.  ",
".ooXooXOO.Ooo    o  ",
" ooo   o..XOooX     ",
"  .X  ooOXooOoX.    ",
"     XXooOooOoX     ",
"    oXXoooOOOOX.X   ",
"    +oX  oooOOooXX  ",
"    ++.  XXXXo  X.  ",
"     +o   . oo   .  ",
"     ++o    XXX     ",
"      o.o    X..    ",
"                    ",
"                    ",
"     ##  #@.        ",
"     @@X @ooX       ",
"     oooo ooo       ",
"  #@ oOOooXo..      ",
" .@o oOOOOo X       ",
" XooXoOOOoX   ++    ",
"  ooXooOOX  XXo++   ",
"  .o .XXOOooXXoo+   ",
"       oO.OooXo.o+  ",
"    XXoO..XOo   oo  ",
"  +ooXXoOXoOo.   o. ",
"  +ooXooOooOooX  .  ",
"  +oo. ooOOOOX.     ",
"  ++o  .oOOOo       ",
"   +o  XXoOOOo.     ",
"   oo     XoooX     ",
"    .o   .o. oo.    ",
"         .XX  X.    ",
"          ..  .     ",
"           ..       ",
"         ##         ",
"     ## X@@X ##     ",
"    .@@ oooo @@.    ",
"    Xoo oOOo oo.    ",
"    ooXooOOooXoX    ",
"    .oXoOOOOoXoo    ",
"     X ooOOoo X     ",
"        XOOX        ",
"   +oXXooOOooXXo+   ",
"   +oXXoO..OoXXo+   ",
"  ++oXooOXXOooXo++  ",
"  +o.  oOooOo  .o+  ",
"  +o  .oOooOo.  o+  ",
"  .o  XoOOOOoX  oo  ",
"   .  .XoOOoX.  o.  ",
"        XOOX    .   ",
"       .oooo.       ",
"       Xo  oX       ",
"       .X  X.       ",
"        .  .        ",
"        .@#  ##     ",
"       Xoo@ X@@     ",
"       ooo oooo     ",
"      ..oXooOOo     ",
"       X oOOOOo @#  ",
"    ++   .oOOOo o@. ",
"   ++oXX  XOOooXooX ",
"   +ooXXooOOX.. o.  ",
"  +oXoXooO.Oo       ",
" .oo   oOX..OoXX    ",
"  o   .oooXOoXXXo+  ",
"  .  XooOooOooXoo+  ",
"     .XOOOOoo .oo+  ",
"       oOOOo.  o++  ",
"     .oOOOoXX  o+   ",
"     XoooX    oo    ",
"    .Xo .o.   X     ",
"    ..  XX.         ",
"     .  ..          ",
"       ..           ",
"           .@#      ",
"          oo@@      ",
"         .ooo  X@#  ",
"         XoXo oX@@  ",
"     ++o   oooOooX  ",
"   +++oXX  oOOOOo   ",
"  o+o.XXXo XOOOo    ",
"  .o   ooooOOOOooo@#",
"  o    ooO.OOXooXo@@",
"     XooOX..o   ooo ",
"    .XoOooXOoo  X.  ",
"     XoOooOooXX     ",
"   XoXOOOOoooXXo    ",
"  XXooOOooo  Xo+    ",
"  .X  oXXXX  .++    ",
"  .   o. .   o+     ",
"     XXX    o+      ",
"    ..X    o.o      ",
"                    ",
"                    ",
"                    ",
"              X.    ",
"      ++++  .oo@#   ",
"    o++ooo  ooo@@   ",
"   .ooooooX  XX     ",
"   o   .XXX .ooooo@#",
"        oXo XoOOOo@#",
"     X.oooOoXOOOOoo ",
"     XooOO.OOOOOoo  ",
"  .. oOOoX..OXoOo @#",
" .XoXOOOooXOo XoXoo@",
"..X.oOOOOOOoo   ooo ",
".   oOoOooooXX X.oX ",
"   ooo Xo. XXX  .   ",
" .XoX. .X  ooo+     ",
"  ..       .o++     ",
"          oo++      ",
"        .oo+        ",
"         .          ",
"                    ",
"                    ",
"                    ",
"      .+++          ",
"     .ooo+++        ",
"        .ooo  .X..  ",
"         XXX Xooo@# ",
"     .X. oXX  Xoo@# ",
" .X. Xoooooo ooo    ",
".XooXoOOOOOoXoOoooo ",
"   oOOOooX.OOOOOOo@#",
"   oOOOooX.OOOOOOo@#",
".XooXoOOOOOoXoOoooX ",
" .X. Xoooooo ooo    ",
"     .X. oXX  XXo@# ",
"         XXX Xooo@# ",
"        .ooo  oX..  ",
"    .oooo+++        ",
"     .o+++          ",
"                    ",
"                    ",
"                    ",
"          .         ",
"        .oo+        ",
"          oo++      ",
"  ..       Xo++     ",
" ..XX. .X  ooo+     ",
"   ooo Xo. XXX      ",
".   oOoOooooXX X.o  ",
"..X.oOOOOoOoo   ooX ",
" .XoXOOOooXOo .oXoo@",
"  .. oOOoX..OXoOo @#",
"     XooOO.OOOOOoo  ",
"     X.oooOoXOOOOoX ",
"        oXo .oOOOo@#",
"   Xo  .XXX .ooooo@#",
"    oooooXX  X      ",
"     ++ooo  ooo@    ",
"      ++++  .o@#    ",
"             X.     ",
"                    ",
"                    ",
"                    ",
"    ..X    o.o      ",
"     XXX    o++     ",
"  .   oo .   o+     ",
"  .X  oXXXX  .++    ",
"  XXooOOooo  Xo+    ",
"   X.XOOOOoooXXo    ",
"     XoOooOooXX     ",
"    .XoOooXOoo  X.  ",
"     XooOX..o   ooo ",
"  o    ooO.OOXooXoo ",
"  .o   ooooOOOOooo@@",
"  o+o.XXXo XOOOo  @#",
"   +++oXX  oOOOOo   ",
"     ++o   oooOoXX  ",
"         XoXo oX@@  ",
"         .ooo  X@#  ",
"          o@@       ",
"           @#       ",
"       ..           ",
"     .  ..          ",
"    .X  XX.         ",
"    .oo .o.   o.    ",
"     XoooX     oo   ",
"     .oOOOoXX  o+   ",
"       oOOOo.  oo+  ",
"     .XOOOOoo .oo+  ",
"  .  XooOooOooXoo+  ",
" .o   .oOoXOoXXoo+  ",
"  oo   oOX..OoXX    ",
"  +o.oXooO.Oo       ",
"   +ooXXooOOXX. o.  ",
"   ++oXX  XOOooXoo  ",
"    ++   XoOOOoXooX ",
"       X oOOOOo @@. ",
"      ..oXooOOo @#  ",
"       ooo oooo     ",
"       Xoo@ o@@     ",
"         @#  ##     "};
