#define ori_jumpship_width 20
#define ori_jumpship_height 20
static unsigned char ori_jumpship_bits[] = {
	0x00, 0x00, 0x00, 0x00, 0x00, 0x00, 0x30, 0x60, 0x00, 0x18, 0xc0, 0x00, 0x3c, 0xe7, 0x01,
	0x74, 0x70, 0x01, 0xe0, 0x38, 0x00, 0xc0, 0x1f, 0x00, 0x90, 0x4a, 0x00, 0x90, 0x4f, 0x00,
	0x90, 0x4a, 0x00, 0xc0, 0x1f, 0x00, 0xe0, 0x38, 0x00, 0x74, 0x70, 0x01, 0x3c, 0xe7, 0x01,
0x18, 0xc0, 0x00, 0x30, 0x60, 0x00, 0x00, 0x00, 0x00, 0x00, 0x00, 0x00, 0x00, 0x00, 0x00};
