/* XPM */
static char * C13_xpm[] = {
"20 320 7 1",
" 	c None",
".	c #9A9AAF",
"X	c #8D8DA0",
"o	c #A9A9C0",
"O	c #C6C6E0",
"+	c #FF0000",
"@	c #FFFF00",
"                    ",
"                    ",
"                    ",
"                    ",
"                    ",
"       .     .      ",
"       .  X  .      ",
"       o  o  o      ",
"       o oOo o      ",
"       . .O. .      ",
"       .  o  .      ",
"       .o o o.      ",
"       +o@o@o+      ",
"        +@ @+       ",
"         O O        ",
"                    ",
"                    ",
"                    ",
"                    ",
"                    ",
"                    ",
"                    ",
"                    ",
"                    ",
"         .          ",
"         X          ",
"        o   X  .    ",
"        o XoX  .    ",
"       X. .Oo o     ",
"       .  oOX o     ",
"       +o o  .      ",
"       +o@o o.      ",
"       X@ @ooX      ",
"        O @++       ",
"          O         ",
"                    ",
"                    ",
"                    ",
"                    ",
"                    ",
"                    ",
"                    ",
"                    ",
"                    ",
"                    ",
"           .        ",
"          .         ",
"         o          ",
"        .  .X       ",
"      X.  OO.  .    ",
"      +o  OO  .     ",
"      +@oo   o      ",
"      @..X  .       ",
"     XX..@o.        ",
"       X@++X        ",
"       X            ",
"                    ",
"                    ",
"                    ",
"                    ",
"                    ",
"                    ",
"                    ",
"                    ",
"                    ",
"           ..       ",
"         oo         ",
"      ...           ",
"      +o  XXX       ",
"     +oX oOOX       ",
"    X@@oooXX        ",
"       @X    o.     ",
"     O@ooo..o       ",
"       ++.          ",
"                    ",
"                    ",
"                    ",
"                    ",
"                    ",
"                    ",
"                    ",
"                    ",
"                    ",
"                    ",
"                    ",
"                    ",
"                    ",
"       +...oo..     ",
"      +oo           ",
"     O@@  .o        ",
"       oooOOoX      ",
"     O@@  .o        ",
"      +oo           ",
"       +...oo..     ",
"                    ",
"                    ",
"                    ",
"                    ",
"                    ",
"                    ",
"                    ",
"                    ",
"                    ",
"                    ",
"                    ",
"                    ",
"                    ",
"       X++.X        ",
"      O@oo .oo      ",
"        @     X.    ",
"     O@@ooo.X       ",
"      +o  OOo       ",
"      +oo XoXX      ",
"       X..          ",
"          oo        ",
"            ..      ",
"                    ",
"                    ",
"                    ",
"                    ",
"                    ",
"                    ",
"                    ",
"                    ",
"                    ",
"      X             ",
"      X@++X         ",
"    XX..@o.         ",
"     @..o  .        ",
"     +@Xo   o       ",
"     +o  OO  .      ",
"     X.  OO.  .     ",
"       .  .X        ",
"        o           ",
"         .          ",
"          .         ",
"                    ",
"                    ",
"                    ",
"                    ",
"                    ",
"                    ",
"                    ",
"                    ",
"         X          ",
"       O @+         ",
"       @ @o+.       ",
"      +o@oXo.       ",
"      +oXo  .       ",
"      .o oo  o      ",
"       . XOX o      ",
"       . XOX  .     ",
"       o  XX  .     ",
"        o           ",
"        .           ",
"                    ",
"                    ",
"                    ",
"                    ",
"                    ",
"                    ",
"                    ",
"                    ",
"                    ",
"                    ",
"        O O         ",
"       +@ @+        ",
"      +o@o@o+       ",
"      .o o o.       ",
"      .  o  .       ",
"      . .O. .       ",
"      o oOo o       ",
"      o  o  o       ",
"      .  X  .       ",
"      .     .       ",
"                    ",
"                    ",
"                    ",
"                    ",
"                    ",
"                    ",
"                    ",
"                    ",
"                    ",
"                    ",
"         O          ",
"       ++@ O        ",
"      Xoo@ @X       ",
"      .o o@o+       ",
"      .  o o+       ",
"     o XOo  .       ",
"     o oO. .X       ",
"    .  XoX o        ",
"    .  X   o        ",
"          X         ",
"          .         ",
"                    ",
"                    ",
"                    ",
"                    ",
"                    ",
"                    ",
"                    ",
"                    ",
"            X       ",
"        X++@X       ",
"        .o@..XX     ",
"       .  X..@      ",
"      o   oo@+      ",
"     .  OO  o+      ",
"    .  .OO  .X      ",
"       X.  .        ",
"          o         ",
"         .          ",
"        .           ",
"                    ",
"                    ",
"                    ",
"                    ",
"                    ",
"                    ",
"                    ",
"                    ",
"                    ",
"                    ",
"                    ",
"          .++       ",
"       o..ooo@O     ",
"     .o    X@       ",
"        XXooo@@X    ",
"       XOOo Xo+     ",
"       XXX  o+      ",
"           ...      ",
"         oo         ",
"       ..           ",
"                    ",
"                    ",
"                    ",
"                    ",
"                    ",
"                    ",
"                    ",
"                    ",
"                    ",
"                    ",
"                    ",
"     ..oo...+       ",
"           oo+      ",
"        o.  @@O     ",
"      XoOOooo       ",
"        o.  @@O     ",
"           oo+      ",
"     ..oo...+       ",
"                    ",
"                    ",
"                    ",
"                    ",
"                    ",
"                    ",
"                    ",
"                    ",
"                    ",
"                    ",
"                    ",
"      ..            ",
"        oo          ",
"          ..X       ",
"      XXoX oo+      ",
"       oOO  o+      ",
"       X.ooo@@O     ",
"    .X     @        ",
"      oo. oo@O      ",
"        X.++X       ",
"                    ",
"                    ",
"                    ",
"                    ",
"                    ",
"                    ",
"                    ",
"                    ",
"                    ",
"                    ",
"                    ",
"         .          ",
"          .         ",
"           o        ",
"        X.  .       ",
"     .  .OO  .X     ",
"      .  OO  o+     ",
"       o   oX@+     ",
"        .  o..@     ",
"         .o@..XX    ",
"         X++@X      ",
"             X      ",
"                    ",
"                    ",
"                    ",
"                    ",
"                    ",
"                    ",
"                    ",
"                    ",
"                    ",
"                    ",
"           .        ",
"           o        ",
"     .  XX  o       ",
"     .  XOX .       ",
"      o XOX .       ",
"      o  oo o.      ",
"       .  oXo+      ",
"       .oXo@o+      ",
"       .+o@ @       ",
"         +@ O       ",
"          X         ",
"                    ",
"                    ",
"                    ",
"                    "};
