#define ori_starbase_width 20
#define ori_starbase_height 20
static unsigned char ori_starbase_bits[] = {
	0x00, 0x00, 0x00, 0x00, 0x00, 0x00, 0x18, 0x80, 0x01, 0x1c, 0x80, 0x03, 0xbc, 0xd0, 0x03,
	0x70, 0xe0, 0x00, 0xf0, 0x79, 0x00, 0xc8, 0x3f, 0x00, 0xd4, 0x37, 0x00, 0x82, 0x1d, 0x00,
	0x80, 0x1b, 0x00, 0xc0, 0x3e, 0x01, 0xc0, 0xbf, 0x00, 0xe8, 0x79, 0x00, 0xf0, 0xe0, 0x00,
0x3c, 0xc1, 0x03, 0x1c, 0xa0, 0x03, 0x18, 0x80, 0x01, 0x00, 0x00, 0x00, 0x00, 0x00, 0x00};
