#define ori_scout_width 20
#define ori_scout_height 320
static unsigned char ori_scout_bits[] = {
	0x00, 0x00, 0x00, 0x00, 0x00, 0x00, 0x00, 0x00, 0x00, 0x00, 0x00, 0x00, 0x00, 0x02, 0x00,
	0x00, 0x02, 0x00, 0x00, 0x07, 0x00, 0x00, 0x07, 0x00, 0x20, 0x22, 0x00, 0x20, 0x22, 0x00,
	0x60, 0x32, 0x00, 0xe0, 0x3a, 0x00, 0xe0, 0x3f, 0x00, 0xc0, 0x1f, 0x00, 0xc0, 0x18, 0x00,
0x80, 0x08, 0x00, 0x00, 0x00, 0x00, 0x00, 0x00, 0x00, 0x00, 0x00, 0x00, 0x00, 0x00, 0x00,
0x00, 0x00, 0x00, 0x00, 0x00, 0x00, 0x00, 0x00, 0x00, 0x00, 0x00, 0x00, 0x00, 0x00, 0x00,
    0x00, 0x10, 0x00, 0x00, 0x1c, 0x00, 0x80, 0x1c, 0x00, 0x40, 0x14, 0x00, 0xc0, 0x04, 0x00,
    0xe0, 0x42, 0x00, 0xe0, 0x33, 0x00, 0xe0, 0x3f, 0x00, 0x20, 0x1f, 0x00, 0x00, 0x1c, 0x00,
0x00, 0x06, 0x00, 0x00, 0x00, 0x00, 0x00, 0x00, 0x00, 0x00, 0x00, 0x00, 0x00, 0x00, 0x00,
0x00, 0x00, 0x00, 0x00, 0x00, 0x00, 0x00, 0x00, 0x00, 0x00, 0x00, 0x00, 0x00, 0x00, 0x00,
    0x00, 0x01, 0x00, 0x80, 0x30, 0x00, 0xc0, 0x38, 0x00, 0xe0, 0x18, 0x00, 0xe0, 0x04, 0x00,
    0xe0, 0x02, 0x00, 0xe0, 0x41, 0x00, 0x80, 0x3f, 0x00, 0x00, 0x1f, 0x00, 0x00, 0x0f, 0x00,
0x00, 0x00, 0x00, 0x00, 0x00, 0x00, 0x00, 0x00, 0x00, 0x00, 0x00, 0x00, 0x00, 0x00, 0x00,
0x00, 0x00, 0x00, 0x00, 0x00, 0x00, 0x00, 0x00, 0x00, 0x00, 0x00, 0x00, 0x00, 0x00, 0x00,
    0x00, 0x02, 0x00, 0x80, 0x01, 0x00, 0xe0, 0x79, 0x00, 0xe0, 0x30, 0x00, 0xf0, 0x3c, 0x00,
    0xd0, 0x03, 0x00, 0xc0, 0x01, 0x00, 0x80, 0x17, 0x00, 0x80, 0x0f, 0x00, 0xc0, 0x03, 0x00,
0x00, 0x00, 0x00, 0x00, 0x00, 0x00, 0x00, 0x00, 0x00, 0x00, 0x00, 0x00, 0x00, 0x00, 0x00,
0x00, 0x00, 0x00, 0x00, 0x00, 0x00, 0x00, 0x00, 0x00, 0x00, 0x00, 0x00, 0x00, 0x00, 0x00,
    0x00, 0x00, 0x00, 0x80, 0x0f, 0x00, 0xe0, 0x03, 0x00, 0xf0, 0x01, 0x00, 0xc0, 0x30, 0x00,
    0xc0, 0xff, 0x00, 0xc0, 0x30, 0x00, 0xf0, 0x01, 0x00, 0xe0, 0x03, 0x00, 0x80, 0x0f, 0x00,
0x00, 0x00, 0x00, 0x00, 0x00, 0x00, 0x00, 0x00, 0x00, 0x00, 0x00, 0x00, 0x00, 0x00, 0x00,
0x00, 0x00, 0x00, 0x00, 0x00, 0x00, 0x00, 0x00, 0x00, 0x00, 0x00, 0x00, 0x00, 0x00, 0x00,
    0xc0, 0x03, 0x00, 0x80, 0x0f, 0x00, 0x80, 0x17, 0x00, 0xc0, 0x01, 0x00, 0xd0, 0x03, 0x00,
    0xf0, 0x3c, 0x00, 0xe0, 0x30, 0x00, 0xe0, 0x79, 0x00, 0x80, 0x01, 0x00, 0x00, 0x02, 0x00,
0x00, 0x00, 0x00, 0x00, 0x00, 0x00, 0x00, 0x00, 0x00, 0x00, 0x00, 0x00, 0x00, 0x00, 0x00,
0x00, 0x00, 0x00, 0x00, 0x00, 0x00, 0x00, 0x00, 0x00, 0x00, 0x00, 0x00, 0x00, 0x00, 0x00,
    0x00, 0x0f, 0x00, 0x00, 0x1f, 0x00, 0x80, 0x3f, 0x00, 0xe0, 0x41, 0x00, 0xe0, 0x02, 0x00,
    0xe0, 0x04, 0x00, 0xe0, 0x18, 0x00, 0xc0, 0x38, 0x00, 0x80, 0x30, 0x00, 0x00, 0x01, 0x00,
0x00, 0x00, 0x00, 0x00, 0x00, 0x00, 0x00, 0x00, 0x00, 0x00, 0x00, 0x00, 0x00, 0x00, 0x00,
0x00, 0x00, 0x00, 0x00, 0x00, 0x00, 0x00, 0x00, 0x00, 0x00, 0x00, 0x00, 0x00, 0x06, 0x00,
    0x00, 0x1c, 0x00, 0x20, 0x1f, 0x00, 0xe0, 0x3f, 0x00, 0xe0, 0x33, 0x00, 0xe0, 0x42, 0x00,
    0xc0, 0x04, 0x00, 0x40, 0x14, 0x00, 0x80, 0x1c, 0x00, 0x00, 0x1c, 0x00, 0x00, 0x10, 0x00,
0x00, 0x00, 0x00, 0x00, 0x00, 0x00, 0x00, 0x00, 0x00, 0x00, 0x00, 0x00, 0x00, 0x00, 0x00,
0x00, 0x00, 0x00, 0x00, 0x00, 0x00, 0x00, 0x00, 0x00, 0x00, 0x00, 0x00, 0x80, 0x08, 0x00,
    0xc0, 0x18, 0x00, 0xc0, 0x1f, 0x00, 0xe0, 0x3f, 0x00, 0xe0, 0x3a, 0x00, 0x60, 0x32, 0x00,
    0x20, 0x22, 0x00, 0x20, 0x22, 0x00, 0x00, 0x07, 0x00, 0x00, 0x07, 0x00, 0x00, 0x02, 0x00,
0x00, 0x02, 0x00, 0x00, 0x00, 0x00, 0x00, 0x00, 0x00, 0x00, 0x00, 0x00, 0x00, 0x00, 0x00,
0x00, 0x00, 0x00, 0x00, 0x00, 0x00, 0x00, 0x00, 0x00, 0x00, 0x00, 0x00, 0x00, 0x06, 0x00,
    0x80, 0x03, 0x00, 0x80, 0x4f, 0x00, 0xc0, 0x7f, 0x00, 0xc0, 0x7c, 0x00, 0x20, 0x74, 0x00,
    0x00, 0x32, 0x00, 0x80, 0x22, 0x00, 0x80, 0x13, 0x00, 0x80, 0x03, 0x00, 0x80, 0x00, 0x00,
0x00, 0x00, 0x00, 0x00, 0x00, 0x00, 0x00, 0x00, 0x00, 0x00, 0x00, 0x00, 0x00, 0x00, 0x00,
0x00, 0x00, 0x00, 0x00, 0x00, 0x00, 0x00, 0x00, 0x00, 0x00, 0x00, 0x00, 0x00, 0x00, 0x00,
    0x00, 0x0f, 0x00, 0x80, 0x0f, 0x00, 0xc0, 0x1f, 0x00, 0x20, 0x78, 0x00, 0x00, 0x74, 0x00,
    0x00, 0x72, 0x00, 0x80, 0x71, 0x00, 0xc0, 0x31, 0x00, 0xc0, 0x10, 0x00, 0x00, 0x08, 0x00,
0x00, 0x00, 0x00, 0x00, 0x00, 0x00, 0x00, 0x00, 0x00, 0x00, 0x00, 0x00, 0x00, 0x00, 0x00,
0x00, 0x00, 0x00, 0x00, 0x00, 0x00, 0x00, 0x00, 0x00, 0x00, 0x00, 0x00, 0x00, 0x00, 0x00,
    0x00, 0x3c, 0x00, 0x00, 0x1f, 0x00, 0x80, 0x1e, 0x00, 0x00, 0x38, 0x00, 0x00, 0xbc, 0x00,
    0xc0, 0xf3, 0x00, 0xc0, 0x70, 0x00, 0xe0, 0x79, 0x00, 0x00, 0x18, 0x00, 0x00, 0x04, 0x00,
0x00, 0x00, 0x00, 0x00, 0x00, 0x00, 0x00, 0x00, 0x00, 0x00, 0x00, 0x00, 0x00, 0x00, 0x00,
0x00, 0x00, 0x00, 0x00, 0x00, 0x00, 0x00, 0x00, 0x00, 0x00, 0x00, 0x00, 0x00, 0x00, 0x00,
    0x00, 0x00, 0x00, 0x00, 0x1f, 0x00, 0x00, 0x7c, 0x00, 0x00, 0xf8, 0x00, 0xc0, 0x30, 0x00,
    0xf0, 0x3f, 0x00, 0xc0, 0x30, 0x00, 0x00, 0xf8, 0x00, 0x00, 0x7c, 0x00, 0x00, 0x1f, 0x00,
0x00, 0x00, 0x00, 0x00, 0x00, 0x00, 0x00, 0x00, 0x00, 0x00, 0x00, 0x00, 0x00, 0x00, 0x00,
0x00, 0x00, 0x00, 0x00, 0x00, 0x00, 0x00, 0x00, 0x00, 0x00, 0x00, 0x00, 0x00, 0x00, 0x00,
    0x00, 0x04, 0x00, 0x00, 0x18, 0x00, 0xe0, 0x79, 0x00, 0xc0, 0x70, 0x00, 0xc0, 0xf3, 0x00,
    0x00, 0xbc, 0x00, 0x00, 0x38, 0x00, 0x80, 0x1e, 0x00, 0x00, 0x1f, 0x00, 0x00, 0x3c, 0x00,
0x00, 0x00, 0x00, 0x00, 0x00, 0x00, 0x00, 0x00, 0x00, 0x00, 0x00, 0x00, 0x00, 0x00, 0x00,
0x00, 0x00, 0x00, 0x00, 0x00, 0x00, 0x00, 0x00, 0x00, 0x00, 0x00, 0x00, 0x00, 0x00, 0x00,
    0x00, 0x08, 0x00, 0xc0, 0x10, 0x00, 0xc0, 0x31, 0x00, 0x80, 0x71, 0x00, 0x00, 0x72, 0x00,
    0x00, 0x74, 0x00, 0x20, 0x78, 0x00, 0xc0, 0x1f, 0x00, 0x80, 0x0f, 0x00, 0x00, 0x0f, 0x00,
0x00, 0x00, 0x00, 0x00, 0x00, 0x00, 0x00, 0x00, 0x00, 0x00, 0x00, 0x00, 0x00, 0x00, 0x00,
0x00, 0x00, 0x00, 0x00, 0x00, 0x00, 0x00, 0x00, 0x00, 0x00, 0x00, 0x00, 0x00, 0x00, 0x00,
    0x80, 0x00, 0x00, 0x80, 0x03, 0x00, 0x80, 0x13, 0x00, 0x80, 0x22, 0x00, 0x00, 0x32, 0x00,
    0x20, 0x74, 0x00, 0xc0, 0x7c, 0x00, 0xc0, 0x7f, 0x00, 0x80, 0x4f, 0x00, 0x80, 0x03, 0x00,
0x00, 0x06, 0x00, 0x00, 0x00, 0x00, 0x00, 0x00, 0x00, 0x00, 0x00, 0x00, 0x00, 0x00, 0x00};
