#define ori_utility_width 20
#define ori_utility_height 320
static unsigned char ori_utility_bits[] = {
	0x00, 0x00, 0x00, 0x80, 0x10, 0x00, 0x40, 0x29, 0x00, 0xc0, 0x39, 0x00,
	0xc0, 0x39, 0x00, 0xc0, 0x3f, 0x00, 0xc0, 0x3f, 0x00, 0x80, 0x1f, 0x00,
	0x00, 0x09, 0x00, 0x00, 0x0f, 0x00, 0x90, 0x99, 0x00, 0xa8, 0x59, 0x01,
	0xf8, 0xf9, 0x01, 0xf8, 0xf9, 0x01, 0xb8, 0xdf, 0x01, 0x98, 0x9f, 0x01,
0x98, 0x9f, 0x01, 0x08, 0x09, 0x01, 0x00, 0x06, 0x00, 0x00, 0x00, 0x00,
0x00, 0x00, 0x00, 0x00, 0x06, 0x00, 0x00, 0x0a, 0x00, 0x00, 0xcf, 0x00,
    0x00, 0x67, 0x01, 0x00, 0xef, 0x00, 0x00, 0xff, 0x00, 0x00, 0x7e, 0x00,
    0x18, 0x7b, 0x00, 0xa8, 0x0f, 0x00, 0xfc, 0x09, 0x00, 0xfc, 0x1c, 0x00,
    0xfe, 0x4c, 0x00, 0xe6, 0xbc, 0x00, 0xe2, 0xff, 0x00, 0xe0, 0x77, 0x00,
0xa0, 0x77, 0x00, 0x40, 0x31, 0x00, 0x80, 0x30, 0x00, 0x00, 0x20, 0x00,
0x00, 0x00, 0x00, 0x00, 0x00, 0x00, 0x00, 0x50, 0x00, 0x00, 0x78, 0x00,
    0x00, 0x3c, 0x00, 0x00, 0x1c, 0x03, 0x30, 0xbe, 0x01, 0x38, 0xfc, 0x03,
    0xbc, 0xfb, 0x01, 0xfe, 0xf5, 0x00, 0xeb, 0x28, 0x00, 0x70, 0x0c, 0x00,
    0x78, 0x0e, 0x00, 0xf8, 0x07, 0x00, 0xe8, 0x3f, 0x00, 0xc8, 0x3d, 0x00,
0xf0, 0x1e, 0x00, 0x00, 0x0c, 0x00, 0x00, 0x06, 0x00, 0x00, 0x02, 0x00,
0x00, 0x00, 0x00, 0x00, 0x00, 0x00, 0x00, 0x00, 0x00, 0x00, 0x80, 0x00,
    0x60, 0x60, 0x01, 0xb8, 0xf8, 0x01, 0x7f, 0xf8, 0x00, 0x7e, 0x39, 0x00,
    0xe0, 0x7f, 0x03, 0xf8, 0xf4, 0x05, 0x38, 0xfc, 0x07, 0x3c, 0xee, 0x01,
    0xfa, 0x07, 0x00, 0xf4, 0x03, 0x00, 0xf8, 0x07, 0x00, 0x80, 0x0b, 0x00,
0x80, 0x0f, 0x00, 0xc0, 0x03, 0x00, 0xe0, 0x00, 0x00, 0x00, 0x00, 0x00,
0x00, 0x00, 0x00, 0x00, 0x00, 0x00, 0x00, 0x00, 0x00, 0xfc, 0x01, 0x00,
    0xf8, 0x02, 0x00, 0xe0, 0x01, 0x00, 0xc0, 0xe0, 0x03, 0xf8, 0xf3, 0x05,
    0xfc, 0xff, 0x03, 0x3a, 0x74, 0x00, 0x3a, 0x74, 0x00, 0xfc, 0xff, 0x03,
    0xf8, 0xf3, 0x05, 0xc0, 0xe0, 0x03, 0xe0, 0x01, 0x00, 0xf8, 0x02, 0x00,
0xfc, 0x01, 0x00, 0x00, 0x00, 0x00, 0x00, 0x00, 0x00, 0x00, 0x00, 0x00,
0x00, 0x00, 0x00, 0xe0, 0x00, 0x00, 0xc0, 0x03, 0x00, 0x80, 0x0f, 0x00,
    0x80, 0x0b, 0x00, 0xf8, 0x07, 0x00, 0xf4, 0x03, 0x00, 0xfa, 0x07, 0x00,
    0x3c, 0xee, 0x01, 0x38, 0xfc, 0x07, 0xf8, 0xf5, 0x05, 0xe0, 0x7f, 0x03,
    0x7e, 0x39, 0x00, 0x7f, 0xf8, 0x00, 0xb8, 0xf8, 0x01, 0x60, 0x60, 0x01,
0x00, 0x80, 0x00, 0x00, 0x00, 0x00, 0x00, 0x00, 0x00, 0x00, 0x00, 0x00,
0x00, 0x02, 0x00, 0x00, 0x06, 0x00, 0x00, 0x0c, 0x00, 0xf0, 0x1e, 0x00,
    0xc8, 0x3d, 0x00, 0xe8, 0x3f, 0x00, 0xf8, 0x07, 0x00, 0x78, 0x0e, 0x00,
    0x70, 0x0c, 0x00, 0xeb, 0x28, 0x00, 0xfe, 0xf5, 0x00, 0xbc, 0xfb, 0x01,
    0x38, 0xfc, 0x03, 0x30, 0xbe, 0x01, 0x00, 0x1c, 0x03, 0x00, 0x3c, 0x00,
0x00, 0x78, 0x00, 0x00, 0x50, 0x00, 0x00, 0x00, 0x00, 0x00, 0x00, 0x00,
0x00, 0x20, 0x00, 0x80, 0x30, 0x00, 0x40, 0x31, 0x00, 0xa0, 0x77, 0x00,
    0xe0, 0x77, 0x00, 0xe2, 0xff, 0x00, 0xe6, 0xbc, 0x00, 0xfe, 0x4c, 0x00,
    0xfc, 0x18, 0x00, 0xfc, 0x09, 0x00, 0xa8, 0x0f, 0x00, 0x18, 0x7b, 0x00,
    0x00, 0x7e, 0x00, 0x00, 0xff, 0x00, 0x00, 0xef, 0x00, 0x00, 0x67, 0x01,
0x00, 0xcf, 0x00, 0x00, 0x0a, 0x00, 0x00, 0x06, 0x00, 0x00, 0x00, 0x00,
0x00, 0x00, 0x00, 0x00, 0x06, 0x00, 0x08, 0x09, 0x01, 0x98, 0x9f, 0x01,
    0x98, 0x9f, 0x01, 0xb8, 0xdf, 0x01, 0xf8, 0xf9, 0x01, 0xf8, 0xf9, 0x01,
    0xa8, 0x59, 0x01, 0x90, 0x99, 0x00, 0x00, 0x0f, 0x00, 0x00, 0x09, 0x00,
    0x80, 0x1f, 0x00, 0xc0, 0x3f, 0x00, 0xc0, 0x3f, 0x00, 0xc0, 0x39, 0x00,
0xc0, 0x39, 0x00, 0x40, 0x29, 0x00, 0x80, 0x10, 0x00, 0x00, 0x00, 0x00,
0x40, 0x00, 0x00, 0xc0, 0x10, 0x00, 0xc0, 0x28, 0x00, 0xe0, 0x5e, 0x00,
    0xe0, 0x7e, 0x00, 0xf0, 0x7f, 0x04, 0xd0, 0x73, 0x06, 0x20, 0xf3, 0x07,
    0x80, 0xf3, 0x03, 0x00, 0xf9, 0x03, 0x00, 0x5f, 0x01, 0xe0, 0x8d, 0x01,
    0xe0, 0x07, 0x00, 0xf0, 0x0f, 0x00, 0x70, 0x0f, 0x00, 0x68, 0x0e, 0x00,
0x30, 0x0f, 0x00, 0x00, 0x05, 0x00, 0x00, 0x06, 0x00, 0x00, 0x00, 0x00,
0x00, 0x04, 0x00, 0x00, 0x06, 0x00, 0x00, 0x03, 0x00, 0x80, 0xf7, 0x00,
    0xc0, 0x3b, 0x01, 0xc0, 0x7f, 0x01, 0x00, 0xfe, 0x01, 0x00, 0xe7, 0x01,
    0x00, 0xe3, 0x00, 0x40, 0x71, 0x0d, 0xf0, 0xfa, 0x07, 0xf8, 0xdd, 0x03,
    0xfc, 0xc3, 0x01, 0xd8, 0xc7, 0x00, 0x8c, 0x03, 0x00, 0xc0, 0x03, 0x00,
0xe0, 0x01, 0x00, 0xa0, 0x00, 0x00, 0x00, 0x00, 0x00, 0x00, 0x00, 0x00,
0x00, 0x00, 0x00, 0x00, 0x70, 0x00, 0x00, 0x3c, 0x00, 0x00, 0x1f, 0x00,
    0x00, 0x1d, 0x00, 0x00, 0xfe, 0x01, 0x00, 0xfc, 0x02, 0x00, 0xfe, 0x05,
    0x78, 0xc7, 0x03, 0xfe, 0xc3, 0x01, 0xfa, 0xf2, 0x01, 0xec, 0x7f, 0x00,
    0xc0, 0xe9, 0x07, 0xf0, 0xe1, 0x0f, 0xf8, 0xd1, 0x01, 0x68, 0x60, 0x00,
0x10, 0x00, 0x00, 0x00, 0x00, 0x00, 0x00, 0x00, 0x00, 0x00, 0x00, 0x00,
0x00, 0x00, 0x00, 0x00, 0x00, 0x00, 0x00, 0x00, 0x00, 0x00, 0xf8, 0x03,
    0x00, 0xf4, 0x01, 0x00, 0x78, 0x00, 0x7c, 0x30, 0x00, 0xfa, 0xfc, 0x01,
    0xfc, 0xff, 0x03, 0xe0, 0xc2, 0x05, 0xe0, 0xc2, 0x05, 0xfc, 0xff, 0x03,
    0xfa, 0xfc, 0x01, 0x7c, 0x30, 0x00, 0x00, 0x78, 0x00, 0x00, 0xf4, 0x01,
0x00, 0xf8, 0x03, 0x00, 0x00, 0x00, 0x00, 0x00, 0x00, 0x00, 0x00, 0x00,
0x00, 0x00, 0x00, 0x00, 0x00, 0x00, 0x00, 0x00, 0x00, 0x10, 0x00, 0x00,
    0x68, 0x60, 0x00, 0xf8, 0xd1, 0x01, 0xf0, 0xe1, 0x0f, 0xc0, 0xe9, 0x07,
    0xec, 0x7f, 0x00, 0xfa, 0xfa, 0x01, 0xfe, 0xc3, 0x01, 0x78, 0xc7, 0x03,
    0x00, 0xfe, 0x05, 0x00, 0xfc, 0x02, 0x00, 0xfe, 0x01, 0x00, 0x1d, 0x00,
0x00, 0x1f, 0x00, 0x00, 0x3c, 0x00, 0x00, 0x70, 0x00, 0x00, 0x00, 0x00,
0x00, 0x00, 0x00, 0x00, 0x00, 0x00, 0xa0, 0x00, 0x00, 0xe0, 0x01, 0x00,
    0xc0, 0x03, 0x00, 0x8c, 0x03, 0x00, 0xd8, 0xc7, 0x00, 0xfc, 0xc3, 0x01,
    0xf8, 0xdd, 0x03, 0xf0, 0xfa, 0x07, 0x40, 0x71, 0x0d, 0x00, 0xe3, 0x00,
    0x00, 0xe7, 0x01, 0x00, 0xfe, 0x01, 0xc0, 0x7f, 0x01, 0xc0, 0x3b, 0x01,
0x80, 0xf7, 0x00, 0x00, 0x03, 0x00, 0x00, 0x06, 0x00, 0x00, 0x04, 0x00,
0x00, 0x00, 0x00, 0x00, 0x06, 0x00, 0x00, 0x05, 0x00, 0x30, 0x0f, 0x00,
    0x68, 0x0e, 0x00, 0x70, 0x0f, 0x00, 0xf0, 0x0f, 0x00, 0xe0, 0x07, 0x00,
    0xe0, 0x8d, 0x01, 0x00, 0x5f, 0x01, 0x00, 0xf9, 0x03, 0x80, 0xf1, 0x03,
    0x20, 0xf3, 0x07, 0xd0, 0x73, 0x06, 0xf0, 0x7f, 0x04, 0xe0, 0x7e, 0x00,
0xe0, 0x5e, 0x00, 0xc0, 0x28, 0x00, 0xc0, 0x10, 0x00, 0x40, 0x00, 0x00};
