/* XPM */
static char * C12_xpm[] = {
"20 320 8 1",
" 	c None",
".	c #9A9AAF",
"X	c #8D8DA0",
"o	c #A9A9C0",
"O	c #C6C6E0",
"+	c #FFFF00",
"@	c #FF0000",
"#	c #B00000",
"                    ",
"       .    .       ",
"      XoX  XoX      ",
"      .O.  .O.      ",
"      .O.  .O.      ",
"      .Oo..oO.      ",
"      XoOOOOoX      ",
"       .oOOo.       ",
"        oOOo        ",
"        oXXo        ",
"    .  oX  Xo  .    ",
"   oOo OX  XO oOo   ",
"   +OooOX  XOooO+   ",
"   +OOOOX  XOOOO+   ",
"   +O. O.XX.O .O+   ",
"   +o  @oOOo@  o+   ",
"   o.  #oooo#  .o   ",
"   .    .oo.    .   ",
"         XX         ",
"                    ",
"                    ",
"          X         ",
"         Xoo        ",
"         .O.  XoX   ",
"         .O   XoX   ",
"        XOo   .O.   ",
"        XoO..oO.    ",
"         .oOOOO.    ",
"     .   oOOo.oX    ",
"   oO.  ooXOo.      ",
"   +Oo OX  Xo       ",
"   +OooOX  Xo       ",
"  +O.OOO   XO       ",
"  +o  OX  XOO o.    ",
" ..   @.XXXOooOoX   ",
"     #XOOO.OOOO+    ",
"      .ooo@ .OO+    ",
"      .ooo#  o+     ",
"       XX    .+     ",
"             .      ",
"                    ",
"             X.     ",
"            .oo     ",
"           .OOX     ",
"          XOO.      ",
"          .oo.  Xo. ",
"    +Oo   .oO...OoX ",
"   +Ooo  XoOOOoOO.  ",
"  +OOooOoooOOooO.   ",
" oo..OOOX  oo..X    ",
".    OOX   oX       ",
"    @O.   Xo        ",
"    #oXX XOO        ",
"    .oOX.OOooo      ",
"    ooooOOOooO      ",
"    Xo.#@ .OO+      ",
"          .O+       ",
"          o+        ",
"          o         ",
"         .          ",
"                    ",
"                    ",
"                    ",
"     .        .X.   ",
"   ++o.    X..Oo.   ",
" ++OOOo    oOO.XX   ",
"..oOOo    ..Oo      ",
"   .OoOOooooO.      ",
"    OOOXXXOOO.  .o  ",
"  #@.XX   XOoOoOOXX ",
"  ooOX    oo.oO..X  ",
" XooOX  XXo  XX     ",
" XooO.XOOO          ",
"  ..o@OOo           ",
"    #  Ooo..        ",
"       .OOO         ",
"      oO++o         ",
"     .++            ",
"     o              ",
"                    ",
"                    ",
"                    ",
"                    ",
"  .o++++o           ",
"   .oOOOO.          ",
"     .Ooo           ",
"      Oo     X...X  ",
"   #@OOOOo  .oOOOo. ",
"  .oo.XXXXoooOo..X  ",
" XooOX    XOOO.     ",
" XooOX    XOOO.     ",
"  .oo.XXXXoooOo..X  ",
"   #@OOOOo  .oOOOo. ",
"      Oo     X...X  ",
"     .Ooo           ",
"   .oOOOO.          ",
"  .o++++o           ",
"                    ",
"                    ",
"                    ",
"                    ",
"     .              ",
"     .++            ",
"      oO++o         ",
"       .OOO         ",
"    #  Ooo..        ",
"  ..X@OOo           ",
" XooO.XOOO          ",
" XooOX  XXo  XX     ",
"  ooOX    oo.oO..X  ",
"  #@.XX   XOoOoOOoX ",
"    OOOXXXOOO.  .o  ",
"   .OoOOooooO.      ",
"..oOOo    ..Oo      ",
" ++OOOo    oOO.XX   ",
"   ++o.    X.Oooo   ",
"     X       .XXX   ",
"                    ",
"                    ",
"                    ",
"         .          ",
"          o         ",
"          o+        ",
"          .O+       ",
"    Xo.#@ .OO+      ",
"    ooooOOOooO      ",
"    .oOX.OOooo      ",
"    #oXX XOO        ",
"    @O.   Xo        ",
"X    OOX   oX       ",
" oo..OOOX  oo..X    ",
"  +OOooOoooOOooO.   ",
"   +Ooo  XoOOOoOO.  ",
"    +Oo   .oO...OoX ",
"          .oo.  Xo. ",
"          XOO.      ",
"           .OXX     ",
"            .oo     ",
"             X.     ",
"                    ",
"             .      ",
"       XX    .+     ",
"      .ooo#  o+     ",
"      .ooo@ .O++    ",
"     #oOOO.OOOO+    ",
" o.   @.XXXOooO.X   ",
"  +o  OX  XOO .X    ",
"  +O.OOO   XO       ",
"   +OooOX  Xo       ",
"   +Oo OX  Xo       ",
"   oO.  ooXOo.      ",
"     .   oOOo.oX    ",
"         .oOOOO.    ",
"        XoO..oO.    ",
"        XOo   .O.   ",
"         .O   XoX   ",
"         .O.  ...   ",
"         XXo        ",
"          X         ",
"                    ",
"                    ",
"         XX         ",
"   .    .oo.    .   ",
"   o.  #oooo#  X.   ",
"   +o  @oOOo@  .+   ",
"   +O. O.XX.O .o+   ",
"   +OOOOX  XOOOO+   ",
"   +OooOX  XOooO+   ",
"   oOo OX  XO oOo   ",
"    .  oX  Xo  .    ",
"        oXXo        ",
"        oOOo        ",
"       .oOOo.       ",
"      XoOOOOoX      ",
"      .Oo..oO.      ",
"      .O.  .O.      ",
"      .O.  .O.      ",
"      XoX  XoX      ",
"       .    .       ",
"                    ",
"      .             ",
"     +.    XX       ",
"     +o  #ooo.      ",
"    +OO. @ooo.      ",
"    +OOOO.OOOX#     ",
"   XoOooOXXX.@   .. ",
"    .o OOX  XO  .+  ",
"       OX   OOO.O+  ",
"       oX  XOooO+   ",
"       oX  XO oO+   ",
"      .oOXoo  .Oo   ",
"    Xo.oOOo   .     ",
"    .OOOOo.         ",
"   .OOo..OoX        ",
"   Xo.   oOX        ",
"   XoX   O.         ",
"   XoX  .O.         ",
"        ooX         ",
"         X          ",
"                    ",
"          X         ",
"         o          ",
"        +o          ",
"       +O.          ",
"      +OO. @#.oX    ",
"      OooOOOoooo    ",
"      oooOO.XOoo    ",
"        OOX XXo#    ",
"        oX   .O@    ",
"       Xo   XOO    X",
"    X..oo  XOOO..oo ",
"   .OooOOoooOooOO+  ",
"  .OOoOOOoX  ooO+   ",
" XoX...Oo.   oO+    ",
" .oX  .oo.          ",
"      .OOX          ",
"     XOO.           ",
"     oo.            ",
"     .X             ",
"                    ",
"                    ",
"              o     ",
"            ++.     ",
"         o++Oo      ",
"         OOO.       ",
"        ..ooO  #    ",
"           oOO@o..  ",
"          OOOX.OooX ",
"     XX  oXXX XOooX ",
"  X..Oo.oo    XOoo  ",
" XXOOoOoOX   XX.@#  ",
"  o.  .OOOXXXOOO    ",
"      .OooooOOoO.   ",
"      oO..    oOOo.X",
"   .X.OOo    .OO+++ ",
"   .oO..X    .X++   ",
"   .X.        X     ",
"                    ",
"                    ",
"                    ",
"                    ",
"                    ",
"                    ",
"           o++++o.  ",
"          .OOOOo.   ",
"           ooO.     ",
"  X...X     oO      ",
" .oOOOo.  oOOOO@#   ",
"  X..oOoooXXXX.oo.  ",
"     .OOOX    XOooX ",
"     .OOOX    XOooX ",
"  X..oOoooXXXX.oo.  ",
" .oOOOo.  oOOOO@#   ",
"  X...X     oO      ",
"           ooO.     ",
"          .OOOo.X   ",
"           o++++..  ",
"                    ",
"                    ",
"                    ",
"                    ",
"                    ",
"                    ",
"   XXX.       X     ",
"   oooO.X    .o++   ",
"   XX.OOo    oOOO++ ",
"      oO..    oOOo.X",
"      .OooooOOoO.   ",
"  o.  .OOOXXXOOO    ",
" XoOOoOoOX   XX.@#  ",
"  X..Oo.oo    XOoo  ",
"     XX  oXX  XOooX ",
"          OOOX.OooX ",
"           oOO@X..  ",
"        ..ooO  #    ",
"         OOO.       ",
"         o++OX      ",
"            ++X     ",
"              X     ",
"                    ",
"                    ",
"     .X             ",
"     oo.            ",
"     XXO.           ",
"      .OOX          ",
" .oX  .oo.          ",
" XoO...Oo.   oO+    ",
"  .OOoOOOoX  ooO+   ",
"   .OooOOoooOooOO+  ",
"    X..oo  XOOO..oo ",
"       Xo   XOO    X",
"        oX   .O@    ",
"        OOX XXo#    ",
"      oooOO.XOo.    ",
"      OooOOOoooo    ",
"      +OO. @#ooX    ",
"       +O.          ",
"        +o          ",
"         o          ",
"          X         ",
"                    ",
"         X          ",
"        oXX         ",
"   ...  .O.         ",
"   XoX   O.         ",
"   .O.   oOX        ",
"    .Oo..OoX        ",
"    .OOOOo.         ",
"    Xo.oOOo   .     ",
"      .oOXoo  .Oo   ",
"       oX  XO oO+   ",
"       oX  XOooO+   ",
"       OX  XOOO.O+  ",
"    .. OOX  XO  o+  ",
"   XXOooOXXX.@   .o ",
"    +OOOO.OOOo#     ",
"    ++O. @ooo.      ",
"     +o  #ooo.      ",
"     +.    XX       ",
"      X             "};
