#define ori_warbase_width 20
#define ori_warbase_height 20
static unsigned char ori_warbase_bits[] = {
	0x00, 0x00, 0x00, 0x60, 0x30, 0x00, 0x18, 0xc0, 0x00, 0x1c, 0xc2, 0x01, 0x3c, 0xe2, 0x01,
	0x72, 0x77, 0x02, 0xe2, 0x38, 0x02, 0xc0, 0x1d, 0x00, 0xa0, 0x2f, 0x00, 0x38, 0xe7, 0x00,
	0xa0, 0x2f, 0x00, 0xc0, 0x1d, 0x00, 0xe2, 0x38, 0x02, 0x72, 0x77, 0x02, 0x3c, 0xe2, 0x01,
0x1c, 0xc2, 0x01, 0x18, 0xc0, 0x00, 0x60, 0x30, 0x00, 0x00, 0x00, 0x00, 0x00, 0x00, 0x00};
