/* XPM */
static char * C4_xpm[] = {
"20 320 5 1",
" 	c None",
".	c #00A0A0",
"X	c #00FFFF",
"o	c #007878",
"O	c #00C8C8",
"                    ",
"         ..         ",
"        .XX.        ",
"        .XX.        ",
"         oo         ",
"        .XX.        ",
"        .XX.        ",
"         oo         ",
"        .OO.        ",
"      O.OXXO.O      ",
"     OO.OXXO.OO     ",
"     OO.OXXO.OO     ",
"    oXO.OXXO.OXo    ",
"    oXO.OXXO.OXo    ",
"    oXO OXXO OXo    ",
"    oX  .OO.  Xo    ",
"    oo   oo   oo    ",
"                    ",
"                    ",
"                    ",
"                    ",
"                    ",
"           o..      ",
"           OXX      ",
"           OXXo     ",
"          .oo       ",
"          XXXo      ",
"          oX.       ",
"       Oo.Oo        ",
"     OO.OXXO.       ",
"    XOO.OXXO.o      ",
"   oXO..OXXO.O      ",
"   oXO.OXXO..OO     ",
"  oXOo OXXO.OOo     ",
"  oo  oXXXO.OXX     ",
"      oOOO OXXo     ",
"       ooo  Xo      ",
"            Xo      ",
"            o       ",
"                    ",
"                    ",
"                    ",
"                    ",
"               .    ",
"             .XO.   ",
"             .XX    ",
"           .Xo..    ",
"     OOO.  XXX      ",
"   oXOO..OOoX.      ",
"  oXXO..OXXO        ",
" oXXO..OXXXO        ",
" oo  .OXXXO..       ",
"     OXXXO..O       ",
"     OXXO..OO       ",
"    oOOO..OOO       ",
"     o   OXX        ",
"         XXo        ",
"        oXo         ",
"        oo          ",
"                    ",
"                    ",
"                    ",
"                    ",
"                    ",
"                    ",
"    oXoO       .    ",
"  ooXXOOOo   . XX.  ",
" oXXXOO.... .XoXX.  ",
"    O...OOOoXXoOOo  ",
"     OOOXXXOoX.     ",
"   .OXXXXXX.        ",
"   oOXXXOOOo        ",
"   oOXOO...O        ",
"    o. ..OO         ",
"      oOOOO         ",
"      OXXX          ",
"     oXoo           ",
"     oo             ",
"                    ",
"                    ",
"                    ",
"                    ",
"                    ",
"                    ",
"   ooooo            ",
"   oXXXXOO          ",
"     OOOOOO         ",
"      .....         ",
"    .OOOOOO. .. ..  ",
"   oOXXXXXXOoXXoXX. ",
"   oOXXXXXXOoXXoXX. ",
"    .OOOOOO. .. ..  ",
"      .....         ",
"     OOOOOO         ",
"   oXXXXOO          ",
"   ooooo            ",
"                    ",
"                    ",
"                    ",
"                    ",
"                    ",
"                    ",
"     oo             ",
"     oXoo           ",
"      OXXX          ",
"      oOOOO         ",
"    oo ..OO         ",
"   oOXOO...O        ",
"   oOXXXOOOo        ",
"   oOXXXXXX.        ",
"     OOOXXXOoX.     ",
"    O...OOOoXXoOOo  ",
" oXXXOO.... .XoXX.  ",
"  ooXXOOOo   o XX.  ",
"    oXoO       o    ",
"                    ",
"                    ",
"                    ",
"                    ",
"                    ",
"                    ",
"        oo          ",
"        oXo         ",
"         XXo        ",
"     o   OXX        ",
"    oOOO..OOO       ",
"     OXXO..OO       ",
"     OXXXO..O       ",
" oo  .OXXXO..       ",
" oXXO..OXXXO        ",
"  oXXO..OXXO        ",
"   oXOO..OOoX.      ",
"     OOO.  XXX      ",
"           .Xo..    ",
"             .XX.   ",
"             .XO.   ",
"              ..    ",
"                    ",
"                    ",
"                    ",
"                    ",
"            o       ",
"            Xo      ",
"       oo.  Xo      ",
"      oOOO OXXo     ",
"  oo  .XXXO.OXX     ",
"  oXOo OXXO.OOo     ",
"   oXO.OXXO..OO     ",
"   oXO..OXXO.O      ",
"    XOO.OXXO.o      ",
"     OO.OXXO.       ",
"       Oo.Oo        ",
"          oX.       ",
"          XXX.      ",
"          .oo       ",
"           OXX.     ",
"           OXX      ",
"           o.O      ",
"                    ",
"                    ",
"                    ",
"                    ",
"                    ",
"    oo   oo   oo    ",
"    oX  .OO.  Xo    ",
"    oXO OXXO OXo    ",
"    oXO.OXXO.OXo    ",
"    oXO.OXXO.OXo    ",
"     OO.OXXO.OO     ",
"     OO.OXXO.OO     ",
"      O.OXXO.O      ",
"        .OO.        ",
"         oo         ",
"        .XX.        ",
"        .XX.        ",
"         oo         ",
"        .XX.        ",
"        .XX.        ",
"         ..         ",
"                    ",
"                    ",
"       o            ",
"      oX            ",
"      oX  ooo       ",
"     oXXO OOOo      ",
"     XXO.OXXXo  oo  ",
"     oOO.OXXO oOoo  ",
"     OO..OXXO.OXo   ",
"      O.OXXO..OXo   ",
"      o.OXXO.OOX    ",
"       .OXXO.OO     ",
"        oO.oO       ",
"       .Xo          ",
"      oXXX          ",
"       oo.          ",
"     oXXO           ",
"      XXO           ",
"      ..o           ",
"                    ",
"                    ",
"                    ",
"          oo        ",
"         oXo        ",
"        oXX         ",
"        XXO   o     ",
"       OOO..OOOo    ",
"       OO..OXXO     ",
"       O..OXXXO     ",
"       ..OXXXO.  oo ",
"        OXXXO..OXXo ",
"        OXXO..OXXo  ",
"      .XoOO..OOXo   ",
"      XXX  .OOO     ",
"    ..oX.           ",
"   .XX.             ",
"   .OX.             ",
"    ..              ",
"                    ",
"                    ",
"                    ",
"                    ",
"                    ",
"             oo     ",
"           ooXo     ",
"          XXXO      ",
"         OOOOo      ",
"         OO.. .o    ",
"        O...OOXOo   ",
"        oOOOXXXOo   ",
"        .XXXXXXO.   ",
"     .XoOXXXOOO     ",
"  oOOoXXoOOO...O    ",
"  .XXoX. ....OOXXXo ",
"  OXX .   oOOOXXoo  ",
"    .       OoXo    ",
"                    ",
"                    ",
"                    ",
"                    ",
"                    ",
"                    ",
"                    ",
"                    ",
"                    ",
"            ooooo   ",
"          OOXXXXo   ",
"         OOOOOO     ",
"         .....      ",
"  .. .. .OOOOOO.    ",
" .XXoXXoOXXXXXXOo   ",
" .XXoXXoOXXXXXXOo   ",
"  .. .. .OOOOOO.    ",
"         .....      ",
"         OOOOOO     ",
"          OOXXXXo   ",
"            ooooo   ",
"                    ",
"                    ",
"                    ",
"                    ",
"                    ",
"                    ",
"                    ",
"                    ",
"                    ",
"    o       OoXo    ",
"  .XX o   oOOOXXoo  ",
"  .XXoX. ....OOXXXo ",
"  oOOoXXoOOO...O    ",
"     .XoOXXXOOO     ",
"        .XXXXXXOo   ",
"        oOOOXXXOo   ",
"        O...OOXOo   ",
"         OO.. oo    ",
"         OOOOo      ",
"          XXXO      ",
"           oooo     ",
"             oo     ",
"                    ",
"                    ",
"                    ",
"                    ",
"                    ",
"    ..              ",
"   .OX.             ",
"   .XX.             ",
"    ..oX.           ",
"      XXX  .OOO     ",
"      .XoOO..OOXo   ",
"        OXXO..OXXo  ",
"        OXXXO..OXXo ",
"       ..OXXXO.  oo ",
"       O..OXXXO     ",
"       OO..OXXO     ",
"       OOO..OOOo    ",
"        XXO   o     ",
"        oXX         ",
"         oXo        ",
"          oo        ",
"                    ",
"                    ",
"                    ",
"      O.o           ",
"      XXO           ",
"     .XXO           ",
"       oo.          ",
"      .XXX          ",
"       .Xo          ",
"        oO.oO       ",
"       .OXXO.OO     ",
"      o.OXXO.OOX    ",
"      O.OXXO..OXo   ",
"     OO..OXXO.OXo   ",
"     oOO.OXXO oOXo  ",
"     XXO.OXXX.  oo  ",
"     oXXO OOOo      ",
"      oX  .oo       ",
"      oX            ",
"       o            ",
"                    "};
