/* XPM */
static char * C8_xpm[] = {
"20 320 5 1",
" 	c None",
".	c #00A0A0",
"X	c #007878",
"o	c #00FFFF",
"O	c #00C8C8",
"                    ",
"         ..         ",
"        XooX        ",
"     . .OooO. .     ",
"    .O .OooO. O.    ",
"    O  . oo .  O    ",
"    O  . OO .  O    ",
"   .O    oo    O.   ",
"   OO   OooO   OO   ",
"   OO XOOooOOX OO   ",
"   XOX.  oo  .XOX   ",
"   XO   OooO   OX   ",
"   XOX.  oo  .XOX   ",
"   XOXXO oo OXXOX   ",
"   XX  OOooOO  XX   ",
"    XO  OooO  OX    ",
"     .  XOOX  .     ",
"         XX         ",
"                    ",
"                    ",
"                    ",
"        .   X..     ",
"       .  X.ooX     ",
"      OO  .Ooo.X    ",
"     .O  . oooO.    ",
"     OO  . oo .  X  ",
"    OOX    OO .  X  ",
"    XOOO.Ooo     O  ",
"   XOO  XOooO   O.  ",
"   XOX   oooO.  O.  ",
"  X.O.X Ooo  .XOOX  ",
"  X. XO  ooO  XOO   ",
"  X.  OXoo     O.   ",
"   O  XOooXO.XO.X   ",
"      XOooOO XOX    ",
"       OOOX  OXX    ",
"       XXX  OXX     ",
"            OX      ",
"                    ",
"                    ",
"                    ",
"          ..        ",
"         O          ",
"       .O   X.Xo.   ",
"      OO   ..Oooo   ",
"     XOX   . oooX   ",
"    XOXXXX  OooO.   ",
"   XOX  XOOooO .X   ",
"  XXXXX   ooo ..  . ",
"  X  .. o.ooO     . ",
"  .O .O .o. OX   O  ",
"     OOoo.o XX  O   ",
"     Oooo    XXO.   ",
"    XOooOO.X XOO    ",
"    XXOOO..XXOX     ",
"     XX    XOX      ",
"         O XX       ",
"         .XX        ",
"                    ",
"                    ",
"                    ",
"                    ",
"         O..OXX     ",
"      X.OOOO        ",
"    XXOOOO     .X   ",
"   XOOO XX   ..O... ",
"  XOO X  XX    ooo. ",
"  OO X.   OO OooooX ",
"     OO O oooOooOO  ",
"     OO ooooo   .X  ",
"   XOooooooOO ..    ",
"   XOooo O OX     . ",
"   XOoOO   XX   O.  ",
"     XXOO  XX OOO   ",
"       XXX OOOO.    ",
"         OOXOO      ",
"     O.XXXX         ",
"      XXX           ",
"                    ",
"                    ",
"                    ",
"                    ",
"                    ",
"     XXXXXOO.       ",
"    XXOOOOOOOOO.    ",
"   .O XX X     O.   ",
"      X. .X         ",
"     OO   O  ....   ",
"   XOO  O OO   OOX  ",
"  XOoooooooooOoooo. ",
"  XOoooooooooOoooo. ",
"   XOO  O OO   OOX  ",
"     OO   O  ....   ",
"      X. .X         ",
"   .O XX X     O.   ",
"    XXOOOOOOOOO.    ",
"     XXXXXOO.       ",
"                    ",
"                    ",
"                    ",
"                    ",
"                    ",
"       XXX          ",
"      O...XX        ",
"         OOOXO      ",
"        X.XOOOOO    ",
"     XXOOX  OXOOO   ",
"   XOOOX    O   OO  ",
"   XOooo O X.     . ",
"   XOooooooOO ..    ",
"    XOX ooooo   .X  ",
"     OO O oooOooO.  ",
"  OO  .   OO OooooX ",
"  XXOXX  ..    ooo. ",
"   XXOO XX   ..O.X. ",
"    XX.OOO     .X   ",
"      X.OOOO        ",
"         X..OXX     ",
"                    ",
"                    ",
"                    ",
"                    ",
"         .XX        ",
"         O XX       ",
"     XX    XOX      ",
"    XXOOO..XXOX     ",
"    XOooOO.X XOO    ",
"     Oooo    XXO.   ",
"     OOoo.o XX  O   ",
"  .O .O .o. OX   O  ",
"  X  .. o.ooO     . ",
"  XXXXX   ooo ..  . ",
"   XOX  XOOooO .X   ",
"    XOXXXX  OooO.   ",
"     XOX   . oooX   ",
"      OO   ..Oooo   ",
"       .O   X.Xo.   ",
"         O          ",
"          ..        ",
"                    ",
"                    ",
"                    ",
"            OX      ",
"       XXX  OOX     ",
"       OOO   OOX    ",
"   O  XoooOOX OX    ",
"  X.  XOooOO.XOOX   ",
"  XX XOOoo     O.   ",
"  XX XO  ooO  XOO   ",
"   XOX  Ooo  XXOOO  ",
"   XO    oooOX  O.  ",
"    XOXXOOooO   O.  ",
"    OOXXXOoo     O  ",
"    OO     OO .  X  ",
"     OO  . oo .  X  ",
"     .O  . oooO.    ",
"      OO  .OooOX    ",
"       .  XOoo.     ",
"        .   X..     ",
"                    ",
"                    ",
"                    ",
"         XX         ",
"     .  XOOX  .     ",
"    XO  OooO  OX    ",
"   XX  OOooOO  XX   ",
"   XOXXO oo OXXOX   ",
"   XOX.  oo  .XOX   ",
"   XO   OooO   OX   ",
"   XOX.  oo  .XOX   ",
"   OO XOOooOOX OO   ",
"   OO   OooO   OO   ",
"   .O    oo    O.   ",
"    O  . OO .  O    ",
"    O  . oo .  O    ",
"    .O .OooO. O.    ",
"     . .OooO. .     ",
"        XooX        ",
"         ..         ",
"                    ",
"                    ",
"                    ",
"      XO            ",
"     XXO  XXX       ",
"    XXO  XOOO       ",
"    XOX OOooOX      ",
"   X.OX.OXooOX  O   ",
"   .O     ooXO  .X  ",
"   OOX  Ooo  OX .X  ",
"  XOOX.  ooO X.O.X  ",
"  .O  .Oooo   XOX   ",
"  .O   OooOX  OOX   ",
"  O     ooO.OOOX    ",
"  X  . OO    XOO    ",
"  X  . oo .  OO     ",
"    .Oooo .  OO     ",
"    X.ooO.  OO      ",
"     Xoo.X  O       ",
"     ..X   .        ",
"                    ",
"                    ",
"                    ",
"        XX.         ",
"       XX O         ",
"      XOX    XX     ",
"     XOXX..OOO.X    ",
"    OOX X.OOooOX    ",
"   .OXX    oooO     ",
"   O  XX o.ooOO     ",
"  O   XO .o. O. O.  ",
" .     Ooo.o ..  X  ",
" .  .. ooo   XXXXX  ",
"   X. OooOOX  XOX   ",
"   .OooO  XXXXOX    ",
"   Xooo .   XOX     ",
"   oooO..   OO      ",
"   .oX.X   O.       ",
"          O         ",
"        ..          ",
"                    ",
"                    ",
"                    ",
"           XXX      ",
"         XXXX.O     ",
"      OOXOO         ",
"    .OOOO XXX       ",
"   OOO XX  OOXX     ",
"  .O   XX   OOoOX   ",
" .     XO O oooOX   ",
"    .. OOooooooOX   ",
"  X.   ooooo OO     ",
"  OOooOooo O OO     ",
" XooooO OO   .X OO  ",
" .ooo    XX  X OOX  ",
" ..OO..   XX OOOX   ",
"   X.     OOOOXX    ",
"        OOOO.X      ",
"     XXO..O         ",
"                    ",
"                    ",
"                    ",
"                    ",
"                    ",
"       .OOXXXXX     ",
"    .OOOOOOOOOXX    ",
"   .O     X XX O.   ",
"         X. .X      ",
"   ....  O   OO     ",
"  XOO   OO O  OOX   ",
" .ooooOoooooooooOX  ",
" .ooooOoooooooooOX  ",
"  XOO   OO O  OOX   ",
"   ....  O   OO     ",
"         X. .X      ",
"   .O     X XX O.   ",
"    .OOOOOOOOOXX    ",
"       .OOXXXX      ",
"                    ",
"                    ",
"                    ",
"                    ",
"                    ",
"     XXO..X         ",
"        OOOO.X      ",
"   X.     OOO.XX    ",
" .X.O..   XX OO.X   ",
" .ooo    ..  XXO.X  ",
" XooooO OO   .  OO  ",
"  .OooOooo O OO     ",
"  X.   ooooo XOX    ",
"    .. OOooooooOX   ",
" .     .X O oooOX   ",
"  OO   O    XOOOX   ",
"   OOOXO  XOOXX     ",
"    OOOOOX.X        ",
"      OXOOO         ",
"        XX...       ",
"          XXX       ",
"                    ",
"                    ",
"                    ",
"        ..          ",
"          O         ",
"   .oX.X   O.       ",
"   oooO..   OO      ",
"   Xooo .   XOX     ",
"   .OooO  XXXXOX    ",
"   X. OooOOX  XOX   ",
" .  .. ooo   XXXXX  ",
" .     Ooo.o ..  X  ",
"  O   XO .o. O. O.  ",
"   O  XX o.ooOO     ",
"   .OXX    oooO     ",
"    OOX X.OOooOX    ",
"     XOXX..OOO.X    ",
"      XOX    XX     ",
"       XX O         ",
"        XX.         ",
"                    ",
"                    ",
"                    ",
"     ..X   .        ",
"     .ooOX  .       ",
"    XOooO.  OO      ",
"    .Oooo .  O.     ",
"  X  . oo .  OO     ",
"  X  . OO     OO    ",
"  O     ooOXXXOO    ",
"  .O   OooOOXXOX    ",
"  .O  XOooo    OX   ",
"  OOOXX  ooO  XOX   ",
"   OOX  Ooo  OX XX  ",
"   .O     ooOOX XX  ",
"   XOOX.OOooOX  .X  ",
"    XO XOOoooX  O   ",
"    XOO   OOO       ",
"     XOO  XXX       ",
"      XO            ",
"                    ",
"                    "};
