/* XPM */
static char * BB9_xpm[] = {
"20 320 5 1",
" 	c None",
".	c #007878",
"X	c #00A0A0",
"o	c #00C8C8",
"O	c #00FFFF",
"                    ",
"         .X.        ",
"        .oOo.       ",
"        XOOOX       ",
"        oOOOo       ",
"        oOOOo       ",
"        oOOOo       ",
"      . oOOOo .     ",
"      . .XOX. .     ",
"      .  XOX  .     ",
"      .  XOX  .     ",
"      .  XOX  .     ",
"      .X oOo X.     ",
"      .XXoOoXX.     ",
"      .XXoOoXX.     ",
"      .XXoOoXX.     ",
"      .XXoOoXX.     ",
"      .X oOo X.     ",
"      .. .X. ..     ",
"                    ",
"                    ",
"             .X     ",
"           .oOo.    ",
"           oOOo.    ",
"          .OOOO.    ",
"        . oOOOo     ",
"       .  oOOOo     ",
"       X .XOOo.     ",
"       .  XOXo .    ",
"      .  .OOX. .    ",
"      .X XOX  .     ",
"     .XX oOX  X     ",
"     .XXoOo   .     ",
"     .XXoOoXX.      ",
"    .XXoOOoXX.      ",
"    .X oOoXX.       ",
"    . .oooXX.       ",
"       X. XX.       ",
"          ..        ",
"           .        ",
"                    ",
"                    ",
"                    ",
"             .X.    ",
"         .  XooX.   ",
"        .  XoOOoX   ",
"       .  XoOOOo.   ",
"      .  .oOOOoX    ",
"     .   .OOOoX     ",
"    .X  .XOOoX      ",
"   .XX .XOX..  .    ",
"  .XXXooOX.   .     ",
" .XXXooOo.   .      ",
"    ooOoo   .       ",
"   .oOooXXX.        ",
"    .ooXXX.         ",
"     . XX.          ",
"       X.           ",
"       .            ",
"                    ",
"                    ",
"                    ",
"                    ",
"                    ",
"                    ",
"          ..   X..  ",
"       ...   ooOOoX ",
"     ..X   .oOOOOO. ",
"  ...XXX  XXOOOOOO. ",
" ..XXXX XXOOOOOOoX  ",
" .XXXoooOOOXXooo    ",
"   oooOOoXX  .      ",
"  .oOOoo      .     ",
"  XoooXXXX ...      ",
"   . XXXX..         ",
"    XX...           ",
"    ...             ",
"                    ",
"                    ",
"                    ",
"                    ",
"                    ",
"                    ",
"                    ",
"                    ",
"                    ",
" ............       ",
" .XXXXXX            ",
"   XXXX    .ooooX.  ",
" .ooooooXXXXOOOOOo. ",
" XOOOOOOOOOOOOOOOOX ",
" .ooooooXXXXOOOOOo. ",
"   XXXX    .ooooX.  ",
" .XXXXXX            ",
" ............       ",
"                    ",
"                    ",
"                    ",
"                    ",
"                    ",
"                    ",
"                    ",
"                    ",
"                    ",
"   ...              ",
"    XX...           ",
"   . XXXX..         ",
"  XoooXXXX .X.      ",
"  .oOOoo      .     ",
"   ooOOOoX. .       ",
" .XXXoooOOOXXoo.    ",
"..XXXXX XXOOOOOOo.  ",
"  ...XX   XXOOOOOo  ",
"     ..   .ooOOOOO. ",
"       .X.  .ooOooX ",
"          ..   ...  ",
"                    ",
"                    ",
"                    ",
"                    ",
"                    ",
"       .            ",
"       X.           ",
"     . XX.          ",
"    .ooXXX.         ",
"   .oOooXXX.        ",
"    ooOoo   .       ",
" .XXXooOo.   .      ",
"  .XXXooOX.   .     ",
"   .XX .XOX..  .    ",
"    .X  .XOOoX      ",
"     .   .OOOoX     ",
"      .  .oOOOoX    ",
"       .  XoOOOo.   ",
"        .  XoOOoX   ",
"         .  ooX..   ",
"             .X.    ",
"                    ",
"                    ",
"                    ",
"                    ",
"         ..         ",
"      X. X..        ",
"     .oooXX.        ",
"   .X oOoXX.        ",
"   .XXoOooXX.       ",
"   ..XXoOoXX.       ",
"    .XXoOo XX.      ",
"    .XX oOX  .      ",
"     .X XOX  .      ",
"     .  XOOX  .     ",
"      .  XOX. .     ",
"      .  XOOo       ",
"      . .oOOOo      ",
"       . oOOOo      ",
"         oOOOOX     ",
"          oOOO.     ",
"          XOOo.     ",
"           ..X      ",
"                    ",
"                    ",
"     .. .X. ..      ",
"     .X oOo X.      ",
"     .XXoOoXX.      ",
"     .XXoOoXX.      ",
"     .XXoOoXX.      ",
"     .XXoOoXX.      ",
"     .X oOo X.      ",
"     .  XOX  .      ",
"     .  XOX  .      ",
"     .  XOX  .      ",
"     . .XOX. .      ",
"     . oOOOo .      ",
"       oOOOo        ",
"       oOOOo        ",
"       oOOOo        ",
"       XOOOX        ",
"       .oOo.        ",
"        .X.         ",
"                    ",
"        .           ",
"        ..          ",
"       .XX .X       ",
"       .XXooo. .    ",
"       .XXoOo X.    ",
"      .XXoOOoXX.    ",
"      .XXoOoXX.     ",
"     .   oOoXX.     ",
"     X  XOo XX.     ",
"     .  XOX X.      ",
"    . .XOO.  .      ",
"    . oXOX  .       ",
"     .oOOX. X       ",
"     oOOOo  .       ",
"     oOOOo .        ",
"    .OOOO.          ",
"    .oOOo           ",
"    .oOo.           ",
"     X.             ",
"                    ",
"                    ",
"            .       ",
"           .X       ",
"          .XX .     ",
"         .XXXoo.    ",
"        .XXXooOo.   ",
"       .   ooOoo    ",
"      .   .oOooXXX. ",
"     .   .XOooXXX.  ",
"    .  ..XOX. XX.   ",
"      XoOOX.  X.    ",
"     XoOOO.   .     ",
"    ooOOOo.  .      ",
"   .oOOOoX  .       ",
"   XXOOoX  .        ",
"   ..ooX  .         ",
"    .X.             ",
"                    ",
"                    ",
"                    ",
"                    ",
"                    ",
"                    ",
"             ..     ",
"           ...X.    ",
"         ..XXXX .   ",
"      ... XXXXoooX  ",
"     .      ooOOo.  ",
"      .  XXoOOooo   ",
"    oooXXOOOoooXXX. ",
"  XoOOOOOOXX XXXX.. ",
" .OOOOOOXX  XXX...  ",
" .OOOOOo.   X..     ",
" XoOOoo   ...       ",
"  ..X   ..          ",
"                    ",
"                    ",
"                    ",
"                    ",
"                    ",
"                    ",
"                    ",
"                    ",
"                    ",
"                    ",
"       ............ ",
"            XXXXXX. ",
"  .Xoooo.    XXXX   ",
" .oOOOOOXXXXoooooo. ",
" XOOOOOOOOOOOOOOOOX ",
" .oOOOOOXXXXoooooo. ",
"  .Xoooo.    XXXX   ",
"            XXXXXX. ",
"       ............ ",
"                    ",
"                    ",
"                    ",
"                    ",
"                    ",
"                    ",
"                    ",
"                    ",
"                    ",
"                    ",
"  ...   ..          ",
" XooOoo.  .X.       ",
" .OOOOOoo.   ..     ",
"  oOOOOOXX   XX...  ",
"  .oOOOOOOXX XXXXX..",
"    .ooXXOOOoooXXX. ",
"       . .XoOOOoo   ",
"     .      ooOOo.  ",
"      .X. XXXXoooX  ",
"         ..XXXX .   ",
"           ...XX    ",
"              ...   ",
"                    ",
"                    ",
"                    ",
"                    ",
"                    ",
"                    ",
"                    ",
"    .X.             ",
"   ..Xoo  .         ",
"   XoOOoX  .        ",
"   .oOOOoX  .       ",
"    XoOOOo.  .      ",
"     XoOOO.   .     ",
"      XoOOX.  X.    ",
"    .  ..XOX. XX.   ",
"     .   .XOooXXX.  ",
"      .   .oOooXXX. ",
"       .   ooOoo    ",
"        .XXXooOo.   ",
"         .XXXoo.    ",
"          .XX .     ",
"           .X       ",
"            .       ",
"                    ",
"                    ",
"      X..           ",
"     .oOOX          ",
"     .OOOo          ",
"     XOOOOo         ",
"      oOOOo .       ",
"      oOOOo. .      ",
"       oOOX  .      ",
"     . .XOX  .      ",
"     .  XOOX  .     ",
"      .  XOX X.     ",
"      .  XOo XX.    ",
"      .XX oOoXX.    ",
"       .XXoOoXX..   ",
"       .XXooOoXX.   ",
"        .XXoOo .    ",
"        .XXooo.     ",
"        ..X .       ",
"         ..         ",
"                    "};
