/* XPM */
static char * C2_xpm[] = {
"20 320 5 1",
" 	c None",
".	c #00A0A0",
"X	c #00C8C8",
"o	c #00FFFF",
"O	c #007878",
"                    ",
"                    ",
"         ..         ",
"        .XX.        ",
"        XooX        ",
"        OooO        ",
"         ..         ",
"         ..         ",
"     o  OXXO  o     ",
"     o  XooX  o     ",
"    Oo  XooX  oO    ",
"    .o .XooX. o.    ",
"    Oo..XooX..oO    ",
"    Oo..XooX..oO    ",
"    Oo .OOOO. oO    ",
"    Oo  OXXO  oO    ",
"     X        X     ",
"     .        .     ",
"                    ",
"                    ",
"                    ",
"                    ",
"           O..      ",
"           XoXO     ",
"          Oooo.     ",
"           oo.      ",
"      o    .O       ",
"     Oo   X.O       ",
"    .oO  XoX        ",
"    Oo O.oooO       ",
"    Oo..Xooo  Oo    ",
"   Oo...XooX. oO    ",
"   Oo .XooX.. oO    ",
"   Xo  OOOX..oO     ",
"   .   OXXO..oO     ",
"         O  oO      ",
"            oO      ",
"            X       ",
"           .        ",
"                    ",
"                    ",
"                    ",
"                    ",
"               .    ",
"             XX..   ",
"      OoX   OooX    ",
"     .oX    .ooX    ",
"    OoX   O...O     ",
"   OoX.O XoX.       ",
"  OoX...XoooO       ",
"  XX ..XoooX        ",
" ..  OOoooX   X     ",
"     OOOoX.O Xo     ",
"      XOO...XoO     ",
"       OO..Xo.      ",
"          XoO       ",
"         XoO        ",
"        .XO         ",
"        .           ",
"                    ",
"                    ",
"                    ",
"                    ",
"                    ",
"       OOo          ",
"     OOooO     ..   ",
"   OOoo       .oX.  ",
"  Xoo.... . ..ooo.  ",
" .   ...XooX..ooXO  ",
"     OXXooooX  O    ",
"    OXOooooX        ",
"     XOoXXX         ",
"     OOX..O         ",
"       ... Ooo      ",
"        .oooO       ",
"      oooOO.        ",
"     .XOO           ",
"                    ",
"                    ",
"                    ",
"                    ",
"                    ",
"                    ",
"                    ",
"    OOOO.O          ",
"  .Xoooooooo        ",
"      ..            ",
"     ....           ",
"    OOXXXXXO  OX.   ",
"    XOoooooX..ooX.  ",
"    XOoooooX..ooX.  ",
"    OOXXXXXO  OX.   ",
"     ....           ",
"      ..            ",
"  .Xoooooooo        ",
"    OOOO.O          ",
"                    ",
"                    ",
"                    ",
"                    ",
"                    ",
"                    ",
"                    ",
"     .XOO           ",
"      oooOO.        ",
"        .oooO       ",
"       ... Ooo      ",
"     OOX..O         ",
"     XOoXX.         ",
"    OXOooooX        ",
"     OXXooooX  O    ",
" .   ...XooX..ooXO  ",
"  Xoo.... O OOooo.  ",
"   OOoo       .oX.  ",
"     OOooO     .O   ",
"       OOo          ",
"                    ",
"                    ",
"                    ",
"                    ",
"                    ",
"        .           ",
"        .XO         ",
"         XoO        ",
"          XoO       ",
"       OO..Xo.      ",
"      XOO...XoO     ",
"     OOOoX.O Xo     ",
" ..  OOoooX   X     ",
"  XX ..XoooX        ",
"  OoX...XoooO       ",
"   OoX.O XoX.       ",
"    OoX   O...O     ",
"     .oX    .ooX    ",
"      OoX   OooX    ",
"             XX..   ",
"               .    ",
"                    ",
"                    ",
"                    ",
"                    ",
"           .        ",
"            X       ",
"            oO      ",
"         O  oO      ",
"   .   OXXO..oO     ",
"   Xo  OOOX..oO     ",
"   Oo .XooX.. oO    ",
"   Oo...XooX. oO    ",
"    Oo..Xooo  Oo    ",
"    Oo OXooo.       ",
"    .oO  XoX        ",
"     Oo   X..       ",
"      o    ..       ",
"           oo.      ",
"          Oooo.     ",
"           Xo..     ",
"           O..      ",
"                    ",
"                    ",
"                    ",
"                    ",
"     .        .     ",
"     X        X     ",
"    Oo  OXXO  o     ",
"    Oo .OOOO. oO    ",
"    Oo..XooX..oO    ",
"    Oo..XooX..oO    ",
"    .o .XooX. o.    ",
"    Oo  XooX  oO    ",
"     o  XooX  o     ",
"     o  OXXO  o     ",
"         ..         ",
"         ..         ",
"        OooO        ",
"        XooX        ",
"        .XX.        ",
"         ..         ",
"                    ",
"                    ",
"                    ",
"        .           ",
"       X            ",
"      Oo            ",
"      Oo  O         ",
"     Oo..OXXO   O   ",
"     Oo..XOOO  oX   ",
"    Oo ..XooX. oO   ",
"    Oo .XooX...oO   ",
"    oO  oooX..oO    ",
"       Oooo.O oO    ",
"        XoX  Oo.    ",
"       O.X   oO     ",
"       O.    o      ",
"      .oo           ",
"     .oooO          ",
"     OXoX           ",
"      ..O           ",
"                    ",
"                    ",
"                    ",
"           .        ",
"         OX.        ",
"        OoX         ",
"       OoX          ",
"      .oX..OO       ",
"     OoX...OOX      ",
"     oX O.XoOOO     ",
"     X   XoooOO  .. ",
"        XoooX.. XX  ",
"       OoooX...XoO  ",
"       .XoX O.XoO   ",
"     O...O   XoO    ",
"    Xoo.    Xo.     ",
"    XooO   XoO      ",
"   ..XX             ",
"    .               ",
"                    ",
"                    ",
"                    ",
"                    ",
"                    ",
"                    ",
"           OOX.     ",
"        .OOooo      ",
"       Oooo.        ",
"      ooO ...       ",
"         O..XOO     ",
"         XXXoOX     ",
"        XooooOXO    ",
"    O  XooooXXO     ",
"  OXoo..XooX...   . ",
"  .ooo.. . ....ooX  ",
"  ..o.       ooOO   ",
"   ..     OooOO     ",
"          oOO       ",
"                    ",
"                    ",
"                    ",
"                    ",
"                    ",
"                    ",
"                    ",
"                    ",
"          O.OOOO    ",
"        ooooooooX.  ",
"            ..      ",
"           ....     ",
"   .XO  OXXXXXOO    ",
"  .Xoo..XoooooOX    ",
"  .Xoo..XoooooOX    ",
"   .XO  OXXXXXOO    ",
"           ....     ",
"            ..      ",
"        ooooooooX.  ",
"          O.OOOO    ",
"                    ",
"                    ",
"                    ",
"                    ",
"                    ",
"                    ",
"                    ",
"                    ",
"          oOO       ",
"   O.     OooOO     ",
"  .Xo.       ooOO   ",
"  .oooOO O ....ooX  ",
"  OXoo..XooX...   O ",
"    O  XooooXXO     ",
"        XooooOXO    ",
"         .XXoOX     ",
"         O..XOO     ",
"      ooO ...       ",
"       Oooo.        ",
"        .OOooo      ",
"           OOX.     ",
"                    ",
"                    ",
"                    ",
"                    ",
"                    ",
"                    ",
"    .               ",
"   ..XX             ",
"    XooO   XoO      ",
"    Xoo.    Xo.     ",
"     O...O   XoO    ",
"       .XoX O.XoO   ",
"       OoooX...XoO  ",
"        XoooX.. XX  ",
"     X   XoooOO  .. ",
"     oX O.XoOOO     ",
"     OoX...OOX      ",
"      .oX..OO       ",
"       OoX          ",
"        OoX         ",
"         OX.        ",
"           .        ",
"                    ",
"                    ",
"                    ",
"      ..O           ",
"     ..oX           ",
"     .oooO          ",
"      .oo           ",
"       ..    o      ",
"       ..X   oO     ",
"        XoX  Oo.    ",
"       .oooXO oO    ",
"    oO  oooX..oO    ",
"    Oo .XooX...oO   ",
"    Oo ..XooX. oO   ",
"     Oo..XOOO  oX   ",
"     Oo..OXXO   .   ",
"      Oo  O         ",
"      Oo            ",
"       X            ",
"        .           ",
"                    "};
