/* XPM */
static char * C5_xpm[] = {
"20 20 6 1 XPMEXT",
" 	c None",
".	c #007878",
"X	c #00A0A0",
"o	c #00C8C8",
"O	c #00FFFF",
"@	c #007FEF",
"                    ",
"  .X.          .X.  ",
" .Xoo          ooX. ",
" Xooo          oooX ",
" .oooo O   O  oooo. ",
"    ooo.    Oooo    ",
"   O ooo....ooo O   ",
"  O  .oooXX.oo.     ",
"      .oOOO...      ",
"      .XO@OOX.      ",
"      .XOO@OX.      ",
"      ...OOOo.      ",
"     .oo.XXooo.  O  ",
"   O ooo....ooo O   ",
"    oooO    .ooo    ",
" .oooo  O   O oooo. ",
" Xooo          oooX ",
" .Xoo          ooX. ",
"  .X.          .X.  ",
"                    ",
"XPMEXT nviews",
"1",
"XPMENDEXT"};
