/* XPM */
static char * SC9_xpm[] = {
"20 320 5 1",
" 	c None",
".	c #00C8C8",
"X	c #00FFFF",
"o	c #007878",
"O	c #00A0A0",
"                    ",
"                    ",
"          .         ",
"         .X.        ",
"         o.o        ",
"          .         ",
"        .....       ",
"         O.O        ",
"          .         ",
"        X . X       ",
"        o . o       ",
"        o.o.o       ",
"        X. .X       ",
"        o   o       ",
"        X   X       ",
"        X   X       ",
"        o   o       ",
"                    ",
"                    ",
"                    ",
"                    ",
"                    ",
"             o      ",
"            o.O     ",
"           o.X.     ",
"          o OOO     ",
"          O..       ",
"           .O.o     ",
"         . .o       ",
"        o ..        ",
"        o..  .      ",
"       oX...o       ",
"       o o.Xo       ",
"       X   X        ",
"      O    o        ",
"          X         ",
"          O         ",
"                    ",
"                    ",
"                    ",
"                    ",
"                    ",
"                    ",
"                    ",
"              O.o   ",
"             oOX.   ",
"           O  .OO   ",
"           O.. o    ",
"         . o..      ",
"        o O.oOO     ",
"       ooO.O        ",
"      .oOoO .       ",
"     o   Ooo        ",
"    .    oo         ",
"         .          ",
"        o           ",
"       .            ",
"                    ",
"                    ",
"                    ",
"                    ",
"                    ",
"                    ",
"                    ",
"                    ",
"                    ",
"            o O.O   ",
"         .  . OX.o  ",
"       oo  oO.O.o   ",
"     oXX. .... o    ",
"   OX  ....  Oo     ",
"       o.. .        ",
"        Xoo         ",
"      Xoo           ",
"     O              ",
"                    ",
"                    ",
"                    ",
"                    ",
"                    ",
"                    ",
"                    ",
"                    ",
"                    ",
"                    ",
"                    ",
"                    ",
"                    ",
"   oXXoXooX  .      ",
"       ..   O. o.   ",
"        o.......X.  ",
"       ..   O. o.   ",
"   oXXoXooX  .      ",
"                    ",
"                    ",
"                    ",
"                    ",
"                    ",
"                    ",
"                    ",
"                    ",
"                    ",
"                    ",
"                    ",
"                    ",
"                    ",
"     O              ",
"      Xoo           ",
"        Xoo         ",
"       o.. .        ",
"   OX  ....  Oo     ",
"     oXX. .... o    ",
"       oo  oO.O.o   ",
"         .  . OX.o  ",
"            o O.O   ",
"                    ",
"                    ",
"                    ",
"                    ",
"                    ",
"                    ",
"                    ",
"                    ",
"                    ",
"      .             ",
"       o            ",
"        .           ",
"   .    oo          ",
"    o   Ooo         ",
"     .oOoO .        ",
"      ooO.O         ",
"       o O.oOO      ",
"        . o..       ",
"          O.. o     ",
"          O  .OO    ",
"            oOX.    ",
"             O.o    ",
"                    ",
"                    ",
"                    ",
"                    ",
"                    ",
"                    ",
"         O          ",
"         X          ",
"     O    o         ",
"      X   X         ",
"      o o.Xo        ",
"      oX...o        ",
"       o..  .       ",
"       o ..         ",
"        . .o        ",
"          .O.o      ",
"         O..        ",
"         o OOO      ",
"          o.X.      ",
"           o.O      ",
"            o       ",
"                    ",
"                    ",
"                    ",
"                    ",
"                    ",
"       o   o        ",
"       X   X        ",
"       X   X        ",
"       o   o        ",
"       X. .X        ",
"       o.o.o        ",
"       o . o        ",
"       X . X        ",
"         .          ",
"        O.O         ",
"       .....        ",
"         .          ",
"        o.o         ",
"        .X.         ",
"         .          ",
"                    ",
"                    ",
"                    ",
"                    ",
"                    ",
"         O          ",
"         X          ",
"        o    O      ",
"        X   X       ",
"       oX.o o       ",
"       o...Xo       ",
"      .  ..o        ",
"        .. o        ",
"       o. .         ",
"     o.O.           ",
"       ..O          ",
"     OOO o          ",
"     .X.o           ",
"     O.o            ",
"      o             ",
"                    ",
"                    ",
"                    ",
"                    ",
"                    ",
"            .       ",
"           o        ",
"          .         ",
"         oo    .    ",
"        ooO   o     ",
"       . OoOo.      ",
"        O.Ooo       ",
"     OOo.O o        ",
"      ..o .         ",
"    o ..O           ",
"   OO.  O           ",
"   .XOo             ",
"   o.O              ",
"                    ",
"                    ",
"                    ",
"                    ",
"                    ",
"                    ",
"                    ",
"                    ",
"                    ",
"              O     ",
"           ooX      ",
"         ooX        ",
"        . ..o       ",
"     oO  ....  XO   ",
"    o .... .XXo     ",
"   o.O.Oo  oo       ",
"  o.XO .  .         ",
"   O.O o            ",
"                    ",
"                    ",
"                    ",
"                    ",
"                    ",
"                    ",
"                    ",
"                    ",
"                    ",
"                    ",
"                    ",
"                    ",
"                    ",
"      .  XooXoXXo   ",
"   .o .O   ..       ",
"  .X.......o        ",
"   .o .O   ..       ",
"      .  XooXoXXo   ",
"                    ",
"                    ",
"                    ",
"                    ",
"                    ",
"                    ",
"                    ",
"                    ",
"                    ",
"                    ",
"                    ",
"                    ",
"                    ",
"   O.O o            ",
"  o.XO .  .         ",
"   o.O.Oo  oo       ",
"    o .... .XXo     ",
"     oO  ....  XO   ",
"        . ..o       ",
"         ooX        ",
"           ooX      ",
"              O     ",
"                    ",
"                    ",
"                    ",
"                    ",
"                    ",
"                    ",
"                    ",
"                    ",
"                    ",
"    o.O             ",
"    .XOo            ",
"    OO.  O          ",
"     o ..O          ",
"       ..o .        ",
"      OOo.O o       ",
"         O.Ooo      ",
"        . OoOo.     ",
"         ooO   o    ",
"          oo    .   ",
"           .        ",
"            o       ",
"             .      ",
"                    ",
"                    ",
"                    ",
"                    ",
"                    ",
"                    ",
"       o            ",
"      O.o           ",
"      .X.o          ",
"      OOO o         ",
"        ..O         ",
"      o.O.          ",
"        o. .        ",
"         .. o       ",
"       .  ..o       ",
"        o...Xo      ",
"        oX.o o      ",
"         X   X      ",
"         o    O     ",
"          X         ",
"          O         ",
"                    ",
"                    ",
"                    "};
