/* XPM */
static char * CA_xpm[] = {
"20 320 8 1",
" 	c None",
".	c #00A0A0",
"+	c #00FFFF",
"@	c #00C8C8",
"#	c #007878",
"$	c #FFFF00",
"%	c #FF0000",
"&	c #B00000",
"                    ",
"         ..         ",
"        .++.        ",
"        @++@        ",
"     .  #++#  .     ",
"    .    @@    .    ",
"    @    @@    @    ",
"    @   .@@.   @    ",
"    @.  @@@@  .@    ",
"    @@  @++@  @@    ",
"    $@ .@++@. @$    ",
"    $@.@++++@.@$    ",
"    $@.++%%++.@$    ",
"    $@. .&&. .@$    ",
"     $        $     ",
"     @        @     ",
"      @      @      ",
"                    ",
"                    ",
"                    ",
"                    ",
"                    ",
"           #..      ",
"       .#  @++#     ",
"      .   #++@.     ",
"      @    @+#      ",
"     @#   #@@   #   ",
"     @.  .@@    #   ",
"    $@# #@@@.   .   ",
"    $@ #@++@.   @   ",
"   $.@.@@++@# #.@   ",
"   $#.+++++@# #.    ",
"   $.. +%%+@@ @$    ",
"   @$  .&&++.@$     ",
"   .      . .@$     ",
"    @       @$      ",
"            $       ",
"          #@@       ",
"                    ",
"                    ",
"                    ",
"                    ",
"                    ",
"        @..   #.    ",
"       @#    @+..   ",
"      @.    #+++#   ",
"     $@@    @++@    ",
"    $@@   .@@@#     ",
"   $@@..#@@@@       ",
"   $@.@@@++@.   .   ",
"  @$. +++++@    .   ",
"  @   .%++@#   #@   ",
"  @   &&%+@. @.@    ",
"       &.+@.@@@     ",
"          .@@$      ",
"         .@@$       ",
"         $$$        ",
"       @@@          ",
"                    ",
"                    ",
"                    ",
"                    ",
"                    ",
"          @@..#     ",
"        $@@         ",
"      $$@@.     .#  ",
"     $@@       #@+  ",
"   @$@..@.#@. @+++  ",
"   @   +@@@@@@@@+@  ",
"   #  .+++++@@  #   ",
"       &%+++@.      ",
"       &%+@@     .  ",
"       .++@.     #  ",
"         +. @.#@.   ",
"        ..@@@@@     ",
"     @ $.@.$$       ",
"      .@$$$         ",
"                    ",
"                    ",
"                    ",
"                    ",
"                    ",
"                    ",
"                    ",
"      $$$$@@@@.     ",
"    @$@@@@@.   .    ",
"   @  ...           ",
"       +@.          ",
"      .++@@@.  #@.  ",
"      &%+++@@@@+++. ",
"      &%+++@@@@+++. ",
"      .++@@@.  #@.  ",
"       +@.          ",
"   @  ...           ",
"    @$@@@@@.   .    ",
"      $$$$@@@@.     ",
"                    ",
"                    ",
"                    ",
"                    ",
"                    ",
"                    ",
"                    ",
"     .@$$$          ",
"    @ $.#.$$        ",
"       ..@@@@@      ",
"        +. #.#@.    ",
"      .++@#     .   ",
"      &%+@@#    #   ",
"      &%+++@.       ",
"  #  .+++++@@# #    ",
"  @   +@@@@@@@@+@#  ",
"  @$@..@##.. @+++.  ",
"    $@@       #@+.  ",
"     $$@##     .#   ",
"       $..          ",
"         @@.#       ",
"                    ",
"                    ",
"                    ",
"                    ",
"                    ",
"       @@@          ",
"         $$$        ",
"         .@@$       ",
"          .@@$      ",
"       &.+@.@@@     ",
"  @   &&%+@. @.@    ",
"  @   .%++@#   #@   ",
"  @$. +++++@    .   ",
"   $@.@@@++@.   .   ",
"   $@@..#@@@@       ",
"    $@@   .@@@#     ",
"     $@@    @++@    ",
"      @.    #+++#   ",
"       @#    @+..   ",
"        @..   #.    ",
"                    ",
"                    ",
"                    ",
"                    ",
"                    ",
"                    ",
"          #@@       ",
"            $       ",
"    @       @$      ",
"   .      . .@$     ",
"   @$  .&&++.@$     ",
"   $.. +%%+@@ @$    ",
"   $@.+++++@. @@    ",
"   $.@.@@++@# .@@   ",
"    $@ .@++@@   @   ",
"    $@@ #@@@.   .   ",
"     @.  .@@    .   ",
"     @#    @@   #   ",
"      @    @+#      ",
"      .   #++..     ",
"       #.  @++#     ",
"           ...      ",
"                    ",
"                    ",
"                    ",
"                    ",
"      @      @      ",
"     @        @     ",
"     $        $     ",
"    $@. .&&. .@$    ",
"    $@.++%%++.@$    ",
"    $@.@++++@.@$    ",
"    $@ .@++@. @$    ",
"    @@  @++@  @@    ",
"    @.  @@@@  .@    ",
"    @   .@@.   @    ",
"    @    @@    @    ",
"    .    @@    .    ",
"     .  #++#  .     ",
"        @++@        ",
"        .++.        ",
"         ..         ",
"                    ",
"                    ",
"                    ",
"       @@#          ",
"       $            ",
"      $@       @    ",
"     $@. .      .   ",
"     $@.++&&.  $@   ",
"    $@ @@+%%+ ..$   ",
"    .# #@+++++.#$   ",
"   @.# #@++@@.@.$   ",
"   @   .@++@# @$    ",
"   .   .@@@# #@$    ",
"   #    @@.  .@     ",
"       @@#   #@     ",
"      #+@    @      ",
"     .@++#   .      ",
"     #++@  #.       ",
"      ..#           ",
"                    ",
"                    ",
"                    ",
"                    ",
"          @@@       ",
"        $$$         ",
"       $@@.         ",
"      $@@.          ",
"     @@@.@+.&       ",
"    @.@ .@+%&&   @  ",
"   @#   #@++%.   @  ",
"   .    @+++++ .$@  ",
"   .   .@++@@@.@$   ",
"       @@@@#..@@$   ",
"     #@@@.   @@$    ",
"    @++@    @@$     ",
"   #+++#    .@      ",
"   ..+@    #@       ",
"    .#   ..@        ",
"                    ",
"                    ",
"                    ",
"                    ",
"                    ",
"                    ",
"         $$$@.      ",
"       $$.@.$ @     ",
"     @@@@@..        ",
"   .@#.@ .+         ",
"  #     .@++.       ",
"  .    #@@+%&       ",
"      .@+++%&       ",
"   #  @@+++++.  #   ",
" .@+@@@@@@@@+   @   ",
" .+++@ .@#.@..@$@   ",
" .+.#       @@$     ",
"  #.     .@@$$      ",
"         @@$        ",
"     #..@@          ",
"                    ",
"                    ",
"                    ",
"                    ",
"                    ",
"                    ",
"                    ",
"     .@@@@$$$$      ",
"    .   .@@@@@$@    ",
"           ...  @   ",
"          .@+       ",
"  .@#  .@@@++.      ",
" .+++@@@@+++%&      ",
" .+++@@@@+++%&      ",
"  .@#  .@@@++.      ",
"          .@+       ",
"           ...  @   ",
"    .   .@@@@@$@    ",
"     .@@@@$$$$      ",
"                    ",
"                    ",
"                    ",
"                    ",
"                    ",
"                    ",
"                    ",
"       #.@@         ",
"          ..$       ",
"   #.     ##@$$     ",
"  .+@#       @@$    ",
"  .+++@ ..##@..@$@  ",
"  #@+@@@@@@@@+   @  ",
"    # #@@+++++.  #  ",
"       .@+++%&      ",
"   #    #@@+%&      ",
"   .     #@++.      ",
"    .@#.# .+        ",
"      @@@@@..       ",
"        $$.#.$ @    ",
"          $$$.#     ",
"                    ",
"                    ",
"                    ",
"                    ",
"                    ",
"                    ",
"    .#   ..@        ",
"   ..+@    #@       ",
"   #+++#    .@      ",
"    @++@    @@$     ",
"     #@@@.   @@$    ",
"       @@@@#..@@$   ",
"   .   .@++@@@.@$   ",
"   .    @+++++ .$@  ",
"   @#   #@++%.   @  ",
"    @.@ .@+%&&   @  ",
"     @@@.@+.&       ",
"      $@@.          ",
"       $@@.         ",
"        $$$         ",
"          @@@       ",
"                    ",
"                    ",
"                    ",
"      ...           ",
"     #++@  .#       ",
"     ..++#   .      ",
"      #+@    @      ",
"   #   @@    #@     ",
"   .    @@#  .@     ",
"   .   .@@@. @@$    ",
"   @   @@++@. @$    ",
"   @@. #@++@@.@.$   ",
"    @@ #@+++++.@$   ",
"    $@ @@+%%+ ..$   ",
"     $@.++&&.  $@   ",
"     $@. .      .   ",
"      $@       @    ",
"       $            ",
"       @@#          ",
"                    ",
"                    ",
"                    "};
