/* XPM */
static char * CV_xpm[] = {
"20 320 6 1",
" 	c None",
".	c #007878",
"+	c #00A0A0",
"@	c #00C8C8",
"#	c #00FFFF",
"$	c #FFFF00",
"        .  .        ",
"       .+  +.       ",
"       +@  @+       ",
"       .@@@@.       ",
"   .    +##+    .   ",
"  .@  .+@##@+.  @.  ",
"  @@  +@####@+  @@  ",
"  $@  .@#@@#@.  @$  ",
"  $@.  @#@@#@  .@$  ",
"  $$@+@@#++#@@+@$$  ",
"   $@++@#..#@++@$   ",
"   $@++@@##@@++@$   ",
"        +##+        ",
"     + @@##@@ +     ",
"    .@+@####@+@.    ",
"    @@+@@##@@+@@    ",
"    +@@ @##@ @@+    ",
"    ... @@@@ ...    ",
"     .. +..+ ..     ",
"         ..         ",
"           ..       ",
"          ..  .     ",
"         .++  ..    ",
"    .@   .@. @+.    ",
"   @@     +@@@+     ",
"   $@  ++@###@.     ",
"  $$@  .@###@       ",
"  $@@. @@####+.     ",
"  $@@+@@#@@#@@+  .  ",
"  $@+++@#+@@@.   @. ",
"    ++@#..+#@   @@. ",
"       @#.#@@+@+@$  ",
"  .@ ..+##@@++@@$   ",
"  @@+@@##+  ++@$$   ",
" +@@+@###@.   $$    ",
" ..@ @####@ +       ",
"  .. @##@@+@..      ",
"     @@@@ @@@       ",
"     ..+ .@@+       ",
"     ..  ...        ",
"                    ",
"                    ",
"      @.@    +..    ",
"     $$@    +++     ",
"     $@   . .@   .  ",
"    $$.  ++++@  +.  ",
"    $@+  @@@##@@++  ",
"    @++@@@####+.+   ",
"     ++@@#@@#@+     ",
"  .+  @@#+@@#@+.    ",
" @@@   @..+#@@+     ",
".@@+@@+##.#@@    @  ",
"..@@@####@@@@   @.  ",
"..  @###+ @+++.@$@  ",
"   @####@  ++@$$$   ",
"  +@@#@@@   @$$     ",
"  ..@@ @+@+         ",
"  ..+  @@@.         ",
"      ..@@          ",
"      ...           ",
"                    ",
"         .          ",
"        $@@.        ",
"      $$@@          ",
"     $$@.       ..  ",
"     $@@@  +. .++.. ",
"   .  +++ .@+ @@@   ",
" +@.+ ++@@@@#@#@   .",
".@@@   @@######@.+..",
".@@+@+ @#+@@###+@+. ",
".. @#@+#..+@##@ ..  ",
"  @@#####.##@@+     ",
" +@####+@#@@@.+     ",
"..@###@+ @+@        ",
"..@@@@@. +++.   @   ",
"     ++  +@@@@@@.   ",
"   .@@@@  @@@$$@    ",
"   ..@@.  $$$$      ",
"    .+              ",
"                    ",
"                    ",
"                    ",
"          $$$@.     ",
"        $$$@@@@.    ",
"  .+@.  @@@.        ",
" ..@@@+ +++         ",
" ..@++  ++@ .+.     ",
"    @@@ @@@@@@+ .+. ",
" +@@@#@+@#####@+@@+.",
"..@######.+@@###@   ",
"..@######.+@@###@   ",
" +@@@#@+@#####@+@@+.",
"    @@@ @@@@@@+ .+. ",
" ..@++  ++@ .+.     ",
" ..@@@+ +++         ",
"  .+@.  @@@.        ",
"        $$$@@@@.    ",
"          $$$@.     ",
"                    ",
"                    ",
"                    ",
"    .+              ",
"   ..@@.  $$$$      ",
"   .@@@@  @@@$$     ",
"     ++  ++@@@@@    ",
"..@@@@@. +++.  @.   ",
"..@###@. @+@        ",
" +@####+@#@@@.+     ",
"  @@#####.##@@+     ",
".. @#@+#..+@##@ ..  ",
".@@+@. @#+@@###+@+. ",
".@@@   @@#@####@.+..",
" +@.+ ++@@@@#@#@   .",
"   .  +++ .@+ @@@   ",
"     $@@@  +. .++.. ",
"     $$@+       ..  ",
"      $$@@          ",
"        $@@.        ",
"         .          ",
"                    ",
"      ...           ",
"      ..@@          ",
"  ..+  @@@.         ",
"  ..@@ @+@+         ",
"  +@@#@@@   @$$     ",
"   @####@  ++@$$$   ",
"..  @###+ @+++.@$@  ",
"..@@@####@@@@   @.  ",
".@@+@@+##.#@@    @  ",
" @@@   @..+#@@+     ",
"  .+  @@#+@@#@+.    ",
"     ++@@#@@#@+     ",
"    @++@@@####+.+   ",
"    $@+  @@@##@@++  ",
"    $$.  ++++@  +.  ",
"     $@   . @@   .  ",
"     $$@    +++     ",
"      @.@    +..    ",
"                    ",
"                    ",
"     ..  ...        ",
"     ..+ .@@+       ",
"     @@@@ @@@       ",
"  .. @##@@+@..      ",
" ..@ @####@ +       ",
" +@@+@###@+   $$    ",
"  @@+@@##+  ++@$$   ",
"  .@ .++##@@++@@$   ",
"       @#.#@@+@.@$  ",
"    ++@#..+#@   @@  ",
"  $@@++@#+@#@.   @. ",
"  $@@+@@#@@#@@+  .  ",
"  $@@. @@####+.     ",
"  $$@  .@###@       ",
"   $@  ++@###@.     ",
"   @@     +@@@+     ",
"    .@   .@. @@.    ",
"         .++  +.    ",
"          ..  .     ",
"           ..       ",
"         ..         ",
"     .. +..+ ..     ",
"    ... @@@@ ...    ",
"    +@@ @##@ @@.    ",
"    @@+@@##@@+@+    ",
"    .@+@####@+@@    ",
"     + @@##@@ +     ",
"        +##+        ",
"   $@++@@##@@++@$   ",
"   $@++@#..#@++@$   ",
"  $$@+@@#++#@@+@$$  ",
"  $@.  @#@@#@  .@$  ",
"  $@  .@#@@#@.  @$  ",
"  @@  +@####@+  @@  ",
"  .@  .+@##@+.  @.  ",
"   .    +##+    .   ",
"       .@@@@.       ",
"       +@  @+       ",
"       .+  +.       ",
"        .  .        ",
"        ...  ..     ",
"       +@@. +..     ",
"       @@@ @@@@     ",
"      ..@+@@##@     ",
"       + @####@ ..  ",
"    $$   .@###@ @.. ",
"   $$@++  +##@@+@@+ ",
"   $@@++@@##+.. @.  ",
"  $@+@+@@#.#@       ",
" .@@   @#+..#@++    ",
"  @   .@@@+#@+++@$  ",
"  .  +@@#@@#@@+@@$  ",
"     .+####@@ .@@$  ",
"       @###@.  @$$  ",
"     .@###@++  @$   ",
"     +@@@+    @@    ",
"    .+@ .@.   +     ",
"    ..  ++.         ",
"     .  ..          ",
"       ..           ",
"           ...      ",
"          @@..      ",
"         .@@@  +..  ",
"         +@+@ @+..  ",
"     $$@   @@@#@@+  ",
"   $$$@++  @####@   ",
"  @$@.+++@ +###@    ",
"  .@   @@@@####@@@..",
"  @    @@#.##+@@+@..",
"     +@@#+..@   @@@ ",
"    .+@#@@+#@@  +.  ",
"     +@#@@#@@++     ",
"   +@+####@@@++@    ",
"  ++@@##@@@  +@$    ",
"  .+  @++++  .$$    ",
"  .   @. .   @$     ",
"     +++    @$      ",
"    ..+    @.@      ",
"                    ",
"                    ",
"                    ",
"              +.    ",
"      $$$$  .@@..   ",
"    @$$@@@  @@@..   ",
"   .@@@@@@+  ++     ",
"   @   .+++ .@@@@@..",
"        @+@ +@###@..",
"     +.@@@#@+####@@ ",
"     +@@##.#####@@  ",
"  .. @##@+..#+@#@ ..",
" .+@+###@@+#@ +@+@@.",
"..+.@######@@   @@@ ",
".   @#@#@@@@++ +.@+ ",
"   @@@ +@. +++  .   ",
" .+@+. .+  @@@$     ",
"  ..       .@$$     ",
"          @@$$      ",
"        .@@$        ",
"         .          ",
"                    ",
"                    ",
"                    ",
"     .@$$$          ",
"    .@@@@$$$        ",
"        .@@@  .+..  ",
"         +++ +@@@.. ",
"     .+. @++  +@@.. ",
" .+. +@@@@@@ @@@    ",
".+@@+@#####@+@#@@@@ ",
"   @###@@+.######@..",
"   @###@@+.######@..",
".+@@+@#####@+@#@@@+ ",
" .+. +@@@@@@ @@@    ",
"     .+. @++  ++@.. ",
"         +++ +@@@.. ",
"        .@@@  @+..  ",
"    .@@@@$$$        ",
"     .@$$$          ",
"                    ",
"                    ",
"                    ",
"          .         ",
"        .@@$        ",
"          @@$$      ",
"  ..       +@$$     ",
" ..++. .+  @@@$     ",
"   @@@ +@. +++      ",
".   @#@#@@@@++ +.@  ",
"..+.@####@#@@   @@+ ",
" .+@+###@@+#@ .@+@@.",
"  .. @##@+..#+@#@ ..",
"     +@@##.#####@@  ",
"     +.@@@#@+####@+ ",
"        @+@ .@###@..",
"   +@  .+++ .@@@@@..",
"    @@@@@++  +      ",
"     $$@@@  @@@.    ",
"      $$$$  .@..    ",
"             +.     ",
"                    ",
"                    ",
"                    ",
"    ..+    @.@      ",
"     +++    @$$     ",
"  .   @@ .   @$     ",
"  .+  @++++  .$$    ",
"  ++@@##@@@  +@$    ",
"   +.+####@@@++@    ",
"     +@#@@#@@++     ",
"    .+@#@@+#@@  +.  ",
"     +@@#+..@   @@@ ",
"  @    @@#.##+@@+@@ ",
"  .@   @@@@####@@@..",
"  @$@.+++@ +###@  ..",
"   $$$@++  @####@   ",
"     $$@   @@@#@++  ",
"         +@+@ @+..  ",
"         .@@@  +..  ",
"          @..       ",
"           ..       ",
"       ..           ",
"     .  ..          ",
"    .+  ++.         ",
"    .@@ .@.   @.    ",
"     +@@@+     @@   ",
"     .@###@++  @$   ",
"       @###@.  @@$  ",
"     .+####@@ .@@$  ",
"  .  +@@#@@#@@+@@$  ",
" .@   .@#@+#@++@@$  ",
"  @@   @#+..#@++    ",
"  $@.@+@@#.#@       ",
"   $@@++@@##++. @.  ",
"   $$@++  +##@@+@@  ",
"    $$   +@###@+@@+ ",
"       + @####@ ... ",
"      ..@+@@##@ ..  ",
"       @@@ @@@@     ",
"       +@@. @..     ",
"         ..  ..     "};
