/* XPM */
static char * C4_xpm[] = {
"20 320 5 1",
" 	c None",
".	c #00A000",
"X	c #00C800",
"o	c #00FF00",
"O	c #007800",
"                    ",
"         ...        ",
"        .XoX.       ",
"        .XoX.       ",
"         OOO        ",
"        .XoX.       ",
"        .XoX.       ",
"        .XoX.       ",
"         OOO        ",
"     O  .XoX.  O    ",
"     OO.XXoXX.OO    ",
"     OO.XXoXX.OO    ",
"     OO.XXoXX.OO    ",
"     OO.XXoXX.OO    ",
"     O  .XoX.  O    ",
"     O  .XoX.  O    ",
"     O   OOO   O    ",
"     O         O    ",
"                    ",
"                    ",
"                    ",
"            O..     ",
"           .XoX.    ",
"            XoX.    ",
"           OOOX.    ",
"          .XoX      ",
"          .XoX.     ",
"      O   OoX..     ",
"      OO .XOO.      ",
"     OO.XXooX       ",
"     OO.XXoXX       ",
"    OO..XXoXX.OOO   ",
"    O  XXoXXX.OO    ",
"   OO  .XoXX.OOO    ",
"   O   XooX..OO     ",
"       OOX.  OO     ",
"         O   O      ",
"             O      ",
"            O       ",
"                    ",
"                    ",
"                    ",
"                    ",
"             .X.    ",
"             Xoo.   ",
"           .XOooX   ",
"      .O  .XooOX.   ",
"     OO.  XoooX     ",
"    OO..XXOooX.     ",
"   OO..XXooOX.      ",
"  O  .XXooo.        ",
" O   .XoooXX        ",
"    .XoooXX..O      ",
"    OoooXX..O.      ",
"     OXX...OO       ",
"      O.  OO        ",
"          O         ",
"         O          ",
"        O           ",
"                    ",
"                    ",
"                    ",
"                    ",
"                    ",
"                    ",
"       OOO     ...  ",
"     OOOO    .O.XX. ",
"   OOOO... O.XXOoo. ",
" OO   ..XXXOXooO.X. ",
"     OXXXXooOXX.O.  ",
"    .XXXoooXO..O    ",
"    OXooXXX.O       ",
"    OoXXXXX.        ",
"     O..X..O        ",
"        .OOOOO      ",
"         OOO        ",
"       OO           ",
"     OO             ",
"                    ",
"                    ",
"                    ",
"                    ",
"                    ",
"                    ",
"                    ",
"  OOOOOOOOO         ",
"      OOOO          ",
"      ....          ",
"    ..XXXX. ... ..  ",
"   OXXXXXXXOXXXOXX. ",
"   OoooooooOoooOoo. ",
"   OXXXXXXXOXXXOXX. ",
"    ..XXXX. ... ..  ",
"      ....          ",
"      OOOO          ",
"  OOOOOOOOO         ",
"                    ",
"                    ",
"                    ",
"                    ",
"                    ",
"                    ",
"                    ",
"     OO             ",
"      OOO           ",
"        OOO         ",
"        .OOOO       ",
"    OX.X...O        ",
"    OoXXXXX         ",
"   OXoooXXX.        ",
"    .XXXoooXO..     ",
"     .XXXXoOoXXO .  ",
" O   ..XXXXOXooOXXO ",
"  OOOOO..  ..XXOoo. ",
"    OOOOO   .. XXX. ",
"      OOO      ...  ",
"        O           ",
"                    ",
"                    ",
"                    ",
"                    ",
"        O           ",
"         O          ",
"          O         ",
"      O.  OO        ",
"     OoX...OO       ",
"    OXooXX..O.      ",
"    .XoooXX..O      ",
" O   .XoooXX        ",
"  O  .XXoooX        ",
"   OO..XXooOX.      ",
"    OO..X.OooX.     ",
"     OO.  XoooX     ",
"      .O  .XooOX.   ",
"           .XOooX   ",
"             Xoo.   ",
"             .X.    ",
"                    ",
"                    ",
"                    ",
"                    ",
"           O        ",
"           O        ",
"            O       ",
"       OO.  O       ",
"  O   OoXXO OO      ",
"  O   .XoXX.OO      ",
"   O  .XoXX..OO     ",
"   O .XXXoXX.OO     ",
"    OO.XXoXX. O     ",
"    OO.XXooX        ",
"    OOO..XoOO       ",
"     O  OOOX.       ",
"     O   .XoX.      ",
"         .XoXO      ",
"         O.OO..     ",
"          O.oX.     ",
"          .XoX.     ",
"           ...      ",
"                    ",
"                    ",
"                    ",
"    O         O     ",
"    O   OOO   O     ",
"    O  .XoX.  O     ",
"    O  .XoX.  O     ",
"    OO.XXoXX.OO     ",
"    OO.XXoXX.OO     ",
"    OO.XXoXX.OO     ",
"    OO.XXoXX.OO     ",
"    O  .XoX.  O     ",
"        OOO         ",
"       .XoX.        ",
"       .XoX.        ",
"       .XoX.        ",
"        OOO         ",
"       .XoX.        ",
"       .XoX.        ",
"        ...         ",
"                    ",
"                    ",
"       O            ",
"      O             ",
"      O   O         ",
"     OO  .XOO       ",
"     OO..XooX       ",
"    OOO.XXoX.   O   ",
"    OO.XXXoXX  O    ",
"   OOO.XXoXX..OO    ",
"       XXoXX.OO     ",
"       XooXX.OO     ",
"      .OOX. OO      ",
"     ..XoO   O      ",
"     .XoX.          ",
"      XoX.          ",
"    .XOOO           ",
"    .XoX            ",
"    .XoX.           ",
"     ..O            ",
"                    ",
"                    ",
"           O        ",
"          O         ",
"         O          ",
"        OO  .O      ",
"       OO...XXO     ",
"      .O..XXoooO    ",
"      O..XXoooX.    ",
"        XXoooX.   O ",
"        .oooXX.  O  ",
"      .XOooXX..OO   ",
"     .XooOXX..OO    ",
"     XoooX  .OO     ",
"   .XOooX.  O.      ",
"   XooOX.           ",
"   .ooX             ",
"    .X.             ",
"                    ",
"                    ",
"                    ",
"                    ",
"                    ",
"             OO     ",
"           OO       ",
"        OOO         ",
"      OOOOO.        ",
"        O..X..O     ",
"        .XXXXXoO    ",
"       O.XXXooXO    ",
"    O..OXoooXXX.    ",
"  .O.XXOooXXXXO     ",
" .X.OooXOXXX..   OO ",
" .ooOXX.O ...OOOO   ",
" .XX.O.    OOOO     ",
"  ...     OOO       ",
"                    ",
"                    ",
"                    ",
"                    ",
"                    ",
"                    ",
"                    ",
"                    ",
"                    ",
"         OOOOOOOOO  ",
"          OOOO      ",
"          ....      ",
"  .. ... .XXXX..    ",
" .XXOXXXOXXXXXXXO   ",
" .ooOoooOoooooooO   ",
" .XXOXXXOXXXXXXXO   ",
"  .. ... .XXXX..    ",
"          ....      ",
"          OOOO      ",
"         OOOOOOOOO  ",
"                    ",
"                    ",
"                    ",
"                    ",
"                    ",
"                    ",
"                    ",
"                    ",
"           O        ",
"  ...      OOO      ",
" .XXX ..   OOOOO    ",
" .ooOXX..  ..OOOOO  ",
" OXXOooXOXXXX..   O ",
"  . OXXoOoXXXX.     ",
"     ..OXoooXXX.    ",
"        .XXXoooXO   ",
"         XXXXXoO    ",
"        O...X.XO    ",
"       OOOO.        ",
"         OOO        ",
"           OO       ",
"             O      ",
"                    ",
"                    ",
"                    ",
"                    ",
"                    ",
"                    ",
"    .X.             ",
"   .ooX             ",
"   XooOX.           ",
"   .XOooX.  O.      ",
"     XoooX  .OO     ",
"     .XooO.X..OO    ",
"      .XOooXX..OO   ",
"        XoooXX.  O  ",
"        XXoooX.   O ",
"      O..XXoooX.    ",
"      .O..XXooXO    ",
"       OO...XoO     ",
"        OO  .O      ",
"         O          ",
"          O         ",
"           O        ",
"                    ",
"                    ",
"      ...           ",
"     .XoX.          ",
"     .Xo.O          ",
"     ..OO.O         ",
"      OXoX.         ",
"      .XoX.   O     ",
"       .XOOO  O     ",
"       OOoX..OOO    ",
"        XooXX.OO    ",
"     O .XXoXX.OO    ",
"     OO.XXoXXX. O   ",
"     OO..XXoX.  O   ",
"      OO.XXoX.   O  ",
"      OO OXXoO   O  ",
"       O  .OO       ",
"       O            ",
"        O           ",
"        O           ",
"                    "};
