/* XPM */
static char * C8_xpm[] = {
"20 320 5 1",
" 	c None",
".	c #00A000",
"X	c #00FF00",
"o	c #007800",
"O	c #00C800",
"                    ",
"         ..         ",
"        .XX.        ",
"        .XX.        ",
"         ..         ",
" X       ..       X ",
" X       ..       X ",
" o       ..       o ",
" X      oOOo      X ",
" .o     oOOo     o. ",
" ooo.  o.OO.o  .ooo ",
" oo...OOO..OOO...oo ",
"  ...OO.XXXX.OO...  ",
"   ..OOoXXXXoOO..   ",
"    OO.oXXXXo.OO    ",
"     O.oXXXXo.O     ",
"       oooooo       ",
"         oo         ",
"                    ",
"                    ",
"                    ",
"                    ",
"   o       ..o      ",
"   X      .XX.      ",
"  o        XX.      ",
"  X       o..o      ",
" .        ..        ",
" oo      o.o        ",
" ooo     O.        o",
" ....  ooOO        X",
"  ...OO.OO.       X ",
"  ..OO.O.O.       o ",
"  OOOo.XX.OO    oX  ",
"   O.oXXXX..O..oo.  ",
"   O.oXXXXoOO..ooo  ",
"    ooXXXXoOO...o   ",
"      ooXo.OOO.     ",
"      oooo O        ",
"                    ",
"                    ",
"                    ",
"      X             ",
"     o              ",
"    X         oo    ",
"   .o        .XXo   ",
"  ooo        XXXo   ",
"  .oo       o.X.    ",
"  ...o     o.o      ",
"  ..O.   oo.o       ",
"  OOOOOo.O.o        ",
"  OO....OOOo        ",
"  O.ooXX.O.         ",
"   ooXXXX.o         ",
"   oXXXXX.O       X ",
"    oXXXo.O.o    o  ",
"   oooXoo.OO.oooX   ",
"    o oo.OO..oo.    ",
"        OOO...o     ",
"                    ",
"                    ",
"          Xo        ",
"        oX          ",
"     o.X            ",
"    oooo            ",
"    .oo             ",
"   ....             ",
"   O...       o..o  ",
"   OOOO       .XX.  ",
"  OOOO.O   oo..XX.  ",
"   .oo.O..O...o .   ",
"  ooXXX.OOO.o       ",
"  oXXXXX.Oo         ",
"  ooXXXXO.o         ",
"  ooXXX..O          ",
"    ooooOO          ",
"    o..OO..         ",
"     OOO...o    Xo  ",
"       O...oo Xo    ",
"          .oo.      ",
"                    ",
"                    ",
"        oo.XoXX     ",
"       .ooo         ",
"      ...o          ",
"     O....          ",
"    OOOO.           ",
"    ..OOO           ",
"   oooo.Oo          ",
"   oXXXXO.oo    ..  ",
"  ooXXXX.OOO....XX. ",
"  ooXXXX.OOO....XX. ",
"   oXXXXO.oo    ..  ",
"   oooo.Oo          ",
"    ..OOO           ",
"    OOOO.           ",
"     O....          ",
"      ...o          ",
"       .ooo         ",
"        oo.XoXX     ",
"                    ",
"                    ",
"          .oo.      ",
"       O...oo Xo    ",
"     OOO...o    Xo  ",
"    o..OO..         ",
"    ooooOO          ",
"  ooXXX..O          ",
"  ooXXXXO.o         ",
"  oXXXXX.Oo         ",
"  ooXXX.OOOOo       ",
"   .oo.O..O...o .   ",
"  OOOO.O    o..XX.  ",
"   OOOO       .XX.  ",
"   O...       o..o  ",
"   ....             ",
"    .oo             ",
"    oooo            ",
"     o.X            ",
"        oX          ",
"          Xo        ",
"                    ",
"                    ",
"        OOO...o     ",
"    o oo.OO..oo.    ",
"   oooXoo.OO.oooX   ",
"    oXXXo.O.o    o  ",
"   oXXXXX.O       X ",
"   ooXXXX.o         ",
"  O.ooXX.O.         ",
"  OO....OOOo        ",
"  OOOOOo.O.o        ",
"  ..O.   oo.o       ",
"  ...o     o.o      ",
"  .oo       o.X.    ",
"  ooo        XXXo   ",
"   .o        .XXo   ",
"    X         oo    ",
"     o              ",
"      X             ",
"                    ",
"                    ",
"                    ",
"      oooo O        ",
"      ooXo.OOO.     ",
"    ooXXXXoOO...o   ",
"   O.oXXXXoOO..ooo  ",
"   O.oXXXX..O..oo.  ",
"  OOOo.XX.OO    oX  ",
"  ..OO.O.O.       o ",
"  ...OO.OO.       X ",
" ....  ooOO        X",
" ooo     ..o       o",
" oo      o.o        ",
" .        ..        ",
"  X       o..o      ",
"  o        XX.      ",
"   X      .XX.      ",
"   o       ..o      ",
"                    ",
"                    ",
"                    ",
"                    ",
"         oo         ",
"       oooooo       ",
"     O.oXXXXo.O     ",
"    OO.oXXXXo.OO    ",
"   ..OOoXXXXoOO..   ",
"  ...OO.XXXX.OO...  ",
" oo...OOO..OOO...oo ",
" ooo.  o.OO.o  .ooo ",
" .o     oOOo     o. ",
" X      oOOo      X ",
" o       ..       o ",
" X       ..       X ",
" X       ..       X ",
"         ..         ",
"        .XX.        ",
"        .XX.        ",
"         ..         ",
"                    ",
"                    ",
"                    ",
"        O oooo      ",
"     .OOO.oXoo      ",
"   o...OOoXXXXoo    ",
"  ooo..OOoXXXXo.    ",
"  .oo..O..XXXXo.O   ",
"  Xo    OO.XX.oOOO  ",
" o       .O.O.OO..  ",
" X       .OO.OO...  ",
"X        OOoo  .... ",
"o        .O     ooo ",
"        o.o      oo ",
"        ..        . ",
"      o..o       X  ",
"      .XX        o  ",
"      .XX.      X   ",
"      o..       o   ",
"                    ",
"                    ",
"                    ",
"                    ",
"     o...OOO        ",
"    .oo..OO.oo o    ",
"   Xooo.OO.ooXooo   ",
"  o    o.O.oXXXo    ",
" X       O.XXXXXo   ",
"         o.XXXXoo   ",
"         .O.XXoo.O  ",
"        oOOO....OO  ",
"        o.O.oOOOOO  ",
"       o.oo   .O..  ",
"      o.o     o...  ",
"    .X.o       oo.  ",
"   oXXX        ooo  ",
"   oXX.        o.   ",
"    oo         X    ",
"              o     ",
"             X      ",
"                    ",
"                    ",
"      .oo.          ",
"    oX oo...O       ",
"  oX    o...OOO     ",
"         ..OO..o    ",
"          OOoooo    ",
"          O..XXXoo  ",
"         o.OXXXXoo  ",
"         oO.XXXXXo  ",
"       o.OOO.XXXoo  ",
"   . o...O..O.oo.   ",
"  .XX..oo   O.OOOO  ",
"  .XX.       OOOO   ",
"  o..o       ...O   ",
"             ....   ",
"             oo.    ",
"            ooo     ",
"            Xo      ",
"          Xo        ",
"        oX          ",
"                    ",
"     XXoX.oo        ",
"         ooo.       ",
"          o...      ",
"          ....O     ",
"           .OOOO    ",
"           OOO..    ",
"          oO.oooo   ",
"  ..    oo.OXXXXo   ",
" .XX....OOO.XXXXoo  ",
" .XX....OOO.XXXXoo  ",
"  ..    oo.OXXXXo   ",
"          oO.oooo   ",
"           OOO..    ",
"           .OOOO    ",
"          ....O     ",
"          o...      ",
"         ooo.       ",
"     XXoX.oo        ",
"                    ",
"        oX          ",
"          Xo        ",
"            X.o     ",
"            ooo     ",
"             ooo    ",
"             ...    ",
"  o..o       ....   ",
"  .XX.       OOOO   ",
"  .XX..o    O.OOOO  ",
"   . o...O..O.oo.   ",
"       oOOOO.XXXoo  ",
"         oO.XXXXXo  ",
"         o.OXXXXoo  ",
"          O..XXXoo  ",
"          OOoooo    ",
"         ..OO..o    ",
"  oX    o...OO      ",
"    oX oo...O       ",
"      .oo.          ",
"                    ",
"                    ",
"             X      ",
"              o     ",
"    oo         X    ",
"   oXX.        o.   ",
"   oXXX        ooo  ",
"    .X.o       ooo  ",
"      o.o     o...  ",
"       o.oo   .O..  ",
"        o.O.oOOOOO  ",
"        oOOO....OO  ",
"         .O.XXoo.O  ",
"         o.XXXXoo   ",
" X       O.XXXXXo   ",
"  o    o.O.oXXXo    ",
"   Xooo.OO.ooXooo   ",
"    .oo..OO.oo o    ",
"     o...OOO        ",
"                    ",
"                    ",
"                    ",
"                    ",
"      o..           ",
"      .XX.      o   ",
"      .XX       X   ",
"      o..o       o  ",
"        ..       X  ",
"        o.o      o. ",
"        o..     ooo ",
"X        OOoo  .... ",
" X       .OO.OO...  ",
" o       .O.O.OO..  ",
"  Xo    OO.XX.oOOO  ",
"  ooo..O..XXXXo.O   ",
"   oo..OOoXXXXo.O   ",
"    ...OOoXXXXoo    ",
"     .OOO.oXoo      ",
"        O oooo      ",
"                    ",
"                    "};
