/* XPM */
static char * C3_xpm[] = {
"20 320 6 1",
" 	c None",
".	c #00A000",
"X	c #00C800",
"o	c #00FF00",
"O	c #007800",
"@	c #B00000",
"                    ",
"         . .        ",
"        .X X.       ",
"        .o o.       ",
"        Xo.oX       ",
"        .ooo.       ",
"        O.X.O       ",
"         OXO        ",
"         OXO        ",
"     O  OOXOO  O    ",
"     O O.XXX.O O    ",
"     O..XXOXX..O    ",
"     O..XoOoX..O    ",
"     OOOXoOoXOOO    ",
"     O  XoOoX  O    ",
"     O   @O@   O    ",
"     O    O    O    ",
"          O         ",
"                    ",
"                    ",
"                    ",
"            O.      ",
"           O.O .    ",
"           .o O.    ",
"          OXoXoO    ",
"          O.ooX     ",
"      O   O.X.O     ",
"      O   OX.O      ",
"     OO O.OXO       ",
"     O...XX.O       ",
"    OO..XXOX.  O    ",
"    OOOXooOX.O O    ",
"    O  XoOoX..OO    ",
"   O   @XOoXO.O     ",
"        O@  OOO     ",
"        O    O      ",
"       O     O      ",
"            O       ",
"                    ",
"                    ",
"                    ",
"                    ",
"              O.O   ",
"             O.O O  ",
"            OXo O.  ",
"       O    .ooo.O  ",
"      O    OOXoXO   ",
"     O....OOXO.O    ",
"    OOO.XX.XOO      ",
"   O  .XXXX.O       ",
"  O   XooOXX.       ",
"      ooOoXX.       ",
"      @OooX.. O     ",
"      O@oX.O.O      ",
"     O     OO       ",
"           O        ",
"          O         ",
"         O          ",
"                    ",
"                    ",
"                    ",
"                    ",
"                    ",
"                    ",
"       OOO     O..  ",
"     OOO     OXoO   ",
"   OOO..O   O.oO O. ",
"  O  OO...OO.XoooXO ",
"      XXXX.XX..X.O  ",
"      ooOOXOOOOO    ",
"     @OOoXXOO       ",
"    OOXooX.O        ",
"   O  @XX..         ",
"        O..OOO      ",
"        OOOO        ",
"       OOO          ",
"      O             ",
"                    ",
"                    ",
"                    ",
"                    ",
"                    ",
"                    ",
"                    ",
"                    ",
"   OOOOOOOO         ",
"      O..           ",
"      O..O          ",
"     XXXX.O  O.X..  ",
"    @oooXXOOO.oooX. ",
"  OOOOOOOXXXXXo.    ",
"    @oooXXOOO.oooX. ",
"     XXXX.O  O.X..  ",
"      O..O          ",
"      O..           ",
"   OOOOOOOO         ",
"                    ",
"                    ",
"                    ",
"                    ",
"                    ",
"                    ",
"                    ",
"      O             ",
"       OOO          ",
"        OOOO        ",
"        O..OOO      ",
"   O  @XX..         ",
"    OOXooX.O        ",
"     @OOoXX.        ",
"      ooOOXOOOOO    ",
"      XXXX.XX..X.O  ",
"  O  OO...OO.Xooo.O ",
"   OOO..O   O.oX O. ",
"     OOO     OXoO   ",
"       OOO     O..  ",
"                    ",
"                    ",
"                    ",
"                    ",
"                    ",
"                    ",
"         O          ",
"          O         ",
"           O        ",
"     O     OO       ",
"      O@oX.O.O      ",
"      @OooX.. O     ",
"      ooOoXX.       ",
"  O   XooOXX.       ",
"   O  .XXXX.O       ",
"    OOO.XX.XOO      ",
"     O....OOXO.O    ",
"      O    OOXoXO   ",
"       O    .ooo.O  ",
"            OXo O.  ",
"             O.O O  ",
"              O.O   ",
"                    ",
"                    ",
"                    ",
"                    ",
"            O       ",
"       O     O      ",
"        O    O      ",
"        O@  OOO     ",
"   O   @XOoXO.O     ",
"    O  XoOoX..OO    ",
"    OOOXooOX.O O    ",
"    OO..XXOX.  O    ",
"     O...XX.O       ",
"     OO OOOXO       ",
"      O  OOX.O      ",
"      O   O.X.O     ",
"          O.ooX     ",
"          OXoOoO    ",
"           .o O.    ",
"           OXO .    ",
"            O.      ",
"                    ",
"                    ",
"                    ",
"         O          ",
"    O    O    O     ",
"    O   @O@   O     ",
"    O  XoOoX  O     ",
"    OOOXoOoXOOO     ",
"    O..XoOoX..O     ",
"    O..XXOXX..O     ",
"    O O.XXX.O O     ",
"    O  OOXOO  O     ",
"        OXO         ",
"        OXO         ",
"       O.X.O        ",
"       .ooo.        ",
"       Xo.oX        ",
"       .o o.        ",
"       .X X.        ",
"        . .         ",
"                    ",
"                    ",
"                    ",
"       O            ",
"      O     O       ",
"      O    O        ",
"     OOO  @O        ",
"     O.OXoOX@   O   ",
"    OO..XoOoX  O    ",
"    O O.XOooXOOO    ",
"    O  .XOXX..OO    ",
"       O.XX...O     ",
"       OXO.O OO     ",
"      O.XO   O      ",
"     O.X.O   O      ",
"     Xoo.O          ",
"    OoXoXO          ",
"    .O o.           ",
"    . O.O           ",
"      .O            ",
"                    ",
"                    ",
"                    ",
"          O         ",
"         O          ",
"        O           ",
"       OO     O     ",
"      O.O.Xo@O      ",
"     O ..XooO@      ",
"       .XXoOoo      ",
"       .XXOooX   O  ",
"       O.XXXX.  O   ",
"      OOX.XX.OOO    ",
"    O.OXOO....O     ",
"   OXoXOO    O      ",
"  O.ooo.    O       ",
"  .O oXO            ",
"  O O.O             ",
"   O.O              ",
"                    ",
"                    ",
"                    ",
"                    ",
"                    ",
"             O      ",
"          OOO       ",
"        OOOO        ",
"      OOO..O        ",
"         ..XX@  O   ",
"        O.XooXOO    ",
"       OOXXoOO@     ",
"    OOOOOXOOoo      ",
"  O.X..XX.XXXX      ",
" OXoooX.OO...OO  O  ",
" .O Oo.O   O..OOO   ",
"   OoXO     OOO     ",
"  ..O     OOO       ",
"                    ",
"                    ",
"                    ",
"                    ",
"                    ",
"                    ",
"                    ",
"                    ",
"         OOOOOOOO   ",
"           ..O      ",
"          O..O      ",
"  ..X.O  O.XXXX     ",
" .Xooo.OOOXXooo@    ",
"    .oXXXXXOOOOOOO  ",
" .Xooo.OOOXXooo@    ",
"  ..X.O  O.XXXX     ",
"          O..O      ",
"           ..O      ",
"         OOOOOOOO   ",
"                    ",
"                    ",
"                    ",
"                    ",
"                    ",
"                    ",
"                    ",
"                    ",
"                    ",
"  ..O     OOO       ",
"   OoXO     OOO     ",
" .O Xo.O   O..OOO   ",
" O.oooX.OO...OO  O  ",
"  O.X..XX.XXXX      ",
"    OOOOOXOOoo      ",
"        .XXoOO@     ",
"        O.XooXOO    ",
"         ..XX@  O   ",
"      OOO..O        ",
"        OOOO        ",
"          OOO       ",
"             O      ",
"                    ",
"                    ",
"                    ",
"                    ",
"                    ",
"   O.O              ",
"  O O.O             ",
"  .O oXO            ",
"  O.ooo.    O       ",
"   OXoXOO    O      ",
"    O.OXOO....O     ",
"      OOX.XX.OOO    ",
"       O.XXXX.  O   ",
"       .XXOooX   O  ",
"       .XXoOoo      ",
"     O ..XooO@      ",
"      O.O.Xo@O      ",
"       OO     O     ",
"        O           ",
"         O          ",
"          O         ",
"                    ",
"                    ",
"                    ",
"      .O            ",
"    . OXO           ",
"    .O o.           ",
"    OoOoXO          ",
"     Xoo.O          ",
"     O.X.O   O      ",
"      O.XOO  O      ",
"       OXOOO OO     ",
"       O.XX...O     ",
"    O  .XOXX..OO    ",
"    O O.XOooXOOO    ",
"    OO..XoOoX  O    ",
"     O.OXoOX@   O   ",
"     OOO  @O        ",
"      O    O        ",
"      O     O       ",
"       O            ",
"                    ",
"                    "};
