/* XPM */
static char * C1_xpm[] = {
"20 320 6 1",
" 	c None",
".	c #007800",
"X	c #00C800",
"o	c #00FF00",
"O	c #00A000",
"#	c #D0D0D0",
"                    ",
"          .         ",
"         XoX        ",
"         .X.        ",
"          O         ",
"          O         ",
"          O         ",
"          O         ",
"         .O.        ",
"         OXO        ",
"         OXO        ",
"    .   .OXO.   .   ",
"    .  .OXXXO.  .   ",
"    .OOOXoooXOOO.   ",
"    .OOOXoooXOOO.   ",
"         O.O        ",
"                    ",
"                    ",
"                    ",
"                    ",
"                    ",
"                    ",
"             .      ",
"            Xo.     ",
"            .XX     ",
"            ..      ",
"            O       ",
"           O        ",
"          .O        ",
"    .     XO.       ",
"    .    OXO        ",
"   .O. ..OXO        ",
"   .OOOOXXO.        ",
"    .OOXooXO.       ",
"      .ooooX.  .    ",
"       O.oXOOOO.    ",
"         O ..O.     ",
"             .      ",
"                    ",
"                    ",
"                    ",
"                    ",
"                    ",
"              .XO   ",
"              XoX   ",
"              .X.   ",
"    .        X      ",
"   .        X       ",
"  ..     .OX        ",
"  .OO...OOXO        ",
"   .OOXOOXO.        ",
"    .XoXXOO         ",
"     oooXO.         ",
"     ..ooX.         ",
"      .oXO.         ",
"        .OO  .      ",
"         OO..       ",
"          ..        ",
"                    ",
"                    ",
"                    ",
"                    ",
"                    ",
"                    ",
"     ..             ",
"   ..          ...  ",
"   OO          Xo.  ",
"    OO.  .   XXX..  ",
"    OXO.OOXOX       ",
"    XooXXXX.        ",
"    OooXOOO         ",
"    .ooX..          ",
"     OXXO           ",
"      OO.           ",
"      OOO           ",
"       OO..         ",
"       ..           ",
"                    ",
"                    ",
"                    ",
"                    ",
"                    ",
"                    ",
"                    ",
"     ....           ",
"     OO             ",
"     OO             ",
"     OO.            ",
"     XXO.           ",
"    OooXOOO.    .X  ",
"    .ooXXXXOOOOOXo. ",
"    OooXOOO.    .X  ",
"     XXO.           ",
"     OO.            ",
"     OO             ",
"     OO             ",
"     ....           ",
"                    ",
"                    ",
"                    ",
"                    ",
"                    ",
"                    ",
"       ..           ",
"      .OO..         ",
"      OO.           ",
"     .OO            ",
"    OoXO.           ",
"    .ooX.           ",
"   OoooXOO          ",
"    XoXOXXX.        ",
"   .OXO.OOOOO       ",
"   .O..   .  O..X   ",
"  .OO         .Xo.  ",
"   .O          X.   ",
"    ..              ",
"                    ",
"                    ",
"                    ",
"                    ",
"                    ",
"                    ",
"          ..        ",
"         .O..       ",
"        .OO  .      ",
"      .oXO.         ",
"     ..ooX.         ",
"     oooXO.         ",
"    .XoXXOO         ",
"   .OOXOOXO.        ",
"  .OO...OOXO        ",
"  ..     .OX        ",
"   .        X       ",
"    .        X      ",
"              .X.   ",
"              o#X   ",
"              .XO   ",
"                    ",
"                    ",
"                    ",
"                    ",
"                    ",
"                    ",
"             O.     ",
"        .OXOOO.     ",
"       OoooXO  .    ",
"     OOXoooO.  .    ",
"   .OOOXXXX.        ",
"   .OO.O.OXO        ",
"    .   .OXO.       ",
"    .    OXX        ",
"          .O        ",
"           X        ",
"            X       ",
"            X       ",
"            XX.     ",
"            .o.     ",
"            ...     ",
"                    ",
"                    ",
"                    ",
"                    ",
"                    ",
"                    ",
"        O.O         ",
"   .OOOXoooXOOO.    ",
"   .OOOXoooXOOO.    ",
"   .  .OXXXO.  .    ",
"   .   .OXO.   .    ",
"        OXO         ",
"        OXO         ",
"        .O.         ",
"         O          ",
"         O          ",
"         O          ",
"         O          ",
"        .X.         ",
"        XoX         ",
"         .          ",
"                    ",
"                    ",
"                    ",
"      .             ",
"     .O.. O         ",
"    .OOOOXo.O       ",
"    .  .Xoooo.      ",
"       .OXooXOO     ",
"        .OXXOOOO.   ",
"        OXO.. .O.   ",
"        OXO    .    ",
"       .OX     .    ",
"        O.          ",
"        O           ",
"       O            ",
"      ..            ",
"     XX.            ",
"     .oX            ",
"      .             ",
"                    ",
"                    ",
"                    ",
"                    ",
"                    ",
"        ..          ",
"       ..O.         ",
"      .  OO.        ",
"         .OXo.      ",
"         .Xoo..     ",
"         .OXooo     ",
"         OOXXoX.    ",
"        .OXOOXOO.   ",
"        OXOO...OO.  ",
"        XO.    ..   ",
"      X        .    ",
"   .X.        .     ",
"   XoX              ",
"   OX.              ",
"                    ",
"                    ",
"                    ",
"                    ",
"                    ",
"                    ",
"           ..       ",
"         ..OO       ",
"           OOO      ",
"           .OO      ",
"           OXXO     ",
"          ..Xoo.    ",
"         OOOXooO    ",
"        .XXXXooX    ",
"       XOXOO.OXO    ",
"  ..XXX   .  .OO    ",
"  .oX          OO   ",
"  ...          ..   ",
"             ..     ",
"                    ",
"                    ",
"                    ",
"                    ",
"                    ",
"                    ",
"                    ",
"           ....     ",
"             OO     ",
"             OO     ",
"            .OO     ",
"           .OXX     ",
"  X.    .OOOXooO    ",
" .oXOOOOOXXXXoo.    ",
"  X.    .OOOXooO    ",
"           .OXX     ",
"            .OO     ",
"             OO     ",
"             OO     ",
"           ....     ",
"                    ",
"                    ",
"                    ",
"                    ",
"                    ",
"                    ",
"                    ",
"                    ",
"              ..    ",
"   .X          O.   ",
"  .oX.         OO.  ",
"   X..O  .   ..O.   ",
"       OOOOO.OXO.   ",
"        .XXXOXoX    ",
"          OOXoooO   ",
"           .Xoo.    ",
"           .OXoO    ",
"            OO.     ",
"           .OO      ",
"         ..OO       ",
"           ..       ",
"                    ",
"                    ",
"                    ",
"                    ",
"                    ",
"                    ",
"   OX.              ",
"   XoX              ",
"   .X.              ",
"      X        .    ",
"       X        .   ",
"        XO.     ..  ",
"        OXOO...OO.  ",
"        .OXOOXOO.   ",
"         OOXXoX.    ",
"         .OXooo     ",
"         .Xoo..     ",
"         .OXo.      ",
"      .  OO.        ",
"       ..O.         ",
"        ..          ",
"                    ",
"                    ",
"                    ",
"                    ",
"     ...            ",
"     .o.            ",
"     .XX            ",
"       X            ",
"       X            ",
"        X           ",
"        O.          ",
"        XXO    .    ",
"       .OXO.   .    ",
"        OXO.O.OO.   ",
"        .XXXXOOO.   ",
"    .  .OoooXOO     ",
"    .  OXoooO       ",
"     .OOOXO.        ",
"     .O             ",
"                    ",
"                    ",
"                    "};
