/* XPM */
static char * C5_xpm[] = {
"20 20 5 1 XPMEXT",
" 	c None",
".	c #007800",
"X	c #00A000",
"O	c #00C800",
"+	c #00FF00",
"                    ",
"                    ",
"      .      .      ",
"      X      X      ",
"  .   X .  . X   .  ",
" .X  .X.    .X.  X. ",
"  X  XOX.  .XOX  X  ",
"  X..O+O....O+O..X  ",
" .XX.+++OXXO+++.XX. ",
" XXO+++++OO+++++OXX ",
" XXO+++++OO+++++OXX ",
" .XX.+++OXXO+++.XX. ",
"  X..O+O....O+O..X  ",
"  X  XOX.  .XOX  X  ",
" .X  .X.    .X.  X. ",
"  .   X .  . X   .  ",
"      X      X      ",
"      .      .      ",
"                    ",
"                    ",
"XPMEXT nviews",
"1",
"XPMENDEXT"};
