/* XPM */
static char * C0_xpm[] = {
"20 320 6 1",
" 	c None",
".	c #00A000",
"X	c #00C800",
"o	c #00FF00",
"O	c #007800",
"@	c #B00000",
"                    ",
"                    ",
"        .X.         ",
"       .XoX.        ",
"        .o.         ",
"        O.O         ",
"         .          ",
"         .          ",
"         .          ",
"       O...O        ",
"      O.XoX.O       ",
"      ..oOo..       ",
"      O.oOo.O       ",
"        @O@         ",
"         O          ",
"         O          ",
"         O          ",
"                    ",
"                    ",
"                    ",
"                    ",
"                    ",
"                    ",
"          OXX.      ",
"          O.oXO     ",
"          Ooo..     ",
"           XOO      ",
"           X        ",
"          X         ",
"       OX.X         ",
"      O.XoX.        ",
"      ..oOX.O       ",
"      O.oOo..       ",
"       @OO.OO       ",
"        O@ O        ",
"       O            ",
"       O            ",
"                    ",
"                    ",
"                    ",
"                    ",
"                    ",
"                    ",
"             .O     ",
"             XXX    ",
"            OXoXO   ",
"            .XXX.   ",
"            X.O     ",
"      OO   .        ",
"     OO..O.         ",
"    OO.XX.O         ",
"     .XoOX.         ",
"     @oOoX.O        ",
"      OoX.OO        ",
"     O @.O.         ",
"    O    O          ",
"                    ",
"                    ",
"                    ",
"                    ",
"                    ",
"                    ",
"                    ",
"                    ",
"                    ",
"              .O    ",
"             OX..   ",
"      O.O    OooX   ",
"     O....  XX.X.   ",
"      .oX.XX  OOO   ",
"     @oOOX.         ",
"     OOooXO         ",
"   OO @....         ",
"       O.O          ",
"                    ",
"                    ",
"                    ",
"                    ",
"                    ",
"                    ",
"                    ",
"                    ",
"                    ",
"                    ",
"                    ",
"                    ",
"       O.O          ",
"       ...O     .   ",
"      @ooX.   O.X.  ",
"   OOOOOOo.....ooX  ",
"      @ooX.   O.X.  ",
"       ...O     .   ",
"       O.O          ",
"                    ",
"                    ",
"                    ",
"                    ",
"                    ",
"                    ",
"                    ",
"                    ",
"                    ",
"                    ",
"                    ",
"                    ",
"                    ",
"       O.O          ",
"   OO @...O         ",
"     OOooXX         ",
"     @OOOo.         ",
"      .oXXXX  OOO   ",
"     OO...  XXo.X   ",
"      O.O    OooX   ",
"             O.X.   ",
"              .O    ",
"                    ",
"                    ",
"                    ",
"                    ",
"                    ",
"                    ",
"                    ",
"                    ",
"                    ",
"    O    O          ",
"     O @.OO         ",
"      OoX.OO        ",
"     @oOoX.O        ",
"     .XoOX.         ",
"    OO.XX.O         ",
"     .O..O.         ",
"      OO   .        ",
"            X.O     ",
"            .XXX.   ",
"            OXoXO   ",
"             XXX    ",
"             .O     ",
"                    ",
"                    ",
"                    ",
"                    ",
"                    ",
"                    ",
"       O            ",
"       O            ",
"        O@ O        ",
"       @Oo..O       ",
"      O.oOo..       ",
"      ..oOX.O       ",
"      O.XX..        ",
"       .O.X         ",
"          X         ",
"           X        ",
"           XOO      ",
"          O.oX.     ",
"          OXo.O     ",
"          O.XX      ",
"                    ",
"                    ",
"                    ",
"                    ",
"                    ",
"                    ",
"          O         ",
"          O         ",
"          O         ",
"         @O@        ",
"       O.oOo.O      ",
"       ..oOo..      ",
"       O.XoX.O      ",
"        O...O       ",
"          .         ",
"          .         ",
"          .         ",
"         O.O        ",
"         .o.        ",
"        .XoX.       ",
"         .X.        ",
"                    ",
"                    ",
"                    ",
"                    ",
"                    ",
"            O       ",
"            O       ",
"        O @O        ",
"       OO.OO@       ",
"       ..oOo.O      ",
"       O.XOo..      ",
"        .XoX.O      ",
"         X.XO       ",
"         X          ",
"        X           ",
"      OOX           ",
"     ..ooO          ",
"     OXo.O          ",
"      .XXO          ",
"                    ",
"                    ",
"                    ",
"                    ",
"                    ",
"                    ",
"                    ",
"          O    O    ",
"         .O.@ O     ",
"        OO.XoO      ",
"        O.XoOo@     ",
"         .XOoX.     ",
"         O.XX.OO    ",
"         .O..OO     ",
"        .   OO      ",
"     O.X            ",
"   .XXX.            ",
"   OXoXO            ",
"    XXX             ",
"     O.             ",
"                    ",
"                    ",
"                    ",
"                    ",
"                    ",
"                    ",
"                    ",
"                    ",
"                    ",
"          O.O       ",
"         ....@ OO   ",
"         OXooOO     ",
"         .XOOo@     ",
"   OOO  XX.Xo.      ",
"   .X.XX  ....O     ",
"   XooO    O.O      ",
"   X.XO             ",
"    O.              ",
"                    ",
"                    ",
"                    ",
"                    ",
"                    ",
"                    ",
"                    ",
"                    ",
"                    ",
"                    ",
"                    ",
"                    ",
"          O.O       ",
"   .     O...       ",
"  .X.O   .Xoo@      ",
"  Xoo.....oOOOOOO   ",
"  .X.O   .Xoo@      ",
"   .     O...       ",
"          O.O       ",
"                    ",
"                    ",
"                    ",
"                    ",
"                    ",
"                    ",
"                    ",
"                    ",
"                    ",
"                    ",
"                    ",
"    O.              ",
"   .X.O             ",
"   XooO    O.O      ",
"   X.oXX  ...OO     ",
"   OOO  XXXXo.      ",
"         .oOOO@     ",
"         XXooOO     ",
"         O...@ OO   ",
"          O.O       ",
"                    ",
"                    ",
"                    ",
"                    ",
"                    ",
"                    ",
"                    ",
"                    ",
"                    ",
"     O.             ",
"    XXX             ",
"   OXoXO            ",
"   .XXX.            ",
"     O.X            ",
"        .   OO      ",
"         .O..O.     ",
"         O.XX.OO    ",
"         .XOoX.     ",
"        O.XoOo@     ",
"        OO.XoO      ",
"         OO.@ O     ",
"          O    O    ",
"                    ",
"                    ",
"                    ",
"                    ",
"                    ",
"                    ",
"                    ",
"      XX.O          ",
"     O.oXO          ",
"     .Xo.O          ",
"      OOX           ",
"        X           ",
"         X          ",
"         X.O.       ",
"        ..XX.O      ",
"       O.XOo..      ",
"       ..oOo.O      ",
"       O..oO@       ",
"        O @O        ",
"            O       ",
"            O       ",
"                    ",
"                    ",
"                    "};
