/* XPM */
static char * C4_xpm[] = {
"20 320 5 1",
" 	c None",
".	c #A00000",
"X	c #C80000",
"o	c #780000",
"O	c #FF0000",
"                    ",
"         .X.        ",
"        oXOXo       ",
"       oXOOOXo      ",
"     o .XXXXX. o    ",
"     ooXXOOOXXoo    ",
"     o.XXOOOXX.o    ",
"     o.XXOOOXX.o    ",
"     o..XXXXX..o    ",
"     oo  ooo  oo    ",
"     o  oXOXo  o    ",
"     o  .XOX.  o    ",
"     o  oXOXo  o    ",
"         ooo        ",
"        oXXXo       ",
"        .XoX.       ",
"        .o o.       ",
"        o   o       ",
"                    ",
"                    ",
"                    ",
"                    ",
"           ooX      ",
"       o  o.OX.     ",
"       o .XOOXo     ",
"      o.XXXXXOXo    ",
"      o.XXOOOX.     ",
"     o.XXXOOOXX o   ",
"     oo.XXOOXXXoo   ",
"     o  ooXXXX.o    ",
"    o   XOooX..o    ",
"    o  .XOXo ooo    ",
"       oXOX.  o     ",
"       ooXo   o     ",
"      oXXo   o      ",
"     .Xo.X          ",
"     oo X.          ",
"     o  o.          ",
"        o           ",
"                    ",
"                    ",
"                    ",
"         .          ",
"        .    .Xo    ",
"       ooooo.XOOo   ",
"      oo.X.XOOXOX   ",
"     oo.XXXOOOOX.   ",
"    .ooooXXXOOO.    ",
"   .    oXXXXOXo    ",
"       o.oXXXX.o    ",
"      oXXOoXXXXo .  ",
"      .XOX.ooX.o.   ",
"    oXoOXXo o.oo    ",
"   .XXXo.o  ooo     ",
"  .oo.XX    oo      ",
"     oXo    .       ",
"     o.    .        ",
"     .              ",
"                    ",
"                    ",
"                    ",
"                    ",
"                    ",
"           oo       ",
"        oooo  o     ",
"      ooo..XX.Xo.   ",
"     o  o.XXXXOXX.  ",
"         XXXOOXOOo  ",
"       .ooXOOOXOXo  ",
"      oXXoXOOOXXo   ",
"  ..XoXOOOoXXXX.    ",
" ooX.XoXXX XXXX     ",
"    oXoo.  .X..oo   ",
"   oXo     o.oo     ",
"  oo.     ooo       ",
"        oo          ",
"                    ",
"                    ",
"                    ",
"                    ",
"                    ",
"                    ",
"                    ",
"                    ",
"                    ",
"       ooooooooo    ",
"          o...o     ",
"           .XXX.o   ",
"  o..o o.o XXXXXXo  ",
"   oXXoXXXoXOOOXOX. ",
"    oXoOOOoXOOOXOOX ",
"   oXXoXXXoXOOOXOX. ",
"  o..o o.o XXXXXXo  ",
"           .XXX.o   ",
"          o...o     ",
"       ooooooooo    ",
"                    ",
"                    ",
"                    ",
"                    ",
"                    ",
"                    ",
"                    ",
"                    ",
"        oo          ",
"  oo.     ooo       ",
"   oXo     o.oo     ",
"    oXoo.o .X..oo   ",
" ooX.XoXXXoXXXX     ",
"  ..XoXOOOoXXXX.    ",
"      oXXoXOOOXXo   ",
"       .ooXOOOXOXo  ",
"         XXXOOXOOo  ",
"     o  o.XXXXOXXX  ",
"      ooo..XX.Xoo   ",
"        oooo  o     ",
"           oo       ",
"                    ",
"                    ",
"                    ",
"                    ",
"                    ",
"     .              ",
"     o.    .        ",
"     oXo    .       ",
"  .oo.XX    oo      ",
"   .XXXo.o  ooo     ",
"    oXoOXXo o.oo    ",
"      .XOX.ooX.o.   ",
"      oXXOoXXXXo .  ",
"       o.oXXXXX.    ",
"   .    oXXXXO.o    ",
"    .ooooXXXOOO.    ",
"     oo.XXXOOOO.o   ",
"      oo.XX.OOXOX   ",
"       ooo.o..OOo   ",
"        .    oXo    ",
"         .          ",
"                    ",
"                    ",
"                    ",
"        o           ",
"     o  o.          ",
"     oo X.          ",
"     .Xo.X          ",
"      oXXo   o      ",
"       ooXo   o     ",
"       oXOX.  o     ",
"    o  .XOXo ooo    ",
"    o  oXOooX..o    ",
"     o  ooXXXX.o    ",
"     oo.XXOOXXXoo   ",
"     o.XXXOOOXX o   ",
"      o.XXOOOX.     ",
"      o.XXXXXOXo    ",
"       o .XOOXo     ",
"       o  oXX..     ",
"           ooX      ",
"                    ",
"                    ",
"                    ",
"        o   o       ",
"        .o o.       ",
"        .XoX.       ",
"        oXXXo       ",
"         ooo        ",
"     o  oXOXo  o    ",
"     o  .XOX.  o    ",
"     o  oXOXo  o    ",
"     oo  ooo  oo    ",
"     o..XXXXX..o    ",
"     o.XXOOOXX.o    ",
"     o.XXOOOXX.o    ",
"     ooXXOOOXXoo    ",
"     o .XXXXX. o    ",
"       oXOOOXo      ",
"        oXOXo       ",
"         .X.        ",
"                    ",
"                    ",
"                    ",
"           o        ",
"          .o  o     ",
"          .X oo     ",
"          X.oX.     ",
"      o   oXXo      ",
"     o   oXoo       ",
"     o  .XOXo       ",
"    ooo oXOX.  o    ",
"    o..XooOXo  o    ",
"    o.XXXXoo  o     ",
"   ooXXXOOXX.oo     ",
"   o XXOOOXXX.o     ",
"     .XOOOXX.o      ",
"    oXOXXXXX.o      ",
"     oXOOX. o       ",
"     .XOXo  o       ",
"      Xoo           ",
"                    ",
"                    ",
"                    ",
"                    ",
"              .     ",
"        .    .o     ",
"       .    oXo     ",
"      oo    XX.oo.  ",
"     ooo  o.oXXX.   ",
"    oo.o oXXOoXo    ",
"   .o.Xoo.XOX.      ",
"  . oXXXXoOXXo      ",
"    ..XXXXo.o       ",
"    oXOXXXXo    .   ",
"    .OOOXXXoooo.    ",
"   oXOOOOXXX.oo     ",
"   XOXOOX.X.oo      ",
"   oOOX.o.ooo       ",
"    oXo    .        ",
"          .         ",
"                    ",
"                    ",
"                    ",
"                    ",
"                    ",
"                    ",
"          oo        ",
"       ooo     .oo  ",
"     oo.o     oXo   ",
"   oo..X. o.ooXo    ",
"     XXXXoXXXoX.Xoo ",
"    .XXXXoOOOXoX..  ",
"   oXXOOOXoXXoo     ",
"  oXOXOOOXoo.o      ",
"  oOOXOOXXX         ",
"  .XXOXXXX.o  o     ",
"   .oX.XX..ooo      ",
"     o  oooo        ",
"       oo           ",
"                    ",
"                    ",
"                    ",
"                    ",
"                    ",
"                    ",
"                    ",
"                    ",
"    ooooooooo       ",
"     o...o          ",
"   o.XXX.           ",
"  oXXXXXX o.o o..o  ",
" .XOXOOOXoXXXoXXo   ",
" XOOXOOOXoOOOoXo    ",
" .XOXOOOXoXXXoXXo   ",
"  oXXXXXX o.o o..o  ",
"   o.XXX.           ",
"     o...o          ",
"    ooooooooo       ",
"                    ",
"                    ",
"                    ",
"                    ",
"                    ",
"                    ",
"                    ",
"       oo           ",
"     o  oooo        ",
"   .oX.XX..ooo      ",
"  XXXOXXXX.o  o     ",
"  oOOXOOXXX         ",
"  oXOXOOOXoo.o      ",
"   oXXOOOXoXXoo     ",
"    .XXXXoOOOXoX..  ",
"     XXXX XXXoX.Xoo ",
"   oo..X.  .ooXo    ",
"     oo.o     oXo   ",
"       ooo     .oo  ",
"          oo        ",
"                    ",
"                    ",
"                    ",
"                    ",
"                    ",
"                    ",
"                    ",
"          .         ",
"    oXo    .        ",
"   oOO..X.ooo       ",
"   XOXOO.XX.oo      ",
"   o.OOOOXXX.oo     ",
"    .OOOXXXoooo.    ",
"    oXOXXXXo    .   ",
"    .XXXXXo.o       ",
"  . oXXXXoOXXo      ",
"   .o.Xoo.XOX.      ",
"    oo.o oXXOoXo    ",
"     ooo  o.oXXX.   ",
"      oo    XX.oo.  ",
"       .    oXo     ",
"        .    .o     ",
"              .     ",
"                    ",
"                    ",
"                    ",
"       X.o          ",
"      ..XXo  o      ",
"      oXOOX. o      ",
"      .OXXXXX.o     ",
"      oXOOOXX.o     ",
"    o oXOOOXXX.o    ",
"    ooXXXOOXX.oo    ",
"     o.XXXXo   o    ",
"     o..XooOX   o   ",
"     ooo oXOX.  o   ",
"      o  .XOXo      ",
"      o  ooXoo      ",
"       o  ooXXo     ",
"           X.oX.    ",
"           .X oo    ",
"           .o  o    ",
"            o       ",
"                    "};
