/* XPM */
static char * C8_xpm[] = {
"20 320 5 1",
" 	c None",
".	c #A00000",
"X	c #C80000",
"o	c #FF0000",
"O	c #780000",
"                    ",
"                    ",
"         ..         ",
"         XX         ",
"        .oo.        ",
"        .oo.        ",
"         XX         ",
"         XX         ",
"  .      XX      .  ",
"  O   XXXooXXX   O  ",
"  O.XXX XooX XXX.O  ",
"  ..     oo     ..  ",
"  ..XXXXXooXXXXX..  ",
"  O.XXXXooooXXXX.O  ",
"   OXXXXooooXXXXO   ",
"    O.XXooooXX.O    ",
"     ...XooX...     ",
"       OOooOO       ",
"                    ",
"                    ",
"                    ",
"                    ",
"            XX      ",
"           XoX      ",
"          .ooX      ",
"    X      Xo.      ",
"   O.     XX        ",
"   O.     XX        ",
"  ...... XXX        ",
"  O.  ..XXX         ",
"  ..XX  XoX.     .  ",
"  ..XXXXoX ...  .O  ",
"   OXXXXoXX  ...O   ",
"   ..XXoXXXXX ...   ",
"    OXXoXXXXXX.O    ",
"    OXoXXXXX...X    ",
"     XoX.....O      ",
"      XXOO          ",
"                    ",
"                    ",
"                    ",
"                    ",
"                    ",
"      O.      ...   ",
"     O.      .oo.   ",
"    ..       Xoo.   ",
"   O...     .oX.    ",
"   .. ...  .o.      ",
"   ..X  .XXo.       ",
"   .XXX XXoX        ",
"   OXXXXooXX        ",
"   O.XXoooX..       ",
"    .XoooX. .   .   ",
"    .XooXXX .. .O   ",
"    OoXXXXXX ..O    ",
"     O....X....     ",
"        OO...O      ",
"                    ",
"                    ",
"                    ",
"                    ",
"                    ",
"         O.         ",
"       .O.          ",
"     XO..           ",
"     ....           ",
"    O.X ..     .XXX ",
"    ..XX .     oooX ",
"    .XXX .. XXXXoX  ",
"    .XXXX XXXXX .   ",
"   O.XXXXXoXX       ",
"   O.XXXooXX        ",
"   .XXooXX ..       ",
"   .ooXXXX ..       ",
"    XXXXXXX .       ",
"     OO.XXX ....    ",
"       .O....OO     ",
"         ..O.       ",
"                    ",
"                    ",
"                    ",
"                    ",
"      O..OO.        ",
"     O....          ",
"    OXXX X          ",
"   ..XXX X          ",
"   .XXXX XX         ",
"  O.XXXX  X         ",
"  OXoooX XX   ..    ",
"  oooooooooXXXooX.  ",
"  oooooooooXXXooX.  ",
"  OXoooX XX   ..    ",
"  O.XXXX  X         ",
"   .XXXX XX         ",
"   ..XXX X          ",
"    OXXX X          ",
"     O....          ",
"      O..OO.        ",
"                    ",
"                    ",
"                    ",
"                    ",
"        ..O.        ",
"      .O....OO      ",
"    OO.XXX ....     ",
"   XXXXXXX .        ",
"  .ooXXXX ..        ",
"  .XXooXX ..        ",
"  O.XXXooXX         ",
"  O.XXXXXoXX        ",
"   .XXXX XXXXX .    ",
"   .XXX .. XXXXoX   ",
"   ..XX .     oooX  ",
"   O.X ..     .XXX  ",
"    ....            ",
"    XO..            ",
"      .O.           ",
"        O.          ",
"                    ",
"                    ",
"                    ",
"                    ",
"                    ",
"        OO...O      ",
"     O...XX....     ",
"    OoXXXXXX ..O    ",
"    .XooXXX .. .O   ",
"    .XoooX  .   .   ",
"   O.XXoooX..       ",
"   OXXXXooXX        ",
"   .XXX XXoX        ",
"   ..X  .XXoX       ",
"   .. ...  XoX      ",
"   O...     XoXX    ",
"    ..       XooX   ",
"     O.      XooX   ",
"      O.      XXX   ",
"                    ",
"                    ",
"                    ",
"                    ",
"                    ",
"      ..OO          ",
"     XoX.....O      ",
"    OXoXXXXX...     ",
"    OXXoXXXXXX.O    ",
"   ..XXoXXXXX ...   ",
"   OXXXXoXX  ...O   ",
"  ..XXXXoX ...  .O  ",
"  ..XX  XoX.     .  ",
"  O.  ..XXX         ",
"  ...... XXX        ",
"   O.     XX        ",
"   O.     XX        ",
"    .      XoX      ",
"          XooX      ",
"           XoX      ",
"            XX      ",
"                    ",
"                    ",
"                    ",
"                    ",
"                    ",
"       OOooOO       ",
"     ....oo....     ",
"    O.XXooooXX.O    ",
"   OXXXXooooXXX.O   ",
"  O.XXXXooooXXXX.O  ",
"  ..XXXXXooXXXXX..  ",
"  ..     oo     ..  ",
"  O.XXX XooX XXX.O  ",
"  O   XXXooXXX   O  ",
"  .      XX      .  ",
"         XX         ",
"         XX         ",
"        .oo.        ",
"        .oo.        ",
"         XX         ",
"         ..         ",
"                    ",
"                    ",
"                    ",
"                    ",
"          OO..      ",
"      O.....XoX     ",
"    X...XXXXXoX     ",
"    O.XXXXXXoXXO    ",
"   ... XXXXXoXX..   ",
"   O...  XXoXXXXO   ",
"  O.  ... XoXXXX..  ",
"  .     .XoX  XX..  ",
"         XXX..  .O  ",
"        XXX ......  ",
"        XX     .O   ",
"        XX     .O   ",
"      XoX      .    ",
"      XooX          ",
"      XoX           ",
"      XX            ",
"                    ",
"                    ",
"                    ",
"                    ",
"      O...OO        ",
"     ....XX...O     ",
"    O.. XXXXXXoO    ",
"   O. .. XXXooX.    ",
"   .   .  XoooX.    ",
"       ..XoooXX.O   ",
"        XXooXXXXO   ",
"        XoXX XXX.   ",
"       XoXX.  X..   ",
"      XoX  ... ..   ",
"    .XoX     ...O   ",
"   XooX       ..    ",
"   Xoo.      .O     ",
"   XXX      .O      ",
"                    ",
"                    ",
"                    ",
"                    ",
"                    ",
"        .O..        ",
"      OO....O.      ",
"     .... XXX.O     ",
"        . XXXXXX    ",
"        .. .XXXXX   ",
"        .. XXooXX.  ",
"         XXooXXX.O  ",
"        XXoXXXXX.O  ",
"    . XXXXX XXXX.   ",
"   XoXXXX .. XXX.   ",
"  Xooo     . XX..   ",
"  XXX.     .. X.O   ",
"            ....    ",
"            ..O     ",
"           .O       ",
"          .O        ",
"                    ",
"                    ",
"                    ",
"                    ",
"        .OO..O      ",
"          ....O     ",
"          X XXXO    ",
"          X XXX..   ",
"         XX XXXX.   ",
"         X  XXXX.O  ",
"    ..   XX Xooo.O  ",
"  .XooXXXooooooooo  ",
"  .XooXXXooooooooo  ",
"    ..   XX Xooo.O  ",
"         X  XXXX.O  ",
"         XX XXXX.   ",
"          X XXX..   ",
"          X XX.O    ",
"          ....O     ",
"        .OO..O      ",
"                    ",
"                    ",
"                    ",
"                    ",
"          .O        ",
"           .O.      ",
"            ..OX    ",
"            ....    ",
"  XXXX     .. X.    ",
"  Xooo     . XX..   ",
"   XoXXXX .. XXX.   ",
"    X XXXXX XXXX.   ",
"        XXoXXXXX.O  ",
"         XXooXXX.O  ",
"        .. XXooXX.  ",
"        .. XXXXoo.  ",
"        . XXXXXXX   ",
"     .... XXX.O     ",
"      OO....O.      ",
"        .O..        ",
"                    ",
"                    ",
"                    ",
"                    ",
"                    ",
"   ...      .O      ",
"   .oo.      .O     ",
"   .ooX       .     ",
"    .Xo.     ...O   ",
"      .o.  ... ..   ",
"       .oXX.  X..   ",
"        XoXX XXX.   ",
"        XXooXXXXO   ",
"       ..XoooXX.O   ",
"   .   .  XoooX.    ",
"   O. .. XXXooX.    ",
"    O.. XXXXXXoO    ",
"     ....XX...O     ",
"      O...OO        ",
"                    ",
"                    ",
"                    ",
"                    ",
"                    ",
"      XX            ",
"      XoX           ",
"      XooX          ",
"      XoX      .    ",
"        XX     .O   ",
"        XX     .O   ",
"        XXX ......  ",
"         XXX..  .O  ",
"  .     .XoX  XX..  ",
"  O.  ... XoXXXX..  ",
"   O...  XXoXXXXO   ",
"   ... XXXXXoXX..   ",
"    O.XXXXXXoXXO    ",
"    X...XXXXXoXO    ",
"      O.....XoX     ",
"          OO..      ",
"                    ",
"                    "};
