/* XPM */
static char * C3_xpm_plain[] = {
"20 320 5 1",
" 	c None",
".	c #FF0000",
"X	c #780000",
"o	c #A00000",
"O	c #C80000",
"                    ",
"                    ",
"                    ",
"   .    XooX    .   ",
"   X   XOOOOX   X   ",
"   X  XOO..OOX  X   ",
"   X XO......OX X   ",
"   X OO......OO X   ",
"   XoO........OoX   ",
"   XoOOOOOOOOOOoX   ",
"   XoX  oOOo  XoX   ",
"   X     oo     X   ",
"   X  X oOOo X  X   ",
"      XoO..OoX      ",
"      XoO..OoX      ",
"      X  XX  X      ",
"      X      X      ",
"      X      X      ",
"      X      X      ",
"                    ",
"                    ",
"      .             ",
"      o             ",
"     o   XXXX       ",
"     X XXOOOoo      ",
"    XXooO...OOX     ",
"    XoOO.....Oo   . ",
"   XoOO.......oX  o ",
"   X X O......OX o  ",
"  X     OO....OX X  ",
"     X  oOOOOOOoX   ",
"     XooOo   XooX   ",
"    Xoo..Oo   oX    ",
"    X O...ooX  X    ",
"   X   XXOoX  X     ",
"   X       X        ",
"          X         ",
"          X         ",
"         X          ",
"                    ",
"          .         ",
"         X          ",
"        X           ",
"       X X          ",
"      XoOOOOOoX     ",
"     XoOOOO..OoX    ",
"    X XO......Oo    ",
"        oO.....O    ",
"         OO....O    ",
"     X   OOO..OO   .",
"    XoooOoOOO.OOX X ",
"   X oO.OO  o.OO X  ",
"  X   ...o   OOoX   ",
" X   XO.Oo   XoX    ",
"      X ooX   X     ",
"         X   X      ",
"        X           ",
"       X            ",
"      X             ",
"                    ",
"                    ",
"            o.      ",
"          Xo        ",
"        XX          ",
"      XXooXXX       ",
"     X ooOOOooX     ",
"        XO...OOo    ",
"      X  O....OoX   ",
"    XXo  O.....OX   ",
"  XX ooo O.....OX   ",
" X   O.OoOO....OX   ",
"     X..OoO...OX    ",
"     X..o  O.OoX    ",
"      Ooo   OOo  o. ",
"       oXX XOoXXo   ",
"      XX    oXX     ",
"    XX     XX       ",
"          X         ",
"                    ",
"                    ",
"                    ",
"                    ",
"                    ",
"       XXXXXXXXX.   ",
"         ooo        ",
"         XOOOX      ",
" XXXXXXX  O.OOX     ",
"     oo   O...OX    ",
"     OOo oO...OOX   ",
"    X..OoOO....Oo   ",
"    X..OoOO....Oo   ",
"     OOo oO...OOX   ",
"     oo   O...OX    ",
" XXXXXXX  O.OOX     ",
"         XOOOX      ",
"         ooo        ",
"       XXXXXXXXX.   ",
"                    ",
"                    ",
"                    ",
"                    ",
"                    ",
"          X         ",
"    XX     XX       ",
"      XX    oXX     ",
"       oXX XOoXXo   ",
"      Ooo   OOo  o. ",
"     X..o  O.OoX    ",
"     X..OoO...OX    ",
" X   O.OoOO....OX   ",
"  XX ooo O.....OX   ",
"    XXo  O.....OX   ",
"      X  O....OoX   ",
"        XO...OOo    ",
"     X ooOOOooX     ",
"      XXooXXX       ",
"        XX          ",
"          Xo        ",
"            o.      ",
"                    ",
"                    ",
"      X             ",
"       X            ",
"        X           ",
"         X   X      ",
"      X ooX   X     ",
" X   XO.Oo   XoX    ",
"  X   ...o   OOoX   ",
"   X oO.OO  o.OO X  ",
"    XoooOoOOO.OOX X ",
"     X   OOO..OO   .",
"         OO....O    ",
"        oO.....O    ",
"    X XO......Oo    ",
"     XoOOOO..OoX    ",
"      XoOOOOOoX     ",
"       X X          ",
"        X           ",
"         X          ",
"          .         ",
"                    ",
"         X          ",
"          X         ",
"          X         ",
"   X       X        ",
"   X   XXOoX  X     ",
"    X O...ooX  o    ",
"    Xoo..Oo   oX    ",
"     XooOo   XooX   ",
"     X  oOOOOOOoX   ",
"  X     OO....OX X  ",
"   X X O......OX o  ",
"   XoOO.......oX  o ",
"    XoOO.....Oo   . ",
"    XXooO...OOX     ",
"     X XXOOOoo      ",
"     o   XXXX       ",
"      o             ",
"      .             ",
"                    ",
"                    ",
"      X      X      ",
"      X      X      ",
"      X      X      ",
"      X  XX  X      ",
"      XoO..OoX      ",
"      XoO..OoX      ",
"   X  X oOOo X  X   ",
"   X     oo     X   ",
"   XoX  oOOo  XoX   ",
"   XoOOOOOOOOOOoX   ",
"   XoO........OoX   ",
"   X OO......OO X   ",
"   X XO......OX X   ",
"   X  XOO..OOX  X   ",
"   X   XOOOOX   X   ",
"   .    XooX    .   ",
"                    ",
"                    ",
"                    ",
"                    ",
"          X         ",
"         X          ",
"         X          ",
"        X       X   ",
"     X  XoOXX   X   ",
"    X  Xoo...O X    ",
"    Xo   oO..ooX    ",
"   XooX   oOooX     ",
"   XoOOOOOOo  X     ",
"  X XO....OO     X  ",
"  o XO......O X X   ",
" o  Xo.......OOoX   ",
" .   oO.....OOoX    ",
"     XOO...OooXX    ",
"      ooOOOXX X     ",
"       XXXX   o     ",
"             o      ",
"             .      ",
"                    ",
"                    ",
"             X      ",
"            X       ",
"           X        ",
"      X   X         ",
"     X   Xoo X      ",
"    XoX   oO.OX   X ",
"   XoOO   o...   X  ",
"  X OO.o  OO.Oo X   ",
" X XOO.OOOoOoooX    ",
".   OO..OOO   X     ",
"    O....OO         ",
"    O.....Oo        ",
"    oO......OX X    ",
"    XoO..OOOOoX     ",
"     XoOOOOOoX      ",
"          X X       ",
"           X        ",
"          X         ",
"         .          ",
"                    ",
"                    ",
"         X          ",
"       XX     XX    ",
"     XXo    XX      ",
"   oXXoOX XXo       ",
" .o  oOO   ooO      ",
"    XoO.O  o..X     ",
"    XO...OoO..X     ",
"   XO....OOoO.O   X ",
"   XO.....O ooo XX  ",
"   XO.....O  oXX    ",
"   XoO....O  X      ",
"    oOO...OX        ",
"     XooOOOoo X     ",
"       XXXooXo      ",
"          XX        ",
"        oX          ",
"      .o            ",
"                    ",
"                    ",
"                    ",
"                    ",
"   .XXXXXXXXX       ",
"        ooo         ",
"      XOOOX         ",
"     XOO.O  XXXXXXX ",
"    XO...O   oo     ",
"   XOO...Oo oOO     ",
"   oO....OOoO..X    ",
"   oO....OOoO..X    ",
"   XOO...Oo oOO     ",
"    XO...O   oo     ",
"     XOO.O  XXXXXXX ",
"      XOOOX         ",
"        ooo         ",
"   .XXXXXXXXX       ",
"                    ",
"                    ",
"                    ",
"                    ",
"      .o            ",
"        oX          ",
"          XX        ",
"       XXXooXX      ",
"     XooOOOoo X     ",
"    oOO...OX        ",
"   XoO....O  X      ",
"   XO.....O  oXX    ",
"   XO.....O ooo XX  ",
"   XO....OOoO.O   X ",
"    XO...OoO..X     ",
"    XoO.O  o..X     ",
" .o  oOO   ooO      ",
"   oXXoOX XXo       ",
"     XXo    XX      ",
"       XX     XX    ",
"         X          ",
"                    ",
"                    ",
"         .          ",
"          X         ",
"           X        ",
"          X X       ",
"     XoOOOOOoX      ",
"    XoO..OOOOoX     ",
"    oO......OX      ",
"    O.....Oo        ",
"    O....OO         ",
".   OO..OOO   X     ",
" X XOO.OOOoOoooX    ",
"  X OO.o  OO.Oo X   ",
"   XoOO   o...   X  ",
"    XoX   oO.OX   X ",
"     X   Xoo X      ",
"      X   X         ",
"           X        ",
"            X       ",
"             X      ",
"                    ",
"                    ",
"             .      ",
"             o      ",
"       XXXX   o     ",
"      ooOOOXX X     ",
"     XOO...OooXX    ",
" .   oO.....OOoX    ",
" o  Xo.......OOoX   ",
"  o XO......O X X   ",
"  X XO....OO     X  ",
"   XoOOOOOOo  X     ",
"   XooX   oOooX     ",
"    Xo   oO..ooX    ",
"    o  Xoo...O X    ",
"     X  XoOXX   X   ",
"        X       X   ",
"         X          ",
"         X          ",
"          X         ",
"                    "};
