/* XPM */
static char * C2_xpm_plain[] = {
"20 320 5 1",
" 	c None",
".	c #FF0000",
"X	c #C80000",
"o	c #780000",
"+	c #A00000",
"                    ",
"                    ",
"                    ",
"  .              .  ",
"  .      XX      .  ",
"  o    o+..+o    o  ",
"  oX  oXX..XXo  Xo  ",
"  oX+o+XX..XX+o+Xo  ",
"  oX+oXXXXXXXXo+Xo  ",
"  oX+oXXXXXXXXo+Xo  ",
"  . +oXXXXXXXXo+ .  ",
"  .  o+XXXXXX+o  .  ",
"  .   +XX++XX+   .  ",
"      oX+oo+Xo      ",
"       Xo  oX       ",
"       X    X       ",
"                    ",
"                    ",
"                    ",
"                    ",
"                    ",
"     .              ",
"    .               ",
"    o               ",
"   oX     o         ",
"   oX  oo+XXo       ",
"   oX+o+XX..Xo      ",
"  oX+oXXXX..Xo    . ",
"  . +oXXXXXXXXo   . ",
" o  +oXXXXXXXXo Xo  ",
"     XXXXXXXXXo+Xo  ",
"     +XXXXXXXXo+Xo  ",
"     +X++XXXX++Xo   ",
"     Xooo+XX+oo .   ",
"     X   oX+    X   ",
"         oX    +    ",
"         X          ",
"                    ",
"                    ",
"                    ",
"         o          ",
"        .           ",
"       o            ",
"      oX            ",
"     oX+            ",
"    .X+ooooo        ",
"   + +o++XX+.X      ",
"     o+XXXX...      ",
"     oXXXXXX.+o     ",
"     +XXXXXXXXo     ",
"    oXXXXXXXXXo     ",
"    X+++XXXXX+o   . ",
"   oo oo+XXXX+o+Xo  ",
"       o+XXX+o+Xo   ",
"        +X+oo+Xo    ",
"       oXo    .     ",
"       o     +      ",
"                    ",
"                    ",
"                    ",
"                    ",
"           ..       ",
"        ooo         ",
"     X.oXXX         ",
"    +  X++          ",
"      o+oooo        ",
"      o+XXXXoo      ",
"      +XXXXXXXo     ",
"     +XXXXXX..X     ",
"    XXXXXXXX..Xo    ",
"   Xoo+XXXXXXX+     ",
"      o+XXXXXXo     ",
"      o+XXXXX+o     ",
"      oXXXXXXo      ",
"     XX++Xooo+    . ",
"          +++XXXo.  ",
"            Xooo    ",
"           .o       ",
"          o         ",
"                    ",
"                    ",
"                    ",
"       ...ooooo..   ",
"          XXXX      ",
"         ++++       ",
"        ooooo       ",
"      o++XXX+o      ",
"    XXXXXXXXXXo     ",
"     o+XXXXXXX+     ",
"      o+XXXX...X    ",
"      o+XXXX...X    ",
"     o+XXXXXXX+     ",
"    XXXXXXXXXXo     ",
"      o++XXX+o      ",
"        ooooo       ",
"         ++++       ",
"          XXXX      ",
"       ...ooooo.X   ",
"                    ",
"                    ",
"                    ",
"          o         ",
"           .o       ",
"            Xooo    ",
"          +++XX.o.  ",
"     XX++Xooo+    . ",
"      oXXXXXXo      ",
"      o+XXXXX+o     ",
"      o+XXXXXXo     ",
"   Xoo+XXXXXXX+     ",
"    XXXXXXXX..Xo    ",
"     +XXXXXX..X     ",
"      +XXXXXXXo     ",
"      o+XXXXoo      ",
"      o+oooo        ",
"    +  X++          ",
"     X.oXXX         ",
"        ooo         ",
"           ..       ",
"                    ",
"                    ",
"                    ",
"                    ",
"       o     +      ",
"       oXo    .     ",
"        +X+oo+Xo    ",
"       o+XXX+o+Xo   ",
"   oo oo+XXXX+o+Xo  ",
"    X+++XXXXX+o   . ",
"    oXXXXXXXXXo     ",
"     +XXXXXXXXo     ",
"     oXXXXXX.+o     ",
"     o+XXXX...      ",
"   + +o++XX+.X      ",
"    .X+ooooo        ",
"     oX+            ",
"      oX            ",
"       o            ",
"        .           ",
"         o          ",
"                    ",
"                    ",
"                    ",
"         X          ",
"         oX    +    ",
"     X   oX+    X   ",
"     Xooo+XX+oo X   ",
"     +X++XXXX++Xo   ",
"     +XXXXXXXXo+Xo  ",
"     XXXXXXXXXo+Xo  ",
" o  +oXXXXXXXXo Xo  ",
"  . +oXXXXXXXXo   . ",
"  oX+oXXXX..Xo    . ",
"   oX+o+XX..Xo      ",
"   oX  oo+XXo       ",
"   oX     o         ",
"    o               ",
"    .               ",
"     .              ",
"                    ",
"                    ",
"                    ",
"                    ",
"                    ",
"       X    X       ",
"       Xo  oX       ",
"      oX+oo+Xo      ",
"  .   +XX++XX+   .  ",
"  .  o+XXXXXX+o  .  ",
"  . +oXXXXXXXXo+ .  ",
"  oX+oXXXXXXXXo+Xo  ",
"  oX+oXXXXXXXXo+Xo  ",
"  oX+o+XX..XX+o+Xo  ",
"  oX  oXX..XXo  Xo  ",
"  o    o+..+o    o  ",
"  .      XX      .  ",
"  X              .  ",
"                    ",
"                    ",
"                    ",
"                    ",
"                    ",
"                    ",
"          X         ",
"    +    Xo         ",
"   X    +Xo   X     ",
"   . oo+XX+oooX     ",
"   oX++XXXX++X+     ",
"  oX+oXXXXXXXX+     ",
"  oX+oXXXXXXXXX     ",
"  oX oXXXXXXXXo+  o ",
" .   oXXXXXXXXo+ .  ",
" .    oX..XXXXo+Xo  ",
"      oX..XX+o+Xo   ",
"       oXX+oo  Xo   ",
"         o     .o   ",
"               o    ",
"               .    ",
"              .     ",
"                    ",
"                    ",
"                    ",
"                    ",
"      +     o       ",
"     .    oXo       ",
"    oX+oo+X+        ",
"   oX+o+XXX+o       ",
"  oX+o+XXXX+oo oo   ",
" .   o+XXXXX+++X    ",
"o    oXXXXXXXXXo    ",
"     oXXXXXXXX+     ",
"     o+.XXXXXXo     ",
"      ...XXXX+o     ",
"      X.+XX++o+ +   ",
"        ooooo+X.    ",
"            +Xo     ",
"            Xo      ",
"            o       ",
"           .        ",
"          o         ",
"                    ",
"         o          ",
"       o.           ",
"    oooX            ",
"  .oXXX+++          ",
" .    +oooX++XX     ",
"      oXXXXXXo      ",
"     o+XXXXX+o      ",
"     oXXXXXX+o      ",
"     +XXXXXXX+ooX   ",
"    oX..XXXXXXXX    ",
"     X..XXXXXX+     ",
"     oXXXXXXX+      ",
"      ooXXXX+o      ",
"        oooo+o      ",
"          ++X  +    ",
"         XXXoX+     ",
"         ooo        ",
"       ..           ",
"                    ",
"                    ",
"                    ",
"   X.ooooo...       ",
"      XXXX          ",
"       ++++         ",
"       ooooo        ",
"      o+XXX++o      ",
"     oXXXXXXXXXX    ",
"     +XXXXXXX+o     ",
"    X...XXXX+o      ",
"    X...XXXX+o      ",
"     +XXXXXXX+o     ",
"     oXXXXXXXXXX    ",
"      o+XXX++o      ",
"       ooooo        ",
"       ++++         ",
"      XXXX          ",
"   ..ooooo...       ",
"                    ",
"                    ",
"                    ",
"       ..           ",
"         ooo        ",
"         XXXo.+     ",
"          ++X  o    ",
"        oooo+o      ",
"      ooXXXX+o      ",
"     oXXXXXXX+      ",
"     X..XXXXXX+     ",
"    oX..XXXXXXXX    ",
"     +XXXXXXX+ooX   ",
"     oXXXXXX+o      ",
"     o+XXXXX+o      ",
"      oXXXXXXo      ",
" .    +oooX++XX     ",
"  .o.XX+++          ",
"    oooX            ",
"       o.           ",
"         o          ",
"                    ",
"          o         ",
"           .        ",
"            o       ",
"            Xo      ",
"            +Xo     ",
"        ooooo+X.    ",
"      X.+XX++o+ +   ",
"      ...XXXX+o     ",
"     o+.XXXXXXo     ",
"     oXXXXXXXX+     ",
"o    oXXXXXXXXXo    ",
" .   o+XXXXX+++X    ",
"  oX+o+XXXX+oo oo   ",
"   oX+o+XXX+o       ",
"    oX+oo+X+        ",
"     .    oXo       ",
"      +     o       ",
"                    ",
"                    ",
"                    ",
"                    ",
"              .     ",
"               .    ",
"               o    ",
"         o     Xo   ",
"       oXX+oo  Xo   ",
"      oX..XX+o+Xo   ",
" .    oX..XXXXo+Xo  ",
" .   oXXXXXXXXo+ .  ",
"  oX oXXXXXXXXo+  o ",
"  oX+oXXXXXXXXX     ",
"  oX+oXXXXXXXX+     ",
"   oX++XXXX++X+     ",
"   X oo+XX+oooX     ",
"   +    +Xo   X     ",
"    +    Xo         ",
"          X         ",
"                    ",
"                    ",
"                    "};
