/* XPM */
static char * C5_xpm[] = {
"20 20 6 1 XPMEXT",
" 	c None",
".	c #A00000",
"X	c #780000",
"o	c #C80000",
"O	c #FF0000",
"+	c #C80000",
"                    ",
"        ...X        ",
"      .ooo.o  ..    ",
"   X      .   Xo.   ",
"    oo.X  X  .oOo.  ",
"    o+o.  X  oOoX.  ",
"  . .oXXXXo XOo.    ",
"  o X.X++ooXXX      ",
" .o   X+oOOOX    oX ",
" .o   XoOOOOooXX... ",
" ...XXooOOOOoX   o. ",
" Xo    XOOOo+X   o. ",
"      XXXoo++X.X o  ",
"    .oOX oXXXXo. .  ",
"  .XoOo  X  .++o    ",
"  .oOo.  X  X.oo    ",
"   .oX   .      X   ",
"    ..  o.ooo.      ",
"        X...        ",
"                    ",
"XPMEXT nviews",
"1",
"XPMENDEXT"};
