/* XPM */
static char * C0_xpm[] = {
"20 320 5 1",
" 	c None",
".	c #C80000",
"X	c #FF0000",
"o	c #780000",
"+	c #A00000",
"                    ",
"                    ",
"                    ",
"                    ",
"                    ",
"     .       .      ",
"     X       X      ",
"     X       X      ",
"     X   o   X      ",
"    .X  o.o  X.     ",
"    oX++.X.++Xo     ",
"    oX++XXX++Xo     ",
"    .X  o.o  X.     ",
"     X       X      ",
"     .       .      ",
"                    ",
"                    ",
"                    ",
"                    ",
"                    ",
"                    ",
"                    ",
"                    ",
"        .           ",
"       X            ",
"       X            ",
"     .X        .    ",
"     oX   o    X    ",
"    oX++ o.o  X     ",
"    .X++.X.o  X     ",
"    oX  XXX.+X.     ",
"    .   o.X++Xo     ",
"          o  Xo     ",
"            +.      ",
"            X       ",
"                    ",
"                    ",
"                    ",
"                    ",
"                    ",
"                    ",
"                    ",
"                    ",
"          X         ",
"         X          ",
"        X           ",
"      oX            ",
"     oX+            ",
"     X++o.+    X    ",
"    X  o.X.   X     ",
"       oX.o  X      ",
"        oo++X       ",
"          +Xo       ",
"          Xo        ",
"         X          ",
"                    ",
"                    ",
"                    ",
"                    ",
"                    ",
"                    ",
"                    ",
"                    ",
"                    ",
"            +.      ",
"       oo.XX        ",
"      .XXX          ",
"     Xo ++          ",
"        +.oo        ",
"       oXX..o       ",
"        .XXo        ",
"        oX.     .   ",
"          ++  .+    ",
"          ++XX      ",
"         XXXo.      ",
"        .o.o        ",
"                    ",
"                    ",
"                    ",
"                    ",
"                    ",
"                    ",
"                    ",
"                    ",
"       .oo.         ",
"     .XXXXXXXX.     ",
"        ++          ",
"        ++          ",
"       oX.o         ",
"       .XX.o        ",
"       oX.o         ",
"        ++          ",
"        ++          ",
"     .XXXXXXXX.     ",
"       .oo.         ",
"                    ",
"                    ",
"                    ",
"                    ",
"                    ",
"                    ",
"                    ",
"                    ",
"                    ",
"        .o.o        ",
"         XXXo.      ",
"          ++XX      ",
"          ++  XX    ",
"        oX.     .   ",
"        .XXo        ",
"       oXX..o       ",
"        +.oo        ",
"     X+ ++          ",
"      .XXX          ",
"       oo.XX        ",
"            X.      ",
"                    ",
"                    ",
"                    ",
"                    ",
"                    ",
"                    ",
"                    ",
"                    ",
"          X         ",
"           Xo       ",
"           +Xo      ",
"         oo++X      ",
"        oX.o  X     ",
"     X  o.X.   X    ",
"      X++o.+    X   ",
"      oX+           ",
"       oX           ",
"         X          ",
"          X         ",
"           X        ",
"                    ",
"                    ",
"                    ",
"                    ",
"                    ",
"                    ",
"                    ",
"                    ",
"                    ",
"            X       ",
"            o.      ",
"          o  Xo     ",
"    .   o.X++Xo     ",
"    oX  XXX.+X.     ",
"    .X++.X.o  X     ",
"    oX++ o.o  X     ",
"     oX   o    +    ",
"     .X        .    ",
"       .            ",
"       +            ",
"        .           ",
"                    ",
"                    ",
"                    ",
"                    ",
"                    ",
"                    ",
"                    ",
"                    ",
"      .       .     ",
"      X       X     ",
"     .X  o.o  X.    ",
"     oX++XXX++Xo    ",
"     oX++.X.++Xo    ",
"     .X  o.o  X.    ",
"      X   o   X     ",
"      X       X     ",
"      X       X     ",
"      .       .     ",
"                    ",
"                    ",
"                    ",
"                    ",
"                    ",
"                    ",
"                    ",
"                    ",
"                    ",
"                    ",
"       X            ",
"      .+            ",
"     oX  o          ",
"     oX++X.o   .    ",
"     .X+.XXX  Xo    ",
"     X  o.X.++X.    ",
"     X  o.o ++Xo    ",
"    X    o   Xo     ",
"    .        X.     ",
"            X       ",
"            X       ",
"           .        ",
"                    ",
"                    ",
"                    ",
"                    ",
"                    ",
"                    ",
"                    ",
"                    ",
"          X         ",
"        oX          ",
"       oX+          ",
"       X++oo        ",
"      X  o.Xo       ",
"     X   .X.o  X    ",
"    X    +.o++X     ",
"            +Xo     ",
"            Xo      ",
"           X        ",
"          X         ",
"         X          ",
"                    ",
"                    ",
"                    ",
"                    ",
"                    ",
"                    ",
"                    ",
"        o.o.        ",
"      .oXXX         ",
"      XX++          ",
"    +.  ++          ",
"   .     .Xo        ",
"        oXX.        ",
"       o..XXo       ",
"        oo.+        ",
"          ++ oX     ",
"          XXX.      ",
"        XX.oo       ",
"      .+            ",
"                    ",
"                    ",
"                    ",
"                    ",
"                    ",
"                    ",
"                    ",
"                    ",
"                    ",
"         .oo.       ",
"     .XXXXXXXX.     ",
"          ++        ",
"          ++        ",
"         o.Xo       ",
"        o.XX.       ",
"         o.Xo       ",
"          ++        ",
"          ++        ",
"     .XXXXXXXX.     ",
"         .oo.       ",
"                    ",
"                    ",
"                    ",
"                    ",
"                    ",
"                    ",
"                    ",
"                    ",
"      .X            ",
"        XX.oo       ",
"          XXX.      ",
"          ++ +X     ",
"        oo.+        ",
"       o..XXo       ",
"        oXX.        ",
"   .     .Xo        ",
"    XX  ++          ",
"      XX++          ",
"      .oXXX         ",
"        o.o.        ",
"                    ",
"                    ",
"                    ",
"                    ",
"                    ",
"                    ",
"                    ",
"                    ",
"        X           ",
"         X          ",
"          X         ",
"           Xo       ",
"           +Xo      ",
"   X    +.o++X      ",
"    X   .X.o  X     ",
"     X  o.Xo        ",
"      X++oo         ",
"      oX+           ",
"       oX           ",
"         X          ",
"                    ",
"                    ",
"                    ",
"                    ",
"                    ",
"                    ",
"                    ",
"           .        ",
"            +       ",
"            .       ",
"    .        X.     ",
"    +    o   Xo     ",
"     X  o.o ++Xo    ",
"     X  o.X.++X.    ",
"     .X+.XXX  Xo    ",
"     oX++X.o   .    ",
"     oX  o          ",
"      .o            ",
"       X            ",
"                    ",
"                    ",
"                    ",
"                    ",
"                    "};
