/* XPM */
static char * C4_xpm[] = {
"20 320 5 1",
" 	c None",
".	c #A0A000",
"X	c #C8C800",
"o	c #FFFF00",
"O	c #787800",
"                    ",
"                    ",
"        ....        ",
"       .XXXX.       ",
"      .XXooXX.      ",
"      .XXooXX.      ",
"      .XXooXX.      ",
"       .XXXX.       ",
"     O ..XX.. O     ",
"     .OO.oo.OO.     ",
"     .O OooO O.     ",
"     .   OO   .     ",
"     .  OooO  .     ",
"     .  OooO  .     ",
"     .   OO   .     ",
"     .  OooO  .     ",
"     .  OooO  .     ",
"     O   OO   O     ",
"                    ",
"                    ",
"                    ",
"                    ",
"          .X..O     ",
"         .XXXX.O    ",
"        OXXoooX.    ",
"         XXooXX.O   ",
"      O ..XooXX.    ",
"      .O..XXX..O    ",
"      .OO.oX..      ",
"     .  Oooo.. O    ",
"     O   OoOOO.     ",
"    O   OoO  O.     ",
"    .  Ooo.   .     ",
"   .    OOO  .      ",
"   O  Ooo.   .      ",
"       oo.  O       ",
"       OOO  .       ",
"            O       ",
"           O        ",
"                    ",
"                    ",
"                    ",
"                    ",
"                    ",
"           .X...    ",
"          .XXXX..   ",
"       OO .XXooX.   ",
"      O.O..XoooX.   ",
"     OOO O.XXoXXX   ",
"    O.   OoXXXXX.   ",
"   O.    ooo....    ",
"  O.   OoOoOO.      ",
"  O    ooo   OO     ",
"     OOOoO  O.O     ",
"     ooO    OO      ",
"    OOoO   .O       ",
"     O    .O        ",
"         .O         ",
"        OO          ",
"                    ",
"                    ",
"                    ",
"                    ",
"                    ",
"              O     ",
"          O O...O   ",
"       O..  XXXX.O  ",
"     O. OO...XXoX.  ",
"  O..    O..XoooX.  ",
" O       OoXXoooXX  ",
"      O.OoooXXXXX.  ",
"   O..OooOo...XX.   ",
"   OooOoO OO.. O    ",
"   Ooo O   OO       ",
"     O     O.O      ",
"         O.         ",
"       O.           ",
"     O.             ",
"                    ",
"                    ",
"                    ",
"                    ",
"                    ",
"                    ",
"                    ",
"  O........O        ",
"         OO  ...    ",
"          O..XXX.   ",
"   OO OO O..XXXXX.  ",
"  OooOooOooXXoooX.  ",
"  OooOooOooXXoooX.  ",
"   OO OO O..XXXXX.  ",
"          O..XXX.   ",
"         OO  ...    ",
"  O........O        ",
"                    ",
"                    ",
"                    ",
"                    ",
"                    ",
"                    ",
"                    ",
"                    ",
"     O.             ",
"       .O           ",
"         O.         ",
"     O     ..O      ",
"   Ooo O   OO       ",
"   OooOoO OO.. O    ",
"   O..OooOo...XX.   ",
"      O.OoooXXXXX.  ",
" O       OoXXoooXX  ",
"  O.O    O..XoooX.  ",
"     .. OO...XXoX.  ",
"       ...  .XXX.O  ",
"          O O...O   ",
"             O      ",
"                    ",
"                    ",
"                    ",
"                    ",
"                    ",
"       OO           ",
"        .O          ",
"    O    .O         ",
"   OOoO   .O        ",
"    ooO    OO       ",
"    OOOoO  O.O      ",
" O    ooo   OO      ",
" O.   OoOoOO.       ",
"  O.    ooo....     ",
"   O.   OoXXXXX.    ",
"    OOO O.XXoXXX    ",
"     O.O..XoooX.    ",
"      OO .XXooX.    ",
"         .XXX..     ",
"          .X..      ",
"                    ",
"                    ",
"                    ",
"                    ",
"          O         ",
"           O        ",
"      OOO  .        ",
"      oo.  .        ",
"  O  Ooo.   O       ",
"  .    OOO  .       ",
"   O  Ooo.   O      ",
"   .   OoO  O.      ",
"    O   OoOOO.      ",
"    .  Oooo.. O     ",
"     OOO.oX..       ",
"     .O..XXX.XO     ",
"     O ..XooXX.     ",
"        XXooXX.O    ",
"       OXXoooX.     ",
"        .XXXX.O     ",
"         .X..O      ",
"                    ",
"                    ",
"                    ",
"                    ",
"     O   OO   O     ",
"     .  OooO  .     ",
"     .  OooO  .     ",
"     .   OO   .     ",
"     .  OooO  .     ",
"     .  OooO  .     ",
"     .   OO   .     ",
"     .O OooO O.     ",
"     .OO.oo.OO.     ",
"     O ..XX.. O     ",
"       .XXXX.       ",
"      .XXooXX.      ",
"      .XXooXX.      ",
"      .XXooXX.      ",
"       .XXXX.       ",
"        ....        ",
"                    ",
"                    ",
"                    ",
"        O           ",
"       O            ",
"       .  OOO       ",
"       O  .oo       ",
"      .   .ooO  O   ",
"      .  OOO    .   ",
"     .   .ooO  .    ",
"     .O  OoO   O    ",
"     .OOOoO   O     ",
"    O ..oooO  .     ",
"      ..Xo.OO.      ",
"    O..XXX..O.      ",
"   O.XXooX.. O      ",
"    .XXooXX         ",
"    .XoooXXO        ",
"    O.XXXX.         ",
"     O..X.          ",
"                    ",
"                    ",
"                    ",
"          OO        ",
"         O.         ",
"        O.    O     ",
"       O.   OoOO    ",
"      OO    Ooo     ",
"     O.O  OoOOO     ",
"     OO   ooo    O  ",
"      .OOoOoO   .O  ",
"    ....ooo    .O   ",
"   .XXXXXoO   .O    ",
"   XXXoXX.O OOO     ",
"   .XoooX..O.O      ",
"   ..ooXX. OO       ",
"    .XXXX.          ",
"     ..X.           ",
"                    ",
"                    ",
"                    ",
"                    ",
"                    ",
"                    ",
"             .O     ",
"           .O       ",
"         .O         ",
"      O.O     O     ",
"       OO   O ooO   ",
"    O ..OO OoOooO   ",
"   .XX...oOooO..O   ",
"  .XXXXXoooO.O      ",
"  XXoooXXoO       O ",
"  .XoooX..O    ..O  ",
"  .XoXX...OO .O     ",
"  O.XXXX  ..O       ",
"   O...O O          ",
"     O              ",
"                    ",
"                    ",
"                    ",
"                    ",
"                    ",
"                    ",
"                    ",
"                    ",
"                    ",
"        O........O  ",
"    ...  OO         ",
"   .XXX..O          ",
"  .XXXXX..O OO OO   ",
"  .XoooXXooOooOooO  ",
"  .XoooXXooOooOooO  ",
"  .XXXXX..O OO OO   ",
"   .XXX..O          ",
"    ...  OO         ",
"        O........O  ",
"                    ",
"                    ",
"                    ",
"                    ",
"                    ",
"                    ",
"                    ",
"                    ",
"      O             ",
"   O...O O          ",
"  O.XXX.  ...       ",
"  .XoXX...OO ..     ",
"  .XoooX..O    O.O  ",
"  XXoooXXoO       O ",
"  .XXXXXoooO.O      ",
"   .XX...oOooO..O   ",
"    O ..OO OoOooO   ",
"       OO   O ooO   ",
"      O..     O     ",
"         .O         ",
"           O.       ",
"             .O     ",
"                    ",
"                    ",
"                    ",
"                    ",
"                    ",
"                    ",
"      ..X.          ",
"     ..XXX.         ",
"    .XooXX. OO      ",
"    .XoooX..O.O     ",
"    XXXoXX.O OOO    ",
"    .XXXXXoO   .O   ",
"     ....ooo    .O  ",
"       .OOoOoO   .O ",
"      OO   ooo    O ",
"      O.O  OoOOO    ",
"       OO    Ooo    ",
"        O.   OoOO   ",
"         O.    O    ",
"          O.        ",
"           OO       ",
"                    ",
"                    ",
"                    ",
"                    ",
"      O..X.         ",
"     O.XXXX.        ",
"     .XoooXXO       ",
"    O.XXooXX        ",
"     .XXooX.. O     ",
"     OX.XXX..O.     ",
"       ..Xo.OOO     ",
"     O ..oooO  .    ",
"      .OOOoO   O    ",
"      .O  OoO   .   ",
"      O   .ooO  O   ",
"       .  OOO    .  ",
"       O   .ooO  O  ",
"        .  .oo      ",
"        .  OOO      ",
"        O           ",
"         O          ",
"                    "};
