/* XPM */
static char * C8_xpm[] = {
"20 320 5 1",
" 	c None",
".	c #787800",
"X	c #A0A000",
"o	c #C8C800",
"O	c #FFFF00",
"                    ",
"                    ",
"       .XXXX.       ",
"     ..XooooX..     ",
"     .XoOOOOoX.     ",
"    .XoOOOOOOoX.    ",
"    .XoOOOOOOoX.    ",
"    .XooOOOOooX.    ",
"     XooOOOOooX     ",
"     .XooOOooX.     ",
"      .XooooX.      ",
"    .  .oooo.  .    ",
"    .o  X..X  o.    ",
"    .o  .XX.  o.    ",
"    .o   ..   o.    ",
"    .o   ..   o.    ",
"    OoX......XoO    ",
"    O X......X O    ",
"                    ",
"                    ",
"                    ",
"         . .        ",
"        ..XXXX.     ",
"      ..XXoOooX.    ",
"      .XoOOOOOoX.   ",
"      .XoOOOOOoX.   ",
"      .oooOOOOOo..  ",
"      .XoOOOOoOoX.  ",
"    .  .ooOOOooX.   ",
"    .  .oooOooo..   ",
"    .o  ooooXX.     ",
"   .o   X.o...      ",
"   .o   XXX    .    ",
"  Ooo  ...   o.     ",
"  O X.....   o.     ",
"    X....   o..     ",
"      .....Xo.      ",
"         .XXoO      ",
"            O       ",
"                    ",
"                    ",
"           .        ",
"         .X....     ",
"        .XXooXXX    ",
"        XXoOOOoXX   ",
"       .XooOOOOoX.  ",
"     .  XooOOOOOX.  ",
"    .o .XoOOOOOOo.  ",
"   .oo .XoOOOOOOo.. ",
"  .oo   oooOOoooXX  ",
" Ooo   X.ooooooXX.  ",
"   X   Xo.oXXXXX.   ",
"  X.. ..XX .. .     ",
"   .....            ",
"    ...    oo.      ",
"     ...  oo.       ",
"      ..Xoo.        ",
"       X o.         ",
"         O          ",
"                    ",
"                    ",
"                    ",
"            ..      ",
"          ..X...    ",
"          XXooXX.   ",
"    .... .ooOOooXX  ",
"  O..oo .XoooOOOoX  ",
" Oooo   .XoOOOOOoX  ",
"  XX    .oOOOOOOOo. ",
"  X.   XoooOOOOOoX  ",
"  .. ..X.oooOoOOX.. ",
"   ....XXoooooooX.  ",
"   ....   ..XoXX.   ",
"   ...      .X...   ",
"    ..   o          ",
"    XXooo...        ",
"      o..           ",
"     OO             ",
"                    ",
"                    ",
"                    ",
"                    ",
"                    ",
"                    ",
"  OO.....   ...     ",
"   ooooo  .XXXX..   ",
"  XX     .XooooX.   ",
"  ..    .XoooOOoX.  ",
"  ..  .XoooOOOOOoX  ",
"  ....X.ooOOOOOOoX  ",
"  ....X.ooOOOOOOoX  ",
"  ..  .XoooOOOOOoX  ",
"  ..    .XoooOOoX.  ",
"  XX     .XooooX.   ",
"   ooooo  .XXXX..   ",
"  OO.....   ...     ",
"                    ",
"                    ",
"                    ",
"                    ",
"                    ",
"                    ",
"     OO             ",
"      o..           ",
"    XXooo...        ",
"    ..   o          ",
"   ...      .....   ",
"   ....   ..XoXX.   ",
"   ....XXoooooooX.  ",
"  .. ..X.oooOoOOX.. ",
"  X.   XoooOOOOOoX  ",
"  XX    .oOOOOOOOX. ",
" Oooo   .XoOOOOOoX  ",
"  O..oo .XoooOOOoX  ",
"    ...  .ooOOooX.  ",
"       .  .XooXX.   ",
"          ..X...    ",
"            ..      ",
"                    ",
"                    ",
"                    ",
"         O          ",
"       X o.         ",
"      ..Xoo.        ",
"     ...  oo.       ",
"    ...    oo.      ",
"   .....            ",
"  X.. ..XX .. .     ",
"   X   Xo.oXXXXX.   ",
" Ooo   X.ooooooXX.  ",
"  .oo   oooOOoooXX  ",
"   .oo .XoOOOOOOo.. ",
"    .o .XoOOOOOOo.  ",
"     .  XooOOOOOX.  ",
"       .XooOOOOoX.  ",
"        XXoOOOoXX   ",
"        .XXooXX.    ",
"         .X....     ",
"           .        ",
"                    ",
"                    ",
"            O       ",
"         .XXoO      ",
"      .....Xo.      ",
"    X....   o..     ",
"  O X.....   o.     ",
"  Ooo  ...   o.     ",
"   .o   XXX   .     ",
"   .o   X.oo..      ",
"    .o  ooooXX.     ",
"    .  .oooOoooX.   ",
"    .  .ooOOOooX.   ",
"      .XoOOOOoOoX.  ",
"      XoooOOOOOo..  ",
"      .XoOOOOOoX.   ",
"      .XoOOOOOoX.   ",
"      ..XXoOoX..    ",
"        ..XoXX.     ",
"         . .        ",
"                    ",
"                    ",
"                    ",
"    O X......X O    ",
"    OoX......XoO    ",
"    .o   ..   oO    ",
"    .o   ..   o.    ",
"    .o  .XX.  o.    ",
"    .o  X..X  o.    ",
"    .  .oooo.  .    ",
"      .XooooX.      ",
"     .XooOOooX.     ",
"     XooOOOOooX     ",
"    .XooOOOOooX.    ",
"    .XoOOOOOOoX.    ",
"    .XoOOOOOOoX.    ",
"     .XoOOOOoX.     ",
"     ..XooooX..     ",
"       .XXXX.       ",
"                    ",
"                    ",
"                    ",
"       O            ",
"      OoXX.         ",
"      .oX.....      ",
"     ..o   .....    ",
"     .o   .....X O  ",
"     .o   ...  XoO  ",
"    .    XXX   o.   ",
"      ...o.X   o.   ",
"     .XXoooo  o.    ",
"   ..oooOooo.  .    ",
"   .XooOOOoo.  .    ",
"  .XoOoOOOOoX.      ",
"  ..oOOOOOooo.      ",
"   .XoOOOOOoX.      ",
"   .XoOOOOOoX.      ",
"    .XooOoXX..      ",
"     .XXXX..        ",
"        . .         ",
"                    ",
"                    ",
"          O         ",
"         .o X       ",
"        .ooX..      ",
"       .oo  ...     ",
"      .oo    ...    ",
"            .....   ",
"     . .. XX.. ..X  ",
"   .XXXXXo.oX   X   ",
"  .XXoooooo.X   ooO ",
"  XXoooOOooo   oo.  ",
" ..oOOOOOOoX. oo.   ",
"  .oOOOOOOoX. o.    ",
"  .XOOOOOooX  .     ",
"  .XoOOOOooX.       ",
"   .XoOOOoXX        ",
"    XXXooXX.        ",
"     ....X.         ",
"        .           ",
"                    ",
"                    ",
"                    ",
"             OO     ",
"           ..o      ",
"        ...oooX     ",
"          o   .X    ",
"   ...X.      ..    ",
"   .XXoX..   ....   ",
"  .XoooooooXX....   ",
" ..XOOoOooo.X.. ..  ",
"  XoOOOOOoooX   .X  ",
" .oOOOOOOOoo    XX  ",
"  XoOOOOOoX.   oooO ",
"  XXOOOoooX. oo..O  ",
"  ..ooOOoo. ....    ",
"   .XXooXX          ",
"    ...X..          ",
"      ..            ",
"                    ",
"                    ",
"                    ",
"                    ",
"                    ",
"                    ",
"     ...   .....OO  ",
"   ..XXXX.  ooooo   ",
"   .XooooX.    XX.  ",
"  .XoOOoooX.    ..  ",
"  XoOOOOOoooX.  ..  ",
"  XoOOOOOOoo.X....  ",
"  XoOOOOOOoo.X....  ",
"  XoOOOOOoooX.  ..  ",
"  .XoOOoooX.    ..  ",
"   .XooooX.     XX  ",
"   ..XXXX.  ooooo   ",
"     ...   ....OOO  ",
"                    ",
"                    ",
"                    ",
"                    ",
"                    ",
"                    ",
"      ..            ",
"    ...X..          ",
"   .XXooX.  .       ",
"  .XooOOoo.  ...    ",
"  XoOOOoooX. oo..o  ",
"  XoOOOOOoX.   oooO ",
" .XOOOOOOOo.    XX  ",
"  XoOOOOOoooX   .X  ",
" ..XOOoOooo.X.. ..  ",
"  .XoooooooXX....   ",
"   .XXoX..   ....   ",
"   .....      ..    ",
"          o   ..    ",
"        ...ooXX     ",
"           ..o      ",
"             OO     ",
"                    ",
"                    ",
"                    ",
"        .           ",
"     ....X.         ",
"    .XXooXX.        ",
"   XXoOOOoXX        ",
"  .XoOOOOooX.       ",
"  .XOOOOOooX  .     ",
"  .oOOOOOOoX. o.    ",
" ..oOOOOOOoX. oo.   ",
"  XXoooOOooo   oo.  ",
"  .XXoooooo.X   ooO ",
"   .XXXXXo.oX   X   ",
"     . .. XX.. ..X  ",
"            .....   ",
"      .oo    ...    ",
"       .oo  ...     ",
"        .ooX..      ",
"         .o X       ",
"          O         ",
"                    ",
"                    ",
"        . .         ",
"     .XXoX..        ",
"    ..XoOoXX..      ",
"   .XoOOOOOoX.      ",
"   .XoOOOOOoX.      ",
"  ..oOOOOOoooX      ",
"  .XoOoOOOOoX.      ",
"   .XooOOOoo.  .    ",
"   .XoooOooo.  .    ",
"     .XXoooo  o.    ",
"      ..oo.X   o.   ",
"     .   XXX   o.   ",
"     .o   ...  ooO  ",
"     .o   .....X O  ",
"     ..o   ...X     ",
"      .oX....       ",
"      OoXX.         ",
"       O            ",
"                    "};
