/* XPM */
static char * C3_xpm[] = {
"20 320 5 1",
" 	c None",
".	c #A0A000",
"X	c #C8C800",
"o	c #FFFF00",
"O	c #787800",
"                    ",
"        ....        ",
"       .XXXX.       ",
"      .XXooXX.      ",
"      .XXooXX.      ",
"      .XXooXX.      ",
"       .XXXX.       ",
"        XOOX        ",
"      O  ..  O      ",
"      o OXXO o      ",
"      o OXXO o      ",
"      o OXXO o      ",
"      oOOXXOOo      ",
"      oOOXXOOo      ",
"      o OXXO o      ",
"      o  OO  o      ",
"      o      o      ",
"      o      o      ",
"      O      O      ",
"                    ",
"                    ",
"          O....     ",
"         OXXXXX.    ",
"         .XXooX.    ",
"         XXoooXX.   ",
"         .XooXX.    ",
"       O  XXXXX.    ",
"       o  OOXOO     ",
"       X OX.        ",
"      X OOXX  O     ",
"      oOOXXO X      ",
"     XOOOX.O o      ",
"     o O.XOOOX      ",
"     X OX.OOo       ",
"    X   OO  X       ",
"    o      o        ",
"           X        ",
"          X         ",
"                    ",
"                    ",
"                    ",
"                    ",
"            ....    ",
"           .XXXX.   ",
"           XXXoXX.  ",
"           .XoooX.  ",
"        O  XXooXX.  ",
"       o   OXXXXX.  ",
"      o  O..OXOX.   ",
"     o.OOXX.        ",
"    o OOXXXO        ",
"   o  OXXXO  O      ",
"  o   .XXOO o       ",
"      O.OO.o        ",
"          o         ",
"         o          ",
"        o           ",
"       o            ",
"                    ",
"                    ",
"                    ",
"                    ",
"                    ",
"               .    ",
"             ..X..  ",
"          O OXXXXX. ",
"       XoX  OXXooX. ",
"     XoO    XXoooX. ",
"   Xo OOOOX.OXooXX. ",
" OX   OOXXXXOXXXXXO ",
"     OXXXXOO  OX.O  ",
"     OXXOOO         ",
"      OOOO oXO      ",
"        OoX         ",
"      XoX           ",
"    oX              ",
"                    ",
"                    ",
"                    ",
"                    ",
"                    ",
"                    ",
"                    ",
"                    ",
"                    ",
"                    ",
" OoooooooooO  ...   ",
"      OO     .XXX.  ",
"     OOOOOO XXXXXX. ",
"    OXXXXXX.OXoooX. ",
"    OXXXXXX.OXoooX. ",
"     OOOOOO XXXXXX. ",
"      OO     .XXX.  ",
" OoooooooooO  ...   ",
"                    ",
"                    ",
"                    ",
"                    ",
"                    ",
"                    ",
"                    ",
"                    ",
"                    ",
"                    ",
"    oX              ",
"      XoX           ",
"        OoX         ",
"      OOOO XoO      ",
"     OX.OOO         ",
"     O.XXXOO  .X.O  ",
"  X   OO.XXXOXXXXXO ",
"   Xo OOOOX.OXooXX. ",
"     XoO    XXoooX. ",
"       XoX  OXXooX. ",
"          O OXXXXX. ",
"             ..X..  ",
"               .    ",
"                    ",
"                    ",
"                    ",
"                    ",
"                    ",
"       o            ",
"        o           ",
"         o          ",
"          o         ",
"      O.OO.o        ",
"  o   .XXOO o       ",
"   o  OXXXO  O      ",
"    o OOXXXO        ",
"     o.OOXX.        ",
"      o  O..OX.X.   ",
"       o   OXXXXX.  ",
"        O  XXooXX.  ",
"           OXoooX.  ",
"           XXXoXX.  ",
"           .XXX..   ",
"            ....    ",
"                    ",
"                    ",
"                    ",
"          O         ",
"          X         ",
"           X        ",
"    o      o        ",
"    X   OO  X       ",
"     X OXXOOo       ",
"     o OXXOOOX      ",
"     XOOOXXO o      ",
"      oOOXXO X      ",
"      X OOXX  O     ",
"       o OX.        ",
"       X  OOXOO     ",
"       O  XXXXX.    ",
"         OXooXX.    ",
"         XXoooXX.   ",
"         .XXoXX.    ",
"         OXXXXX.    ",
"          O....     ",
"                    ",
"                    ",
"      O      O      ",
"      o      o      ",
"      o      o      ",
"      o  OO  o      ",
"      o OXXO o      ",
"      oOOXXOOo      ",
"      oOOXXOOo      ",
"      o OXXO o      ",
"      o OXXO o      ",
"      o OXXO o      ",
"      O  ..  O      ",
"        XOOX        ",
"       .XXXX.       ",
"      .XXooXX.      ",
"      .XXooXX.      ",
"      .XXooXX.      ",
"       .XXXX.       ",
"        ....        ",
"                    ",
"                    ",
"                    ",
"         o          ",
"        X           ",
"        o      o    ",
"       X  OO   X    ",
"       oOO.XO X     ",
"      XOOOX.O o     ",
"      o O.XOOOX     ",
"      X OXXOOo      ",
"     O  XXOO X      ",
"        .XO X       ",
"     OOXOO  o       ",
"    .XXXXX  O       ",
"    .XXooX.         ",
"   .XXoooXX         ",
"    .XooXX.         ",
"    .XXXXXO         ",
"     ....O          ",
"                    ",
"                    ",
"                    ",
"            o       ",
"           o        ",
"          o         ",
"         o          ",
"        o.OO.O      ",
"       o OOXX.   o  ",
"      O  OXXXO  o   ",
"        OXXXOO o    ",
"        .XXOO.o     ",
"   .XOXO..O  o      ",
"  .XXXXXO   o       ",
"  .XXooXX  O        ",
"  .XoooX.           ",
"  ..XoXXX           ",
"   .XXXX.           ",
"    ....            ",
"                    ",
"                    ",
"                    ",
"                    ",
"                    ",
"                    ",
"              XX    ",
"           XoX      ",
"         XoO        ",
"      OXo OOOO      ",
"         OOOXXO     ",
"  O.XO  OOXXXXO     ",
" OXXXXXOXXXXOO   XO ",
" .XXooXO.XOOOO oX   ",
" .XoooXX    OoX     ",
" .XXoXXO  XoX       ",
" .XXXXXO O          ",
"  ..X..             ",
"    .               ",
"                    ",
"                    ",
"                    ",
"                    ",
"                    ",
"                    ",
"                    ",
"                    ",
"                    ",
"   ...  OoooooooooO ",
"  .XXX.     OO      ",
" .XXXXXX OOOOOO     ",
" .XoooXO.XXXXXXO    ",
" .XoooXO.XXXXXXO    ",
" .XXXXXX OOOOOO     ",
"  .XXX.     OO      ",
"   ...  OoooooooooO ",
"                    ",
"                    ",
"                    ",
"                    ",
"                    ",
"                    ",
"                    ",
"                    ",
"                    ",
"    .               ",
"  ..X..             ",
" .XXXXXO O          ",
" .XooXXO  XoX       ",
" .XoooXX    OoX     ",
" .XXooXO.XOOOO oX   ",
" OXXXXXOXXX.OO   o  ",
"  O.X.  OOXXX.O     ",
"         OOO.XO     ",
"      OoX OOOO      ",
"         XoO        ",
"           XoX      ",
"              Xo    ",
"                    ",
"                    ",
"                    ",
"                    ",
"                    ",
"                    ",
"    ....            ",
"   ..XXX.           ",
"  .XXoXXX           ",
"  .XoooXO           ",
"  .XXooXX  O        ",
"  .XXXXXO   o       ",
"   .X.XO..O  o      ",
"        .XXOO.o     ",
"        OXXXOO o    ",
"      O  OXXXO  o   ",
"       o OOXX.   o  ",
"        o.OO.O      ",
"         o          ",
"          o         ",
"           o        ",
"            o       ",
"                    ",
"                    ",
"                    ",
"     ....O          ",
"    .XXXXXO         ",
"    .XXoXX.         ",
"   .XXoooXX         ",
"    .XXooXO         ",
"    .XXXXX  O       ",
"     OOXOO  X       ",
"        .XO o       ",
"     O  XXOO X      ",
"      X OXXOOo      ",
"      o OXXOOOX     ",
"      XOOOXXO o     ",
"       oOOXXO X     ",
"       X  OO   X    ",
"        o      X    ",
"        X           ",
"         X          ",
"         O          ",
"                    "};
