/* XPM */
static char * C2_xpm[] = {
"20 320 5 1",
" 	c None",
".	c #A0A000",
"X	c #C8C800",
"o	c #FFFF00",
"O	c #787800",
"                    ",
"        .XX.        ",
"       .XXXX.       ",
"      .XXooXX.      ",
"      .XXooXX.      ",
"      .XXooXX.      ",
"       .XXXX.       ",
"        XOOX        ",
"      O  ..  O      ",
"      o  ..  o      ",
"      o O..O o      ",
"      oOO..OOo      ",
"      oO .. Oo      ",
"      o  OO  o      ",
"      o      o      ",
"      o      o      ",
"      o      o      ",
"      O      O      ",
"                    ",
"                    ",
"                    ",
"            O       ",
"          O..XX     ",
"         .XXXXX.    ",
"         .XXooX.    ",
"         XXoooXX.   ",
"         .XooXX.    ",
"       O  XXXXX.    ",
"       o  OOXOO     ",
"       O  ..        ",
"      .OOO.O  O     ",
"      oOOO.O O      ",
"     .  O.OOOo      ",
"     o  OOOOOO      ",
"     .  OO  o       ",
"    o       .       ",
"    O      .        ",
"           o        ",
"          O         ",
"                    ",
"                    ",
"                    ",
"                    ",
"           ....     ",
"          .XXXXX    ",
"          XXXoXX.   ",
"          .XoooX.   ",
"       O  XXooXX.   ",
"      o   O.XXXX.   ",
"     oO OO.OX.X.    ",
"    oOOOO.O         ",
"   o   O.OO         ",
"  o   O.OO  O       ",
" O     O OOo        ",
"         Oo         ",
"         o          ",
"        o           ",
"       o            ",
"      O             ",
"                    ",
"                    ",
"                    ",
"                    ",
"              .     ",
"            ..X..   ",
"         O OXXXXXX  ",
"      .oo  .XXooXX  ",
"    .oOO   XXoooX.O ",
"  o.  OOOO.OXooXX.  ",
" O    OO...OXXXXXO  ",
"     OO..O   .X..   ",
"     OOOOO          ",
"        OO.oO       ",
"        .X          ",
"     .o.            ",
"   Oo               ",
"                    ",
"                    ",
"                    ",
"                    ",
"                    ",
"                    ",
"                    ",
"                    ",
"                    ",
"                    ",
"  OooooooooO  ...   ",
"       OO    .XXX.  ",
"        OO  XXXXXX. ",
"      O.....OXoooXX ",
"      O.....OXoooXX ",
"        OO  XXXXXX. ",
"       OO    .XXX.  ",
"  OooooooooO  ...   ",
"                    ",
"                    ",
"                    ",
"                    ",
"                    ",
"                    ",
"                    ",
"                    ",
"                    ",
"                    ",
"   Oo               ",
"     .o.            ",
"        o.          ",
"        OOOoO       ",
"     OOOOO          ",
"     OO.OO   .X..   ",
" O    OO...OXXXXXO  ",
"  o.  OOOO.OXooXX.  ",
"    .oOO   XXoooX.O ",
"      OoO  OXXooXX  ",
"         O OXXXXXX  ",
"            ..X..   ",
"              .     ",
"                    ",
"                    ",
"                    ",
"                    ",
"      O             ",
"       o            ",
"        o           ",
"         o          ",
"         Oo         ",
" O     O OOo        ",
"  o   O.OO  O       ",
"   o   O.OO         ",
"    oOOOO.O         ",
"     oO OO.OX.X.    ",
"      o   O.XXXX.   ",
"       O  XXooXX.   ",
"          .XoooX.   ",
"          XXXoXX.   ",
"          .XXXX.    ",
"           ....     ",
"                    ",
"                    ",
"                    ",
"                    ",
"          O         ",
"           o        ",
"    O      .        ",
"    o       .       ",
"     .  OO  o       ",
"     o  OOOOO.      ",
"     .  O.OOOo      ",
"      .OO..O o      ",
"      XOOO.O  O     ",
"       .  ..        ",
"       o  OOX.O     ",
"       O  XXXXX.    ",
"         OXooXX.    ",
"         XXoooXX.   ",
"         .XXooX.    ",
"         .XXXX..    ",
"          O..X.     ",
"            O       ",
"                    ",
"                    ",
"                    ",
"      O      O      ",
"      o      o      ",
"      o      o      ",
"      o      o      ",
"      o  OO  o      ",
"      oO .. Oo      ",
"      oOO..OOo      ",
"      o O..O o      ",
"      o  ..  o      ",
"      O  ..  O      ",
"        XOOX        ",
"       .XXXX.       ",
"      .XXooXX.      ",
"      .XXooXX.      ",
"      .XXooXX.      ",
"       .XXXX.       ",
"        .XX.        ",
"                    ",
"                    ",
"         O          ",
"        o           ",
"        .           ",
"       .       O    ",
"       o  OO   o    ",
"      OOOOOO  o     ",
"      oOOO.O  .     ",
"      O O.OOOo      ",
"     O  O.OOO.      ",
"        ..  O       ",
"     OOXOO  o       ",
"    .XXXXX  O       ",
"    .XXooX.         ",
"   .XXoooXX         ",
"    .XooXX.         ",
"    .XXXXX.         ",
"     XX..O          ",
"       O            ",
"                    ",
"                    ",
"             O      ",
"            o       ",
"           o        ",
"          o         ",
"         oO         ",
"        oOO O     O ",
"       O  OO.O   o  ",
"         OO.O   o   ",
"         O.OOOOo    ",
"    .X.XO.OO Oo     ",
"   .XXXX.O   o      ",
"   .XXooXX  O       ",
"   .XoooX.          ",
"   .XXoXXX          ",
"    .XXXX.          ",
"     ....           ",
"                    ",
"                    ",
"                    ",
"                    ",
"                    ",
"                    ",
"                    ",
"              OX    ",
"            .o      ",
"          X.        ",
"       Oo.OO        ",
"          OOOOO     ",
"   ..X.   O..OO     ",
"  OXXXXXO...OO    O ",
"  .XXooXO.OOOO  .o  ",
" O.XoooXX   OOo.    ",
"  XXooXX.  oo.      ",
"  ..XXXXO O         ",
"   ..X..            ",
"     .              ",
"                    ",
"                    ",
"                    ",
"                    ",
"                    ",
"                    ",
"                    ",
"                    ",
"                    ",
"   ...  OooooooooO  ",
"  .XXX.    OO       ",
" .XXXXXX  OO        ",
" XXoooXO.....O      ",
" XXoooXO.....O      ",
" .XXXXXX  OO        ",
"  .XXX.    OO       ",
"   ...  OooooooooO  ",
"                    ",
"                    ",
"                    ",
"                    ",
"                    ",
"                    ",
"                    ",
"                    ",
"                    ",
"     .              ",
"   ..X..            ",
"  XXXXXXO O         ",
"  XXooXXO  OoO      ",
" O.XoooXX   OOo.    ",
"  .XXooXO.OOOO  .o  ",
"  OXXXXXO...OO    O ",
"   ..X.   OO.OO     ",
"          OOOOO     ",
"       OoOOO        ",
"          .o        ",
"            .o      ",
"              oO    ",
"                    ",
"                    ",
"                    ",
"                    ",
"                    ",
"                    ",
"                    ",
"     ....           ",
"    .XXXX.          ",
"   .XXoXXX          ",
"   .XoooX.          ",
"   .XXooXX  O       ",
"   .XXXX.O   o      ",
"    .X.XO.OO Oo     ",
"         O.OOOOo    ",
"         OO.O   o   ",
"       O  OO.O   o  ",
"        oOO O     O ",
"         oO         ",
"          o         ",
"           o        ",
"            o       ",
"             O      ",
"                    ",
"                    ",
"       O            ",
"     .X..O          ",
"    ..XXXX.         ",
"    .XooXX.         ",
"   .XXoooXX         ",
"    .XXooX.         ",
"    .XXXXX  O       ",
"     O.XOO  o       ",
"        ..  .       ",
"     O  O.OOOX      ",
"      o O..OO.      ",
"      oOOO.O  .     ",
"      .OOOOO  o     ",
"       o  OO   O    ",
"       .       X    ",
"        .           ",
"        o           ",
"         O          ",
"                    "};
