/* XPM */
static char * C1_xpm[] = {
"20 320 5 1",
" 	c None",
".	c #A0A000",
"X	c #C8C800",
"o	c #FFFF00",
"O	c #787800",
"                    ",
"                    ",
"        ....        ",
"       .XXXX.       ",
"      ..XooX..      ",
"      ..XooX..      ",
"      ..XXXX..      ",
"       ..XX..       ",
"        ....        ",
"      O  ..  O      ",
"      .XXXX.X.      ",
"      . OOOO .      ",
"      .      .      ",
"      .      .      ",
"      .      .      ",
"      .      .      ",
"      .      .      ",
"      O      O      ",
"                    ",
"                    ",
"                    ",
"                    ",
"          .X..O     ",
"         ..XXXO     ",
"        O.XoooX.    ",
"        O.XooX..    ",
"         ..XXX..    ",
"       O ..X...     ",
"       .  ....      ",
"      . XXX.        ",
"      . OOXXX O     ",
"     O    OO .      ",
"     .       .      ",
"     O      .       ",
"    .       .       ",
"    O       O       ",
"           .        ",
"           .        ",
"                    ",
"                    ",
"                    ",
"                    ",
"                    ",
"           .....    ",
"          ...XX..   ",
"          ..XooX.   ",
"        O ..XooX.   ",
"       .X .XXXX..   ",
"      . XX..X....   ",
"     .  OXX.....    ",
"    .    OX.        ",
"   .      OXXO      ",
"  O         .       ",
"           .        ",
"          .         ",
"         .          ",
"        .           ",
"       O            ",
"                    ",
"                    ",
"                    ",
"                    ",
"                    ",
"                    ",
"             ...    ",
"         O  ...X..  ",
"       O.  ..XXoX.  ",
"    O.O  X ..XooX.  ",
"  O.    OX..XXooXX  ",
"        OXX...XX..  ",
"         OX .....   ",
"         O.   OO    ",
"           .O       ",
"         O.         ",
"      O.O           ",
"    O.              ",
"                    ",
"                    ",
"                    ",
"                    ",
"                    ",
"                    ",
"                    ",
"                    ",
"                    ",
"                    ",
"  O.......O  ...    ",
"         X  .....   ",
"        OX ..XXXX.  ",
"        OX..XXooX.  ",
"        OX..XXooX.  ",
"        O. ..XXXX.  ",
"         X  .....   ",
"  O.......O  ...    ",
"                    ",
"                    ",
"                    ",
"                    ",
"                    ",
"                    ",
"                    ",
"                    ",
"                    ",
"                    ",
"    O.              ",
"      O.O           ",
"         ..         ",
"           .O       ",
"         OX   OO    ",
"         OX .....   ",
"        OXX...XX..  ",
"  ..    OX..XXooXX  ",
"    O..  X ..XooX.  ",
"       ..  ..XXoX.  ",
"         O  ...XOO  ",
"             ...    ",
"                    ",
"                    ",
"                    ",
"                    ",
"                    ",
"                    ",
"       O            ",
"        .           ",
"         .          ",
"          .         ",
"           .        ",
"  O         .       ",
"   .      OXXO      ",
"    .    OXX        ",
"     .  OXX.....    ",
"      . X...X....   ",
"       .X .XXXX..   ",
"        O ..XooX.   ",
"          ..XooX.   ",
"          ...XX..   ",
"           .....    ",
"                    ",
"                    ",
"                    ",
"                    ",
"                    ",
"           O        ",
"           .        ",
"    O       O       ",
"    .       .       ",
"     O      O       ",
"     .       O      ",
"     O    OO .      ",
"      O OOXXX O     ",
"      . .XX.        ",
"       .  ....      ",
"       O ..X...     ",
"         ..XXX..    ",
"        O.XooX..    ",
"        O.XoooX.    ",
"         ..XX.O     ",
"          .X..O     ",
"                    ",
"                    ",
"                    ",
"                    ",
"      O      O      ",
"      .      .      ",
"      .      .      ",
"      .      .      ",
"      .      .      ",
"      .      .      ",
"      . OOOO .      ",
"      .X.XXXX.      ",
"      O  ..  O      ",
"        ....        ",
"       ..XX..       ",
"      ..XXXX..      ",
"      ..XooX..      ",
"      ..XooX..      ",
"       .XXXX.       ",
"        ....        ",
"                    ",
"                    ",
"                    ",
"                    ",
"        .           ",
"        .           ",
"       O            ",
"       .       O    ",
"       .      O.    ",
"      .       .     ",
"      . OO    O     ",
"     O XXXOO .      ",
"        .XXX .      ",
"      ....  .       ",
"     ...X.. O       ",
"    ..XXX..         ",
"    ..XooX.O        ",
"    .XoooX.O        ",
"     OXXX..         ",
"     O..X.          ",
"                    ",
"                    ",
"                    ",
"                    ",
"            O       ",
"           .        ",
"          .         ",
"         .          ",
"        .           ",
"       .         O  ",
"      OXXO      .   ",
"        .XO    .    ",
"    .....XXO  .     ",
"   ....X..XX .      ",
"   ..XXXX. X.       ",
"   .XooX.. O        ",
"   .XooX..          ",
"   ..XX...          ",
"    .....           ",
"                    ",
"                    ",
"                    ",
"                    ",
"                    ",
"                    ",
"                    ",
"              .O    ",
"           O.O      ",
"         .O         ",
"       O.           ",
"    OO   .O         ",
"   ..... XO         ",
"  ..XX...XXO        ",
"  XXooXX..XO    .O  ",
"  .XooX.. X  O.O    ",
"  ..oXX..  .O       ",
"  OOX...  O         ",
"    ...             ",
"                    ",
"                    ",
"                    ",
"                    ",
"                    ",
"                    ",
"                    ",
"                    ",
"                    ",
"                    ",
"    ...  O.......O  ",
"   .....  X         ",
"  .XXXX.. .O        ",
"  .XooXX..XO        ",
"  .XooXX..XO        ",
"  .XXXX.. XO        ",
"   .....  X         ",
"    ...  O.......O  ",
"                    ",
"                    ",
"                    ",
"                    ",
"                    ",
"                    ",
"                    ",
"                    ",
"                    ",
"                    ",
"    ...             ",
"  OOX...  O         ",
"  .XoXX..  ..       ",
"  .XooX.. X  ..O    ",
"  XXooXX..XO    ..  ",
"  ..XX...XXO        ",
"   ..... XO         ",
"    OO   XO         ",
"       O.           ",
"         ..         ",
"           O.O      ",
"             .O     ",
"                    ",
"                    ",
"                    ",
"                    ",
"                    ",
"                    ",
"                    ",
"    .....           ",
"   ..XX...          ",
"   .XooX..          ",
"   .XooX.. O        ",
"   ..XXXX. X.       ",
"   ....X...X .      ",
"    .....XXO  .     ",
"        XXO    .    ",
"      OXXO      .   ",
"       .         O  ",
"        .           ",
"         .          ",
"          .         ",
"           .        ",
"            O       ",
"                    ",
"                    ",
"                    ",
"                    ",
"     O..X.          ",
"     O.XX..         ",
"    .XoooX.O        ",
"    ..XooX.O        ",
"    ..XXX..         ",
"     ...X.. O       ",
"      ....  .       ",
"        .XX. .      ",
"     O XXXOO O      ",
"      . OO    O     ",
"      O       .     ",
"       O      O     ",
"       .       .    ",
"       O       O    ",
"        .           ",
"        O           ",
"                    ",
"                    "};
