/* XPM */
static char * C5_xpm[] = {
"20 20 5 1 XPMEXT",
" 	c None",
".	c #C8C800",
"X	c #FFFF00",
"o	c #787800",
"O	c #A0A000",
"                    ",
"       .XXXX.   o   ",
"  o ...  OO  Oo Oo  ",
"   O     OO  o..OOo ",
"  . .Oo  OO  O.o.   ",
"  . O..ooOOo O...o  ",
"  . o..ooOOoo.OOoO  ",
" .   ooOO..OOo    X ",
" X   ooO.XX.Ooo   X ",
" XOOOOO.XXXX.OOOOOX ",
" XOOOOO.XXXX.OOOOOX ",
" X   ooO.XX.Ooo   X ",
" .    oOO..OOoo   . ",
"  OoOO.ooOOooO.o .  ",
"  o...O oOOoo..O .  ",
"   .o.O  OO  oOO .  ",
" oOO..o  OO     O   ",
"  oO oO  OO  ... o  ",
"   o   .XXXX.       ",
"                    ",
"XPMEXT nviews",
"1",
"XPMENDEXT"};
