/* XPM */
static char * C0_xpm[] = {
"20 320 5 1",
" 	c None",
".	c #A0A0A0A00000",
"X	c #C8C8C8C80000",
"o	c #FFFFFFFF0000",
"O	c #787878780000",
"                    ",
"                    ",
"         ...        ",
"        XXXXX       ",
"       .XXoXX.      ",
"       .XoooX.      ",
"       .XXoXX.      ",
"        .XXX.       ",
"         XOX        ",
"          O         ",
"          O         ",
"          O         ",
"          O         ",
"          O         ",
"          O         ",
"          O         ",
"          O         ",
"                    ",
"                    ",
"                    ",
"                    ",
"                    ",
"                    ",
"          O..O      ",
"         OXXX.O     ",
"        OXXXoXX     ",
"        OXoooX.O    ",
"         .XoXX.     ",
"         OXX.XO     ",
"          OX.O      ",
"          O         ",
"         O          ",
"         O          ",
"        O           ",
"        O           ",
"       O            ",
"       O            ",
"                    ",
"                    ",
"                    ",
"                    ",
"                    ",
"                    ",
"                    ",
"          OO.OO     ",
"         O..XX.O    ",
"         O.ooXXO    ",
"         .XoooX.    ",
"         OXooo.O    ",
"         O.XX..O    ",
"         OO...O     ",
"        .           ",
"       .            ",
"      .             ",
"     .              ",
"    O               ",
"                    ",
"                    ",
"                    ",
"                    ",
"                    ",
"                    ",
"                    ",
"                    ",
"                    ",
"             O      ",
"           ...XO    ",
"          OOXXXX.   ",
"          O.XooX.   ",
"          XXoooXX   ",
"         OO.XXoXO   ",
"       OO  X.XXO    ",
"     OO      OO     ",
"   OO               ",
"                    ",
"                    ",
"                    ",
"                    ",
"                    ",
"                    ",
"                    ",
"                    ",
"                    ",
"                    ",
"                    ",
"                    ",
"                    ",
"             ...    ",
"            .XXXX   ",
"           XXXoXX.  ",
"   OOOOOOOOOXoooX.  ",
"           XXXoXX.  ",
"            .XXXX   ",
"             ...    ",
"                    ",
"                    ",
"                    ",
"                    ",
"                    ",
"                    ",
"                    ",
"                    ",
"                    ",
"                    ",
"                    ",
"                    ",
"                    ",
"   OO               ",
"     OO      OO     ",
"       OO  O.XXO    ",
"         OOXXoXXO   ",
"          XXooXX.   ",
"          ..XooX.   ",
"          OXXXX.O   ",
"           O..XO    ",
"             O      ",
"                    ",
"                    ",
"                    ",
"                    ",
"                    ",
"                    ",
"                    ",
"                    ",
"    O               ",
"     .              ",
"      .             ",
"       .            ",
"        .           ",
"         OOO.OO     ",
"         O.XX..O    ",
"         .Xooo.O    ",
"         .XoooX.    ",
"         ..ooXXO    ",
"         O..XX.O    ",
"          OO.OO     ",
"                    ",
"                    ",
"                    ",
"                    ",
"                    ",
"                    ",
"                    ",
"      O             ",
"      O             ",
"       O            ",
"       O            ",
"        O           ",
"        O           ",
"         O          ",
"         OXOO       ",
"        X.X.O.      ",
"        .XoXX.      ",
"       OXXooX.O     ",
"       OXoooXX      ",
"        OXXXXO      ",
"         OX.        ",
"                    ",
"                    ",
"                    ",
"                    ",
"                    ",
"                    ",
"         O          ",
"         O          ",
"         O          ",
"         O          ",
"         O          ",
"         O          ",
"         O          ",
"         O          ",
"        XOX         ",
"       .XXX.        ",
"      .XXoXX.       ",
"      .XoooX.       ",
"      .XXoXX.       ",
"       XXXXX        ",
"        ...         ",
"                    ",
"                    ",
"                    ",
"                    ",
"                    ",
"            O       ",
"            O       ",
"           O        ",
"           O        ",
"          O         ",
"          O         ",
"         O          ",
"      O.XO          ",
"     OX.XXO         ",
"     .XXoX.         ",
"    O.XoooXO        ",
"     XXoXXXO        ",
"     O.XXXO         ",
"      O..O          ",
"                    ",
"                    ",
"                    ",
"                    ",
"                    ",
"                    ",
"                    ",
"               O    ",
"              .     ",
"             .      ",
"            .       ",
"           .        ",
"     O...OO         ",
"    O..XX.O         ",
"    O.oooXO         ",
"    .XoooX.         ",
"    OXXoo.O         ",
"    O.XX..O         ",
"     OO.OO          ",
"                    ",
"                    ",
"                    ",
"                    ",
"                    ",
"                    ",
"                    ",
"                    ",
"                    ",
"                    ",
"               OO   ",
"     OO      OO     ",
"    OXX.X  OO       ",
"   OXoXX.OO         ",
"   XXoooXX          ",
"   .XooX.O          ",
"    XXXXOO          ",
"    OX...           ",
"      O             ",
"                    ",
"                    ",
"                    ",
"                    ",
"                    ",
"                    ",
"                    ",
"                    ",
"                    ",
"                    ",
"                    ",
"    ...             ",
"   XXXX.            ",
"  .XXoXXX           ",
"  .XoooXOOOOOOOOO   ",
"  .XXoXXX           ",
"   XXXX.            ",
"    ...             ",
"                    ",
"                    ",
"                    ",
"                    ",
"                    ",
"                    ",
"                    ",
"                    ",
"                    ",
"                    ",
"                    ",
"      O             ",
"    OX..O           ",
"   O.XXXXO          ",
"   .XooX..          ",
"   .XXooXX          ",
"   OXXoXXOO         ",
"    OXX.O  OO       ",
"     OO      OO     ",
"               OO   ",
"                    ",
"                    ",
"                    ",
"                    ",
"                    ",
"                    ",
"                    ",
"                    ",
"                    ",
"                    ",
"                    ",
"     OO.OO          ",
"    O.XX..O         ",
"    OXXoo..         ",
"    .XoooX.         ",
"    O.oooX.         ",
"    O..XX.O         ",
"     OO.OOO         ",
"           .        ",
"            .       ",
"             .      ",
"              .     ",
"               O    ",
"                    ",
"                    ",
"                    ",
"                    ",
"                    ",
"                    ",
"                    ",
"        .XO         ",
"      OXXXXO        ",
"      XXoooXO       ",
"     O.XooXXO       ",
"      .XXoX.        ",
"      .O.X.X        ",
"       OOXO         ",
"          O         ",
"           O        ",
"           O        ",
"            O       ",
"            O       ",
"             O      ",
"             O      ",
"                    ",
"                    ",
"                    "};
