/* XPM */
static char * FR_xpm[] = {
"20 320 6 1",
" 	c None",
".	c #C80000",
"+	c #780000",
"@	c #FF0000",
"#	c #00FF00",
"$	c #A00000",
"                    ",
"                    ",
"         ..         ",
"         ++         ",
"        .@@.        ",
"        .@@.        ",
"         ++         ",
"         ++         ",
"  .      ++      .  ",
"  #   +++@@+++   #  ",
"  #.+++ +@@+ +++.#  ",
"  ..     @@     ..  ",
"  ..+++++@@+++++..  ",
"  #.++++@@@@++++.#  ",
"   $++++@@@@++++$   ",
"    $.++@@@@++.$    ",
"     ...+@@+...     ",
"       $$@@$$       ",
"                    ",
"                    ",
"                    ",
"                    ",
"            ++      ",
"           +@+      ",
"          .@@+      ",
"    +      +@.      ",
"   #.     ++        ",
"   #.     ++        ",
"  ...... +++        ",
"  #.  ..+++         ",
"  ..++  +@+.     .  ",
"  ..++++@@ ...  .#  ",
"   $+++@@@+  ...#   ",
"   ..+@@@++++ ...   ",
"    $@@@@+++++.#    ",
"    $@@@++++...+    ",
"     +@+.....$      ",
"      ++$$          ",
"                    ",
"                    ",
"                    ",
"                    ",
"                    ",
"      #.      +.+   ",
"     #.      .@@.   ",
"    ..       +@@+   ",
"   #...     +++.    ",
"   .. ...  +++      ",
"   ..+  .++++       ",
"   .+++ ++@+        ",
"   $++++@@++        ",
"   $.+@@@@+..       ",
"    .@@@@+. .   .   ",
"    .@@@@++ .. .#   ",
"    $@@+++++ ..#    ",
"     $....+....     ",
"        $$...#      ",
"                    ",
"                    ",
"                    ",
"                    ",
"                    ",
"         #.         ",
"       .#.          ",
"     +#..           ",
"     ....           ",
"    $.+ ..     .+++ ",
"    ..++ .     @@@+ ",
"    .+++ .. ++++@+  ",
"    .++++ +@+++ .   ",
"   $.+@@@@@++       ",
"   $.@@@@@++        ",
"   .@@@@@+ ..       ",
"   .@@@@++ ..       ",
"    +++++++ .       ",
"     $$.+++ ....    ",
"       .$....##     ",
"         ..#.       ",
"                    ",
"                    ",
"                    ",
"                    ",
"      #..##.        ",
"     $....          ",
"    $+++ +          ",
"   ..+++ +          ",
"   .++++ ++         ",
"  $.++++  +         ",
"  $+@@@+ ++   ..    ",
"  @@@@@@@@@+++@@+.  ",
"  @@@@@@@@@+++@@+.  ",
"  $+@@@+ ++   ..    ",
"  $.++++  +         ",
"   .++++ ++         ",
"   ..+++ +          ",
"    $+++ +          ",
"     $....          ",
"      #..##.        ",
"                    ",
"                    ",
"                    ",
"                    ",
"        ..#.        ",
"      .$....##      ",
"    $$.+++ ....     ",
"   +++++++ .        ",
"  .@@@@++ ..        ",
"  .@@@@@+ ..        ",
"  $.@@@@@++         ",
"  $.+@@@@@++        ",
"   .++++ +@+++ .    ",
"   .+++ .. ++++@+   ",
"   ..++ .     @@@+  ",
"   $.+ ..     .+++  ",
"    ....            ",
"    +#..            ",
"      .#.           ",
"        #.          ",
"                    ",
"                    ",
"                    ",
"                    ",
"                    ",
"        $$...#      ",
"     $....+....     ",
"    $@@+++++ ..#    ",
"    .@@@@++ .. .#   ",
"    .@@@@+. .   .   ",
"   $.+@@@@+..       ",
"   $++++@@++        ",
"   .+++ ++@+        ",
"   ..+  .++++       ",
"   .. ...  +++      ",
"   #...     +++.    ",
"    ..       +@@+   ",
"     #.      .@@.   ",
"      #.      +.+   ",
"                    ",
"                    ",
"                    ",
"                    ",
"                    ",
"      ++$$          ",
"     +@+.....$      ",
"    $@@@++++...+    ",
"    $@@@@+++++.#    ",
"   ..+@@@++++ ...   ",
"   $+++@@@+  ...#   ",
"  ..++++@@ ...  .#  ",
"  ..++  +@+.     .  ",
"  #.  ..+++         ",
"  ...... +++        ",
"   #.     ++        ",
"   #.     ++        ",
"    +      +@.      ",
"          .@@+      ",
"           +@+      ",
"            ++      ",
"                    ",
"                    ",
"                    ",
"                    ",
"                    ",
"       $$@@$$       ",
"     ....@@....     ",
"    $.++@@@@++.$    ",
"   $++++@@@@+++.$   ",
"  #.++++@@@@++++.#  ",
"  ..+++++@@+++++..  ",
"  ..     @@     ..  ",
"  #.+++ +@@+ +++.#  ",
"  #   +++@@+++   #  ",
"  .      ++      .  ",
"         ++         ",
"         ++         ",
"        .@@.        ",
"        .@@.        ",
"         ++         ",
"         ..         ",
"                    ",
"                    ",
"                    ",
"                    ",
"          $$++      ",
"      $.....+@+     ",
"    +...++++@@@$    ",
"    #.+++++@@@@$    ",
"   ... ++++@@@+..   ",
"   #...  +@@@+++$   ",
"  #.  ... @@++++..  ",
"  .     .+@+  ++..  ",
"         +++..  .#  ",
"        +++ ......  ",
"        ++     .#   ",
"        ++     .#   ",
"      .@+      +    ",
"      +@@.          ",
"      +@+           ",
"      ++            ",
"                    ",
"                    ",
"                    ",
"                    ",
"      #...$$        ",
"     ....+....$     ",
"    #.. +++++@@$    ",
"   #. .. ++@@@@.    ",
"   .   . .+@@@@.    ",
"       ..+@@@@+.$   ",
"        ++@@++++$   ",
"        +@++ +++.   ",
"       ++++.  +..   ",
"      +++  ... ..   ",
"    .+++     ...#   ",
"   +@@+       ..    ",
"   .@@.      .#     ",
"   +.+      .#      ",
"                    ",
"                    ",
"                    ",
"                    ",
"                    ",
"        .#..        ",
"      ##....$.      ",
"     .... +++.$$    ",
"        . +++++++   ",
"        .. ++@@@@.  ",
"        .. +@@@@@.  ",
"         ++@@@@@.$  ",
"        ++@@@@@+.$  ",
"    . +++@+ ++++.   ",
"   +@++++ .. +++.   ",
"  +@@@     . ++..   ",
"  +++.     .. +.$   ",
"            ....    ",
"            ..#+    ",
"           .#.      ",
"          .#        ",
"                    ",
"                    ",
"                    ",
"                    ",
"        .##..#      ",
"          ....$     ",
"          + +++$    ",
"          + +++..   ",
"         ++ ++++.   ",
"         +  ++++.$  ",
"    ..   ++ +@@@.$  ",
"  .+@@+++@@@@@@@@@  ",
"  .+@@+++@@@@@@@@@  ",
"    ..   ++ +@@@.$  ",
"         +  ++++.$  ",
"         ++ ++++.   ",
"          + +++..   ",
"          + ++.$    ",
"          ....$     ",
"        .##..#      ",
"                    ",
"                    ",
"                    ",
"                    ",
"          .#        ",
"           .#.      ",
"            ..#+    ",
"            ....    ",
"  +++.     .. +.$   ",
"  +@@@     . ++..   ",
"   +@++++ .. +++.   ",
"    . +++@+ ++++.   ",
"        ++@@@@@+.$  ",
"         ++@@@@@.$  ",
"        .. +@@@@@.  ",
"        .. ++@@@@.  ",
"        . +++++++   ",
"     .... +++.$$    ",
"      ##....$.      ",
"        .#..        ",
"                    ",
"                    ",
"                    ",
"                    ",
"                    ",
"   +.+      .#      ",
"   .@@.      .#     ",
"   +@@+       ..    ",
"    .+++     ...#   ",
"      +++  ... ..   ",
"       ++++.  +..   ",
"        +@++ +++.   ",
"        ++@@++++$   ",
"       ..+@@@@+.$   ",
"   .   . .+@@@@.    ",
"   #. .. ++@@@@.    ",
"    #.. +++++@@$    ",
"     ....+....$     ",
"      #...$$        ",
"                    ",
"                    ",
"                    ",
"                    ",
"                    ",
"      ++            ",
"      +@+           ",
"      +@@.          ",
"      .@+      +    ",
"        ++     .#   ",
"        ++     .#   ",
"        +++ ......  ",
"         +++..  .#  ",
"  .     .+@+  ++..  ",
"  #.  ... @@++++..  ",
"   #...  +@@@+++$   ",
"   ... ++++@@@+..   ",
"    #.+++++@@@@$    ",
"    +...++++@@@$    ",
"      $.....+@+     ",
"          $$++      ",
"                    ",
"                    "};
