/* XPM */
static char * PT_xpm[] = {
"20 320 6 1",
" 	c None",
".	c #C80000",
"+	c #A00000",
"@	c #780000",
"#	c #00FF00",
"$	c #FF0000",
"                    ",
"                    ",
"                    ",
"                    ",
"                    ",
"                    ",
"       .    .       ",
"     + @    @ +     ",
"     . @    @ .     ",
"     .@# ++ #@.     ",
"     .@@.$$.@@.     ",
"      .@.$$.@.      ",
"       ..@@..       ",
"       . @@ .       ",
"       @    @       ",
"                    ",
"                    ",
"                    ",
"                    ",
"                    ",
"                    ",
"                    ",
"                    ",
"                    ",
"                    ",
"      . .           ",
"     . +@           ",
"     .@@    .+      ",
"     .@# +  @       ",
"     .@.$$+ . @     ",
"      ..$$.#@.      ",
"     ...@$.@@.      ",
"     @ @@....       ",
"          .         ",
"          @         ",
"                    ",
"                    ",
"                    ",
"                    ",
"                    ",
"                    ",
"                    ",
"                    ",
"                    ",
"        .+          ",
"       .. +@        ",
"      ..@@@         ",
"       @@#          ",
"       @@.+   @     ",
"      ...$$+ @+     ",
"     @..@$$.#@ +    ",
"     @ @@@.@@@..    ",
"        @..@@..     ",
"         ..  .      ",
"        @@          ",
"                    ",
"                    ",
"                    ",
"                    ",
"                    ",
"                    ",
"                    ",
"                    ",
"                    ",
"          @         ",
"        ..  +       ",
"       .@@.@.       ",
"       .@#          ",
"     @....+         ",
"       .$$$+        ",
"       @@$$  @.     ",
"       @...#@+      ",
"        ..@@@ +     ",
"       @. ....      ",
"                    ",
"                    ",
"                    ",
"                    ",
"                    ",
"                    ",
"                    ",
"                    ",
"                    ",
"                    ",
"                    ",
"         ...+       ",
"        .@@         ",
"     @..@@#@@.      ",
"       ...          ",
"      @@$$+         ",
"      @@$$+         ",
"       ...          ",
"     @..@@#@@.      ",
"        .@@         ",
"         ...+       ",
"                    ",
"                    ",
"                    ",
"                    ",
"                    ",
"                    ",
"                    ",
"                    ",
"                    ",
"                    ",
"       @. ....      ",
"        ..@@@ .     ",
"       @...#@+      ",
"       @@$$  @.     ",
"       .$$$+        ",
"     @....+         ",
"       .@#          ",
"       .@@.@.       ",
"        ..  +       ",
"          @         ",
"                    ",
"                    ",
"                    ",
"                    ",
"                    ",
"                    ",
"                    ",
"                    ",
"                    ",
"                    ",
"        @@          ",
"         ..  .      ",
"        @..@@..     ",
"     @ @@@.@@@..    ",
"     @..@$$.#@ +    ",
"      ...$$+ @+     ",
"       @@.+   @     ",
"       @@#          ",
"      ..@@@         ",
"       .. +@        ",
"        .+          ",
"                    ",
"                    ",
"                    ",
"                    ",
"                    ",
"                    ",
"                    ",
"                    ",
"                    ",
"           @        ",
"           .        ",
"      @ @@....      ",
"      ...@$.@@.     ",
"       ..$$.#@.     ",
"      .@.$$+ . @    ",
"      .@# +  @      ",
"      .@@    .+     ",
"      . +@          ",
"       + .          ",
"                    ",
"                    ",
"                    ",
"                    ",
"                    ",
"                    ",
"                    ",
"                    ",
"                    ",
"                    ",
"       @    @       ",
"       . @@ .       ",
"       ..@@..       ",
"      .@.$$.@.      ",
"     .@@.$$.@@.     ",
"     .@# ++ #@.     ",
"     . @    @ .     ",
"     + @    @ +     ",
"       .    .       ",
"                    ",
"                    ",
"                    ",
"                    ",
"                    ",
"                    ",
"                    ",
"                    ",
"                    ",
"                    ",
"                    ",
"         @          ",
"         .          ",
"       ....@@ @     ",
"      .@@.$@...     ",
"      .@#.$$..      ",
"     @ . +$$.@.     ",
"       @  + #@.     ",
"      +.    @@.     ",
"           @+ .     ",
"           . .      ",
"                    ",
"                    ",
"                    ",
"                    ",
"                    ",
"                    ",
"                    ",
"                    ",
"                    ",
"                    ",
"          @@        ",
"      .  ..         ",
"     ..@@..@        ",
"    ..@@@.@@@ @     ",
"    + @#.$$@..@     ",
"     +@ +$$...      ",
"     @   +.@@       ",
"          #@@       ",
"         @@@..      ",
"        @+ ..       ",
"          +.        ",
"                    ",
"                    ",
"                    ",
"                    ",
"                    ",
"                    ",
"                    ",
"                    ",
"                    ",
"                    ",
"      .... .@       ",
"     + @@@..        ",
"      +@#...@       ",
"     .@  $$@@       ",
"        +$$$.       ",
"         +....@     ",
"          #@.       ",
"       .@.@@.       ",
"       +  ..        ",
"         @          ",
"                    ",
"                    ",
"                    ",
"                    ",
"                    ",
"                    ",
"                    ",
"                    ",
"                    ",
"       +...         ",
"         @@.        ",
"      .@@#@@..@     ",
"          ...       ",
"         +$$@@      ",
"         +$$@@      ",
"          ...       ",
"      .@@#@@..@     ",
"         @@.        ",
"       +...         ",
"                    ",
"                    ",
"                    ",
"                    ",
"                    ",
"                    ",
"                    ",
"                    ",
"                    ",
"                    ",
"         @          ",
"       +  ..        ",
"       .@.@@.       ",
"          #@.       ",
"         +....@     ",
"        +$$$.       ",
"     .@  $$@@       ",
"      +@#...@       ",
"     . @@@..        ",
"      .... .@       ",
"                    ",
"                    ",
"                    ",
"                    ",
"                    ",
"                    ",
"                    ",
"                    ",
"                    ",
"          +.        ",
"        @+ ..       ",
"         @@@..      ",
"          #@@       ",
"     @   +.@@       ",
"     +@ +$$...      ",
"    + @#.$$@..@     ",
"    ..@@@.@@@ @     ",
"     ..@@..@        ",
"      .  ..         ",
"          @@        ",
"                    ",
"                    ",
"                    ",
"                    ",
"                    ",
"                    ",
"                    ",
"                    ",
"                    ",
"                    ",
"          . +       ",
"          @+ .      ",
"     +.    @@.      ",
"      @  + #@.      ",
"    @ . +$$.@.      ",
"     .@#.$$..       ",
"     .@@.$@...      ",
"      ....@@ @      ",
"        .           ",
"        @           ",
"                    ",
"                    ",
"                    ",
"                    ",
"                    "};
