/* XPM */
static char * UT_xpm[] = {
"20 320 6 1",
" 	c None",
".	c #A00000",
"+	c #C80000",
"@	c #FF0000",
"#	c #780000",
"$	c #00FF00",
"                    ",
"        .++.        ",
"       ++@@++       ",
"       +@@@@+       ",
"      .+@@@@+.      ",
"        +@@+        ",
"        +##+        ",
"  .      ##      .  ",
"  +      ##      +  ",
"  $++    ##    ++$  ",
"  $+++   ##   +++$  ",
"  $+++########+++$  ",
"  +++###+..+###+++  ",
"  .++###.  .###++.  ",
"   +++##.  .##+++   ",
"   .++@#.  .#@++.   ",
"    ++ #.  .# ++    ",
"    .+  @..@  +.    ",
"     .   @@   .     ",
"                    ",
"                    ",
"           +...     ",
"          +@@@+.    ",
"         ++@@@#.    ",
"    +     +@@@@+    ",
"   .+     .@@##.    ",
"   $++    .@@. .    ",
"   $++    #@.       ",
"  $++++   #+        ",
"  .+++## ##.        ",
"  .++######       . ",
"  +++###+.##...++#  ",
"  .++##.  +###+++$  ",
"  +++@..  .###+++$  ",
"  .. #.   .###++$   ",
"  .   #  .#@++++.   ",
"      @...# +++     ",
"      @@    ++.     ",
"           #+       ",
"           .        ",
"                    ",
"                    ",
"      ..     .+.    ",
"     $+    ..++@+   ",
"    $++    .+@@@@.  ",
"   +$++     +@@@++  ",
"  .++++     #@@@+.  ",
"   ++#+.   ###++.   ",
"  ++####  ###  ..   ",
"  +++#######        ",
" .++###+.##         ",
" ++ ##. ..#         ",
" .  #.   +##.    .  ",
"    @   .###+++++.  ",
"    .. .#####+++$   ",
"    @.@###+#++$$    ",
"         ++++++     ",
"        ++++ .      ",
"       .+.          ",
"                    ",
"                    ",
"         .          ",
"      $$#           ",
"    .$+++           ",
"    +++++     .+..  ",
"  .+++++.     +@++. ",
"  +++###.    .+@@@. ",
" ++++###.   .#@@@@. ",
".#  @#### .+@@@@@@+ ",
"   ##..+#####..+++  ",
"   ..   .##     +   ",
"   .    +#          ",
"  @.  ..###         ",
"  @@#.#####+        ",
"     #@###++++      ",
"      ++++++++++    ",
"    ..++++++$$.     ",
"     .+.+..$        ",
"                    ",
"                    ",
"                    ",
"                    ",
"      .+$$$+.       ",
"    .++++++         ",
"  .++++++++         ",
" .++++##++          ",
"    @####      +    ",
"   ######      +++  ",
"  @....+#    ++@@+. ",
" @.    .######@@@@+ ",
" @.    .######@@@@+ ",
"  @....+#    ++@@+. ",
"   ######      +++  ",
"    @####      .    ",
" .++++##++          ",
"  .++++++++         ",
"    .++++++         ",
"      .+$$$+.       ",
"                    ",
"                    ",
"                    ",
"                    ",
"    ..+.+..$        ",
"     .++++++$$.     ",
"      ++++++++++    ",
"     #@###++++      ",
"  @@#..####+        ",
"  @.  ..###         ",
"   .    +#          ",
"   ..   .##     +   ",
"   ##..+#####..+++  ",
".#  @#### .+@@@@@@+ ",
" ++++###.   .@@@@@. ",
"  +++###.    .#@@@. ",
"  .+++++.     #@#+. ",
"    +++++     .+..  ",
"    .$+++           ",
"      $$#           ",
"         .          ",
"                    ",
"                    ",
"       .+.          ",
"        ++++ .      ",
"         ++++++     ",
"    @.@###+#++$$    ",
"    .. .#####+++$   ",
"    @   .###+++++   ",
" .  #.   +##.    .  ",
" ++ ##. ..#         ",
" .++###+.##         ",
"  +++#######        ",
"  ++####  ###  ..   ",
"   ++#+.   ###++.   ",
"  .++++     #@@@+.  ",
"   +$++     +@@@++  ",
"    $++    .+@@@@.  ",
"     $+    ..++@+   ",
"      ..     .+.    ",
"                    ",
"                    ",
"           .        ",
"           #+       ",
"      @@    ++.     ",
"      @...# +++     ",
"  .   #  .#@++++.   ",
"  .. #.   .###++$   ",
"  +++@#.  .###+++$  ",
"  .++##.  +###+++$  ",
"  +++###+.##...++#  ",
"  .++######       . ",
"  .+++## ##.        ",
"  $++++   #+        ",
"   $++    #@.       ",
"   $++    .@@. .    ",
"   .+     .@@##.    ",
"    +     +@@@@+    ",
"         ++@@@#.    ",
"          +@@@+.    ",
"           +...     ",
"                    ",
"                    ",
"     .   @@   .     ",
"    .+  @..@  +.    ",
"    ++ #.  .# ++    ",
"   .++@#.  .#@++.   ",
"   +++##.  .##+++   ",
"  .++###.  .###++.  ",
"  +++###+..+###+++  ",
"  $+++########+++$  ",
"  $+++   ##   +++$  ",
"  $++    ##    ++$  ",
"  +      ##      +  ",
"  .      ##      .  ",
"        +##+        ",
"        +@@+        ",
"      .+@@@@++      ",
"       +@@@@+       ",
"       ++@@++       ",
"        .++.        ",
"                    ",
"        .           ",
"       +#           ",
"     .++    @@      ",
"     +++ #...@      ",
"   .++++@#.  #   .  ",
"   $++###.   .# ..  ",
"  $+++###.  .#@+++  ",
"  $+++###+  .##++.  ",
"  #++...##.+###+++  ",
" .       ######++.  ",
"        .## ##+++.  ",
"        +#   ++++$  ",
"       .@#    ++$   ",
"    . .@@.    ++$   ",
"    .##@@.     +.   ",
"    +@@@@+     +    ",
"    .#@@@++         ",
"    .+@@@+          ",
"     ...+           ",
"                    ",
"                    ",
"          .+.       ",
"      . ++++        ",
"     ++++++         ",
"    $$++#+###@.@    ",
"   $+++#####. ..    ",
"  .+++++###.   @    ",
"  .    .##+   .#  . ",
"         #.. .## ++ ",
"         ##.+###++. ",
"        #######+++  ",
"   ..  ###  ####++  ",
"   .++###   .+#++   ",
"  .+@@@#     ++++.  ",
"  ++@@@+     ++$+   ",
"  .@@@@+.    ++$    ",
"   +@++..    +$     ",
"    .+.     ..      ",
"                    ",
"                    ",
"                    ",
"                    ",
"        $..+.+..    ",
"     .$$++++++.     ",
"    ++++++++++      ",
"      ++++###@#     ",
"        +#####.#@@  ",
"         ###..  .@  ",
"          #+    .   ",
"   +     ##.   ..   ",
"  +++..#####+..##   ",
" +@@@@@@+. ####@  #.",
" .@@@@@.   .###++++ ",
" .@@@#.    .###+++  ",
" .+#@#     .+++++.  ",
"  ..+.     +++++    ",
"           +++$.    ",
"           #$$      ",
"          .         ",
"                    ",
"                    ",
"                    ",
"       .+$$$+.      ",
"         ++++++.    ",
"         ++++++++.  ",
"          ++##++++. ",
"    .      ####@    ",
"  +++      ######   ",
" .+@@++    #+....@  ",
" +@@@@######.    .@ ",
" +@@@@######.    .@ ",
" .+@@++    #+....@  ",
"  +++      ######   ",
"    +      ####@    ",
"          ++##++++. ",
"         ++++++++.  ",
"         ++++++.    ",
"       .+$$$+.      ",
"                    ",
"                    ",
"                    ",
"          .         ",
"           #$$      ",
"           +++$     ",
"  ..+.     ++++.    ",
" .+#@#     .++++    ",
" .@@@#.    .###++.  ",
" .@@@@@.   .###+++  ",
" +@@@@@@+. ####@  + ",
"  +++..#####+..##   ",
"   +     ##.   ..   ",
"          #+    .   ",
"         ###..  .@  ",
"        +#####.#@@  ",
"      ++++###@#     ",
"    ++++++++++      ",
"     .$$++++++.     ",
"        $..+.+..    ",
"                    ",
"                    ",
"                    ",
"                    ",
"    .+.     ..      ",
"   +@++..    +$     ",
"  .@@@@+.    ++$    ",
"  ++@@@+     ++$#   ",
"  .+@@@#     ++++.  ",
"   .++###   .+#++   ",
"   ..  ###  ####++  ",
"        #######+++  ",
"         ##.+###++. ",
"         #.. .## ++ ",
"  .    .##+   .#  . ",
"  .+++++###.   @    ",
"   $+++#####. ..    ",
"    $$++#+###@.@    ",
"     ++++++         ",
"      . ++++        ",
"          .+.       ",
"                    ",
"                    ",
"     ...+           ",
"    .+@@@+          ",
"    .#@@@++         ",
"    +@@@@+     #    ",
"    .##@@.     +.   ",
"    . .@@.    ++$   ",
"       .@#    ++$   ",
"        +#   ++++$  ",
"        .## ##+++.  ",
" .       ######++.  ",
"  #++...##.+###+++  ",
"  $+++###+  .##++.  ",
"  $+++###.  .#@+++  ",
"   $++###.   .# ..  ",
"    .+++@#.  #   .  ",
"      ++ #...@      ",
"      .+    @@      ",
"        .           ",
"                    "};
