/* XPM */
static char * 0001_xpm[] = {
"30 30 4 1",
" 	c None",
".	c #000000000000",
"X	c #B0B000000000",
"o	c #FFFFFFFF0000",
"                              ",
"                              ",
"                              ",
"                              ",
"                              ",
"                              ",
"                              ",
"                              ",
"                              ",
"                   ....       ",
"                  .XXXX.      ",
"                  .XX..X.     ",
"                 .XXXX.X.     ",
"                 .XXoXoX.     ",
"                 .XXXoXX.     ",
"                 .XXoXoX.     ",
"                 .XXXXXX.     ",
"                 .XXXXXX.     ",
"                  ......      ",
"                              ",
"                              ",
"                              ",
"                              ",
"                              ",
"                              ",
"                              ",
"                              ",
"                              ",
"                              ",
"                              "};
