#define planet001_width 30
#define planet001_height 30
static char planet001_bits[] = {
    0x00, 0xf8, 0x03, 0x00, 0x00, 0x07, 0x1c, 0x00, 0xc0, 0x00, 0x60, 0x00,
    0x20, 0x00, 0x80, 0x00, 0x10, 0x00, 0x00, 0x01, 0x08, 0x00, 0x00, 0x02,
    0x04, 0x00, 0x00, 0x04, 0x04, 0x00, 0x00, 0x04, 0x02, 0x00, 0xf8, 0x08,
    0x02, 0x00, 0x08, 0x09, 0x02, 0x00, 0x08, 0x0a, 0x01, 0x00, 0xa8, 0x12,
    0x01, 0x00, 0x48, 0x12, 0x01, 0x00, 0xa8, 0x12, 0x01, 0x00, 0x08, 0x12,
    0x01, 0x00, 0x08, 0x12, 0x01, 0x00, 0x08, 0x12, 0x01, 0x00, 0x08, 0x12,
    0x02, 0x00, 0xf8, 0x0b, 0x02, 0x00, 0x00, 0x08, 0x02, 0x00, 0x00, 0x08,
    0x04, 0x00, 0x00, 0x04, 0x04, 0x00, 0x00, 0x04, 0x08, 0x00, 0x00, 0x02,
    0x10, 0x00, 0x00, 0x01, 0x20, 0x00, 0x80, 0x00, 0xc0, 0x00, 0x60, 0x00,
0x00, 0x07, 0x1c, 0x00, 0x00, 0xf8, 0x03, 0x00, 0x00, 0x00, 0x00, 0x00};
