/* XPM */
static char * 0010_xpm[] = {
"30 30 6 1",
" 	c None",
".	c #000000000000",
"X	c #909090909090",
"o	c #C1C1C1C1C1C1",
"O	c #E0E0E0E0E0E0",
"+	c #A1A1A1A1A1A1",
"                              ",
"            .   .             ",
"           .X. .X.            ",
"          .Xo. .oo.           ",
"          .oO. .Xo.           ",
"          .oO. .XO.           ",
"          .oO...XO.           ",
"          .ooXXXXO.           ",
"           .ooooO.            ",
"            .ooO.             ",
"             .o.              ",
"            .XoO.             ",
"             .+.              ",
"            .XoO.             ",
"             .+.              ",
"            .XoO.             ",
"             .+.              ",
"            .XoO.             ",
"             .o.              ",
"            .X+o.             ",
"           .Xoooo.            ",
"          .XoOOOoO.           ",
"          .XO...XO.           ",
"          .XO. .XO.           ",
"          .XO. .XO.           ",
"           .o. .O.            ",
"            .   .             ",
"                              ",
"                              ",
"                              "};
