#define planet011_width 30
#define planet011_height 30
static char planet011_bits[] = {
    0x00, 0xf8, 0x03, 0x00, 0x00, 0x07, 0x1c, 0x00, 0xc0, 0x10, 0x61, 0x00,
    0x20, 0x18, 0x83, 0x00, 0x10, 0x18, 0x03, 0x01, 0x08, 0x18, 0x03, 0x02,
    0x04, 0xf8, 0x03, 0x04, 0x04, 0xf8, 0x03, 0x04, 0x02, 0xe0, 0xf8, 0x08,
    0x02, 0xe0, 0x08, 0x09, 0x02, 0x40, 0x08, 0x0a, 0x01, 0xe0, 0xa8, 0x12,
    0x01, 0x40, 0x48, 0x12, 0x01, 0xe0, 0xa8, 0x12, 0x01, 0x40, 0x08, 0x12,
    0x01, 0xe0, 0x08, 0x12, 0x01, 0x40, 0x08, 0x12, 0x01, 0xe0, 0x08, 0x12,
    0x02, 0x40, 0xf8, 0x0b, 0x02, 0xe0, 0x00, 0x08, 0x02, 0xe0, 0x00, 0x08,
    0x04, 0xf8, 0x03, 0x04, 0x04, 0xf8, 0x03, 0x04, 0x08, 0x18, 0x03, 0x02,
    0x10, 0x18, 0x03, 0x01, 0x20, 0x18, 0x83, 0x00, 0xc0, 0x10, 0x61, 0x00,
0x00, 0x07, 0x1c, 0x00, 0x00, 0xf8, 0x03, 0x00, 0x00, 0x00, 0x00, 0x00};
