/* XPM */
static char * 0100_xpm[] = {
"30 30 10 1",
" 	c None",
".	c #000000000000",
"X	c #FFFFB0B0B0B0",
"o	c #B0B000000000",
"O	c #666679796666",
"+	c #C6C6C6C6E0E0",
"@	c #909090909090",
"#	c #98988A8A6D6D",
"$	c #B0B0A0A09090",
"%	c #A0A0C0C0A0A0",
"                              ",
"                              ",
"                              ",
"                              ",
"                              ",
"                              ",
"     ...                      ",
"    .XXX.                     ",
"    .XXX. .                   ",
"    .XXX..o.                  ",
"   ...O..+..                  ",
"  .OOOOO+O..                  ",
" .@.@#O+@.O.                  ",
" .@.OO++$.$.                  ",
" .O.@++@$.O.                  ",
" .O.+++OO.@.                  ",
" .X+%%%%%.X.                  ",
"  ..%%.%%..                   ",
"   .%%.%%.                    ",
"   .%%.%%.                    ",
"   .%%.%%.                    ",
"   .%%.%%.                    ",
"    .. ..                     ",
"                              ",
"                              ",
"                              ",
"                              ",
"                              ",
"                              ",
"                              "};
