#define planet100_width 30
#define planet100_height 30
static char planet100_bits[] = {
    0x00, 0xf8, 0x03, 0x00, 0x00, 0x07, 0x1c, 0x00, 0xc0, 0x00, 0x60, 0x00,
    0x20, 0x00, 0x80, 0x00, 0x10, 0x00, 0x00, 0x01, 0x08, 0x00, 0x00, 0x02,
    0x04, 0x00, 0x00, 0x04, 0xe4, 0x00, 0x00, 0x04, 0xe2, 0x00, 0x00, 0x08,
    0xe2, 0x00, 0x00, 0x08, 0x42, 0x00, 0x00, 0x08, 0xf9, 0x03, 0x00, 0x10,
    0xf5, 0x05, 0x00, 0x10, 0x55, 0x05, 0x00, 0x10, 0xf5, 0x05, 0x00, 0x10,
    0x55, 0x05, 0x00, 0x10, 0xf5, 0x05, 0x00, 0x10, 0xb1, 0x01, 0x00, 0x10,
    0xb2, 0x01, 0x00, 0x08, 0xb2, 0x01, 0x00, 0x08, 0xb2, 0x01, 0x00, 0x08,
    0xb4, 0x01, 0x00, 0x04, 0x04, 0x00, 0x00, 0x04, 0x08, 0x00, 0x00, 0x02,
    0x10, 0x00, 0x00, 0x01, 0x20, 0x00, 0x80, 0x00, 0xc0, 0x00, 0x60, 0x00,
0x00, 0x07, 0x1c, 0x00, 0x00, 0xf8, 0x03, 0x00, 0x00, 0x00, 0x00, 0x00};
