#define planet110_width 30
#define planet110_height 30
static char planet110_bits[] = {
    0x00, 0xf8, 0x03, 0x00, 0x00, 0x07, 0x1c, 0x00, 0xc0, 0x10, 0x61, 0x00,
    0x20, 0x18, 0x83, 0x00, 0x10, 0x18, 0x03, 0x01, 0x08, 0x18, 0x03, 0x02,
    0x04, 0xf8, 0x03, 0x04, 0xe4, 0xf8, 0x03, 0x04, 0xe2, 0xe0, 0x00, 0x08,
    0xe2, 0xe0, 0x00, 0x08, 0x42, 0x40, 0x00, 0x08, 0xf9, 0xe3, 0x00, 0x10,
    0xf5, 0x45, 0x00, 0x10, 0x55, 0xe5, 0x00, 0x10, 0xf5, 0x45, 0x00, 0x10,
    0x55, 0xe5, 0x00, 0x10, 0xf5, 0x45, 0x00, 0x10, 0xb1, 0xe1, 0x00, 0x10,
    0xb2, 0x41, 0x00, 0x08, 0xb2, 0xe1, 0x00, 0x08, 0xb2, 0xe1, 0x00, 0x08,
    0xb4, 0xf9, 0x03, 0x04, 0x04, 0xf8, 0x03, 0x04, 0x08, 0x18, 0x03, 0x02,
    0x10, 0x18, 0x03, 0x01, 0x20, 0x18, 0x83, 0x00, 0xc0, 0x10, 0x61, 0x00,
0x00, 0x07, 0x1c, 0x00, 0x00, 0xf8, 0x03, 0x00, 0x00, 0x00, 0x00, 0x00};
