#define planet1010_width 30
#define planet1010_height 30
static char planet1010_bits[] = {
    0x00, 0xf8, 0x03, 0x00, 0x00, 0x07, 0x1c, 0x00, 0xc0, 0xa0, 0x60, 0x00,
    0x20, 0xb0, 0x81, 0x00, 0x10, 0xb0, 0x01, 0x01, 0x08, 0xf0, 0x01, 0x02,
    0x04, 0x40, 0x00, 0x04, 0x04, 0xe0, 0x00, 0x04, 0x02, 0x40, 0x00, 0x08,
    0x02, 0xe0, 0x00, 0x08, 0x02, 0x40, 0x00, 0x08, 0x01, 0xe0, 0x00, 0x10,
    0x01, 0x40, 0x00, 0x10, 0x01, 0xf0, 0x01, 0x10, 0x01, 0xb0, 0x01, 0x10,
    0x01, 0xb0, 0x01, 0x10, 0x01, 0xa0, 0x00, 0x10, 0x01, 0x00, 0x00, 0x10,
    0x02, 0x90, 0x01, 0x08, 0x02, 0xf0, 0x00, 0x08, 0x02, 0xf4, 0x07, 0x08,
    0x04, 0x1c, 0x03, 0x04, 0x04, 0x18, 0x03, 0x04, 0x08, 0x18, 0x07, 0x02,
    0x10, 0xfc, 0x05, 0x01, 0x20, 0xe0, 0x81, 0x00, 0xc0, 0x30, 0x61, 0x00,
0x00, 0x07, 0x1c, 0x00, 0x00, 0xf8, 0x03, 0x00, 0x00, 0x00, 0x00, 0x00};
