/* XPM */
static char * 1110_xpm[] = {
"30 30 15 1",
" 	c None",
".	c #000000000000",
"X	c #A1A1A1A1A1A1",
"o	c #D0D0D0D0D0D0",
"O	c #E0E0E0E0E0E0",
"+	c #B0B0B0B0B0B0",
"@	c #FFFFFFFFFFFF",
"#	c #FFFFB0B0B0B0",
"$	c #B0B000000000",
"%	c #666679796666",
"&	c #C6C6C6C6E0E0",
"*	c #909090909090",
"=	c #98988A8A6D6D",
"-	c #B0B0A0A09090",
";	c #A0A0C0C0A0A0",
"                              ",
"             . .              ",
"            .X.X.             ",
"           .Xo.XO.            ",
"           .Xo.+@.            ",
"           .Xoo@@.            ",
"     ...    ..O..             ",
"    .###.   .Xo@.             ",
"    .###. .  .O.              ",
"    .###..$..Xo@.             ",
"   ...%..&.. .O.              ",
"  .%%%%%&%...Xo@.             ",
" .*.*=%&*.%...O..             ",
" .*.%%&&-.-.XXoo@.            ",
" .%.*&&*-.%.XO.X@.            ",
" .%.&&&%%.*.XO.X@.            ",
" .#&;;;;;.#..o.@.             ",
"  ..;;.;;.. .  ..             ",
"   .;;.;;.  *..*+.            ",
"   .;;.;;.  ***+...           ",
"   .;;.;;.  +OO+++O.          ",
"   .;;.;;.  O...+O.           ",
"    .. ..   .   .+.           ",
"          .++...o++.          ",
"         .**++++o.O.          ",
"          ...*OO+..           ",
"           .*O..O.            ",
"            ..  .             ",
"                              ",
"                              "};
