/* XPM */
static char * mbarrenxpm_xpm[] = {
"16 16 7 1",
" 	c None",
".	c #7F7F7F7F7F7F",
"X	c #6C6C6C6C6C6C",
"o	c #545454545454",
"O	c #3F3F3F3F3F3F",
"+	c #909090909090",
"@	c #A1A1A1A1A1A1",
"     .XoOO      ",
"   +.XoOOOOO    ",
"  +.XoOOOOOOO   ",
" @+.XoOOOOOOOO  ",
" @+.XoOOOOOOOO  ",
"@+.XoOOOOOOOOOO ",
"@+.XoOOOOOOOOOO ",
"@+.XoOOOOOOOOOO ",
"@+.XoOOOOOOOOOO ",
"@+.XoOOOOOOOOOO ",
" @+.XoOOOOOOOO  ",
" @+.XoOOOOOOOO  ",
"  +.XoOOOOOOO   ",
"   +.XoOOOOO    ",
"     .XoOO      ",
"                "};
