/* XPM */
static char * m0001_xpm[] = {
"16 16 9 1",
" 	c None",
".	c #7F7F7F",
"+	c #6C6C6C",
"@	c #545454",
"#	c #3F3F3F",
"$	c #909090",
"%	c #A1A1A1",
"&	c #B00000",
"*	c #FFFF00",
"     .+@##      ",
"   $.+@#####    ",
"  $.+@#######   ",
" %$.+@########  ",
" %$.+@########  ",
"%$.+@#####&&&## ",
"%$.+@####&&&&## ",
"%$.+@####&&*&## ",
"%$.+@####&&&&## ",
"%$.+@####&&&&## ",
" %$.+@########  ",
" %$.+@########  ",
"  $.+@#######   ",
"   $.+@#####    ",
"     .+@##      ",
"                "};
