#define mplanet011_width 16
#define mplanet011_height 16
static char mplanet011_bits[] = {
    0xe0, 0x03, 0x18, 0x0c, 0x44, 0x11, 0x42, 0x21, 0xc2, 0x21, 0x81, 0x4c,
    0x81, 0x54, 0x81, 0x54, 0x81, 0x54, 0x81, 0x5c, 0xc2, 0x21, 0x42, 0x21,
0x44, 0x11, 0x18, 0x0c, 0xe0, 0x03, 0x00, 0x00};
