/* XPM */
static char * m0010_xpm[] = {
"16 16 8 1",
" 	c None",
".	c #7F7F7F",
"+	c #6C6C6C",
"@	c #545454",
"#	c #3F3F3F",
"$	c #909090",
"%	c #E0E0E0",
"&	c #A1A1A1",
"     .+@##      ",
"   $.+@#####    ",
"  $.+@%#%####   ",
" &$.+@%#%#####  ",
" &$.+@%%%#####  ",
"&$.+@##%####### ",
"&$.+@##%####### ",
"&$.+@##%####### ",
"&$.+@##%####### ",
"&$.+@##%####### ",
" &$.+@%%%#####  ",
" &$.+@%#%#####  ",
"  $.+@%#%####   ",
"   $.+@#####    ",
"     .+@##      ",
"                "};
