#define mplanet100_width 16
#define mplanet100_height 16
static char mplanet100_bits[] = {
    0xe0, 0x03, 0x18, 0x0c, 0x04, 0x10, 0x1a, 0x20, 0x1a, 0x20, 0x01, 0x40,
    0x19, 0x40, 0x25, 0x40, 0x3d, 0x40, 0x25, 0x40, 0x1a, 0x20, 0x1a, 0x20,
0x04, 0x10, 0x18, 0x0c, 0xe0, 0x03, 0x00, 0x00};
