/* XPM */
static char * m0100_xpm[] = {
"16 16 10 1",
" 	c None",
".	c #7F7F7F",
"+	c #6C6C6C",
"@	c #545454",
"#	c #3F3F3F",
"$	c #909090",
"%	c #A1A1A1",
"&	c #FFB0B0",
"*	c #667966",
"=	c #A0C0A0",
"     .+@##      ",
"   $.+@#####    ",
"  $.+@#######   ",
" %$&&@########  ",
" %$&&@########  ",
"%$.**########## ",
"%$**=*######### ",
"%$*=**######### ",
"%$&**&######### ",
"%$.==########## ",
" %$==@########  ",
" %$.+@########  ",
"  $.+@#######   ",
"   $.+@#####    ",
"     .+@##      ",
"                "};
