/* XPM */
static char * m0101_xpm[] = {
"16 16 12 1",
" 	c None",
".	c #7F7F7F",
"+	c #6C6C6C",
"@	c #545454",
"#	c #3F3F3F",
"$	c #909090",
"%	c #A1A1A1",
"&	c #FFB0B0",
"*	c #667966",
"=	c #B00000",
"-	c #A0C0A0",
";	c #FFFF00",
"     .+@##      ",
"   $.+@#####    ",
"  $.+@#######   ",
" %$&&@########  ",
" %$&&@########  ",
"%$.**#####===## ",
"%$**-*###====## ",
"%$*-**###==;=## ",
"%$&**&###====## ",
"%$.--####====## ",
" %$--@########  ",
" %$.+@########  ",
"  $.+@#######   ",
"   $.+@#####    ",
"     .+@##      ",
"                "};
