#define mplanet111_width 16
#define mplanet111_height 16
static char mplanet111_bits[] = {
    0xe0, 0x03, 0x18, 0x0c, 0x44, 0x11, 0x5a, 0x21, 0xda, 0x21, 0x81, 0x4c,
    0x99, 0x54, 0xa5, 0x54, 0xbd, 0x54, 0xa5, 0x5c, 0xda, 0x21, 0x5a, 0x21,
0x44, 0x11, 0x18, 0x0c, 0xe0, 0x03, 0x00, 0x00};
