#define mplanet110_width 16
#define mplanet110_height 16
static char mplanet110_bits[] = {
    0xe0, 0x03, 0x18, 0x0c, 0x44, 0x11, 0x5a, 0x21, 0xda, 0x21, 0x81, 0x40,
    0x99, 0x40, 0xa5, 0x40, 0xbd, 0x40, 0xa5, 0x40, 0xda, 0x21, 0x5a, 0x21,
0x44, 0x11, 0x18, 0x0c, 0xe0, 0x03, 0x00, 0x00};
