#define mplanet1011_width 16
#define mplanet1011_height 16
static char mplanet1011_bits[] = {
    0xe0, 0x03, 0x18, 0x0c, 0x44, 0x11, 0xc2, 0x21, 0x82, 0x20, 0xc1, 0x4d,
    0x41, 0x55, 0x01, 0x54, 0x01, 0x54, 0x81, 0x5c, 0x82, 0x23, 0xc2, 0x21,
0x04, 0x11, 0x18, 0x0c, 0xe0, 0x03, 0x00, 0x00};
