#define mplanet1111_width 16
#define mplanet1111_height 16
static char mplanet1111_bits[] = {
    0xe0, 0x03, 0x18, 0x0c, 0x44, 0x11, 0xda, 0x21, 0x9a, 0x20, 0xc1, 0x4d,
    0x59, 0x55, 0x25, 0x54, 0x3d, 0x54, 0xa5, 0x5c, 0x9a, 0x23, 0xda, 0x21,
0x04, 0x11, 0x18, 0x0c, 0xe0, 0x03, 0x00, 0x00};
