#define mplanet1110_width 16
#define mplanet1110_height 16
static char mplanet1110_bits[] = {
    0xe0, 0x03, 0x18, 0x0c, 0x44, 0x11, 0xda, 0x21, 0x9a, 0x20, 0xc1, 0x41,
    0x59, 0x41, 0x25, 0x40, 0x3d, 0x40, 0xa5, 0x40, 0x9a, 0x23, 0xda, 0x21,
0x04, 0x11, 0x18, 0x0c, 0xe0, 0x03, 0x00, 0x00};
