/* XPM */
static char * r001_xpm[] = {
"30 480 19 1",
" 	c None",
".	c #303030303030",
"X	c #404040404040",
"o	c #505050505050",
"O	c #606060606060",
"+	c #707070707070",
"@	c #6060B0B0B0B0",
"#	c #909090909090",
"$	c #808080808080",
"%	c #505090909090",
"&	c #A0A0A0A0A0A0",
"*	c #000000008080",
"=	c #D0D0D0D0D0D0",
"-	c #10101010A0A0",
";	c #7070E0E0E0E0",
":	c #B0B0B0B0B0B0",
"?	c #F0F0F0F0F0F0",
">	c #30304040D0D0",
",	c #E0E0E0E0E0E0",
"          .XoOOOOo...         ",
"       ..XoO+@@@#$++O.        ",
"      ..XO+%$#&#$$$$$+O.      ",
"     .XX*%%++$$+OO$+O##+.     ",
"    .XooO%OOOO$Oo++$=#&#O.    ",
"   .XOO%%%++o$#o-@@+O==;@O.   ",
"  .XooOO&%$$+o+OO+@@@@:$@@O   ",
" .XoooOO#%%$#OO+$@@@;@?&:@%.  ",
" .ooXXOO&%%$$++$#&&@;;&&&&@O. ",
" XoOXo+++&%@%&@&oX;;;+&:#&&+. ",
".XooO+O+$+&%%=o+;;;@@;;;;&@$X ",
".ooOOoOO$$#&&O&;;;;@@;;@@;@@+.",
"XoooOOO++$$$#;;;@&&@@;;#+;;;$.",
"XXXOooO%%%%$$&@&#&&@;;;;@@@@%.",
"..*oOoOO%%%%@$$##&&@;@@;;;&@%.",
"..*oOo*%%%%%%@$$#&&@@+o@;;@#+.",
"..oOOOO%%%%@@%####&;@+==:@#&$.",
".XooOOo>%%%@%&&=,@@@+&$O:#&&+.",
" .Xoo%oO%%%$#%,&#::@$&+#:=&#X ",
" XoooO*OO%$#%#:&+$#=$+#,:o&+. ",
" .XoOoOO%%$%+#::+#:&:#O@&:&O. ",
" .XoooOOO%%##++$=#@@##@+;;@X  ",
"  .XoO$%%$%$$=$=,#@@%$=:@@%   ",
"   .oO%%%%$$#&?#@@@@$&#,@%.   ",
"    .oO+&&%%%:$%@%@##=:@O.    ",
"     .oOOO&%$O%@@@@&;@@%.     ",
"      .Xo++%+%%@@;@@@%O.      ",
"       ..oOO+$##@@%+O.        ",
"          .oOO+++OX..         ",
"            ......            ",
"          .XooOOOOX..         ",
"       .XooO+$$@@#$+o.        ",
"      .XOOO$$%@#&&#$++o.      ",
"     .oooO->%@++$#+OO$+O.     ",
"    .XOOoOO%@#OO$O$o++$$+.    ",
"   .XoO%%$&@@@+++$=oO@$O#O.   ",
"  .XoOOoO+$#:;&$o+:+O+@@@#%   ",
" ..oOoOo+$$#&:;#+&oO$@@;@:#X  ",
" .XoOOooXo$$#,;@##++$#&@;@&O. ",
" .oOoOO$Oo+$$#;;;@&@&o;;;##+. ",
".XooOO%%#&++$&=,@@=o+;;@@;@%. ",
".XoOOO%++++++$&:==OX&;;@@;@@O.",
".oooOO%$$$++$$##$:;;;@&@@;@@%.",
".oXoooO%O%%%%@@@##&@@#&@;;;@%.",
".X.Xo*-%%%>O%%@@@@$$$#&@;@@@%.",
".XXXX**%%%>>%@;@@@@%$#&@@+&:$.",
".Xoo**%%%%%%%%@@;;@@###;@+&&$.",
".Xo**oO%%$$+>>@;;@&@&,@@+&o#+.",
".XXX*OO%%%O%%%@@#&@,&#:@$$#$X ",
" XoX*oO$%$>%%%%#&@#:&+#=$#:$. ",
" .XXoO%$%+O%%%@&@+&::+:&:$&$. ",
"  .XXooO$$$%%%;:+&&+=#@;#&#o  ",
"  .XoO$$$$$$%@;###$$,#@;##+   ",
"   .XO%$%%@%@;#&:&&#@@@$#+X   ",
"    .oOO%%&:::@@@,$%%@#$O.    ",
"     .oOOO%%@:;&$O@@@@#+.     ",
"      .XoO%%@;&+%%@@@%O.      ",
"       ..XO%%@$$$$%%OX        ",
"          .XooO++OX..         ",
"            ......            ",
"          ..XoooOo...         ",
"       ..XoO+$$$$%%%O.        ",
"      .XO++%%$&&%@#&#+o.      ",
"     .Xo+%%#+>->@@++$$++X     ",
"    ..XoO%%%%%%@;;+O$#+$+X    ",
"   .XooOO%%%%%@=;;;++X=-$$X   ",
"  .XXoOo%%%@$+$&::;;$oo+$@O   ",
" .XXoXoO%$%$O$#&:#,;#+OO$@%X  ",
" .oXOOOO%%$O$$X&##:;;@#++#@O. ",
" XoooO#%%%%O$:o&$$#,;;@&@o@%. ",
".XooOO%%%%%@%@=$++$+=,@#o;;@X ",
".XoO+O%%%%@@%$#$+++#&:=OX;;@O.",
".XooOO$$$%%@%##&$+$$$#$;;;&@%.",
".XoOOOOOO+$O%@%%%%@@@@#&@&&@%.",
".oXOOOX$OO---%@%>O%@@@@$$#&@%.",
".ooOOoX$oo-->@;%>>%@;@@@%$&@+.",
".o+OooOO-->%%%@@%%@@@@;@@##@+.",
".oOoooOo*>%%%;;&#+>>%;;&@=@%o ",
".Xooo+OO--%%%%@#O%%%@@&&,##+. ",
" .oooOOO--%%%&#>>%%@%#@&:+#+. ",
" .XOOO+X-O%%##$OO%%@@&+=:+$o  ",
" .XoooooO%%$$#&&@@@@:+++=&$.  ",
"  .XooOOO%$$#&&&&@@&##=$&@+   ",
"  ..oo%+%%@$%;;;;;;#::&@#+.   ",
"   .XoOO$#&@%%,,,,;@@&@%O.    ",
"    ..Xooo%%@@;;;,;$O@@O.     ",
"      .XoO+$@;;;;;@$+%O.      ",
"       ..Xo+%@@@#$O+OX        ",
"          .XO%+++o...         ",
"            ......            ",
"          .XXooooo...         ",
"       ..XoO+$$$$$+%OX        ",
"      .XoOO+$#@@#&$@@+o.      ",
"     .oooXo:%@&$O->@@$+o.     ",
"    .XXo*XO%%%@%%%%;;+++O.    ",
"   .oo*-O%%%%%@@@@&=;;#+#+.   ",
"  .oooXoO%%%%@@;@$+$::;&#$O   ",
" .XooXooO%%%%%@&+O$#:#,;+$+X  ",
" .oooooO%%$#%@@#o#$X&#:;;#$O. ",
" XoOooO+$$&@@;;@O#:o&$#,;;@%. ",
".XooOoO###%@@;;;;@@=$+$+=@&%X ",
".ooOoo++#%@@@@;;;@###++#&:=@O.",
"XooXooO#%%%#$#@;;@#$#$+$$#:@+.",
".ooooO$$%%#+++$$O%@%%%%@@@#@$.",
".oooOo$&%#+o&+o---@;@>O@@@@#+.",
".oooOo+&$++o#OX-->@;;>>@;@@@+.",
".oO+oO%%++OO+O->%@@;@%%@@@;@+.",
".oOOOOO%+++$O->%@@;;;#+>%;@@O.",
".XoOo+O%%$$$+-%@@@@@#O%%@#&$X ",
" .XooO+%%%$$+-%@@@&#>>%@%&&$. ",
" .XXoo+&%%$Oo>@@@&&$OO%@@@&+. ",
" ..XXXoO&+%%%%@$##&&@@@;+#$X  ",
"  .XoooO+OO%%@&&#&&&&@@;#$o   ",
"   .oO%OO%%+@;;&&;;;;;&:#O.   ",
"    .oOO++$#&@;;&@,,,;@&+.    ",
"     .ooooO+$%;;;;;;,&$O.     ",
"      .XooO+$&@;;;;@#$o.      ",
"       ..Xo+$#@@@@%+OX        ",
"          .oO++++OX..         ",
"            ......            ",
"          ..XoXXoo...         ",
"       .XXoO++++$$++OX        ",
"      .XO++$#$+$&@$#$%O.      ",
"     .oO++++oo,$@@$O-%@O.     ",
"    .oO++Oo-oo%@@@@%%%@@O.    ",
"   .o++&+oo>+%%%%%@@@@@;#O.   ",
"  .XO++oo-o%%%@@%@@@@$+&&@o   ",
" .XoOO+oO+%%%%%%@@&@+O$&#@%.  ",
" .oo++Oo+++%%@@#&@@@#o$X&##O. ",
" XoOoO%++O++$&&=;;;;@O:o&$:$. ",
".XooOO%+$++$&:,;;;;;;;@=$+#$X ",
".XoOOO%+O+$$$#;;;;;;;;@##++#O.",
".XooOO++++$O#:;;&###@;@$#$$#+.",
".XOOOO+OO$###,;&++++$O%%%%@@+.",
".XooOO++$$+#,@&$.&+Oo--;@>%@+.",
".XoOOOO$$+$::;$$X&OoX->;;>%@%.",
".XoO++%&+#:@@#+OO+o--%@;@%@@%.",
".XooO++&$%&@%#++#o-*>@@;;#>%O.",
"..Xoo+O&$$%@@%###+-%@@@@#%%%X ",
" .XOooo&$$&@@;&##+-%@@&#>%@+. ",
" .XOooOOOO$&:@;#OX>@@@&$O%%O. ",
" .XooXooOoO$:$%%%%@@##&&@@+X  ",
"  .XoOoOoooO$%O%%%@&#&&&@#+   ",
"  ..Xo%%%%%%%@%$@;;&@;;;&+X   ",
"    .oOO%+$$$$@&=;;@@,=:$X    ",
"     .oOooO+$+$&:@;;;;:+.     ",
"      .XooOO$$$#&@;;@@O.      ",
"       ..XXO+$#&@@@%O.        ",
"          .XOO+++OX..         ",
"            ......            ",
"          .XXXXooX...         ",
"       ..ooO++$$++++OX        ",
"      .XO$$$$$@&#+##$+o.      ",
"     .ooO&&:$#+OX:$@@%%o.     ",
"    .oOOO&&&:+--..%%@@%%+X    ",
"   .XoO$&&&:ooX>O%%%%%@@@%.   ",
"  .XoOOO&&&:OoX%%%@@%@@;@#+   ",
"  .oOoOO%&&$++%%%%@%@@&&O##o  ",
" .XoOOOO&&$$$$++%@@@#&@@##$O. ",
" .oOoO+$$%%#$$+++#&&=;;;@#$+. ",
".XooOO%+$$%%$#++#=:,;;;;;@&$X ",
".XoOOO%$$%@%$$+$##:=;;;;;;##O.",
"..XoO+%$$$$$+++#O::;;&##@;##+.",
".XoOO+%$$$#+++#&::,;;+++$O@@%.",
".XoooO&%$#$$$$$+:,;;&.&Oo-@@%.",
".Xoooo+&%%$$$#$&,,;&$X&oX-@@%.",
".XoOoO+%&&%%:&:,;;&$+O+--%@@%.",
".XoX+Oo$%&&:::;,;@#++#o*>@;@o ",
".XXX.O++++$::$=;;;@###-%@@@%. ",
" .XXXX+$+++$:&&,;;;&##-%@@@O. ",
" .XXoo+++O++++##=,;;#O>@@&$o. ",
" .XoXooOO+OOOOO$&,$%%%@$#&+.  ",
"  .Xooo$O+ooOooO+$OO%%@&&#O   ",
"   .XOOOO%%%%@@%%@@$;;;@@%.   ",
"    .ooO%%%%%$##$$@=;;;@$X    ",
"     .oOO++++O+$$+&:@;;$X     ",
"     ..XoO+++O+$$$&&@@%X      ",
"       ..ooO++$#&#$%%X        ",
"         ..XOOO++OX..         ",
"            ......            ",
"          .XooXXXX..          ",
"       ..Xo+$$++++Ooo.        ",
"      .XoO+$%#&##&$+O+O.      ",
"     .ooo++$#,,,##+Xo$%O.     ",
"    .Xo+o++$%:,,,+o-.+%%O.    ",
"  ..ooO+O%%$::,,,XXXO+%%%O.   ",
"  .Xo+ooO$$$#,,,,$o-%%%@@%o   ",
" ..XoXoO%$$$#%,,&$++%%%%@#+.  ",
" .XooooO+$$$#&,&#$$$++@@@&@O. ",
" XoooOO+++$$#&@@@&$+++#:&;@+. ",
".XoXOO+$$%%@##&;;@#+++=:,;;@X ",
".XXooO%%%%@@%#&@;@##+$#:=;;@O.",
"XoX***O%%%&%%&#&#$+++#O:;;##+.",
"Xooooo%%+$:&%&&&&$+++&:,;&+$O.",
"XooX**%%++$%,%&&&#$$#+:;;$&$O.",
"XooXo*O%%++$:,@@&###&&,;&$&+O.",
".oOoooO%%O$$$%,,@@,=$,;&$O+OO.",
".oo*ooO%$:$$O#@,,,,:&,;#++o>o.",
".XooXOoOOX+:$$$$#,,#=;;###Oo. ",
" XoooOoOOOO::&+++#,#&,;@&#OO. ",
" .ooOO-O+Oo$:$++++++##,;;O%O. ",
" .XoooOoO$++#++OO+Oo$&#%%@$X  ",
"  .ooO%OOO+o#O$ooOooO+%O@@O   ",
"  .XoO%$+%%%%%@@@@@@%@@@@%X   ",
"   ..XOO++$@@@;;@$##$#@@%.    ",
"     .oOoo+%%#$$+O+$+&@%.     ",
"      .Xoo+$@$++OO$#$$%.      ",
"       ..Xo+$#$$++++OX        ",
"          .XO++O+o...         ",
"            ......            ",
"          .XoOOoX...          ",
"       ..Xo+$$##$+OOo.        ",
"      .Xo+++$$&@&&##$Oo.      ",
"     .ooO+&$$$##,,,##+Oo.     ",
"    .ooOOO#+$$##,,,,+oXoo.    ",
"   .oOO$+$$$%%@#&,,,$X-O%O.   ",
"  .oOOoO#$+O%@###&,,,$oX%%O   ",
" .Xo+oXoOOO%%%&##&,,&$+%%@%.  ",
" .ooo.+oOO%%$####&&,&#$$+%@O. ",
" .oOXO+O%%%$$####&&@@@$+++@%. ",
"..ooOO-O%%$$#&;;;&#&;;#++#&@X ",
".XXOoo-OO%%%%%;;;@&#&;@#+$#:%.",
".oooOOO>>->%%@@,@@&###$++#::+.",
".ooO+OOOO%%%@@&,,@&&&&$++&:@+.",
"XoXo+++o>-%@;%+#@,@@&&#$#+,:O.",
"XX.o++OOO>%%%;++#,,@@&##&&,&O.",
".oOo+O$O%%%O%@O#$#@,,@@=$,;$X ",
".XoXO+O>O%%%%O?##O#&@,,:&,@O. ",
".XooX%O%%%%$+OO$?$#$$#,#=;#X  ",
" XoOXOO%%%%$++XO,?&+++,#&;@X  ",
" .ooo+%%$%>%%$$X$,$+++++#=@X  ",
" .XooXoO%$%%%%++o:++O+OO&#%.  ",
"  .ooo+%%%%%O%$oo:#$oOoo$+o   ",
"  .XoOO+%%#$%%%%%%%@@@@%%%.   ",
"   ..ooO$&%$$$@;;;;@$##$%.    ",
"     .XOOO$+$$@;,$$+O$$O.     ",
"      .XoO++$#;;$+++++O.      ",
"       ..oo+$#&&#+OOoX        ",
"         ..Xo+$++o...         ",
"            ......            ",
"          .XoOOOoX..          ",
"       ..Xo+$$$$$$+Oo.        ",
"      .XoO+$#$$$$&#&#+o.      ",
"     .ooO+O$$,$$$##,,:#o      ",
"    .oOOO+$%$$#$$##@,,:+..    ",
"   .XOO%%+##O$&$O@;#,,,$OX.   ",
"  .XooOO$%o%&,$O%%###&,,$Oo   ",
"  .oOo++OXo&++O%@@&&#&,,$+O.  ",
" .XoOoOO+X&$++%%%#####&,&$$O. ",
" .XOoO$+O$+%%@@%$#####&@@&#+. ",
"..XXOOO%%%>o%@@##&&;;;#&;@#+X ",
".XXooo%%O%O>O%@@@@@;;;@#&;#$O.",
"XoooOO%%%$%O>%->%@@@@@@###+$$.",
"XoooOo$%&%%%O>%@;;@$&,@&&&+##.",
"XooXOoO%&:%$o>-%;;@++@,@&&$&$.",
".oooOo.%&&%$OO>%@@;@+#,@@&#&%.",
".oOOOOOO:%@#OO%%O@;@O$#,,@,&$.",
".XooOooO%&%$>>%%@@O&?#O&@,,&O.",
" .Xoo%+O+%%%%%%%$+OO$?#$$,:$X ",
" .XXoOOXO%%%%@%%$++XO,&++##%. ",
" .XoOO+#O#%@%#%>%%$$X$$+++$O. ",
" .XoXoOO%$+@@%@@%%#+o:+O+++X  ",
"  .ooO%%%+++@@@@%O%$o:#o+Oo   ",
"  ..oO#%%$o+@;&&#%%%%%@@+o.   ",
"   .XoOO&O##@@&$$$@;;;@$O.    ",
"    ..oooO%%@#$$$#;,$$+o.     ",
"     ..XoO+%@$$$#;@#$OX.      ",
"       ..Xo+#$#&&#+Oo.        ",
"          .XOO+$+O...         ",
"            ......            ",
"          .XooOOOX..          ",
"       ..Xo++$###$+Oo.        ",
"      .XoO+$$$&:$$$$$$+.      ",
"     .XoO+$%$+##$$$$#&:$.     ",
"    .XoOO$%%$$@@O##$##::+.    ",
"    XO++$%%@+$:&$#:$%@@,&O.   ",
"  .XoOOXo%%@##o@&=&$%%##:&o   ",
" ..XOoOOOo&%+$X,O+OO@@&#&:$.  ",
" .XoooOO$+#$#$$,$++%%%###&&O. ",
" XooXoO%%$$#$O#$%%@@%$###&&+. ",
".XooooOO$$+%%@%>X%@@##&;;&&$. ",
".oooooooO%%%%%%O>O%%@@@;;;&#O.",
"XoX*oo%%%%%%@;&%O>%>-%@@@@&#O.",
"XoXOOOOO++$$@,;@%O>%%;;$&,&#O.",
".oooOO+O$OoO;:,;$o>>-;;++@@&+.",
".ooo+OO$$+Xo@,,;#OOO>@@@+#,&$.",
".XooOO%%$$$++@;;&OO%%O@@O$@:#.",
".XXoOOo%$o%OO#,@#>>O%@@&?##&+.",
"..Xoo%O$%%&%O+;;@@%%%$OO$$#$X ",
" .XooOO$%%#:o+;;@@@%%$+XO?#O. ",
" .XoOO+$%%$$&+@;;@&%>%$$X,$o. ",
" .XoooOo+%%#%O$;;;&@%%#+:$O.  ",
"  .XoO++$%%%%+$$;;@@%O%o#$X   ",
"   .XO++$$@%@&.$;;;&@%%%$O.   ",
"    .oOO+#$:#$.:,;&$$@@@O.    ",
"     .oOoo++#%;;;#$$#@%O.     ",
"      .XooOO#@;;$$##$+o.      ",
"       ..XoO+##&&#++O.        ",
"          .XoO+++OX.          ",
"            ......            ",
"          .XoooOOo...         ",
"       .XooO+$$$#$$+o.        ",
"      .XoO+++$&#$###$+OX      ",
"     ..XoOo$$#@@#+#$,##$X     ",
"    ..XOoOO%##@;#$:@O=#&#X    ",
"   .X*OO%$&O#:;;;+$:$O:O@#X   ",
"  .XoO*O%%%%oo;;;@#@@&,$@&$   ",
" .XooXOO$++$%+o=;=#.,O+O@#$X  ",
" .oXOOOO+++$#@$#:#&.$,+O%%#O. ",
" XoOoO$OOO++$@:#&&#:#$%@@$#+. ",
".XooOO$++++OO+#++@@@%>%@@##$X ",
".oooOO++++OOOO%%%@@@%O>%%@@@+.",
".oXoO+OoO%%%%@@;;@;;@%O%>>@@$.",
".ooOOOO%%%%+++#+#&;,,@%>%@;#+.",
"XoooOO%%%@%##+#ooO;,,;$>>%;@+.",
"XoooOOO%%&%@%&#+..;,,;#OO%@@$.",
"XoOOOOO$+$#@@@&&#++;?;&O%%@@+.",
".oooOOo%$##$+;&o@oO#;@#>O%@$O.",
".XoOoOo%%%%###;:=@O;;;@%%$++X ",
" Xooooo%%%%$+&;=:,.;;;@@%$+O. ",
" .ooooO%%$$$$#;:##==@;@@%%+o. ",
" .XooooO%%$$+$;@&&o&;;@@%+O.  ",
"  .XXO%%%%$+$:;;;;+$$;@@%%o   ",
"  ..X*%%%%$+#$=;;;&.;;;#%o.   ",
"   ..XOO%%%$$&&#&O::,@##O.    ",
"    ..oOOO$+++$+&@;;&#$+X     ",
"     ..XoO++OOOo#;@&$Oo.      ",
"       ..XoO+$$###$+o.        ",
"          .XoO+$+o..          ",
"            .....             ",
"          .Xoooooo...         ",
"       .XoO+$$++$$++O.        ",
"      ..o+$$#$++#&##$+O.      ",
"     .XX*O+%Oo##$&@#+&&+.     ",
"    .ooooX%+%O&@&&@@$:&#O.    ",
"   .oOO--%%%%#,O#,;;@+@$#+.   ",
"  .oOOoo%>>%%=@@@Xo;;@#o$$o   ",
" .XoOOoo%%%%#$$#&@$o;=#XO$OX  ",
" .ooOOoO%%%&$$+$#&@$#:&.$$+O. ",
" XoOXO$$++$$+++++#@:#&#:#%$+. ",
".XooOO%+$$$#$+++OO+#++@@%X%+X ",
".ooOOO+++$$$$$+OOoo+%%@@%OO%O.",
"XoooOOO#%&+Oo>%%@@@@@;@;@%>%O.",
"XooOOO%%%%%%%@@@$+++##&,,@O%O.",
"XoooOO%%%%%%@@;;&#++#oO,,;o+O.",
".oooOoO%$$%%%;,;;@&$#..,,;O%%.",
".oOOOO%$$$++#+&:;;;;&#+;?;O%%.",
".ooo+oO%%$+%%@::#+;;&@o#;@>Oo.",
".XoOo++%$O%%%%;;&::;:=O;;@%O. ",
" XoXoOO%+o%%%@;@#+&;=:.;;@@O. ",
" .oo++%++O%%%@#&##&;:#==@;@o  ",
" .XooOOO%%%%@@##&+;;&&o$;@%.  ",
"  .ooO+O%%%%%;#$&$;;;;+$@@o   ",
"  ..o+O--%#%@;#$#$&;;;O;@O.   ",
"    .oo*O%%@%@#$&=&,O:&@O.    ",
"    .XooOO%%##++O$+&@&&+.     ",
"     ..Xo+%%#$OOOO$#@$O.      ",
"       ..oO+$$+$#$++OX        ",
"          .XOOO+$O..          ",
"            ......            ",
"          .XoOOooo...         ",
"       ..XoO$##$++++O.        ",
"      .XOOO+##&&$+$#$+o.      ",
"     .oOo&+>%#%O>+#$&##+.     ",
"    .oOOO$O%%%%+%o&&&@@#+.    ",
"   .Xo+%%%>>>%%%@&@O&,;@@+X   ",
"  .XoOoO%%%%%@>@@@@@@Xo;@$+   ",
" .XoOOOO+%%%%%@@@&$$&@$==$O.  ",
" .oo+OOo$%%%%@@@=#$+$#@$##+o. ",
" XoOOO+%o$$$##&&#+++++@:#&#O. ",
".XooOO%$%%%$$#+&&$+++O+#+@@%. ",
".ooOOO%%%$#$$####$$$+Oo+%%@%o.",
"XooooO&%%$+O#==+OX>O%@@@@;;@O.",
"XooOOO%%%%%%@@@%%@@@@$++##;:O ",
".oooOO%$$%%%@%@@@@;;;&#+#o;:O ",
".XXoOOO%$%%%%@&@@@;;,;@$#.;:O ",
".XoOOO$+$%%%###++:+$&;;;&#+&O ",
".XoXOOO$&+#@@;#+%@@#:#+;&@O#o ",
".XooX+O$#+&:@#>%@@@;;&:;:@@%. ",
" XooO+o++%%@%$>%%@@;@#&;=,:%. ",
" .ooOOO%&&%$$$%%%@;#&#&;:#&+. ",
" .XooooO&%%#%%%@@;@#&+;@&&$X  ",
"  .oo+$%&%$$%;@@@@;#&$;;@@O   ",
"  .Xoo+%&$>-%@&@@;;$&$=;@%.   ",
"   ..oO+%%>%%%;;@;#$=&:&%.    ",
"     .oOOO+%%@;@:#+O$&&+X     ",
"      .XoO+$%;@&$O++++O.      ",
"       ..oO+$@&#$+++o.        ",
"          .XO++OOoX..         ",
"            ......            ",
"          .XooOOOo...         ",
"       ..oo+$$$##$+OO.        ",
"      .XoO+$+$+&&&$$++O.      ",
"     .XooOOO:#>o+@O>+$#O.     ",
"    .Xooo#+%@$%%.%%%o&&#O.    ",
"   .XoooO+#@@%>>>%@%@&,&@O.   ",
"  .XoOOO$++O@;%%%@>>@@@@%%O   ",
" .XoOoOO%&$$$&%%%@%@@&$#@$+.  ",
" .XoOOOO#$%#$&&%%@@@@=$+$&$o  ",
" XoXoOO$#$$#%o&&#:#&&#+++##O. ",
".XooOO%%%%%##@@@###+&&+++O$O. ",
".ooOOO%%%%@@%%&&#$&###$$+Oo%O.",
"XoooOO%%+%%:@;&+O:=@=OXO%@@@%.",
"XooOOO%%%%%%%@@@;;@@@%@@@$+&#X",
"XoooOO%%%@%%&#@@@@@@@@@;;&+&#X",
"XoooOOo$%%%@%#%@@@@&&@@;,;&:#X",
".oOOOo#$#%%#$$@@@:&&#+:$&;;&$.",
".XOooooo#$$$#:$:;;;@#%@#:#;#O.",
".Xooo%OO+$$&##;,,;&>%@@;;:@+. ",
" .ooo+o+&&+O$$;;;@$>%%@;@+@O. ",
" .XoOO+O+%+#@:;@##$%%%;#&#@o  ",
" .XoooOO$+++::@&#@@%@;@#+@%.  ",
"  .ooO%+$+#$:;##%@@@@@;$&@o   ",
"  .XoO%O+&#%@&>->@;@;;#&&+.   ",
"   ..oOO++&@@%O%@@;@;#&&+.    ",
"     .oOOO%%@$@@;;@:#$$+.     ",
"     ..Xo++%@@@@;@##++o.      ",
"       ..oO+%$#&&#+Oo.        ",
"          .XOO++++X..         ",
"            ......            ",
"          .XooOOOo...         ",
"       .Xoo+$$$$$$$$O.        ",
"      .XoO+++$#$+$#&#+o.      ",
"     .XooOOO$=XO?#>%#$+o.     ",
"    .XoOooO+$&#;;:%%.@+++X    ",
"   .Xo+o-%++O&=:;;@>>>@@@+.   ",
"  .XooooO%%%%:+$o:;@%%@>@$o   ",
" .XooXoo%%%%%%=&#:=@%%%@@#O.  ",
" .oooooO$%%@%&&&@&$@&%@@@=$o. ",
" .oOoO$X%%%+$&:##&@:&&:#&##O. ",
".Xoo+OO%%%%@@;;;@&&@@@##+&$O. ",
".oo+XO%%%%%@@%@;;;@@@&#&##$+X ",
"XoooOO%$%%%@@@+@;?;;;+O=@+X+O.",
"XooOOO+$%%@%@;@@@@@@;@;@@%@@O.",
"Xooooo+$%@%%@%;;;@&:#@@@@@@@+.",
"XoooooO$%%$+O&;;;;@##@@@&@@@+.",
".oOOOO++%%O+&#:@@&##&@@&&+:@%.",
".XooOO+%%++#$o:&##&:=:;;@+@#%.",
".Xooo$O$#%+#$+#:#=&$;,;O>@@$X ",
" XoooOO++#++$#,:$o$;;;@o>%@$. ",
" .XoO+$+$+#$$O@&+:;,;@#O%%#O. ",
" .XoXXo++%%@$#+++;,;&#@%@@$X  ",
"  .oo++&+%%%$:#:&;;;#%;@@@+   ",
"  ..oO$+%%%%$&#:;;&>>%;@@+.   ",
"   .XoOOO%%%$$=;;@>%@;@@+X    ",
"    .XoooO%%#%;;;#@@;@@+.     ",
"     ..XoO+%@@;;@&@@@+o.      ",
"       ..XO+%@####%+O.        ",
"          .oOOO++OX..         ",
"            ......            ",
"          .XOOOooo...         ",
"       ..XO+%$$$$$+OoX        ",
"      .XoO+$$$$+##$#$+o.      ",
"     ..XoO+$OOO$+OO?#$$o.     ",
"    .Xooo++OO+++X=#;:%%+o.    ",
"   .XOOOO+$OO%$+o=+:;;@>%O.   ",
"  .XoOOoO#+O+@@@@@:+o:;%%%O   ",
" .XoOOOo$oO+%%@;;@?=#:=%%%+X  ",
" .Xo+OOOO++$#&@;;@&&&@$@&%$o  ",
" Xooo+%%$$$Oo;;;+#&:##@:&##O. ",
".XoXOo&%&$+@@;@@;;;;;@&@@##O. ",
".oXoOO##X$@@@@@@;;@@@;;@@&$$o ",
"XooooO+#%%%%#&@;;;@#+;?;;+:@O.",
".XXOOO++%%#$#&;;;;;;@@@@;@;@%.",
".X*XOO%%+$$$&#;;@@@;;;@:#@@@%.",
"..*XOOO%%++$#&@#+o&@;;;##@@@%.",
".XoOOO%%%$$$$#@o+=&=:@&#&@:@+.",
" Xo*oOO%%$&:%@+$&$oO:##:=:;@o.",
" .XXXOO$%$$$##@$&$+#:#&$;,@%. ",
" .XXXOO%+$$+$#=$+##,:$$;;;$O. ",
" .XXOO$O$##+$#&:#$O@&+;,;#%O. ",
" .XoooOo$$+$$%@;##@++;,@#@@X  ",
"  .ooO%++++&$@@;%$=#&;;#@@%   ",
"  ..oO$$$$:$%@@@%&=:,;+>@%.   ",
"   .XOOO%%$%%%@@##=;@>%@%.    ",
"    .XoOOoO%%%;@&;;;#@@%X     ",
"     ..ooOO%%@;;@;;@@%O.      ",
"       ..XoO$#@@##$+o.        ",
"          .XO+++Oo..          ",
"            .....             "};
