/* XPM */
static char * r010_xpm[] = {
"30 480 19 1",
" 	c None",
".	c #404040404040",
"X	c #505050505050",
"o	c #606060606060",
"O	c #303030303030",
"+	c #707070707070",
"@	c #808080808080",
"#	c #909090909090",
"$	c #A0A0A0A0A0A0",
"%	c #A0A02020B0B0",
"&	c #808010108080",
"*	c #C0C080801010",
"=	c #B0B0B0B0B0B0",
"-	c #D0D0D0D0D0D0",
";	c #F0F03030F0F0",
":	c #D0D090903030",
"?	c #E0E0E0E0E0E0",
">	c #C0C060600000",
",	c #D0D0B0B04040",
"           .XoooXX            ",
"        O.Xo+@@@@@+oX         ",
"      O.Xoo+@@@@@@#$@oX       ",
"     OXXo++@@@+@@@#$#%+X      ",
"    O.Xo++@@&#+@@@@@@%%%X     ",
"   O&&&+@#@%@+@@#@@+@@%%+X    ",
"  O.X&&@+@+%&+###@@@###%%o.   ",
"  .Xoo&+#&%&%o+@@@$$$#$%%+o   ",
" O.XXo&o%%&*&o+@@#$$###=##@X  ",
" OXXXo&&&%*&##@########&#$#o  ",
" O...o&&%&$$$#@@@@@$=--$#$$o  ",
"O...Xo&&#$$$#@++@@@#$--$##$+. ",
".XX.XX&&$@$$#@++@++@#=%=$##@X ",
".XXX.o&*@$$$##@++o+oo@;=$$#@o ",
".ooXXo&&$@$=$#@@+++Xoo+&=$##+ ",
".ooooX&&@$$==$@@+o+oooo&&=$#@ ",
".&&+o+o&*@==##@++@+@+oo@;&##@ ",
"OX&&++o&&&==$$@@##++++++@;%#+ ",
" .Xo&&+o&%$$$##@@++++++@@+%@  ",
" .XX&&+X&&#$$=#@@@+++++@@+@@  ",
" O.X&&++o&&#=$#@@@@#@#@o+++o  ",
"  .XX&+++@&&$=####@@@+o+@+o   ",
"  OXXXo++#&&$=$$##@+++#@@+&   ",
"   .XXo+o$&**==$$@@++@#@+o    ",
"    .XXoo%&**==$@@@@#@@+X     ",
"     OXXXo+$$$##@@$$#@+X      ",
"      O.XXo+@#@@#$$$@oX       ",
"        O..o+@@@#$@oX         ",
"           .Xooo+o            ",
"                              ",
"           OXXoooX            ",
"        O.Xo+@@##@+oX         ",
"      O.Xoo+@@@###@@++X       ",
"     O.XXo+@#@###@@+@#@o      ",
"    O.XXo+@#####&&++@@@+&     ",
"   O.XX&&%&$==##%#o@##@@+&    ",
"  O.X&&++&&&==#@%;+@##@##@X   ",
"  .X&&oX+#&&=#%%&*o+@@#$$$@   ",
" OXXXooX+@&&&#%%%:%++@#$$$#o  ",
" O&X.XXoo@#&&&%&*%$#@####$$@  ",
" .XXXXXoo+#&%%&$===@@@@#$==#  ",
"OXX.XXXoo+@%&%$==-$@@+@@#-==+ ",
".XXXXo+ooo@@&%===-$@++++@$$$@ ",
".Xo+Xo+@ooo+&*-=--$#+oooo+@$@ ",
".Xoo+++++o+@&%=---=$#+oXXo+@+ ",
".XXoo++@+@++%&--=?-=$+ooooo++ ",
".X&&&&&&$+$@@%*==-=$#++++++@+ ",
"OXooo+&&&$$#@%&%=--=#@#++++@o ",
" .oXXo++&&$$@+%&=?=$#@+++++o  ",
" .XXoooo&%$$@+&&$=-=#@+++++X  ",
" O.XXXo@&&$$#+&&&$-=#@@@@@+.  ",
"  .Xoo+o+&&$#@#&%:--##@@@@o   ",
"  OXoo+oo&&#$$$&%:=-$#@+@+X   ",
"   .Xoo+X+&&#$=%:*--$#@@+X    ",
"    .Xo+++o%%%%***?=###@o     ",
"     .Xooooo+@#=-=$####o      ",
"      O.Xooo+@@$=$###@o       ",
"        O.XXo+@#$$@+o         ",
"           OXoo+++            ",
"                              ",
"           O.Xoooo            ",
"        O.Xo++@###@+o         ",
"      O.Xo++@@######@+o       ",
"     O.XXo++@@#$=@##@@@o      ",
"    O.XXoo+@@##$-$##@@@+o     ",
"   OXXXXo@%%%%%====#;#@@@o    ",
"  OXooXo&&&##$%%-?=#;;+@#@o   ",
"  .oooo&&&@+@#%&%=&%&:o+@#+   ",
" OXooo&>&@++@@$&%%=;;%%+@##o  ",
" .&&&&&ooo+@++$$&&&;&:$#@##+  ",
" .XXX&Xo++++++@$&%;&=-=@@@##  ",
"OXXXXoXo++++++@#%%%;=--@@+@#+ ",
".XX.Xo+o+o##@++@@%;%?--@+++@+ ",
".XXoo++$+@@$#+++@&*:??-#+oo+X ",
".XXo+++@$+$$$#+@@&%:???$#+ooX ",
"OXXXoo+++$$===#@+;&:???=$+ooX ",
"OXX&&&&&&&&&&===#@;&:??$#+++X ",
"O.&>+@+#+@&&&&==#@%;&??=#@@+. ",
" .Xoo++o+##$$&%==#@;&--$#@+o  ",
" .Xo+ooo+@@$#&&==#+&&=-=#@+X  ",
" OXooXo#++@@#%&==#+&&&-=#@+X  ",
"  .Xoo++#@+#+%%===#$%:-$#@o   ",
"  OXoo+++@+$+@&$=-==%:-=#+X   ",
"   .Xoo+o#$$+@&%-==%::=$@X    ",
"    OXo++$+#+@&%%%%:,==#o     ",
"     OXo+++@+++@##===$#+      ",
"      O.Xo+++++@@#==#+o       ",
"        O.Xoo+@##@@@X         ",
"           .XX+++X            ",
"                              ",
"           .XXoooX            ",
"        O.Xo@@@@@@@@o         ",
"      O.Xoo+@@@@##$#@oX       ",
"     O.XXoo+++@##@$$#@@o      ",
"    OXXooo+++++@$$$==$#@o     ",
"   O.ooo+#@@@#%%%%&-?-$#@o    ",
"  O&&o++++++&%&$$=&%??=#@@X   ",
"  .X&&>+$@@#%&#@@@=%%-&;#@+   ",
" OXX&&@+#@&**&@@@@@=&%=;%@@o  ",
" .ooX&&&&&&#@+@@@@+==&&;&@#+  ",
" .ooXoo+*&@o+@+@@+o#=&;&==$+  ",
"OXXoXoo+#@+++@@+@++o@;%;=-$@X ",
".XXo++oo++##@+##$#+++@%%?-$@X ",
".XXoX++@+$$$$$##=$@oo@&:??=@X ",
".Xoooo++$+$=======$@+@&:??-#X ",
".Xooooo++##$$$=-=?==#+;:??-$X ",
".XXoXX&&&&&&&%&%%%-=-#@&:?-#o ",
"OXXXo&>*@$$##$#&&&&%-$@;&?=@X ",
" .XX&&>@@$#@@#$$=-&%--+;&==+  ",
" .XX&>+++#@##$##=$&&--+&&$$o  ",
" O.XXo+#oo@@$#$###;&--+&+$$X  ",
"  .Xo+@+@@+$##=$@+&%-=#&@$@   ",
"  .XXo++o@+$##==@+&&---#:$o   ",
"   .Xoooo#$$##==@@&%=-=$$+    ",
"    OXo++@+$$#=$@@&;#$=$+     ",
"     .Xo+o+$$##$@++#$=$+      ",
"      .Xooo+@#@@++@@##+       ",
"        ..Xo+@@@@@++o         ",
"           .XXo++X            ",
"                              ",
"           .XXo+oX            ",
"        O.Xo@@###@++o         ",
"      O.Xoo+@@###@@@@+X       ",
"     O.XXo+o+@@@+@@###@o      ",
"    O.Xoo+@+@@@@+++#$$$#o     ",
"   O..&&>$@@$$#@@##;;;#$#o    ",
"  O.X&&&>$$$##+@#&&&==&#$#X   ",
"  OXo+oo&**$=##$%%%#+@=&#@o   ",
" OXooooo&&$$$#$%*:%@++@=@%%X  ",
" .ooXoooo%&&&&*%$@+++@+==%%+  ",
" .ooo+++@@##$*#@+@@+++o#=%%+  ",
"OXXooo++#####$#@@+@@@++o@;%#o ",
".XXo+o++$+$@++#$$#+@#$#o+@#=+ ",
".Xo+o++#+#$##====-$$#-$oo@$=@ ",
"OXoXo+++@o@$$===--=----@+@#=# ",
"OXXXXo+@+@@##$$$=-$=-??=#+@$@ ",
"OXXoXo+++o@&&&%%&&;&&%%--#%#+ ",
"OXXoXoo++&&**===$$==$&&%-$%%o ",
" .XXXXoo&&*$==$###$==-&%-$#@  ",
" &XXooo&&*$=$=##$$=#$-&&-#@@  ",
" O&XoXo&>@$$$@@#$$=$##;&=$@+  ",
"  &&oX+>*$@$##$===$-@+&-==#   ",
"  OXoo&>>$+$@#===$$-@+&$-=@   ",
"   .Xoo>>$#@##===$=-+@%$=#    ",
"    OXXo+$+@@$===$-@@+%##     ",
"     OXoo+@$@@==$$#@+@@+      ",
"      OXoo++@@$$##@++oo       ",
"        OXXo+@###@ooX         ",
"           .Xo+++o            ",
"                              ",
"           .XXo+oX            ",
"        O.Xo+@####@oX         ",
"      O.Xoo+@@@@####+oX       ",
"     O.XXo+++@++@@#@@@@o      ",
"    O..Xoo@@#=#@##@+@@#@o     ",
"   O..XXo+&&*==##==#@##%@+    ",
"  O..XX&&&&&&*====#@@#;%@#+   ",
"  O.XX&&$$#@#&**==$#=%%##$#   ",
" O.X&&&+$@+@@#%*-?-$=%:$@##o  ",
" .X&&++++#@@@@%%&&%%:%@o+@@o  ",
" .&Xo+o+$$$$=$@$$$=%$@+@+++o  ",
"OXXoXoo+$$##$=$$$$$==@+@@+@+& ",
".XXXoo++$+@@#====#+@@==++$@+o ",
".XXoX++$@$$@#$$$==$----=$$$@o ",
"...Xo+++@+#$$=##$==??-?---=#X ",
"...Xooooo+#$==$##=$===-==?=$o ",
".XXXX+oo+o@##$@+@&&&%%&;&%#$% ",
"OXX&o+o+o+@@@@#&%*:??-===&%%& ",
" .&&X&+oo+@+++&**?--=$#==$%&  ",
" O&&&&&oo@@@@%**---=$$$$#=#o  ",
" O&&&X>#+o@#%&---==@@#==$#%X  ",
"  .&&>&+$+o#**====##--#-#@+   ",
"  O&&Xo++++&**===$#$--#$@+o   ",
"   .XXo+o+@&*$=$#$$-=$=#@o    ",
"    .Xoo+@o**==##$---=$@o     ",
"     .Xoo++@$$$=##--=#@o      ",
"      O.Xo++@#$##$$$@oX       ",
"        O.Xo+@####@oX         ",
"           .Xooo+o            ",
"                              ",
"           .XXoo+o            ",
"        O.Xo+@@#$#@@o         ",
"      O.Xoo++@@@#####+X       ",
"     O.Xooooo++@##@@@@+X      ",
"    O..Xoooo+@##--$+##@@o     ",
"   OXXXXoooo+@&%%-?$=-#@@o    ",
"  OXXXXooo+&&&%&&&:?-=##@+o   ",
"  OXXXXX+&%&==$###%:--$$@@@   ",
" OXXXXoX%%&$$$#@##=%:?-$##@X  ",
" .XoXo&&&$$###$####;;&%%:#@X  ",
" .&XX&&@$$##==$====#$==%$@+o  ",
"O.XXX>+@#@@#$==$$-=-==$==@@+. ",
".XX&++++@+##$==#@$--?-#+@=#@X ",
".XXXX+o@+##$$===$$$=$-=----$o ",
".XX.Xoo+@+$$##$$====#$-??---@ ",
".XXXXXXo+###@#@$=?--=$======# ",
".XXoXXoo@+#@@#@##$=$@@&&%%##@ ",
"OXXooo&&+#@@@#@##@@#$%:??-#@X ",
" .XXX&&&>&#@@@@#@+@&::?-==$+  ",
" .XX&&&&&&&#@#####;::?-=$$#&  ",
" O.X&&&&&>*&$#@#$%%???=@$$#&  ",
"  .X&&&&&*&&$@#$%:??-=#===@   ",
"  OX&&&&&&+$#@#&%:-?-$#--$o   ",
"   .XX&>>$$$@@#%:=-=#$--$+    ",
"    .Xooo@+#@@&*---@$--$+     ",
"     .oooo+$#@#$=$=$$=$o      ",
"      ..Xoo+###$==$$#@X       ",
"        O..o@##$$#@+o         ",
"           OXo+++o            ",
"                              ",
"           OXo+++X            ",
"        O.Xo@####@@+o         ",
"      ..XXo+@@@@@@##@+X       ",
"     .oXXo+@oo+++@@##@+X      ",
"    .Xoooo++o++++@#$$$#@o     ",
"   O&ooXo++oo+++@@;%:?$$#+    ",
"  O.&o+ooooo+++%%&%%&&:==#&   ",
"  ..&>+o+ooo++%&%--=##%:=$+   ",
" O.X&>+X++++@%&%---#@#=%$$@X  ",
" .XX&&+++@%&&&-=$$$$###;;#%o  ",
" .XX.&>+#&&$==$$$=----=#$#@+  ",
"O....&>>***===##$----=--==$#X ",
"OXX.XXo&$@$$##$$$-?--@$??-$#+ ",
"OXXXXoo++##@@#$$=-=?-$$=$-==@ ",
"OXX.XoXooo+@###==$$$=--=#$--# ",
"OXXXooXooo+@@#$$###@@-?-=$$=@ ",
"OXXXXooo@o@++@=####@@$=$@@@#+ ",
"O.XXo+o@o+&%&$$#@@#@@#@#$%$$+ ",
" .XXXX+oo%%%&*$$##@@#@+&:==#  ",
" .XXoXoo&%%%&%%%$##$$#;::--@  ",
" OXXoXX+&&&&%&**%$$@#=%?-=$o  ",
"  .Xo+&&&%&%&*%%=-+#%:??-$@   ",
"  OXooX&&&&&&*$===@$%:?-=#o   ",
"   .XooXX&&*&$==$@@%:-===@    ",
"    .Xo++#&&%#$$#@&:===$@     ",
"     .o+++o+o#==$@$===#+      ",
"      .Xoooo+#$=$$==$@o       ",
"        O.XXo@$=$#@+o         ",
"           .Xo+++X            ",
"                              ",
"           OXo+@+o            ",
"        O.Xo@#$$$#@+o         ",
"      O.ooo+@##$#@@@@+o       ",
"     O&&+++o++#@o+++@@#+      ",
"    O&&&+@+oo+@@ooo+@@##+     ",
"   OXX&>+$@+++++++oo+@+##@    ",
"  O.XXX&>$$@++++++o+;&%%@$+   ",
"  .XXXX&&*$$+++++@%;%?-$#$@   ",
" OXXXXo&&*$@@++@@@;&%?-###@o  ",
" .oXXXXo&&=$$#@%&%%?-=$$#$#%  ",
" .oXXoXo+%**=$&%=-?-==---=$@  ",
"OXXXXoXo+&&*****-?==$=---==$o ",
".XXXoooo+o@@&%====$$==-?-@--@ ",
".XX+o+ooo@+++@$$##$$=--?-$==# ",
".XXo++Xo+o+@+++@#$$$$-$$=--=# ",
"O..o++oo+#@@@++@@#$$=$#@@--=@ ",
"O..Xo+oo#+@+@#@@+@@$-##@@$$$+ ",
"O..Xo+o++@#@@#@%%&===@@@@##$+ ",
" ..XXo+oo+#@@@%%%%*==$@@#@##  ",
" .XXoo+oo+@@@%%%%%%%%=#$$#$@  ",
" O.XXXo$+o++@%&&&%%::%$@#$$+  ",
"  .XXo++$#&&&%&%%%:%--+=$=#   ",
"  OXXoo++#o&&%&&&%%=-=@@$=+   ",
"   OXXo++$@+&&%*:==-#@#$=@    ",
"    OXo+@$@###&&#$=$#@$$@     ",
"     OX++@@$@@++@=-$$$$+      ",
"      OXo++@@@+@$--=$#+       ",
"        .XXo++@#$=#@+         ",
"           .XXo+@+            ",
"                              ",
"           O.Xo+@+            ",
"        O.Xo++@$==#@o         ",
"      O.Xo+@#@@@#$$#+oX       ",
"     O.X&&%*$$+++@@++++o      ",
"    O.X&&&&*==@+oo@+oo+@@     ",
"   O.Xo+++%&$==#@@++ooo@#@    ",
"  O.Xo++ooo+&*==#@+oooo%%#X   ",
"  .X&+oo@+oo%&*==#+ooo+;%#+   ",
" O.Xo++o++o+@%*-=$@+++@;$=$o  ",
" .Xoo+o+o@+++@%*-=-$@;%??==@  ",
" .XoX+++##@+++%%**-&&%?----$  ",
"O.Xoo+++@@@@+++&%:*:::?-=$--@ ",
"OXXXoo++@o##@+@+@#&%?--$$=--$ ",
"OXXX.o+$+$$#@+@#@+@@$=#$$=--# ",
"OXX.XoX+$+$#@+@#@@@oo+#$$-==# ",
".XXXXXXo@$$#@@$$#@@+++@$$=$$# ",
".XXX.Xoo#+=$@@$$@@#$#@+@$$##@ ",
"O.XXXoo+o#$#@@#####$#%;==#@@X ",
" .XXXXooo+$$#@@#$$#;;;%%=$#+  ",
" .XXooXXo@#$$$+@###;;;%&%##o  ",
" OXXX.o@o+@#=$@@@@@;&&%:#@+&  ",
"  .Xoo+++@+@#=$%%%;;;;:%$#+   ",
"  OXooo+o@o@#=$@%%%&&&:$=#o   ",
"   .Xoooo#$$$$=#@&&%:%$$$@    ",
"    OXX+@@+=$===$$&&#$=$@     ",
"     O.X++@$$$=-$#++$=$@      ",
"      O.Xo+@#$$$#@@#$$+       ",
"        O.Xo@###@@+@+         ",
"           .Xooooo            ",
"                              ",
"           O.XXo++            ",
"        O..o+@@@#$##+         ",
"      O.XXo+@@#$$##$#+X       ",
"     OXXXoo&&&*-?#@+@@+X      ",
"    O.XXoo&&&&%*??@o+++oX     ",
"   O.XXoo&$$@+%&*-?#o++ooX    ",
"  O&XXX&&$$$@+++&%:?#@+oooX   ",
"  .XXXX&*$#@#+++@%::-#+o+@@   ",
" .XXXX&>$$@@@@++@@;:?-@+@@$@  ",
" .XXXo&@+$###@@@@@@%:?-$@#=#  ",
" .XX&&>+#$$$$$##@@o;%:-&&$-$  ",
"O..X&>++$$$$$$##@++o+%::::--@ ",
"O.XX>++o@o#$$$#$$@+@@@#%?-==# ",
"O.X&X@++o++@$===$@++@@+@$=$=# ",
".XXX++Xo+oo@#===$@@+@@@oo+#$@ ",
".&&X+oXoooo+@=-=$#@@=#@+++#$+ ",
"O&&+XXooooooo@===#@#=@+$#@@#+ ",
"O&o+Xoo+oo++++$=$#@#$$#$#%+@o ",
" .ooooo+o+ooo+$===#@$=#;;;%o  ",
" .XX++ooo@+o+@$$===+@##;;%%o  ",
" O.Xoo++oo@@#@$$$=-@@@@;%%@X  ",
"  .XX&>@$@+#@@###=-=%%;&%%+   ",
"  O.XX>@+#+#@####===%%;%%+X   ",
"   O.XX&>$$###==-=-$@&%@@o    ",
"    O.XXo&@=$@=---?=#%+@+     ",
"     O.Xoo+#$$===--$#@@o      ",
"      O.Xo+@#$$=--=#@+X       ",
"        O.Xo@#$$$#++o         ",
"           .Xo+++o            ",
"                              ",
"           O.XXXoX            ",
"        O.Xo++@@##@@+         ",
"      O.XXo++@@@#$=$#+X       ",
"     O&Xoo++@@&&&%==$@+X      ",
"    O&&&oo+@@#&&&&%?=$@o.     ",
"   O&&&Xo+@@@&==$@+&-?$@+.    ",
"  O&&&&oo++@&%==$@oo&%:$@o.   ",
"  .X&XXXo++&*=$#$#+o+;:?$@o   ",
" OXXXXoX++&&*=$$$#@oo+;:=$@&  ",
" .XoXXXoo@&*=$=$$$#@++@%:$#%  ",
" .XoooXo&&*$=$$==$==#+o;%##@  ",
"O.XoXXXo&*$$$$===-$$$@+o+%@$+ ",
"O.XXXXo+*@=$@@##=-=##$@@@@@$@ ",
"O.Xo.o&&>$$@++@@$----=@+@@@#@ ",
"OXXXXo&>$+@+++++@$=?-=@+@@@@+ ",
"OXXXXX&>+@++@++++#=??=#@=#@@+ ",
"O&&+&&>@@oo+++++++@$--##=@##+ ",
"O.&&&>@$ooo++++++@+@==##$$##o ",
" .XX&&>@+#@@#@@++o@$--#@$$#+  ",
" O..X&>+@$@@@#@++@@==-=+@#%%  ",
" O..X.&*>@$#@+@####=$=-@@@%&  ",
"  O.XXoo%*>$$##$#@$$$=-;%%+   ",
"  O.XXXoo&>*$=$$##$#$=-#%%o   ",
"   O.XXXX+%&===$$$=----#@o    ",
"    O.XXo+o&&*=-$#-??-=#+     ",
"     O.Xooo+@&$=-$----$+      ",
"      O.XXoo+@#$=---=#+       ",
"        O.Xo+@#$$$@@o         ",
"           OXo+++o            ",
"                              ",
"           O.XXXXX            ",
"        O.Xo++++@@@@+         ",
"      O.Xoo++++@####$@o       ",
"     OXX&&o++++@#$+%%$$o      ",
"    OXX&&&&oo++@#$&&%#==+     ",
"   O.X&&&*#@o+###&%-#+$=$+    ",
"  O.XX&&&&&+o+@#&&--$@o@##X   ",
"  OXXo&&@++++o@&%*-=$#+o@#+   ",
" O.Xoo&o+++oo+#&%:?=$$@o+@@X  ",
" .XXX&&++++++@&%*---==#@++@+  ",
" .XoXoo+$@++@&&*===---==#@@+  ",
"O.XoXoo+++++@&*==-$----$$@@@o ",
"O.XXooo++o+@#%===#@##--##$@@o ",
"O.X&Xo+@oo+&&*-=$++++$---=@@o ",
"O.X&o+o++o%&**=$@@@+o@$?-=@@o ",
"O...&oo+o+&&*=$@+@@oo+#??=##o ",
"O..X&&&+&&&*==@++@++ooo=--$$+ ",
"O..XXo&%&*===$+++@+oo++@==##o ",
" ....Xoo&&*$=$#@#$#+oo+$-=#+  ",
" O..XXXXo&**==$####@+o@===#%  ",
" O.XX.X+oo%&**==$@+@###===#&  ",
"  .XXXoo++oo%&*==-#$$@$$==%   ",
"  O.XXooo+oo@%**=-$=$#$==$&   ",
"   O.XXXX+++o+%&:--=$=--=o    ",
"    O.Xoo+o@+o@&%*?-=---@     ",
"     OXooooo+@+@&$-----@      ",
"      OXXooo+@@@#=--=$+       ",
"        O.XXo+#$$$#@+         ",
"           O.X+@+o            ",
"                              ",
"           O.XXXX.            ",
"        O.Xo++++++ooo         ",
"      OO.o++@@@+@@@##+X       ",
"     O.XXoo&&@@@+@@##+oo      ",
"    O.XXoo&&&%&@oo+@@%%@@     ",
"   O.XXXo+&&%%*$@++###%#$+    ",
"  O.XXXoo@%%&%&&@oo+#&%=$@X   ",
"  .XXooo@@#&%#@@@+o+&%?=$@X   ",
" O.Xoooo@@*&#@@@@oo@#&:-=$@&  ",
" .XXXoooo@@&##@@@@+$&%?--=$o  ",
" .XXXoo+$@@#==@@@@@&%:----=+  ",
"OXXXXo++@@@@#=@+@+#&%?-=---#X ",
"....Xo+&#+@@@#++@#$%:?-@#$-$o ",
".X.X.oo%+@@@##++@&%::-$o+@==o ",
".X..XoXo&+####+@%%*:?$+++o$=+ ",
".X..XXXo&&####@@&%*?-@++oo#=+ ",
".XXX.Xoo+&&&&=&&%*?=#o++oo@#+ ",
"O.XoXoo+o+@%%%%*=-?=@o++o++@X ",
" .XX.Xooo+@+++%**?-=#@$@++@+  ",
" .XXXXXXo+++o+&%**?-=$##@@#@  ",
" OXXXXX+oo++++@@%&:?--@+@#$+  ",
"  .XXXoo+oo+@@++++&:??$$$$$   ",
"  OXoXXoo@+@@@@@++%&:?-===@   ",
"   .oXXXX+@@++@@++@;:?--=@    ",
"    .XXXo@o@+@+@@@o&@=-=#     ",
"     OXXo++++@++@@@+#=-#      ",
"      O.Xo++++++@###$$@       ",
"        O.Xoo++@##@@+         ",
"           O.Xo++o            ",
"                              ",
"           .XXXXX.            ",
"        O.Xo@@@+++ooX         ",
"      O.Xoo+@#@+@@+@++o       ",
"     OXXXoo+@@%%%@+++@@X      ",
"    O.Xooo+@@@%%%;&o++@+X     ",
"   O.XXXo+++@@%%%%:=+o@@+X    ",
"  O&XXooo++@@#%%&&%&+oo+@@o   ",
"  &&XXXX+@@@#@$%*%@@+oo@@$@   ",
" O&&XXoo@@@@@@$*%$#@@+o@@#$o  ",
" .&&Xoooo@@@@@&#&$=@+++$&$=@  ",
" .XXXXXo+@#$==##$=-#++@&%=-#  ",
"OXoXXXXo@@$$$=###===@++&%?-=+ ",
"OXXXXXoo+o##&$####$@++#%:?=$@ ",
"OXoo.ooooo++%&$#$=$@o@&::-##@ ",
"OXooooXXXooo+%$$$$$#+;%:?$@#@ ",
".XoooXXoooooo+&$$=$#@&%?-@+@+ ",
".oooXXoo+o+oo+%&&%-$&%:-#o++o ",
"OXo+ooo@o+++++@#%%;&%??=@o+o. ",
" &&oXoooo+++++@@@+@%::?=#@@o  ",
" &&X+oXXo+++++@@@+o&%:?-=$#o  ",
" O&XoXX+oo+@@@+@@@++@;:?-$@X  ",
"  &Xo++o@+o@+++++@@+o+&:-=+   ",
"  OXXoooo+o+++#$#@@@o+;$-=o   ",
"   .XXooo++++@##@@@@oo@:=@    ",
"    OXo+++o@+@#@#@+#+++#+     ",
"     OXoooo+#$@@@@+@@@++      ",
"      OXXoo+@@@+++@##@+       ",
"        O.Xo+@@@@++++         ",
"           .XXo++o            ",
"                              ",
"           .XoooX.            ",
"        O.Xo+@@#@+o+X         ",
"      O.Xoo+@+@##@+@@+X       ",
"     OXXoo+++@@#$%%%%@+o      ",
"    OXXoo&++@@@@#@;%%%++o     ",
"   OXoo&&o+@@@++@@%%;%+++X    ",
"  O&ooX&&+@@@@@####;&&%+++X   ",
"  .&&&&>&+++@@##$#$=:%@@+@@   ",
" O.&&&&&o+++@######=:%#@+@#@  ",
" OX&&&>++@@@@@#####&#&=@++##  ",
" .X&&&++@+@@@@#$==-$#$-#+@@@  ",
"O.X&X++++++@@@#==-=$##==@+@@o ",
"OXX&+++++o++++##$%=$$##@++##o ",
"..X>o@+@o+ooo+++@;&=$$=@o@##o ",
".XX&+@++@o+ooo+++@%&=$$#+;#$+ ",
".XX&+++@+++oo++++o@&&==#@&$$+ ",
".XX&X+@+@o++++@++++@;&%=&%=$o ",
"OXX&&&@$o+@@@++++@++@;;&%?-#X ",
" .X&&&+++@@++o@+++@@@@+%:==@  ",
" .XX&&o++#++++++@@+@@+o&%$=+  ",
" OXXX&&$++++@@#@#@@o+++++##o  ",
"  .&oo&>$$+@@@@#@+o++@@o+@@   ",
"  OXoo&>+$+@@@+@++#$#@@++@+   ",
"   .Xoo>>$$#@@++o@##++@+++    ",
"    OX&o>*@#@@@@###@@@@+o     ",
"     O.Xo+@@+@@#=$@++@@X      ",
"      O.Xo+++@#$#@++++o       ",
"        O.Xo+@###@ooX         ",
"           OXXoo+o            ",
"                              "};
