/* XPM */
static char * r011_xpm[] = {
"30 480 26 1",
" 	c None",
".	c #303030303030",
"X	c #404040404040",
"o	c #505050505050",
"O	c #606060606060",
"+	c #707070707070",
"@	c #808080808080",
"#	c #909090909090",
"$	c #E0E0E0E0E0E0",
"%	c #A0A02020B0B0",
"&	c #505090909090",
"*	c #A0A0A0A0A0A0",
"=	c #D0D0D0D0D0D0",
"-	c #808010108080",
";	c #B0B0B0B0B0B0",
":	c #6060B0B0B0B0",
"?	c #7070E0E0E0E0",
">	c #C0C080801010",
",	c #30304040D0D0",
"<	c #10101010A0A0",
"1	c #F0F03030F0F0",
"2	c #F0F0F0F0F0F0",
"3	c #D0D090903030",
"4	c #000000008080",
"5	c #50506060F0F0",
"6	c #C0C060600000",
"           .XoOOoX            ",
"        .XoO+@##@++Oo         ",
"      .XoO++@#####@#@@o       ",
"     .XoO++@@@#@$@@@##%o      ",
"    .XooOO&@@*&##=@@##%%X     ",
"   .Xoo--O&&@&#@O;*O:?#%-.    ",
"  .XXoO--::&#&&*;=@O&:##%-.   ",
"  .oooO---:%%->+++O&::*#@@O   ",
" .ooooO---%%-%>@++O&&#*###@o  ",
" XooooOO--%%--@&&::&@####*#O  ",
" XoooooO++&&&&,O&&:##*:??::+  ",
".XoooooO&&&&&&+,O&&::::??:#@o ",
".XooOOOO&&&::&&+,&,<,:::-:##O ",
".XoOOOO+---:;;&&O,&&:?:*1:*#O ",
".XooOOOO---:;;:@+,,<&?:+#-##+ ",
".ooOoO+O---:;;:#+OO,&:?++%@@+ ",
"Xo---OOO+---:;:*+O&&&:?O##+%- ",
".Xo---OOoO%-%:&#,,O&&:O2#O@%- ",
" XoooO-O&#&%%::&&&&&@+.@2*@-  ",
" XoooO-O&*---::&:::&@+OO$*@O  ",
" .XooO-OO+@---:::*:,&&+X@@+o  ",
"  Xooo--OO@#-%::::::&&+oOOo   ",
"  .XoOO-&:::-%-:::::O&@++OX   ",
"   .Xoo---&&%%%:::*#&&:&&o    ",
"    .XoOO---->%:::@@#:::O     ",
"     .ooOOO@#:::*@@##*#O      ",
"      .XooO+#:::####@+o       ",
"        .XoO+#####+Oo         ",
"           XoOO+@+            ",
"                              ",
"           .XoOOOX            ",
"        .XoO+@@##@+Oo         ",
"      .XoOO+@#######@+O       ",
"     .oooO+@@&##+#**##@o      ",
"    .XooOO&##&&##;:O*#@@o     ",
"   .XXoO+---:::&+:1@#;##@o    ",
"  .XXXO-O&&--::&*#1:=$@::@-   ",
"  XooOOOO@#&--:%11%3++O::@O   ",
" .XoOOOoOO#&-%-%1-%3@+O&@#@o  ",
" XooOOoO++@&&--%%-%@&&:&@#*+  ",
" XoooOOOO+O+#@+&&&:,X&:##::@  ",
".ooooOOOOOOo+&&&::&&OO&::::*O ",
".oooOo<O&&&&&&:&:?:*&,&<,::#+ ",
".XoOoOO&&@+++#%%?$$?:O,&:?##+ ",
"XoooOOO&O@@++#%%:$$$?o,<&?##+ ",
"XooOoOOO&:&#@#%%:$$$?OO,&::@O ",
"Xoo------&&::#--%?2??OO&&::@O ",
".oooooO----::#&%-1?$:,,&&:#@o ",
" XOX4oOO&&--::;&%%??::&&@@@+  ",
" XoX4oOO&&-%::*%--??:::&@++o  ",
" .XoXoO+O+%%::##---??::,&+OX  ",
"  XoooOOO+--::##&-%??::&&+o   ",
"  .oooOO&@#-::::&-%-?::&&+o   ",
"   ..oOOO+@---:::%3???::&o    ",
"    .XoO+&+@--%->3%$:##:&     ",
"     .oOO++++@**:?;*##@O      ",
"      .XoOOO++#*:::#@+o       ",
"        .XoO++@**#+Oo         ",
"           XoOO++O            ",
"                              ",
"           .XooOOo            ",
"        .XoO++@@@@++O         ",
"      .XoO+++@@#####@+O       ",
"     Xooo++OO@@@*:####@O      ",
"    .XXXoO+&O#**:::@###@O     ",
"   XoXX4OO&&&%---??:@:#*#O    ",
"  .ooooO<&&&&&&-%-??*#1#*@O   ",
"  X--ooOO&&#@@#&%%-?11%O@@+   ",
" .o--oOOOO@@++##:-%-11%3@&+O  ",
" .oo---O@@+++++#&:--11%@&&:+  ",
" XoooO-OO@++++++@##+:::,X&:&  ",
".oooOOO+@@@+@+++o+&&&::&OO&&O ",
"XoooOo+O+Oo,+&&&&::????*&,5&& ",
"XooOOOO&&&&&&&@@++#%%?$?:O&&+ ",
".oooOOO&O&&:::##@+#%%?$$?o+&O ",
".ooooOO+&&&::;:&*@#%%?$$?O+&O ",
".ooooO--------:::?**-%???O+&+ ",
".Xo--OOOOO&&%---:?*o:-1$:,+++ ",
" Xo-o+OO,&&&&:%--:?=:1??:&&O  ",
" X--oOOo,&&&&:%-1??;%-??::&o  ",
" .oOOOOOOO&:##%%1??##--?::+X  ",
"  X-OoOOOO&:&#%--?:*:-%?::O   ",
"  .oOooO&&&&:##--???:-%*:&o   ",
"   .oXXoO+&&:##---??%%@*:O    ",
"    .XXXO&&&:#@*--1%##**O     ",
"     .XoO++@#@@+@+#*::#O      ",
"      .XoO+@@@++@#*::&O       ",
"        .Xo++@@@###+O         ",
"           XoOO+++            ",
"                              ",
"           .XoOooo            ",
"        .XoO@@@@@+++O         ",
"      .XooO@##@++@###+o       ",
"     .XoOOO&@&+,+##*##@O      ",
"    .ooOOO&o&&&&+***::#@+     ",
"   .XooOO<,,&&&&*11-??:##+    ",
"  .Xo--OO&&&,,&&-&::%-?#*@o   ",
"  XoOO--O&&&&&&##@#*%%-1%@O   ",
" .oOOO-O+O&&&&;#@++#*:%-%%+O  ",
" XoOOOO-----@##@@+++#:--1++O  ",
" XoooOOOO&-@#+#@@@+OO+#+:&&+  ",
".ooooOOO@@@@@##@@@+OOo+&&:&&o ",
".oooO+OO+O#*&;+O,O&&:::???:&o ",
".ooOOOO&&::&&&&&::::@++%%??:o ",
".oooOO++O&&&&&&&:???*++%%??:, ",
".XoOoOO+&&&&##&&:?$??*@%%?=:O ",
"XooooOO+OO--%-%-----???*-%;:O ",
".XoOoO---O&:&#&&&1---??o:-*:o ",
" XooOO--&*&#+,&&&&?1--?=:#*&  ",
" XooO--O&&&@O,&&::?1-1?;%@:&  ",
" .Xo--O@OO@@+&&&?*#111?#@@&O  ",
"  Xoo-O@O+@&&&&:::#%-?:*+@&   ",
"  .Xo-OO&@&&&&&&:?@*-??#++O   ",
"   .XoOOO<,&:#&::#@---#@+o    ",
"    .XoOo,&&&:&&&#@%%%#@O     ",
"     .oOOO+&::**#+++@##O      ",
"      .XoO++::##@++@#@O       ",
"        .Xo+@##@@+OOO         ",
"           XoOOOOo            ",
"                              ",
"           .XoOOOo            ",
"        .XoO+@#*#@+OO         ",
"      .XoOO+@@#**#@@@@O       ",
"     .XooO+##++&#&++@##+      ",
"    .XooOo&:*&&&&:+&@##@+     ",
"   .Xooo--&&&&,,,:&:*:@@#&    ",
"  .XooO-----:&&&&&,::-:@@@o   ",
"  .ooOOO+#---&&&:&::*#@*@+o   ",
" .ooOOO+++---&&&::::=#+@@+--  ",
" XoOOOO+#@#&--%%%%#*#++++@+-  ",
" --OoOOOO&@#&&&%%##**@++O++O  ",
".ooooOOO&&:&&&*#@*###@@+Oo+&o ",
"XoooOOO+&&;:::@+*=:=+X,&&:#:& ",
".ooOOOO&&&&&&:&:?:::&::::+@#@ ",
".oooOOO&O&&#*#&&&:::::???#+@# ",
".ooooo+O&::&@#&&&:**::?$?:@## ",
"XoooXoO+OO@@##&&%%%------?**# ",
"XooooOoO@+@#-%%::?:#+::---*:& ",
" X--oOOO@#--%%;=:*O&:::?1%*:  ",
" X---oO@*#-%%::::@o&&:::11*@  ",
" .----OOO--:;;&##@O&&:**11#o  ",
"  --ooO+O--:;:##&:&:??#%%@+   ",
"  .-ooo----:::#&&?:::?#@+@o   ",
"   .XoOo-6&*#+<,&:*:??@@@O    ",
"    .XoOO-&&&,&&&??::#@+O     ",
"     .oOOO+&&#&&??*#@@@+      ",
"      .XoO++@@@::##@++O       ",
"        .Xo+@@#@#@+Oo         ",
"           XoOO++o            ",
"                              ",
"           .ooOOOo            ",
"        .XoO+@@@@#@+O         ",
"      .XoOO++@####**@Oo       ",
"     .oooOO++o*2#,#@&&@O      ",
"    .XoooO+++@:?#&&.&&@#+     ",
"   .XoooOO@O-%::?:,,&:&#@+    ",
"  .XXooOO&&&--%%::&&::,@@@O   ",
"  XoXoOOO::&;;-%%%&&:&::#@O   ",
" .ooooOOOO&#*#&-%%:&&:::*#+X  ",
" XooO--O&&@#*##*&--%%%#*#@+o  ",
" X----OOO&&:::&**&::%%#**@+O  ",
".---oOOO&&:&&&:::::**@*##@++o ",
".XooOO+O&&:&#+:=:??*+;==+X+&O ",
".XoOOOO&&::::&&&::?::?::&:::+ ",
".XooOO+&O&&&:::&*;#:::::::?:+ ",
".XoooO+O@+O#&:::&##&:::*:::*+ ",
".XoooOOOoO*#;#&*##*::%%---+@+ ",
".Xoo--OO+++OO*##*%%%%??#+:@+O ",
" .oo---O&++++##%%%%$$?O&:::&  ",
" .X------+@#;;%-%%???:o&&::&  ",
" .X----O--@O#&%%?$$:##O&:::&  ",
"  X----OOO@@&%%:=$:*::&::::   ",
"  .----O&:&@-%%:=?##:?:::#O   ",
"   Xo-oOOO&+%>:=:@,,:?::@o    ",
"    XoooO&&@@%::&,&::::@o     ",
"     .ooO++@&:::#:::::@o      ",
"      .XoO++&:::#:::#+X       ",
"        .XoO+@####&+O         ",
"           XoOOO+O            ",
"                              ",
"           .oOOOOX            ",
"        .XoO@@@#@+++O         ",
"      .XoO+++@@@@@###+o       ",
"     .XoOO+OOO@+OO**@&+O      ",
"    .XooOOOO++@+o@?;&&+&O     ",
"   XooooOO<O&@#+%%%?::&&@O    ",
"  .ooooooOO+&&&&--%%??&&:#O   ",
"  X--OOoo+@&&&:&:$*-%%&&&:&   ",
" .X-OOooOO##&&:&*=*:-%:&&#@o  ",
" .X-OOOO&--:::+#*=;#*:-%%@@O  ",
" .X---O--%&::&::::?:**::%@#+  ",
".Xo-----&&:&&&:::::??::**@#@o ",
".XooO-OO&&##&&::&#+:???*+;:@O ",
"..oOOOO&@@##&:::??:::::::?::& ",
"4.XoOOO++@##&:&&&????*;:::::& ",
"4.XOoOOO+@##&&++*:???:#&::##@ ",
"..XooOOOO+@#:&+;*=;::##::%++- ",
"...ooO+O%-&&&+#@+O;*#*%%%?@+X ",
" ..XoO+-%---&&#@@@##%%%$$*:&  ",
" ..XoOO-%--%%%+##$$%-%???#:&  ",
" .XXoO------#%#@O#:%%?$:#@&O  ",
"  Xooo-----@&&##*:%%$$:#::+   ",
"  .XoO-----#&&&@%%%%$?#:::O   ",
"   .oOo---&&&&&@%>%$*+&::O    ",
"    .oOOO@&&&&##%%?:&&::O     ",
"     XoOOO+&&:**??:::::O      ",
"      .XoOO+&::::::#:&o       ",
"        .XoO+::::@++o         ",
"           XoO++Oo            ",
"                              ",
"           .oOOOOo            ",
"        .XXO+@:##@++O         ",
"      ..ooO+####@@@@@+o       ",
"     .XXoO++@@+OOO++@#@O      ",
"    .XooOOO+@++o++++@#*&o     ",
"   .XoOOOO++++<+:@+O-%##&o    ",
"  .Xoo-OO@+++O+@&&::--%@@&o   ",
"  .XoO--O@@+O+@&::??:$*%+@&   ",
" .XXoO-OOO@+++##*::?:**:+++O  ",
" XooOo--&&&##&%-:??+#*;#*++O  ",
" XooooO---&---:::::????:*##+  ",
".ooooOO-------::?:::?::??::#O ",
".oooOoOO@--:::&**::??:#:??::@ ",
".XXooOO&&@@#&&#**:?????:::::& ",
".XXo4oO&O&&@@@#**:??::???*::& ",
".XXO44OO&&&&&@#**::#+*:??:#:+ ",
".XXoooOOO&&&&@##*?:o+*=::##@O ",
".XoOoo<O&O&#&%-&&:+@*oO*#*#+o ",
" XooooOO&&@&%%%%%&:*@+##%@#O  ",
" .XX44oO&@&%%%%%%%%+##$%-@#O  ",
" .XXXooOO+%%--%%%#%#@O:%#*:o  ",
"  XoooOOO--%--%#&:?#*:%?;;+   ",
"  .XoOOO@--%--%#&:?&%%%::#O   ",
"   .oOOOO+--%%&&&&:@%3*#&O    ",
"    .oOO+&&&-@&&&:###*:&O     ",
"     .oOO++++&&&:::::::&      ",
"      .XoOO+++&::::::@O       ",
"        .XoO+@@:::&+O         ",
"           XoO+&+O            ",
"                              ",
"           .XoO+OO            ",
"        .XoO+@@:::@+O         ",
"      .XooO+@@##*#@@+OX       ",
"     .oooXo&:@@+#@+O++Oo      ",
"    .Xooo<&::++O@@Oo+@++o     ",
"   ..ooOOO&&:#+@++O<::@++o    ",
"  ..XoOoO---::@@@+OO+::@++O   ",
"  .ooOoOO#---:#@+OO+:::?*#&   ",
" .ooOOOXX+---:&#@++@#*:?:*#o  ",
" XoOOOOoo@@---::&**-%-??+*#O  ",
" XoOoOO+@++@%-%&&%-1???:?::&  ",
".XoooOO+++++@%%%%%%-???::?::& ",
"XoooOOOO@++@@@#%%????**:??::& ",
"XoooOoO&&&&&&&&##*::***????:& ",
"XoXX44O&O,O&&&&&&@@@#**??:??+ ",
"XXXX44OO&,,&&:&&&:&@@**:#o::+ ",
"Xo.44oOOOO&&&&&::::###*:o=**+ ",
".X.4oOOO@++,,&::&*:11::+@@#@o ",
" XX.oOOO&@&&&&&#*&1-%%:@*##+  ",
" XX.oOOO@,&&&&#*:11-%%%@+#*@  ",
" .XXXOOOOO&&&&#&11--%%#%@@#+  ",
"  .XooO+++&&&&%%%1--#::#@@@   ",
"  .XooOO@##&&*%%%---#::@++O   ",
"   .XOOOOO&&:#*--%%:::#+%o    ",
"    .oOOO&**;:&&-*&:::#+o     ",
"     .oOO+@&;:*@O&:::::O      ",
"      .XoO+&::@@@::::&O       ",
"        .Xo+&@@@@:&&O         ",
"           XoOO++O            ",
"                              ",
"           .XooOOo            ",
"        .XXO+@@@:::&O         ",
"      .XoO++++@@:#**@OX       ",
"     .XoO+@+,<&::+@@@+OX      ",
"    .XooOO&&&&:?*+O++OOOo     ",
"   ..XooOO&&#&::?#++++O++o    ",
"  .XXooOO:&@+@%%%:*@+OO+#@o   ",
"  XoooOOO#+O@#%-%%?#+OO@::#   ",
" .XoOOOOO+@@oO*%%%?:#@+@@;:+  ",
" .oo--OO&&@#OO@#%%%??:*-%:?@  ",
" Xo--OOOO&&&**+@@%%%::-1???:  ",
".o--oOOO&&&@@#@@+#%%%%%-??::O ",
".o-oOOO+&&&@@#@@@@@##%???*::& ",
"X--OOOO++O&&&&&&:::::#*:**::& ",
"X--oooOO<<<&:&,+&:::::@@#*::& ",
"X--OooOo<<,&::,,&:??:::@@*::& ",
"X-ooooo<<O&&:&&&&::::?:###:#@ ",
".ooooo<4OO&:::#+,,&:?:*11:##O ",
" XoooOO<&&&&&&+&&&&:#*1-%%#@  ",
" XoooOo<&&&#&#,&&&:#*:1-%%@@  ",
" .oooOXOOO##&@+&&::*:1--%%+O  ",
"  XooooOOO@@#*&&&:?%11-%##O   ",
"  .XoooO&#@##*#&&:?%1--+:#o   ",
"   .XooOOO@&:::::*#-%%@@#O    ",
"    .Xo-O*&@&;===?::@#::O     ",
"     .ooO++&::::$?@&:::&      ",
"      .XoO+&:::::@@&::&       ",
"        .XO+&@::@@+OO         ",
"           XoOO++o            ",
"                              ",
"           .Xooooo            ",
"        .XoO+@@@@@&&O         ",
"      .XooO@@@@@@@::#+o       ",
"     XXXoO+&&#@O<,::@@+o      ",
"    .XXXoO&&&&&&,&??@@+Oo     ",
"   .XXXoOO&&&&&&::-??#@+Oo    ",
"  .XoXooO&&&&&&@@@%%%?*@O+o   ",
"  XooooOO&&&#&++@@*%%%?@+@&   ",
" .XoooOOO+&&&&+#@XX*%%?:#@@O  ",
" .ooooO---::::+#*Oo@#%%??@@+  ",
" Xoooo---&&::::&&*=++@%%:%%@  ",
".XoXoO--&&:&:::&###@++#%%%@:O ",
"XoooOO-O&@@@#&:&#@#*@@@##%#:& ",
".ooo---&@@+++@+&:&&&&::::#*:& ",
"Xooo--O&O++++O<<&?:&,&::::@#& ",
".ooO--O+++++OO<,&??&,&:?::::& ",
"Xo---OOOOOOO<<&&&?::&::::?:#+ ",
".o--OOOOOOo<4,&&:??*#,,:?:#@o ",
" Xo--OO+@@+<<&&&&&:O&&&:##+O  ",
" Xo---OO@@+<<&&&*:#,&&:#*%%-  ",
" .XX---OO+o,&&&#*:@O&&:*#%%-  ",
"  .XoXOOOO&&&&##***:&:?%%%O   ",
"  .XXooOO&&&&*#*****::?%%Oo   ",
"   .XooOOO&&::*&::???*#@+o    ",
"    .XoOO@--::&*:$$$?::#O     ",
"     .ooOOO-&:::???=:::&      ",
"      .XoOO+@::::??::&O       ",
"        .XoO@&::::&&O         ",
"           XoOO&Oo            ",
"                              ",
"           .Xooooo            ",
"        .XoO+++@@@++O         ",
"      .XoO+++@@#:@@@&&O       ",
"     .--OOOO+@&::@+O&:@O      ",
"    .---Oo<O+&&:::&&&::&o     ",
"   .o--XXoO+&&&&&:::*::#@o    ",
"  .X--oo4&&&&&&&&&?:++%@@+X   ",
"  XX--OOO&&&&&&&:**+@@*-%@O   ",
" .oooOoOOO&&&&*&:::o#@X*%%@o  ",
" .ooOOoO++@#--:::??O#;o@#%#O  ",
" XoooOOOO+--%-::::??::=+++%-  ",
".XoooOOO+@---:::?????##@++%%X ",
".oooOOOO@@--::*###:??#@*@@@@+ ",
"XooOOOO+----::@@++@@O:&&&:::& ",
"XoooOOO+---::#+@@Oo<<:?&,&::O ",
".ooooOO+---:#@+@+oX<<:?&,&::+ ",
".Xo-oO---&&#@++++<<,&:?:&:::+ ",
".Xoo----*O&@+++O<4,&:??*#,&#O ",
" XoooO---&&&###@<<&::::O&&#@  ",
" Xoooo----::&##@<<&::*#,&&#%  ",
" .XooooO---:::+O,&::**@O&@+o  ",
"  .XoXoOoO@-@&&&&:@#***:#+-   ",
"  .XoooooO+@O+&&&:*#***:#%-   ",
"   .XooOOO&&&&&:::*:???:@o    ",
"    .oOOO@@+@&--=?::===:O     ",
"     .oOOO+++@%-:?????:O      ",
"      .XooO+@@##:???::&       ",
"        .XoO+@#::::&O         ",
"           .oO+&&O            ",
"                              ",
"           .XooooX            ",
"        .XoO+@@@++++O         ",
"      .XoO+@@@@@+@#:@+o       ",
"     .ooo-O#@@+o+@:::&Oo      ",
"    .ooo--%-+O<X+@:::&&+o     ",
"   .ooO----+o<,++&&&&::&+o    ",
"  .XooO----@O<&&&&:::::#@@+   ",
"  .ooOOO--#@++&&&&&&:::+@##   ",
" .XoOOO--+@@@@@&:::#*::#@##+  ",
" .XoOOOO&&#@@++@#*-%???:O##O  ",
" .XooOOO+&&@#++#%%%??????:#O  ",
"..XooOO+&&&@@+@#-%%??????:#+o ",
"..Xo-O++@@@+++#*%%???##:?:@#O ",
".Xoo--O@@#@+++%%%%??*++@@&&:O ",
".XooOOO&+@@@@#%%%??*@++o<<::& ",
"XXoooO-O&#@#@#%%-?*@@+OX<,::& ",
".XooooO--O&---%::*@++Oo<,:::& ",
".XoOoOO+%----%;:&#+++o<,&:::o ",
" XXXXOOO++--%%:::&###+<::::&  ",
" .XXXo++++@%%%%:??:##+<::#&O  ",
" ..XoX+OOO+++#-%%??#OX&::#&o  ",
"  XooooOOOO+++@#%#&&&&:#**+   ",
"  .ooooo@OO+O++@@&O&&:****O   ",
"   XoooooO&&&&&&&&&:??;;:+    ",
"    .ooOO&&&@##@@#--;??;&     ",
"     XooO+++++@@+@@#??:&      ",
"      .XoOO+++@@###:::&       ",
"        .XoO++@#*#++O         ",
"           XoOO++O            ",
"                              ",
"           .XooXXX            ",
"        .XoO++++++OOo         ",
"      .XoO+@+@@@#@++@+O       ",
"     .ooOO+#--*##+OO@:#o      ",
"    .oooO+@%%%%%+o<o@::&O     ",
"   .ooooOO@%-%%@X<XO&&&&&&    ",
"  .XoooOO@@#%-%@++X&&&::::O   ",
"  XoooOOO@@#-%#@++&&&&&:::@   ",
" .ooooOOO+##-%#@@@@+&::#*:@X  ",
" .XoOoOO@@###&&*@@+++#-%??:O  ",
" ..XoOOOO&@@##:&##++#%%????:  ",
"...XoOOO&&&@@#:&##++@-%????:+ ",
"XXX4<oOO-&&####@@+++#%%??##:+ ",
"XX.oOOO+%%&###*@+++#%%%?*++&O ",
"XoX4oOOO+&-&&###@@#*%%?*@+oOO ",
"XoXooOOO+@--&&####*-%-?@@+o,& ",
"XoXXooOOO+@&--&&---%%?*++OX5& ",
".X.ooOO+++O@#&%-%%%?$:#++o,&O ",
" XXXooOXO++@@@#%%%%???###o&&  ",
" XoooooOoO;##++#%%%%??:##,&+  ",
" .ooX4oOOo;@@+++++#-%%?#+&&O  ",
"  XooooOOOo#+@+++OO@%#&&&#@   ",
"  XooOoO&OO*@@O++ooO@&O::#O   ",
"   .oOOOoO&&&&&&&&:&::@::+    ",
"    XooOO@&&::&&@##@@+@:@     ",
"     XooOO+&*@@@O+@@@@#&      ",
"      .XoO+@#@+++@##@@+       ",
"        .Xo+@@+@@@@+O         ",
"           XoOOO+O            ",
"                              ",
"           .XoooXX            ",
"        .XoO+@@@++OOo         ",
"      .XoO++@##@@@##@Oo       ",
"     .ooO+@@@@*1%1##+O+O      ",
"    XoooO@+@##&1%%1+ooO&O     ",
"   .oOOoO+O&:&#%1%-@X<o&&O    ",
"  .oo-O+OO&&#@#*%%-%ooX&&&O   ",
"  Xo--oOo&&&####:%%*++&&&:&   ",
" .---6ooOO@@####*%%#@@@+&##O  ",
" .--OooO&&@@@@#***::*@+++##&  ",
" Xooo4oOO@@#&::*##*?:#++#@#:  ",
".XoXo<oO&&&&:::&*#*:?##+@-#:& ",
".oooOoO<,&&&&&&&*##*#+++#%#:& ",
"XoO+OO<&&::&@#%&*****++#%%*:+ ",
"XooOOO<<O&:&++&-&:***@@*%%##o ",
"X-O+oOOO&&&:&+#%-:::*##-%-@+X ",
"X--OoOoOOO&:&O@#&---:--%%?@OX ",
".--OoO<OOO&O#=#+#*:11%%?$:@OX ",
" --OoOOO&&+Oo+=@#@@#%%%??:@O  ",
" X--oOOO&&+++O;=*#++#%%%?:#O  ",
" .-ooOOOO<&@+@@;@@++++#-@*:o  ",
"  Xo--OO+O&&#@O*@+OOOOO*@:+   ",
"  .o--OO&&&+&@O*+#ooooo@@&O   ",
"   .o--OO+@&&&&&&&::::&&:&    ",
"    .oOO+&++@&:::?:@##@:&     ",
"     .ooO+++@&&=@@@+@#@&      ",
"      .XoOO+@&:#@+++@+O       ",
"        .XoO@@#@@@OOO         ",
"           XoOOO+O            ",
"                              ",
"           .XoOooX            ",
"        .XoO+@@@@@OOo         ",
"      .XoO+@@@@#####@+o       ",
"     .XoO+@@;@@@###%%#+o      ",
"    .oooO+&O##@@##:%%%+OX     ",
"   .ooooO-+O##+&::#1%%%oOo    ",
"  .X--OOO&#*#@&&&###11-O+&o   ",
"  Xo----->O+O+&&:*##:%%@@+O   ",
" .oo-----6++O&&##*##**%##@+o  ",
" .oo----@+&&&&@#####**::*@@o  ",
" XXoooOOO,&&&&#**&??*#*?:#@O  ",
".XXXoOOOO,O&&&&&:????*#:?#@@+ ",
".XooOOOO&O,&,<&&&::-:*#*#+@#& ",
".XoO--+*&&O,&&:::@*11****+@@+ ",
".ooo--@*O+O,,<::&++#:::**@@@+ ",
"Xooo--@@&@O+O,&&::++#-::*#@+O ",
".ooo--O@O+OO&&+&::O#@:--:-%%O ",
".ooOo--O&+,,O&&&+*2###*11%%@O ",
" XoOO+-O&&&&&&@@+OO2@#@#%%#@  ",
" .ooOO-O&&&&&&@@+OX$2*++#+@+  ",
" .ooOO--O&&#&&&&@+@@$@+++++O  ",
"  XoOoO--O&:#&&&&#+o++O+++O   ",
"  .ooOO---::&&&+&&ooO#o+++X   ",
"   .ooOO-6&&:##&&&&&&:@&&o    ",
"    .oo-O>-*:#@@#:??::@@O     ",
"     .ooOO+&#@@@#?;#@@+O      ",
"      .XoO+@#@@####@+Oo       ",
"        .Xo+@@@#*@OOo         ",
"           XoOO++O            ",
"                              "};
