/* XPM */
static char * r100_xpm[] = {
"30 480 27 1",
" 	c None",
".	c #707070707070",
"X	c #808080808080",
"o	c #A0A0A0A0A0A0",
"O	c #B0B0B0B0B0B0",
"+	c #D0D0D0D0D0D0",
"@	c #E0E0E0E0E0E0",
"#	c #F0F0E0E05050",
"$	c #0000D0D00000",
"%	c #000070700000",
"&	c #404040404040",
"*	c #E0E090900000",
"=	c #E0E0B0B00000",
"-	c #909090909090",
";	c #50506060F0F0",
":	c #000090900000",
"?	c #303030303030",
">	c #606060606060",
",	c #0000B0B00000",
"<	c #30304040D0D0",
"1	c #10101010A0A0",
"2	c #D0D070700000",
"3	c #505050505050",
"4	c #F0F0D0D00000",
"5	c #F0F0F0F0F0F0",
"6	c #F0F0F0F0A0A0",
"7	c #000000008080",
"           .X...XX.           ",
"        XoO++O+@@@@oo.        ",
"      XoO@@+OoO+@@@@++X.      ",
"     .###++oXXX+++++++$$%     ",
"    &*##=oo--o--;;;;++$$$:    ",
"   ?>-##=,-oO++-<11<O+O$$$.   ",
"  ?>X+O#X,-oO+O-<<ooOOO$$$=X  ",
"  &.-+O=X,,X-ooX;>:$$$$$$$=*  ",
" ?&>X--*o-X,.>:::,,:$$++++=*2 ",
"  &3>X-==O-,,,,,,,22*=+++===2 ",
" ?&3.*==*4#-=====*==##======* ",
"??&22**=**4===*2**4##==+$++#=2",
"?&3222**=4=4***=####=,5O++++=2",
"?&322X*4=44*2*4##666#:,O++++$>",
"?&3>.XX*==**=##66555+o<<;+++$.",
"??3>.X-ooO-o###6,$5+++o<<;++$:",
"?&3>.X-oO+oXXX#+Oooo.<71<<+++:",
"?&3>.X-oO++XXXo-X,$,><11<<+++%",
" &3>.XX-oOO+@6o,,,$,:333>OOO> ",
" ?3>>...X-oO##O:::,,,,,,$ooo% ",
" ?&3>>>22X*###O==,,,,,$$,$oo? ",
"  ?&33>222**=##==,,,,,,,,:o3  ",
"  ?&&&3...2**#444===--.:,,$&  ",
"   ???3>>..X**44444##O-:,$%   ",
"     ??&3>..XX*=44###O-.>3    ",
"      ?&33>>..Xo#44#6O-.3     ",
"      ??&333>.-o6##66+X3      ",
"        ???&3.X-oOOOoX        ",
"           ??&33>.>           ",
"                              ",
"           .XXX..X.           ",
"        XoOO++@@+++ooX        ",
"      Xo+6##@@+@+++@@@o>      ",
"     >oO##=#++O+++++++++>     ",
"    32**=#==ooo-++++;;;+O%    ",
"   ?32*=####=,,-O@@+;1<OO$%   ",
"   &.**O++O#=,$-OO@+;<ooOO$%  ",
"  %%.=-O++O==,,$,oo+OO$$$$$>  ",
" ??%.*-O+@6#=o-X,.>:$$$$$$++> ",
" ??3.2*##66#==O-,,,$$$$2==++2 ",
" ?&>.**===##=*4#-========#==X ",
"?&3.22**==4=***44===2*=4##=++>",
"?3>X222**=44==4==4**=#####+++.",
"?3>.2222*=444=444*2*##666++O+.",
"?33>222**=#4===-**=#665@@++O+:",
"?&3>222**###OOOo-o##6,$+@++<O>",
"?&3322**o#OO++++oXXX+Oo+++<1;.",
"?&33>XX-oOO++++++XXX-X,,$o<1<>",
" &333.X-oOO+OO+++O6o,,$$,ooO< ",
" ?33>.XX-ooO##6666#O:,,,$$$$& ",
" ?&3>..XXX*4=44*###O=,,$,$$$& ",
"  ?&33>...2*o#==4###==,,,,$:  ",
"  ?&&&3..22*o##===#4====-.$%  ",
"   ???&>2222*o##4=44444#O+%   ",
"     ??&3>>22X-o##4444##o>    ",
"      ??&3>>..Xo####4##O.     ",
"      ??&333>.Xo6@66##o.      ",
"        ???&3>.-oOOOo-        ",
"           ??&33>.>           ",
"                              ",
"           .XXXX...           ",
"        XoO++O@+@@@o-X        ",
"      -OOO++6###@@@+++oX      ",
"     X##ooo###=#@@++++++.     ",
"    >o#=*2*==####+++++++;>    ",
"   ?3Xo=***=#####=$$++++;<3   ",
"  ?%::XX**=#O+++#=$$+++++oo&  ",
"  &%::,.*==#O+@+o=X++++++O$:  ",
" ?&>>:,,X==#OOO56#=o+++O$$$$3 ",
" ?&>..,,-===###66#==+++$$$$+. ",
" ?3.----X****===##=*4#======* ",
" ?3X-ooo-*****==#4=**44==*=4=3",
" &>X-oo-.==**=*=#44=4===**=#=>",
"?3>.X-oX2====2*=#444444**=#6+>",
"?3>.X---*=======##4==-**=#6@@>",
"?&3.X2***======####OOo-o##+@+<",
"?&3>.22**=====###OO+++o++++++&",
"?&3>>22**==OOOOOOO+++++o+++$O?",
" &3>>.22**o+@@@@++OO+++Oo$$$% ",
" ?3>>.XX2*o+@@@OO###6#66+$$$: ",
" ?&3>..X22-OO+6#=4=4####O+$$% ",
"  ?&3>.XX2X-O6#==##444##==$:  ",
"   ?33>..22**====###4=4#4=+3  ",
"   ??&3>>222**=444###444##X   ",
"    ???&&32222*=44####4##-    ",
"     ???&&3...Xo########-     ",
"      ??&&33>.Xo##66@+O-      ",
"        ???&3..XoOOOO-        ",
"           ??&33>.>           ",
"                              ",
"           >XXXXXX.           ",
"        XooO++@@+++OoX        ",
"      -O+6#++++@###6@@o.      ",
"     .@@6##OooO#===#@@++X     ",
"    3-@+O#=**2**=####++++.    ",
"   ?3Xoo-oo=****#####=++++>   ",
"  ?3>:,,::.X***=#+@@+=$$+++&  ",
"  &>::,,,:::3*=#O++@@++$+++3  ",
" ?&%:XXX.::,X===##OO@#==+$O$% ",
" ??3>.X-X,::--===###6#==++$$> ",
" ?&>.X-Oo-,,oX****===#======2 ",
"?&3>X-o+555+O-******=#4=====*2",
"?&3>XoO+@+@+o.===**==#44=4===*",
"?&>.X-o+55+OX2=====2=#44=====o",
" &>.X-oO++XX.-=======##4====#O",
" ?3>.X-oO5==========####+++##o",
"?&3322X-o===44======##O+@@+++X",
"?&33>.XXo#==#4===OOOOOO+@@@++3",
" ?33>.X-ooo***=o++@@@+O++@@+. ",
" ?&3>.XX-ooo***-O@@@OO##666+: ",
"  ?&3..X-oo+O**#OO+6#==4###+% ",
"  ?&3>.XX-oOo*=#6O##==444##X  ",
"  ??&3>.X--oo**======###44=.  ",
"   ??&3>>22--**====#####4=*   ",
"    ??&&3322222*444######*    ",
"     ???&33>2.Xo########*     ",
"      ??&333>.Xo66####OX      ",
"        ???&3>X-oOOOO-        ",
"           ??&33>.>           ",
"                              ",
"           .XXXXXX>           ",
"        -oO++O@@@@+OoX        ",
"      -+@@@@6#++@@@##+O.      ",
"     .+@55@+###++++#=#6+>     ",
"    &2=#@@++O##=*2**=###+.    ",
"   ?3*=ooOOoooo=****=###++X   ",
"  ?&2=-.::,,:::,X***=+@@+++.  ",
"  ?>2-,::::,$:::%X*=++@@+=+.  ",
" ?&>.:,:3>>.XX::,,===#+@@#=+3 ",
" ?&3::::><<;--,:::-===####==> ",
" ?&%:,>><;;;oo-,,-X***===#==* ",
"???:,XX;;o+@@5555+O-****====*2",
"?&%:,XX;;o++@@+5@+o.==**==4==2",
"?&3::X-;;o.:+555+OX2======44=2",
"?&33>---o+O5@@+oXX.-======#==*",
"?&&3.X-**=#OoO5==========##++-",
"??33.XX2***=#=====44====##@@+X",
"?&33.XXX2*==###===#4==OO@++@+>",
" &33>..XX-O6++6#*2*=o++++@@@O ",
" ?&3>>..X-OO++OOOO**-O++@###o ",
"  ?&&3>.X-o+@@@@++**#O+@##4=X ",
"  ??&&>2XXooO+55+O*=#O#####=  ",
"  ???&3..XX-oOOOO***=====#=X  ",
"   ???&>>..2***-o**=====4=*   ",
"    ??&&3>.222****=444##=*    ",
"     ??&33>>..2**=######X     ",
"      ??&333>..-O#666#O-      ",
"        ???&3>.X-OOOO-        ",
"           ??&33>.>           ",
"                              ",
"           .XXXXXX.           ",
"        -oO+++@@+++ooX        ",
"      -O@@@@5@@6##@@@+oX      ",
"     .##++@5556##=#+++==X     ",
"    3*==*=#6@++++#==***==>    ",
"   ?32***=#oooooo++=***=#+>   ",
"  ?32***=#-.:::,,:$$+**=#++%  ",
"  &22**#O-,:::,$$$:$$O*=#@+X  ",
" ?&>.X-oX:,,:>>>..X:$$+=##@+. ",
" ?&3>X-X::,,>><<;;-$$$++==##X ",
" ?&>X-X:,,,><<;;;Oo-,$++**==* ",
"??3>X-,,,,;;;;oo+@@555++*****2",
"?&3.2X,,,,.;;;o+++@@5@@+==**=*",
"?&322XX:,,>.;;oO.:+55+++=====*",
"?&3>2*22,,X--O+OO5@@oXX+=====2",
" ?&>222**======##OoO========#-",
"?&332222*####=***=#========##o",
"?&33>2XXo###=***==##======+++X",
" %%%>22X-oO#=#666++6#***o@@@o ",
" %%%3222X--=#6XO+++OOO**+@@@- ",
" ?%%%>2222*=#6OO++@@+Oo=#@@#2 ",
"  ?&%3>222**=6XOO++++O==###=  ",
"  ?&%%3222**-####OOOOo**===2  ",
"   ??%3>2.XX-o#4=**oo**===*   ",
"    ?&&&3>...X-===****=4=*    ",
"     ???33>>..Xo#==**###*     ",
"       ?&333>.-o6##O+6=X      ",
"        ???&3.X-oOoOO-        ",
"           ??&33>.>           ",
"                              ",
"           .XXXXXX.           ",
"        -oO+++@@@@@OoX        ",
"      -O@@@@@@@@5@@6#+oX      ",
"     .O66##++++@55@6##++.     ",
"    >-O##==***=#@@@@+#=**.    ",
"   ?>-#==*****=#O++++++***2   ",
"  ?>Xo*=*****=##-.$$$$$$$**.  ",
"  &.X-*=***=##Oo:::$$$$$$O+-  ",
" ?3>>2***=##+o%%,,:>OOOO$$++. ",
" ?33>2*===##o%::,,>O<;++$$+=X ",
" ?3>X*==5##O%:,,,><<;;+++++=* ",
"?&3.X--=5=-,,,,,>;;;oo@@@@@+*2",
"?3>.XX-**=o,,,,,>.;;o+@@@@@+=2",
"?33..XX#==o-.:,,:>.;oOO+@@@+=2",
"?&&322***=4===,,XX--+OO+@@++=2",
"??&>222**====4=======##O@+===*",
"??&3.222*====4######***=##===2",
"?%%%>>22*=*=5=##6##=**=##====.",
" %%%%::>2***#555##=#66O+#=*=o ",
" %%%%:::22**=####=#6XO++@+*=- ",
"  ?&3>:::2*4======#6OO+@+++=X ",
"  ??&>>::>2****===#6+O+++O=-  ",
"  ???3>:::22***==#####OOOo*2  ",
"    ?&3>::.22*=4####4=*-o*2   ",
"     ?&&%:..XX-o####4=***2    ",
"     ???%%>..XXo#####===2     ",
"        ?33>..-o@@666#=2      ",
"        ???&3.X-oOOOO-        ",
"           ??&33>.>           ",
"                              ",
"           .XXXXXX.           ",
"        XoO+++@@@@@OoX        ",
"      -O+@@@@@@@@@@@@@OX      ",
"     .OOO+@6##6@@@@@@@#=.     ",
"    >X$-O+##44=***=#6@@++.    ",
"   ?>,$$o#=44=****=##+++++3   ",
"  ?3>:-OOo===****=##+O$$$$O3  ",
"  ?3.XoOo-==4***=##+$$$$$$$>  ",
" ??&>-ooo===**=###o%$$$$OOOO3 ",
" ???>Xo,-==*5==###%$$$$OO+++> ",
" ??&.--XX=44*5##O%:,,$O;;+++X ",
" ?3.-oo-=#55*5==-,,,,>O;;+@@+>",
"?&3X--**=#4=**==o,,,,>O;;+@@@.",
"?3>.XX*==####===o-.:,:O++++@@X",
"?3>.22***=#4====4===,XX++++@@X",
"?&>>>2X--==========4======#+#-",
"?&3%:::-o==========4####===##*",
"?&3%::,,XX======*=5=#6##===#=2",
" &%%:::,,,,:#==**=555#####6#* ",
" ?%%%%::,,,,X=====######+@@+2 ",
"  %3&&3>XX,,,,=44======#O@@+> ",
"  ?&&&&>X-X,,,==****==##++@-  ",
"  ????&>X-X,,,.****==4####+>  ",
"      ?>.XX,,,Xo===4###4=*2   ",
"       &>..:,,Xo#######=*2    ",
"       ?33%::X-o#######=2     ",
"       ?&3%3>X-o66@666O2      ",
"        ???&3.X-oOOOO-        ",
"           ??&33>.>           ",
"                              ",
"           .XXXXXX.           ",
"        -oO+++@@@@@Oo-        ",
"      XO++++@@5@@@@@@@O-      ",
"     .o+OOOO+@66##6@@@@@-     ",
"    3.XXX$$-O+##44=**=#6+X    ",
"   ?3<1<>,$-oO==4=****=#++>   ",
"  ?>>11<>,-OOo===****=##+O$%  ",
"  &..11<X--o@$,X=***=##+$$$%  ",
" ?3>>11<-o:,$$===**=##++$$$O3 ",
" ?&>><1<XOO,,$==**==##+$$$OO> ",
" ?3>..1<-O-X,X=44*5##+O$$OO;. ",
"?&3>,,.>o@,XX=#655*5=-$$$$O;+X",
"?&>.:,,,:XO===##4=**=o$$$$O;+o",
"?3>...,::.-*==#####==o++$$O++o",
"?33>.XX--**=====#4===4==$$+++o",
"?&3>.X--=*=O##===============-",
" &3>.X.,,$,,-o==========###==2",
"?&3>..,,,$$,,.XX=====*=66###=2",
" %33>::,,,$$,,,::$==**#66###o ",
" %%%%:::,:::::,,,,=====####+- ",
"  %%%%>>>3<<>>>:,,,=======#+X ",
"   ?%3><11<<;;>>,,,==***==+o  ",
"   ?&&&111<--o-X,,,X***====.  ",
"   ???7711<-ooO-,,,-====4=2   ",
"        71>X--X,$$o#####=2    ",
"        7&>...,,$O#####=2     ",
"       ??&333::XO+6666OX      ",
"        ???&3>.-oOOOO-        ",
"           ??&33>.>           ",
"                              ",
"           .XXXXXX.           ",
"        XoO+++@@@@@Oo-        ",
"      .-+@@@@++@@@@@@@O-      ",
"     >Xo++++OOO+@@6##6@@X     ",
"    &:,X;;-XX$$-+@##4==**X    ",
"   ?%:,.<1<>:,$$O+#=4=***=X   ",
"  ?%:o-X111<3:,-OO+===***=+%  ",
"  &%:Ooo<111<O+OO+-===**=#+%  ",
" ?&%:-oX<111XOO:,5$=====4#+o? ",
" ?&3.-oX<111<-OO,,$====##+$$& ",
" ?&.-o-.%&11<-O-X-X=44###+$$3 ",
" ?3.-oX,,:&<Xo@5,XX=65#===$$$3",
"?&3.-o--:::%::XOO===#4====$$$3",
"?&3>X-oO-X::::.--*==###===+$$>",
" &3>.X--o#+++O***====#4=====+.",
" ?&3.XX-o=4444**=O##=========2",
" ?&3.XXXo#o.,$$,,,-o=======44*",
"?&33>2XX-+.,,$$$$,,.X======#=2",
" &%%3>2.X,,$$$$$$,,,::====#6= ",
" ?%%%>::,,,,,,,,:::,,,X===##o ",
" ?%%%%::,,,>;<<<<<>>,,,====#X ",
"  ??%%::::><<;;;;;X.:,,.====  ",
"  ??33%%>><1<1<-oooX,,,X**=X  ",
"   ?&&&&111111<-++O-,,-===X   ",
"    ??? 77111<XoOOo$$o###X    ",
"        ?&111>--,X$$O#6#-     ",
"        ?&?&3>--,,-O++O-      ",
"        ????&>X---oOO-        ",
"           ??&33>.>           ",
"                              ",
"           ........           ",
"        .--+++@@@@@o-X        ",
"      .X-o+++++@@@@@@@oX      ",
"     >=-..-o+++@++++@@6#X     ",
"    ?2=.,,,.X;X.O$$$+@##=2    ",
"    &2X,,$,.;11<>$$$$+#==*2   ",
"  ?&2=,:,$ooX11113O$++++==*2  ",
"  &>2=,,,$++o<771<.+++++===*  ",
" ?&322X,,.o@--1111.o++++====> ",
" ??3>2-X,,.X-.1111<+++O$====> ",
" ?&32*==,,oX.@%&11<Xo+OO====> ",
"??&22**#oX,,,,,:%&<.+@++=##==%",
"?&3222*=##--X.::::%:.o+==##==:",
"?33222*4###+ooX.::::.X+==##4=>",
"?%%322**=###4####+++*22===#==2",
"?%%%>222*=#####=4444*2=-#====*",
"?&%%:>22**=#####+-.,$,,$+====*",
"?&%%::>2*2=4###+o.,,$$$,O+===2",
" &33%::>2**===-,,$$$$$,,,O=== ",
" ?33%:::,:22::,,,,,,,:::$$O== ",
"  ?3%%::,,,,,,,,:>;<<<>O>$$=2 ",
"  ?&33::::,,,,,:>;<<;;;..,O2  ",
"   ?333:..X.:>><<11<.--X.,O3  ",
"   ?&33>....<<1<111<X+o-.O.   ",
"    ??&&33<11111111.XooXX.    ",
"     ???&&1111111<3>,X--.     ",
"      ???&&&33><;X..,X-.      ",
"        ???&3>>.XXX...        ",
"           ??&33>>3           ",
"                              ",
"           .XXXXXX>           ",
"        .ooO++@@@@@OoX        ",
"      ..O#OoO++@@@@@@@O-      ",
"     >$$##X,,-O@@@@@++@@-     ",
"    &,,,==,:,,XX+;+++$$++2    ",
"   ?%:,-==::,$,X;<1<<$$$+=2   ",
"  ?%:,*=#O::,$oOo<111oO$++*3  ",
"  &%:=*=4=.:,$+@5X<111O++++2  ",
" ?&3>2**==#o$$oO5+o111<+++$=2 ",
" ?&3>2*===#+,,,X-o.1111;+$$=* ",
" ?&32**===44o,,O-X5%&11<++$=o ",
"??3.2***==444O-,,,,,:%oO++++#X",
"?3>..2***===###+oo-X::$$O++=#*",
"?3>.::2=*=*=4####+OOX:$$O++==*",
"?3>>:,,2==#*=4####4###+++**==*",
"?&3>:,,,,X4=#==#####=44#=====*",
"?&3..:,,,,=#=**==####+o+$$$+=2",
"?&>...,,,,,*=42==4##+OX,$$$$+>",
" &3>...,,,,,$44====o,,,$$$$$. ",
" %%3>>>:,,,,,,,==::,,,,,$$$$> ",
"  %&33>.:,,$,%:,,,,,,:.O<OOO% ",
"   ?%3>XXX,,,:,-,,,:>><<;XO%  ",
"   ?%%>.XX,,-o-X>3>><11<-o+%  ",
"   ??&3>.XX-oo-;<<1111<-++>   ",
"    ?&&3>..XXX;<<11111.o+-    ",
"     ??&3>>3>><<<11113.oX     ",
"      ??&33&&>.X-;;;>>>.      ",
"        ????&>XX--XXX.        ",
"           ??&33>.>           ",
"                              ",
"           >XXXXXX.           ",
"        X--OOO+@@@@OoX        ",
"      Xoo--+6#o++@@@@@O-      ",
"     .oo$$X##=XO++@@@@@+X     ",
"    >-o,,,,=4=::$$+++;+++.    ",
"   ?>X.,,,,=4=.:,$$++<1o$O.   ",
"  ?3>>,,,,==4#-:,,$+++111O+3  ",
"  ?3.:,,,====4#:%$$+@+;11<+.  ",
"  ?%.XX==***==4#o,$o+++O1<++: ",
"  &3.X*==*24===#+-,$++++<1;+. ",
" ?&>.*#=#==*4==44#,,O+++O1O+X ",
"??3.-oO#==***===444O,,+$$,o++.",
"?&>X-oOOo,==**====##+o++$$$O+2",
"?3>.X-oO$$===*==*=4###@+++$O+2",
"?3>>.-oX$$$,=4=##*=4######++=2",
"?&&3>Xo-,$$,,,X44=#=#######==X",
"?&&1<Xoo-X:,,,,,=#=*==####+$$.",
"?&&1<.-o--::,,,,,*=4==4##++$$3",
" %%33.-XXXX.:,,,,,44====$$$$: ",
" %%%%:..<<<.:,,,,,,,==,,$$$$% ",
"  %%%%:><11<:::,$$%:,,,$:OOO? ",
"  ??%%::>><;.>:,,,,,,,,:>;;<  ",
"  ??&3%::>.---.:,--X::>><<;>  ",
"   ??33%::XoooXX-Oo;<<11<;.   ",
"    ??&&3>XX-o-XX-;<1111<.    ",
"     ??&3>..X--;;;;<11113     ",
"      ??&33>.XXX;o--;<&?      ",
"        ???&3...Xo--X>        ",
"           ??&33>.>           ",
"                              ",
"           >XXXXXX>           ",
"        -ooOOO+++++oo-        ",
"      XO+@Oo$oO##+++@@+-      ",
"     >XO+O-$$$o##+$$++@+.     ",
"    3X;;-o,,,,,=4=$$$$+++&    ",
"   ?3.<.X.:,,,,==#+$$$$OOo?   ",
"  ?>.3.>.>:,,,===##+$$$++Oo?  ",
"  &>.:,,,::,,====4#=+$$+++O3  ",
" ??%::,X-XX-==***==4=+$$+++O3 ",
" ???3>XoOo====*24===#+$$+++O3 ",
" ?&32*#o5=##=#==*===44=++++O> ",
" ?&.22X,::+@6===***==4==+++O$3",
"?&3>XX,,-OO5@o,===**===##+++$%",
"?3>.X-.>.5+5O$$$===*=*=4##+++3",
"?3>.XX<<;XOo,$$$$,=4##*=#####.",
"?&>.XX<1<;O5o$$$$,,,44===####X",
"?&>...11<1-o++X::,,,,=#===###,",
"?333>><<<<oO++-.::,,,,=====#+:",
" &%%%:>.X-X1X;XX.:,,,,$====$, ",
" ?%%%:::,,,.1111.%,,,,,,+$$$: ",
" ??%%:::,,,:3<11<.::,,,$,$$$& ",
"  ??%%:::,,,:><<;..:,,,,,,$&  ",
"   ?&&3>..,,,:3.-oX.,X-.>>o?  ",
"   ??&3>.XX,,,:-+O-X-o-><11   ",
"    ??&&3>..,X-o+O-XX;<111    ",
"     ??&3>>.X-oo--X;;;<11     ",
"      ??&33>.X-oo-;;oo3?      ",
"        ???&3.XX-o---X        ",
"           ??&33>.>           ",
"                              ",
"           .XXXXXX.           ",
"        X-o+++@++++ooX        ",
"      .-oO+@@+O+$++6@+-X      ",
"     >XXX-O++O-$$$++#+++.     ",
"    >-oX<;;;-oX,$$$+==$$$3    ",
"   ?.-O-<1<<.X.:,$$$===$$$&   ",
"  ?>XOo;<&3>.X.::,$$==#+$$O&  ",
"  &.X-X>>:::,$,::,,=====$++>  ",
" ?3>>:,::::,XXXXX-==**===+++> ",
" ?&33:,,22*=OOoo====**===++$. ",
" ?&322====##4=5=##=#=======+X ",
" ?&22**4##==$:::%+@6========+3",
"?&3222-O#4,5%%-OOO5@,======##.",
"?&322Xo666:%3>.5++5O$$=====4#-",
"?&3>.-oO+@o<1<;X-Oo,$$$$===4#-",
"?&3>X-oOO++o11<;-O5o$$$,$+=44=",
"?&>.X---o-<711<1X-o+X::$$$===*",
"?&>..X,,,,<171;<ooO+-.:,$$$==2",
" &3>..:,,,:3>>.>31X;XX::,$$=* ",
" ?33>.::,,,,,,,:%>1113%:$$$$: ",
" ?&3>>>::,,,$$$$,:3<1<3$,$$$% ",
"  ?&3>>>::,,,,,$$:>><;X.,,$:  ",
"   ?&332>.X--X.,,,,:.-oX..O&  ",
"   ?&&33>.X----.,,,.-O-XXO3   ",
"    ??&&3>..X---.:.Xoo-.<1    ",
"     ??&33>>.X-o-XXX--X<1     ",
"      ??&333>X-o+ooooX>&      ",
"        ???&3.X-oo--X>        ",
"           ??&33>.>           ",
"                              ",
"           ....XXX.           ",
"        XooO++@@@@+--X        ",
"      XO++OOO+@@@@++++o.      ",
"     >O+OO-X-oO@@++$$+++>     ",
"    &XooOOoX;<;;+++$$$$++%    ",
"   ?3X--O+O;<11>.++$$$$+=$%   ",
"  ?3.---O+o;<&&3>X+$$$$$==+:  ",
"  &>.XX---.>>:,,,,,$$$$====,  ",
" ?&3.X,,.:::,,::,,XX++==*===: ",
" ?&3>XX,,,,,,22*=4O++===*===: ",
" ?&32*======*==###=5=#======. ",
" ?&22**==***4###==$::%+#=====>",
" ?3222****####4=,5%%OO+@++===*",
"?&322*22*4#6666#:%3>5+@@$$====",
"?&3>X-**o#6555@+o<1<X-O+$$$==*",
"?&3>X---o#,$5++++o11;-OO$$$$+2",
"?&>.X--oO#Oooo-.<7111X-+++$$$.",
"?&>..X-oOoX,$,,><171<o-o++$$$>",
" &3>.X--o-,,$$,:33>.>3XXXO$$, ",
" ?33>.XX--.,,,,,,,,,::><<O$$: ",
" ?&33>..XX2=:,,,,,$$$:3o<o$$% ",
"  ?&33>.XX*2.,,:,,,,$,:3<.O%  ",
"   ?&33..22**==oo-X.,,,.XXO3  ",
"    ?&3>.22***4###oX:,,-o+>   ",
"    ??&&3>222**o#6OX>.XoX3    ",
"     ??&33>...Xo#6+oXX-X3     ",
"      ??&333>.Xo6@@+o-X3      ",
"        ???&3>.XoOoo-.        ",
"           ??&33>.>           ",
"                              "};
