/* XPM */
static char * r101_xpm[] = {
"30 480 31 1",
" 	c None",
".	c #303030303030",
"X	c #505050505050",
"o	c #606060606060",
"O	c #707070707070",
"+	c #808080808080",
"@	c #404040404040",
"#	c #909090909090",
"$	c #A0A0A0A0A0A0",
"%	c #B0B0B0B0B0B0",
"&	c #D0D0D0D0D0D0",
"*	c #E0E0E0E0E0E0",
"=	c #000000008080",
"-	c #30304040D0D0",
";	c #F0F0F0F0A0A0",
":	c #E0E0E0E08080",
"?	c #E0E0D0D06060",
">	c #10101010A0A0",
",	c #50506060F0F0",
"<	c #505090909090",
"1	c #000090900000",
"2	c #0000B0B00000",
"3	c #D0D0B0B04040",
"4	c #000070700000",
"5	c #0000D0D00000",
"6	c #C0C080801010",
"7	c #6060B0B0B0B0",
"8	c #D0D090903030",
"9	c #F0F0F0F0F0F0",
"0	c #7070E0E0E0E0",
"q	c #C0C060600000",
"        ...XoOOO+O@..         ",
"       .XOO+#$$%%&%$#X.       ",
"      .XO++++#$$%&**&%#X      ",
"     .=@X---O#$$$$&*;:?#@     ",
"   ..==>---,#$$$#<#$:???+@    ",
"  ..>=>--OO#&&%$+12<$%??3+@   ",
"  @@.@@oOOOO4$$+1252<#$$33O.  ",
" .@@44Xo1112+$--X12522<<25<@  ",
" .@411111111OO---oo25522222O. ",
" .411111211111o>>>-o1222225O. ",
" 4441O66111121O-----Xo11125<@ ",
"411oO+66111111+++-+#>oOXX122o.",
"4OO++O<+6111221+#&&%$-,-@<<<O.",
"X++++O=<OO112222+$&&$7---#%7O.",
"X++++<<=<<OO+222252$<7<X+%&%+.",
"X+++++<<<7=O+822252$<==O#%*:#.",
"XooO<+88<=<<++8222%9007O#%::#.",
".4411<+8+<<==<638+*707<O#3?%o ",
".@@411OO88<<<<#883$0=<o+3?%<@ ",
"....oOOo+87<<<+#$?$07<O33%7<. ",
" ...oOO<<+8#77<<+##77<<##$<4  ",
"  .@oO#+<1o88###$$777<22<<O   ",
"  ..@o+#<11o88883$777<211OX   ",
"   .>@oOO111+388#777<<oXoo    ",
"    .@XoO111O88+<2<<#+ooX     ",
"     .oO+<111836222#$$+X      ",
"      +O+#+<O333257%%$        ",
"        oO+##$%%77$$+         ",
"           oO++##+            ",
"                              ",
"        ...XoOOO+O@..         ",
"       .XoO#$$$$%%$#+X.       ",
"      @XoO+##++##%%%&%#@      ",
"     ..>---,,--,+$$$%&?+@     ",
"   .@.==>>----,,#%%#+#$3+@    ",
"  .@X>>>>>->#$#$&9%$O1<#3+.   ",
"  4X@>>>>XX+$#+++4&%<222+#o.  ",
"  @X->>4111#22221+$,X122221.  ",
" .@X-X4111+112221oO,--o22224  ",
" 444441111211222211X>>-o1221  ",
" 441111416668122221O----X1114 ",
"411111+6666662222211O+,+ooX44 ",
"X111o+88#<<<#82222211#&$+o-X4.",
"XooO+++8<<<=<<O122222+$%$<-o<.",
"XOO++++88<77=<<O++22555$#<OOO.",
"oOO++O888377<=7=++3255577<<++@",
"oOooX1O+$38337=<<++335577<O##@",
"Xooo441111+#387<==<O83#777+#O ",
".oOoX.4111+1+3$<<<<#33$7<<$#@ ",
".XOX@>@oOO#12#$7<<<+#$$7<<$+. ",
" @oo>>@O++O212%3$007###7<<<X  ",
"  oo>>>oO+$&$21883$$$$77<<1   ",
"  @oX>>>-+$$<21O3333$$77<1@   ",
"   @XX.>>-##2211#333<<7<X.    ",
"    @oXX--O+2212333222<<@     ",
"     XoOO+###2123?322<#o      ",
"      +o+#$$$#<<3?$<<<        ",
"        XO+$$$$$%%<<O         ",
"           o+++#$+            ",
"                              ",
"        ...XoOOO+O@..         ",
"      ..XOO##$%%%%##O@.       ",
"     .XXO++++#%$###$$+O@      ",
"    .X11oX----,,,-,+#$#+@     ",
"   .XooXX>>>>>----,#$%$#O@    ",
"   @O<OX>>>>>>>>-%#$%%%+Oo.   ",
"  .@O+O->>---Oo#$&+++#$<22X   ",
"  .@OO-----O112##2221<+<121.  ",
" .@@X-----11222#212221<--X14  ",
" @44XX44111112222252221o--o4  ",
".@441112221141888312221XX-o@. ",
".X411112211#668888522221oO+X. ",
"@oo11111O#$333<<<$3322221#$+@ ",
"@oOOoOO88833337<=<7#O2222<$+@ ",
"XOOO66+8883333777=<77O+2555<X ",
"XOOO66+#$333383777=70O+2555<o.",
"X+++++<o11O+#$333300=7++#<77o.",
"@O++O<O<4111222#$?3#0=o+33%7@ ",
".oO+O<oo<>4112#$2#?$77<+3?%<. ",
".XO+OOXo->X4&+#$22$%077#$$%O. ",
" XOOOooX->>>O##+222&%$77#$7o  ",
"  oOOOo@>>>>++&&%%2<33$$#<<   ",
"  @ooOoX>>>>-+%&%521333$$<4   ",
"   @oOOooX>>>-#%7221$?3<<o    ",
"    XoOOo1X---+#<21<33<<o     ",
"     X++O1<++#$#<2133#<o      ",
"      #O++#$%%%%$<<33<        ",
"        oO+#%&&&%$+#O         ",
"           o++#$$+            ",
"                              ",
"        ...XoOOO+O@..         ",
"      ..XoO+#$$%%&$#O@.       ",
"     .o++O<+####$%%$+OO@      ",
"    .X+<111oo----,,,-,#O.     ",
"   .XOO111oo->>>>>---,#$O.    ",
"   .Xoo<##O->>>>>>--+#$%#X.   ",
"  .@41O+#$+-->----XX#$#+<<4   ",
" ...41oO-+-----O1112#<22<<1.  ",
" .@411X-------O12222#2222<o@  ",
" .Xo1144XX4111222222522221X@  ",
".@oo1111112222221413331222X@. ",
"@Xooo11122222222$8333332221oX.",
"XXXoOoo1222222$%3??%<7$+222<O.",
"XX@oOO+#O6663$33?3:00=7+<222<.",
"XoXoOOO8qq6333333?3?00=<<<25<.",
"XoXoO+66qq6#%%333?3??0777++7<.",
"@ooO++68<7<<<11+#$%&???7<<+$+.",
".oOO###+<<<<<<1122222%%$<<+#O ",
" @o+++#<<<<<<<o1122#$2$%7<++@ ",
" @O+666+<<=<<->o19+#%<7%777<. ",
" 4o+66+<<<<7<->>>O$##<<%%77<  ",
"  XOOOO<<<<==->>&+$&%<2#3%7   ",
"  .oOOO+<<<X-->>-,$&%52+3$<   ",
"   XooO++OoooX>>>-#7522##<    ",
"    @oO6++Oo11o---<<222+o     ",
"     X+++##<2<+$$$$<22<1      ",
"      #O+$$$#$%&**&7<1        ",
"        oO+$$%&&*&%+X         ",
"           o++#$$+            ",
"                              ",
"        ...XoOOO+O@..         ",
"      ..oO+##$$%&%$#+X.       ",
"     .oO#$$####$%$##$+X.      ",
"    .o+###+<22<OO---,,-X.     ",
"   .XO++++<22<<o->>>>---o@    ",
"  .@oooOO22+&&%#->>>>>-,#+@   ",
"  .@@XXX111+%&%#->>>--Xo#$O.  ",
"  .XXX@@111O#-#----,o411<<<@  ",
" .@XXXX111oo-----,,,o1222224  ",
".XXXXoOO111114oO111122222224  ",
".oo>@oO6+11212222555224+3#214 ",
"XOO@@X6621111122225552$333#24 ",
"o+OoX@@O66++O2222522O&??%$##1 ",
"XOOOOX=X6666$$+838?%???:%7#<1 ",
"XOOOOOoo666663qq6?3?????%7<<1.",
"XoooOo=@636688666%&&&???:%77O.",
"@X44oOOO63836377<<<11+#$%%%$O.",
".X411O+q6%$8$$<<<<7<4122<$%#X ",
" @X41o+$q683#77=<<<>@42<<<$+. ",
" @X44o88q666$7<<=<<>>X+#<<#O. ",
" .44oO###q68#7<=<07>>-#$#<<o  ",
"  44o++++668<<7<==->-O$&%<O   ",
"  44o++<O+6++<<<<o->>-#&%<o   ",
"   4o++<O+66+<<o<<X>>-+$#O    ",
"    XO<<<+668#+<<2<--o<+O     ",
"     X++##883$$#<7$%$#+O      ",
"      OO##33%%%%%&**%#        ",
"        oO+$%&&&&&&%+         ",
"           o++#$$#            ",
"                              ",
"        ...XoOOO+O@..         ",
"      ..oO+#$$$$%%$$+@.       ",
"     .o+#$$%%%$#$$$%#O@.      ",
"    .o+##$333$<2<<<O--->      ",
"   .X++++833#<22<<<o->>>>.    ",
"  .XO+OOOoO+<22#19%#->>>-X.   ",
" .@oooooo==o121+$99&->>--oX   ",
" .oXXXXX<<->121++###----o11.  ",
".Xoo@@@=oOoo222OO,,,,,-<1224  ",
".oOOo@@<<O66+222114XX4112221  ",
".o++OO<==O+68#212122555522<1. ",
"@O+++#<=oXo66311222255552<3#X ",
"XO+++++<=XXX+88++O225552#%?%+.",
"XOOO++O+<<<=o+883$%#+333??:%<.",
"XOoOOOO+O<<<oO888333q8?::??%o.",
"oOoXoo1O++O=o+38833368%%%??%o ",
"XoXXXX14+++++83338?%0<7<<+$$O.",
"@@@--X111++66q&%3%%0<<<<412<O ",
".XX--X111483%q333%00=<<X@12O@ ",
".XX@XX114438&q888%07<oo->X<O. ",
" @@@4111O8886&688$0<-----oOX  ",
"  .4411O#8887788+<77----,+<   ",
"  .4444O88##<+###<<<<---o<1   ",
"   @44X+88+<<+88##<<<O->XX    ",
"    @oO#8#<<+8833$O1<Oo@.     ",
"     @O####$#333&%#<7$#@      ",
"      oO##$$%33&*&%%%$        ",
"        oO+$%%%&*&%$#         ",
"           o++#$$+            ",
"                              ",
"        ...XoOOO+O@..         ",
"      ..oO+#$%%%&%##+X.       ",
"     .XO#$$%%%&&&%$$$+o.      ",
"    .XO+#$33%3??%$<22<O@      ",
"   .XO++#8833333$<55<<O-=     ",
"  .X<<<++O++#++##55<%&$->=    ",
"  Xo<<<Oo=<<<<=OO221%&%+->.   ",
" .oO<<Oo=<<=<<->@121+#$,--X.  ",
".X+O<<o<=<<<=<OOO222ooO,,<<4  ",
".o++<<<<<==<7<#88+22211o<121  ",
".oO+#####<<===O+83#215222551. ",
"XO++++88##7<=<OO88?512225552o.",
"XO+++6q68###<<ooo+333+O2555#+.",
"XOOOOOO66866#<<<=o+333%#+333#.",
"@O++OoO66666##<<<o+3333383??#.",
"@O+O<ooO++11+##+=@+3?33333%%+.",
"@OO<<o=>o1111<##++33??3$$7<<o.",
".o<<oX---O1122#$88q89?%77<<14 ",
".X<<Oo->-O1111$339q???%7<<X@. ",
".XOO<o>>oo1114$339q33?07<<XX. ",
" XXXXX@X11114#3383983$7<o-o@  ",
"  @@41111114$33870?3#77<--o   ",
"  @X4111111+333#7733#777,-@   ",
"   Xo11111+833+<7#33#<<<->    ",
"    XoOO+##38#77#333$<<<.     ",
"     XO++#$$$$$%3?:&%<<o      ",
"      +oO#$%%%&&::;*%#        ",
"        XO+$%&&&*&%%#         ",
"           o++#$$#            ",
"                              ",
"        ...XoOOO+O@..         ",
"      ..oO+#$%%%&&%$O@.       ",
"     .XO+#$%%%&&&**&$<X.      ",
"    .X++683%%33??::&$<2@      ",
"    @O<++83333833??%#55<X     ",
"   .oO<<<+##38++#+++<257#o    ",
"  @oO<<<<<<<7<<<<<==X22$%#@   ",
" .XO++<<<=<<==<==<<-@12<##-.  ",
" XO++#<<<<=<<=<<<=<ooo22<O-@  ",
".o+++#+<<<<7<<==<0<#332211<4  ",
".o+O++#$$$$#$$<<===O+3#222214 ",
"XOO+++$$##333#$7<=<oX33222251 ",
"XOoO66886qq6833$$7<=@@+#3+251.",
"Xo@XO6q6666688383$77<=@333$#O.",
"XX@Xo+#+ooO+68888$##7<o33333+.",
"Xo@XO++<<Ooo+#+22+###=@33333+.",
"XooO++<<<<<=-O1221<##++3???$o.",
"@ooOOO<<=<=---O22222#383::%<X ",
".XoO<<o<<<----12221$??83?%7<. ",
".oOO<<--<<---O22214%??333$7-  ",
" X+OooX@o<-Oo12114$?:%333$<@  ",
"  oOOo@411122111#%?:%%?3$7-   ",
"  @OOo@11111111#%%?%77$#7<@   ",
"   XooX111111o+33%%$$$3#<@    ",
"    XoooOO++##$$%77$$33+X     ",
"     XoO+683%%&%%0%??:%o      ",
"      OoO668%&&&&*;::%        ",
"        XoO8%&&&**%%#         ",
"           o++#$$#            ",
"                              ",
"        ...XoOOO+O@..         ",
"      ..oO+##$%%&&%$#X.       ",
"     .XO#$$$$%&&****&%+.      ",
"    .Xo+####33&&&:::::%o.     ",
"   .@XXO+#77#3%%??????%+1.    ",
"  .@@ooO+<<<<<<<$?#####<<<@   ",
"  @ooOO++<<<<<<<<7<=O<OoX<<.  ",
" .oOOO+66<<<7<=<7<=7=-oXXo<.  ",
".XO++++6+#777<<==7<<<7ooOO<@  ",
".o++#++<##$7<777<07===<O++24  ",
".o+###+<<<3$%%%%%%%0<7=O++214 ",
"XO+###6<<633$$???3?%%07OoO+24 ",
"o++++OoX6663338qq83??%$<oo++o.",
"X++OOoX=6666q8883833333#<OO#+.",
"X++OoX=oO66$$#+O+#83333##OO38.",
"XoooXXo=O####<<+Oo+##22##++38.",
"@XXXXooO+$<<7<7<<=-Oo22<+#+38.",
".XooooOO<<<<<7=<=-,,,222<$33O ",
".XOOqq6<<<<<7<<<---O1221+33+X ",
" XOO666+<<<=<=<----o221O$33+. ",
" .o+++++<=<7==<--oo222<#?3#o  ",
"  XO++++OoX=212222221+3?%$+   ",
"  .o+#++++o412222212#%%%%$o   ",
"   XO+++++Oo111111<#%%%$#O    ",
"    XO+++OoO+++#$$$%%%%$O     ",
"     @oO+OO+8833&**%%%%#      ",
"      4XO+++#83?*99*&%        ",
"        XoO#$$%&**&%#         ",
"           oO+#$$#            ",
"                              ",
"        ...XoOOO+O@..         ",
"      ..oO+#$%%%&&%$#X.       ",
"     .XO#$$%%%%%&*9*&%#@      ",
"    .o++O+#3$$$33;9*::?#@     ",
"   .XOOoXo68$77#$%&:???%O.    ",
"  .XOoXXoO6677<<<777$%$#<4.   ",
"  @ooooO66667$7<<77777<<oX4   ",
" .oOXoO668886$7<707=7<o<oo14  ",
" @<OoO+$+#366$%77077==<oo<<4  ",
" XO+O+#$$$677$%%770007<<oO<X. ",
".XO+++#$$$#67783%&&&&&%7<oOo. ",
".o+++#$$$$#67763?%&&::?%$#ooo.",
"X++++++##6+OoO883??33q8?%$<Oo.",
"o+++++O6oooo=o883q33333333$+o.",
"o+O+++O<o<<=<=88%&$+OO#333##o.",
"oOOOOO<<=<<<=O#$$$7=7oo++<<#O.",
"oOoOooo=<OoO+#%<<77<0<=O<22+O.",
"@oOOOOooOOq6#$<77<0<==-,<22oX ",
".oOO++6qqqq6<<7<<077<--o121X. ",
".XoOO+666q6+<<7<=7=7,--<22Oo. ",
" @ooO+#888#777<77==<<oo12<#O  ",
"  @Xo+#$###$7<==<2122112<$#   ",
"  .@XO+#####++o41222211<$$O   ",
"   .@XO####+O++O112211<$%O    ",
"    @Xo+888#O<++##$$$$$$+     ",
"     @O++668####33:**&$+      ",
"      oo+6683$#$3?:9*%        ",
"        XoO#$$%%?&%%#         ",
"           o+++#$+            ",
"                              ",
"        ...XoOOO+O@..         ",
"      ..oO+#$%%%&%%$#X.       ",
"     .o+##$$%%&&&&&&&&#@      ",
"    .o+##8#+#$333%%?;*:#@     ",
"   .XO+#++OXO883$7%%:&:3+.    ",
"  .XO+O+++X=<886700777%$#X.   ",
"  @O+O<oO<<=688670007777<<X.  ",
" .XO+<<X<<<888388800777<<<o.  ",
" .o++Oo<o663%$%388%&0077<<<X. ",
" 4X+++O666$%%%$670%&&00777<X. ",
" 4X+#+#8##$%%%%$6003?&&&&%7o. ",
".Xo+##+#$$%%%%%$87008:;&??%#X.",
".oOO+##$####$$8++XO83???333$O.",
"XO+OO+##88368+OOX=X333q33333O.",
"o++++++6883+77<<=<=+3&&++#33O.",
"o+++OO+683<<<=<<<=o+$%$<<++#O.",
"o++O<Oo<=<<<=<+O++#$&70<<<oOX.",
"@OO<<O+<<<<<<<O66#%7707<---o4 ",
".oO<<++666666q666770<7<<,-o@. ",
".oO<<O6668668668$770<--<,-o4  ",
" XooooO668$3333$70077<X<<<<X  ",
"  @XoooO68$%%$$$$07<<2222<O   ",
"  .Xoo11O6#$%%$$$$+o122222o   ",
"   .XOO1oO#$$$3$###O11221o    ",
"    @o+O<O#3333#77#$$$$#o     ",
"     XOO++#88838##$3?:%+      ",
"      +o+##$8333$$3??%        ",
"        XO+$$3?&&%$$#         ",
"           o++#$$+            ",
"                              ",
"        ...XoOOO+O@..         ",
"      ..oO+#$$%%&&%$+X.       ",
"     .XO#$$%%%%&&**&%%#@      ",
"    .XO##$%33$##$?:?%%&#@     ",
"    XO++83#3#+<@o3??%%%%+.    ",
"   @OO+6#++<77==<33?0077$o.   ",
"  4oOO+6#<<7<<<=8333%0077<@   ",
"  411oO88<<<7<<833??8%%77<@   ",
" 4411o+88<=<<<883;%;?3%&77<.  ",
" 44111+88833683%&*&%80%&&07O. ",
" .4111+8$#$33$$%&**&$80%?&&$@ ",
".@411o$$$$$###%&&&*&&30%?:&%+.",
".X41OOOO$$$$%%$$$%%%3OX#3???#.",
"XoO<##+OO#$$$$3338+ooX=#3?336.",
"X+++##+8O+##6333#07<<=<+3%$$O.",
"X+####86<77#883<<7==<<=+%%77O.",
"XO+###<<<<<<<7<<<=<<OO+#$777o.",
"@oO++<<o<<<<<<77<<<OO8$7707<@ ",
".@o+O<<<<+66683888q66877777o. ",
" @oO<<<<<+66883883883$7777<X. ",
" @oo<<oo<1#868%%3???%777<<<4  ",
"  XX4XoOo11+86&%%&%%%%7<121   ",
"  @44XoOO<2<+8$%&&%$$$#1124   ",
"   .@@XO##<118$%%%%#+#$<14    ",
"    ..@O+++<O833333$<#%#o     ",
"     .XOOo<<#$38333$#$%#      ",
"      1oOoO<$%383?%$$#        ",
"        @oo+$%?3?&$#+         ",
"           o++##$+            ",
"                              ",
"        ...XoOOO+O@..         ",
"      ..oO+#$%%%&&%$#X.       ",
"     .XO#$$%%&&&&&&*&%#@      ",
"    .X+##88$%&&??:%$%:%+@     ",
"   .XO+#668833333%7-o$%%+@    ",
"  .@oO+6666688<<<07-X+%%7<.   ",
"  @XXO+6666667<77<<7O#3%%7o.  ",
" .@41Xoo1268337<<=70333?%%<@  ",
" .@1111111633377=77333:&%%$o. ",
" .@41111116#$3333?33?;*&%%%+. ",
"..@44111111#33$%%??%%&**&%07X ",
".@@@@@12111#$%%%%$%%&**&&%7%+.",
"@X@>>X111O+#++%%%&&&%%%%$++$#.",
"@oX>-o+$#$$33+#$&%%%??3$+Oo#+.",
"4ooXXO#$1%$333##$%8???#<OoO+O.",
"4oXXo+$$%$$338777$33?<7<ooo+O.",
"XooXo+$$$3##<7<<<<70=<<<OOO#<.",
"@oOOO+888#<<7<<<<77770#+++#7< ",
".oOoo+66#<<<7<$$8333?336637<. ",
".XoXo++8#<<<<<#3883???383$<@  ",
" @oooOO<<<<<<22#$33?::??%7X=  ",
"  Xoo1111oOO#+22+#3?:*&%%<4   ",
"  @oX1114XoO##<22<33&&&%$O4   ",
"   XoXXX@>-+$$#<223?&&%$#X    ",
"    XXooX--+###<<<3??%$#o     ",
"     @oOOOO+OO<7$$3333$O      ",
"      +o+###<<<7&:??3+        ",
"        XO+###$%&&3#+         ",
"           oO++#$+            ",
"                              ",
"        ...XoOOO+O@..         ",
"       .XO+#$%%%&&%$+X.       ",
"      @o+#$%%%&&***&&%#@      ",
"     @oO+$3333?&&;:?:&$+@     ",
"    @XoO+#388833?:?3%7<+<@    ",
"  .@oXXo+#36883833%%%7<+$+@   ",
"  @XX14oO#$3688883077<<#3$O.  ",
"  @X411111OO2288??00<<<#3?#@  ",
" .@X4111111122883??00=#3??%O. ",
" 4@.@@1121111228$&????$3?&&#. ",
" @@@>@o111112211$??%&&?%&**$@ ",
".XooXXooXX112222$%*%&&%%&&&%<.",
"4XOOOo->>-o122+#$+++&&&&%%%$O.",
"@4oO+o>>>+##%%%%?3+##&&&??%+@ ",
"X111oOooo#$%%2&%3?33#$%??%$O. ",
"@111OO=oO#$%&&%%3?3700$%$7<o@ ",
"@ooO<<<=O#8$$%3?$<007<<7<<<Oo.",
"@oO+<<O<+66833$<70<<77$$77OOo ",
".XO+<<X=O6836$77<07$$333?3#O@ ",
".XoO<<Xo+8368$7<<77#?33??33O. ",
" @oOO<<<O6<<<27<<<22#$?::?$O  ",
"  @oO<<<111221OO$$<2<#3&&%#   ",
"  .XO<<<11111Xo+$$#<2<$&&%o   ",
"   @oo<<oooXX--#%%%7253%%O    ",
"    @X11o+Oo--,#$%%<<3?$O     ",
"     @X11O+++O+<<#%$$33O      ",
"      4X1o+$$$#<<7%&%#        ",
"        @Xo#%%%$$%$$+         ",
"           o+++##+            ",
"                              ",
"        ...XoOOO+O@..         ",
"      ..XoO#$%%%&&%$#X.       ",
"     .@oO+#$%%&&&**9&%#@      ",
"     @oOOO+$%333?:;9*:?+@     ",
"    @oOOOoO#$33333?:???#o.    ",
"   .X++Oo1oO3338833333%#+o.   ",
"  .@o+O1111o#$%383333?%7<+O.  ",
"  4XXoo4122211++2253??%7<7#@  ",
" 444X--o4121222122233?:%7$$O. ",
" 4444@>>Xo11222222223%:::%%#. ",
".4444X>->-o1111222211$??&:&$X ",
"@414Xo-O>XoOooO122522$;%&&&&+.",
"@1114o#$++-->=-O2252+$+$&&&%#.",
"Xo1111O$+<<->>#$%%&&&??$$%%%+.",
"Xoo11111o<<<<o$%&9229??%$%??O.",
"oooo1111<7==<<#%&999;??%77$#X ",
"XXXooo1+<<<<=<$3%%;;?%77777OX.",
".XXoOO+$<<<<<=883???%077777O@ ",
".XXoOO++<<<<=+8333%00<7#$$3O. ",
".XOOOO++<<==<#3383%0<<<#$336. ",
" @O<<O++<<<<<#8<<7207<<<#33+  ",
"  ooOOO+<<<<212222<<##<2+3$   ",
"  XooOO+<<<<222214o+$$#2<#O   ",
"   @oo+O<<<<<OoX@@-$%%7<#+    ",
"    @oOO111<O+O---,%%$#3O     ",
"     @oOo111<###+O+<#7#O      ",
"      #XOO12<$%%%$+<<+        ",
"        XOo2<$&&&$++O         ",
"           XO+#$$+            ",
"                              ",
"        ...XoOOO+O@..         ",
"       .XoO+#$%%&&%$#X.       ",
"      @XoO+##$&&****&%#@      ",
"     =>--O+###%&&:??:;:#.     ",
"    =>--O++++<#%&?333??3O.    ",
"   =@XoO##+O111+$???3333$<.   ",
"  .@XooO+#O1221O#$%&3333%7o.  ",
" ..4111o#--o1222111+22<33%<.  ",
" .44111O---oO1222222122#3%%o  ",
" 44111141X>>-o12255222223%%+. ",
" 4o111111O--->oO11112222<%%$@ ",
".ooo1111OO+-++OO+OoXX252<$%%+.",
"Xooo11111O+$%$#-->=>-22<7$$%#.",
"oOooo11111+#%%<<->>-$%&%%%$$#.",
"o<oooXo112222#7<<<OO%*9&::3%#.",
"o+OoXXO622222#7==<<O$*9&::%%+.",
"XOOoXXOO6222#&<7<=<O$;;::%77<.",
".XOOOoXo686O%<<<<7=#3?::&777o ",
" .oO+OOo<+66#7=<<=+3??%%07$+@ ",
" .XoO+OO<O#8#7<==<#??%%777#O. ",
" =@oO+++O<O#+7<7<7$37<<77<<o  ",
"  .oOoO++++#77<<<22222o+#<O   ",
"  .Xo11O+66#77<<<22114o+#+o   ",
"   .X11oO666<<<<<<oX@X+$$o    ",
"    .X11o66O122<##O--,$$O     ",
"     XO1oO662222$$#+O<#+      ",
"      +ooO88+22<%&&%<<        ",
"        XoO8#<<7&&%$O         ",
"           oOOO#$#            ",
"                              "};
