/* XPM */
static char * r110_xpm[] = {
"30 480 27 1",
" 	c None",
".	c #303030303030",
"X	c #404040404040",
"o	c #505050505050",
"O	c #707070707070",
"+	c #808080808080",
"@	c #606060606060",
"#	c #909090909090",
"$	c #A0A0A0A0A0A0",
"%	c #B0B0B0B0B0B0",
"&	c #505090909090",
"*	c #6060B0B0B0B0",
"=	c #0000D0D00000",
"-	c #0000B0B00000",
";	c #000070700000",
":	c #808010108080",
"?	c #A0A02020B0B0",
">	c #10101010A0A0",
",	c #000000008080",
"<	c #30304040D0D0",
"1	c #000090900000",
"2	c #F0F03030F0F0",
"3	c #E0E0E0E0E0E0",
"4	c #D0D0D0D0D0D0",
"5	c #50506060F0F0",
"6	c #F0F0F0F0F0F0",
"7	c #7070E0E0E0E0",
"           .XoOO+O            ",
"        Xo@O+#$%%$##O         ",
"      Xo@O+#$$$$#&#%*&O       ",
"     Xo@@O+$$$#&@oO++=*O      ",
"    .oooo@@+$#--;;:?+-=&@     ",
"   .XX;X>>,<O1--1;:?O---@X    ",
"  .X...>,,<#$$1-11:2---=-;.   ",
"  .;;.,>,<+#%$--::2---&==-1   ",
" .;;..,,+@+%%$--:?2$$#$==--;  ",
" XX;;;,,>OO++1::??$=--+#=--1  ",
" X;;;;,X;#OO#-:??--;;+:$&-1;  ",
".X;;;;X;111+O1??$--;;#:2$-1;; ",
".o;;;;;;1111::?#-1,,;:?+3=-1; ",
"Xooo;;;O+::::?--,;-+:?2=%-1oo ",
".::::::O:::??-,--,O+2===-1;oO ",
"X:::::::::??--;--+O+-====1;&+ ",
"XoXXoo@@::-11,1#+1-----$4&1@@ ",
".X;;;;OO::+;;1?::----1O44#@XX ",
" .;;;;;;O:::??:----11O+++O@;  ",
" .;;;;;;1;::::1----11O<<oo11  ",
" ;;..;;;;;11-------1-o><o1-;  ",
"  ..>>>@;;11+-----@O5<o1--1   ",
"  ..>>>>@111#+----+%5&1--1;   ",
"   .XX>>>>@oO$#+++14+1--Oo    ",
"    .X.>>>>>><$$$4%%+&&Oo     ",
"     .XX>>>><<<<5#%$##+@      ",
"      .X.>><<<<<5#$$$#@       ",
"        ..XoOO++#$##+         ",
"           X@@O+#O            ",
"                              ",
"           Xo@OO+O            ",
"        XooO+#$%4%$#O         ",
"      Xo@OO+$$%444%$##O       ",
"     .o@OOO#$%%44%#&@++o      ",
"    .Xo@@o1O#%%%%$-1o@@Oo     ",
"   .ooooo;1@<>,<+--=1X@O&;    ",
"  .:oXX.;@@<,,<#%%--1o@O--;   ",
"  Xoo;;;;,<>,,+$43==::?+--1   ",
" .ooo;;,,,>>>%#$464=-:2+&&-;  ",
" .o:o;;;11>>>>###+-::?$=-&&;  ",
" .o:o;;,;;>>o;++#$-:22-;1OOo  ",
".X:o;;,;;;>o;1--#$-:?$-;;O+O; ",
".X:oO;;;1;;11----::?2=;,;@#$1 ",
".XXo@O@O;;11+#:::?22=,;+:@&&; ",
"XXXo::::::::O?????=-,=,+2&=-. ",
".XX::;::::::?-???-=,;-O+--=-. ",
".Xooo@;@@@+OO??---,--O1---&*@ ",
".X:o;;;;1;O+$:?$;1-2?:---1##@ ",
" .XX;;;;11111#:????:---11&O@  ",
" ..;;;;;1111-1::?::1---11o@X  ",
" .;;;;o;;;111----=-=---1;oo;  ",
"  ;;XX.>>><<1----#1---&&@@;   ",
"  ;;Xoo<<<<<O111-#----++&&;   ",
"   .;o@@@>>><<OOO$%+##$#&o    ",
"    .;o@@<>>>>>>><##%4%#@     ",
"     ;;;;X>>>>><<<55$%$+      ",
"      ;;;;o<<<<55<55#+O       ",
"        .Xo@@O+$$+OOO         ",
"           Xo@O+#O            ",
"                              ",
"           Xoo@O+O            ",
"        Xo@O+#$%44%$+         ",
"      Xo@O+#$$%44334%&o       ",
"     X@ooO+#$##%4334%&@X      ",
"    XooXo@+O+--#44%$#-ooX     ",
"   XXoooo:O@1-1O<>><+&-;oX    ",
"  .XXXo:oO;;1-@<>,,<4*=1oOo   ",
"  .oXoo:o1;11;<>>,<+63*-@OO   ",
" .X:oo:o;;1;,,<>>>6#%64&@O+@  ",
" .X::O:@O1;,;-<>>>>$$#-:@O&@  ",
" .X::::OO11;,;<>>@1++#-:?O-1  ",
".XX::::@111,;;;>@;1--#$:?O1;o ",
".Xo:::::+1;1;;;111----:?2@;oo ",
".Xoo@;::O+#++;;11+#%::?2=;o@o ",
".oXXo;:::::?:????+2??22-,1@O1 ",
".X;.X;:::1::?:????=222=,;1&&1 ",
".X;.X:::@@+;O+++#+?22=---@1-& ",
".XXX::@@1;11---O$%:?2;;2?@1&@ ",
" XXX::;;1111------$:???:@11o  ",
" .XX:o;;111-------1::?:1--1X  ",
" ..XX;;;;;@@;111----------;.  ",
"  ..X;;@@><<<<<<O1---#---&o   ",
"   ..;;oO<++<<<<<O11-&&-&&o   ",
"   .;X;;o+#+<>>><<<oO$##&o    ",
"    .X;;;1O+O>>>>>><5#$#@     ",
"     .;;;;1@oX>>>><<<5+O      ",
"      ;;ooo1o@<<<555<<o       ",
"        Xoo@O+++#$#Oo         ",
"           Xo@O+#+            ",
"                              ",
"           Xo@OO+O            ",
"        Xo@O+#$%44%$#         ",
"      Xo@OO+$$%444334%@       ",
"     Xo@OO1&#$%%%%4334$o      ",
"    X:oo@111+$%$==*$%$#@X     ",
"   .o:o;;;O:::+OO=-@<<o&OX    ",
"  ;XX::X;O::O+;;,-Oo>><+$OX   ",
"  ;;o:::;O::O;;---,<>,5$%$@   ",
" ;;;o:::;O::+1--;,,<>>6$%$&;  ",
" ;;;;o:::#::+#-;,1=<>>>$$#O;  ",
" .;;;;o:::::#$--1,1<>>;+++@X  ",
"...;;;::::::O#--,;;;;X;--&@o. ",
"...;;;@::::??#-1-1;-;11--@@@X ",
"..X;;@@OO1-???$$##;;;1+%:@O@o ",
".XX;@@@,@11?::????????O???@oo ",
".XXoo@;;O11:?:-????????22+@1o ",
".:oo;;;,@::::+++1++#+#O22O;1; ",
".:oo;,Xo:::@O;----=--%4?2@oo; ",
" XoX.;@:::;11------==-$:??@;  ",
" XX..,o::@11-1---====-1:@@1;  ",
" .;...@:@;1111@@@;111--1111;  ",
"  ...XX@@;11@<<<<<55@1----1   ",
"  ...;.Xo111++##<<<<5@1&&&X   ",
"   .;;.XX;11+44%#><><<@++o    ",
"    .XXXoo11O%%%<>>>>><++     ",
"     .X;;;111&&&@<>>><<o      ",
"      .;;;@@&11&+<<<<@o       ",
"        .X@OOO+#%#OO@         ",
"           Xo@O+#+            ",
"                              ",
"           Xo@OOOO            ",
"        Xo@O+#$%44%$+         ",
"      .o@O+#$#$%43344%#       ",
"     .o@OO+##+&&%44%%%%#      ",
"    .oo@O@@;$---#$%$&&*#@     ",
"   .Xooo:::1;;#+?:?+@1&&o.    ",
"  .X;;;o::::1;+???++;;1X>Xo   ",
"  .;;;;;o:::?-#???;--=;X><O   ",
" .;;;;;;@@::::#???+--=,><<OO  ",
" ...Xo;;11::??%???#==;;-<<O@  ",
" ..>>,o;;1@@:?:???$==-,;X<&1  ",
".;.,,>;;111@::????#%==,;;X11; ",
".;.,>>@;111++?????2$%;-;-;1&o ",
".;;.,@;11;++++#--22?$$#;;oO+@ ",
".;;Xoo@1@OO+O,+--??:?22??@O+@ ",
".XXoXo@;OO+1-;O-1???:??????Oo ",
".::::::@O;1;;,O????+#+;+#++OX ",
".o::::@O1;,oo@??:OO;-===-&+O. ",
" Xooo@O;1,@@@::@11---====-@:  ",
" Xooo@;;,,@O::O1-1=---===-oX  ",
" .;;;.,,;;++::1---1;oo;1--1;  ",
"  X;;..;;,;O@O---O55555<&-1   ",
"  .;;;..,;;;>o--1+#5#55<<&o   ",
"   .;;...;;,o@--1$46#<<<<@    ",
"    ;;XXoo@OO+--#1%%5<><<     ",
"     .ooo;;11-&--&&&<>>>      ",
"      Xoo;11-&##&&&&o>>       ",
"        XooO&#$$$$+O@         ",
"           X@OO+#+            ",
"                              ",
"           Xo@OO+O            ",
"        Xo@O+#$%44%$#         ",
"      .Xo@+#$$%444434%+       ",
"     :::o@+$%$$%%**%44%+      ",
"    .::::@+#%?;1?--&$%$#O     ",
"   .Xooo@O+::::--;;+O?O@o.    ",
"  .XX;;;;;;;:::?--1+??@;;.,   ",
"  XX;;;;;;11@@::?2-#??@1;.,   ",
" .X.;;;;;;111@::?:?$??+--;Xo  ",
" ;;;.,;,@@1111@:??26??#=-;;X  ",
" ;;;;,;>><@11-1OO???22$=-1;;  ",
";;;;;;;><<O111-1O???2??%=-11; ",
";;;;;;;,<<<O1---++???22$%&11; ",
".Xo;;;;;<O@11-;###++#=2?$#O@@ ",
".Xoo;,@@@OOO1-###+,X+-2:????@ ",
".Xoooo@@OO@@-1##--;@O1??:??O@ ",
"XXo:::::::::+#1-11,XO??+#OOOo ",
".Xo::::::::O##;,@@o@?:@;---@X ",
" Xooo@O:OOO+--;OOO::o;---==1  ",
" XoooO@OO+1;-,,O+::@1-=----1  ",
" .oo;;;;;;,,,-;+#::1--11@&1;  ",
"  Xo;;;,,;,;1;1OOO1--@O&5&;   ",
"  .X;;;;1,,1,,1;<>1-1+##5<.   ",
"   .X;;;;;;,1;;,,O--&%%#<>    ",
"    .X;;;o;OO+++##==&%$<>     ",
"     .;;oo@11---&&==&O<,      ",
"      ;;X@O&&&&=**&--X.       ",
"        .X@++#$%4%&O@         ",
"           X@O+#$+            ",
"                              ",
"           Xo@OOO@            ",
"        XooO+#$%44%$#         ",
"      Xo@@@O+$%443334%#       ",
"     X::::::O$444%44***+      ",
"    X::::::::%44??+&--&+@     ",
"   .X:::oO+++$$::::-11OOOo    ",
"  .XoooX;;;;;;;;$??:-1@?O@;   ",
"  XooXX;;1--11111@::?2@??@;   ",
" .oo;;,;;;1111---1@::??+?@;.  ",
" ;;;;;;;,,;<<@1---1@:?26?O&;  ",
" ;;;;;;,;,1<<<@O---1@@??2?&1  ",
";;;;;;;;111;<<<+1----@??2?+1; ",
";;;oO;;;1;,;,<<<+----++???#+; ",
";;Xo@O;11;-1;,OO1--1;##+#+++o ",
".;.XooO+;,1O@OOO+--+##OX+OO?o ",
".;..Xo@OOOOOOOOOO--$#--@O@@?: ",
"XXXXX::::::::?::?+#$-;;XO@?O@ ",
".oooXo::::::::??+$$-;XX@?@@1; ",
" X@o;;O@O+OO:+$#$--;@@::oo--  ",
" Xoo;;;O+++###$-1-,,@O:@11-1  ",
" .X;;oO;;;--1-;,,,-;+#:o111;  ",
"  XX;;o;;;11,-,;;-,;@@11&&o   ",
"  .XX;;;111,-;,-1,;;<o1-O5>   ",
"   .Xoo;1;111-;,111,oo-*+X    ",
"    .Xo;;111;#-#+#&O&-&+@     ",
"     .XX;;;oO&--&-=&&&&o      ",
"      ..X;;@#$&***=*&&X       ",
"        .Xo@+$$%44*&O         ",
"           X@O+#$#            ",
"                              ",
"           Xo@OO+O            ",
"        XooO++#%44%$#         ",
"      XXo@OOOOO$%3634%+       ",
"     Xo::o:::::?#46344*&      ",
"    .o::::::??:?=33%#+#&@     ",
"   .ooo::::::#$$$4%:@:@OO@    ",
"  .Xo@@:::::;;;;111;$?:@OOo   ",
"  .o@@@O;O+O11----;11@:??+o   ",
" .Xo@@@@;;,,;1--------@:??+o  ",
" ;;Xo;;;111--,1;<<@1--1@:?$+  ",
" ;;;;;;O;11;,-;-<<<@@--1@?#+  ",
";;;;;;;;111;1---1<<<51---O??@ ",
";;;;;o;;+11--;;,1,<55O---OO?O ",
";;;;;;oOOO$;1-;--;,<O1-1;+O+@ ",
";;;;,,;O@OO###,-+O@OOO-+#O@@: ",
";;;;;;;,o@++##+O++OOO@-$#@X@o ",
"Xo;ooooo@::::?:???????+$-;X@o ",
".oo@o@@@O@O:::?:?????+$-;XooX ",
" Xo@@OO;11OO+#$##?+%$%-;o@@X  ",
" Xo@@OO;111#$$$$$$$%=;,,o@o;  ",
" .oo@@@;;O$$------=;,,-o@oo;  ",
"  Xoooo;;O++----,,;,;-Xo@@o   ",
"  .Xoooo1+-----,1-,,;;.Xo&o   ",
"   .XXooo;111------,;;;o&O    ",
"    ..Xoo@1111--$$-&&&OOO     ",
"     .Xoooo1-1O++&===-&@      ",
"      .X;o@@--#%%***=-;       ",
"        .o@O&&$434%$@         ",
"           X@@+#$#            ",
"                              ",
"           Xo@OO+@            ",
"        Xoo@O#$%%%$$#         ",
"      .o@@@@O#$$$#%444#       ",
"     X@@@:::?+?????#464@      ",
"    .ooo:o::????22?+$44+X     ",
"   .X;;o@;1:::????%%#$#O@X    ",
"   Xo;;@O+##:::??11;;-1o@o.   ",
"  .X;;;OO+$##1##O1-===-11@o   ",
" .Xo;;;OOO+###-1,,;----111@X  ",
" ;;;;;;:111-#--,--=,-;<@1-@:  ",
" X;;;;;;;1;11#1--1,,;-<<@11o  ",
".;;;;;;;1;;;;1---;-=--;<<&-1X ",
".;;;;;;;;;OO;1$---=;=,;<5&-1o ",
"X;;;;;;;,;;O@O#$%;-=-=-,<@11o ",
"X;;;;;;;;,,;;OOO#$%$--O@OO1@X ",
"X;oo;;;;11;;;,@O+#$%$OOOOO&O. ",
"Xoo@o@;;;@@@@@@::????????@+OX ",
".X@@@OOO+O+1+OO++?:??:???OO@. ",
" X@@@@O+++++#---$##%%$?$#OoX  ",
" Xooo@@O+++$#1---%%4%%$%+oX.  ",
" .Xooo:@OO$#1-$$%4====-&;XX.  ",
"  .XXoo::@OO--$$%-=--,;;;.X   ",
"  .XX;;o:::+-1$---=-,;;;;X.   ",
"   .X;;;X@::O-$-----1-1;;.    ",
"    .X;;.Xo::+-----&-=-&o     ",
"     .X;;;;@@@&---##&=-1      ",
"      .X;;;1@O+&&*44*-1       ",
"        .Xo@++$%44%%+         ",
"           X@O+#$#            ",
"                              ",
"           .XoOO+O            ",
"        .XoO++#$%4$#+         ",
"      .o@@+#+OO+$%%%+##       ",
"     XXo@@++O::O++????%#      ",
"    .XXooo@::???2?????#$O     ",
"   .Xooo;;:::--???2???+#OX    ",
"  ..Xo@@;11:$%#$-::??@111o.   ",
"  .Xo@o;;O11$%%$$%-#O11--1X   ",
" .;;oo;o@;1%$$%$$%%-;,;--11X  ",
" .;;;;;@111::----$==,-=,1&@;  ",
" X;;;;@;;1111-1;1-$-==,,;&@;  ",
".X;;;;@;111-11;11;1--=;=-;<o; ",
".X;;;;;;111--;;++11#%-=;=;><; ",
".Xo;;;;;11,;;;;1+@O+#4;=-1o@; ",
".oo;;;;1;11-;-,,11O@@#$$--@@; ",
".Xo;;;OO11---+-;11,@o+#%$OOOo ",
".Xooo@@OOO-1--+OOOo,@:?????O@ ",
"..ooooOO+O++##$$-+OoO+?????O@ ",
" .;ooOOO++++%%%%%$-==$#%$#+o  ",
" ;;;o@@O+O+#%%%%%$1==-%4*$&X  ",
" ;;Xoo;@@:::+$%%$1=%%4==--1;  ",
"  ;X::o;,@OO??$#?-1%4==-;;;   ",
"  .X::o;;111?:?+1-1%===-;.    ",
"   X::X;;;;1@O???--==---1.    ",
"    .oX;;1;,,@???#==---&@     ",
"     .oo;;;;;1OOO+==&#&1      ",
"      .oo@1111&&#$**%#1       ",
"        Xo@@O&$%44$$#         ",
"           X@@+#$#            ",
"                              ",
"           .XoOO+O            ",
"        Xoo@O#$%%$$$+         ",
"      .o@OO+#$%%#+%%%$+       ",
"     .o@@oO+#$%$O?+##2#O      ",
"    .XXooo@O%#$::?O?????+     ",
"   .X.>o@+OO11::?==?????#O    ",
"  .XX..o@+##1-1:$%%%=O@@O1;   ",
"  ;;;;o@@O+111-1#444%%+O11;   ",
" ;;;;;o@O@11++--4444%%%-;;;;  ",
" ;;;;;;;;11+#11-??======1;XX  ",
" ;;;;@;;;1O1111----1;1$--1XX  ",
".X;;o;;;11O#11-----1;;;----1. ",
"..;;;;;;;;111-----;;;O;#%==-X ",
".XXo:::+111;;;-,1;;,;O@+#*=1. ",
".Xo@OO:1;11--#---1--,;;@@#*&X ",
".Xo@;;:;11+###----#==;;@o+#+@ ",
".X.o@O:;@@++$%#-----+@@,@O??: ",
"...X;;@OO@++$$%$$$%%%-+oOO??: ",
" ..;;;;O:+++$$%%%44344-=&#$O  ",
" .;;;;;@O++$%$#$$433341=*%%O  ",
" .;;;;;:::11++???#%44%=****1  ",
"  ;;;;X:::O1,++O??#$?=-&=-1   ",
"  ;;;Xo:::+1;;--#?2?1---=-;   ",
"   ;;X::::111;;-1+??O----;    ",
"    .X:::@1111-,,O??+-=-1     ",
"     .o::@11---1X@OOO--1      ",
"      .::OO+&&--&&&OO&@       ",
"        Xo@+#+#%%%#O@         ",
"           X@@O#$#            ",
"                              ",
"           Xoo@O+O            ",
"        XooO++#%44%#O         ",
"      .;@O++##$$434$#+o       ",
"     .XoOO++&+##$4%+O??:      ",
"    .XXoo@@O+<#+-$#?????:     ",
"   .X;XoX>><#%#+-11:O+#??o    ",
"  .X;;oXX>><#%##4---%%%$+OX   ",
"  ;;;;;;;@@<###---+-$44%$+1   ",
" .;;;;;;;;@@##+--+#--64%%*-;  ",
" ;;;;@;;1111;;1-#$--=?==&&-;  ",
" ;;;;@;;;+1;;-1#--1-==-11--1  ",
".;;.o;;;+11-;--$$----=-1;1--; ",
".;;;,@;;11+1--;------==;;o&&1 ",
"Xo;;;@;:::-?#---1;;-=;;,;@O&1 ",
".o;;;oO++#::------$--=;-,X@OO ",
";;;.XoO+11%:---#$$%-=====XX@O ",
";oX.,,@OOO$:--+#$%4%%==-+@o@@ ",
".oX>,,@;1;OO#++%%%444%%%%&OOo ",
" XXXXoo;1111#?$%%%$444334*&O  ",
" ...;;;;1111+#%$%4%$%%334$&&  ",
" ..;;;;;;;;@:??11#+???%4%*&o  ",
"  .;;;;;;;@:?:+--,++?2#$&*-   ",
"  .;;;;;1@:??:+--1--#??+&&1   ",
"   .;;o@@::::?---11-@?O+&1    ",
"    .X@@@::::+$---1;o?O&1     ",
"     Xo@@:::+&&--=-;oOO;      ",
"      .Xo::O#$%**==&OoX       ",
"        .o@O#$%44%$#O         ",
"           X@O+#$+            ",
"                              ",
"           Xoo@O+O            ",
"        XXoO+#$%%%$$+         ",
"      .Xoo@#$$%%%%%44$O       ",
"     XoX;;@#$$$$#+$*%%#@      ",
"    .oo;;;O+###+#<##&#O?o     ",
"   .Xo;;;@OO<>>><66$&&O@O@    ",
"  .XX;;;;;+@o@>><#%4$*--##o   ",
"  ;;;;;;;11111OO<+$$-=--*%+   ",
" .Xooo;;;;11111OO@$++-+-&$$@  ",
" .Xoo@;;1111111---;---%--&&1  ",
" XXoo@;,,;11--#--11--#-----1  ",
".Xooo;,;,O111-$--=;=-$$----1; ",
"XXo:+;;;1,O11---$-==;-----11; ",
".XXo@+;1,;O#-???-2%-=-;;-1;;X ",
".XX;;@;,;;O#$%44??==-==$--11X ",
".;;;;@;;;oO#%%--4?===#$%-==-X ",
";;;o@O;;>><O#$$%%?==+#%4%==&X ",
".X;o@@O>>,><@1--+#$++4444%*&o ",
" X;XXo>@O@oo1-----$3%44%44%&  ",
" ;;,>,,@1111----11+%4%4$$%%1  ",
" ;;,>>o;;;111---;o:??1#+?##1  ",
"  ;.>.;;;;111-1O??:?-=&OO+@   ",
"  .XXX;;1111;1O?????--1@+OX   ",
"   .XX;;;@+OO??????---1o@o    ",
"    .XX;o@OO::???+1-=-;oo     ",
"     .Xo@OOO????#&===-XX      ",
"      .Xo@O++O#$447*=-X       ",
"        .X@O+#$444%$&         ",
"           X@@+#$#            ",
"                              ",
"           Xo@OOOO            ",
"        Xoo@O#$%44$#+         ",
"      XXo@@1-&%4444%$+o       ",
"     Xoooo@--&$%44%#&++@      ",
"    .;oo:o111#$$##+OO+$+o     ",
"   .;XXoo;11;O#+<>>>+$%*&1    ",
"  ..XXXX;1--1;+OO@@><$%%*&O   ",
"  .XXoo;;1-111----1@5+$$&&#   ",
" .XXoo@@O;111;-----1@@$&&&&@  ",
" Xoo;;;oOO11-1#------=;----1  ",
" XoX;;o:;O11,,+----%==;----1  ",
".XX;;;::O11,;1+--==-%===----; ",
".X..;o::+1111;,#--===%-=;---; ",
"....:::1+#-1--;+$=???=2-=---; ",
"...X:;;1;O;-,,;O$%366??=----1 ",
"..;o;;;;1O;--;@O$%36=6?==&*&1 ",
"XXX;;;;@OO#;1<><$$%444?=+$%$O ",
".:X;;;@@+OOO<<,><O--=+#++%4%O ",
" :X;;;@@<O>o@OO@O1-=--$3444$  ",
" XX;;;o><<<@O1111----1+%%%%#  ",
" .;;;;o>>>@11--------;:O+++O  ",
"  ;;;XX>>@11-----1-1??:O&@@   ",
"  ;;;ooXo11--111+1-@2??O-@X   ",
"   .Xoooo;11@#$$$????OO11X    ",
"    .Xo@O@111#$+????O&-1X     ",
"     ,>o@@@@+$$+??#$*=-;      ",
"      ,.oooO#$$##$%4%-1       ",
"        .Xo@+$$%%4%%#         ",
"           X@@+#$#            ",
"                              ",
"           Xo@OO+O            ",
"        XXo@O+#$%4%$+         ",
"      Xo@@@@O&&&*4334#O       ",
"     X@@ooo:@O--&%444$#O      ",
"    .oo;;X::?----#$$#OO+O     ",
"   ..X;;X:::11---O$+O<<+#@    ",
"  ..X;;X::?11-----1+oXo@##;   ",
"  .Xo;X::1111#--------1@++@   ",
"  Xooo::;OO+##----;----1@O&o  ",
" ,Xoo::@111;++-----$-------1  ",
" .Xoo::;;;OO:----,,#==-%---1  ",
".;Xo::;;;1O::?--,;-,+-=-%--1; ",
";;oX:@;,;O::?+----;-,--==&--; ",
".XoX;;;1:::?--4--=-,;$=??&&-; ",
"X::X,;,O:11---#;-,,;;$466#&=@ ",
"::XX;;@@11----#;--;;o%46=*==O ",
"XoX.;@;;;;11+#$#1-<>>$%44***# ",
".XXX::;;1;1O+$$##<5>,<@-=*$$O ",
" XX:::;;11OO+<#>OO+@oo-=-&$#  ",
" .ooX;;;11O<<<><O@1111---&#+  ",
" .XX;;;;;;@>>>@O1--=----1@O@  ",
"  .;;;;;;@<<<O1------11@@?o   ",
"   .X;;;1+#<@1----11+@@@?@X   ",
"   ..XXo@;++1---1#$$+O?O@X    ",
"    ,,>oo@++O@11+$$???+Oo     ",
"     ,,>><@O++O+$%#??#&1      ",
"      ,,>>o@++#$4%$#$+1       ",
"        ..X@O+#444$#+         ",
"           Xo@O#$+            ",
"                              ",
"           Xo@OO+@            ",
"        XooO+##$%$#$+         ",
"      Xo@OO+++O+$***%%O       ",
"     X@@OOOO@@@O+-==%4$@      ",
"    .Xo@O@11;:??#---&$$Oo     ",
"   ...Xo@;11;:??+---1&O@<@    ",
"  ..,>o@@111::?----=--1ooO@   ",
"  .,,Xo+O11::?----==---11@O   ",
" .,,XoOOO;::?1###$$=--;---1o  ",
" .,>X@@;1::?#-1-1+#=---$---;  ",
" ..Xoo@;:::11;;+#:-==-,#-=-1  ",
";;;;;;@;::O11;-#:?2$=,;,+-=-1 ",
";;;;;;:::O1;,,O:??+3----,1--1 ",
"XXXo::::11,;1+???==%6-=,;O++1 ",
".ooo:::1,11,O+----=-$=,;;$%*1 ",
".o:o::;;;11OO+----==$=-;o$4*- ",
".oo::;;,;@O11-1--+$44;->>+$*1 ",
".;oo:@;;:::11111O#44%$<>,@&&o ",
" ;;XX:::::111-1O++<#>oO@X1-@  ",
" ;;;X::::111--1O<<<><o111--@  ",
" .;;;;;;;;1111-@>>>o@1----1X  ",
"  ..;;;@;;111O<<<<@1==--11X   ",
"  ...;;oO1111+$<<O1-=--1ooX   ",
"   ...XXoOOOO;%$+---&+#+@o    ",
"    .,,,><@OO%%%+O&&##++@     ",
"     .,,>><<<+$$#+#$%#+@      ",
"       ,>X<<<O#$$$44%+@       ",
"        .XX@@O#$%4%$+         ",
"           Xo@O+#+            ",
"                              "};
