/* XPM */
static char * r111_xpm[] = {
"30 480 27 1",
" 	c None",
".	c #303030303030",
"X	c #404040404040",
"o	c #505050505050",
"O	c #606060606060",
"+	c #707070707070",
"@	c #808080808080",
"#	c #909090909090",
"$	c #A0A0A0A0A0A0",
"%	c #D0D0D0D0D0D0",
"&	c #B0B0B0B0B0B0",
"*	c #505090909090",
"=	c #6060B0B0B0B0",
"-	c #7070E0E0E0E0",
";	c #A0A02020B0B0",
":	c #808010108080",
"?	c #000000008080",
">	c #000070700000",
",	c #000090900000",
"<	c #0000B0B00000",
"1	c #E0E0E0E0E0E0",
"2	c #10101010A0A0",
"3	c #50506060F0F0",
"4	c #30304040D0D0",
"5	c #F0F03030F0F0",
"6	c #0000D0D00000",
"7	c #F0F0F0F0F0F0",
"           .XoO+@+            ",
"        .XoO+@#$%%&$#         ",
"      XooO++@#$&&%%%%&#       ",
"     XoOOO*=@@@####$&-%#      ",
"    .oooO+*****@@;+#&&&$+     ",
"   .::ooOO**??+@;;;--==$#+    ",
"  .X:::oo*****+;;;#-&=====o   ",
"  >X:::Oo****@:;;@==&-====O   ",
" >>Xo::oO?+@+:;##$;-=&%--=*X  ",
" >>>X::**+::::#$$&&--&%-==*X  ",
" >>>XooO++++@##$&&&=---&&&#O  ",
" >>>X:oO+++#+#$$&&&$---####@O ",
" .>oOoOO+++#@##$$$-@++@;:;;;O ",
" .Xo*Oo+++@@====@+OOoO:;;;;;: ",
" Xooo*O+O+*===#*****?oO#$#@+o ",
" XooooOO*+**==**??**+O+$&==+o ",
" XooXooOOO**?**?**+O+#$*==*Oo ",
" XooXoOO*O*******@+==&=--=*X. ",
" .XXXoOO+****===**====-===*X  ",
" .XXXooO****=======$==-?***>  ",
" ..Xoo>>OO**=;===-----=****>  ",
"  .XoooO>O+**&$$$$&&=**,<<,   ",
"  .XXXoo,,,+=@&$$$&-#+>,<<>   ",
"   ...XOO+,,:#$$$=::;+O,,o    ",
"    ..XoOO,,::==;;;;;;@@o     ",
"     .XXooOOO;;;;;;;;;#@      ",
"      ..XoO+@O;;;#;;;;+       ",
"        .XoO+++@$&#;O         ",
"          .XoO+@#@            ",
"            ...X              ",
"           .XoO+@+            ",
"        .XoO+@#$%%&$#         ",
"      .ooO++@@#$&11%&$@       ",
"     Xo::O+@@==#$-&&#$&@      ",
"    .o:::O+**===-=@@;;$&+     ",
"   .XX::::+***=*=??+;;#==+    ",
"  .XXXo::::+******++;;#===O   ",
"  >>>oX:::::******;;;@#&&=*   ",
" .>>>>>::::+**@@@+;;#$;$$&=o  ",
"  >>>>>>o:::**@;;;;&%%&-&&=*  ",
" ..>>>>>>+++@#@#$$$111%=&-&#  ",
" ..X>>>>+:+@+##$$&&111%$-=$@o ",
" 2?.>>>O+++@##$$$$&&&&&@+@+;: ",
" ?2XoOO+**+@@#$$$----@OOoO+;: ",
" ..oOO>@****@##==---#-**?O@@O ",
" ..ooO+:******#===-*=??*++#$+ ",
" ..o:::*OO*******?*****O+#$=* ",
" ..XooOO*O********--**+==$==O ",
" .XXooOO*O**@#====--=*==$==*  ",
" ..XoooO****@====----==$==34  ",
" ..Xoo>OOO,,,#===-;----&=**o  ",
"  .X>>>OOO++,<#===%%%&&&=*,   ",
"  .>>>>X4+@@,,<@==%1%&$#*,>   ",
"   .XX.22O+++$<<=$&%&#;+O>    ",
"    ...22oO++,,,:;#&#;;;o     ",
"     .XXXoOO+*#@:;;555;:      ",
"      .XoOOOO*##;;;55;:       ",
"        .XO+O+#$#@##+         ",
"          .XoO+##+            ",
"            ...X              ",
"           .XoO+@+            ",
"        .XoO+@#$%%&$#         ",
"      .XoOO+@#$&%%%%%&@       ",
"     .XoOO:O+@#&%---&&$+      ",
"    .XXoOO:::@==---&=+O++     ",
"   XX>ooO:::::+#===-=44;+O    ",
"  .X>>ooo+:::;:;@*=-**+;+@*   ",
"  .>>>>>>*,,:::;;@**==@;;##   ",
" ..>>>>>>>,,O:;:;+=?@@+;#$&@  ",
" ...>>>>,,,,,>:;;;=#@;;#&&&#  ",
" .?.Xo>>>,,,,,@#$$$%&$&%%%&#  ",
" ...XOoo>,,,,,#;&$&%%&%%1%&$O ",
" XXX2??2O,,,,@#@@@%%%%%&&&$#O ",
" Xooo2?2++###$==@##&%&&--&#+o ",
" >>oooo+++@,,&====#$$----$*+o ",
" >>X??OO++##$:===*------****+ ",
" XXXXooO*::::=#***=**=-***O@@ ",
" XoXXo?O****=#****=====--@@@O ",
" .oXXo?****+******$------=#@  ",
" .XX.?o****@******#-=-----$*  ",
" .XXXXo**O*,****<<<&---&--#O  ",
"  XoXoo>>>,,O+##@@<@--%%%$O   ",
"  .Xooo>,,,,+4$###6<@-&%&#X   ",
"   .XXoooooo24#$$$%<+#$$@:    ",
"    .>>oOOO224&&$@**O;#;:     ",
"     >>>oOOOO+++#$$#;;;:      ",
"      >>>oO+@@++#&%&;::       ",
"        .Xo++@@$&&$@O         ",
"          .XOO+@#@            ",
"            ...X              ",
"           .XoO+@+            ",
"        .XoO+@#$%%&$@         ",
"      .XoOO+@@@$%111%&#       ",
"     ?XXoO+@@O;;$%11--&+      ",
"    .XXXXo++@::;;#&---&#o     ",
"   ..oX>>>+*+:;;;;;#$$==OX    ",
"  .XXX>>>O@@@#:;;;;5+===+OX   ",
"  ....>>>,,,,@,<+;;;;@***@;   ",
" >>.??o>>>,,,,<<,O;5:;=++@;:  ",
" >>.???o>,,,,,,<<<>:;;=###$@  ",
" X>>???2oO,,,,,<<<,@$&&%&&&$  ",
" X>XX2o2O+OOOO,<<<<<$1&%%%%%@ ",
" >>>OOOO442?24<<<<@#$@@%%%&&@ ",
" >>>oOO+*4224##$$&%;-@#&%&--+ ",
" X>>>>O*O**O+#$&<<7;---$$--$+ ",
" XXX>>OO??**+@$&&&;;--=--$$#O ",
" X:X>>OOOO?*+#:;;;-5&--**=**O ",
" .X::oOO*O*?@=====&=-**====@o ",
" .XX::OO?O?+*===$*=*-=$----@  ",
" .XXX:oO*?*@====$==*==#----=  ",
" .XXoooOOO*@==**<=-**<<$--#O  ",
"  XooooOOO*,,<<<,+O$@@<#-&#   ",
"  .ooooO**,,,,<,@@@$$#<*&&+   ",
"   .XoooOO**++++24#%&**#$@    ",
"    .:oo>,*++42224$&&*++O     ",
"     .:XX>,O@@@+++*#&&@:      ",
"      .XX>>,@#####*=&$+       ",
"        .Xoo+@#$$$###         ",
"          .XoO+@#@            ",
"            ...X              ",
"           .XoO+@+            ",
"        .XoO+@#$&&&$#         ",
"      ..XoO+@#$&&&%%%&#       ",
"     ??2Xo++@#$$$@#&%1&+      ",
"    ??2XoOO4+@#$@;;;$&&$O     ",
"   ?.XooOOO,,,#=$;;5;;@$*o    ",
"  ...XoOo>,,,,@#$$#;;;;@#*o   ",
"  .X>>XO?o,,,,,,,,*<O;;;@*O   ",
" >>>>>o?22O,,,<<<<<<<,;;;OoX  ",
" >>>>>>o224OO,,<<<<<<<>:;@@O  ",
" XX>>>>O24424+,,,,,<<<,@#&&#  ",
" XoX>>>O+4+@2O+@@++,<6<<$%%%@ ",
" X:X>>>>+++@@#42?24O<6<#$$%%# ",
" .XX>>>,++##@*4224$&&%%;-$$&# ",
" X.Xoo>,>,,@****@@&%16<;--&&# ",
" XX.Xo>>,,,@**?**@$%177;-&==@ ",
" :.XXo::>>@@***?*@$-;;;5&===* ",
" XXX??O::O@*****?#-----=-===O ",
" XXXXoOO::+**?*?@==--&-*==$#  ",
" .XXoooO+:+***?*#----&-*==$@  ",
"  .XoooOOO@*****#--==<-=**#O  ",
"  .XXooOOO+****<<<<<,O@#@##   ",
"   .XX:O**@***<<<<<<OO@$#*+   ",
"   ..Xoo:*,*****@@OXo@$#*O    ",
"    .>>X::o,,,+$@4o43$&@o     ",
"     .>XX:o>,,*###@+@##O      ",
"      ..Xo:O,,*#$&&#@Oo       ",
"        .XoOOO*$%%#@+         ",
"          .XoO+##@            ",
"            ...X              ",
"           .XoO+@+            ",
"        .XoO+@#$%%&$@         ",
"      ..XXoO+@#$%11%&&@       ",
"      ..224O+@@#&%%&#$&@      ",
"    ???22XO+@#@4@#&$;;##+     ",
"   ???2XoO@@+@+,,,+-#;;;@O    ",
"  ??.XXooO>@@@,<<<+#&@@+;@O   ",
"  ..>o>>>,@@44,,<<<,,,*OO;@   ",
"  >>>>>>>>+444+@,<6<<<<<,O@O  ",
" >>>X>>>,,,,O224++,<66<<<,++  ",
" >XXo:>>>,,,+44424+,,,,<<<+@  ",
" Xo:::>>,,,,+@4@#2+O+Oo,<<*$@ ",
" o:oO:::,,,,,+$$$$$43?2O<6=$# ",
" ::X?OoO,,,,,<#$$$*=424&&&&&# ",
" :::o?O*O+,,,<<<$*-=*o+%1&&-@ ",
" :::XoOOO+:,<,<<$*-??*+%1&&&@ ",
" Xo:::o?OO:::;,#&*=-=*+-;$&&+ ",
" X>X::OO??*+::@$**==*?#--$&=O ",
" .>>X>:O****@:;#**?=?@---$=@  ",
" .XXX>::****@#=#*=*?*#--&==+  ",
" ..Xoo:::O****##*====$-#==*O  ",
"  .Xooo>::*+@##***=*<<<<***   ",
"   .Xoo>:::*==$***=<<<,,@#o   ",
"   ..XX>>>::*=<*****OoXO@@    ",
"    ..X>>>X::@<<<<*#+OO*O     ",
"     .Xo>>>X:O*<<<#$#@@@      ",
"      .Xoooo:;+<<=&%&@O       ",
"        .XoOO++*=&&&@         ",
"          .XoO+@#@            ",
"            ...X              ",
"           .XoO+@+            ",
"        .XoO+@#$&&$$#         ",
"      ..XoOO++@#$&&%%&#       ",
"     ..22Xo4443@#$$$%%&+      ",
"    .????24444@@&&#@#$$#O     ",
"   .???2224++@&&%%$O,*@#@:    ",
"  .????Xo+@#+@+>$&@,6<<*@@:   ",
"  .??.>>>+@,,,,@#$4o,<<<*+O   ",
" ....>>>>O,,,,,@+334OO<<<<o.  ",
" .>>>>>>,,,,,,,,,<o224O<<<<>  ",
" >>>>>>::::,,,,<,,@4444O,,,>  ",
" >>>>O::::::,,,<,,@@@@#oOoo>> ",
" X>oO::O**::::<<<,,+#%&$44XOO ",
" XXoo::**?**@+<<<<<<@%%*=44## ",
" ::::*::O*?***+@<<6666$-=+@&$ ",
" :::X::::**?**+@;<666<$-?*@$@ ",
" :XXXo:::::**?*@:;;56&7=-+@&@ ",
" XXX>>>>::::@*??*@:;51===##$+ ",
" ....>>>++:::#****#;5$-**#&#  ",
" ..??XOO++::;;****@:-$-?O#&=  ",
" ..??2oOOO,::;#**==@##=***=*  ",
"  .??2oOO+++,:;=#$#$--=*<*O   ",
"  ..??2o++#,,:;;==----=*,,X   ",
"   ...??X++,,,::;==<===*oX    ",
"    .X.22oO,,,>:;;*<<=#+o     ",
"     .XXXo++,,>:;+,<<=@O      ",
"      .XoO+++,oO++<6=*O       ",
"        .XO++++##*<*+         ",
"          .XOO+@#+            ",
"            ...X              ",
"           .XoO+@+            ",
"        .XoO+@#$&&$#@         ",
"      XXoooO+@@###$&&$@       ",
"     XXXXX24433443@$&&$O      ",
"    XXX.2222244444#&&$#+o     ",
"   .XX.22222224#$#$7%&@OOo    ",
"  .XXX???244O+#$$@@+&&@<<+o   ",
"  ..X??2?O,,,,@<<<<,&$*,<<O   ",
" ....???o>,,,,<,<<<,O+34o,<>  ",
" .XX.>>>,,,,,,,<<<<<,,o24o,,  ",
" X>>>>>>>,>:::::,<<<<,+44oo>  ",
" X>>>>>>,+:::::::<<<<,,@@@Oo. ",
" X>>>>>O+:::@**;;::<<<,+#$#+o ",
" XoXoOo++:::**?**#+,<<<<@$##+ ",
" ::::::::*:::;*?**=++<<666**+ ",
" :::::::O:::::**?*-?+5<666**+ ",
" :oXXoo>OO@::::;**?*=:;56===@ ",
" :XXXoO>>>,,,,:;;#-*?*+;5&-$+ ",
" :XXXoO2o>,,,@<:;;$=**#;$$=@  ",
" .X.X?o22o@+@#<::;;=**@:$=#+  ",
" .XXXXo222+@@#<<::;$--=#$=*O  ",
"  .XXXX222@+@&$#<<;5$$$$==*   ",
"  .XXXX22??4#$$<<<:;--$$=*>   ",
"   .XoXXX2??+##<<,,:#-#==o    ",
"    .XXo>o42?@<<<,o;;+<*o     ",
"     .XX>oOO+@*<<,o;@*<O      ",
"      .XooO+@##**O+@@*O       ",
"        .Xo+@@#$##@++         ",
"          .XOO+@#@            ",
"            ...X              ",
"           .XoO+@+            ",
"        .XoO+@#$%&$#+         ",
"      XoooO++++#&&$#@#@       ",
"     Xo>>ooo4444@3343#$@      ",
"    .X>>>oo2222244443#&$+     ",
"   .X>>oOO222222222$##&&@>    ",
"  ..XooOO2242444@+#&$#@##,>   ",
"  ..XoXOo44444,,,,##<<<*@+>   ",
" ..X>X??22444O<<<<<<,<<,OOo>  ",
" .X>>>>oo>,,,,,<<<<<<6<<,ooX  ",
" .X>>>>>>,,,,,,>::;::,<<<,oX  ",
" X:X>>>>,,,,,,#::;;5;:<<<,O+X ",
" .:ooo>>,,,,+#:;;$**=;:<<<,@O ",
" .X::Oo+++@@@#;;;=-=?=#,<<<** ",
" .X:::O::::::;=;;;5--*=++<<6* ",
" .Xo::::::::::;;;;55-?=?++*6* ",
" XXo::oOOO**,,@#:::;5--*=O+** ",
" X:::oOOOO**>,,<<<<::5#*?O;Oo ",
" .:::oOO?O**2O,<<<#<:;$=*+Oo  ",
" .o::ooO*?*422>&@@#<::5==*+o  ",
" .X::ooO?O*4222+#$#<<:;$==@o  ",
"  .:::oOO???22&@#$7%6<+#$$+   ",
"  .X::oO***?22?4@$1%6,O#$#O   ",
"   .::oOo?*O42??4$&6<,O;#+    ",
"    .:ooooo,,4224@*<,oO+o     ",
"     .XoOOO,*+@@##*,oOOo      ",
"      .XoO++@#$&&&#*OOo       ",
"        .XO++@#&%&#+o         ",
"          .XOO@#$@            ",
"            ...X              ",
"           .XoO+@+            ",
"        .XoO+@#$&&$$@         ",
"      XooOOO++####$&$+o       ",
"     XooOO,,,OO44443334O      ",
"    .ooooo,,,+222222444@+     ",
"   .XXX>>O@@+@222222443$$+    ",
"  ....>>>+###@242244OO@$#+o   ",
"  ..X.>>>+@4@44444+,,,**<*o   ",
" ..XXX>>oO44444443O<<<<<<<,.  ",
" ..X::>>,>>OOO,,,,<<<<<<,<,.  ",
" ..X::o>>,,,,<,<<<<,>:;:O,,>  ",
" XXX::o>,,,,,,<<<<<<$:;5;OO,X ",
" XXXXo::+*,,,<<<<@&%:5&*=OO,o ",
" XXX?X:::+@@@*@#@@#+;5-=?++,, ",
" XXXooO*:::*:;;;;;;;-55--***, ",
" XXX?X**::::;:;;;;;+5;;5-***O ",
" >XXXo**::@+@@***,,@#::;53*+o ",
" .>o:::::O+******,,,<<<::#34: ",
" .>X:::::+***?***2O,<<#<:;@o  ",
" ..X:::::+******422>7@#<O;#O  ",
" .XX::O::O***?**4222+$#*++@O  ",
"  Xo:::::O****??4227#&&=*++   ",
"  .X::o::O*****?42??@&&=O+O   ",
"   .::oo::++*?*@@2??@$=*OO    ",
"    .oooo:O+++<<@444+*<Oo     ",
"     XooOOO+@+**#$$$#<,o      ",
"      .Xo+++@#@#&%1%$OX       ",
"        .XO+@@#$%%&$+         ",
"          .XOO+##@            ",
"            ...X              ",
"           .XoO+@+            ",
"        .XoO+@#$&&$#@         ",
"      .ooO++@@*#$$&$#+o       ",
"     XooOO=@@*,<<*+4444X      ",
"    .XooO+=+@<<#<OO422442     ",
"   .XXoooO+*,,,&%%#222224o    ",
"  ...XXX?oO,,,#&&%#44444O+o   ",
"  ...XXOo2O,,,@#4#44444o,*O   ",
" ...XX?ooO,,,,+44333333,<<<>  ",
" ...X?oo+:O,,,,,,+o>,,,<<,,,  ",
" XXXXo?oO::O,,,,<<<6666<,oOo  ",
" :XoXOoOO:::O>,<<<<6666<<O;+X ",
" :::OoO?ooO:::+*<<666<<&%@#@o ",
" :::oOo**?O+:;;@##@*+#@#+5$=O ",
" XXoo*O+O*O+*=;;:=;;;;;;;;5$* ",
" ..X>>OOO?O@==;:;;55;;;;+;;#O ",
" ...>>oOOO@+==:;$$$##**,@++;o ",
" .??>>>>+:::::;##**=*=*,,<++o ",
" ???>>>>O:::::##**=***2>,<@@  ",
" ??.>>>OO:::;;##*=*?**2XX*#+  ",
"  .>>>>::::#:;##*-**-=24O@@:  ",
"  .>>>o::::*:;@****??443#$+   ",
"  >>>>o:::**::@***-=?444##o   ",
"   .>Xo::O**::@@@*?=O424+O    ",
"    .X:::O+*+::;@@,**34Oo     ",
"     XooOO++==@#$#*=$$@o      ",
"      .XoO++==#$&&&%&$O       ",
"        .XO++@#&%%&$@         ",
"          .XOO@#$@            ",
"            ...X              ",
"           .XoO+@+            ",
"        .XoO+@#$&$$#@         ",
"      XooO++@##$&$$&$@O       ",
"     XoOOO=====$=*<<**4o      ",
"    .XooO+**===$666**+442     ",
"   .XoooOO+++@#*<6#7%$3222    ",
"  ..XXoX?***??O<<<@&7&3424.   ",
"  ...XX?o??**4O,<<@@3#344O>   ",
" .X.XXooOO?*+O+,<<<O33334O,>  ",
" .XXXoo???**@@:+,<<,,>o>,<<>  ",
" .XooooOO*??O+::@,<6,<<666<o  ",
" XXo:OoO**?*O+:::+,,<<<666<+o ",
" :::::::++**?O+@;;:O+<<66<*#O ",
" :::::::++@***?+@;;;;##*++@#+ ",
" XXoooOO**+@@**+@==;;:-;;;;;; ",
" XXXXoOO,,+@@@?+@=-5;;;5;;;+; ",
" XX.X?oO>>,*@@@@#=-55$&##+OOo ",
" X..??22,>,,,@:;;;555&==**,,X ",
" ....?2O,,,,,+;;;;;#&--***oO  ",
" ...2??O,,,,++;;;;;$&-=?*4OO  ",
" ...??o>>>,O:;;;&;;#$-***34o  ",
"  .X>>>>>>OO:;;*#;;@==*443@   ",
"  .X>>>>>OO:::**#;;+==**44+   ",
"   .X>>>oO:::***@;;@****oO    ",
"    .XoooO:::***@;+@***+o     ",
"     X::OOO+@@@==#$&#*=+      ",
"      .:oO+@@#@=-&%%&#@       ",
"        .XO+@@#$&&&$@         ",
"          .XOO@#$@            ",
"            ...X              ",
"           .XoO+@+            ",
"        .XoO+@#$%%&#+         ",
"      .XoO++@#$&%1%&#*o       ",
"     .ooOO+@==#---%&*<,X      ",
"    .XXoOOO**===--&#66<OX     ",
"   .XXooOO+*+@##@@#*66*#32    ",
"  .XXXooo***?****?+o6<*&$32   ",
"  .XXooO?**?**?***2X<<*##34   ",
" .XXoooo??*?***?*+OO,<<*+3O.  ",
" XXXoooo****??***@#:O,<,,*,>  ",
" .XXooOOO+++**???@@::O<6<<<,  ",
" XXXXOoO:++@+#*?*++O::o,<<66> ",
" XXX:::::::::@#**?XXo;;O+<<<O ",
" .Xo:::::::::;#$****?+;;;++@O ",
" ..oooO+O+++O+=###==*+-;;;;;: ",
" .XXoo?OOO++++<@###+?@-5;;;;o ",
" XXXXooOO?4++,,,*###@#-55##+X ",
" .XXXoO??2444+,<<<@@;;;55$@*> ",
" .XXXoOO*244+,<<<,+;;5;#&=*o  ",
" .XX.??O444O+<<<,++;;;5$&=4.  ",
" .....?O22O,,<,,+:;557;#$*4?  ",
"  .XX..>>>,,,<@+:::;$;;@*42   ",
"  .XXX>>,,,>,,@:::5-#;+**O?   ",
"   .XXX>>>>>>#:;:***+;+**X    ",
"    .::oooO++:::**@@;+@+X     ",
"     .:::::+@@@+@@#-$&$O      ",
"      .::::O###$$#&-&$@       ",
"        .XoO@@#&&&&&#         ",
"          .XOO@#$@            ",
"            ...X              ",
"           .XoO+@+            ",
"        .XoO+@#$%%&$@         ",
"      .XoO++@#$&%111%$O       ",
"     XoOOO**@##$-----&*>      ",
"    .XooOO+*:;==-----&=<>     ",
"   .XoooOO****#==@@##@*<,O    ",
"  .Xooooo********?***Oo,<*o   ",
"  .XooOOo***?**??*??**o,<*O   ",
" .XooooOOO***?**?***?*Oo,,OX  ",
" .oooooO+********??=-*#:o,,X  ",
" .ooO*oOO+++@#@#$**???+:oo<,  ",
" XooXOoO+++@+@@#$$$-=*OO:oo,, ",
" XXoooOO::::::;;;;@$$*?Xo:OO, ",
" XXXo?:::::::;;;;:;@#==*?O;+o ",
" XXX?oo+O++@+++@@+O--##=*+@;: ",
" ...XoOO++*?*+++@@+<<##+?@#;; ",
" ..XXooOOO****?4@@,<<*##@@$5+ ",
" .XoXoOO*O**?*4444+<<<<@;;;;o ",
" .XO**OO******444@,<<<O;;;;o  ",
" .XOoooO*??**444@+<<<,O;;;@o  ",
" .XooooOOO?**4++,<<,,O;;;;+.  ",
"  XooooO?O,,,<<<<<,O::;@;@+   ",
"  .XooooO>,,<,,>,,OO:;;@++O   ",
"   .Xo::o>>>>>,,,$;;+@@+oX    ",
"    .X::::o++#$$::;;@#@+X     ",
"     .:::::::+#$#####$#O      ",
"      .:o::::;#&&&%%&#+       ",
"        .XoOO+#&%%&&#         ",
"          .XoO@#$@            ",
"            ...X              ",
"           .XoO+@+            ",
"        .XoO+@#$%%&$#         ",
"      XXoOO+@@#$%111%&+       ",
"     XXXoOOO@@==&1%%---O      ",
"    .X.XooO+**==55&----#,     ",
"   .XXXX::+******=*&&$##*>    ",
"  .XXXX::+*********=-****o>   ",
"  .XXoo:o**********=??***o>   ",
" ..X::oo:**@@#***==?=****+O>  ",
" .Xo:oOO+**@@#***=-=-=??*OO>  ",
" XoooOOO++***=@#$$$$$&-=44Xo  ",
" XXooOOO+****@@#$$$#;$&&-ooo. ",
" XXoOoOO++o++@:;;;:;;;;@$*OoX ",
" XXo*OoOOo?O::;;;;;;;;;;@#*+o ",
" XXoooO*O?OOO@##$@+++++O-###+ ",
" XXXXo??O+OO+@##*?=+O+++<*##+ ",
" X..XooOOO@+@#****-=*4+,<<*#@ ",
" .XXXoOO**++******?*?33+<<+@O ",
" .XXoo*************444+<<,O:  ",
" .XXoo********?*?**444O<<O;;  ",
" .Xoooo**O**?**??=*4OO<,,O;:  ",
"  .XoooOOO+**?*<<<<<<<,Oo;;   ",
"  .XXoOO++**@+,<<<6<>,oO;;:   ",
"   .XoOOO*::::,,,,,>>XoO+:    ",
"    .XX:::::::;$$$$$@O++o     ",
"     .X:::::::;;;@%1%&$+      ",
"      .X:::::;;;;#%71&@       ",
"        .XoO++@@$&&&#         ",
"          .XoO+@#@            ",
"            ...X              ",
"           .XoO+@+            ",
"        .XoO+@#$&&&$#         ",
"      XooO++@@#$&-%11%#       ",
"     XoooOO@@++#$&-11%-=      ",
"    .oooooo+@::@--&&&&--+     ",
"   .Xoooo?o+::#*====$$$$#O    ",
"  .:XXoooO+:::**$=*====@*O.   ",
"  XoXXoOo:::@*==#=*===**442   ",
" .XXoXoo::+@@:==#&%--==*44oX  ",
" .Xooo:::++##@**$$%-=--==*+o  ",
" .XooOoOO++@##****=&&%&$$##+  ",
" XoooOOO+++#+#=**=$##&&#;##@o ",
" XXoOOOO+++@@=+@@@@;:;5;;;@@O ",
" XXoOOo****@O++?@::;;;;;;;;@O ",
" XXoooO**+****?+@+@#$$@++++@+ ",
" XXXXo**O**??*++@@#$&=?+O++*+ ",
" oXXXoo?OO?**++@#$%*==*=*OO*O ",
" XXXXoOO*O**++=##*=---**?4**o ",
" .XXXo********=***==-==444*o  ",
" .XXoo*******=#**==?=?=44OOo  ",
" ..Xooo*::====***?=-??**O,oX  ",
"  .XXoo**O++@#$***?*<<<,,,o   ",
"  .XX>>**+####==##,,6<<,,OX   ",
"   ..X>>OO+++=::;;,>,<,oOo    ",
"    ..X>oo:**:;;;;;@#$$+o     ",
"     ..XoO:::;;;;;;;$1%@      ",
"      .XoOO::;;;;;;#&&#       ",
"        .XOOO+#$$@#$#         ",
"          .XoO+@#+            ",
"            ...X              "};
