/* XPM */
static char * cloak_xpm[] = {
"20 160 3 1",
" 	c None",
".	c #000000000000",
"X	c #FFFFFFFFFFFF",
" .     .     .     .",
"                    ",
"                    ",
"    .     .     .   ",
"                    ",
"                    ",
" .     .     .     .",
"                    ",
"                    ",
"    .     .     .   ",
"                    ",
"                    ",
" .     .     .     .",
"                    ",
"                    ",
"    .     .     .   ",
"                    ",
"                    ",
" .     .     .     .",
"                    ",
" .  .  .  .  .  .  .",
"                    ",
"                    ",
" .  .  .  .  .  .  .",
"                    ",
"                    ",
" .  .  .  .  .  .  .",
"                    ",
"                    ",
" .  .  .  .  .  .  .",
"                    ",
"                    ",
" .  .  .  .  .  .  .",
"                    ",
"                    ",
" .  .  .  .  .  .  .",
"                    ",
"                    ",
" .  .  .  .  .  .  .",
"                    ",
" .   .   .   .   .  ",
"                    ",
"   .   .   .   .   .",
"                    ",
" .   .   .   .   .  ",
"                    ",
"   .   .   .   .   .",
"                    ",
" .   .   .   .   .  ",
"                    ",
"   .   .   .   .   .",
"                    ",
" .   .   .   .   .  ",
"                    ",
"   .   .   .   .   .",
"                    ",
" .   .   .   .   .  ",
"                    ",
"   .   .   .   .   .",
"                    ",
" . . . . . . . . . .",
"                    ",
" . . . . . . . . . .",
"                    ",
" . . . . . . . . . .",
"                    ",
" . . . . . . . . . .",
"                    ",
" . . . . . . . . . .",
"                    ",
" . . . . . . . . . .",
"                    ",
" . . . . . . . . . .",
"                    ",
" . . . . . . . . . .",
"                    ",
" . . . . . . . . . .",
"                    ",
" . . . . . . . . . .",
"                    ",
". . . . . . . . . . ",
" . . . . . . . . . .",
". . . . . . . . . . ",
" . . . . . . . . . .",
". . . . . . . . . . ",
" . . . . . . . . . .",
". . . . . . . . . . ",
" . . . . . . . . . .",
". . . . . . . . . . ",
" . . . . . . . . . .",
". . . . . . . . . . ",
" . . . . . . . . . .",
". . . . . . . . . . ",
" . . . . . . . . . .",
". . . . . . . . . . ",
" . . . . . . . . . .",
". . . . . . . . . . ",
" . . . . . . . . . .",
". . . . . . . . . . ",
" . . . . . . . . . .",
". . . . . . . . . . ",
"....................",
". . . . . . . . . . ",
"....................",
". . . . . . . . . . ",
"....................",
". . . . . . . . . . ",
"....................",
". . . . . . . . . . ",
"....................",
". . . . . . . . . . ",
"....................",
". . . . . . . . . . ",
"....................",
". . . . . . . . . . ",
"....................",
". . . . . . . . . . ",
"....................",
". . . . . . . . . . ",
"....................",
".. ... ... ... ... .",
"....................",
" ... ... ... ... ...",
"....................",
".. ... ... ... ... .",
"....................",
" ... ... ... ... ...",
"....................",
".. ... ... ... ... .",
"....................",
" ... ... ... ... ...",
"....................",
".. ... ... ... ... .",
"....................",
" ... ... ... ... ...",
"....................",
".. ... ... ... ... .",
"....................",
" ... ... ... ... ...",
"....................",
"        X  X        ",
"                    ",
"                    ",
"                    ",
"    X    XX    X    ",
"                    ",
"                    ",
"                    ",
" X                X ",
"     X        X     ",
" X                X ",
"                    ",
"                    ",
"                    ",
"    X    XX    X    ",
"                    ",
"                    ",
"                    ",
"        X  X        ",
"                    "};
