#define cloak_width 20
#define cloak_height 140
static char cloak_bits[] = {
    0x00, 0x07, 0x00, 0x00, 0x00, 0x00, 0x10, 0x40, 0x00, 0x08, 0x82, 0x00,
    0x04, 0x00, 0x01, 0x20, 0x20, 0x00, 0x00, 0x02, 0x00, 0x80, 0x08, 0x00,
    0x01, 0x00, 0x04, 0x49, 0x90, 0x04, 0x01, 0x00, 0x04, 0x80, 0x08, 0x00,
    0x00, 0x02, 0x00, 0x20, 0x20, 0x00, 0x04, 0x00, 0x01, 0x08, 0x82, 0x00,
0x10, 0x40, 0x00, 0x00, 0x00, 0x00, 0x00, 0x07, 0x00, 0x00, 0x00, 0x00,
    0x00, 0x07, 0x00, 0x00, 0x00, 0x00, 0x10, 0x40, 0x00, 0x08, 0x82, 0x00,
    0x04, 0x00, 0x01, 0x20, 0x20, 0x00, 0x00, 0x02, 0x00, 0x80, 0x08, 0x00,
    0x01, 0x00, 0x04, 0x49, 0x90, 0x04, 0x01, 0x00, 0x04, 0x80, 0x08, 0x00,
    0x00, 0x02, 0x00, 0x20, 0x20, 0x00, 0x04, 0x00, 0x01, 0x08, 0x82, 0x00,
0x10, 0x40, 0x00, 0x00, 0x00, 0x00, 0x00, 0x07, 0x00, 0x00, 0x00, 0x00,
    0x00, 0x07, 0x00, 0x00, 0x00, 0x00, 0x10, 0x40, 0x00, 0x08, 0x82, 0x00,
    0x04, 0x00, 0x01, 0x20, 0x20, 0x00, 0x00, 0x02, 0x00, 0x80, 0x08, 0x00,
    0x01, 0x00, 0x04, 0x49, 0x90, 0x04, 0x01, 0x00, 0x04, 0x80, 0x08, 0x00,
    0x00, 0x02, 0x00, 0x20, 0x20, 0x00, 0x04, 0x00, 0x01, 0x08, 0x82, 0x00,
0x10, 0x40, 0x00, 0x00, 0x00, 0x00, 0x00, 0x07, 0x00, 0x00, 0x00, 0x00,
    0x00, 0x07, 0x00, 0x00, 0x00, 0x00, 0x10, 0x40, 0x00, 0x08, 0x82, 0x00,
    0x04, 0x00, 0x01, 0x20, 0x20, 0x00, 0x00, 0x02, 0x00, 0x80, 0x08, 0x00,
    0x01, 0x00, 0x04, 0x49, 0x90, 0x04, 0x01, 0x00, 0x04, 0x80, 0x08, 0x00,
    0x00, 0x02, 0x00, 0x20, 0x20, 0x00, 0x04, 0x00, 0x01, 0x08, 0x82, 0x00,
0x10, 0x40, 0x00, 0x00, 0x00, 0x00, 0x00, 0x07, 0x00, 0x00, 0x00, 0x00,
    0x00, 0x07, 0x00, 0x00, 0x00, 0x00, 0x10, 0x40, 0x00, 0x08, 0x82, 0x00,
    0x04, 0x00, 0x01, 0x20, 0x20, 0x00, 0x00, 0x02, 0x00, 0x80, 0x08, 0x00,
    0x01, 0x00, 0x04, 0x49, 0x90, 0x04, 0x01, 0x00, 0x04, 0x80, 0x08, 0x00,
    0x00, 0x02, 0x00, 0x20, 0x20, 0x00, 0x04, 0x00, 0x01, 0x08, 0x82, 0x00,
0x10, 0x40, 0x00, 0x00, 0x00, 0x00, 0x00, 0x07, 0x00, 0x00, 0x00, 0x00,
    0x00, 0x07, 0x00, 0x00, 0x00, 0x00, 0x10, 0x40, 0x00, 0x08, 0x82, 0x00,
    0x04, 0x00, 0x01, 0x20, 0x20, 0x00, 0x00, 0x02, 0x00, 0x80, 0x08, 0x00,
    0x01, 0x00, 0x04, 0x49, 0x90, 0x04, 0x01, 0x00, 0x04, 0x80, 0x08, 0x00,
    0x00, 0x02, 0x00, 0x20, 0x20, 0x00, 0x04, 0x00, 0x01, 0x08, 0x82, 0x00,
0x10, 0x40, 0x00, 0x00, 0x00, 0x00, 0x00, 0x07, 0x00, 0x00, 0x00, 0x00,
    0x00, 0x07, 0x00, 0x00, 0x00, 0x00, 0x10, 0x40, 0x00, 0x08, 0x82, 0x00,
    0x04, 0x00, 0x01, 0x20, 0x20, 0x00, 0x00, 0x02, 0x00, 0x80, 0x08, 0x00,
    0x01, 0x00, 0x04, 0x49, 0x90, 0x04, 0x01, 0x00, 0x04, 0x80, 0x08, 0x00,
    0x00, 0x02, 0x00, 0x20, 0x20, 0x00, 0x04, 0x00, 0x01, 0x08, 0x82, 0x00,
0x10, 0x40, 0x00, 0x00, 0x00, 0x00, 0x00, 0x07, 0x00, 0x00, 0x00, 0x00
};
