/* XPM */
static char * dashboard_bg_xpm[] = {
"50 40 4 1",
" 	c #208118615965",
".	c #45144924FFFF",
"X	c #00000000FFFF",
"o	c #000000000000",
"     .                         .                  ",
"      .   .            .       .                 .",
"      .   .            .       .                . ",
"      .   .            .       .                . ",
"      .   .           ..      .                .  ",
"     .    .          .        .                .  ",
" ....     .         ..        .               .   ",
".         .        .          .              .XX  ",
"          .       .           .        ..    .oXXX",
"           .     .            .        . ....     ",
"          ...    .            ..      ..          ",
"         . ......              ...    .           ",
"        .      .               .  .  ..           ",
"        .      .               .   ...            ",
"        .       .            ..     .             ",
"        .       .        ....       ...           ",
"   ......       .       ..             ..         ",
"...             .       .               .   ......",
"                 .      .               . ..      ",
"                 .      .                .        ",
"                 ........                .        ",
"                 .      .                .        ",
"...              .       .              ..        ",
"   .             .       .             ..       ..",
"   .             .       .             .       .  ",
"    .            .        .          ..       ..  ",
"    .            .        ...       .         .   ",
"     .           .           .    ..         .    ",
"      .         ..          . ..... .        .    ",
"      .        ..           .       .       .     ",
"      .       .             .       .      ..     ",
"   ... .     .               .      .     .       ",
"   .   .......               .       .   .        ",
"   .       .                 .       .....        ",
"   .        .                .          .         ",
"  .         ..               .  ..       .        ",
" .           ..          ..........       .       ",
"..            .         ..        .       ....    ",
".             ..       ..         .          ...  ",
"               .... ....          .            ..."};
