#define barren_width 30
#define barren_height 30
static unsigned char barren_bits[] = {
  0x00, 0xf8, 0x03, 0x00, 0x00, 0x07, 0x1c, 0x00, 0x80, 0x00, 0x20, 0x00,
  0x60, 0x00, 0xc0, 0x00, 0x10, 0x00, 0x00, 0x01, 0x08, 0x00, 0x00, 0x02,
  0x08, 0x00, 0x00, 0x02, 0x04, 0x00, 0x00, 0x04, 0x02, 0x00, 0x00, 0x08,
  0x02, 0x00, 0x00, 0x08, 0x02, 0x00, 0x00, 0x08, 0x01, 0x00, 0x00, 0x10,
  0x01, 0x00, 0x00, 0x10, 0x01, 0x00, 0x00, 0x10, 0x01, 0x00, 0x00, 0x10,
  0x01, 0x00, 0x00, 0x10, 0x01, 0x00, 0x00, 0x10, 0x01, 0x00, 0x00, 0x10,
  0x01, 0x00, 0x00, 0x10, 0x02, 0x00, 0x00, 0x08, 0x02, 0x00, 0x00, 0x08,
  0x02, 0x00, 0x00, 0x08, 0x04, 0x00, 0x00, 0x04, 0x08, 0x00, 0x00, 0x02,
  0x08, 0x00, 0x00, 0x02, 0x10, 0x00, 0x00, 0x01, 0x60, 0x00, 0xc0, 0x00,
  0x80, 0x00, 0x20, 0x00, 0x00, 0x1f, 0x1f, 0x00, 0x00, 0xf8, 0x03, 0x00,
  };
