#define emph_player_seql_width 30
#define emph_player_seql_height 90
static char emph_player_seql_bits[] = {
    0x00, 0x00, 0x00, 0x00, 0x00, 0x08, 0x04, 0x00, 0x00, 0x18, 0x06, 0x00,
    0x80, 0xfc, 0x4f, 0x00, 0x80, 0x0f, 0x7c, 0x00, 0xc0, 0x01, 0xe0, 0x00,
    0x60, 0x00, 0x80, 0x01, 0x38, 0x00, 0x00, 0x07, 0x30, 0x00, 0x00, 0x03,
    0x10, 0x00, 0x00, 0x02, 0x18, 0x00, 0x00, 0x06, 0x1e, 0x00, 0x00, 0x1e,
    0x0c, 0x00, 0x00, 0x0c, 0x08, 0x00, 0x00, 0x04, 0x08, 0x00, 0x00, 0x04,
    0x08, 0x00, 0x00, 0x04, 0x08, 0x00, 0x00, 0x04, 0x0c, 0x00, 0x00, 0x0c,
    0x1e, 0x00, 0x00, 0x1e, 0x18, 0x00, 0x00, 0x06, 0x10, 0x00, 0x00, 0x02,
    0x30, 0x00, 0x00, 0x03, 0x38, 0x00, 0x00, 0x07, 0x60, 0x00, 0x80, 0x01,
    0xc0, 0x01, 0xe0, 0x00, 0x80, 0x0f, 0x7c, 0x00, 0x80, 0xfc, 0x4f, 0x00,
0x00, 0x18, 0x06, 0x00, 0x00, 0x08, 0x04, 0x00, 0x00, 0x00, 0x00, 0x00,
    0x00, 0x08, 0x04, 0x00, 0x00, 0x18, 0x06, 0x00, 0x40, 0xfc, 0x8f, 0x00,
    0xc0, 0xff, 0xff, 0x00, 0xc0, 0x0f, 0xfc, 0x00, 0xe0, 0x00, 0xc0, 0x01,
    0x7c, 0x00, 0x80, 0x0f, 0x38, 0x00, 0x00, 0x07, 0x18, 0x00, 0x00, 0x06,
    0x18, 0x00, 0x00, 0x06, 0x1c, 0x00, 0x00, 0x0e, 0x1f, 0x00, 0x00, 0x3e,
    0x0e, 0x00, 0x00, 0x1c, 0x0c, 0x00, 0x00, 0x0c, 0x0c, 0x00, 0x00, 0x0c,
    0x0c, 0x00, 0x00, 0x0c, 0x0c, 0x00, 0x00, 0x0c, 0x0e, 0x00, 0x00, 0x1c,
    0x1f, 0x00, 0x00, 0x3e, 0x1c, 0x00, 0x00, 0x0e, 0x18, 0x00, 0x00, 0x06,
    0x18, 0x00, 0x00, 0x06, 0x38, 0x00, 0x00, 0x07, 0x7c, 0x00, 0x80, 0x0f,
    0xe0, 0x00, 0xc0, 0x01, 0xc0, 0x0f, 0xfc, 0x00, 0xc0, 0xff, 0xff, 0x00,
0x40, 0xfc, 0x8f, 0x00, 0x00, 0x18, 0x06, 0x00, 0x00, 0x08, 0x04, 0x00,
    0x00, 0x00, 0x00, 0x00, 0x00, 0x00, 0x00, 0x00, 0x00, 0x00, 0x00, 0x00,
    0x00, 0x00, 0x00, 0x00, 0x00, 0x00, 0x00, 0x00, 0x00, 0x00, 0x00, 0x00,
    0x00, 0x00, 0x00, 0x00, 0x00, 0x00, 0x00, 0x00, 0x00, 0x00, 0x00, 0x00,
    0x00, 0x00, 0x00, 0x00, 0x00, 0x00, 0x00, 0x00, 0x00, 0x00, 0x00, 0x00,
    0x00, 0x00, 0x00, 0x00, 0x00, 0x00, 0x00, 0x00, 0x00, 0x00, 0x00, 0x00,
    0x00, 0x00, 0x00, 0x00, 0x00, 0x00, 0x00, 0x00, 0x00, 0x00, 0x00, 0x00,
    0x00, 0x00, 0x00, 0x00, 0x00, 0x00, 0x00, 0x00, 0x00, 0x00, 0x00, 0x00,
    0x00, 0x00, 0x00, 0x00, 0x00, 0x00, 0x00, 0x00, 0x00, 0x00, 0x00, 0x00,
    0x00, 0x00, 0x00, 0x00, 0x00, 0x00, 0x00, 0x00, 0x00, 0x00, 0x00, 0x00,
0x00, 0x00, 0x00, 0x00, 0x00, 0x00, 0x00, 0x00, 0x00, 0x00, 0x00, 0x00};
