#define emph_player_seq_width 24
#define emph_player_seq_height 72
static char emph_player_seq_bits[] = {
    0x00, 0x00, 0x00, 0x00, 0x08, 0x00, 0x00, 0x08, 0x00, 0x80, 0x9c, 0x00,
    0x80, 0xff, 0x00, 0xc0, 0xc1, 0x01, 0x60, 0x00, 0x03, 0x38, 0x00, 0x0e,
    0x30, 0x00, 0x06, 0x10, 0x00, 0x04, 0x18, 0x00, 0x0c, 0x1e, 0x00, 0x3c,
    0x18, 0x00, 0x0c, 0x10, 0x00, 0x04, 0x30, 0x00, 0x06, 0x38, 0x00, 0x0e,
    0x60, 0x00, 0x03, 0xc0, 0xc1, 0x01, 0x80, 0xff, 0x00, 0x80, 0x9c, 0x00,
0x00, 0x08, 0x00, 0x00, 0x08, 0x00, 0x00, 0x00, 0x00, 0x00, 0x00, 0x00,
    0x00, 0x08, 0x00, 0x00, 0x08, 0x00, 0x40, 0x1c, 0x01, 0xc0, 0xff, 0x01,
    0xc0, 0xff, 0x01, 0xe0, 0x80, 0x03, 0x7c, 0x00, 0x1f, 0x38, 0x00, 0x0e,
    0x18, 0x00, 0x0c, 0x18, 0x00, 0x0c, 0x1c, 0x00, 0x1c, 0x1f, 0x00, 0x7c,
    0x1c, 0x00, 0x1c, 0x18, 0x00, 0x0c, 0x18, 0x00, 0x0c, 0x38, 0x00, 0x0e,
    0x7c, 0x00, 0x1f, 0xe0, 0x80, 0x03, 0xc0, 0xff, 0x01, 0xc0, 0xff, 0x01,
0x40, 0x1c, 0x01, 0x00, 0x08, 0x00, 0x00, 0x08, 0x00, 0x00, 0x00, 0x00,
    0x00, 0x00, 0x00, 0x00, 0x00, 0x00, 0x00, 0x00, 0x00, 0x00, 0x00, 0x00,
    0x00, 0x00, 0x00, 0x00, 0x00, 0x00, 0x00, 0x00, 0x00, 0x00, 0x00, 0x00,
    0x00, 0x00, 0x00, 0x00, 0x00, 0x00, 0x00, 0x00, 0x00, 0x00, 0x00, 0x00,
    0x00, 0x00, 0x00, 0x00, 0x00, 0x00, 0x00, 0x00, 0x00, 0x00, 0x00, 0x00,
    0x00, 0x00, 0x00, 0x00, 0x00, 0x00, 0x00, 0x00, 0x00, 0x00, 0x00, 0x00,
0x00, 0x00, 0x00, 0x00, 0x00, 0x00, 0x00, 0x00, 0x00, 0x00, 0x00, 0x00};
