#define emph_planet_seq_width 24
#define emph_planet_seq_height 120
static char emph_planet_seq_bits[] = {
    0x00, 0x00, 0x00, 0x00, 0x00, 0x00, 0x00, 0x00, 0x00, 0x00, 0x7c, 0x00,
    0x00, 0x83, 0x01, 0xc0, 0x00, 0x06, 0x40, 0x00, 0x04, 0x20, 0x00, 0x08,
    0x20, 0x00, 0x08, 0x10, 0x00, 0x10, 0x10, 0x00, 0x10, 0x10, 0x00, 0x10,
    0x10, 0x00, 0x10, 0x10, 0x00, 0x10, 0x20, 0x00, 0x08, 0x20, 0x00, 0x08,
    0x40, 0x00, 0x04, 0xc0, 0x00, 0x06, 0x00, 0x83, 0x01, 0x00, 0x7c, 0x00,
0x00, 0x00, 0x00, 0x00, 0x00, 0x00, 0x00, 0x00, 0x00, 0x00, 0x00, 0x00,
    0x00, 0x00, 0x00, 0x00, 0x00, 0x00, 0x00, 0xfe, 0x00, 0x80, 0x01, 0x03,
    0x40, 0x00, 0x04, 0x20, 0x00, 0x08, 0x10, 0x00, 0x10, 0x10, 0x00, 0x10,
    0x08, 0x00, 0x20, 0x08, 0x00, 0x20, 0x08, 0x00, 0x20, 0x08, 0x00, 0x20,
    0x08, 0x00, 0x20, 0x08, 0x00, 0x20, 0x08, 0x00, 0x20, 0x10, 0x00, 0x10,
    0x10, 0x00, 0x10, 0x20, 0x00, 0x08, 0x40, 0x00, 0x04, 0x80, 0x01, 0x03,
0x00, 0xfe, 0x00, 0x00, 0x00, 0x00, 0x00, 0x00, 0x00, 0x00, 0x00, 0x00,
    0x00, 0x00, 0x00, 0x00, 0xfe, 0x00, 0x80, 0x01, 0x03, 0x40, 0x00, 0x04,
    0x20, 0x00, 0x08, 0x10, 0x00, 0x10, 0x08, 0x00, 0x20, 0x08, 0x00, 0x20,
    0x04, 0x00, 0x40, 0x04, 0x00, 0x40, 0x04, 0x00, 0x40, 0x04, 0x00, 0x40,
    0x04, 0x00, 0x40, 0x04, 0x00, 0x40, 0x04, 0x00, 0x40, 0x08, 0x00, 0x20,
    0x08, 0x00, 0x20, 0x10, 0x00, 0x10, 0x20, 0x00, 0x08, 0x40, 0x00, 0x04,
0x80, 0x01, 0x03, 0x00, 0xfe, 0x00, 0x00, 0x00, 0x00, 0x00, 0x00, 0x00,
    0x00, 0xfe, 0x00, 0x80, 0x01, 0x03, 0x60, 0x00, 0x0c, 0x10, 0x00, 0x10,
    0x08, 0x00, 0x20, 0x08, 0x00, 0x20, 0x04, 0x00, 0x40, 0x04, 0x00, 0x40,
    0x02, 0x00, 0x80, 0x02, 0x00, 0x80, 0x02, 0x00, 0x80, 0x02, 0x00, 0x80,
    0x02, 0x00, 0x80, 0x02, 0x00, 0x80, 0x02, 0x00, 0x80, 0x04, 0x00, 0x40,
    0x04, 0x00, 0x40, 0x08, 0x00, 0x20, 0x08, 0x00, 0x20, 0x10, 0x00, 0x10,
0x60, 0x00, 0x0c, 0x80, 0x01, 0x03, 0x00, 0xfe, 0x00, 0x00, 0x00, 0x00,
    0x00, 0xff, 0x01, 0xc0, 0x00, 0x06, 0x30, 0x00, 0x18, 0x08, 0x00, 0x20,
    0x08, 0x00, 0x20, 0x04, 0x00, 0x40, 0x04, 0x00, 0x40, 0x02, 0x00, 0x80,
    0x02, 0x00, 0x80, 0x02, 0x00, 0x80, 0x02, 0x00, 0x80, 0x02, 0x00, 0x80,
    0x02, 0x00, 0x80, 0x02, 0x00, 0x80, 0x02, 0x00, 0x80, 0x02, 0x00, 0x80,
    0x04, 0x00, 0x40, 0x04, 0x00, 0x40, 0x08, 0x00, 0x20, 0x08, 0x00, 0x20,
0x30, 0x00, 0x18, 0xc0, 0x00, 0x06, 0x00, 0xff, 0x01, 0x00, 0x00, 0x00};
