/* XPM */
static char * explosion2_xpm[] = {
"52 260 23 1",
" 	c None",
".	c #606000000000",
"X	c #909000000000",
"o	c #7F7F4F4F3F3F",
"O	c #B0B06D6D0000",
"+	c #FFFF00000000",
"@	c #E1E18B8B0000",
"#	c #FFFFC8C80000",
"$	c #FFFFFFFF7F7F",
"%	c #A1A1A1A1A1A1",
"&	c #FFFFFFFF3F3F",
"*	c #D0D0D0D0D0D0",
"=	c #909090909090",
"-	c #E1E190900000",
";	c #FFFFFFFFC1C1",
":	c #7F7F50503F3F",
"?	c #C1C1C1C1C1C1",
">	c #FFFFFFFFFFFF",
",	c #B0B0B0B0B0B0",
"<	c #B0B070700000",
"1	c #FFFFFFFF0000",
"2	c #C1C15F5F5F5F",
"3	c #B0B000000000",
"                                                    ",
"                                                    ",
"                                                    ",
"                                                    ",
"                                                    ",
"                                                    ",
"                                                    ",
"                                                    ",
"                                                    ",
"                                                    ",
"                                                    ",
"                            .                       ",
"                         .. .                       ",
"                                                    ",
"                          Xo                        ",
"                       .oOOXo                       ",
"                  +  .. OO@OO#                      ",
"                   X. .XO@##Oo ..                   ",
"                     ooOO@$%oOoo ..                 ",
"                  . Oo%o&O**=O#Oo .                 ",
"                   Xo%%%$$$$-$OOOo .                ",
"                  .oO%%%$;;;$$&$oO .                ",
"                 o:Oo%%$$;;;$$$OOoO  o              ",
"                oXO-$$$$;;;;?$$@$*OoX               ",
"                OO@#@$;;?;>;%=;$@**OO               ",
"              .XO@#&=;;;=*>>?=?$$@#@OX              ",
"              .XoO@@$-;;%;>;;?;$$&@OO  .            ",
"                OOO#&$$$;;>=;$$$O#OOo               ",
"                .Xo=O$&$$;;;$$&-@O X                ",
"                . .XO&,%,$;;,%&&oo.                 ",
"                 ..o#o&==$$$,%=OOo.  .X             ",
"                 +X.OOO=%&$$#=%=o.     +            ",
"                   ..X-O,#&@#O= .                   ",
"                       #O@#@OX.                     ",
"                    .  XoO@OO .<                    ",
"                    .. ..OOXo   #                   ",
"                         XXo                        ",
"                           .                        ",
"                           .                        ",
"                          .                         ",
"                                                    ",
"                                                    ",
"                                                    ",
"                                                    ",
"                                                    ",
"                                                    ",
"                                                    ",
"                                                    ",
"                                                    ",
"                                                    ",
"                                                    ",
"                                                    ",
"                                                    ",
"                                                    ",
"                                                    ",
"                                                    ",
"         +                                          ",
"          X                                         ",
"           .                                        ",
"                             #                      ",
"                             <                      ",
"                     ..      :                      ",
"                    ..o .                           ",
"                   .XOOo..                          ",
"                  . OO@OO..                         ",
"                ...oO@1@O. ....  ...                ",
"                ...OO-1O#.:.::::.::.                ",
"               ...==@###OOOO-OOOOOO:.               ",
"              ..o===@#11#-----O#OOOO:.              ",
"             .. O==##11######&----@OO.              ",
"              .XOO==&O&&#&##$#&#==#-O:.             ",
"              ..OO=#&$$$$&$$$$$==&#OO..  +          ",
"              ..O-1&&$;;$$$=$;;===--O:. X           ",
"              ..O#1&$;>>;$$$;;>;==1#O::.            ",
"              .oOO&&$;;;;;;;>;>;$&-#O::             ",
"              ..OO#$=$;>>;;;;;;$$#1-O :             ",
"           2.  .o:#-==;;;;;;;;$$&&#-Oo:.            ",
"               .::##===$;;>>;$$$&##== ...           ",
"               .:O##-$;;;;;;>$;$#&#=-Oo..           ",
"               :Oo--$$;;>>;;;;=$$&##-OO:..          ",
"               :O--&$;;;;$$;;==;$#1##O@O..          ",
"               OO#1&$;>;;$$$;;>;$&11#1#::.          ",
"              . O@##$$;;$$$$$;;$$&#1-@::.           ",
"               :O@#&&$$$$$1&$$$&&##O@O.O.o          ",
"               :OO@##&&&-1#&#&&&#=@@::o .           ",
"                :O@##111#1#-1#1===-O:...            ",
"              ..:XOO@#1O######====O:X.              ",
"               .X:=O==#####-OOO=OOOO .              ",
"               . :====O###-OOO::=.X..               ",
"                . ===OOOO-OO.X:. .. .               ",
"                  . o.OOXOO.o: .    .               ",
"                   .:::OooXo .                      ",
"          .         ..X..X...                       ",
"         X            .. ..                     X   ",
"        +                                        +  ",
"                                                    ",
"                                     :              ",
"                                      -             ",
"                                       #            ",
"                                                    ",
"                                                    ",
"                                                    ",
"                                                    ",
"                                                    ",
"                             -                      ",
"                             :                      ",
"                                                    ",
"                                                    ",
"                                                    ",
"                                                    ",
"                  X o                               ",
"                OXOX3oX.....      o o               ",
"                XOOOoooXoXXX.  . oo.                ",
"               X.O@@o@oo3oXX  ..oooo.               ",
"               .O@@OOo:::3:3::: o3oO.             X ",
"            X X3O:@@::<<<:::::::O:::OXX X        .  ",
"            X.33:@::@+<+@%%<3<<<<3:::O3X.X          ",
"            .X3O::<@<<<--=--@<<<<<<::::3X           ",
"            X33:<@O@+@--------+3@O@===::X           ",
"           .X::<OO--@--@##-#@-O-O=%=<==OXX          ",
"            X::<O@--@@@#@-#@#@----%%=O<<<:          ",
"           X:O<@O---@##########----%@@@:<:.         ",
"           o:O<@@@-@@-##&##&###@O#---@<O::.       . ",
"          oX:<@@@@@-@###&#&#&####@#--@@OO:..        ",
"         oo::<@@@@-@###&#111#11###@#-@<OO: .        ",
"        o.o:O<@@@#-#@##&#$$$#?=11##@#-@<o<:.        ",
"         oooO<@@@-######1&&&&;?1&####@@<OX :.       ",
"        Xoo:O<+@=,=#@##1;$$$;$&&#&##@-@@O<o:.       ",
"         XX:3<@-,=%=####;$;;;$$&&#####@<O<<Xo       ",
"        ..X33<<--=%####&$;;;$;$&&&###--@@<<o        ",
"         .X:33<@--@#####&$;;;;$&1####--@Oo<:..      ",
" X.      X.:O+<@---@##1&1&&$$$$O1&#@#@-<+<o: .      ",
"          .::<@@@--@##1##111$;11;###@--+o@:o .      ",
"          ..:<<@---@O##1&##1#&#&#&#@@-<+o<::        ",
"          . :<@----@##1###&#&#&#&###@-<O<3:o        ",
"           .:<@@O---@#1#######@#@#%?@-@+<::Xo       ",
"           .:O<@--@-@--##@######@-==-@<3<3X:..      ",
"           .OO<<@@@-@###@@#-#-#--?=--@@@<<X:.       ",
"           :O:O<<@-@-#-#--@---##-----@<O<<X..       ",
"           X:OOO<O------@-@--@@-@@O@@@@O3< X.       ",
"            ::::O<@-----@@@@@@@@@@O@@@<O<X: .       ",
"            X::XO<@<@#--@@@@@@@@<@<@<@@O<:: .       ",
"             X.:O:<O@<@<@<@O@@@@<@OOO<<O:: .        ",
"             X.====O<<OOO@<<@@<@OOXO<<O::X..        ",
"               .,?,:X<<<3<O<<O@OO<<<:X:X ..         ",
"               .=%%=X::<<<<<<@@O<:<<::              ",
"                .,==:X:X::::OOO::  :: .             ",
"                  .. ::::X::::::O ...               ",
"                    .....X  X X ..                  ",
"                         ...  ..                    ",
"                                                    ",
"                                          :         ",
"                                           -        ",
"                                                    ",
"                                                    ",
"                                                    ",
"                                                    ",
"                                                    ",
"                   =                                ",
"                  =,                                ",
"         3        ...      X                        ",
"          .     X O  .....X..        3              ",
"                ......XXX....                       ",
"                ..OOX.X...33X..      .              ",
"               ..O.OO3XX33333X..  X                 ",
"              ...O333333O+O3OO3.... .  = =          ",
"            X...XXXO3XX<+O@OO3OO3XXX...,===         ",
"            ..XX3333+XX<@+@@@@@OO.......,,,         ",
"      . ... .X3O333+3XX<@@@@@2@+O3XXX......         ",
"    X ..XO.XO3O3O@@2@3+3@O@@2-+O333XXXX.XXX.        ",
"    X.XX3XOOOOO@@@@@+3<O+@@2-X@33<3XXXX......       ",
"    ...3OOOO@@@@@##@@33<3@-2X+X==X<<3XXXX..XX       ",
"    X...OXOOO@@@#1#@@@33@2+X+-3,,<<<33O3X33..       ",
"    ..XX3O3OO@@@@#1@@@@2-+@X<<2@+X<<<O3O33X..       ",
"      X.XX3O+O@@##1#@@@-+@++X@2+@X<+O3<3O3X..X      ",
"      .XX333O@@@@##1##22@+XX+-#--3<3O@<<3OX..       ",
"     ...X33O+O@@@@##@#2@+X+2-@1@-3<O+O@3O3X..       ",
"    ...XO3@3@O+O@@@#@2-@X@+--@#@-+<+3@3@3OXX.       ",
"    ..333O@3@3<@+-----<+X3+-2##--@+3X@3O3O3o .      ",
"   ..X33@3#@O33<<-@-++<++X+-2@#-++XX+333OOOO o      ",
"    .X33O@+O3333<@<+@+<<X+@+----+X+X323O3OOX.       ",
"    .XX3O+@O+OXX<-+@+3<<+@-@+X+3X++2+-@3OO3O        ",
"    .XX33+333+3X<-33+X3<2-#--2+X22--2+2@O3XXX   .3  ",
"    ..X33+3+3333<-++X+<X--1-2-X+@-@@1##@@OXX.X      ",
"    ..=X,333+33<<--+@<<@--#-@-@+<-<<#@@+O3XX.       ",
"     ..=,33+O+3@2@+-+X<+--@#@----@@--@--OO3O.X      ",
"       ==.X33O2222@+-<32--@@@--2@@-----@+3OX.       ",
"       =,XX3O@@@@##@2-3X+--@#1###@@@+@3+O@OX.       ",
"       ..XX3OO@@@@@@-<----<@####@@@@<3333OOOXo      ",
"       ..XX3O@@@@@@+2<+--@<#####@@<@<++3@3O3..      ",
"        XX33O+@@OO3@O@3@<<#11@-@@<@<<333333X..      ",
"        ..33O@@@+33O3@<<@###@@<@<@@@+O33333X.       ",
"        ..X3OOOO3O33+O@<@@@@@@<@O<OOO33333OX.       ",
"       ...XXXOOO33X3O@X<+<<3<@<<<3O3O3O,,X3..X      ",
"         X.XXX33X3X3+3+@3@<<<<<OOO3OXOXO=OO.o       ",
"          ....XX33X3+3X+3<<O3@@@33XXOOO=OOO..X      ",
"           ..XXX3XX33+XX3<33OOOO3OXXOXOo.OO.o       ",
"         ..XXXX3XX.333333333O3OO33XXX.XOoo.o        ",
"        ..X3333X3X.X333X..XXXO3X333..X ....         ",
"    3.  ..333333XX...X....XX....3.3XX ..            ",
"        ..XXXXXXX.X.XX.XXXXOX..XXXXX..              ",
"        ......X,......XXOXOX....X.X..               ",
"         ..  ..  , XoXOOOXOX.    ..       .         ",
"               ===  XOOOOOO..X     X       3        ",
"                  = o.OOXOO.o                       ",
"                    Xo.OooXo                        ",
"                      X  X                          ",
"                                                    ",
"                                                    ",
"                                                    ",
"                                                    ",
"                                                    ",
"                                                    ",
"                                                    ",
"                                                    ",
"                    ....... .                       ",
"                  .  .X ..X...     ,=               ",
"                . ..X..XX.XX .    =,,               ",
"               . ...XXXXXXXXX  .o                   ",
"          ....O ...X.XXXXX3XX.. .                   ",
"          ...oXO.XXXXXXXXX3X3O<O.o                  ",
"          . OoOOXXXXXXXXXXX3XOOO...                 ",
"         . .XOOXO3333XXXXXXXO<OX. .                 ",
"        X..XXOXO3O3O3X3XX3X33O3O.XX......           ",
"        .XX3XXXO3O--O33XX3XXX3XX3XXXXO.O            ",
"       X.X33X3X3O3-@<O33333XXXXXX333OO<O...         ",
"       ..X3X3XX3X<-3-3333333XXXX3XX333OXo.X         ",
"        .XX3XX33O3@O33333333XXXXX3X33<<XO....       ",
"        .XXXX3XX333333333333X3XX33333XXXXX...       ",
"        .XXX33X3333333333333XXX3X3XX3XXXXXX....     ",
"        ...XXX333333333333333XXX333333XX3XXX..      ",
"         .XXXX3X33333+3++33333X3X3X3O3XXXXXXX.      ",
" =        ..XXXX3X33+3++++++3333XO@O-333333XX..     ",
" =%       . .XXX33333+++++33333333@O-333333X.       ",
" =%        ..XXXX333+3++++++333333--O33XX33X.       ",
"        .....XXX33333+3++++333333<3-<333X3XX..      ",
"        ...XXXXXX33333+++++33333333<3XXXXXXX.       ",
"        .XXXXXXX33333333+3+33+3333333XXXXXXX.X      ",
"       ...XXXXXX3X333333333333333333XXXXXXX...      ",
"       ..oXXOXX333333333+33333X33X3XXXXXXOXo..      ",
"       .oX<O<3XX3333333333+333XXXXX3XXXXOXOX..      ",
"       .XO<-<<3XX33333333333XXXX33XXXXXXXOOOX.      ",
"        ..O<<<3XXX3333O333333XXXXXXXXXXXoXOo.       ",
"        .o.O<<X3X3XXXO3O333XXXXXXXXXXX.XX....       ",
"        ... <<XXXXX3O--333XX3XXXXXXXX.......        ",
"         .. XXXXXXX3OO@@-33XXXXXXXXX...             ",
"          .. XXX.XXXOOOO3OXXXXOXX.XX.               ",
"             X .XX.X.OOO3XX3XOXXo...X..             ",
"            .......X.XXX3XXXXOXOX   ..              ",
"              .... .XXXXXXXXOoOO...            ,    ",
"                   ..XXX.XXXXOO....            =,   ",
"                    .....X XXo.o..             =    ",
"                     .... .......                   ",
"                            ..                      ",
"                                                    ",
"                 =                                  ",
"                                                    ",
"                                                    ",
"                                                    ",
"                                                    "};
