/* XPM */
static char * colorline_xpm[] = {
"57 10 20 2",
"aa	c #00FF00",
"ab	c #19FF00",
"ac	c #33FF00",
"ad	c #4CFF00",
"ae	c #66FF00",
"af	c #7FFF00",
"ag	c #99FF00",
"ah	c #B2FF00",
"ai	c #CCFF00",
"aj	c #E5FF00",
"ak	c #FFFF00",
"al	c #FFE500",
"am	c #FFCC00",
"an	c #FFB200",
"ao	c #FF9900",
"ap	c #FF7F00",
"aq	c #FF6600",
"ar	c #FF4C00",
"as	c #FF3300",
"at	c #FF1900",
"aaaaaaabababacacacadadadaeaeaeafafafagagagahahahaiaiajajakakalalalamamamanananaoaoaoapapapaqaqaqarararasasasatatat",
"aaaaaaabababacacacadadadaeaeaeafafafagagagahahahaiaiajajakakalalalamamamanananaoaoaoapapapaqaqaqarararasasasatatat",
"aaaaaaabababacacacadadadaeaeaeafafafagagagahahahaiaiajajakakalalalamamamanananaoaoaoapapapaqaqaqarararasasasatatat",
"aaaaaaabababacacacadadadaeaeaeafafafagagagahahahaiaiajajakakalalalamamamanananaoaoaoapapapaqaqaqarararasasasatatat",
"aaaaaaabababacacacadadadaeaeaeafafafagagagahahahaiaiajajakakalalalamamamanananaoaoaoapapapaqaqaqarararasasasatatat",
"aaaaaaabababacacacadadadaeaeaeafafafagagagahahahaiaiajajakakalalalamamamanananaoaoaoapapapaqaqaqarararasasasatatat",
"aaaaaaabababacacacadadadaeaeaeafafafagagagahahahaiaiajajakakalalalamamamanananaoaoaoapapapaqaqaqarararasasasatatat",
"aaaaaaabababacacacadadadaeaeaeafafafagagagahahahaiaiajajakakalalalamamamanananaoaoaoapapapaqaqaqarararasasasatatat",
"aaaaaaabababacacacadadadaeaeaeafafafagagagahahahaiaiajajakakalalalamamamanananaoaoaoapapapaqaqaqarararasasasatatat",
"aaaaaaabababacacacadadadaeaeaeafafafagagagahahahaiaiajajakakalalalamamamanananaoaoaoapapapaqaqaqarararasasasatatat",
};
