#define warpflash_width	8
#define warpflash_height	12
static char warpflash_bits[] = {
0x24, 0x18, 0x7e, 0x18, 0x24, 0x00, 0x00, 0x00, 0x00, 0x00, 0x00, 0x00};
