#define warpbeacon_width	8
#define warpbeacon_height	12
static char warpbeacon_bits[] = {
0x18, 0x24, 0x24, 0x24, 0x18, 0xdb, 0x3c, 0xdb, 0x18, 0x18, 0x3c, 0x18};
