#define fedmplanet_width 16
#define fedmplanet_height 16
static unsigned char fedmplanet_bits[] = {
  0x00, 0x00, 0x00, 0x00, 0x00, 0x00, 0x00, 0x00, 0x80, 0x00, 0xc0, 0x01,
  0xc0, 0x01, 0xe0, 0x03, 0xe0, 0x03, 0x70, 0x07, 0x30, 0x06, 0x00, 0x00,
  0x00, 0x00, 0x00, 0x00, 0x00, 0x00, 0x00, 0x00, };
