/* XPM */
static char * indplanet_xpm[] = {
"30 30 3 1 XPMEXT",
" 	c None",
".	c #000000000000",
"X	c #D0D0D0D0D0D0",
"                         ...  ",
"                        .XXX. ",
"                       .X...X.",
"                        .  .X.",
"                           .X.",
"                          .X. ",
"                         .X.  ",
"                          .   ",
"                         .X.  ",
"                          .   ",
"                              ",
"                              ",
"                              ",
"                              ",
"                              ",
"                              ",
"                              ",
"                              ",
"                              ",
"                              ",
"                              ",
"                              ",
"                              ",
"                              ",
"                              ",
"                              ",
"                              ",
"                              ",
"                              ",
"                              ",
"XPMEXT num_views",
"1",
"XPMENDEXT"};
