#define klimplanet_width 16
#define klimplanet_height 16
static unsigned char klimplanet_bits[] = {
  0x00, 0x00, 0x00, 0x00, 0x80, 0x00, 0x80, 0x00, 0x80, 0x00, 0xc0, 0x01,
  0xc0, 0x01, 0xc0, 0x01, 0xb0, 0x02, 0x70, 0x07, 0x38, 0x07, 0x08, 0x0c,
  0x00, 0x00, 0x00, 0x00, 0x00, 0x00, 0x00, 0x00, };
