/* XPM */
static char * kliplanet_xpm[] = {
"30 30 11 1 XPMEXT",
" 	c None",
".	c #000000000000",
"X	c #FFFF00000000",
"o	c #A1A1A1A1A1A1",
"O	c #B0B0B0B0B0B0",
"+	c #00007F7FEFEF",
"@	c #D0D0D0D0D0D0",
"#	c #C1C1C1C1C1C1",
"$	c #0000FFFF0000",
"%	c #E0E0E0E0E0E0",
"&	c #909090909090",
"                       .      ",
"                      .X.     ",
"                      .X.     ",
"                      .X.     ",
"                     .XXX.    ",
"                     .XoX.    ",
"                     .XOo..   ",
"                    .+O@##$.  ",
"                    .+O%oo$$. ",
"                   .+++&.$$$$.",
"                   .++.. .... ",
"                   .+.        ",
"                    .         ",
"                              ",
"                              ",
"                              ",
"                              ",
"                              ",
"                              ",
"                              ",
"                              ",
"                              ",
"                              ",
"                              ",
"                              ",
"                              ",
"                              ",
"                              ",
"                              ",
"                              ",
"XPMEXT num_views",
"1",
"XPMENDEXT"};
