#define orimplanet_width 16
#define orimplanet_height 16
static unsigned char orimplanet_bits[] = {
  0x00, 0x00, 0x00, 0x00, 0xc0, 0x01, 0xf0, 0x07, 0x00, 0x00, 0x38, 0x0e,
  0xe0, 0x03, 0xc4, 0x11, 0xcc, 0x19, 0x88, 0x08, 0x98, 0x0c, 0x90, 0x04,
  0xa0, 0x02, 0x00, 0x00, 0x00, 0x00, 0x00, 0x00, };
