/* XPM */
static char * oriplanet_xpm[] = {
"30 30 7 1 XPMEXT",
" 	c None",
".	c #000000000000",
"X	c #0000FFFFFFFF",
"o	c #9A9A9A9AAFAF",
"O	c #C6C6C6C6E0E0",
"+	c #A9A9A9A9C0C0",
"@	c #8D8D8D8DA0A0",
"                    .  ...  . ",
"                   .X..oOo..X.",
"                    .O.....O. ",
"                    ..+. .+.. ",
"                   .o..o.o..o.",
"                   .+. ... .+.",
"                   .O. .@. .O.",
"                   .O. .o. .O.",
"                    .+..+..+. ",
"                     .o.O.o.  ",
"                      ..X..   ",
"                        .     ",
"                              ",
"                              ",
"                              ",
"                              ",
"                              ",
"                              ",
"                              ",
"                              ",
"                              ",
"                              ",
"                              ",
"                              ",
"                              ",
"                              ",
"                              ",
"                              ",
"                              ",
"                              ",
"XPMEXT num_views",
"1",
"XPMENDEXT"};
