#define rommplanet_width 16
#define rommplanet_height 16
static unsigned char rommplanet_bits[] = {
  0x00, 0x00, 0x00, 0x00, 0x80, 0x00, 0x80, 0x00, 0xc0, 0x01, 0xa0, 0x02,
  0x30, 0x05, 0xd0, 0x04, 0x10, 0x07, 0xa0, 0x02, 0xc0, 0x01, 0x80, 0x00,
  0x80, 0x00, 0x00, 0x00, 0x00, 0x00, 0x00, 0x00, };
