/* XPM */
static char * romplanet_xpm[] = {
"30 30 8 1 XPMEXT",
" 	c None",
".	c #000000000000",
"X	c #FFFF00000000",
"o	c #A1A1A1A1A1A1",
"O	c #FFFFC8C80000",
"+	c #D0D0D0D0D0D0",
"@	c #0000FFFF0000",
"#	c #00007F7FEFEF",
"                        .     ",
"                       .X.    ",
"                       .o.    ",
"                      .OoO.   ",
"                      ..+..   ",
"                     .@#+##.  ",
"                    .@@#+#@#. ",
"                   .##@######.",
"                   .##@@####@.",
"                   .#@@@@#@@#.",
"                   .#@@##@@##.",
"                   .@####@@@@.",
"                    .##@##@@. ",
"                     .#####.  ",
"                      ..#..   ",
"                       .+.    ",
"                       .+.    ",
"                        .     ",
"                              ",
"                              ",
"                              ",
"                              ",
"                              ",
"                              ",
"                              ",
"                              ",
"                              ",
"                              ",
"                              ",
"                              ",
"XPMEXT num_views",
"1",
"XPMENDEXT"};
