#define bottomleftrounded_width 10
#define bottomleftrounded_height 10
static unsigned char bottomleftrounded_bits[] = {
   0xff, 0x02, 0x91, 0x02, 0x23, 0x00, 0x64, 0x00, 0x16, 0x02, 0x34, 0x02,
   0xe8, 0x02, 0x70, 0x00, 0xa0, 0x02, 0x00, 0x03};
