#define bottomrightrounded_width 10
#define bottomrightrounded_height 10
static unsigned char bottomrightrounded_bits[] = {
   0xfd, 0x03, 0x25, 0x02, 0x10, 0x03, 0x98, 0x00, 0xa1, 0x01, 0xb1, 0x00,
   0x5d, 0x00, 0x38, 0x00, 0x15, 0x00, 0x03, 0x00};
