#define bottomleftsquare_width 10
#define bottomleftsquare_height 10
static unsigned char bottomleftsquare_bits[] = {
   0x0a, 0x00, 0x04, 0x02, 0x7a, 0x00, 0xed, 0x02, 0x30, 0x02, 0x15, 0x02,
   0x63, 0x00, 0x21, 0x00, 0x90, 0x02, 0xff, 0x02};
