#define toprightrounded_width 10
#define toprightrounded_height 10
static unsigned char toprightrounded_bits[] = {
   0x07, 0x00, 0x15, 0x00, 0x39, 0x00, 0x41, 0x00, 0xb3, 0x00, 0xed, 0x01,
   0xc9, 0x00, 0x43, 0x01, 0x00, 0x02, 0x73, 0x03};
