#define age1_width 16
#define age1_height 16
static char age1_bits[] = {
	0xe0, 0x03, 0x18, 0x0c, 0xac, 0x12, 0x02, 0x20, 0xaa, 0x2a, 0x01, 0x40,
	0xab, 0x6a, 0x01, 0x40, 0xab, 0x6a, 0x01, 0x40, 0xaa, 0x2a, 0x02, 0x20,
    0xac, 0x1a, 0x18, 0x0c, 0xe0, 0x03, 0x00, 0x00
};
