#define age2_width 16
#define age2_height 16
static char age2_bits[] = {
    0xe0, 0x03, 0x58, 0x0d, 0xac, 0x1a, 0x56, 0x35, 0xaa, 0x2a, 0x55, 0x55,
    0xab, 0x6a, 0x55, 0x55, 0xab, 0x6a, 0x55, 0x55, 0xaa, 0x2a, 0x56, 0x35,
    0xac, 0x1a, 0x58, 0x0d, 0xe0, 0x03, 0x00, 0x00
};
