#define age3_width 16
#define age3_height 16
static char age3_bits[] = {
    0xe0, 0x03, 0x58, 0x0d, 0xfc, 0x1f, 0x56, 0x35, 0xfe, 0x3f, 0x55, 0x55,
    0xff, 0x7f, 0x55, 0x55, 0xff, 0x7f, 0x55, 0x55, 0xfe, 0x3f, 0x56, 0x35,
    0xfc, 0x1f, 0x58, 0x0d, 0xe0, 0x03, 0x00, 0x00
};
