/* XPM */
static char *ASr-quant[] = {
/* width height ncolors chars_per_pixel */
"20 320 7 1",
/* colors */
"` c None",
"a c #B07000",
"b c #00FF00",
"c c #FFE800",
"d c #F19000",
"e c #7F503F",
"f c #FF0000",
/* pixels */
"````````````````````",
"`````````aa`````````",
"`````````dd`````````",
"````````ecce````````",
"````````acca````````",
"````````dccd````````",
"```````ecccce```````",
"```````ecccce```````",
"``c```decddced```c``",
"``d`eadaddddadae`d``",
"``deddcaccccacdded``",
"``dadccccccccccdad``",
"``daddcdcddcdcddad``",
"``d`eabadccdabae`d``",
"``d```ebaccabe```d``",
"``d````bdccdb````d``",
"```````aaccaa```````",
"```````fddddf```````",
"````````faaf````````",
"````````````````````",
"````````````````````",
"````````````ea``````",
"```````````eaa``````",
"``````````edca``````",
"```e``````dcca``````",
"```ae```eaccda``````",
"``ea``eeedccda``````",
"``aaaaaaaddcde``````",
"``aaddcaddddae``````",
"`aaadccdccddaae`````",
"`a`eadddcccdada``e``",
"ea``eaadddcdddaeea``",
"`````badddddcddaae``",
"`````badcdaadddaa```",
"`````adccabeeaeaa```",
"````eadcdab````ae```",
"`````adddae```ea````",
"``````eaaa````ee````",
"````````````````````",
"````````````````````",
"````````````````````",
"````````````````````",
"``````d````````ea```",
"`````ae``````eadae``",
"```eaaee```eaddca```",
"```aaadaaaedcccde```",
"``aeaddddadcccda````",
"`a``eadcdddddcde````",
"`````aadccdddde`````",
"`````baddccddee`````",
"`````badddcdaaa`````",
"````aaddcddddda`````",
"```eadccdddccda``e``",
"```eddddaaaaddaeae``",
"````addabeeaaaaae```",
"`````aaae```eaae````",
"`````````````ae`````",
"````````````ae``````",
"````````````````````",
"````````````````````",
"````````````````````",
"```````eae``````````",
"`````eaae```````````",
"```aaaaee```````````",
"``aeeaaaa```````````",
"`````addddaeeeeeeae`",
"`````adcdaeadddddde`",
"````eadcddddccccde``",
"````bbddcddddcdae```",
"``faaaddccddcda`````",
"`eaadccddcddae``````",
"`eadcccddddaae``````",
"``adddaadcdda```````",
"``adaabeadcde```````",
"```efe`eeddde```````",
"````````eaaaeed`````",
"`````````eaaae``````",
"````````eaae````````",
"````````a```````````",
"````````````````````",
"````````````````````",
"````````````````````",
"````````````````````",
"````dddddddc````````",
"```````aae``````````",
"``````eddde`````````",
"``````adcda`````````",
"`````ebcccdd````````",
"``fabbadcaaeee``````",
"`fdadadcccdcccdae```",
"`adccccdccddcccccda`",
"`adccccdccddcccccda`",
"`fdadadcccdcccdae```",
"``fabbadcaaeee``````",
"`````ebcccdd````````",
"``````adcda`````````",
"``````eddde`````````",
"```````aae``````````",
"````dddddddc````````",
"````````````````````",
"````````````````````",
"```````ee```````````",
"````````ada`````````",
"``````````aaae``````",
"````````eaaeeae`````",
"``eee```addde```````",
"``aaaabaacdae```````",
"`eaddaaadddda```````",
"`fddccddccaaa```````",
"`eaaddcddcddae``````",
"`eaaadddcdddcda`````",
"````badccdddccdae```",
"````ebddddddcccda```",
"````eadcdaaddddcda``",
"````eddddaeeeeaeaa``",
"``a``adde```````````",
"``eaaaae````````````",
"`````adae```````````",
"```````ea```````````",
"````````````````````",
"````````````a```````",
"````````````aa``````",
"``````ee`````aa`````",
"`````adae```eaaa````",
"````addaabeaadaaa```",
"```eddcdaaadddaeaa``",
"```eaddcddddcdae````",
"````ebadcdccdda`````",
"`````badddcddaa`````",
"`````eadcccddae`````",
"`````adddcdddda`````",
"`ee`eadcdadddcde````",
"``aeaddddaacccca````",
"```aaaaaaaeadccde```",
"````aaee```eeadca```",
"`````ae``````eedde``",
"``````a`````````e```",
"````````````````````",
"````````````````````",
"````````````````````",
"````````````````````",
"```````efe`````a````",
"`````eaadae````a````",
"`````adddaa````ee```",
"`````aadcdabeeeaa```",
"``````bdcdaabddaae``",
"`````ebaccdddddaaa``",
"`a```eaddddcccdaea``",
"`ae`eadddcccddae`ae`",
"`eaaadcccccdaaa`````",
"``aaddddaddddee`````",
"``eaadadadddca``````",
"```aeeeaeacccd``````",
"```ae````edccd``````",
"````e`````adcde`````",
"```````````acde`````",
"```````````eade`````",
"````````````eae`````",
"````````````````````",
"````````````````````",
"````````````````````",
"````````faaf````````",
"```````fddddf```````",
"```````aaccaa```````",
"``d````bdccdb````d``",
"``d```ebaccabe```d``",
"``d`eabadccdabae`d``",
"``daddcdcddcdcddad``",
"``dadccccccccccdad``",
"``deddcaccccacdded``",
"``d`eadaddddadae`d``",
"``c```decddced```c``",
"```````ecccce```````",
"```````ecccce```````",
"````````dccd````````",
"````````acca````````",
"````````ecce````````",
"`````````dd`````````",
"`````````aa`````````",
"````````````````````",
"````````````````````",
"```ee````eaaae``````",
"```ae````addda``````",
"```a````badcdae`````",
"``eaaaaebaccda``````",
"``aadddaadcdab``````",
"`eaaddcdddddaee`````",
"`aeeadddcdddaae``ae`",
"`e``edadccccddae`a``",
"`````aadddcdccdaaa``",
"`````eaddddadddaae``",
"`````edcddaaaaaaa```",
"`````edccdee```ae```",
"`````adcdae````a````",
"`````accd```````````",
"`````adde```````````",
"`````aae````````````",
"`````ee`````````````",
"````````````````````",
"````````````````````",
"````````````````````",
"``````ee````````````",
"``````ae````````````",
"`````ae`````ee``````",
"````aaae```aada`````",
"``eaaaddabbaddda````",
"``aeeaddaaadccda````",
"````eadcdddccdaa````",
"`````adddddddaa`````",
"`````aadccdddbe`````",
"`````eaddccddae`````",
"````eddddddcdaa`````",
"````accdddadcdae`ae`",
"```edcccdaadddaaae``",
"```accddeeaaaaade```",
"``edddae`````eae````",
"``aaae```````ae`````",
"```e`````````a``````",
"````````````````````",
"````````````````````",
"````````````````````",
"`````````eaa````````",
"``````eaaa``````````",
"`````aaaaa``````````",
"````e`eadda````e````",
"``````eaddaeeeaae```",
"``````eddcdabaddae``",
"``````dddcddadddda``",
"`````eeaddcdcccdda``",
"`````adddccdddaaaf``",
"```edccdddcddabbe```",
"``eddccddddddae`````",
"`adccccddadddae`````",
"`addaaaeeaddcde`````",
"````````eeaddde`````",
"``````````eeaaaaae``",
"```````````eadae````",
"``````````aae```````",
"````````````````````",
"````````````````````",
"````````````````````",
"````````````````````",
"````````````````````",
"````````cddddddd````",
"``````````eaa```````",
"`````````eddde``````",
"`````````adcda``````",
"````````ddcccbe`````",
"``````eeeaacdabbaf``",
"```eadcccdcccdadadf`",
"`adcccccddccdccccda`",
"`adcccccddccdccccda`",
"```eadcccdcccdadadf`",
"``````eeeaacdabbaf``",
"````````ddcccbe`````",
"`````````adcda``````",
"`````````eddde``````",
"``````````eaa```````",
"````````cddddddd````",
"````````````````````",
"````````````````````",
"```````````e````````",
"```````````aae``````",
"````````````eaaa````",
"```````````eaaaeaa``",
"``e`e`````aaddae````",
"`eaaaaaaeaddcdae````",
"``adcddcdaadccb`````",
"```adcccdddddaae````",
"````adccddcccdabe```",
"`````eadddcdddddaf``",
"``````eaadcddcccddf`",
"``````eadddddddcdae`",
"```````addcaabdada``",
"```````edddaebeaaf``",
"```````eadae````````",
"`````adaaae`````````",
"```````eaaa`````````",
"``````````aa````````",
"````````````````````",
"````````````````````",
"````````````````````",
"```e````````ee``````",
"``eaae```````aa`````",
"```acdaee```eeaa````",
"```adccdaeaaaaaaa```",
"````dcccdaaddddaaa``",
"````edcdddadcdae`ae`",
"````eaddddcddda`````",
"`````eaddcccdbe`````",
"`````aadccdddab`````",
"`````addccdcdabe````",
"````eadcddddcddae```",
"``aaeddddaaadcdae```",
"```aaadaaebaadda````",
"````aaae```eaaa`````",
"`````ae`````ee``````",
"``````ae````````````",
"```````a````````````",
"````````````````````",
"````````````````````",
"``````e`````````````",
"`````eae````````````",
"`````edda```````````",
"`````edcde``````````",
"``````dccde````ea```",
"``````dcccae````a```",
"`````edcccdaaaeea```",
"``````addddadddaae``",
"`````eaadddddcddaa``",
"`````aaadccccddaeee`",
"`ea`eacaccdddabe``a`",
"``aeadccddddabe```e`",
"``aaadddddddab``````",
"```aaaaaaadcdae`````",
"```ae```ebdcdaa`````",
"```ea````aadddf`````",
"````a````eadaa``````",
"```````````e````````",
"````````````````````"
};
