/* XPM */
static char * AT_xpm[] = {
"28 448 4 1",
" 	c None",
".	c #898989",
"+	c #CECECE",
"@	c #000000",
"          ........          ",
"       ......+.......       ",
"      .+.........+....      ",
"    .......+...........     ",
"   .....@@....... . .       ",
"   .+.@@.@@..+..   . . +    ",
"  ....@.@.@@..... .         ",
" ....@.@.@.@...... .        ",
" ..+..@.@.@..+...+.         ",
" ....@.@.@.@.. ... . .      ",
".....@@.@.@.. . . . .      .",
"......@..@@.......   . .  . ",
"....+..@@...+.. . . . .   ..",
".......................  ...",
".@.....+..+......+.... ....@",
"...@.....................@..",
".....@.@.@.........@.@.@....",
"..+........@.@.@.@..........",
" ...... ........... . ..  . ",
" ... . . ..... .. .   .   . ",
" .... ..  . . .     .     . ",
"  .. . . . .   . .          ",
"   ...... .   . .           ",
"   ..+.... ....        +    ",
"    ....+........           ",
"      .........  .   .      ",
"       ......+.... ..       ",
"          ........+         ",
"          ........          ",
"       ......+.......       ",
"      .+.........+....      ",
"    .......+...........     ",
"   .....@@....... . .       ",
"   .+.@@.@@..+..   . . +    ",
"  ....@.@.@@..... .         ",
" ....@.@.@.@...... .        ",
" ..+..@.@.@..+...+.         ",
" ....@.@.@.@.. ... . .      ",
".....@@.@.@.. . . . .      .",
"......@..@@.......   . .  . ",
"....+..@@...+.. . . . .   ..",
".......................  ...",
".@.....+..+......+.... ....@",
"...@.....................@..",
".....@.@.@.........@.@.@....",
"..+........@.@.@.@..........",
" ...... ........... . ..  . ",
" ... . . ..... .. .   .   . ",
" .... ..  . . .     .     . ",
"  .. . . . .   . .          ",
"   ...... .   . .           ",
"   ..+.... ....        +    ",
"    ....+........           ",
"      .........  .   .      ",
"       ......+.... ..       ",
"          ........+         ",
"          ........          ",
"       ......+.......       ",
"      .+.........+....      ",
"    .......+...........     ",
"   .....@@....... . .       ",
"   .+.@@.@@..+..   . . +    ",
"  ....@.@.@@..... .         ",
" ....@.@.@.@...... .        ",
" ..+..@.@.@..+...+.         ",
" ....@.@.@.@.. ... . .      ",
".....@@.@.@.. . . . .      .",
"......@..@@.......   . .  . ",
"....+..@@...+.. . . . .   ..",
".......................  ...",
".@.....+..+......+.... ....@",
"...@.....................@..",
".....@.@.@.........@.@.@....",
"..+........@.@.@.@..........",
" ...... ........... . ..  . ",
" ... . . ..... .. .   .   . ",
" .... ..  . . .     .     . ",
"  .. . . . .   . .          ",
"   ...... .   . .           ",
"   ..+.... ....        +    ",
"    ....+........           ",
"      .........  .   .      ",
"       ......+.... ..       ",
"          ........+         ",
"          ........          ",
"       ......+.......       ",
"      .+.........+....      ",
"    .......+...........     ",
"   .....@@....... . .       ",
"   .+.@@.@@..+..   . . +    ",
"  ....@.@.@@..... .         ",
" ....@.@.@.@...... .        ",
" ..+..@.@.@..+...+.         ",
" ....@.@.@.@.. ... . .      ",
".....@@.@.@.. . . . .      .",
"......@..@@.......   . .  . ",
"....+..@@...+.. . . . .   ..",
".......................  ...",
".@.....+..+......+.... ....@",
"...@.....................@..",
".....@.@.@.........@.@.@....",
"..+........@.@.@.@..........",
" ...... ........... . ..  . ",
" ... . . ..... .. .   .   . ",
" .... ..  . . .     .     . ",
"  .. . . . .   . .          ",
"   ...... .   . .           ",
"   ..+.... ....        +    ",
"    ....+........           ",
"      .........  .   .      ",
"       ......+.... ..       ",
"          ........+         ",
"          ........          ",
"       ......+.......       ",
"      .+.........+....      ",
"    .......+...........     ",
"   .....@@....... . .       ",
"   .+.@@.@@..+..   . . +    ",
"  ....@.@.@@..... .         ",
" ....@.@.@.@...... .        ",
" ..+..@.@.@..+...+.         ",
" ....@.@.@.@.. ... . .      ",
".....@@.@.@.. . . . .      .",
"......@..@@.......   . .  . ",
"....+..@@...+.. . . . .   ..",
".......................  ...",
".@.....+..+......+.... ....@",
"...@.....................@..",
".....@.@.@.........@.@.@....",
"..+........@.@.@.@..........",
" ...... ........... . ..  . ",
" ... . . ..... .. .   .   . ",
" .... ..  . . .     .     . ",
"  .. . . . .   . .          ",
"   ...... .   . .           ",
"   ..+.... ....        +    ",
"    ....+........           ",
"      .........  .   .      ",
"       ......+.... ..       ",
"          ........+         ",
"          ........          ",
"       ......+.......       ",
"      .+.........+....      ",
"    .......+...........     ",
"   .....@@....... . .       ",
"   .+.@@.@@..+..   . . +    ",
"  ....@.@.@@..... .         ",
" ....@.@.@.@...... .        ",
" ..+..@.@.@..+...+.         ",
" ....@.@.@.@.. ... . .      ",
".....@@.@.@.. . . . .      .",
"......@..@@.......   . .  . ",
"....+..@@...+.. . . . .   ..",
".......................  ...",
".@.....+..+......+.... ....@",
"...@.....................@..",
".....@.@.@.........@.@.@....",
"..+........@.@.@.@..........",
" ...... ........... . ..  . ",
" ... . . ..... .. .   .   . ",
" .... ..  . . .     .     . ",
"  .. . . . .   . .          ",
"   ...... .   . .           ",
"   ..+.... ....        +    ",
"    ....+........           ",
"      .........  .   .      ",
"       ......+.... ..       ",
"          ........+         ",
"          ........          ",
"       ......+.......       ",
"      .+.........+....      ",
"    .......+...........     ",
"   .....@@....... . .       ",
"   .+.@@.@@..+..   . . +    ",
"  ....@.@.@@..... .         ",
" ....@.@.@.@...... .        ",
" ..+..@.@.@..+...+.         ",
" ....@.@.@.@.. ... . .      ",
".....@@.@.@.. . . . .      .",
"......@..@@.......   . .  . ",
"....+..@@...+.. . . . .   ..",
".......................  ...",
".@.....+..+......+.... ....@",
"...@.....................@..",
".....@.@.@.........@.@.@....",
"..+........@.@.@.@..........",
" ...... ........... . ..  . ",
" ... . . ..... .. .   .   . ",
" .... ..  . . .     .     . ",
"  .. . . . .   . .          ",
"   ...... .   . .           ",
"   ..+.... ....        +    ",
"    ....+........           ",
"      .........  .   .      ",
"       ......+.... ..       ",
"          ........+         ",
"          ........          ",
"       ......+.......       ",
"      .+.........+....      ",
"    .......+...........     ",
"   .....@@....... . .       ",
"   .+.@@.@@..+..   . . +    ",
"  ....@.@.@@..... .         ",
" ....@.@.@.@...... .        ",
" ..+..@.@.@..+...+.         ",
" ....@.@.@.@.. ... . .      ",
".....@@.@.@.. . . . .      .",
"......@..@@.......   . .  . ",
"....+..@@...+.. . . . .   ..",
".......................  ...",
".@.....+..+......+.... ....@",
"...@.....................@..",
".....@.@.@.........@.@.@....",
"..+........@.@.@.@..........",
" ...... ........... . ..  . ",
" ... . . ..... .. .   .   . ",
" .... ..  . . .     .     . ",
"  .. . . . .   . .          ",
"   ...... .   . .           ",
"   ..+.... ....        +    ",
"    ....+........           ",
"      .........  .   .      ",
"       ......+.... ..       ",
"          ........+         ",
"          ........          ",
"       ......+.......       ",
"      .+.........+....      ",
"    .......+...........     ",
"   .....@@....... . .       ",
"   .+.@@.@@..+..   . . +    ",
"  ....@.@.@@..... .         ",
" ....@.@.@.@...... .        ",
" ..+..@.@.@..+...+.         ",
" ....@.@.@.@.. ... . .      ",
".....@@.@.@.. . . . .      .",
"......@..@@.......   . .  . ",
"....+..@@...+.. . . . .   ..",
".......................  ...",
".@.....+..+......+.... ....@",
"...@.....................@..",
".....@.@.@.........@.@.@....",
"..+........@.@.@.@..........",
" ...... ........... . ..  . ",
" ... . . ..... .. .   .   . ",
" .... ..  . . .     .     . ",
"  .. . . . .   . .          ",
"   ...... .   . .           ",
"   ..+.... ....        +    ",
"    ....+........           ",
"      .........  .   .      ",
"       ......+.... ..       ",
"          ........+         ",
"          ........          ",
"       ......+.......       ",
"      .+.........+....      ",
"    .......+...........     ",
"   .....@@....... . .       ",
"   .+.@@.@@..+..   . . +    ",
"  ....@.@.@@..... .         ",
" ....@.@.@.@...... .        ",
" ..+..@.@.@..+...+.         ",
" ....@.@.@.@.. ... . .      ",
".....@@.@.@.. . . . .      .",
"......@..@@.......   . .  . ",
"....+..@@...+.. . . . .   ..",
".......................  ...",
".@.....+..+......+.... ....@",
"...@.....................@..",
".....@.@.@.........@.@.@....",
"..+........@.@.@.@..........",
" ...... ........... . ..  . ",
" ... . . ..... .. .   .   . ",
" .... ..  . . .     .     . ",
"  .. . . . .   . .          ",
"   ...... .   . .           ",
"   ..+.... ....        +    ",
"    ....+........           ",
"      .........  .   .      ",
"       ......+.... ..       ",
"          ........+         ",
"          ........          ",
"       ......+.......       ",
"      .+.........+....      ",
"    .......+...........     ",
"   .....@@....... . .       ",
"   .+.@@.@@..+..   . . +    ",
"  ....@.@.@@..... .         ",
" ....@.@.@.@...... .        ",
" ..+..@.@.@..+...+.         ",
" ....@.@.@.@.. ... . .      ",
".....@@.@.@.. . . . .      .",
"......@..@@.......   . .  . ",
"....+..@@...+.. . . . .   ..",
".......................  ...",
".@.....+..+......+.... ....@",
"...@.....................@..",
".....@.@.@.........@.@.@....",
"..+........@.@.@.@..........",
" ...... ........... . ..  . ",
" ... . . ..... .. .   .   . ",
" .... ..  . . .     .     . ",
"  .. . . . .   . .          ",
"   ...... .   . .           ",
"   ..+.... ....        +    ",
"    ....+........           ",
"      .........  .   .      ",
"       ......+.... ..       ",
"          ........+         ",
"          ........          ",
"       ......+.......       ",
"      .+.........+....      ",
"    .......+...........     ",
"   .....@@....... . .       ",
"   .+.@@.@@..+..   . . +    ",
"  ....@.@.@@..... .         ",
" ....@.@.@.@...... .        ",
" ..+..@.@.@..+...+.         ",
" ....@.@.@.@.. ... . .      ",
".....@@.@.@.. . . . .      .",
"......@..@@.......   . .  . ",
"....+..@@...+.. . . . .   ..",
".......................  ...",
".@.....+..+......+.... ....@",
"...@.....................@..",
".....@.@.@.........@.@.@....",
"..+........@.@.@.@..........",
" ...... ........... . ..  . ",
" ... . . ..... .. .   .   . ",
" .... ..  . . .     .     . ",
"  .. . . . .   . .          ",
"   ...... .   . .           ",
"   ..+.... ....        +    ",
"    ....+........           ",
"      .........  .   .      ",
"       ......+.... ..       ",
"          ........+         ",
"          ........          ",
"       ......+.......       ",
"      .+.........+....      ",
"    .......+...........     ",
"   .....@@....... . .       ",
"   .+.@@.@@..+..   . . +    ",
"  ....@.@.@@..... .         ",
" ....@.@.@.@...... .        ",
" ..+..@.@.@..+...+.         ",
" ....@.@.@.@.. ... . .      ",
".....@@.@.@.. . . . .      .",
"......@..@@.......   . .  . ",
"....+..@@...+.. . . . .   ..",
".......................  ...",
".@.....+..+......+.... ....@",
"...@.....................@..",
".....@.@.@.........@.@.@....",
"..+........@.@.@.@..........",
" ...... ........... . ..  . ",
" ... . . ..... .. .   .   . ",
" .... ..  . . .     .     . ",
"  .. . . . .   . .          ",
"   ...... .   . .           ",
"   ..+.... ....        +    ",
"    ....+........           ",
"      .........  .   .      ",
"       ......+.... ..       ",
"          ........+         ",
"          ........          ",
"       ......+.......       ",
"      .+.........+....      ",
"    .......+...........     ",
"   .....@@....... . .       ",
"   .+.@@.@@..+..   . . +    ",
"  ....@.@.@@..... .         ",
" ....@.@.@.@...... .        ",
" ..+..@.@.@..+...+.         ",
" ....@.@.@.@.. ... . .      ",
".....@@.@.@.. . . . .      .",
"......@..@@.......   . .  . ",
"....+..@@...+.. . . . .   ..",
".......................  ...",
".@.....+..+......+.... ....@",
"...@.....................@..",
".....@.@.@.........@.@.@....",
"..+........@.@.@.@..........",
" ...... ........... . ..  . ",
" ... . . ..... .. .   .   . ",
" .... ..  . . .     .     . ",
"  .. . . . .   . .          ",
"   ...... .   . .           ",
"   ..+.... ....        +    ",
"    ....+........           ",
"      .........  .   .      ",
"       ......+.... ..       ",
"          ........+         ",
"          ........          ",
"       ......+.......       ",
"      .+.........+....      ",
"    .......+...........     ",
"   .....@@....... . .       ",
"   .+.@@.@@..+..   . . +    ",
"  ....@.@.@@..... .         ",
" ....@.@.@.@...... .        ",
" ..+..@.@.@..+...+.         ",
" ....@.@.@.@.. ... . .      ",
".....@@.@.@.. . . . .      .",
"......@..@@.......   . .  . ",
"....+..@@...+.. . . . .   ..",
".......................  ...",
".@.....+..+......+.... ....@",
"...@.....................@..",
".....@.@.@.........@.@.@....",
"..+........@.@.@.@..........",
" ...... ........... . ..  . ",
" ... . . ..... .. .   .   . ",
" .... ..  . . .     .     . ",
"  .. . . . .   . .          ",
"   ...... .   . .           ",
"   ..+.... ....        +    ",
"    ....+........           ",
"      .........  .   .      ",
"       ......+.... ..       ",
"          ........+         ",
"          ........          ",
"       ......+.......       ",
"      .+.........+....      ",
"    .......+...........     ",
"   .....@@....... . .       ",
"   .+.@@.@@..+..   . . +    ",
"  ....@.@.@@..... .         ",
" ....@.@.@.@...... .        ",
" ..+..@.@.@..+...+.         ",
" ....@.@.@.@.. ... . .      ",
".....@@.@.@.. . . . .      .",
"......@..@@.......   . .  . ",
"....+..@@...+.. . . . .   ..",
".......................  ...",
".@.....+..+......+.... ....@",
"...@.....................@..",
".....@.@.@.........@.@.@....",
"..+........@.@.@.@..........",
" ...... ........... . ..  . ",
" ... . . ..... .. .   .   . ",
" .... ..  . . .     .     . ",
"  .. . . . .   . .          ",
"   ...... .   . .           ",
"   ..+.... ....        +    ",
"    ....+........           ",
"      .........  .   .      ",
"       ......+.... ..       ",
"          ........+         "};
