#define ind_battleship_width 20
#define ind_battleship_height 320
static char ind_battleship_bits[] = {
	0x00, 0x06, 0x00, 0x40, 0x26, 0x00, 0xc0, 0x36, 0x00, 0x80, 0x1f, 0x00,
	0x00, 0x09, 0x00, 0x00, 0x0f, 0x00, 0x00, 0x0f, 0x00, 0xc0, 0x3f, 0x00,
	0xc0, 0x3f, 0x00, 0xc0, 0x3f, 0x00, 0xc0, 0x3f, 0x00, 0x80, 0x16, 0x00,
	0x80, 0x16, 0x00, 0xc0, 0x3f, 0x00, 0xc0, 0x3f, 0x00, 0xe0, 0x7f, 0x00,
0xe0, 0x7f, 0x00, 0xe0, 0x76, 0x00, 0x60, 0x66, 0x00, 0x60, 0x66, 0x00,
    0x00, 0x08, 0x00, 0x00, 0x64, 0x00, 0x00, 0x64, 0x00, 0x00, 0x3c, 0x00, 0x00, 0x3c, 0x01,
    0x00, 0xec, 0x01, 0x80, 0x7f, 0x00, 0x80, 0x3f, 0x00, 0xc0, 0x1f, 0x00, 0x40, 0x3f, 0x00,
    0x60, 0x3f, 0x00, 0xe0, 0x3f, 0x00, 0xf0, 0x17, 0x00, 0xf8, 0x1b, 0x00, 0xfc, 0x0f, 0x00,
0xcc, 0x0f, 0x00, 0xc0, 0x07, 0x00, 0x60, 0x06, 0x00, 0x60, 0x07, 0x00, 0x00, 0x03, 0x00,
    0x00, 0x00, 0x00, 0x00, 0x20, 0x00, 0x00, 0x20, 0x01, 0x00, 0xa0, 0x03,
    0x00, 0xf4, 0x01, 0x00, 0xde, 0x00, 0x00, 0xbf, 0x07, 0x00, 0xfe, 0x00,
    0x00, 0x7d, 0x00, 0xf0, 0x7e, 0x00, 0xfc, 0x77, 0x00, 0xfe, 0x2b, 0x00,
    0xff, 0x07, 0x00, 0xe2, 0x07, 0x00, 0xf0, 0x07, 0x00, 0xb8, 0x07, 0x00,
0x90, 0x03, 0x00, 0x80, 0x03, 0x00, 0xc0, 0x01, 0x00, 0x80, 0x00, 0x00,
    0x00, 0x00, 0x00, 0x00, 0x00, 0x00, 0x00, 0x00, 0x00, 0x00, 0x80, 0x01, 0x00, 0x80, 0x00,
    0x00, 0xc0, 0x0c, 0x00, 0xee, 0x0f, 0x80, 0x7f, 0x03, 0xe0, 0xfe, 0x03, 0x7c, 0xff, 0x0f,
    0xfe, 0x7f, 0x00, 0xf6, 0x7f, 0x00, 0xf0, 0x73, 0x00, 0xfc, 0x1f, 0x00, 0xcc, 0x07, 0x00,
0xc0, 0x01, 0x00, 0xe0, 0x00, 0x00, 0x60, 0x00, 0x00, 0x00, 0x00, 0x00, 0x00, 0x00, 0x00,
    0x00, 0x00, 0x00, 0x00, 0x00, 0x00, 0x00, 0x00, 0x00, 0x00, 0x00, 0x00,
    0x00, 0x00, 0x00, 0x1f, 0x00, 0x00, 0x7f, 0x1e, 0x06, 0xfc, 0x1f, 0x03,
    0x78, 0xfe, 0x01, 0xff, 0x7f, 0x0f, 0xff, 0x7f, 0x0f, 0x78, 0xfe, 0x01,
    0xfc, 0x1f, 0x03, 0x7f, 0x1e, 0x06, 0x1f, 0x00, 0x00, 0x00, 0x00, 0x00,
0x00, 0x00, 0x00, 0x00, 0x00, 0x00, 0x00, 0x00, 0x00, 0x00, 0x00, 0x00,
    0x00, 0x00, 0x00, 0x00, 0x00, 0x00, 0x60, 0x00, 0x00, 0xe0, 0x00, 0x00, 0xc0, 0x01, 0x00,
    0xcc, 0x07, 0x00, 0xfc, 0x1f, 0x00, 0xf0, 0x73, 0x00, 0xf6, 0x7f, 0x00, 0xfe, 0x7f, 0x00,
    0x7c, 0xff, 0x0f, 0xe0, 0xfe, 0x03, 0x80, 0x7f, 0x03, 0x00, 0xee, 0x0f, 0x00, 0xc0, 0x0c,
0x00, 0x80, 0x00, 0x00, 0x80, 0x01, 0x00, 0x00, 0x00, 0x00, 0x00, 0x00, 0x00, 0x00, 0x00,
    0x80, 0x00, 0x00, 0xc0, 0x01, 0x00, 0x80, 0x03, 0x00, 0x90, 0x03, 0x00,
    0xb8, 0x07, 0x00, 0xf0, 0x07, 0x00, 0xe2, 0x07, 0x00, 0xff, 0x07, 0x00,
    0xfe, 0x2b, 0x00, 0xfc, 0x77, 0x00, 0xf0, 0xfe, 0x00, 0x00, 0x7d, 0x00,
    0x00, 0xfe, 0x00, 0x00, 0xbf, 0x07, 0x00, 0xde, 0x00, 0x00, 0xf0, 0x01,
0x00, 0xa0, 0x03, 0x00, 0x20, 0x01, 0x00, 0x20, 0x00, 0x00, 0x00, 0x00,
    0x00, 0x00, 0x00, 0x00, 0x06, 0x00, 0xc0, 0x0e, 0x00, 0xc0, 0x0c, 0x00, 0x80, 0x0f, 0x00,
    0x98, 0x1f, 0x00, 0xf8, 0x1f, 0x00, 0xf0, 0x37, 0x00, 0xe0, 0x2f, 0x00, 0xc0, 0x7f, 0x00,
    0xc0, 0x7e, 0x00, 0x80, 0x7e, 0x00, 0x80, 0x3f, 0x00, 0x00, 0x7f, 0x00, 0x00, 0xff, 0x00,
0x00, 0xd8, 0x03, 0x00, 0x78, 0x02, 0x00, 0x78, 0x00, 0x00, 0xc8, 0x00, 0x00, 0xc8, 0x00,
    0x60, 0x66, 0x00, 0x60, 0x66, 0x00, 0xe0, 0x76, 0x00, 0xe0, 0x7f, 0x00,
    0xe0, 0x7f, 0x00, 0xc0, 0x3f, 0x00, 0xc0, 0x3f, 0x00, 0x80, 0x16, 0x00,
    0x80, 0x16, 0x00, 0xc0, 0x3f, 0x00, 0xc0, 0x3f, 0x00, 0xc0, 0x3f, 0x00,
    0xc0, 0x3f, 0x00, 0x00, 0x0f, 0x00, 0x00, 0x0f, 0x00, 0x00, 0x09, 0x00,
0x80, 0x1f, 0x00, 0xc0, 0x36, 0x00, 0x40, 0x26, 0x00, 0x00, 0x06, 0x00,
    0x00, 0x00, 0x00, 0x00, 0x18, 0x00, 0x00, 0xdc, 0x00, 0x00, 0xcc, 0x00, 0x00, 0x7c, 0x00,
    0x00, 0x7e, 0x06, 0x00, 0xfe, 0x07, 0x00, 0xfb, 0x03, 0x00, 0xfd, 0x01, 0x80, 0xff, 0x00,
    0x80, 0xdf, 0x00, 0x80, 0x5f, 0x00, 0x00, 0x7f, 0x00, 0x80, 0x3f, 0x00, 0xc0, 0x3f, 0x00,
0xf0, 0x06, 0x00, 0x90, 0x07, 0x00, 0x80, 0x07, 0x00, 0xc0, 0x04, 0x00, 0xc0, 0x04, 0x00,
    0x00, 0x10, 0x00, 0x00, 0x38, 0x00, 0x00, 0x1c, 0x00, 0x00, 0x9c, 0x00,
    0x00, 0xde, 0x01, 0x00, 0xfe, 0x00, 0x00, 0x7e, 0x04, 0x00, 0xfe, 0x0f,
    0x40, 0xfd, 0x07, 0xe0, 0xfe, 0x03, 0xf0, 0xf7, 0x00, 0xe0, 0x0b, 0x00,
    0xf0, 0x07, 0x00, 0xde, 0x0f, 0x00, 0xb0, 0x07, 0x00, 0xf8, 0x02, 0x00,
0x5c, 0x00, 0x00, 0x48, 0x00, 0x00, 0x40, 0x00, 0x00, 0x00, 0x00, 0x00,
    0x00, 0x00, 0x00, 0x00, 0x00, 0x00, 0x00, 0x00, 0x00, 0x00, 0xc0, 0x00, 0x00, 0xe0, 0x00,
    0x00, 0x70, 0x00, 0x00, 0x7c, 0x06, 0x00, 0xff, 0x07, 0xc0, 0xf9, 0x01, 0xc0, 0xff, 0x0d,
    0xc0, 0xff, 0x0f, 0xfe, 0xdf, 0x07, 0xf9, 0xef, 0x00, 0xd8, 0x3f, 0x00, 0xfe, 0x0e, 0x00,
0x66, 0x00, 0x00, 0x20, 0x00, 0x00, 0x30, 0x00, 0x00, 0x00, 0x00, 0x00, 0x00, 0x00, 0x00,
    0x00, 0x00, 0x00, 0x00, 0x00, 0x00, 0x00, 0x00, 0x00, 0x00, 0x00, 0x00, 0x00, 0x00, 0x00,
    0x00, 0x00, 0x00, 0x00, 0x80, 0x0f, 0x86, 0xe7, 0x0f, 0x8c, 0xff, 0x03, 0xf8, 0xe7, 0x01,
    0xef, 0xff, 0x0f, 0xef, 0xff, 0x0f, 0xf8, 0xe7, 0x01, 0x8c, 0xff, 0x03, 0x86, 0xe7, 0x0f,
0x00, 0x80, 0x0f, 0x00, 0x00, 0x00, 0x00, 0x00, 0x00, 0x00, 0x00, 0x00, 0x00, 0x00, 0x00,
    0x00, 0x00, 0x00, 0x00, 0x00, 0x00, 0x00, 0x00, 0x00, 0x00, 0x00, 0x00, 0x30, 0x00, 0x00,
    0x20, 0x00, 0x00, 0x66, 0x00, 0x00, 0xfe, 0x0e, 0x00, 0xd8, 0x3f, 0x00, 0xf9, 0xef, 0x00,
    0xfe, 0xdf, 0x07, 0xc0, 0xff, 0x0f, 0xc0, 0xff, 0x0d, 0xc0, 0xf9, 0x01, 0x00, 0xff, 0x07,
0x00, 0x7c, 0x06, 0x00, 0x70, 0x00, 0x00, 0xe0, 0x00, 0x00, 0xc0, 0x00, 0x00, 0x00, 0x00,
    0x00, 0x00, 0x00, 0x40, 0x00, 0x00, 0x48, 0x00, 0x00, 0x5c, 0x00, 0x00,
    0xf8, 0x02, 0x00, 0xb0, 0x07, 0x00, 0xde, 0x0f, 0x00, 0xf0, 0x07, 0x00,
    0xe0, 0x0b, 0x00, 0xf0, 0xf7, 0x00, 0xe0, 0xfe, 0x03, 0x40, 0xfd, 0x07,
    0x00, 0xfe, 0x0f, 0x00, 0x7e, 0x04, 0x00, 0xfe, 0x00, 0x00, 0xde, 0x01,
0x00, 0x9c, 0x00, 0x00, 0x1c, 0x00, 0x00, 0x38, 0x00, 0x00, 0x10, 0x00,
    0x00, 0x01, 0x00, 0x60, 0x02, 0x00, 0x60, 0x02, 0x00, 0xc0, 0x03, 0x00,
    0xc8, 0x03, 0x00, 0x78, 0x03, 0x00, 0xe0, 0x1f, 0x00, 0xc0, 0x1f, 0x00,
    0x80, 0x3f, 0x00, 0xc0, 0x2f, 0x00, 0xc0, 0x6f, 0x00, 0xc0, 0x7f, 0x00,
    0x80, 0xfe, 0x00, 0x80, 0xfd, 0x01, 0x00, 0xff, 0x03, 0x00, 0x3f, 0x03,
0x00, 0x3e, 0x00, 0x00, 0x66, 0x00, 0x00, 0x6e, 0x00, 0x00, 0x0c, 0x00};
