/* XPM */
static char *BB[] = {
/* width height num_colors chars_per_pixel */
"    20   320        7            1",
/* colors */
". c None",
"# c #00ff00",
"a c #7f503f",
"b c #b07000",
"c c #f19000",
"d c #ff0000",
"e c #ffe800",
/* pixels */
".........bb.........",
".........cc.........",
".........ee.........",
"........aeea........",
"........beeb........",
"......e.beeb.e......",
"......c.ceec.c......",
"......caceecac......",
".....bcbceecbcb.....",
".....cccceecccc.....",
".....eeccccccee.....",
"....aeecbaabceea....",
"....beeba..abeeb....",
"....ceecb..bceec....",
"...bceecbaabceecb...",
"...cceeccbbcceecc...",
"..a#ceecc##cceec#a..",
"..bb#eec#bb#cee#bb..",
"...bbccbbaabbccbb...",
"....adda....adda....",
"..............bb....",
"..............cc....",
"..............ee....",
".............aee....",
"..........e.bbeea...",
".........c.ceebb....",
"........bcaceec.e...",
"........ccbceec.c...",
"......aeeccceecac...",
"......beeccceecbc...",
".....ceecbacccccb...",
"....bceeba.abceec...",
"..acceeecb..abee....",
"..b#ceeccba.bceea...",
"...b#eeccbbabceeb...",
"..bbcecc##cceeec....",
"...adcb#bbcceeccb...",
".....dabaa#ceecc....",
"..........bbce##a...",
"...........adcbbb...",
"....................",
".................cbb",
"............ce.baec.",
".........b.c..beee..",
".......a.ccbaceeeea.",
"......beecccceeeb...",
"....bceeeecceeecb...",
"..a#cceeecbceecc.ce.",
".bbcceecbaacccbac...",
".bb#eeecb..abcccb...",
".aceeccba..acccc....",
"..dcbcccbabcbeee....",
"..dab###bbceeea.....",
".....abbccceeeb.....",
"......ab#ceeec......",
".......bceeecb......",
".......acceccc......",
".......ddb##a.......",
".........abbb.......",
"....................",
"....................",
"....................",
"..a.........cce.....",
".b#cbcbaecbca..ba.cb",
"bbccceeeeccbccbeeecb",
"ab#eeeeeecccceeeeee.",
"dceeeecbcbceeeeeba..",
"dcecccba.aceeccb....",
".abcccb...accca.....",
"..b##baababccbcce...",
"..ab#bcbcbcecc......",
"...abcccceeeecb.....",
"...b#ceeeeee........",
"..abceeeecba........",
"...ddceccc..........",
"....ab##cb..........",
".....bba............",
".......b............",
"....................",
"....................",
"....................",
"....................",
"..ba................",
".bb#cb..............",
"ab#ccccba...........",
"dceeeeeeeecb........",
"dceeeeeeeecccce.....",
"abcccccbcccba.......",
".b#ccbbabcccccbba...",
".ab#ba..aceeeeeeeecb",
".ab#ba..aceeeeeeeecb",
".b#ccbbabcccccbba...",
"abcccccbcccba.......",
"dceeeeeeeecccce.....",
"dceeeeeeeecb........",
"ab#ccccba...........",
".bb#cb..............",
"..ba................",
"....................",
"....................",
"....................",
"....................",
".......b............",
".....bba............",
"...dab##c...........",
"...dceeccb..........",
"...aceeeeccb........",
"....bcceeeeea.......",
"...b#ccceeeecb......",
"..aab#cbcbcecc......",
"..bb#bbababccbcc....",
".ab#cca...accca.e...",
".dccccbb.acceecc....",
"dceeeccabceeeeebba..",
"b#eeeeebccccceeeee..",
"bbccceeeeecbacbeeeec",
".b#cbcbeeeccc..ba.cb",
"..a....a..cb.ce.....",
"....................",
"....................",
"....................",
"..........abbb......",
"........ddc#ba......",
"........aceec#c.....",
".......bbceeccb.....",
".......a#cceeec.....",
"......bab#cceeeba...",
"...dab#b#bbcceee....",
"...dcecccbababeee...",
"..aceeccba..bcccc...",
"..bb#eeecb..accccb..",
"...b#ceeecabacecbcc.",
"..baccceebccceeca.e.",
".....b.ceeeccceecb..",
".......beeccbceeeb..",
"........a.cccaceeea.",
"..........b.c.bbeee.",
".............e..aeec",
"...................c",
"...................b",
"...........addbb.b..",
"...........bcc#b#a..",
"......da.aabceeccc..",
"....adcbbbb#ceeecb..",
"...bbcec###cceeec...",
"....b#eeccbbccceeb..",
"...b#ceeccaabbbeea..",
"...acceecb...acee...",
".....bceecb.aabcee..",
"......ceebabcccccc..",
"......beeccceecbcb..",
".......aeeccceecac..",
"........eccbceec.c..",
".........bcaceec.e..",
"...........c.ceeb...",
"...........e.beeb...",
".............beea...",
"..............aee...",
"...............cc...",
"...............bb...",
"....adda....adda....",
"...bbccbbaabbccbb...",
"..bb#eec#bb#cee#bb..",
"..a#ceecc##cceec#a..",
"...cceeccbbcceecc...",
"...bceecbaabceecb...",
"....ceecb..bceec....",
"....beeba..abeeb....",
"....aeecbaabceea....",
".....eeccccccee.....",
".....cccceecccc.....",
".....bcbceecbcb.....",
"......caceecac......",
"......c.ceec.c......",
"......e.beeb.e......",
"........beeb........",
"........aeea........",
".........ee.........",
".........cc.........",
".........bb.........",
"......a.............",
"....bbbdda..........",
"...ab#ccb...........",
"....#ceecbaa.a......",
"...bcceec#bbbbdda...",
"....ceeecc###cccb...",
"....ceecbcbbccee#b..",
"...beecbaabcceecbb..",
"...aeeba..bceeec#a..",
"....eecb..aceecbc...",
"...cceccaabbeec.....",
"...bcccecccceeb.....",
"...cbceeccceea......",
"...caceecbcce.......",
"...e.ceecacb........",
".....beec.c.........",
"....beeeb.c.........",
"...aeeb..e..........",
"....eea.............",
"....cc..............",
"....................",
"........bbba........",
".......ab#cdd.......",
".......c#cecba......",
"......bceeecb.......",
"......cceeec#a......",
".....abeeecccbab....",
".....eeeccbb#b#bad..",
".....eecbb.ab#ccccd.",
"...bcecba..accceeba.",
"....ccccaa.bbceee#b.",
"...ccbccccbaceeeccbb",
"..e.aceeeccbeeecc#a.",
"....ceeeccceeec.b...",
"...beeecbceeab......",
"..abeec.accc........",
"..eeeb.ccb..........",
".ceeab.e............",
".bc.................",
".b..................",
"....................",
"....................",
"..............bb....",
"............a#bba...",
"............ccc#cd..",
"...........bceeecd..",
".........bceeeeeba..",
".........aeeeecccb..",
".......ceeebcccc#a..",
"......bceccabbb#ba..",
".....ccccccb..ab#bb.",
"....e.abceca..acc#ba",
".....cceeecaabbccccd",
"...abbeeeeccbbcceeec",
"...eeeecccccceeeeee#",
"bceeebb.abceeeeecc#b",
".bcea...cccceebccc.a",
".......e..b..a..b...",
"....................",
"....................",
"....................",
"....................",
"................ab..",
"..............bc#bb.",
"...........abcccc#ba",
"........bceeeeeeeecd",
".....ecccceeeeeeeecd",
".......abcccbcccccba",
"...abbcccccbabbcc#b.",
"bceeeeeeeeca..ab#ba.",
"bceeeeeeeeca..ab#ba.",
"...abbcccccbabbcc#b.",
".......abcccbcccccba",
".....ecccceeeeeeeecd",
"........bceeeeeeeecd",
"...........abcccc#ba",
"..............bc#bb.",
"................ab..",
"....................",
"....................",
"....................",
"....................",
"......e..b..........",
"b..a..cccceeab.bcab.",
"cceebb.abceeeeccc#b.",
".eeeeecccccceeeeec#b",
"..abeeeeeccbbceeeecb",
"....bceeeecaabcccecd",
".....cccca...bcccbd.",
"...ecabccba.aab##ba.",
".....cccccbbbb#bba..",
"......bceeecccc#a...",
"........eeeeecccb...",
".......abceeeeeba...",
"..........cceeecd...",
"..........bcc#bcd...",
"............#bba....",
"............ab......",
"....................",
"....................",
"...bc.a.............",
"....ceeb.ec.........",
"....eeeb..c.b.......",
"....abeeccaccc......",
".....beeecbceeab....",
"....e.ceeeccceeec.b.",
".....c.cceecbceeeccc",
".....cabcecaabceeec#",
"......ccccba.bbceee#",
".....bcecca..accceec",
".......eeebb.abc#ccd",
".......eeecbcb#bbba.",
".......abeeccc#ba...",
".........ceeec#ba...",
"........bceeecb.....",
".........cccecda....",
".........#b#cd......",
".........abbba......",
"....................",
"....................",
"...bb...............",
"....cc..............",
"....ee..............",
"....eea..e..........",
"....aeeb..c.........",
"....beebcac.........",
"..e.beeecbcb........",
"...c.ceeecccc.......",
"...cacceecceea......",
"...cbcccccceeb......",
"...bceccaabbeec.....",
"...ceecb..aceecb....",
"...aeeba..bceecc#a..",
"....beecbaabceec#bb.",
"....ceecbbbcceeebb..",
"...bceecc##ccecca...",
"....cceeccbb#badd...",
"....#ceec#aab.......",
"...ab#ecbb..........",
"....bbbcda.........."
};
SIMPLE  =                    T                                                  BITPIX  =                    8                                                  NAXIS   =                    2                                                  NAXIS1  =                   20                                                  NAXIS2  =                  320                                                  HISTORY Written by XV 3.10                                                      END                                                                                                                                                                                                                                                                                                                                                                                                                                                                                                                                                                                                                                                                                                                                                                                                                                                                                                                                                                                                                                                                                                                                                                                                                                                                                                                                                                                                                                                                                                                                                                                                                                                                                                                                                                                                                                                                                                                                                                                                                                                                                                                                                                                                                                                                                                                                                                                                                                                                                                 ttt•W]             ]t»•tt              •»»•]]t           ••»»••ttt]WW      t•»»••••»••]       •»»•ttt••»»»tt      t»»•t]]t•»»•tt    ]»»t]  t•»»••]     •»»•t  ]•»»•t       t•»••]]tt»»•        •t••••••»»t         •]••»»••»»]         • •»»»••••         » t»»»•t•t            t»»t•]•             ]»»t  •             »»]  »              »»                  ••                 tt                                                                ]ttt]               t•W               •••»•W]            t•»»»•t              •»»»•t]          ]t»»•••t]          »»»•t•tttt]        »»»tt ]t•••W     t•»••]  ]•••»»•      ••••t] tt•»»»     •]t•»•]]t•»»»•     • ••»»•t•»»»•••    » •»»»•••»»»• t      t»»»•t•»»]t        ]t»»••]•••          »»»t  • t           •»»t »•            t• ]                                                                 ]t                  tt]              t••t•W             ••»»»•W          ]t•»»»»»t]           »»»»»•••t         t•»»»••••]        •••••tttttt]     »•]t••t] ]]tt]      ••••]   t•••tW     t•»»»»•]]t•••»•W  ]t»»»»»••tt•»»»»•t »»»»»••••••»»»»»•t••»»tt ]t•»»»»•••t t  ]  ••••»»]t t•]t       »  t                                                                                                          ]t                t•tt            ]t••••t]        t•»»»»»»»»•W     »••••»»»»»»»»•W       ]t•••t•••••t]   ]tt•••••t]tt••t t•»»»»»»»»•]  ]tt] t•»»»»»»»»•]  ]tt]    ]tt•••••t]tt••t        ]t•••t•••••t]     »••••»»»»»»»»•W        t•»»»»»»»»•W           ]t••••t]              t•tt                 ]t                                                                                         »  t  ]  t    t•»]   ••••»»t••• ]t•»»»tt ]t•»»»»»••t   »»»»••••••»»»»»»   ]tt»»»»••tt••»»»•     ••»»»•]]tt••••W    » ]t•»•]  ]••t]     ••••••t  ]ttt       t•»••]tttt]         •»»»t••••]           ]»»»»•••t           t•»»»»»t]             t•»»»•W              ••••W              ]tt]                 tt                                             t                   t•                  •»»]t »              »»»t ••t            ]t»»• ]•••           t»»»•t•»»]t          •»»»•••»»»• t     » ]•»»»••t»»»••]    ••t••••t]•»»»••tt    ••••]] tt•»»»t    t•»•t]  ]•••»»t]      »»•tt ]t••••W      »»»••tttt]W       ]t»»»•••t]t          ••»»»•]            t•»»»•t              ••»•t]             ]t•WW               ttt]                                ••                  »»]                ]»»t  »              t»»»t •              t»»• •            » •»»•]•t           •]•»»•t••»          •t•»»•••»»]         t•••»••••»»t        ••»••]]tt»»•         »»•t  ]•»»•t•      ]»»t]  t•»»»•]     t»»•t]]t••»»•tt      •»»•t•tt••»»t      •»»»•••••t      t••»»•ttttWW]       •»»•t]] ]         ]t••t               tttWW]                ]                      tt                  ••                  »»                 ]»»]                t»»t              » t»»t »            • •»»• •            •]•»»•]•           t•t•»»•t•t          ••••»»••••          »»••••••»»         ]»»•t]]t•»»]        t»»t]  ]t»»t        •»»•t  t•»»•       t•»»•t]]t•»»•t      ••»»••tt••»»••     ]•»»••••»»•]    tt»»•tt•»»tt     tt••tt]]tt••tt       ]WW]    ]WW]                   tt                  ••                 ]»»                t»»]              » t»»t              • •»»t            t•]•»»• »          »••t•»»• •         ]»»•••»»•]•        t»»•••»»•t•t        •»»t]t••••••       t•»»•t ]]t•»»     ]••»»•t   ]•»»      t•»»••]]ttt»»]      t»»••tt•••»»t     tt•»•••»»»•       ]W•tttt•»»»•t        W] ]]t•»»•••             t••t]             ]WWtt t                     t                   •             »  ]»»•          t • tt»»»         ] •••]•»»»]        t»»••t•»»»t       t •»»»•••»»•t    t]•••»»t•••»»•] »    t•»»»•]t]•»•t••   tt»»»•t  ]••••t    ]•»»••t]  t••••      W•»•••t]t]t»»»      W]tttt••»»»          t]t••»»»t]          ]••»»»•            tt•»»••t             ]•»»••             WW•t]                ]ttt                                                                    ]    ]  •t •»      t•t•t»»»•••  t] •ttt•••»»»»»•t]•t»»»»•t»»»»»t•••••»»»»»  W•»»»••]t•»»»»»tt]   W••••tt ]••»»••     ]t••]   ]•••] »     tttt]t]t••t••      ]]t•t•t•»••         t•••»»»»•t          t••»»»»»]          ]•»»»»••t           W•»»••t             W]t•                tt]                   t                                                                                              t]                 tt•t              ]t••••t]           W•»»»»»»»»•t        W•»»»»»»»»••••»     ]t•••••t•••t]        t••tt]t•••••tt]    ]tt]  ]•»»»»»»»»•t ]tt]  ]•»»»»»»»»•t t••tt]t•••••tt]   ]t•••••t•••t]       W•»»»»»»»»••••»     W•»»»»»»»»•t        ]t••••t]            tt•t                t]                                                                                                       t                 tt]                ]t•t             WW•»•••            ]t•»»»»•t]           t•»»»»»»           ]t••••»»»»•t       ]tt•t•t•»••        tt]]t]t••t••»    ]t•••t   ]•••]     W•»•••t] ]•»»••t    W•»»»»•t•t•»»»»»t]  ]t»»»»»»••••»»»»»» tt•••»»»»••t••t»»»•t t•t•t]»•t•]  t] •t  ]         ••»                                                                          ]ttt              WWt]              ]••»•••             t•»»»•t            ]t•»»»•           ]tt•••»»»t       W]ttt•»»»]       W•t•••t]t•t»»»     ]•»»••t]  ]••••     tt»»»•t  ]t•••t    tt••»»•t]]•••t]•     ]••»»»•t•»»•• •»     t•»»»»••»»»•t         t»»••••»»»t          ] ••t]•»»»»]          t •  t»»»              •» t]»•                  •tt                               ]W•ttt             tt•»]        W]t]]•»»••       ]W•ttt••»»••t     tt•»••••»»»•       t»»••tt]t•»»t     t•»»••t] t•»»]     ]••»»»•t  ]t»»        t•»»t] ]t•»»•        •»»•t]•••••t         t»»•••»»•t•         ]»»•••»»•]•           ••t•»»• •           t•]•»»• »            • •»»tt              » tt»»]                ]»»                  »»                  ••                  tt        ]WW]    ]WW]       tt••tt]]tt••tt     tt»»•tt•»»tt    ]•»»••••»»•]     ••»»••tt••»»••      t•»»•t]]t•»»•t       •»»•t  t•»»•        t»»t]  ]t»»t        ]»»•t]]t•»»]         »»••••••»»          ••••»»••••          t•t•»»•t•t           •]•»»•]•            • •»»• •            » t»»t »              t»»t                ]»»]                 »»                  ••                  tt                                                                                                                                                                                                                                                                                                                                                                                                                                                                                                                                                                                                                                                                                                                                                                                                                                                                                                                                                                                                                                                                                                                                                                                                                                                                                                                                                                                                                                                                                                                                                                                                                                                                                                                                                                                                                                                                                                                                                                                                                                                                                                                                                                                                                                                                                                                                         
