#define ind_cruiser_width 20
#define ind_cruiser_height 320
static char ind_cruiser_bits[] = {
	0x80, 0x10, 0x00, 0x80, 0x19, 0x00, 0x00, 0x06, 0x00, 0x00, 0x06, 0x00,
	0x00, 0x06, 0x00, 0x00, 0x0f, 0x00, 0x00, 0x0f, 0x00, 0x00, 0x0f, 0x00,
	0x00, 0x09, 0x00, 0x80, 0x19, 0x00, 0x80, 0x19, 0x00, 0x80, 0x1f, 0x00,
	0xc0, 0x3f, 0x00, 0xc0, 0x3f, 0x00, 0xc0, 0x3f, 0x00, 0xe0, 0x7f, 0x00,
0xe0, 0x79, 0x00, 0xf0, 0xf0, 0x00, 0x78, 0xe0, 0x01, 0x5c, 0xa0, 0x03,
    0x00, 0x10, 0x00, 0x00, 0x10, 0x00, 0x00, 0x20, 0x00, 0x00, 0xf0, 0x01, 0x00, 0x3c, 0x00,
    0x00, 0x1e, 0x00, 0x00, 0x1a, 0x00, 0x00, 0x13, 0x00, 0x80, 0x19, 0x00, 0xc0, 0x0b, 0x00,
    0xe0, 0x0f, 0x00, 0xf8, 0x0f, 0x00, 0xfe, 0x07, 0x00, 0xfc, 0x07, 0x00, 0xb8, 0x07, 0x00,
0x00, 0x07, 0x00, 0x00, 0x07, 0x00, 0x00, 0x07, 0x00, 0x00, 0x06, 0x00, 0x00, 0x0c, 0x00,
    0x00, 0x00, 0x00, 0x00, 0x00, 0x00, 0x00, 0x80, 0x01, 0x00, 0x80, 0x00, 0x00, 0x80, 0x04,
    0x00, 0xe0, 0x07, 0x00, 0xf0, 0x00, 0x00, 0xfc, 0x00, 0x00, 0x66, 0x00, 0x80, 0x23, 0x00,
    0xf0, 0x37, 0x00, 0xfe, 0x1f, 0x00, 0xfc, 0x0f, 0x00, 0x10, 0x0f, 0x00, 0x00, 0x07, 0x00,
0x00, 0x07, 0x00, 0x80, 0x07, 0x00, 0x00, 0x03, 0x00, 0x00, 0x03, 0x00, 0x00, 0x02, 0x00,
    0x00, 0x00, 0x00, 0x00, 0x00, 0x00, 0x00, 0x00, 0x00, 0x00, 0x00, 0x02, 0x00, 0x00, 0x02,
    0x00, 0x00, 0x02, 0x00, 0x00, 0x07, 0x00, 0xf0, 0x0b, 0x02, 0xde, 0x01, 0xfe, 0x87, 0x01,
    0xfc, 0xef, 0x00, 0xf8, 0x3f, 0x00, 0xc0, 0x1f, 0x00, 0x80, 0x0f, 0x00, 0xc0, 0x07, 0x00,
0xc0, 0x03, 0x00, 0xc0, 0x03, 0x00, 0x80, 0x01, 0x00, 0x00, 0x01, 0x00, 0x00, 0x00, 0x00,
    0x00, 0x00, 0x00, 0x00, 0x00, 0x00, 0x02, 0x00, 0x00, 0x06, 0x00, 0x00, 0x0e, 0x00, 0x00,
    0x3c, 0x00, 0x00, 0xfe, 0x01, 0x00, 0xf8, 0x0f, 0x08, 0xf0, 0xff, 0x08, 0xe0, 0xe3, 0x07,
    0xe0, 0xe3, 0x07, 0xf0, 0xff, 0x08, 0xf8, 0x0f, 0x08, 0xfe, 0x01, 0x00, 0x3c, 0x00, 0x00,
0x0e, 0x00, 0x00, 0x06, 0x00, 0x00, 0x02, 0x00, 0x00, 0x00, 0x00, 0x00, 0x00, 0x00, 0x00,
    0x00, 0x00, 0x00, 0x00, 0x01, 0x00, 0x80, 0x01, 0x00, 0xc0, 0x03, 0x00, 0xc0, 0x03, 0x00,
    0xc0, 0x07, 0x00, 0x80, 0x0f, 0x00, 0xc0, 0x1f, 0x00, 0xf8, 0x3f, 0x00, 0xfc, 0xef, 0x00,
    0xfe, 0x87, 0x01, 0x02, 0xde, 0x01, 0x00, 0xf0, 0x0b, 0x00, 0x00, 0x07, 0x00, 0x00, 0x02,
0x00, 0x00, 0x02, 0x00, 0x00, 0x02, 0x00, 0x00, 0x00, 0x00, 0x00, 0x00, 0x00, 0x00, 0x00,
    0x00, 0x00, 0x00, 0x00, 0x02, 0x00, 0x00, 0x03, 0x00, 0x00, 0x03, 0x00, 0x80, 0x07, 0x00,
    0x00, 0x07, 0x00, 0x00, 0x07, 0x00, 0x10, 0x0f, 0x00, 0xfc, 0x0f, 0x00, 0xfe, 0x1f, 0x00,
    0xf0, 0x37, 0x00, 0x80, 0x23, 0x00, 0x00, 0x66, 0x00, 0x00, 0xfc, 0x00, 0x00, 0xf0, 0x00,
0x00, 0xe0, 0x07, 0x00, 0x80, 0x04, 0x00, 0x80, 0x00, 0x00, 0x80, 0x01, 0x00, 0x00, 0x00,
    0x00, 0x00, 0x00, 0x00, 0x18, 0x00, 0x00, 0x0c, 0x00, 0x00, 0x0e, 0x00, 0x00, 0x0e, 0x00,
    0x00, 0x0e, 0x00, 0x70, 0x0f, 0x00, 0xf8, 0x0f, 0x00, 0xfc, 0x0f, 0x00, 0xf0, 0x1f, 0x00,
    0xc0, 0x1f, 0x00, 0x80, 0x17, 0x00, 0x00, 0x33, 0x00, 0x00, 0x26, 0x00, 0x00, 0x34, 0x00,
0x00, 0x3c, 0x00, 0x00, 0x78, 0x00, 0x00, 0xe0, 0x03, 0x00, 0x40, 0x00, 0x00, 0x20, 0x00,
    0x00, 0x00, 0x00, 0xb8, 0x40, 0x07, 0xf0, 0xc0, 0x03, 0xe0, 0xe1, 0x01, 0xc0, 0xf3, 0x00,
    0xc0, 0xff, 0x00, 0x80, 0x7f, 0x00, 0x80, 0x7f, 0x00, 0x80, 0x7f, 0x00, 0x00, 0x3f, 0x00,
    0x00, 0x33, 0x00, 0x00, 0x33, 0x00, 0x00, 0x12, 0x00, 0x00, 0x1e, 0x00, 0x00, 0x1e, 0x00,
0x00, 0x1e, 0x00, 0x00, 0x0c, 0x00, 0x00, 0x0c, 0x00, 0x00, 0x0c, 0x00, 0x00, 0x33, 0x00,
    0x00, 0x00, 0x00, 0x00, 0x06, 0x00, 0x00, 0x0c, 0x00, 0x00, 0x1c, 0x00, 0x00, 0x1c, 0x00,
    0x00, 0x1c, 0x00, 0x00, 0xbc, 0x03, 0x00, 0xfc, 0x07, 0x00, 0xfc, 0x0f, 0x00, 0xfe, 0x03,
    0x00, 0xfe, 0x00, 0x00, 0x7a, 0x00, 0x00, 0x33, 0x00, 0x00, 0x19, 0x00, 0x00, 0x0b, 0x00,
0x00, 0x0f, 0x00, 0x80, 0x07, 0x00, 0xf0, 0x01, 0x00, 0x80, 0x00, 0x00, 0x00, 0x01, 0x00,
    0x00, 0x00, 0x00, 0x00, 0x08, 0x00, 0x00, 0x18, 0x00, 0x00, 0x18, 0x00, 0x00, 0x3c, 0x00,
    0x00, 0x1c, 0x00, 0x00, 0x1c, 0x00, 0x00, 0x1e, 0x01, 0x00, 0xfe, 0x07, 0x00, 0xff, 0x0f,
    0x80, 0xfd, 0x01, 0x80, 0x38, 0x00, 0xc0, 0x0c, 0x00, 0xe0, 0x07, 0x00, 0xe0, 0x01, 0x00,
0xfc, 0x00, 0x00, 0x24, 0x00, 0x00, 0x20, 0x00, 0x00, 0x30, 0x00, 0x00, 0x00, 0x00, 0x00,
    0x00, 0x00, 0x00, 0x00, 0x00, 0x00, 0x00, 0x10, 0x00, 0x00, 0x30, 0x00, 0x00, 0x78, 0x00,
    0x00, 0x78, 0x00, 0x00, 0x7c, 0x00, 0x00, 0x3e, 0x00, 0x00, 0x7f, 0x00, 0x80, 0xff, 0x03,
    0xe0, 0xfe, 0x07, 0x30, 0xfc, 0x0f, 0x70, 0x0f, 0x08, 0xfb, 0x01, 0x00, 0x1c, 0x00, 0x00,
0x08, 0x00, 0x00, 0x08, 0x00, 0x00, 0x08, 0x00, 0x00, 0x00, 0x00, 0x00, 0x00, 0x00, 0x00,
    0x00, 0x00, 0x00, 0x00, 0x00, 0x00, 0x00, 0x00, 0x00, 0x00, 0x00, 0x08, 0x00, 0x00, 0x0c,
    0x00, 0x00, 0x0e, 0x00, 0x80, 0x07, 0x00, 0xf0, 0x0f, 0x03, 0xfe, 0x03, 0xe2, 0xff, 0x01,
    0xfc, 0xf8, 0x00, 0xfc, 0xf8, 0x00, 0xe2, 0xff, 0x01, 0x03, 0xfe, 0x03, 0x00, 0xf0, 0x0f,
0x00, 0x80, 0x07, 0x00, 0x00, 0x0e, 0x00, 0x00, 0x0c, 0x00, 0x00, 0x08, 0x00, 0x00, 0x00,
    0x00, 0x00, 0x00, 0x00, 0x00, 0x00, 0x00, 0x00, 0x00, 0x00, 0x00, 0x00, 0x08, 0x00, 0x00,
    0x08, 0x00, 0x00, 0x08, 0x00, 0x00, 0x1c, 0x00, 0x00, 0xfb, 0x01, 0x00, 0x70, 0x0f, 0x08,
    0x30, 0xfc, 0x0f, 0xe0, 0xfe, 0x07, 0x80, 0xff, 0x03, 0x00, 0x7f, 0x00, 0x00, 0x3e, 0x00,
0x00, 0x7c, 0x00, 0x00, 0x78, 0x00, 0x00, 0x78, 0x00, 0x00, 0x30, 0x00, 0x00, 0x10, 0x00,
    0x00, 0x00, 0x00, 0x00, 0x00, 0x00, 0x30, 0x00, 0x00, 0x20, 0x00, 0x00,
    0x24, 0x00, 0x00, 0xfc, 0x00, 0x00, 0xe0, 0x01, 0x00, 0xe0, 0x07, 0x00,
    0xc0, 0x0c, 0x00, 0x80, 0x38, 0x00, 0x80, 0xfd, 0x01, 0x00, 0xff, 0x0f,
    0x00, 0xfe, 0x07, 0x00, 0x1e, 0x01, 0x00, 0x1c, 0x00, 0x00, 0x1c, 0x00,
0x00, 0x3c, 0x00, 0x00, 0x18, 0x00, 0x00, 0x18, 0x00, 0x00, 0x08, 0x00,
    0x80, 0x00, 0x00, 0x80, 0x00, 0x00, 0x40, 0x00, 0x00, 0xf8, 0x00, 0x00,
    0xc0, 0x03, 0x00, 0x80, 0x07, 0x00, 0x80, 0x05, 0x00, 0x80, 0x0c, 0x00,
    0x80, 0x19, 0x00, 0x00, 0x3d, 0x00, 0x00, 0x7f, 0x00, 0x00, 0xff, 0x01,
    0x00, 0xfe, 0x07, 0x00, 0xfe, 0x03, 0x00, 0xde, 0x01, 0x00, 0x0e, 0x00,
0x00, 0x0e, 0x00, 0x00, 0x0e, 0x00, 0x00, 0x06, 0x00, 0x00, 0x03, 0x00};
