/* XPM */
static char *CA[] = {
/* width height num_colors chars_per_pixel */
"    20   320        7            1",
/* colors */
". c None",
"# c #00ff00",
"a c #7f503f",
"b c #b07000",
"c c #f19000",
"d c #ff0000",
"e c #ffe800",
/* pixels */
"....................",
"....................",
"....................",
".....bb......bb.....",
".....cc......cc.....",
"....aeea....aeea....",
"....beeb....beeb....",
"....ceec....ceec....",
"...aceeca..aceeca...",
"...bceecb..bceecb...",
"...bceecb..bceecb...",
"..acceeccaacceecca..",
"..bcceeccbbcceeccb..",
".a#cceeccbbcceecc#a.",
".b#cceecbbbbceecc#b.",
"..a#cccbbaabbccc#a..",
"....bddb....bddb....",
"....................",
"....................",
"....................",
"....................",
"....................",
".........bb.........",
".......aecc.........",
".......beea.........",
".....aceeb......bb..",
".....bceec....aecc..",
"....bcceeca...beea..",
"...acceeecb..aceeb..",
"..abcceecb...bceec..",
".b#cceecca.bcceeca..",
".a#cceeccbacceeecb..",
"..#cceeccbbcceecb...",
"...bdcbcbbbcceecca..",
".....dbbaabbceeccb..",
".........bbceecc#...",
"..........bdcccc#a..",
"............db#a.b..",
"....................",
"....................",
"....................",
"..........cb........",
"......a.baecb.......",
"......bcceee........",
"...a.bceeeba........",
".a#bccceecc.........",
"b#ccceeeca..........",
".acceeeecb.....acbb.",
"..#ceeeccb..a.beec..",
".bcceccca..bcceeea..",
"..ddcccbbacbceeeb...",
"...bbbbbbccceecc....",
".....babccceeeca....",
"......abceeeccb.....",
".......bbeeeccb.....",
".......bdceccca.....",
"........dccc#b......",
".........bc##a......",
"...........ab.......",
"....................",
"....................",
"....a........acb....",
"...b#babbacbeecb....",
"...a#cccccceeee.....",
"...#cccceeeecba.....",
"..bcceeeeecc........",
"...dceeeecbba.......",
"...dcecccc..........",
"...bbcccba..........",
".....bbbbbabbacbacb.",
".....abbcccccceeecb.",
".....abbccceeeeee...",
"......bbceeeeeecba..",
"......dceeeeccc.....",
"......dcecccbba.....",
".......bccccc.......",
"........#c#ba.......",
"........a#a.........",
"..........b.........",
"....................",
"....................",
".....ba.............",
"....a##ba...........",
"....#ccccbba........",
"...bcccccccccba.....",
"...dceeeeeeeeeecb...",
"...dceeeeeeeeeecb...",
"...bbccccccccba.....",
"....bbcccbba........",
"....abbba...........",
"....abbba...........",
"....bbcccbba........",
"...bbccccccccba.....",
"...dceeeeeeeeeecb...",
"...dceeeeeeeeeecb...",
"...bcccccccccba.....",
"....#ccccbba........",
"....a##ba...........",
".....ba.............",
"....................",
"....................",
".......aba..........",
".......###b.........",
".....dbcccca........",
".....dceccccbb......",
".....bceeeeccca.....",
".....bceeeeeecc.....",
".....bbccceeeeeba...",
"....aabcccccceeecb..",
"....bbbbbabbacbecb..",
"...bbbcba......a....",
"..dcccccb...........",
"..dceecccba.........",
".bcceeeeeccc........",
"..#ccceeeeeeba......",
"..a#ccccceeeee......",
"..b#bcbbccbeecb.....",
"...a.a..a..a.cb.....",
"....................",
"....................",
"....................",
"...........ab.......",
".........b.##a......",
".......ddccc#b......",
".......bcceccca.....",
".......bbeeeccc.....",
"......abcceeecb.....",
".....babccceeecba...",
"..dbbbbbbccceecc....",
"..dceccbbabbceeeb...",
"..bceeccca..aceeea..",
".#cceeccb....cbeec..",
".accceeecba....acbb.",
"b##cceeecc..........",
".a.bccceeec.........",
"...abbceeeb.........",
"......acceea........",
".........becb.......",
".........acb........",
"....................",
"....................",
".............bc#ab..",
"..........bddccc#a..",
"..........bceecc#...",
".....db.aabcceeccb..",
"...bdcbbbbbcceecca..",
"..#ccecbbbbcceecb...",
"..acceeccbaacceecb..",
".b#cceeccc..bceeca..",
".a#cceeccb..bceec...",
"...bcceeecb..aceeb..",
"...abceeeca...beea..",
"....bcceec....aee...",
".....a.ceeb.....cc..",
".......beea.....bb..",
".......aec..........",
".........cb.........",
".........b..........",
"....................",
"....................",
"....................",
"....................",
"....................",
"....bddb....bddb....",
"..a#cccbbaabbccc#a..",
".b#cceecbbbbceecc#b.",
".a#cceeccbbcceecc#a.",
"..bcceeccbbcceeccb..",
"..acceeccaacceecca..",
"...bceecb..bceecb...",
"...bceecb..bceecb...",
"...aceeca..aceeca...",
"....ceec....ceec....",
"....beeb....beeb....",
"....aeea....aeea....",
".....cc......cc.....",
".....bb......bb.....",
"....................",
"....................",
"....................",
".....a.b............",
"...b#c#cddb.........",
"...a#cceccb.........",
"....bcceecbbaa.b....",
"...acceeccbbbbbddb..",
"....bceeccbbcceccc..",
"...bcceeccbbcceecc#a",
"...aceeecbaacceecc#b",
"....ceecb...bceecc#a",
"...beeca..bcceeccb..",
"...aeec...aceeecba..",
"...ceeb....ceecb....",
"...bc.a....beeca....",
"....b......aeec.....",
"..........ceeb......",
"..........bc.a......",
"...........b........",
"....................",
"....................",
"....................",
"....................",
"......ba............",
".....a###.b.........",
".....bccccd.........",
"....accccecdb.......",
".....bcceeebb.......",
"....bceeeccba.......",
"...acceecccbba......",
"...ceeecccbbbbbb....",
"..beeeecbaabcbccdd..",
"..aeeecab..ccceeccb.",
"..cebc....bcceeec#..",
".bbca....abceeeccca.",
".........cceeccc##b.",
"........bceeeccaba..",
".......aeeeccb......",
"........eeecab......",
".......bceb.........",
".......bca..........",
"....................",
"....................",
".........aba........",
".........b###cb.....",
"........acccccd.....",
"......bbccceecd.....",
"......accceeeebb....",
"....bcceeeecccb.....",
"...aeeeeeccccba.....",
"..bceeeecbbcbbba....",
"..bcebcca..abbbb....",
"....a......accbbb...",
"..........bbcccccd..",
".........accceeecd..",
".......bcceeeeeecb..",
".......aeeeeeeccc#a.",
".....bceeeecccccc#..",
".....bcebccbbcb#ab..",
"........a..a..a.....",
"....................",
"....................",
"....................",
".............ab.....",
"...........ab##a....",
"........abbcccc#....",
".....abcccccccccb...",
"...bceeeeeeeeeecd...",
"...bceeeeeeeeeecd...",
".....abccccccccbb...",
"........abbcccbb....",
"...........abbba....",
"...........abbba....",
"........abbcccbb....",
".....abccccccccbb...",
"...bceeeeeeeeeecd...",
"...bceeeeeeeeeecd...",
".....abcccccccccb...",
"........abbcccc#....",
"...........ab##a....",
".............ab.....",
"....................",
"....................",
".....b..............",
".....bceabcabbabab..",
"......ceeeeccccc##a.",
"......aeeeeeecccc#..",
".......bcceeeeeccc..",
".........accceeecdb.",
"..........bbcccecd..",
"............acccbb..",
"..bcab.ab.abbbbb....",
"..bceecccbccbbba....",
"...aeeeeeccccba.....",
"....bceeeeeeccb.....",
"......ccceeeeebb....",
".....abbccceecd.....",
"........ccccccd.....",
"........ab#c#b......",
"..........a#a.......",
"...........b........",
"....................",
"....................",
"......bb.a..........",
".......cceb.........",
"........eeecca......",
".......abeeecb.a....",
".........ceeecbcbab.",
".b......acceeccc##..",
".bcea....bbceeeccca.",
"..ceeb.a...cceeecc#.",
"..aeeccb..accceecb..",
"...beeecbcabcbccdd..",
"...ceeecccbbbbbb....",
"...acceeeccbba......",
"...bbceeecbba.......",
".....ccceecb........",
".....acccecdb.......",
".....b#cccd.........",
".....ab##cb.........",
".......a............",
"....................",
"....................",
"....................",
".........bbca.......",
".........ceeb.......",
"...b.....abeec......",
"..bc......ceeca.....",
"..cea.....ceecb.....",
"..aeeb....aceecb....",
"..beec.a..bceecca...",
"..ceeccb..bceeccba..",
"..aceeecbaacceecc#b.",
"..bceeeccbbcceecc#a.",
"..bcceeccbbcceec#...",
"...ccceeccbbbbccb...",
"..abcceecbaabbdd....",
"..a#ccecbb..........",
"...b##ccdb..........",
"....a.bd............",
"....................",
"...................."
};
SIMPLE  =                    T                                                  BITPIX  =                    8                                                  NAXIS   =                    2                                                  NAXIS1  =                   20                                                  NAXIS2  =                  320                                                  HISTORY Written by XV 3.10                                                      END                                                                                                                                                                                                                                                                                                                                                                                                                                                                                                                                                                                                                                                                                                                                                                                                                                                                                                                                                                                                                                                                                                                                                                                                                                                                                                                                                                                                                                                                                                                                                                                                                                                                                                                                                                                                                                                                                                                                                                                                                                                                                                                                                                                                                                                                                                                                                                                                                                                                                                                                         ] tW               t••Wt            ]••»•tt            ]t••»»•t]]ttWW       •••»»••tttt••t     t••»»••tt••»»•     t•»»»••tt••»»••]   ]•»»»•t]]••»»••t   •»»••t  t•»»••t]    t»»• ]  t•»»••]     ]»»t    ]•»»•t      •»]     •»»•t       t•      •»»•]        t     ]t»»•               •»»t                tt•]                                                                          ]                 ]t•t              t•••W              ]•••»•Wt            •••»»•t           tt•»»»•tt]          ]••»»»••tt]         •»»»•••tttttt       t»»»•t•]t•t••WW    ]»»••t  ]•••»»•t    •»»t ]   ••»»»••  t•»]    tt•»»»•••]  t      ]••»»•••           •»»»•t•t]t        ]t»»»•t ]            »»»••]             ••»t               tt ]                                                             t                  ]]               ]t•t              ••••••W          ]tt•••»»•W           •••»»»»»tt        t•»»»»»»••t        ]»»»»»••••t]       t•»»•••t••ttt]      t•]t ]t ]ttttt                ]•••tt            tt•••»•W           ]•••»»»•Wt        t••»»»»»•••        ]»»»»»»••••        •»»»»•••••]      t•»]t•]tt]t]t       t                                                                   ]t                ]t]            ]tt••••         ]t•••••••••t      t•»»»»»»»»»»•W      t•»»»»»»»»»»•W        ]t••••••••tt           ]tt•••tt               ]ttt]               ]ttt]            ]tt•••tt         ]t••••••••tt      t•»»»»»»»»»»•W      t•»»»»»»»»»»•W        ]t•••••••••t           ]tt••••               ]t]                 ]t                                                                         ]  ]  ]          t•»t••tt•t]t       t•»»»»••••••         ]»»»»»»•••]        t••»»»»»»•t           ]•••»»»•W            tt•••••W      ]      ]••ttt     t•»t••]  ]tttt      t•»»»»•tt•ttt]       ]»»»»»••••t]         t••»»»»•••t           ]•••»»»»tt          tt•••»»•W             ]•••••W              t•t              ]t]                                                       t•]                 t•»t                 »»»•]t             ]»»»••t              t•»»»••]t]           ••»»•••t  tt•]    ]t•»»»•••]   •»t•    t••»»»•    ]»»»•]t  •••»»••t   t»»»»•t]]t•t••WW     •»»»•••tttttt       ]••»»•••tt]          t•»»»••t]            t••»»»tt           ]••••»•Wt            t••••W              ] t               t]                                                                                                       t                  t• ]                •»»t          t      ]»»•        t• ]    t»»•]       •»»t    •»»•t       ]»»•   ]•»»»•t]     t»»•]  t••»»••t      •»»•t   t•»»••]   ]•»»»•t]]••»»••t   t••»»••tt••»»••]    t•»»••tt••»•••     ]••»»••tttttWWt      t••»»•tt]] t       ]••»••t            t••WWt              ] t                                                                             tt      tt          ••      ••         ]»»]    ]»»]        t»»t    t»»t        •»»•    •»»•       ]•»»•]  ]•»»•]      t•»»•t  t•»»•t      t•»»•t  t•»»•t     ]••»»••]]••»»••]    t••»»••tt••»»••t   ]••»»••tt••»»••]  t••»»•tttt•»»••t   ]•••tt]]tt•••]      tWWt    tWWt                                                                                                                 t                   •t                ]»•                 t»»]     tt       ] •»»t     ••      t••»»•    ]»»      ]t•»»»•]   t»»]     t••»»»•t  ]•»»t   ]••»»••t  t•»»•    t••»»•••  t•»»•]    ]••»»••t]]••»»•t    ••»•tttt••»»•t      tW•ttttt••»»••]       Wt ]]t••»»••t            t•»»••             tWW•••]               t•]t                                                   ]•t                 t»•t             ]••»»]           ]tt•»»»t          ] t•••»»»•         t••»»»••           ]•••»»»•t]    ]•tt  ••»»••t    •t»»•    t•»»•••]  ]•»»»]    W•»••tt]tt•»»»t     Wtttttt•••»»••         t]t•••»»»•t]         ]t••»»»•t            tt»»»•••            t••»•••]            WW•••t               t ]                 ]t                                                                      ] ]  ]  ] •t       tt•tt••t»»•t       ]•••••»»»»»        •••»»»»»»t]       t••»»»»»•••          W•»»•••t]           W•••••t              ttt•t]      ]        ttttt]tt]•t»•t      ]]t••••••»»»•t       tt•••»»»»»t]        t•»»»»»»••          t•»»»»•••]          W•»••••tt           Wt••••]               t                ]t]                                                       t]                 ]t]               ••••tt]           t•••••••••t]        W•»»»»»»»»»»•t      W•»»»»»»»»»»•t      tt••••••••t]         tt•••tt]            ]ttt]               ]ttt]               tt•••tt]           tt••••••••t]        W•»»»»»»»»»»•t      W•»»»»»»»»»»•t      t•••••••••t]         ••••tt]            ]t]                t]                                                               t                 ]]                 •t]              t•••••             W•»•••tt]           W•»»»»•••           tt•»»»»»»•t]       ]tt•••»»»»»»        ]tt••••••»»»•t      ttttt]tt]•t]•t    tt•••t]             W•»••••             W•»»»»•tt]         t••»»»»»••           ••••»»»»•t]        ]••••••»»»»        tt]tt]•t»»•t        ]        ]•t                                                       ]t                t•]              W•••t             tW•»•••]            tt»»»••t           ]t•»»»••t          t]t•••»»»•]       tttttt•••»»••      WW•••tt]•t•»»»t    t••»•••]  t••»»»]    •»»»••t  ] t»»•   ]••»»»»•t     ]•tt t•••»»»•]           ]t•••»»••            ] t•»»»t]              t••»»»              ] t]»•t                 •t                                                                                Wt] t            tW••••]           tt•»»••        Wtt]]tt•»»••t     tW•t•ttt••»»••]    ••»»••tt••»»•t    ]••»»••t]••»»»•t   t••»»••] t••»»•]    ]t••»»•t   t•»»•     ]••»»»•t  ]•»»t      t••»»•]   t»»]       t•»»•    ]»••       ]•»»t      tt         t»»]                ]»••                  tt                                                                                                                 tWWt    tWWt      ]•••tt]]tt•••]   t••»»•tttt•»»••t  ]••»»••tt••»»••]   t••»»••tt••»»••t    ]••»»••]]••»»••]     t•»»•t  t•»»•t      t•»»•t  t•»»•t      ]•»»•]  ]•»»•]       •»»•    •»»•        t»»t    t»»t        ]»»]    ]»»]         ••      ••          tt      tt                                                                                                                                                                                                                                                                                                                                                                                                                                                                                                                                                                                                                                                                                                                                                                                                                                                                                                                                                                                                                                                                                                                                                                                                                                                                                                                                                                                                                                                                                                                                                                                                                                                                                                                                                                                                                                                                                                                                                                                                                                                                                                                                                                                                                                                                                                                                                                                                 
