#define ind_lightcruiser_width 20
#define ind_lightcruiser_height 320
static char ind_lightcruiser_bits[] = {
	0x00, 0x00, 0x00, 0x80, 0x10, 0x00, 0x80, 0x16, 0x00, 0x80, 0x1f, 0x00,
	0x00, 0x0f, 0x00, 0x00, 0x0f, 0x00, 0x80, 0x16, 0x00, 0x88, 0x16, 0x01,
	0x08, 0x0f, 0x01, 0x38, 0xcf, 0x01, 0x78, 0xef, 0x01, 0xc8, 0x3f, 0x01,
	0x88, 0x1f, 0x01, 0x08, 0x0f, 0x01, 0x88, 0x1f, 0x01, 0xc8, 0x3f, 0x01,
0xc0, 0x36, 0x00, 0xc0, 0x30, 0x00, 0xc0, 0x30, 0x00, 0x00, 0x00, 0x00,
0x00, 0x00, 0x00, 0x00, 0x04, 0x00, 0x00, 0x14, 0x00, 0x00, 0xbc, 0x00,
    0x00, 0xfc, 0x00, 0x10, 0x3e, 0x00, 0x10, 0x3d, 0x00, 0x78, 0x2c, 0x00,
    0x78, 0x2f, 0x00, 0x48, 0x0f, 0x00, 0xc4, 0x0f, 0x01, 0xc4, 0xef, 0x01,
    0x82, 0xff, 0x01, 0xf0, 0x8f, 0x00, 0xf0, 0x87, 0x00, 0xb8, 0x47, 0x00,
0x98, 0x4e, 0x00, 0x00, 0x26, 0x00, 0x00, 0x06, 0x00, 0x00, 0x02, 0x00,
0x00, 0x00, 0x00, 0x00, 0x00, 0x00, 0x00, 0x60, 0x00, 0x80, 0x30, 0x00,
    0x40, 0xe0, 0x00, 0x60, 0xf4, 0x02, 0xf0, 0xf6, 0x03, 0x48, 0x78, 0x01,
    0x44, 0x1e, 0x00, 0xc2, 0x6f, 0x00, 0xc0, 0x2f, 0x00, 0xf8, 0x07, 0x00,
    0xfc, 0x37, 0x01, 0xee, 0xff, 0x00, 0xe4, 0x61, 0x00, 0x80, 0x21, 0x00,
0xc0, 0x11, 0x00, 0xe0, 0x08, 0x00, 0x40, 0x04, 0x00, 0x00, 0x00, 0x00,
0x00, 0x00, 0x00, 0x00, 0x00, 0x00, 0x00, 0x00, 0x00, 0x80, 0x03, 0x00,
    0xe0, 0x81, 0x01, 0x98, 0x81, 0x00, 0x84, 0xf9, 0x01, 0x80, 0xe0, 0x03,
    0xc8, 0xff, 0x01, 0xfe, 0xff, 0x07, 0xff, 0x4f, 0x00, 0xf0, 0x2f, 0x00,
    0xf8, 0x03, 0x00, 0x60, 0x1f, 0x00, 0x70, 0x18, 0x00, 0x78, 0x78, 0x00,
0x18, 0x1c, 0x00, 0x00, 0x03, 0x00, 0x80, 0x00, 0x00, 0x00, 0x00, 0x00,
0x00, 0x00, 0x00, 0x00, 0x00, 0x00, 0x00, 0x00, 0x00, 0xf0, 0x1f, 0x00,
    0x00, 0x06, 0x00, 0x00, 0x06, 0x00, 0x1e, 0x03, 0x00, 0xbe, 0x31, 0x07,
    0xf0, 0xcf, 0x01, 0xf8, 0xff, 0x03, 0xf8, 0xff, 0x03, 0xf0, 0xcf, 0x01,
    0xbe, 0x31, 0x07, 0x1e, 0x03, 0x00, 0x00, 0x06, 0x00, 0x00, 0x06, 0x00,
0xf0, 0x1f, 0x00, 0x00, 0x00, 0x00, 0x00, 0x00, 0x00, 0x00, 0x00, 0x00,
0x00, 0x00, 0x00, 0x80, 0x00, 0x00, 0x00, 0x03, 0x00, 0x18, 0x1c, 0x00,
    0x78, 0x78, 0x00, 0x70, 0x18, 0x00, 0x60, 0x1f, 0x00, 0xf8, 0x03, 0x00,
    0xf0, 0x2f, 0x00, 0xff, 0x4f, 0x00, 0xfe, 0xff, 0x07, 0xc8, 0xff, 0x01,
    0x80, 0xe0, 0x03, 0x84, 0xf9, 0x01, 0x98, 0x81, 0x00, 0xe0, 0x81, 0x01,
0x80, 0x03, 0x00, 0x00, 0x00, 0x00, 0x00, 0x00, 0x00, 0x00, 0x00, 0x00,
0x00, 0x00, 0x00, 0x40, 0x04, 0x00, 0xe0, 0x08, 0x00, 0xc0, 0x11, 0x00,
    0x80, 0x21, 0x00, 0xe4, 0x61, 0x00, 0xee, 0xff, 0x00, 0xfc, 0x27, 0x01,
    0xf8, 0x07, 0x00, 0xc0, 0x2f, 0x00, 0xc2, 0x6f, 0x00, 0x44, 0x1e, 0x00,
    0xc8, 0x78, 0x01, 0xf0, 0xf6, 0x03, 0x60, 0xf4, 0x02, 0x40, 0xe0, 0x00,
0x80, 0x30, 0x00, 0x00, 0x60, 0x00, 0x00, 0x00, 0x00, 0x00, 0x00, 0x00,
0x00, 0x02, 0x00, 0x00, 0x06, 0x00, 0x00, 0x26, 0x00, 0x98, 0x4e, 0x00,
    0xb8, 0x47, 0x00, 0xf0, 0x87, 0x00, 0xf0, 0x8f, 0x00, 0x82, 0xff, 0x01,
    0xc4, 0xef, 0x01, 0xc4, 0x0f, 0x01, 0x48, 0x0f, 0x00, 0x78, 0x2f, 0x00,
    0x78, 0x2c, 0x00, 0x10, 0x3d, 0x00, 0x10, 0x3e, 0x00, 0x00, 0xfc, 0x00,
0x00, 0xbc, 0x00, 0x00, 0x14, 0x00, 0x00, 0x04, 0x00, 0x00, 0x00, 0x00,
0x00, 0x00, 0x00, 0xc0, 0x30, 0x00, 0xc0, 0x30, 0x00, 0xc0, 0x36, 0x00,
    0xc8, 0x3f, 0x01, 0x88, 0x1f, 0x01, 0x08, 0x0f, 0x01, 0x88, 0x1f, 0x01,
    0xc8, 0x3f, 0x01, 0x78, 0xef, 0x01, 0x38, 0xcf, 0x01, 0x08, 0x0f, 0x01,
    0x88, 0x16, 0x01, 0x80, 0x16, 0x00, 0x00, 0x0f, 0x00, 0x00, 0x0f, 0x00,
0x80, 0x1f, 0x00, 0x80, 0x16, 0x00, 0x80, 0x10, 0x00, 0x00, 0x00, 0x00,
0x00, 0x04, 0x00, 0x00, 0x06, 0x00, 0x40, 0x06, 0x00, 0x20, 0x97, 0x01,
    0x20, 0xde, 0x01, 0x10, 0xfe, 0x00, 0x10, 0xff, 0x00, 0xf8, 0x1f, 0x04,
    0x78, 0x3f, 0x02, 0x08, 0x3f, 0x02, 0x00, 0x2f, 0x01, 0x40, 0xef, 0x01,
    0x40, 0xe3, 0x01, 0xc0, 0x8b, 0x00, 0xc0, 0x87, 0x00, 0xf0, 0x03, 0x00,
0xd0, 0x03, 0x00, 0x80, 0x02, 0x00, 0x00, 0x02, 0x00, 0x00, 0x00, 0x00,
0x00, 0x00, 0x00, 0x00, 0x22, 0x00, 0x00, 0x71, 0x00, 0x80, 0x38, 0x00,
    0x40, 0x18, 0x00, 0x60, 0x78, 0x02, 0xf0, 0x7f, 0x07, 0xc8, 0xfe, 0x03,
    0x00, 0xfe, 0x01, 0x40, 0x3f, 0x00, 0x60, 0x3f, 0x04, 0x80, 0x27, 0x02,
    0xe8, 0x21, 0x01, 0xfc, 0xf6, 0x00, 0xf4, 0x62, 0x00, 0x70, 0x20, 0x00,
0xc0, 0x10, 0x00, 0x60, 0x00, 0x00, 0x00, 0x00, 0x00, 0x00, 0x00, 0x00,
0x00, 0x00, 0x00, 0x00, 0x10, 0x00, 0x00, 0x0c, 0x00, 0x80, 0x83, 0x01,
    0xe0, 0xe1, 0x01, 0x80, 0xe1, 0x00, 0x80, 0x6f, 0x00, 0x00, 0xfc, 0x01,
    0x40, 0xff, 0x00, 0x20, 0xff, 0x0f, 0xfe, 0xff, 0x07, 0xf8, 0x3f, 0x01,
    0x7c, 0x10, 0x00, 0xf8, 0x19, 0x02, 0x10, 0x98, 0x01, 0x18, 0x78, 0x00,
0x00, 0x1c, 0x00, 0x00, 0x00, 0x00, 0x00, 0x00, 0x00, 0x00, 0x00, 0x00,
0x00, 0x00, 0x00, 0x00, 0x00, 0x00, 0x00, 0x00, 0x00, 0x80, 0xff, 0x00,
    0x00, 0x06, 0x00, 0x00, 0x06, 0x00, 0x00, 0x8c, 0x07, 0xce, 0xd8, 0x07,
    0x38, 0xff, 0x00, 0xfc, 0xff, 0x01, 0xfc, 0xff, 0x01, 0x38, 0xff, 0x00,
    0xce, 0xd8, 0x07, 0x00, 0x8c, 0x07, 0x00, 0x06, 0x00, 0x00, 0x06, 0x00,
0x80, 0xff, 0x00, 0x00, 0x00, 0x00, 0x00, 0x00, 0x00, 0x00, 0x00, 0x00,
0x00, 0x00, 0x00, 0x00, 0x00, 0x00, 0x00, 0x00, 0x00, 0x00, 0x1c, 0x00,
    0x18, 0x78, 0x00, 0x10, 0x98, 0x01, 0xf8, 0x19, 0x02, 0x7c, 0x10, 0x00,
    0xf8, 0x3f, 0x01, 0xfe, 0xff, 0x07, 0x20, 0xff, 0x0f, 0x40, 0xff, 0x00,
    0x00, 0xfc, 0x01, 0x80, 0x6f, 0x00, 0x80, 0xe1, 0x00, 0xe0, 0xe1, 0x01,
0x80, 0x83, 0x01, 0x00, 0x0c, 0x00, 0x00, 0x10, 0x00, 0x00, 0x00, 0x00,
0x00, 0x00, 0x00, 0x00, 0x00, 0x00, 0x60, 0x00, 0x00, 0xc0, 0x10, 0x00,
    0x70, 0x20, 0x00, 0xf4, 0x62, 0x00, 0xfc, 0xf6, 0x00, 0xe8, 0x31, 0x01,
    0x80, 0x27, 0x02, 0x60, 0x3f, 0x04, 0x40, 0x3f, 0x00, 0x00, 0xfe, 0x01,
    0x48, 0xfe, 0x03, 0xf0, 0x7f, 0x07, 0x60, 0x78, 0x02, 0x40, 0x18, 0x00,
0x80, 0x38, 0x00, 0x00, 0x71, 0x00, 0x00, 0x22, 0x00, 0x00, 0x00, 0x00,
0x00, 0x00, 0x00, 0x00, 0x02, 0x00, 0x80, 0x02, 0x00, 0xd0, 0x03, 0x00,
    0xf0, 0x03, 0x00, 0xc0, 0x87, 0x00, 0xc0, 0x8b, 0x00, 0x40, 0xe3, 0x01,
    0x40, 0xef, 0x01, 0x00, 0x2f, 0x01, 0x08, 0x3f, 0x02, 0x78, 0x3f, 0x02,
    0xf8, 0x1f, 0x04, 0x10, 0xff, 0x00, 0x10, 0xfe, 0x00, 0x20, 0xde, 0x01,
0x20, 0x97, 0x01, 0x40, 0x06, 0x00, 0x00, 0x06, 0x00, 0x00, 0x04, 0x00};
