/* XPM */
static char *CL[] = {
/* width height num_colors chars_per_pixel */
"    20   320        7            1",
/* colors */
". c None",
"# c #00ff00",
"a c #7f503f",
"b c #b07000",
"c c #f19000",
"d c #ff0000",
"e c #ffe800",
/* pixels */
"....................",
".........aa.........",
".........cc.........",
"........aeea........",
"........ceec........",
".......bccccb.......",
".........bb.........",
"........aeea........",
"........beeb........",
"........ceec........",
".......aceeca.......",
".....e.bceecb.e.....",
".....c.cceecc.c.....",
".....cbcceeccbc.....",
"....ac#cceecc#ca....",
"....bc#cceecc#cb....",
".....cb#ceec#bc.....",
"......abbccbba......",
"........bddb........",
"....................",
"....................",
".............aa.....",
".............cc.....",
"............aee.....",
"..........bcceea....",
"...........cccc.....",
"..........abb.b.....",
"..........beea......",
"..........ceeb......",
"......e.aceeec......",
".....c.bceeca.......",
"....acbcceecb.......",
"...bcc#cceecc.e.....",
"....c#ccceecc.c.....",
".....b#ceeeccbc.....",
"....abceecc##c......",
"......bccc#bcba.....",
"......bddbbac.......",
".........b..........",
"....................",
"....................",
"....................",
"...............a....",
".............caca...",
"...........bceec....",
"............bceea...",
".....e...baebcc.....",
"....cc..aceee.cb....",
"...acb.bcceeba......",
"..bc#ccceeec........",
"..cb#cceeecc........",
"..a#cceeecba........",
"...bcceeccc.........",
"..bbeeeccb.e........",
"...dccccc#cc........",
"....dbb#b#c.........",
"......bacca.........",
"..........b.........",
"....................",
"....................",
"....................",
"....................",
"....................",
"....................",
".............bca.a..",
"..bacce....a.ceeca..",
"..cccb..accbebceec..",
"..b##ccbceeeebcca...",
".a#cccceeeeea.c.....",
"..bccceeeeccb..b....",
".bbeeeeccca.........",
".dceeccccb..........",
"..dcc#ccb...........",
"..bbbb##cce.........",
"....accc............",
".......ba...........",
"....................",
"....................",
"....................",
"....................",
"....................",
"....................",
"....................",
"....................",
"....ba..............",
"...ccccce...........",
"..ab##b.............",
"..b#ccccba....b.....",
".bbccccccccba.cca...",
".dceeeeeeeeeebceeca.",
".dceeeeeeeeeebceeca.",
".bbccccccccba.cca...",
"..b#ccccba....b.....",
"..ab##b.............",
"...ccccce...........",
"....ba..............",
"....................",
"....................",
"....................",
"....................",
"....................",
"....................",
"....................",
"....................",
".....c.b............",
"....abcca...........",
"....b###cce.........",
"..bbcccb............",
".ddceccccb..........",
".bceeeeccca.........",
"..bcceeeeeccb.......",
"..b#ccceeeeeea.b....",
".ab#ccccceeeebcca...",
"..cc#bcbacbabccee...",
"..bacc.......ceecca.",
"......ce.....bca.a..",
"....................",
"....................",
"....................",
"....................",
"....................",
"....................",
".......a............",
"....b.bbcba.........",
"....dbc##cc.........",
"...bdcecc#bc........",
"...bceeccc.ce.......",
"..abcceeccc.........",
"..b#cceeecba........",
"..c##cceeecc........",
"...ccbccceeeb.......",
"..bac.cbceeea.......",
".....c..acbee.cb....",
".....e....aebcc.....",
"............bcea....",
"...........cceec....",
"...........b.aeca...",
"................a...",
"....................",
"....................",
"....................",
"........ddbba..b....",
".......bccb#bcca....",
".....abbeecc##c.....",
"......b#ceecccbc....",
".....c#cceeccc.c....",
"....bc#cceeecb.e....",
".....acbcceeeca.....",
"......c.ccceec......",
"......c.baceec......",
".......e...ceeb.....",
"...........beea.....",
"...........abb.b....",
".............ccc....",
"...........bceec....",
"............ceea....",
".............acc....",
"..............aa....",
"....................",
"....................",
"....................",
"........bddb........",
"......abbccbba......",
".....cb#ceec#bc.....",
"....bc#cceecc#cb....",
"....ac#cceecc#ca....",
".....cbcceeccbc.....",
".....c.cceecc.c.....",
".....e.bceecb.e.....",
".......aceeca.......",
"........ceec........",
"........beeb........",
"........aeea........",
".........bb.........",
".......bccccb.......",
"........ceec........",
"........aeea........",
".........cc.........",
".........aa.........",
"....................",
"....................",
"........abbdd.......",
"......bcb#bccb......",
".....acc#cceebb.....",
"......c#ccceec#a....",
".....cbcceecccbc....",
".....e.cceecc##cb...",
".......bceeccbca....",
".......aceecc.c.....",
".......ceeecb.c.....",
"......beec.a.e......",
"......aeeb..........",
".......bea..........",
".....bccb...........",
".....ceeccb.........",
"....aeec............",
".....cca............",
".....aa.............",
"....................",
"....................",
"....................",
"....................",
"........bccabb......",
"........ac#b#bd.....",
"........cb#ccccdb...",
"......ec.ccceecb....",
"........bcceeeecb...",
".......acceeecc#a...",
"........ceeeccc#bc..",
".......bceecccb#cb..",
"......aeeecbc.cca...",
"....b.beebca.ec.....",
"....ccbea...........",
"...acec.............",
"...eeecb............",
"..accac.............",
"...a................",
"....................",
"....................",
"....................",
"....................",
"....................",
"....................",
".............b......",
"............acc.....",
"...........cc#ba....",
"..........c.b#c#bb..",
".........e.cccccbd..",
".........abccceecd..",
".........ccceeeeecb.",
"........beeeeeeccb..",
"....b.aeeeeecccc#b..",
"...accbbeecccccc#ba.",
"...eecc.ab.ab.b#cc..",
".aceecc......cccb...",
"..aca..b.....e..a...",
"....................",
"....................",
"....................",
"....................",
"....................",
"....................",
"....................",
"....................",
"..............ab....",
"...........eccccc...",
".............b##ba..",
".....b....abcccc#b..",
"...acc.abccccccccbb.",
".aceecbeeeeeeeeeecd.",
".aceecbeeeeeeeeeecd.",
"...acc.abccccccccbb.",
".....b....abcccc#b..",
".............b##ba..",
"...........eccccc...",
"..............ab....",
"....................",
"....................",
"....................",
"....................",
"....................",
"....................",
"....................",
"....................",
"....a.b.....e.......",
".aacecc......cc.ab..",
"..ceeec.ab.ab.bccc..",
"...accbbeeccccc##b..",
".....c.eeeeeecccc#a.",
"....b.abceeeeecccb..",
".........ccceeeeebb.",
".........abccceeccd.",
"............ccccbd..",
"..........ecb#c#bb..",
"...........cc#ba....",
"...........abcc.....",
"....................",
"....................",
"....................",
"....................",
"....................",
"....................",
"...a.a..............",
"...acec.............",
"...ceecb............",
"...acec.a...........",
"....ccbeb...........",
"....b.beecca.ec.....",
"......abeeecb.bcab..",
".......ceeeccc#cc...",
"........cceeccc#bc..",
".......abceeecc#a...",
".........cceeecbb...",
"......ecbccceecb....",
"........c#cccecd....",
".........c#b#bbd....",
"........accab.......",
".........b..........",
"....................",
"....................",
"....................",
".....aa.............",
".....cc.............",
".....eea............",
".....aeecb..........",
".....cccc...........",
"....bcbbea..........",
".......eeeb.........",
"......abeeca........",
".......ceecb.e......",
".......aceecc.c.....",
".......bceeccbca....",
".....e.cceecc#cb....",
"......cbcceecc#c....",
"......c#cceec#bc....",
".....ac#cceecba.....",
"......bcb#cccb......",
".......cabbddb......",
"..........b.........",
"...................."
};
SIMPLE  =                    T                                                  BITPIX  =                    8                                                  NAXIS   =                    2                                                  NAXIS1  =                   20                                                  NAXIS2  =                  320                                                  HISTORY Written by XV 3.10                                                      END                                                                                                                                                                                                                                                                                                                                                                                                                                                                                                                                                                                                                                                                                                                                                                                                                                                                                                                                                                                                                                                                                                                                                                                                                                                                                                                                                                                                                                                                                                                                                                                                                                                                                                                                                                                                                                                                                                                                                                                                                                                                                                                                                                                                                                                                                                                                                                                                                                                                                                                           t                •]ttWWt            t•t•••t           ]•••»»•t]           •••»»•t•          •t••»»•••         » ••»»•••t           t•»»••t•]           ]•»»•• •            •»»•t »            ]t»»•]               »»»t             t•tt»]               ••••                ]»»•t               »»]                 ••                  ]]                                                                                  t                  ]••]t                •tttW            ••••»•W          »•t•••»»•t             ••»»»•tt          ]t•»»»••]           ••»»•••t•         •»»»•••••         ]t»»»•t t•]t      t t»»••] »•         ••t»t              ]•»• ]              •»»•t               ]•»•                ] ]                                                                                                                                                 ]t••                ••t]              »•t•tt              ••••tW           ]t•••»»••W          •••»»»»»tt     t ]t•»»»»»•••t       • »»»»»»••••]    ]••tt»»•••••t    •»»»• ]t ]t t•••   ]]•»••      •• ]t      ] t     »                                                                                                                                                                                     ]t               »•••••                tt]       t    ]t••••t     ]•• ]t••••••••tt  ]•»»•t»»»»»»»»»»•W  ]•»»•t»»»»»»»»»»•W    ]•• ]t••••••••tt      t    ]t••••t               tt]             »•••••                 ]t                                                                                                                                                                      ]•]  t     »  ]    ]•»»••      •••t      »»•• ]t ]t t••     ]••tt»»••••••t]     t ]»»»»»••••t          t»»»»»»••t           •••»»»»»•t          ]t•••»»•W           » •••••tW            • t•tt             ••t]                ]••                  t                                                                                                                                 ]                  ]••]•                »»»•t               ]•»•                 ••t»]               t t»»t•] »•           ]»»»•t• ••]          t•»»•••t•t          •»»»•••t•         ]••»»»••]           t••»»»»•t         »• •••»»•t            •t••••Wt           ]•ttW             t••]tt                                                                                           ]]                  ••]                ]»»•                 •»»••t              t••t                  t»]                ]»»t                t»»• ] »             •»»»•t •            ]•»»•• •            t•»»••t•]         » ••»»•••t        •t••»»•••t•          ••••»»•]         ]••••»»tt           t•tt••t              ]ttWW                                                        ]]                  ••                 ]»»]                •»»•               t••••t                tt                 ]»»]                t»»t                •»»•               ]•»»•]            » t•»»•t »          • ••»»•• •          •t••»»••t•         ]•••»»•••]        t•••»»•••t         •t•»»•t•           ]tt••tt]              tWWt                                                                                  ]]                 ]••                •»»]               t•»»•                 •••               ]tt t               t»»]            »   •»»t           • t]•»»•            • •••»»•           ]•t••»»»•]         t•••»»»•t »         •••»»••• •          t•»»•••t•         ]tt»»•••            t••tt••]            WWtt]  t                                                                                ]              t ]»•]              ••»»•                t•»]         »    ]»t••          •  ]•t»» •t      t]• •t•»»»]          ••t•••»»»t         •••»»»••          t••»»»•t]          ]t••»»•••            t•»»••• •»          tW•»••t•            Wt•••             t tt•t]                ]                                                                                                                                          •»     t•] ]    t]••       •»»••]   ••t•t]•t]t••»»    ]t•••••»»»»t••]     t•••»»»»»»] t      t••»»»»»••t        t•»»»»•••]          WW•»••••t            tt•••t                t••»             ]t••]                • t                                                                                                                                                                                t]                 •••••»             ]tt               t••••t]    t      tt••••••••t] ••]    W•»»»»»»»»»»t•»»•]  W•»»»»»»»»»»t•»»•]  tt••••••••t] ••]     t••••t]    t       ]tt                •••••»               t]                                                                                                                                                                                     t]               ]•••              tttt••»           W••••t            W•»»••••t           tt»»»»•••]           t•••»»»»••t  t     ]••••»»»»»] •       t••t•»»»»t••]     •••t  ]••t»t•»»•    t]••»    ] •»»•]               t•] ]                                                                                                                                    t               t]••]             Wttt•            W•••••••          tt»»»••t »           t••»»•••           ]••»»»•t]          •t••»»»••          t••••»»»•           ]•t t••»»t]          ••  ]•»»» •t         »   t]»t••                 t•»»]              t•»»•                 •]•]                  ]                                                                         t                tWWtt]•             t•••t•t]         ]t•»»•••           t•»»»••t•         ••••»»•• •        t••••»»•• »         ]•t••»»•t            • t•»»•]             » ]•»»»•                •»»t                t»»]                ]tt t                ••••               t••»»]                ]»»                  ••                  ]]                                                     tWWt              ]tt••tt]           •t•»»•t•         t•••»»•••t        ]•••»»•••]         •t••»»••t•          • ••»»•• •          » t•»»•t »            ]•»»•]               •»»•                t»»t                ]»»]                 tt                t••••t               •»»•                ]»»]                 ••                  ]]                                                                                                                                                                                                                                                                                                                                                                                                                                                                                                                                                                                                                                                                                                                                                                                                                                                                                                                                                                                                                                                                                                                                                                                                                                                                                                                                                                                                                                                                                                                                                                                                                                                                                                                                                                                                                                                                                                                                                                                                                                                                                                                                                                                                                                                                                                                                                             
