/* XPM */
static char *CV[] = {
/* width height ncolors chars_per_pixel */
"20 320 7 1",
/* colors */
"` c None",
"a c #B07000",
"b c #00FF00",
"c c #FFE800",
"d c #7F503F",
"e c #FF0000",
"f c #F19000",
/* pixels */
"````````````````````",
"`````````aa`````````",
"`````````ff`````````",
"````````dccd````````",
"````````fccf````````",
"```````afccfa```````",
"`````````ff`````````",
"````````dffd````````",
"`c``````affa``````c`",
"`f`````affffa`````f`",
"`f``daaffccffaad``f`",
"`faaaaffccccffaaaaf`",
"`fafaaffccccffaafaf`",
"`ffbffffccccffffbff`",
"`ffbfffcaccacfffbff`",
"`ffbfafcaccacfafbff`",
"`dbfaafdaccadfaafbd`",
"``da``fddffddf``ad``",
"````````deed````````",
"````````````````````",
"````````````````````",
"`````````````aa`````",
"`````````````ff`````",
"````````````dcc`````",
"``````````affccd````",
"```c```````ccff`````",
"``ff``````dff`a`````",
"``f``d````affd``````",
"``faaaaa`afffa``````",
"``fafaafffcfff``````",
"`ffbfaffcccffa``````",
"fffbffffccccfaa````c",
"dbbfafffccccffad```f",
"`dfaafccacccffaaaaf`",
"``a``fdacccacffafaf`",
"````fdaccacffffbff``",
"``````dffadfaffbff``",
"``````deeddfaabfff``",
"`````````d````fbd```",
"``````````````ad````",
"````````````````````",
"``````c`````````````",
"``````f``````````a``",
"`````ff````````fdfa`",
"````fa```````afccf``",
"```ffaaad`````fcccd`",
"``ffbfaaa`aadffcf```",
"`dffbffafafffff`fa``",
"``bfbfffffcfffad````",
"`daafafffccccf``````",
"````affccccccfa`````",
"````fdcaccccff``````",
"`````daacccfffaa````",
"````ddcccacffaad``c`",
"`````effaacffaaa``f`",
"``````edddffffbfaff`",
"````````dfaafbfaf```",
"```````````afbff````",
"```````````fbff`````",
"```````````addf`````",
"````````````````````",
"```````ffc``````````",
"````fff`````````````",
"`dfffaa`````````````",
"``bffbfad```````````",
"`dfbbfaaa`````afd`a`",
"`aafffaaa`a`d`fccfa`",
"```aafffffffaffcccf`",
"```ffffffccffffcfd``",
"``fdcccccccffd`f````",
"```daaaccccffa``a```",
"``ddcccccccfa```````",
"``efccaafffa````````",
"```efadccfffa```````",
"```dddffffaad```````",
"`````faaffaa````````",
"```````affbfa```````",
"```````fbbfaaffc````",
"``````abfffff```````",
"```````ddff`````````",
"````````````````````",
"```dfffffffc````````",
"``dbfffaa```````````",
"``afbbbfa```````````",
"```afffaad``````````",
"```aaffaaa``````````",
"``fffffffa``````````",
"``ddccffffa```a`````",
"`ddaaacccffad`ffd```",
"`efcccccccffffcccfa`",
"`efcccccccffffcccfa`",
"`ddaaacccffad`ffd```",
"``ddccffffa```a`````",
"``fffffffa``````````",
"```aaffaaa``````````",
"```afffaad``````````",
"``afbbbfa```````````",
"``dbfffaa```````````",
"```dfffffffc````````",
"````````````````````",
"``````ddf```````````",
"`````abffff`````````",
"``````fbffafff``````",
"`````aafbbfa``c`````",
"````ffafffaa````````",
"````ddfffaaad```````",
"``ddaccfffa`````````",
"`eefcaafffa`````````",
"`dfcccccccfa````````",
"``daacccccffa```````",
"``ddcacccccffd`a````",
"`fffcfccffffffffd```",
"``aaffffffadfcccc```",
"aaffffffaa```fccffa`",
"dfbbfaaaa````afd`a``",
"`bffbfad````````````",
"dfffaa``````````````",
"```ffa``````````````",
"`````fff````````````",
"````````c```````````",
"````````````````````",
"```````````ddf``````",
"``````````abff``````",
"````````f`afbfff````",
"`````d`dfaffbfaf````",
"`````edadfaffbfaf```",
"````defcacfffaaa`fc`",
"````dfccacffaad`````",
"```fdaaccccffaa`````",
"```fdcaccccff```````",
"```affcccccffa``````",
"`afaafffccccfa``````",
"dbbfffffffcffd``````",
"dffbbfafaffaff`fa```",
"`ffffaaa`a`dffcf````",
"``ffaaad`````fccd```",
"```fa```````ffccf```",
"````f```````a`dcfa``",
"`````fc``````````a``",
"````````````````````",
"```````````````dd```",
"`````````````afbf```",
"```````eeddf`afbff``",
"``````dffddfaafbff``",
"````fddccacffffbff``",
"``a``fdaccacfffafaf`",
"`dfaafcaccacffaaaaf`",
"dbbfafcaccccffad``f`",
"`ffbffffcccccfaa```c",
"`ffbffffccccfa``````",
"`fffaafffffff```````",
"``faaaaa`afffa``````",
"``fa`da```affd``````",
"``f```````dff`a`````",
"```f````````ccf`````",
"```c``````afccf`````",
"```````````fccd`````",
"````````````dff`````",
"`````````````aa`````",
"````````````````````",
"````````````````````",
"````````deed````````",
"``da``fddffddf``ad``",
"`dbfaafdaccadfaafbd`",
"`ffbfafcaccacfafbff`",
"`ffbfffcaccacfffbff`",
"`ffbffffccccffffbff`",
"`fafaaffccccffaafaf`",
"`faaaaffccccffaaaaf`",
"`f``daaffccffaad``f`",
"`f`````affffa`````f`",
"`c``````affa``````c`",
"````````dffd````````",
"`````````ff`````````",
"```````afccfa```````",
"````````fccf````````",
"````````dccd````````",
"`````````ff`````````",
"`````````aa`````````",
"````````````````````",
"`````d``````````````",
"```dba``````````````",
"```fffa`fddee```````",
"``ffbbfafddffd``````",
"``ffbffafcaccdd`````",
"``faffffcaaccadf````",
"`faaaaffcccaacfaaad`",
"ff``aaffcccccffaffb`",
"c```daffccccffffbbfd",
"``````affcccffffbfff",
"``````affccfffaafff`",
"``````afffafaaaaaf``",
"``````dffa```ad`af``",
"```````ffd```````f``",
"`````afcf```````f```",
"`````fcccfa`````c```",
"````dccf````````````",
"`````ffd````````````",
"`````aa`````````````",
"````````````````````",
"````````````````````",
"``````fdd```````````",
"`````ffba```````````",
"````fffbfa``````````",
"``ffabbfaafdd```````",
"``faaffffffdde``````",
"`cf``aafffcaafed````",
"````daaffcaccfd`````",
"`````afffcccccad````",
"`````afcccccacdf````",
"``````afccccacffa```",
"``````afccccfffafaad",
"`````dffffffffffbfb`",
"```a`fffafffaafbbffd",
"```fcffd`aaaaaffff``",
"``dfcc``````daaaf```",
"``cccfa```````ff````",
"`affdf````````f`````",
"``a``````````cf`````",
"````````````````````",
"``````````fd`d``````",
"```````ffffbfa``````",
"`````fffaffbfa``````",
"````c``afbbfaa``````",
"```````aaffffff`````",
"```````daafffcddd```",
"```````aafffcaade```",
"```````affccaccfe```",
"```````affccccccfd``",
"```````afcccccaad```",
"```a`dfffccccacdd```",
"``dffffffffcffcfff``",
"``cccc`daafffffaa```",
"afccff````afafffafa`",
"`afd``a````aaaffbfbd",
"```````````dafbbffd`",
"````````````aafff```",
"`````````````af`````",
"```````````fff``````",
"``````````c`````````",
"````````````````````",
"````````cfffffffd```",
"```````````aafffbd``",
"```````````afbbbfa``",
"``````````daafffa```",
"``````````aaaffaa```",
"``````````afffffff``",
"`````a```affffccdd``",
"```dff`daffcccaaadd`",
"`afcccffffcccccccfe`",
"`afcccffffcccccccfe`",
"```dff`daffcccaaadd`",
"`````a```affffccdd``",
"``````````afffffff``",
"``````````aaaffaa```",
"``````````daafffa```",
"```````````afbbbfa``",
"```````````aafffbd``",
"````````cfffffffd```",
"````````````````````",
"```````````cff``````",
"``````````````ff````",
"``````````````aafff`",
"`````````````daffffd",
"````d`a````aaaabbbbd",
"`aafcff````afafffffa",
"``fcccc`daafffffaaa`",
"```dfcffffffcfffff``",
"`````f`ffffccccccdf`",
"````a`dafcccccaaad``",
"````````afcccccccdd`",
"`````````fffcaccffe`",
"`````````afffcaade``",
"````````daaaffcddd``",
"````````aaffffff````",
"````````afbffaa`````",
"`````cffaafbba``````",
"````````ffffffa`````",
"```````````ffbd`````",
"````````````d```````",
"````````````````````",
"````````````c```````",
"``a`d````````f``````",
"``afcf````````ff````",
"``fccfa```````af````",
"``dfcc`d````d`aaff``",
"```fcffa`aaaaaffff``",
"```a`fffffffaafbbfd`",
"`````daffccffffffbbd",
"``````ffcccffffaafa`",
"``````afccccacffa```",
"`````affccccacdf````",
"`````afffccccadd````",
"c```daaffaaccfd`````",
"`f``aaaffccacfe`````",
"``ffafbffffddde`````",
"```fafbfaafd````````",
"````fffbfa``````````",
"`````fffa```````````",
"``````dbd```````````",
"````````````````````",
"`````aa`````````````",
"`````ff`````````````",
"`````ccd````````````",
"`````dccfa``````c```",
"`````fccf```````f```",
"````affffd``````f```",
"```````fffaa``d``f``",
"``````daffffaaaaaf``",
"``````afccfffaafaf``",
"``````affcccffafbfff",
"c````affccccffffbffd",
"f``daaffcccccfffbfb`",
"`f`afaaffcccacfaa`ad",
"`faabfffcaccadfa````",
"`fffbfffcaccadf`````",
"```ffbfafdaffd``````",
"```fffaafddeed``````",
"```dba````d`````````",
"`````d``````````````"
};
