#define ind_destroyer_width 20
#define ind_destroyer_height 320
static char ind_destroyer_bits[] = {
	0x00, 0x00, 0x00, 0x40, 0x26, 0x00, 0x80, 0x16, 0x00, 0x00, 0x0f, 0x00,
	0x00, 0x09, 0x00, 0x00, 0x0f, 0x00, 0x00, 0x06, 0x00, 0x00, 0x06, 0x00,
	0x00, 0x0f, 0x00, 0x00, 0x0f, 0x00, 0x00, 0x0f, 0x00, 0x80, 0x1f, 0x00,
	0x80, 0x1f, 0x00, 0x00, 0x0f, 0x00, 0x80, 0x1f, 0x00, 0x80, 0x19, 0x00,
0xc0, 0x30, 0x00, 0xc0, 0x30, 0x00, 0xc0, 0x30, 0x00, 0x00, 0x00, 0x00,
    0x00, 0x04, 0x00, 0x00, 0x64, 0x00, 0x00, 0x64, 0x00, 0x00, 0x3c, 0x00, 0x00, 0x24, 0x01,
    0x00, 0xec, 0x00, 0x00, 0x3c, 0x00, 0x00, 0x1e, 0x00, 0x00, 0x0f, 0x00, 0x80, 0x0f, 0x00,
    0x80, 0x0f, 0x00, 0xa0, 0x0f, 0x00, 0xf0, 0x07, 0x00, 0xf8, 0x03, 0x00, 0x18, 0x07, 0x00,
0x18, 0x07, 0x00, 0x00, 0x03, 0x00, 0x00, 0x03, 0x00, 0x00, 0x03, 0x00, 0x00, 0x00, 0x00,
    0x00, 0x00, 0x00, 0x00, 0x00, 0x00, 0x00, 0x10, 0x00, 0x00, 0x90, 0x00, 0x00, 0xf0, 0x01,
    0x00, 0x90, 0x00, 0x00, 0xb0, 0x00, 0x00, 0xf8, 0x03, 0x80, 0x1f, 0x00, 0x80, 0x0f, 0x00,
    0xc0, 0x0f, 0x00, 0xf8, 0x0f, 0x00, 0xfc, 0x0f, 0x00, 0x8e, 0x03, 0x00, 0x84, 0x01, 0x00,
0x80, 0x01, 0x00, 0xc0, 0x01, 0x00, 0xe0, 0x00, 0x00, 0x40, 0x00, 0x00, 0x00, 0x00, 0x00,
    0x00, 0x00, 0x00, 0x00, 0x00, 0x00, 0x00, 0x00, 0x00, 0x00, 0x00, 0x01, 0x00, 0x80, 0x00,
    0x00, 0x80, 0x0c, 0x00, 0xc0, 0x0f, 0x00, 0x60, 0x02, 0x00, 0xfe, 0x02, 0x60, 0xff, 0x0f,
    0xfc, 0x3f, 0x00, 0xfc, 0x1f, 0x00, 0x80, 0x0f, 0x00, 0x80, 0x01, 0x00, 0x80, 0x03, 0x00,
0xe0, 0x01, 0x00, 0xe0, 0x00, 0x00, 0x00, 0x00, 0x00, 0x00, 0x00, 0x00, 0x00, 0x00, 0x00,
    0x00, 0x00, 0x00, 0x00, 0x00, 0x00, 0x00, 0x00, 0x00, 0x00, 0x00, 0x00, 0x00, 0x00, 0x00,
    0x00, 0x00, 0x00, 0x1c, 0x00, 0x08, 0x7c, 0x03, 0x04, 0xe0, 0x9f, 0x03, 0xc0, 0xff, 0x0e,
    0xc0, 0xff, 0x0e, 0xe0, 0x9f, 0x03, 0x7c, 0x03, 0x04, 0x1c, 0x00, 0x08, 0x00, 0x00, 0x00,
0x00, 0x00, 0x00, 0x00, 0x00, 0x00, 0x00, 0x00, 0x00, 0x00, 0x00, 0x00, 0x00, 0x00, 0x00,
    0x00, 0x00, 0x00, 0x00, 0x00, 0x00, 0x00, 0x00, 0x00, 0xe0, 0x00, 0x00, 0xe0, 0x01, 0x00,
    0x80, 0x03, 0x00, 0x80, 0x01, 0x00, 0x80, 0x0f, 0x00, 0xfc, 0x1f, 0x00, 0xfc, 0x3f, 0x00,
    0x60, 0xff, 0x0f, 0x00, 0xfe, 0x02, 0x00, 0x60, 0x02, 0x00, 0xc0, 0x0f, 0x00, 0x80, 0x0c,
0x00, 0x80, 0x00, 0x00, 0x00, 0x01, 0x00, 0x00, 0x00, 0x00, 0x00, 0x00, 0x00, 0x00, 0x00,
    0x00, 0x00, 0x00, 0x00, 0x00, 0x00, 0x80, 0x00, 0x00, 0xc0, 0x01, 0x00, 0x80, 0x03, 0x00,
    0x00, 0x03, 0x00, 0x08, 0x03, 0x00, 0x1c, 0x07, 0x00, 0xf8, 0x1f, 0x00, 0xf0, 0x1f, 0x00,
    0x80, 0x1f, 0x00, 0x00, 0x1f, 0x00, 0x00, 0x3f, 0x00, 0x00, 0xf0, 0x07, 0x00, 0x60, 0x01,
0x00, 0x20, 0x01, 0x00, 0xe0, 0x03, 0x00, 0x20, 0x01, 0x00, 0x20, 0x00, 0x00, 0x00, 0x00,
    0x00, 0x00, 0x00, 0x00, 0x00, 0x00, 0x00, 0x06, 0x00, 0x00, 0x06, 0x00, 0x00, 0x06, 0x00,
    0x30, 0x0e, 0x00, 0x30, 0x0e, 0x00, 0xf0, 0x07, 0x00, 0xe0, 0x0f, 0x00, 0x40, 0x1f, 0x00,
    0x00, 0x1f, 0x00, 0x00, 0x1f, 0x00, 0x00, 0x1e, 0x00, 0x00, 0x3c, 0x00, 0x00, 0x78, 0x00,
0x00, 0xd8, 0x01, 0x00, 0x48, 0x02, 0x00, 0x78, 0x00, 0x00, 0xc8, 0x00, 0x00, 0xc8, 0x00,
    0x00, 0x00, 0x00, 0x00, 0x00, 0x00, 0x80, 0x61, 0x00, 0x80, 0x61, 0x00, 0x80, 0x61, 0x00,
    0x00, 0x33, 0x00, 0x00, 0x3f, 0x00, 0x00, 0x1e, 0x00, 0x00, 0x3f, 0x00, 0x00, 0x3f, 0x00,
    0x00, 0x1e, 0x00, 0x00, 0x1e, 0x00, 0x00, 0x1e, 0x00, 0x00, 0x0c, 0x00, 0x00, 0x0c, 0x00,
0x00, 0x1e, 0x00, 0x00, 0x12, 0x00, 0x00, 0x1e, 0x00, 0x00, 0x2d, 0x00, 0x80, 0x4c, 0x00,
    0x00, 0x00, 0x00, 0x00, 0x00, 0x00, 0x00, 0x18, 0x00, 0x00, 0x18, 0x00, 0x00, 0x18, 0x00,
    0x00, 0x1c, 0x03, 0x00, 0x1c, 0x03, 0x00, 0xf8, 0x03, 0x00, 0xfc, 0x01, 0x00, 0xbe, 0x00,
    0x00, 0x3e, 0x00, 0x00, 0x3e, 0x00, 0x00, 0x1e, 0x00, 0x00, 0x0f, 0x00, 0x80, 0x07, 0x00,
0xe0, 0x06, 0x00, 0x90, 0x04, 0x00, 0x80, 0x07, 0x00, 0xc0, 0x04, 0x00, 0xc0, 0x04, 0x00,
    0x00, 0x00, 0x00, 0x00, 0x00, 0x00, 0x00, 0x20, 0x00, 0x00, 0x70, 0x00, 0x00, 0x38, 0x00,
    0x00, 0x18, 0x00, 0x00, 0x18, 0x02, 0x00, 0x1c, 0x07, 0x00, 0xff, 0x03, 0x00, 0xff, 0x01,
    0x00, 0x3f, 0x00, 0x00, 0x1f, 0x00, 0x80, 0x1f, 0x00, 0xfc, 0x01, 0x00, 0xd0, 0x00, 0x00,
0x90, 0x00, 0x00, 0xf8, 0x00, 0x00, 0x90, 0x00, 0x00, 0x80, 0x00, 0x00, 0x00, 0x00, 0x00,
    0x00, 0x00, 0x00, 0x00, 0x00, 0x00, 0x00, 0x00, 0x00, 0x00, 0x00, 0x00, 0x00, 0xe0, 0x00,
    0x00, 0xf0, 0x00, 0x00, 0x38, 0x00, 0x00, 0x30, 0x00, 0x00, 0x3e, 0x00, 0x00, 0xff, 0x07,
    0x80, 0xff, 0x07, 0xff, 0xdf, 0x00, 0xe8, 0x0f, 0x00, 0xc8, 0x00, 0x00, 0x7e, 0x00, 0x00,
0x26, 0x00, 0x00, 0x20, 0x00, 0x00, 0x10, 0x00, 0x00, 0x00, 0x00, 0x00, 0x00, 0x00, 0x00,
    0x00, 0x00, 0x00, 0x00, 0x00, 0x00, 0x00, 0x00, 0x00, 0x00, 0x00, 0x00, 0x00, 0x00, 0x00,
    0x00, 0x00, 0x00, 0x00, 0x00, 0x00, 0x02, 0x00, 0x07, 0x04, 0xd8, 0x07, 0x38, 0xff, 0x00,
    0xee, 0x7f, 0x00, 0xee, 0x7f, 0x00, 0x38, 0xff, 0x00, 0x04, 0xd8, 0x07, 0x02, 0x00, 0x07,
0x00, 0x00, 0x00, 0x00, 0x00, 0x00, 0x00, 0x00, 0x00, 0x00, 0x00, 0x00, 0x00, 0x00, 0x00,
    0x00, 0x00, 0x00, 0x00, 0x00, 0x00, 0x00, 0x00, 0x00, 0x00, 0x00, 0x00, 0x10, 0x00, 0x00,
    0x20, 0x00, 0x00, 0x26, 0x00, 0x00, 0x7e, 0x00, 0x00, 0xc8, 0x00, 0x00, 0xe8, 0x0f, 0x00,
    0xff, 0xdf, 0x00, 0x80, 0xff, 0x07, 0x00, 0xff, 0x07, 0x00, 0x3e, 0x00, 0x00, 0x30, 0x00,
0x00, 0x38, 0x00, 0x00, 0xf0, 0x00, 0x00, 0xe0, 0x00, 0x00, 0x00, 0x00, 0x00, 0x00, 0x00,
    0x00, 0x00, 0x00, 0x00, 0x00, 0x00, 0x80, 0x00, 0x00, 0x90, 0x00, 0x00,
    0xf8, 0x00, 0x00, 0x90, 0x00, 0x00, 0xd0, 0x00, 0x00, 0xfc, 0x01, 0x00,
    0x80, 0x1f, 0x00, 0x00, 0x1f, 0x00, 0x00, 0x3f, 0x00, 0x00, 0xff, 0x01,
    0x00, 0xff, 0x03, 0x00, 0x1c, 0x07, 0x00, 0x18, 0x02, 0x00, 0x18, 0x00,
0x00, 0x38, 0x00, 0x00, 0x70, 0x00, 0x00, 0x20, 0x00, 0x00, 0x00, 0x00,
    0x00, 0x02, 0x00, 0x60, 0x02, 0x00, 0x60, 0x02, 0x00, 0xc0, 0x03, 0x00,
    0x48, 0x02, 0x00, 0x70, 0x03, 0x00, 0xc0, 0x03, 0x00, 0x80, 0x07, 0x00,
    0x00, 0x0f, 0x00, 0x00, 0x1f, 0x00, 0x00, 0x1f, 0x00, 0x00, 0x5f, 0x00,
    0x00, 0xfe, 0x00, 0x00, 0xfc, 0x01, 0x00, 0x8e, 0x01, 0x00, 0x8e, 0x01,
0x00, 0x0c, 0x00, 0x00, 0x0c, 0x00, 0x00, 0x0c, 0x00, 0x00, 0x00, 0x00};
