/* XPM */
static char *DD[] = {
/* width height num_colors chars_per_pixel */
"    20   320        7            1",
/* colors */
". c None",
"# c #00ff00",
"a c #7f503f",
"b c #b07000",
"c c #f19000",
"d c #ff0000",
"e c #ffe800",
/* pixels */
"....................",
"....................",
".........aa.........",
".........bb.........",
".........ee.........",
"........beeb........",
"........ceec........",
".......aceeca.......",
".....e.bceecb.e.....",
".....c.bceecb.c.....",
".....cacceeccac.....",
".....cbcceeccbc.....",
"....cc.cceecc.cc....",
"....acacceeccaca....",
".....c#cceecc#c.....",
"......##ceec##......",
".......bccccb.......",
"........bddb........",
"....................",
"....................",
"....................",
"....................",
".............aa.....",
".............bb.....",
"...........b.ee.....",
"..........ceeb......",
".......e.aceec......",
".......c.bceec......",
"......ca.bceeca.....",
".....ccbcceeecb.....",
"....ac.cceeccb.e....",
".....cacceeccacc....",
".....c#cceeccbc.....",
".....##cceecc.c.....",
"......bceeeccacc....",
"......cccc###ca.....",
"......bddcb.........",
".........b..........",
"....................",
"....................",
"....................",
"....................",
"....................",
"....................",
"...............a....",
".......e....beba....",
".......c.baceeeb....",
"....ccc.bcceee......",
"...accbacceeecb.....",
"....ca.ccceecc......",
"....#ccceeecba......",
"....#cceeeccb.e.....",
"...b#ceeeccc.c......",
"....cceecccbac......",
"...bccecca.c........",
"....ddcc##ccc.......",
"......bb.#ca........",
"....................",
"....................",
"....................",
"....................",
"....................",
"....................",
"....................",
"....................",
"....ac.cce.a........",
"....ccca.bbccbeba...",
"....ca.bcccceeeeba..",
"...##cccceeeeee.....",
"..b#ccceeeeeccb.....",
"...ccceeeeccca......",
"..bceeeccccbb.......",
"..dceccccca.........",
"...dcb#ca.bcce......",
"...b..##ccc.........",
".......cac..........",
"....................",
"....................",
"....................",
"....................",
"....................",
"....................",
"....................",
"....................",
"......ac............",
".....cccccce........",
"....##a.ba..........",
"...b#cccccbba.......",
"..bcccccccccccb.....",
"..dceeeeeeeeeeeeba..",
"..dceeeeeeeeeeeeba..",
"..bcccccccccccb.....",
"...b#cccccbba.......",
"....##a.ba..........",
".....cccccce........",
"......ac............",
"....................",
"....................",
"....................",
"....................",
"....................",
"....................",
"....................",
"....................",
".......c.ac.........",
".....b##ccc.........",
"...bc#ca.bcce.......",
"...dcccccca.........",
"..dceeeccccbb.......",
"..bcceeeeeccca......",
"...b#cceeeeeecc.....",
"...#ccccceeeeeb.....",
"....#acccccceeeeb...",
"....cc.babbacbebaa..",
"....acccc...........",
".........ce.........",
"....................",
"....................",
"....................",
"....................",
"....................",
"....................",
"....................",
".....bcb#.ca........",
".....dcc##acc.......",
"...bdceccc.cc.......",
"....cceecccbac......",
"...b#ceeeccc.c......",
"...##cceeeccb.e.....",
"....caccceeecb......",
"....c.ccceeeca......",
"....acbaccceecb.....",
"....ccc.bbceee......",
".......c..aceee.....",
".......e...b.eba....",
"..............ba....",
"....................",
"....................",
"....................",
"....................",
"....................",
"....................",
".......ddbb.........",
"......bccc###ca.....",
"......bceecccacc....",
".....##ceeccc.c.....",
".....#cceeeccbc.....",
".....cacceeeccac....",
"....ac.ccceecb.c....",
"....ccbccceecb.e....",
"......ca.bceeca.....",
"......cc.bceec......",
".......e.aceec......",
"...........ceeb.....",
"...........bee......",
"............bb......",
".............aa.....",
"....................",
"....................",
"....................",
"....................",
"....................",
"........bddb........",
".......bccccb.......",
"......##ceec##......",
".....c#cceecc#c.....",
"....acacceeccaca....",
"....cc.cceecc.cc....",
".....cbcceeccbc.....",
".....cacceeccac.....",
".....c.bceecb.c.....",
".....e.bceecb.e.....",
".......aceeca.......",
"........ceec........",
"........beeb........",
".........ee.........",
".........bb.........",
".........aa.........",
"....................",
"....................",
"....................",
"....................",
".........bbdd.......",
"......c.##cccb......",
".....ac#ccceecb.....",
"....ccacceecc#......",
".....c.cceecc##.....",
".....cbcceeccac.....",
"....c.acceecc.ca....",
"....e.bceeeccbcc....",
".....bceecbcac......",
".....aceecb.cc......",
"......ceeca.e.......",
"......beec..........",
"......eeeb..........",
".....bb.............",
".....aa.............",
"....................",
"....................",
"....................",
"....................",
"....................",
"....................",
"........a.c#.bb.....",
"........cca##ccd....",
".......cc.cccecdb...",
".......cbccceeecc...",
".....ecaccceeec#b...",
"........bceeeccc#...",
".......bcceeccca#...",
"......aceeeccc.cc...",
"......ceeecccbcca...",
".....beeecbbac.c....",
"......eec.a..c......",
"....bbeb...e........",
"....aa..............",
"....................",
"....................",
"....................",
"....................",
"....................",
"....................",
"....................",
"....................",
".........cacc#......",
"..........c.a##b....",
".......cccbcccccb...",
"......e.acccccecd...",
"........bccceeeecd..",
"......abceeeeeeccb..",
".....cceeeeeccc#b...",
".....beeeecccccc#...",
"...beeecccbcc.a#....",
"..abe.b.ab.abccc....",
"...a.......cccca....",
"..........e.........",
"....................",
"....................",
"....................",
"....................",
"....................",
"....................",
"....................",
"....................",
"............ca......",
"........ecccccc.....",
"..........ab.a##....",
".......abbccccc#b...",
".....bcccccccccccb..",
"..abeeeeeeeeeeeecd..",
"..abeeeeeeeeeeeecd..",
".....bcccccccccccb..",
".......abbccccc#b...",
"..........ab.a##....",
"........ecccccc.....",
"............ca......",
"....................",
"....................",
"....................",
"....................",
"....................",
"....................",
"....................",
"....................",
"..........e.........",
"..........ccc.c.....",
"...ab.b.ab.abcca....",
"..abeeecccbcc.ac....",
".....eeeeeccccc##...",
".....bceeeeeeccc#b..",
"......ccceeeeeccc...",
"......abbccceeeecb..",
".........cccccecdd..",
".......ecab.ccccb...",
".........ccca##b....",
".........cacc#......",
"....................",
"....................",
"....................",
"....................",
"....................",
"....................",
"....................",
"....................",
".....ab.............",
"....abeb....e.......",
"......eecca..c......",
".....beeecbbac.c....",
"......ceeecccbcca...",
".......cceeecc.ac...",
"......abceeeccc#c...",
"........bcceeccc#...",
".....ecaccceeec#b...",
".......cb.cceeecb...",
".......ccacccecd....",
"........cc#c#ccd....",
".........ac#.bb.....",
"....................",
"....................",
"....................",
"....................",
"....................",
".....aa.............",
".....bb.............",
"......ee............",
"......eebca.........",
".....beeecb.e.......",
"......ceeecb.c......",
".....acceeccac......",
".....bbceeccbcc.....",
"....e.acceecc.ca....",
"....ccbcceeccac.....",
".....c.cceecc#c.....",
".....ccacceec##.....",
".....ac#cceecb......",
"......c##cccc.......",
".........bcddb......",
"..........b.........",
"....................",
"...................."
};
SIMPLE  =                    T                                                  BITPIX  =                    8                                                  NAXIS   =                    2                                                  NAXIS1  =                   20                                                  NAXIS2  =                  320                                                  HISTORY Written by XV 3.10                                                      END                                                                                                                                                                                                                                                                                                                                                                                                                                                                                                                                                                                                                                                                                                                                                                                                                                                                                                                                                                                                                                                                                                                                                                                                                                                                                                                                                                                                                                                                                                                                                                                                                                                                                                                                                                                                                                                                                                                                                                                                                                                                                                                                                                                                                                                                                                                                                                                                                                                                                                                                               t                  t•WWt            •••••            ]•••»»•t           ••]••»»•          • ••»»•••         ••t••»»••]•         » ]••»»•• •]         tt•»»••t••          ]••»»••]•            •»»»•t •           t»»»•t »             »»t•]               »»                 tt                  ]]                                                                                                                          ]• tt             •••••W           ••]•••»•W           •t ••»»»•t        »•]•••»»»•t           t••»»•••         ]t•»»»••••          ••»»»•• ]•         •»»»•••t••]        t»»»•tt]• •          »»••]  •          ]t»t    »            ]t                                                                                                                                                                                      •]••               •••]t           »•]t ••••t            •••••»•WW        ]tt•••»»»»•t        •••»»»»»•••        t•»»»»»»•••t       »»»»»•••••     ]t»»»•••t•• ]•       ]t t ]t ]t••]              ••• •               »                                                                                                                                                                                     •]              »••••••               ]t ]           ]tt•••••t        t•••••••••••t    ]t»»»»»»»»»»»»•W    ]t»»»»»»»»»»»»•W       t•••••••••••t         ]tt•••••t             ]t ]            »••••••                 •]                                                                                                                                                                                »            ]       ••••]      ]t» t ]t ]t•••       t»»»•••t•• ]         t»»»»••••••        ••»»»»»•••t         ]t•»»»»»»••t          t•••»»»»•W        » ]•••••»•W          •••t•••••t             • ]t             •]••                                                                                                                                                                          ]]                  tt»t   »              »»• ]  •           t»»»•tt]• •          •»»»•••t••]         ]•»»»••• ••          t••»»•••]           t•»»»•••        »•]•••»»»•t          •t•••»»»••          •• •••»•Wt           ••]••W            ] • tt                                                                                                                                  ]]                  tt                   »»»t                t»»•                •»»•] »            ]•»»•t ••           t•»»•t•]•          » t•»»»••t••        • ]••»»•• •]         •t••»»••]•          • ••»»••         ••]••»»••           ]••••»»•t           • •••t               ttWW                                                                                                ]]                  tt                  »»                 t»»t                •»»•               ]•»»•]            » t•»»•t »          • t•»»•t •          •]••»»••]•          •t••»»••t•         •• ••»»•• ••        ]•]••»»••]•]         •••»»•••           •»»•             t••••t               tWWt                                                                                                                         ]]                 tt                 t»»                 •»»t            » ]•»»•            •• t•»»•            •] t•»»•]         ••t•••»»•t »        ]• •••»»•t •         •]••»»»••]•         ••»»»••t•          •»»••• •           t•»»•••]••          t••••]            WWtt                                                                                                                                               t]           »   t »t]           •  ]•»»»         ••• tt•»»»          ]•t]•••»»•t         • •••»»»•]          •]•••»»»•t         ••»»»••t »        t•»»»••• •          ••»»•••t]•         tW•»••• ••            W••]••            t•t •]                                                                                                                                                             •»             ]••••               •• t]tt]•t»t]]      ]••••••»»»»t      •••••»»»»»t        t••»»»»»»••       t••»»»»»•••]        W•»»»••••tt          W••••••]            t••] t••»            t•••                • ]•                                                                                                                                                                               ]•                 ••••••»            ] t]             t•••••tt]         t•••••••••••t       W•»»»»»»»»»»»»t]    W•»»»»»»»»»»»»t]    t•••••••••••t        t•••••tt]           ] t]               ••••••»              ]•                                                                                                                                                                                   •]•             t  •••            W•t•] t••»        W•»•••••]           t•»»»••••tt          •••»»»»•••]        t•••»»»»»••t        ••••»»»»»»         •] t••••»»»»t]      •••] tt••t»t]       ]• ••» ]                                                                                                                                                                              tt •]            WW•••••          t••»••] •            ••»»•••t]•         t•»»»••• •          ••»»»••t »         •••»»»•t]          •] •••»»••         ]••t]••»»»•t         ••• t••»»»             • t]•»»»t           »    t»t]                   ]                                                                                                                                     t                tWW•t               •••••]           t•»»»••]••         ••»»•• •          •••»»••t•          •]••»»••]••        ]• ••»»••t »         ••t••»»»•t           •] t•»»•]            • t•»»•             » ]•»»•                •»»t                 t »»                  tt                  ]]                                                                                             tWWt               t••••t             •»»•           •••»»•••         ]•]••»»••]•]        •• ••»»•• ••         •t••»»••t•          •]••»»••]•          • t•»»•t •          » t•»»•t »            ]•»»•]               •»»•                t»»t                 »»                  tt                  ]]                                                                                                                                                                                                                                                                                                                                                                                                                                                                                                                                                                                                                                                                                                                                                                                                                                                                                                                                                                                                                                                                                                                                                                                                                                                                                                                                                                                                                                                                                                                                                                                                                                                                                                                                                                                                                                                                                                                                                                                                                                                                                                                                                                                                                                                                                                                                                                                 
