/* XPM */
static char *FR[] = {
/* width height ncolors chars_per_pixel */
"20 320 7 1",
/* colors */
"` c None",
"a c #B07000",
"b c #00FF00",
"c c #FFE800",
"d c #7F503F",
"e c #FF0000",
"f c #F19000",
/* pixels */
"````````````````````",
"`````````aa`````````",
"`````````ff`````````",
"````````dffd````````",
"````````acca````````",
"````````fccf````````",
"`````c`dfccfd`c`````",
"`````fdafccfadf`````",
"``````aafccfaa``````",
"``````daaffaad``````",
"``a`````daad`````a``",
"``b`ddaaffffaadd`b``",
"``baafcffccffcfaab``",
"``baffcffccffcffab``",
"``baffffccccffffab``",
"``dafafcceeccfafad``",
"``baaadd````ddaaab``",
"``b``````````````b``",
"``d``````````````d``",
"````````````````````",
"`````````````aa`````",
"`````````````ff`````",
"````````````dff`````",
"````````c``faccd````",
"```````f`dfccfa`````",
"````````dafccf``````",
"```a````aafccfd`````",
"```b`d``daaccfadc```",
"```baada`daffaaaf```",
"``baffcaffad`ad`````",
"`dbaffcffcffa```````",
"`bafaffffccffad``a``",
"`baaafcfcccffcfd`b``",
"`d```ddceeccfcfaab``",
"`````````ccffffab```",
"``````````ddaffab```",
"````````````aaad````",
"``````````````ab````",
"```````````````b````",
"``````````````d`````",
"````````````````````",
"`````````````````a``",
"```````````c```adfa`",
"`````ba```fdd`fcff``",
"````bb`d``aaafcccfd`",
"```baaad`daffccca```",
"```dafffa``acccff```",
"``baaffccafdffffd```",
"db`afafffffaaaaadc``",
"````adfffccffdaa`f``",
"`````dcccccfa`d`````",
"```````cecfffa``````",
"````````ecfccdd`````",
"`````````ccfffa``a``",
"`````````ddfffaab```",
"``````````aafabb````",
"```````````afab`````",
"```````````abd``````",
"````````````b```````",
"```````````d````````",
"````````````````````",
"```````a````````````",
"````bbb`````c```````",
"``bdbaa````fd```````",
"dbaaafad```aad`ad`a`",
"``affffd`daafffcffa`",
"```aafcca`dafccccff`",
"```dffffafafccccad``",
"```dcfffcfafcfff````",
"`````cccccfdafad````",
"`````eccfff`aad`````",
"`````eccffa`dafc````",
"``````dcfcca````````",
"``````dffffd````````",
"``````aaffad````````",
"```````affaa`a``````",
"```````aaabbb```````",
"```````bdb``````````",
"``````db````````````",
"````````````````````",
"````````````````````",
"````````````````````",
"`dbbdbbbba``````````",
"```aaaaa````````````",
"```afffad```````````",
"```aafffd```fc``````",
"```dffcca`dad```````",
"```dcfffa`aaad``````",
"````ccfffdaffffad```",
"````ecccfafcccccffa`",
"````ecccfafcccccffa`",
"````ccfffdaffffad```",
"```dcfffa`aaad``````",
"```dffcca`dad```````",
"```aafffd```fc``````",
"```afffad```````````",
"```aaaaa````````````",
"`dbbdbbbba``````````",
"````````````````````",
"````````````````````",
"````````````````````",
"``````db````````````",
"```````bd```````````",
"```````aabbb````````",
"``````aafaaaba``````",
"``````dafffa````````",
"``````dffffdd```````",
"``````cfcca`````````",
"``````ccffa`dafc````",
"`````eecfff`aad`````",
"`````cccccfdafad````",
"````dccfcfaafcff````",
"```dfffffdfccccfad``",
"```aafcfa`affccccf``",
"``affffca`aaaffcfffa",
"dbaaafafd`dadd`ad`a`",
"``bdbaad````f```````",
"````bb``````c```````",
"``````ba````````````",
"````````````````````",
"```````````d````````",
"````````````b```````",
"````````````bd``````",
"```````````aaab`````",
"`````````daffabb````",
"`````````dfaffaab```",
"`````````ccfcfad`a``",
"````````ecffcfd`````",
"```````cecfffa``````",
"````ddcccccfa`d`````",
"````affffccfdaaa`f``",
"`d`aaafcffffaffad`c`",
"`bbafffcfadafcfad```",
"```daaffa``afccff```",
"```bbaad`daafccca```",
"`````b`d``adafcccd``",
"`````b````f`dfacff``",
"``````a````c```dffa`",
"``````````````````a`",
"````````````````````",
"``````````````db````",
"``````````````ab````",
"`````````````afad```",
"``````````ddaafab```",
"``````````cffffab```",
"`d```dd`eecffcfaab``",
"`baaafcccccffcfd`b``",
"`bafaffccccfaad``a``",
"``daffcffcfff```````",
"``baffcfffaadad`````",
"``baafaa`dffaaa`````",
"```b`dd`daaccfadf```",
"```b````aafccfd`c```",
"```a````dafccf``````",
"````````f`dfccf`````",
"````````c``fcca`````",
"```````````affd`````",
"````````````dff`````",
"`````````````aa`````",
"````````````````````",
"````````````````````",
"``d``````````````d``",
"``b``````````````b``",
"``baaadd````ddaaab``",
"``dafafcceeccfafad``",
"``baffffccccffffab``",
"``baffcffccffcffab``",
"``baafcffccffcfaab``",
"``b`ddaaffffaadd`b``",
"``a`````daad`````a``",
"``````daaffaad``````",
"``````aafccfaa``````",
"`````fdafccfadf`````",
"`````c`dfccfd`c`````",
"````````fccf````````",
"````````acca````````",
"````````dffd````````",
"`````````ff`````````",
"`````````aa`````````",
"````````````````````",
"````d```````````````",
"````b```````````````",
"```b````````````````",
"```daa``````````````",
"``baafadd```````````",
"``baffafc```````````",
"``baffffccee`d````d`",
"`b`afcffcccccdaa`b``",
"`a`ddcffccffffafab``",
"`````aafccffcffaad``",
"````d``dffffcffab```",
"````aaafaadaafaab```",
"``fdafcfaa``dd`b````",
"``c`afccfad````b````",
"````dfccfaa````a````",
"`````fccfddf````````",
"````acccf``c````````",
"```dffa`````````````",
"````ffd`````````````",
"````aa``````````````",
"````````d```````````",
"````````b```````````",
"``````db````````````",
"`````bbaaa``````````",
"````baafaa``````````",
"```b`affffdd````````",
"```a`dafcfcc````````",
"`````dfcffce````````",
"``````aaffcce```````",
"```````ffcccccd`````",
"``cfadadffcfcffda``d",
"````dafaaafffcfafa`b",
"```dafcffdafcfffaab`",
"````fcccfa`adffaad``",
"```fcccfaa``daabb```",
"``daccfdaad```bb````",
"``ffcf``d````a``````",
"`affda``cf``````````",
"``a`````````````````",
"````````````````````",
"``````````````d`````",
"`````````````b``````",
"``````````dba```````",
"````````bbbafa``````",
"``````abaaafaa``````",
"````````affffd``````",
"````````dfccfcd`````",
"````````dafffc``````",
"```cf`d``affce``````",
"`````daaadfccce`````",
"````daaffafcccc`````",
"````ffccfafffccd````",
"``dafccccadfffffd```",
"``fcccfffa`accfaa```",
"affcafdaad`affffaa`d",
"`afd````da``daffadbb",
"```````cf```daaab```",
"`````````````bb`````",
"````````````ab``````",
"````````````````````",
"````````````````````",
"````````````````````",
"``````````abbbbdbbd`",
"````````````aaaaa```",
"```````````dafffa```",
"``````cf```dfffaa```",
"```````dad`accffd```",
"``````daaa`afffcd```",
"```daffffadfffcc````",
"`affcccccfafccce````",
"`affcccccfafccce````",
"```daffffadfffcc````",
"``````daaa`afffcd```",
"```````dad`accffd```",
"``````cf```dfffaa```",
"```````````dafffa```",
"````````````aaaaa```",
"``````````abbbbdbbd`",
"````````````````````",
"````````````````````",
"````````````````````",
"````````````a```````",
"`````````````bb`````",
"```````cf`````abbd``",
"```d```da``ddaaaabb`",
"aaffafdaad`afffffa`d",
"`ffcccfffa`accfaaa``",
"``dacccccadfffffd```",
"````ffccffaffffcd```",
"````dffaafccccc`````",
"`````aaadffccce`````",
"````cdad`affce``````",
"`````f```acffc``````",
"`````````dfcfcd`````",
"```````daffffd``````",
"``````a`aaffaa``````",
"```````bbbaaa```````",
"``````````bda```````",
"````````````bbd`````",
"````````````````````",
"````````````````````",
"`a`d````````````````",
"`affa```c```````````",
"`ffcf`ddf```ab``````",
"`daccffaad````b`````",
"``fcccfaa``daabb````",
"```fcccad`adffaad```",
"```dffcfafaccfffabb`",
"`cdaaafaffffffaaa`d`",
"``fadadffcfcffda````",
"``````afcccccd``````",
"`````acffcce````````",
"````dfcfcce`````````",
"``a`dafffc``````````",
"```baafffdd`````````",
"```bbafaa```````````",
"`````bafa```````````",
"`````da`````````````",
"``````bb````````````",
"````````d```````````",
"````aa``````````````",
"````ff``````````````",
"````ffd`````````````",
"````dcca`d`c````````",
"````accffadf````````",
"````fcccfaa`````````",
"````dfcccfad```a````",
"``cdaffffa```d`b````",
"``faaaaaadaadaab````",
"````d``dffffcffab```",
"`````aafccffcffabd``",
"```ddcffccfffffaab``",
"`a`aafcffccccfaa``b`",
"`bbaffffceecdda```d`",
"``bafffcc```````````",
"```bafadd```````````",
"```daaa`````````````",
"```b````````````````",
"````b```````````````",
"````d```````````````"
};
