#define JS_width 20
#define JS_height 20
static unsigned char JS_bits[] = {
   0x00, 0x00, 0x00, 0x00, 0x02, 0x00, 0x00, 0x05, 0x00, 0x00, 0x05, 0x00,
   0x80, 0x0f, 0x00, 0xe0, 0x3f, 0x00, 0xe0, 0x38, 0x00, 0xf0, 0x7d, 0x00,
   0xbc, 0xef, 0x01, 0x32, 0x67, 0x02, 0xbc, 0xef, 0x01, 0xf0, 0x7d, 0x00,
   0xe0, 0x38, 0x00, 0xe0, 0x3f, 0x00, 0x80, 0x0f, 0x00, 0x00, 0x05, 0x00,
   0x00, 0x05, 0x00, 0x00, 0x02, 0x00, 0x00, 0x00, 0x00, 0x00, 0x00, 0x00};
