/* XPM */
static char *PT[] = {
/* width height num_colors chars_per_pixel */
"    20   320        7            1",
/* colors */
". c None",
"# c #00ff00",
"a c #7f503f",
"b c #b07000",
"c c #f19000",
"d c #ff0000",
"e c #ffe800",
/* pixels */
"....................",
"....................",
"....................",
".........aa.........",
".........bb.........",
".........cc.........",
"........acca........",
"........beeb........",
".....c..ceec..c.....",
".....a..ceec..a.....",
".....bbcceeccbb.....",
".....bb#ceec#bb.....",
".....ab##ee##ba.....",
"......ac#cc#ca......",
"........bbbb........",
".........dd.........",
"....................",
"....................",
"....................",
"....................",
"....................",
"....................",
"....................",
"....................",
"............aa......",
"............bb......",
".........acc........",
"......c..bcca.......",
"......a..ceeb.......",
".....bb..ceec.......",
".....bbcceeec.......",
"....ab#ceecc..c.....",
".....a##eec#bba.....",
"......c#ce##bb......",
".......bbc#cba......",
".......ddbb.a.......",
"....................",
"....................",
"....................",
"....................",
"....................",
"....................",
"....................",
"....................",
"....................",
"......c.....ba......",
"......a...accba.....",
"....bb..cbecc.......",
"....abbcceeea.......",
"....ab#cceecb.......",
"....c##eeec.........",
".....#ceecc..c......",
"....bbce##c.a.......",
".....db#c#bbb.......",
".....db.abb.........",
"..........a.........",
"....................",
"....................",
"....................",
"....................",
"....................",
"....................",
"....................",
"....................",
"....................",
"......bac...........",
"....abb...ba.ba.....",
"....abbcccceccba....",
"....c##ceeeecc......",
"....##eeeeeba.......",
"....bcceeccc........",
"...dbb##cc..........",
"...d.bc##b..........",
".......abbbac.......",
"........ab..........",
"....................",
"....................",
"....................",
"....................",
"....................",
"....................",
"....................",
"....................",
"....................",
"....................",
".......abbac........",
"......abbb..........",
"......c##c..........",
".....b##ccccba......",
"....dbceeeeeeccba...",
"....dbceeeeeeccba...",
".....b##ccccba......",
"......c##c..........",
"......abbb..........",
".......abbac........",
"....................",
"....................",
"....................",
"....................",
"....................",
"....................",
"....................",
"....................",
"....................",
"........ab..........",
"......abbbac........",
".....bc##b..........",
"...ddb##cc..........",
"....bcceeccc........",
"....b#eeeeeeba......",
"....c#cceeeec.......",
"....a##cccbcccba....",
".....bbb...a.ba.....",
".....abb............",
"........ac..........",
"....................",
"....................",
"....................",
"....................",
"....................",
"....................",
"....................",
"....................",
"....................",
"..........a.........",
"......db.cbab.......",
"......db###bbb......",
".....bbcec#c.a......",
"......#ceecc..c.....",
".....ac#ceeec.......",
".....b##ceeeb.......",
".....abbccceea......",
".....bb...becc......",
".......a...accb.....",
".......c.....ba.....",
"..............a.....",
"....................",
"....................",
"....................",
"....................",
"....................",
"....................",
"....................",
"....................",
".......dd..ca.......",
".......bbb##ba......",
"......bcce##bb......",
".....ac#eeeccbb.....",
".....b##ceec..a.....",
"....ab#cceec..c.....",
".....bb..ceec.......",
".....ba..ceeb.......",
"......c..bcca.......",
"..........acc.......",
"...........bb.......",
"...........aa.......",
"....................",
"....................",
"....................",
"....................",
"....................",
"....................",
"....................",
"....................",
".........dd.........",
"........bbbb........",
"......ac#cc#ca......",
".....ab##ee##ba.....",
".....bb#ceec#bb.....",
".....bbcceeccbb.....",
".....a..ceec..a.....",
".....c..ceec..c.....",
"........beeb........",
"........acca........",
".........cc.........",
".........bb.........",
".........aa.........",
"....................",
"....................",
"....................",
"....................",
"....................",
"....................",
"....................",
"..........b.dd......",
"......aac#bbb.......",
"......bb##cc#.......",
"......bb#cee#ca.....",
".....a.bcceec#b.....",
".....c..ceeec#ba....",
".......ceec.cbb.....",
".......beec..ab.....",
".......aceb..c......",
"........cca.........",
".......bbc..........",
"......aa............",
"....................",
"....................",
"....................",
"....................",
"....................",
"....................",
"....................",
"....................",
"..........a.........",
".......babc.bd......",
".......bb###cbd.....",
".....cabcc#ecb......",
".........ceee#b.....",
"........cceec#ca....",
".......beeec##b.....",
"......aceecccbba....",
"......cceb..bb......",
"......bca....a......",
"....aab....c........",
"....................",
"....................",
"....................",
"....................",
"....................",
"....................",
"....................",
"....................",
"....................",
"...........aba......",
"........abbb#c......",
".......c.bc###bd....",
"..........cccecbd...",
".........ceeeecb....",
"......abeeeee##b....",
".......cceeccc#c....",
"....abccabc.c#ba....",
"....ab......bba.....",
"............abb.....",
"...........c........",
"....................",
"....................",
"....................",
"....................",
"....................",
"....................",
"....................",
"....................",
"....................",
"....................",
"........cabba.......",
"..........bbba......",
"..........c##c......",
"......abcccc##b.....",
"...abcceeeeeecbd....",
"...abcceeeeeecbd....",
"......abcccc##b.....",
"..........c##c......",
"..........bbba......",
"........cabba.......",
"....................",
"....................",
"....................",
"....................",
"....................",
"....................",
"....................",
"....................",
"....................",
"....................",
"...........c........",
"...........abb......",
".....a......bba.....",
"....abbcabc.c#ba....",
"......ccceeccc#c....",
".......aeeeeee##....",
".......bcceeeecb....",
"..........cc#cbbd...",
"..........c###bd....",
"........cabbbc......",
"..........bbaa......",
"....................",
"....................",
"....................",
"....................",
"....................",
"....................",
"....................",
"....................",
"....................",
"......a.............",
".....ab.....c.......",
"......bcab...a......",
"......ccec..bb......",
"......aceecccbba....",
".......bceeec#ba....",
"........ceee##c.....",
".........ccee#b.....",
".....cabc##ecb......",
".......bbb##cbd.....",
".......baacb.d......",
"....................",
"....................",
"....................",
"....................",
"....................",
"....................",
"....................",
"....................",
"......aa............",
".......bb...........",
".......cc.a.........",
".......cceb..c......",
".......aeeec..a.....",
".......bceeccbb.....",
"........ceec#bb.....",
".....c.bcceec#ba....",
".....abb#cee#ca.....",
"......bb##cc#.......",
".......aac#bbb......",
"..........bdd.......",
"....................",
"....................",
"....................",
"...................."
};
SIMPLE  =                    T                                                  BITPIX  =                    8                                                  NAXIS   =                    2                                                  NAXIS1  =                   20                                                  NAXIS2  =                  320                                                  HISTORY Written by XV 3.10                                                      END                                                                                                                                                                                                                                                                                                                                                                                                                                                                                                                                                                                                                                                                                                                                                                                                                                                                                                                                                                                                                                                                                                                                                                                                                                                                                                                                                                                                                                                                                                                                                                                                                                                                                                                                                                                                                                                                                                                                                                                                                                                                                                                                                                                                                                                                                                                                                                                                                                                                                                                                                                                       tWW              ]]•ttt            tt••            ]tt•»»•]          • t••»»•t]            •»»•tt            t•»»••tt            ]»»»•  ]            ••»t  •             •• ]                tt                 ]]                                                                                                                                                                                   t]]•t W             ttt•tW          •]t•»•t               ••»»t             •»»»•            t•»»»•t]          ]•»»•••tt]          ••»•  tt            t•]t   ]           ]t     •             ]                                                                                                                                                                                                           tt]]              •]ttt•                •tW              •••ttW          t••»»»»•t           ]»»»»»»          •••»»••••        ]tt•]t• •t]         ]      tt]                ]tt                 •                                                                                                                                                                                                                        •]tt]                 ttt]                ••            ]t••••t        ]t••»»»»»»•tW       ]t••»»»»»»•tW          ]t••••t               ••                ttt]              •]tt]                                                                                                                                                                                                                          •                    ]tt         ]t      tt]         ]t••]t• •t]           ••»»••••          ]t»»»»»t             •»»»»•t              •••»•tW          • t•tW            ]ttt•                 ]t]                                                                                                                                                                                              ]]t    •              t•]    ]            ••»t  tt            ]•»»•••tt]           t»»»•t             ••»»••]             •»»»t          •]t••»•t             tt•tW            t]t• tW                ]                                                                                                                                                                               ]]                   tt•                  ••]                ]•»t  •             t»»•  ]t            •»»• •tt          •  •»»»•t]         ] t••»»•t           tt•»»•]           tt••             ]]•ttt                 t WW                                                                                                                                                           ]]                  tt                  ••                 ]••]                t»»t             •  •»»•  •          ]  •»»•  ]          tt••»»••tt          tt•»»•tt          ]t»»t]           ]••••]              tttt                 WW                                                                                                                                                                                    ]]                  tt                 ]••             •  t••]            t]  •»»t            tt  •»»•           ]t••»»•  •          t•»»•  ]          ]•»»»••tt           t••»tt             tttt]             WW  •]                                                                                                                                                                                     ]            •     t]            ]   ]••t          tt   t»••           ]tt•••»»]           t•»»»t            ]••»»»•             •»»••  •          tt•»•• ]            Wtttt            Wt •t]t                 ]                                                                                                                                                                                                     ]•               ]tt                 ttt   ] t]         ]•••t•••t]        •••»»»»•           t»»»»»»t]          t••»»•••           WWt••               t•t                ]ttt]•                ]t                                                                                                                                                                                                     ]tt]•              ]ttt                ••               t••••t]          Wt•»»»»»»••t]       Wt•»»»»»»••t]        t••••t]            ••                ]ttt                 ]tt]•                                                                                                                                                                                                                        ]t                 ]ttt]•          W t•t             Wtt••              t••»»•••            »»»»»t]           ••»»»»••          ]tt••••»••t]        ]tt   t] t]           t]•                                                                                                                                                                                                         ]              Wt ]tt              Wt•ttt           tt•»• ]            •»»••  •          •»»»•             ]t••»»•t           ]tt••»»»]           tt  •t»••             ]   ]••t]           •     t]                                                                                                                                                                                                 WWtt ]              tt••t]            ••»tt           ]»»•tt]         ]t•»»••  •          tt••»»»•            tt  •»»•             ]  •»»t             •  t••]                ]••                    tt                  ]]                                                                                                                                                                               WW                 tttt              ]••••]           ]t»»t]          tt•»»•tt          tt••»»••tt          ]  •»»•  ]          •  •»»•  •             t»»t                ]••]                 ••                  tt                  ]]                                                                                                                                                                                                                                                                                                                                                                                                                                                                                                                                                                                                                                                                                                                                                                                                                                                                                                                                                                                                                                                                                                                                                                                                                                                                                                                                                                                                                                                                                                                                                                                                                                                                                                                                                                                                                                                                                                                                                                                                                                                                                                                                                                                                                                                                                                                                                                                                     
