#define puck_width 20
#define puck_height 20
static char puck_bits[] = {
   0x00, 0x00, 0x00, 0x00, 0x00, 0x00, 0x00, 0x00, 0x00, 0x00, 0x00, 0x00,
   0x00, 0x07, 0x00, 0xc0, 0x1f, 0x00, 0xe0, 0x3f, 0x00, 0xe0, 0x3f, 0x00,
   0xf0, 0x7f, 0x00, 0xf0, 0x7f, 0x00, 0xf0, 0x7f, 0x00, 0xe0, 0x3f, 0x00,
   0xe0, 0x3f, 0x00, 0xc0, 0x1f, 0x00, 0x00, 0x07, 0x00, 0x00, 0x00, 0x00,
   0x00, 0x00, 0x00, 0x00, 0x00, 0x00, 0x00, 0x00, 0x00, 0x00, 0x00, 0x00};
