/* XPM */
static char * SBnew_xpm[] = {
"20 20 8 1",
".	c None",
"N	c #000000",
"+	c #00FF00",
"@	c #FF0000",
"#	c #007FEF",
"$	c #FFE800",
"%	c #B07000",
"&	c #7F503F",
"....................",
"....................",
".........@@.........",
"........&%%&........",
".......&%%%%&.......",
"......&$$$$$$&......",
".....&$$N++N$$&.....",
"....&$$##NN##$$&....",
"...&%$N##$$##N$%&...",
"..@%%$+N$$$$N+$%%@..",
"..@%%$+N$$$$N+$%%@..",
"...&%$N##$$##N$%&...",
"....&$$##NN##$$&....",
".....&$$N++N$%&.....",
"......&$$$$$$&......",
".......&%%%%&.......",
"........&%%&........",
".........@@.........",
"....................",
"...................."};
