#define WB_width 20
#define WB_height 20
static unsigned char WB_bits[] = {
   0x00, 0x0f, 0x00, 0xe0, 0x7f, 0x00, 0xf0, 0xff, 0x00, 0xf8, 0xff, 0x01,
   0xec, 0x79, 0x03, 0x7e, 0xe6, 0x07, 0xfe, 0xf6, 0x07, 0xde, 0xb9, 0x07,
   0x9f, 0x9f, 0x0f, 0x6f, 0x6f, 0x0f, 0x6f, 0x6f, 0x0f, 0x9f, 0x9f, 0x0f,
   0xde, 0xb9, 0x07, 0xfe, 0xf6, 0x07, 0x7e, 0xe6, 0x07, 0xec, 0x79, 0x03,
   0xf8, 0xff, 0x01, 0xf0, 0xff, 0x00, 0xe0, 0x7f, 0x00, 0x00, 0x0f, 0x00};
