#define ind_scout_width 20
#define ind_scout_height 320
static char ind_scout_bits[] = {
	0x00, 0x00, 0x00, 0x00, 0x00, 0x00, 0x00, 0x00, 0x00, 0x00, 0x00, 0x00,
	0x00, 0x00, 0x00, 0x80, 0x10, 0x00, 0x00, 0x0f, 0x00, 0x00, 0x09, 0x00,
	0x00, 0x06, 0x00, 0x00, 0x06, 0x00, 0x00, 0x06, 0x00, 0x00, 0x06, 0x00,
	0x00, 0x0f, 0x00, 0x00, 0x09, 0x00, 0x00, 0x09, 0x00, 0x00, 0x09, 0x00,
0x00, 0x00, 0x00, 0x00, 0x00, 0x00, 0x00, 0x00, 0x00, 0x00, 0x00, 0x00,
    0x00, 0x00, 0x00, 0x00, 0x00, 0x00, 0x00, 0x00, 0x00, 0x00, 0x00, 0x00, 0x00, 0x04, 0x00,
    0x00, 0x04, 0x00, 0x00, 0x0c, 0x00, 0x00, 0x54, 0x00, 0x00, 0x3c, 0x00, 0x00, 0x06, 0x00,
    0x00, 0x06, 0x00, 0xc0, 0x03, 0x00, 0x40, 0x03, 0x00, 0x60, 0x02, 0x00, 0x20, 0x03, 0x00,
0x00, 0x01, 0x00, 0x00, 0x01, 0x00, 0x00, 0x00, 0x00, 0x00, 0x00, 0x00, 0x00, 0x00, 0x00,
    0x00, 0x00, 0x00, 0x00, 0x00, 0x00, 0x00, 0x00, 0x00, 0x00, 0x00, 0x00, 0x00, 0x00, 0x00,
    0x00, 0x04, 0x00, 0x00, 0x04, 0x00, 0x00, 0x1c, 0x00, 0x00, 0x14, 0x00, 0x00, 0x7e, 0x00,
    0x00, 0x07, 0x00, 0xe0, 0x03, 0x00, 0x30, 0x01, 0x00, 0x18, 0x01, 0x00, 0x80, 0x01, 0x00,
0xc0, 0x00, 0x00, 0x40, 0x00, 0x00, 0x00, 0x00, 0x00, 0x00, 0x00, 0x00, 0x00, 0x00, 0x00,
    0x00, 0x00, 0x00, 0x00, 0x00, 0x00, 0x00, 0x00, 0x00, 0x00, 0x00, 0x00, 0x00, 0x00, 0x00,
    0x00, 0x20, 0x00, 0x00, 0x10, 0x00, 0x00, 0x30, 0x00, 0x00, 0x50, 0x00, 0x00, 0xfc, 0x01,
    0xc0, 0x0f, 0x00, 0x70, 0x03, 0x00, 0x00, 0x02, 0x00, 0x80, 0x03, 0x00, 0xc0, 0x00, 0x00,
0x00, 0x00, 0x00, 0x00, 0x00, 0x00, 0x00, 0x00, 0x00, 0x00, 0x00, 0x00, 0x00, 0x00, 0x00,
    0x00, 0x00, 0x00, 0x00, 0x00, 0x00, 0x00, 0x00, 0x00, 0x00, 0x00, 0x00, 0x00, 0x00, 0x00,
    0x00, 0x00, 0x00, 0x00, 0x00, 0x00, 0x00, 0x80, 0x00, 0xe0, 0x61, 0x00, 0x00, 0x5f, 0x00,
    0x00, 0x5f, 0x00, 0xe0, 0x61, 0x00, 0x00, 0x80, 0x00, 0x00, 0x00, 0x00, 0x00, 0x00, 0x00,
0x00, 0x00, 0x00, 0x00, 0x00, 0x00, 0x00, 0x00, 0x00, 0x00, 0x00, 0x00, 0x00, 0x00, 0x00,
    0x00, 0x00, 0x00, 0x00, 0x00, 0x00, 0x00, 0x00, 0x00, 0x00, 0x00, 0x00, 0x00, 0x00, 0x00,
    0xc0, 0x00, 0x00, 0x80, 0x03, 0x00, 0x00, 0x02, 0x00, 0x70, 0x03, 0x00, 0xc0, 0x0f, 0x00,
    0x00, 0xfc, 0x01, 0x00, 0x50, 0x00, 0x00, 0x30, 0x00, 0x00, 0x10, 0x00, 0x00, 0x20, 0x00,
0x00, 0x00, 0x00, 0x00, 0x00, 0x00, 0x00, 0x00, 0x00, 0x00, 0x00, 0x00, 0x00, 0x00, 0x00,
    0x00, 0x00, 0x00, 0x00, 0x00, 0x00, 0x00, 0x00, 0x00, 0x00, 0x00, 0x00, 0x80, 0x00, 0x00,
    0x80, 0x01, 0x00, 0x00, 0x03, 0x00, 0x30, 0x02, 0x00, 0x60, 0x02, 0x00, 0xc0, 0x07, 0x00,
    0x00, 0x0e, 0x00, 0x00, 0xfc, 0x00, 0x00, 0x28, 0x00, 0x00, 0x38, 0x00, 0x00, 0x08, 0x00,
0x00, 0x08, 0x00, 0x00, 0x00, 0x00, 0x00, 0x00, 0x00, 0x00, 0x00, 0x00, 0x00, 0x00, 0x00,
    0x00, 0x00, 0x00, 0x00, 0x00, 0x00, 0x00, 0x00, 0x00, 0x00, 0x00, 0x00, 0x00, 0x02, 0x00,
    0x00, 0x02, 0x00, 0x40, 0x06, 0x00, 0xc0, 0x04, 0x00, 0x80, 0x06, 0x00, 0x80, 0x07, 0x00,
    0x00, 0x0c, 0x00, 0x00, 0x0c, 0x00, 0x00, 0x78, 0x00, 0x00, 0xa8, 0x00, 0x00, 0x18, 0x00,
0x00, 0x08, 0x00, 0x00, 0x08, 0x00, 0x00, 0x00, 0x00, 0x00, 0x00, 0x00, 0x00, 0x00, 0x00,
    0x00, 0x00, 0x00, 0x00, 0x00, 0x00, 0x00, 0x00, 0x00, 0x00, 0x00, 0x00, 0x00, 0x00, 0x00,
    0x00, 0x12, 0x00, 0x00, 0x12, 0x00, 0x00, 0x12, 0x00, 0x00, 0x1e, 0x00, 0x00, 0x0c, 0x00,
    0x00, 0x0c, 0x00, 0x00, 0x0c, 0x00, 0x00, 0x0c, 0x00, 0x00, 0x12, 0x00, 0x00, 0x1e, 0x00,
0x00, 0x21, 0x00, 0x00, 0x00, 0x00, 0x00, 0x00, 0x00, 0x00, 0x00, 0x00, 0x00, 0x00, 0x00,
    0x00, 0x00, 0x00, 0x00, 0x00, 0x00, 0x00, 0x00, 0x00, 0x00, 0x00, 0x00, 0x00, 0x10, 0x00,
    0x00, 0x10, 0x00, 0x00, 0x98, 0x00, 0x00, 0xc8, 0x00, 0x00, 0x58, 0x00, 0x00, 0x78, 0x00,
    0x00, 0x0c, 0x00, 0x00, 0x0c, 0x00, 0x80, 0x07, 0x00, 0x40, 0x05, 0x00, 0x00, 0x06, 0x00,
0x00, 0x04, 0x00, 0x00, 0x04, 0x00, 0x00, 0x00, 0x00, 0x00, 0x00, 0x00, 0x00, 0x00, 0x00,
    0x00, 0x00, 0x00, 0x00, 0x00, 0x00, 0x00, 0x00, 0x00, 0x00, 0x00, 0x00, 0x00, 0x20, 0x00,
    0x00, 0x30, 0x00, 0x00, 0x18, 0x00, 0x00, 0x88, 0x01, 0x00, 0xc8, 0x00, 0x00, 0x7c, 0x00,
    0x00, 0x0e, 0x00, 0xe0, 0x07, 0x00, 0x80, 0x02, 0x00, 0x80, 0x03, 0x00, 0x00, 0x02, 0x00,
0x00, 0x02, 0x00, 0x00, 0x00, 0x00, 0x00, 0x00, 0x00, 0x00, 0x00, 0x00, 0x00, 0x00, 0x00,
    0x00, 0x00, 0x00, 0x00, 0x00, 0x00, 0x00, 0x00, 0x00, 0x00, 0x00, 0x00, 0x00, 0x00, 0x00,
    0x00, 0x00, 0x00, 0x00, 0x60, 0x00, 0x00, 0x38, 0x00, 0x00, 0x08, 0x00, 0x00, 0xd8, 0x01,
    0x00, 0x7e, 0x00, 0xf0, 0x07, 0x00, 0x40, 0x01, 0x00, 0x80, 0x01, 0x00, 0x00, 0x01, 0x00,
0x80, 0x00, 0x00, 0x00, 0x00, 0x00, 0x00, 0x00, 0x00, 0x00, 0x00, 0x00, 0x00, 0x00, 0x00,
    0x00, 0x00, 0x00, 0x00, 0x00, 0x00, 0x00, 0x00, 0x00, 0x00, 0x00, 0x00, 0x00, 0x00, 0x00,
    0x00, 0x00, 0x00, 0x00, 0x00, 0x00, 0x00, 0x00, 0x00, 0x20, 0x00, 0x00, 0xc0, 0xf0, 0x00,
    0x40, 0x1f, 0x00, 0x40, 0x1f, 0x00, 0xc0, 0xf0, 0x00, 0x20, 0x00, 0x00, 0x00, 0x00, 0x00,
0x00, 0x00, 0x00, 0x00, 0x00, 0x00, 0x00, 0x00, 0x00, 0x00, 0x00, 0x00, 0x00, 0x00, 0x00,
    0x00, 0x00, 0x00, 0x00, 0x00, 0x00, 0x00, 0x00, 0x00, 0x00, 0x00, 0x00, 0x00, 0x00, 0x00,
    0x00, 0x00, 0x00, 0x80, 0x00, 0x00, 0x00, 0x01, 0x00, 0x80, 0x01, 0x00, 0x40, 0x01, 0x00,
    0xf0, 0x07, 0x00, 0x00, 0x7e, 0x00, 0x00, 0xd8, 0x01, 0x00, 0x08, 0x00, 0x00, 0x38, 0x00,
0x00, 0x60, 0x00, 0x00, 0x00, 0x00, 0x00, 0x00, 0x00, 0x00, 0x00, 0x00, 0x00, 0x00, 0x00,
    0x00, 0x00, 0x00, 0x00, 0x00, 0x00, 0x00, 0x00, 0x00, 0x00, 0x00, 0x00,
    0x00, 0x00, 0x00, 0x00, 0x02, 0x00, 0x00, 0x02, 0x00, 0x80, 0x03, 0x00,
    0x80, 0x02, 0x00, 0xe0, 0x07, 0x00, 0x00, 0x0e, 0x00, 0x00, 0x7c, 0x00,
    0x00, 0xc8, 0x00, 0x00, 0x88, 0x01, 0x00, 0x18, 0x00, 0x00, 0x30, 0x00,
0x00, 0x20, 0x00, 0x00, 0x00, 0x00, 0x00, 0x00, 0x00, 0x00, 0x00, 0x00,
    0x00, 0x00, 0x00, 0x00, 0x00, 0x00, 0x00, 0x00, 0x00, 0x00, 0x00, 0x00,
    0x00, 0x02, 0x00, 0x00, 0x02, 0x00, 0x00, 0x03, 0x00, 0xa0, 0x02, 0x00,
    0xc0, 0x03, 0x00, 0x00, 0x06, 0x00, 0x00, 0x06, 0x00, 0x00, 0x3c, 0x00,
    0x00, 0x2c, 0x00, 0x00, 0x64, 0x00, 0x00, 0x4c, 0x00, 0x00, 0x08, 0x00,
0x00, 0x08, 0x00, 0x00, 0x00, 0x00, 0x00, 0x00, 0x00, 0x00, 0x00, 0x00};
