/* XPM */
static char *UT[] = {
/* width height ncolors chars_per_pixel */
"20 320 7 1",
/* colors */
"` c None",
"b c #B07000",
"c c #00FF00",
"d c #FFE800",
"e c #7F503F",
"f c #FF0000",
"g c #F19000",
/* pixels */
"`````````bb`````````",
"`````````gg`````````",
"`````````gg`````````",
"````````egge````````",
"````````bggb````````",
"```````ebggbe```````",
"```````bg``gb```````",
"```````bggggb```````",
"``````ebggggbe``````",
"`````ebggddggbe`````",
"`````bggddddggb`````",
"`````gggddddggg`````",
"````bgggddddgggb````",
"````bcgddddddgcb````",
"````bcgddbbddgcb````",
"````bcg`ebbe`gcb````",
"````bcg`ebbe`gcb````",
"````bbg``ee``gbb````",
"````ebb``ff``bbe````",
"````eeee````eeee````",
"````````````bb``````",
"````````````gg``````",
"````````````gg``````",
"```````````egg``````",
"`````````ebbgge`````",
"````````bgggbb``````",
"````````bg``ge``````",
"``````eebggggb``````",
"`````bgbgggggb``````",
"````bgggddddgbe`````",
"```bgggddddggb``````",
"```bcggddddggbe`````",
"``bccgdddddggg``````",
"``bcg`ddbdddgg``````",
"``bbg`ebbbddgcb`````",
"`ebg`ebbe`ggcb``````",
"`eeb``eee`gcbb``````",
"```ee`ff``gcb```````",
"``````````bbb```````",
"`````````eebe```````",
"````````````````````",
"````````````````````",
"```````````````gbb``",
"`````````````begg```",
"``````````bebggg````",
"```````eebbg`ggge```",
"````bgbbgggg`gb`````",
"```bcgggggggggbe````",
"```bcgggddddggb`````",
"`bbcgdgddddgbb``````",
"ebcggdddddddge``````",
"bbg``dbdddggbe``````",
"eb``eebbddgggb``````",
"ee``bbbddggg````````",
"```feeee`gcgb```````",
"````f```ggcb````````",
"```````gccb`````````",
"`````ebbbbb`````````",
"`````eeeb```````````",
"```````e````````````",
"````````````````````",
"````````````````````",
"````````````````````",
"````````````````````",
"````````````````````",
"````bb`be`ebbebe`gb`",
"`bbbcgggbgbggbggggb`",
"ebcccggggdggg`gggg``",
"bbgggdggdddgg`gbe```",
"bg``dddddddgggb`````",
"e``eeddddddggbbe````",
"```bbbbdddggb```````",
"`febbeddgggbe```````",
"``fee``dgggbe```````",
"`````gggcgg`````````",
"`e`bgcccbb``````````",
"``eebbbbb```````````",
"```eeb``````````````",
"````````````````````",
"````````````````````",
"````````````````````",
"````````````````````",
"````````````````````",
"````````````````````",
"eebbbbbb````````````",
"ebbccccggbe`````````",
"ebggggggggbe````````",
"e````ddggggbbbe`````",
"```eedddddggggbbe```",
"`febbbdddddgg`gggggb",
"`febbbdddddgg`gggggb",
"```eedddddggggbbe```",
"e````ddggggbbbe`````",
"ebggggggggbe````````",
"ebbccccggbe`````````",
"eebbbbbb````````````",
"````````````````````",
"````````````````````",
"````````````````````",
"````````````````````",
"````````````````````",
"``eeeb``````````````",
"``ebbcbb````````````",
"``ebggccbbb`````````",
"``````ggcgg`````````",
"````e`dgggbe````````",
"`ffebeddgggbe```````",
"``ebbbbdddggb```````",
"e``eebdddddggbb`````",
"eb```dddddddggge````",
"bgggddddddggg`bbe```",
"bbccgggggggg`gggg```",
"`bbbccggggbbgbggggg`",
"````bbggbbe`bebe`gbb",
"`````````e``````````",
"````````````````````",
"````````````````````",
"````````````````````",
"````````````````````",
"````````````````````",
"`````eebb```````````",
"`````ebgbb``````````",
"```````gcbb`````````",
"````f`e`gccb````````",
"````febe`ggcb```````",
"ee``ebbdddggg```````",
"ebg`eebbddgggb``````",
"bbg``dbdddggbe``````",
"ebcggddddddgge``````",
"``bccgddddddgb``````",
"``bbcgggdddggbb`````",
"````bgggggggggbe````",
"````bgbbgbgg`gb`````",
"```````ee`bg`gge````",
"``````````bbbggg````",
"```````````e`eggg```",
"````````````````gb``",
"````````````````b```",
"````````````````````",
"````````````````````",
"````````eeee````````",
"`````````bbb````````",
"```ee`ff``gbbb``````",
"`eeb``ee``gccb``````",
"`ebg``bbe`ggcb``````",
"``bbg`ebbeddgcb`````",
"``bcg`ebbddggg``````",
"``bcgddddddggg``````",
"```bcgddddddggb`````",
"```bcggdddddgbe`````",
"```bggggdddgbe``````",
"`````ggbgggggb``````",
"`````beebggggb``````",
"````````bg``ge``````",
"`````````bgggb``````",
"`````````ebggb``````",
"``````````bgge``````",
"```````````egg``````",
"````````````gg``````",
"````````````bb``````",
"````eeee````eeee````",
"````ebb``ff``bbe````",
"````bbg``ee``gbb````",
"````bcg`ebbe`gcb````",
"````bcg`ebbe`gcb````",
"````bcgddbbddgcb````",
"````bcgddddddgcb````",
"````bgggddddgggb````",
"`````gggddddggg`````",
"`````bggddddggb`````",
"`````ebggddggbe`````",
"``````ebggggbe``````",
"```````bggggb```````",
"```````bg``gb```````",
"```````ebggbe```````",
"````````bggb````````",
"````````egge````````",
"`````````gg`````````",
"`````````gg`````````",
"`````````bb`````````",
"```````bbb``````````",
"```````bbg``ff`e````",
"```````bcg``ee``eee`",
"``````bccg`ebb``bbe`",
"``````bcgddebbe`gbb`",
"`````bggddbbde`gcb``",
"``````gggdddddggcb``",
"``````bggdddddgcb```",
"`````ebggddddggcb```",
"``````eggddddgggb```",
"``````bggdggggg`````",
"``````bggggbbeb`````",
"``````bg`ggbe```````",
"``````ebg`gb````````",
"``````bgggbe````````",
"`````eggb```````````",
"``````gge```````````",
"``````gg````````````",
"``````bb````````````",
"````````````````````",
"```````````bbee`````",
"```````````bbb`e````",
"`````````bccg```````",
"````````bbcgg``f````",
"````````bcgg`eeef```",
"```````gggdddbbe``ee",
"```````bgggddbbbe`bb",
"``````eggddddbe``gbe",
"``````ebgdddddddggcb",
"```````bggdddddggcbb",
"`````bbggdddgggccb``",
"`````eg`ggggggggb```",
"`````bg`ggbggb`b````",
"````ebgggbbebe``````",
"````gggbe```````````",
"```gggeb````````````",
"```bg```````````````",
"```b````````````````",
"````````````````````",
"````````````````````",
"````````````````````",
"```````````````ee```",
"`````````````bbbbe``",
"````````````bccbbe``",
"`````````bbccggg`e``",
"``````````gggg``````",
"```````ebgggddee`f``",
"```````bgggdddbbef``",
"```````eggddddbbbe``",
"`````bbbgdddddbee``e",
"````eggggdddddd```be",
"```ebb``gggddgddgggb",
"```gggggggggggggccbb",
"bggggbbbbbbgggccbb``",
"`bgge``e``eebgbbb```",
"````````````````````",
"````````````````````",
"````````````````````",
"````````````````````",
"````````````````````",
"````````````````````",
"````````````````````",
"````````````````````",
"````````````````````",
"````````````bbbbbbee",
"`````````ebggccccbbe",
"````````ebggggggggbe",
"`````ebbbggggdd````e",
"```ebbggggdddddee```",
"bggggg`ggdddddbbbef`",
"bggggg`ggdddddbbbef`",
"```ebbggggdddddee```",
"`````ebbbggggdd````e",
"````````ebggggggggbe",
"`````````ebggccccbbe",
"````````````bbbbbbee",
"````````````````````",
"````````````````````",
"````````````````````",
"````````````````````",
"````````````````````",
"````````````````````",
"````````````````````",
"````````````````````",
"````````````````````",
"`b``e`e``eebg`b`````",
"bggggbbbbbbgggcbbb``",
"``gggggggggggggcccbb",
"```ebg``gggddgdgggbb",
"`````bgggddddddd``gb",
"````ebgggddddddee``e",
"``````bbgddddbbbb``e",
"```````ebgggddbbeef`",
"````````egggddee`f``",
"`````````bgggg``````",
"`````````bbccggg`e``",
"```````````bbccbbe``",
"`````````````bbebe``",
"````````````````e```",
"````````````````````",
"````````````````````",
"```b````````````````",
"```bg`e`````````````",
"````gggb````````````",
"````gggbeb``````````",
"````ebggggbebe``````",
"`````bg`ggbggb`b````",
"`````eg`gggdggggb```",
"``````bgggdddgggcbb`",
"``````bbgddddgdgccb`",
"``````ebgdddddddggcb",
"``````egggdddbe``gbb",
"```````bgggddbbe``be",
"```````gggddebbe``e`",
"````````bcgd`ebef```",
"`````````bcgg```f```",
"`````````bccg```````",
"``````````bbbbee````",
"```````````bbe``````",
"````````````ee``````",
"`````bb`````````````",
"``````gg````````````",
"``````gg````````````",
"``````gge```````````",
"``````eggbeb````````",
"``````bggbgb````````",
"`````eb``ggbe```````",
"``````bggggggbe`````",
"``````bggddgggb`````",
"`````ebggdddgggb````",
"``````bggddddgggb```",
"`````ebggdddddgcb```",
"``````gggdddddgcb```",
"``````bggddbbd`gcbb`",
"``````bcgddbbe`gcbe`",
"``````bcg`ebbe`gbbe`",
"```````bcg`eee``eee`",
"```````bcg``ff``````",
"```````bbb``````````",
"````````ebee````````"
};
