#define ind_starbase_width 20
#define ind_starbase_height 20
static char ind_starbase_bits[] = {
	0x00, 0x0f, 0x00, 0xe0, 0x7f, 0x00, 0xf0, 0xff, 0x00, 0xf8, 0xff, 0x01,
	0xec, 0x70, 0x03, 0x7e, 0xe0, 0x07, 0xfe, 0xf0, 0x07, 0xde, 0xb9, 0x07,
	0x8f, 0x1f, 0x0f, 0x0f, 0x0f, 0x0f, 0x0f, 0x0f, 0x0f, 0x8f, 0x1f, 0x0f,
	0xde, 0xb9, 0x07, 0xfe, 0xf0, 0x07, 0x7e, 0xe0, 0x07, 0xec, 0x70, 0x03,
    0xf8, 0xff, 0x01, 0xf0, 0xff, 0x00, 0xe0, 0x7f, 0x00, 0x00, 0x0f, 0x00};
