/* XPM */
static char * C4_xpm[] = {
"20 320 9 1",
" 	c None",
".	c #C1C1C1",
"X	c #D0D0D0",
"o	c #E0E0E0",
"O	c #00FFFF",
"+	c #B0B0B0",
"@	c #FF0000",
"#	c #A1A1A1",
"$	c #909090",
"                    ",
"                    ",
"        ....        ",
"       .XXXX.       ",
"      .XXooXX.      ",
"      .XXooXX.      ",
"      .XXooXX.      ",
"       .XXXX.       ",
"     O ..XX.. O     ",
"     .+@.oo.@+.     ",
"     .+ #oo# +.     ",
"     .   ++   .     ",
"     .  #oo#  .     ",
"     .  +oo+  .     ",
"     .   ++   .     ",
"     .  +oo+  .     ",
"     .  #oo#  .     ",
"     $   $$   $     ",
"                    ",
"                    ",
"                    ",
"                    ",
"          .X..$     ",
"         .XXXX.$    ",
"        $XXoooX.    ",
"         XXooXX.$   ",
"      O ..XooXX.    ",
"      .+..XXX..+    ",
"      .+@.oX..      ",
"     .  #ooo.. O    ",
"     +   +o#@+.     ",
"    +   #o+  +.     ",
"    .  $oo.   .     ",
"   .    +$+  .      ",
"   $  $oo.   .      ",
"       oo.  +       ",
"       $$#  .       ",
"            +       ",
"           +        ",
"                    ",
"                    ",
"                    ",
"                    ",
"                    ",
"           .X...    ",
"          .XXXX..   ",
"       $O .XXooX.   ",
"      $.+..XoooX.   ",
"     $++ @.XXoXXX   ",
"    $.   #oXXXXX.   ",
"   $.    ooo....    ",
"  $.   #o+o#@.      ",
"  $    ooo   +O     ",
"     +++o#  +.$     ",
"     oo+    +$      ",
"    $$o+   .$       ",
"     $    .$        ",
"         .$         ",
"        $$          ",
"                    ",
"                    ",
"                    ",
"                    ",
"                    ",
"              $     ",
"          O +...$   ",
"       +..  XXXX.$  ",
"     +. ++...XXoX.  ",
"  +..    @..XoooX.  ",
" $       #oXXoooXX  ",
"      +.+oooXXXXX.  ",
"   #..$oo+o...XX.   ",
"   $oo+o# #@.. $    ",
"   $oo +   ++       ",
"     #     +.O      ",
"         +.         ",
"       +.           ",
"     $.             ",
"                    ",
"                    ",
"                    ",
"                    ",
"                    ",
"                    ",
"                    ",
"  $........O        ",
"         ++  ...    ",
"          @..XXX.   ",
"   #+ +# #..XXXXX.  ",
"  $oo+oo+ooXXoooX.  ",
"  $oo+oo+ooXXoooX.  ",
"   #+ +# #..XXXXX.  ",
"          @..XXX.   ",
"         ++  ...    ",
"  $........O        ",
"                    ",
"                    ",
"                    ",
"                    ",
"                    ",
"                    ",
"                    ",
"                    ",
"     +.             ",
"       .+           ",
"         +.         ",
"     $     ..O      ",
"   $oo $   ++       ",
"   $oo+o# #@.. $    ",
"   #..$oo+o...XX.   ",
"      +.+oooXXXXX.  ",
" +       #oXXoooXX  ",
"  +.+    @..XoooX.  ",
"     .. ++...XXoX.  ",
"       ...  .XXX.$  ",
"          O +...$   ",
"             $      ",
"                    ",
"                    ",
"                    ",
"                    ",
"                    ",
"       $$           ",
"        .$          ",
"    $    .$         ",
"   $$o+   .$        ",
"    oo+    +$       ",
"    +++o#  +.$      ",
" $    ooo   +O      ",
" $.   #o+o#@.       ",
"  $.    ooo....     ",
"   $.   #oXXXXX.    ",
"    $++ @.XXoXXX    ",
"     $.+..XoooX.    ",
"      $O .XXooX.    ",
"         .XXX..     ",
"          .X..      ",
"                    ",
"                    ",
"                    ",
"                    ",
"          $         ",
"           +        ",
"      $$#  .        ",
"      oo.  .        ",
"  $  #oo.   +       ",
"  .    +$+  .       ",
"   +  +oo.   +      ",
"   .   #o+  +.      ",
"    +   +o#@+.      ",
"    .  #ooo.. O     ",
"     ++@.oX..       ",
"     .+..XXX.X+     ",
"     O ..XooXX.     ",
"        XXooXX.$    ",
"       $XXoooX.     ",
"        .XXXX.$     ",
"         .X..$      ",
"                    ",
"                    ",
"                    ",
"                    ",
"     $   $$   $     ",
"     .  #oo#  .     ",
"     .  +oo+  .     ",
"     .   ++   .     ",
"     .  +oo+  .     ",
"     .  #oo#  .     ",
"     .   ++   .     ",
"     .+ #oo# +.     ",
"     .+@.oo.@+.     ",
"     O ..XX.. O     ",
"       .XXXX.       ",
"      .XXooXX.      ",
"      .XXooXX.      ",
"      .XXooXX.      ",
"       .XXXX.       ",
"        ....        ",
"                    ",
"                    ",
"                    ",
"        +           ",
"       +            ",
"       .  #$$       ",
"       +  .oo       ",
"      .   .oo$  +   ",
"      .  +$+    .   ",
"     .   .oo$  .    ",
"     .+  +o#   +    ",
"     .+@#o+   +     ",
"    O ..ooo#  .     ",
"      ..Xo.@+.      ",
"    +..XXX..+.      ",
"   $.XXooX.. O      ",
"    .XXooXX         ",
"    .XoooXX$        ",
"    $.XXXX.         ",
"     $..X.          ",
"                    ",
"                    ",
"                    ",
"          $$        ",
"         $.         ",
"        $.    $     ",
"       $.   +o$$    ",
"      $+    +oo     ",
"     $.+  #o+++     ",
"     O+   ooo    $  ",
"      .@#o+o#   .$  ",
"    ....ooo    .$   ",
"   .XXXXXo#   .$    ",
"   XXXoXX.@ ++$     ",
"   .XoooX..+.$      ",
"   ..ooXX. O$       ",
"    .XXXX.          ",
"     ..X.           ",
"                    ",
"                    ",
"                    ",
"                    ",
"                    ",
"                    ",
"             .$     ",
"           .+       ",
"         .+         ",
"      O.+     #     ",
"       ++   + oo$   ",
"    $ ..@# #o+oo$   ",
"   .XX...o+oo$..#   ",
"  .XXXXXooo+.+      ",
"  XXoooXXo#       $ ",
"  .XoooX..@    ..+  ",
"  .XoXX...++ .+     ",
"  $.XXXX  ..+       ",
"   $...+ O          ",
"     $              ",
"                    ",
"                    ",
"                    ",
"                    ",
"                    ",
"                    ",
"                    ",
"                    ",
"                    ",
"        O........$  ",
"    ...  ++         ",
"   .XXX..@          ",
"  .XXXXX..# #+ +#   ",
"  .XoooXXoo+oo+oo$  ",
"  .XoooXXoo+oo+oo$  ",
"  .XXXXX..# #+ +#   ",
"   .XXX..@          ",
"    ...  ++         ",
"        O........$  ",
"                    ",
"                    ",
"                    ",
"                    ",
"                    ",
"                    ",
"                    ",
"                    ",
"      $             ",
"   $...+ O          ",
"  $.XXX.  ...       ",
"  .XoXX...++ ..     ",
"  .XoooX..@    +.+  ",
"  XXoooXXo#       + ",
"  .XXXXXooo+.+      ",
"   .XX...o+oo$..#   ",
"    $ ..@# #o+oo$   ",
"       ++   $ oo$   ",
"      O..     $     ",
"         .+         ",
"           +.       ",
"             .+     ",
"                    ",
"                    ",
"                    ",
"                    ",
"                    ",
"                    ",
"      ..X.          ",
"     ..XXX.         ",
"    .XooXX. O$      ",
"    .XoooX..+.$     ",
"    XXXoXX.@ ++$    ",
"    .XXXXXo#   .$   ",
"     ....ooo    .$  ",
"       .@#o+o#   .$ ",
"      O+   ooo    $ ",
"      $.+  #o+++    ",
"       $+    +oo    ",
"        $.   +o$$   ",
"         $.    $    ",
"          $.        ",
"           $$       ",
"                    ",
"                    ",
"                    ",
"                    ",
"      $..X.         ",
"     $.XXXX.        ",
"     .XoooXX$       ",
"    $.XXooXX        ",
"     .XXooX.. O     ",
"     +X.XXX..+.     ",
"       ..Xo.@++     ",
"     O ..ooo#  .    ",
"      .+@#o+   +    ",
"      .+  +o#   .   ",
"      +   .oo+  +   ",
"       .  +$+    .  ",
"       +   .oo#  $  ",
"        .  .oo      ",
"        .  #$$      ",
"        +           ",
"         #          ",
"                    "};
