/* XPM */
static char * C2_xpm[] = {
"20 320 9 1",
" 	c None",
".	c #C1C1C1",
"X	c #D0D0D0",
"o	c #E0E0E0",
"O	c #FF0000",
"+	c #00FFFF",
"@	c #A1A1A1",
"#	c #B0B0B0",
"$	c #909090",
"                    ",
"        .XX.        ",
"       .XXXX.       ",
"      .XXooXX.      ",
"      .XXooXX.      ",
"      .XXooXX.      ",
"       .XXXX.       ",
"        XOOX        ",
"      +  ..  +      ",
"      o  ..  o      ",
"      o @..@ o      ",
"      o#@..@#o      ",
"      o# .. #o      ",
"      o  $$  o      ",
"      o      o      ",
"      o      o      ",
"      o      o      ",
"      #      #      ",
"                    ",
"                    ",
"                    ",
"            #       ",
"          #..XX     ",
"         .XXXXX.    ",
"         .XXooX.    ",
"         XXoooXX.   ",
"         .XooXX.    ",
"       +  XXXXX.    ",
"       o  OOX##     ",
"       #  ..        ",
"      .#$$.$  +     ",
"      o#@#.$ #      ",
"     .  $.#@$o      ",
"     o  ##$###      ",
"     .  $#  o       ",
"    o       .       ",
"    #      .        ",
"           o        ",
"          #         ",
"                    ",
"                    ",
"                    ",
"                    ",
"           ....     ",
"          .XXXXX    ",
"          XXXoXX.   ",
"          .XoooX.   ",
"       +  XXooXX.   ",
"      o   O.XXXX.   ",
"     o$ $#.OX.X.    ",
"    o##$#.#         ",
"   o   #.#$         ",
"  o   $.#$  +       ",
" #     $ #$o        ",
"         #o         ",
"         o          ",
"        o           ",
"       o            ",
"      #             ",
"                    ",
"                    ",
"                    ",
"                    ",
"              .     ",
"            ..X..   ",
"         + #XXXXXX  ",
"      .oo  .XXooXX  ",
"    .o##   XXoooX.# ",
"  o.  #@$$.OXooXX.  ",
" #    $#...OXXXXX#  ",
"     $#..#   .X..   ",
"     $$#@$          ",
"        ##.o+       ",
"        .X          ",
"     .o.            ",
"   #o               ",
"                    ",
"                    ",
"                    ",
"                    ",
"                    ",
"                    ",
"                    ",
"                    ",
"                    ",
"                    ",
"  #oooooooo+  ...   ",
"       ##    .XXX.  ",
"        @@  XXXXXX. ",
"      $.....OXoooXX ",
"      $.....OXoooXX ",
"        @@  XXXXXX. ",
"       ##    .XXX.  ",
"  #oooooooo+  ...   ",
"                    ",
"                    ",
"                    ",
"                    ",
"                    ",
"                    ",
"                    ",
"                    ",
"                    ",
"                    ",
"   #o               ",
"     .o.            ",
"        o.          ",
"        ###o+       ",
"     $#$@$          ",
"     ##.#$   .X..   ",
" #    $#...OXXXXX#  ",
"  o.  #@$$.OXooXX.  ",
"    .o#$   XXoooX.# ",
"      #o#  #XXooXX  ",
"         + #XXXXXX  ",
"            ..X..   ",
"              .     ",
"                    ",
"                    ",
"                    ",
"                    ",
"      #             ",
"       o            ",
"        o           ",
"         o          ",
"         #o         ",
" #     $ #$o        ",
"  o   $.#$  +       ",
"   o   #.#$         ",
"    o##$#.#         ",
"     o$ $#.OX.X.    ",
"      o   O.XXXX.   ",
"       +  XXooXX.   ",
"          .XoooX.   ",
"          XXXoXX.   ",
"          .XXXX.    ",
"           ....     ",
"                    ",
"                    ",
"                    ",
"                    ",
"          #         ",
"           o        ",
"    #      .        ",
"    o       .       ",
"     .  $$  o       ",
"     o  $#$##.      ",
"     .  #.#@#o      ",
"      .#@..$ o      ",
"      X#$#.$  +     ",
"       .  ..        ",
"       o  OOX.#     ",
"       +  XXXXX.    ",
"         #XooXX.    ",
"         XXoooXX.   ",
"         .XXooX.    ",
"         .XXXX..    ",
"          #..X.     ",
"            #       ",
"                    ",
"                    ",
"                    ",
"      #      #      ",
"      o      o      ",
"      o      o      ",
"      o      o      ",
"      o  $$  o      ",
"      o# .. #o      ",
"      o#@..@#o      ",
"      o @..@ o      ",
"      o  ..  o      ",
"      +  ..  +      ",
"        XOOX        ",
"       .XXXX.       ",
"      .XXooXX.      ",
"      .XXooXX.      ",
"      .XXooXX.      ",
"       .XXXX.       ",
"        .XX.        ",
"                    ",
"                    ",
"         #          ",
"        o           ",
"        .           ",
"       .       #    ",
"       o  #$   o    ",
"      ###$##  o     ",
"      o$@#.$  .     ",
"      # $.#@#o      ",
"     +  $.$$#.      ",
"        ..  #       ",
"     ##XOO  o       ",
"    .XXXXX  +       ",
"    .XXooX.         ",
"   .XXoooXX         ",
"    .XooXX.         ",
"    .XXXXX.         ",
"     XX..#          ",
"       #            ",
"                    ",
"                    ",
"             #      ",
"            o       ",
"           o        ",
"          o         ",
"         o#         ",
"        o$# $     # ",
"       +  $#.$   o  ",
"         $#.#   o   ",
"         #.#$##o    ",
"    .X.XO.#$ $o     ",
"   .XXXX.O   o      ",
"   .XXooXX  +       ",
"   .XoooX.          ",
"   .XXoXXX          ",
"    .XXXX.          ",
"     ....           ",
"                    ",
"                    ",
"                    ",
"                    ",
"                    ",
"                    ",
"                    ",
"              #X    ",
"            .o      ",
"          X.        ",
"       +o.##        ",
"          $@#$$     ",
"   ..X.   #..#$     ",
"  #XXXXXO...#$    # ",
"  .XXooXO.$$@#  .o  ",
" #.XoooXX   ##o.    ",
"  XXooXX.  oo.      ",
"  ..XXXX# +         ",
"   ..X..            ",
"     .              ",
"                    ",
"                    ",
"                    ",
"                    ",
"                    ",
"                    ",
"                    ",
"                    ",
"                    ",
"   ...  +oooooooo#  ",
"  .XXX.    ##       ",
" .XXXXXX  @@        ",
" XXoooXO.....$      ",
" XXoooXO.....$      ",
" .XXXXXX  @@        ",
"  .XXX.    ##       ",
"   ...  +oooooooo#  ",
"                    ",
"                    ",
"                    ",
"                    ",
"                    ",
"                    ",
"                    ",
"                    ",
"                    ",
"     .              ",
"   ..X..            ",
"  XXXXXX# +         ",
"  XXooXX#  #o#      ",
" #.XoooXX   $#o.    ",
"  .XXooXO.$$@#  .o  ",
"  #XXXXXO...#$    # ",
"   ..X.   $#.##     ",
"          $@$#$     ",
"       +o###        ",
"          .o        ",
"            .o      ",
"              o#    ",
"                    ",
"                    ",
"                    ",
"                    ",
"                    ",
"                    ",
"                    ",
"     ....           ",
"    .XXXX.          ",
"   .XXoXXX          ",
"   .XoooX.          ",
"   .XXooXX  +       ",
"   .XXXX.O   o      ",
"    .X.XO.#$ $o     ",
"         #.#$##o    ",
"         $#.#   o   ",
"       +  $#.$   o  ",
"        o$# $     # ",
"         o#         ",
"          o         ",
"           o        ",
"            o       ",
"             #      ",
"                    ",
"                    ",
"       #            ",
"     .X..#          ",
"    ..XXXX.         ",
"    .XooXX.         ",
"   .XXoooXX         ",
"    .XXooX.         ",
"    .XXXXX  +       ",
"     #.XOO  o       ",
"        ..  .       ",
"     +  $.#$#X      ",
"      o $..@#.      ",
"      o#@#.#  .     ",
"      .##$#$  o     ",
"       o  $$   #    ",
"       .       X    ",
"        .           ",
"        o           ",
"         #          ",
"                    "};
