/* XPM */
static char * C0_xpm[] = {
"20 320 7 1",
" 	c None",
".	c #C1C1C1",
"X	c #D0D0D0",
"o	c #E0E0E0",
"O	c #FF0000",
"+	c #B0B0B0",
"@	c #909090",
"                    ",
"                    ",
"         ...        ",
"        XXXXX       ",
"       .XXoXX.      ",
"       .XoooX.      ",
"       .XXoXX.      ",
"        .XXX.       ",
"         XOX        ",
"          +         ",
"          +         ",
"          +         ",
"          +         ",
"          +         ",
"          +         ",
"          +         ",
"          @         ",
"                    ",
"                    ",
"                    ",
"                    ",
"                    ",
"                    ",
"          +..+      ",
"         +XXX.+     ",
"        +XXXoXX     ",
"        +XoooX.+    ",
"         .XoXX.     ",
"         +XX.X+     ",
"          OX.+      ",
"          +         ",
"         +          ",
"         +          ",
"        +           ",
"        +           ",
"       +            ",
"       @            ",
"                    ",
"                    ",
"                    ",
"                    ",
"                    ",
"                    ",
"                    ",
"          ++.++     ",
"         +..XX.+    ",
"         +.ooXX+    ",
"         .XoooX.    ",
"         +Xooo.+    ",
"         +.XX..+    ",
"         O+...+     ",
"        .           ",
"       .            ",
"      .             ",
"     .              ",
"    +               ",
"                    ",
"                    ",
"                    ",
"                    ",
"                    ",
"                    ",
"                    ",
"                    ",
"                    ",
"             +      ",
"           ...X+    ",
"          ++XXXX.   ",
"          +.XooX.   ",
"          XXoooXX   ",
"         +O.XXoX+   ",
"       ++  X.XX+    ",
"     ++      ++     ",
"   @+               ",
"                    ",
"                    ",
"                    ",
"                    ",
"                    ",
"                    ",
"                    ",
"                    ",
"                    ",
"                    ",
"                    ",
"                    ",
"                    ",
"             ...    ",
"            .XXXX   ",
"           XXXoXX.  ",
"   @+++++++OXoooX.  ",
"           XXXoXX.  ",
"            .XXXX   ",
"             ...    ",
"                    ",
"                    ",
"                    ",
"                    ",
"                    ",
"                    ",
"                    ",
"                    ",
"                    ",
"                    ",
"                    ",
"                    ",
"                    ",
"   @+               ",
"     ++      ++     ",
"       ++  +.XX+    ",
"         +OXXoXX+   ",
"          XXooXX.   ",
"          ..XooX.   ",
"          +XXXX.+   ",
"           +..X+    ",
"             +      ",
"                    ",
"                    ",
"                    ",
"                    ",
"                    ",
"                    ",
"                    ",
"                    ",
"    +               ",
"     .              ",
"      .             ",
"       .            ",
"        .           ",
"         O++.++     ",
"         +.XX..+    ",
"         .Xooo.+    ",
"         .XoooX.    ",
"         ..ooXX+    ",
"         +..XX.+    ",
"          ++.++     ",
"                    ",
"                    ",
"                    ",
"                    ",
"                    ",
"                    ",
"                    ",
"      @             ",
"      +             ",
"       +            ",
"       +            ",
"        +           ",
"        +           ",
"         +          ",
"         OX++       ",
"        X.X.+.      ",
"        .XoXX.      ",
"       +XXooX.+     ",
"       +XoooXX      ",
"        +XXXX+      ",
"         +X.        ",
"                    ",
"                    ",
"                    ",
"                    ",
"                    ",
"                    ",
"         @          ",
"         +          ",
"         +          ",
"         +          ",
"         +          ",
"         +          ",
"         +          ",
"         +          ",
"        XOX         ",
"       .XXX.        ",
"      .XXoXX.       ",
"      .XoooX.       ",
"      .XXoXX.       ",
"       XXXXX        ",
"        ...         ",
"                    ",
"                    ",
"                    ",
"                    ",
"                    ",
"            @       ",
"            +       ",
"           +        ",
"           +        ",
"          +         ",
"          +         ",
"         +          ",
"      +.XO          ",
"     +X.XX+         ",
"     .XXoX.         ",
"    +.XoooX+        ",
"     XXoXXX+        ",
"     +.XXX+         ",
"      +..+          ",
"                    ",
"                    ",
"                    ",
"                    ",
"                    ",
"                    ",
"                    ",
"               +    ",
"              .     ",
"             .      ",
"            .       ",
"           .        ",
"     +...+O         ",
"    +..XX.+         ",
"    +.oooX+         ",
"    .XoooX.         ",
"    +XXoo.+         ",
"    +.XX..+         ",
"     ++.++          ",
"                    ",
"                    ",
"                    ",
"                    ",
"                    ",
"                    ",
"                    ",
"                    ",
"                    ",
"                    ",
"               +@   ",
"     ++      ++     ",
"    +XX.X  ++       ",
"   +XoXX.O+         ",
"   XXoooXX          ",
"   .XooX.+          ",
"    XXXX++          ",
"    +X...           ",
"      +             ",
"                    ",
"                    ",
"                    ",
"                    ",
"                    ",
"                    ",
"                    ",
"                    ",
"                    ",
"                    ",
"                    ",
"    ...             ",
"   XXXX.            ",
"  .XXoXXX           ",
"  .XoooXO+++++++@   ",
"  .XXoXXX           ",
"   XXXX.            ",
"    ...             ",
"                    ",
"                    ",
"                    ",
"                    ",
"                    ",
"                    ",
"                    ",
"                    ",
"                    ",
"                    ",
"                    ",
"      +             ",
"    +X..+           ",
"   +.XXXX+          ",
"   .XooX..          ",
"   .XXooXX          ",
"   +XXoXXO+         ",
"    +XX.+  ++       ",
"     ++      ++     ",
"               +@   ",
"                    ",
"                    ",
"                    ",
"                    ",
"                    ",
"                    ",
"                    ",
"                    ",
"                    ",
"                    ",
"                    ",
"     ++.++          ",
"    +.XX..+         ",
"    +XXoo..         ",
"    .XoooX.         ",
"    +.oooX.         ",
"    +..XX.+         ",
"     ++.++O         ",
"           .        ",
"            .       ",
"             .      ",
"              .     ",
"               +    ",
"                    ",
"                    ",
"                    ",
"                    ",
"                    ",
"                    ",
"                    ",
"        .X+         ",
"      +XXXX+        ",
"      XXoooX+       ",
"     +.XooXX+       ",
"      .XXoX.        ",
"      .+.X.X        ",
"       ++XO         ",
"          +         ",
"           +        ",
"           +        ",
"            +       ",
"            +       ",
"             +      ",
"             @      ",
"                    ",
"                    ",
"                    "};
