/* XPM */
static char * 010_xpm[] = {
"30 30 11 1",
" 	c None",
".	c #000000000000",
"X	c #C1C1C1C1C1C1",
"o	c #E0E0E0E0E0E0",
"O	c #909090909090",
"+	c #E1E190900000",
"@	c #FFFFC8C80000",
"#	c #B0B070700000",
"$	c #B0B0B0B0B0B0",
"%	c #D0D0D0D0D0D0",
"&	c #A1A1A1A1A1A1",
"                              ",
"                              ",
"                              ",
"                              ",
"                              ",
"                              ",
"                              ",
"                              ",
"                              ",
"                              ",
"                              ",
"                              ",
"                              ",
"                              ",
"                              ",
"                              ",
"                              ",
"               ...            ",
"         ...  .XoO.           ",
"        .+@#..$%ooO.          ",
"       .#@@@#O$%oooO.         ",
"      .##+@@@#O$%%ooO.        ",
"       .##+@@@#O$XoooO.       ",
"        .#++@@@#O$%oooO.      ",
"         .#+@@@@#&oooo$.      ",
"          .+@@@@+......       ",
"           ......             ",
"                              ",
"                              ",
"                              "};
