#define 011_width 30
#define 011_height 30
static unsigned char 011_bits[] = {
  0x00, 0x00, 0x00, 0x00, 0x00, 0x00, 0x00, 0x00, 0x00, 0x00, 0x00, 0x00,
  0x00, 0x00, 0x00, 0x00, 0x00, 0x00, 0x00, 0x00, 0x00, 0x00, 0x1c, 0x00,
  0x00, 0x00, 0x22, 0x00, 0x00, 0x00, 0x41, 0x00, 0x00, 0x00, 0x41, 0x00,
  0x00, 0x00, 0x41, 0x00, 0x00, 0x00, 0xe2, 0x00, 0x00, 0x00, 0x1c, 0x01,
  0x00, 0x00, 0x08, 0x02, 0x00, 0x00, 0x08, 0x02, 0x00, 0x00, 0x08, 0x02,
  0x00, 0x00, 0x10, 0x01, 0x00, 0x00, 0xe0, 0x00, 0x00, 0x00, 0x00, 0x00,
  0x00, 0x00, 0x00, 0x00, 0x00, 0x00, 0x00, 0x00, 0x00, 0xf0, 0x01, 0x00,
  0x00, 0x10, 0x01, 0x00, 0x00, 0x08, 0x02, 0x00, 0x00, 0x08, 0x02, 0x00,
  0x00, 0x04, 0x04, 0x00, 0x00, 0xfc, 0x07, 0x00, 0x00, 0x00, 0x00, 0x00,
  0x00, 0x00, 0x00, 0x00, 0x00, 0x00, 0x00, 0x00, 0x00, 0x00, 0x00, 0x00,
  };
