/* XPM */
static char * 011_xpm[] = {
"30 30 18 1",
" 	c None",
".	c #000000000000",
"X	c #C1C15F5F5F5F",
"o	c #FFFFB0B0B0B0",
"O	c #FFFFFFFF0000",
"+	c #D0D0D0D0D0D0",
"@	c #8D8D8D8DA0A0",
"#	c #C6C6C6C6E0E0",
"$	c #9A9A9A9AAFAF",
"%	c #0000FFFFFFFF",
"&	c #C1C1C1C1C1C1",
"*	c #E0E0E0E0E0E0",
"=	c #909090909090",
"-	c #E1E190900000",
";	c #FFFFC8C80000",
":	c #B0B070700000",
"?	c #B0B0B0B0B0B0",
">	c #A1A1A1A1A1A1",
"                              ",
"                              ",
"                              ",
"                  ...         ",
"                 .XoX.        ",
"                .XXoXX.       ",
"               .XXoooXX.      ",
"               .oooOooo.      ",
"               .XXoooX+.      ",
"                .XXoX@#@.     ",
"                 .Xo@$#$@.    ",
"                  .@$###$@.   ",
"                  .###%###.   ",
"                  .@$###$@.   ",
"                   .@$#$@.    ",
"                    .@#@.     ",
"                     ...      ",
"               ...            ",
"         ...  .&*=.           ",
"        .-;:..?+**=.          ",
"       .:;;;:=?+***=.         ",
"      .::-;;;:=?++**=.        ",
"       .::-;;;:=?&***=.       ",
"        .:--;;;:=?+***=.      ",
"         .:-;;;;:>****?.      ",
"          .-;;;;-......       ",
"           ......             ",
"                              ",
"                              ",
"                              "};
