/* XPM */
static char * 101_xpm[] = {
"30 30 14 1",
" 	c None",
".	c #000000000000",
"X	c #E1E190900000",
"o	c #B0B070700000",
"O	c #FFFFC8C80000",
"+	c #C1C15F5F5F5F",
"@	c #FFFFB0B0B0B0",
"#	c #A1A190905050",
"$	c #FFFFFFFF0000",
"%	c #D0D0D0D0D0D0",
"&	c #8D8D8D8DA0A0",
"*	c #C6C6C6C6E0E0",
"=	c #9A9A9A9AAFAF",
"-	c #0000FFFFFFFF",
"                              ",
"                              ",
"                              ",
"      .                       ",
"     .X. ..       ...         ",
"      .o.XO.     .+@+.        ",
"      .oXO.     .++@++.       ",
"     ..o#O.    .++@@@++.      ",
"    .O.oO.     .@@@$@@@.      ",
"    .#Xo..     .++@@@+%.      ",
"    .XOo.X.     .++@+&*&.     ",
"     .#oXO.      .+@&=*=&.    ",
"     ..o##.       .&=***=&.   ",
"    .#.oO.        .***-***.   ",
"    .OXo..        .&=***=&.   ",
"    .XOo.X.        .&=*=&.    ",
"     .#o##.         .&*&.     ",
"      .oOX.          ...      ",
"      .oO.                    ",
"      .o.                     ",
"      .o.                     ",
"       .                      ",
"                              ",
"                              ",
"                              ",
"                              ",
"                              ",
"                              ",
"                              ",
"                              "};
