/* XPM */
static char * 110_xpm[] = {
"30 30 12 1",
" 	c None",
".	c #000000000000",
"X	c #E1E190900000",
"o	c #B0B070700000",
"O	c #FFFFC8C80000",
"+	c #A1A190905050",
"@	c #C1C1C1C1C1C1",
"#	c #E0E0E0E0E0E0",
"$	c #909090909090",
"%	c #B0B0B0B0B0B0",
"&	c #D0D0D0D0D0D0",
"*	c #A1A1A1A1A1A1",
"                              ",
"                              ",
"                              ",
"      .                       ",
"     .X. ..                   ",
"      .o.XO.                  ",
"      .oXO.                   ",
"     ..o+O.                   ",
"    .O.oO.                    ",
"    .+Xo..                    ",
"    .XOo.X.                   ",
"     .+oXO.                   ",
"     ..o++.                   ",
"    .+.oO.                    ",
"    .OXo..                    ",
"    .XOo.X.                   ",
"     .+o++.                   ",
"      .oOX.     ...           ",
"      .oO....  .@#$.          ",
"      .o..XOo..%&##$.         ",
"      .o.oOOOo$%&###$.        ",
"       .ooXOOOo$%&&##$.       ",
"        .ooXOOOo$%@###$.      ",
"         .oXXOOOo$%&###$.     ",
"          .oXOOOOo*####%.     ",
"           .XOOOOX......      ",
"            ......            ",
"                              ",
"                              ",
"                              "};
