#define planetr111_width 30
#define planetr111_height 30
static char planetr111_bits[] = {
    0x00, 0xf8, 0x03, 0x00, 0x00, 0x07, 0x1c, 0x00, 0xc0, 0x00, 0x60, 0x00,
    0x20, 0x00, 0x80, 0x00, 0x10, 0x00, 0x00, 0x01, 0x08, 0x06, 0x1c, 0x02,
    0x04, 0x03, 0x22, 0x04, 0x84, 0x03, 0x41, 0x04, 0xa2, 0x01, 0x41, 0x08,
    0xe2, 0x00, 0x41, 0x08, 0xe2, 0x02, 0xe2, 0x08, 0xc1, 0x03, 0x1c, 0x11,
    0x81, 0x03, 0x08, 0x12, 0xa1, 0x01, 0x08, 0x12, 0xe1, 0x00, 0x08, 0x12,
    0xe1, 0x02, 0x10, 0x11, 0xc1, 0x03, 0xe0, 0x10, 0x81, 0x03, 0x00, 0x10,
    0x82, 0x01, 0x00, 0x08, 0x82, 0x00, 0x00, 0x08, 0x82, 0xf0, 0x01, 0x08,
    0x04, 0x10, 0x01, 0x04, 0x04, 0x08, 0x02, 0x04, 0x08, 0x08, 0x02, 0x02,
    0x10, 0x04, 0x04, 0x01, 0x20, 0xfc, 0x87, 0x00, 0xc0, 0x00, 0x60, 0x00,
0x00, 0x07, 0x1c, 0x00, 0x00, 0xf8, 0x03, 0x00, 0x00, 0x00, 0x00, 0x00};
