#define m010_width 16
#define m010_height 16
static unsigned char m010_bits[] = {
  0x00, 0x00, 0x00, 0x00, 0x00, 0x00, 0x00, 0x00, 0x00, 0x00, 0x00, 0x00,
  0x00, 0x00, 0x00, 0x00, 0x00, 0x00, 0x00, 0x00, 0x80, 0x01, 0x40, 0x02,
  0xc0, 0x03, 0x00, 0x00, 0x00, 0x00, 0x00, 0x00, };
