/* XPM */
static char * m010_xpm[] = {
"16 16 8 1",
" 	c None",
".	c #FFFFC8C80000",
"X	c #C1C1C1C1C1C1",
"o	c #D0D0D0D0D0D0",
"O	c #B0B070700000",
"+	c #E1E190900000",
"@	c #A1A1A1A1A1A1",
"#	c #B0B0B0B0B0B0",
"                ",
"                ",
"                ",
"                ",
"                ",
"                ",
"                ",
"                ",
"                ",
"     .. Xo      ",
"    O+..@Xo     ",
"     +..+#o#    ",
"      ...ooo    ",
"                ",
"                ",
"                "};
