/* XPM */
static char * m011_xpm[] = {
"16 16 12 1",
" 	c None",
".	c #C1C15F5F5F5F",
"X	c #FFFFB0B0B0B0",
"o	c #9A9A9A9AAFAF",
"O	c #C6C6C6C6E0E0",
"+	c #FFFFC8C80000",
"@	c #C1C1C1C1C1C1",
"#	c #D0D0D0D0D0D0",
"$	c #B0B070700000",
"%	c #E1E190900000",
"&	c #A1A1A1A1A1A1",
"*	c #B0B0B0B0B0B0",
"                ",
"                ",
"                ",
"         ..     ",
"        .XX.    ",
"        .XX.    ",
"         .oo    ",
"         oOOo   ",
"         oOOo   ",
"          oo    ",
"     ++ @#      ",
"    $%++&@#     ",
"     %++%*#*    ",
"      +++###    ",
"                ",
"                "};
