#define m011_width 16
#define m011_height 16
static unsigned char m011_bits[] = {
  0x00, 0x00, 0x00, 0x00, 0x00, 0x00, 0x00, 0x06, 0x00, 0x09, 0x00, 0x09,
  0x00, 0x0e, 0x00, 0x12, 0x00, 0x12, 0x00, 0x0c, 0x80, 0x01, 0x40, 0x02,
  0xc0, 0x03, 0x00, 0x00, 0x00, 0x00, 0x00, 0x00, };
