/* XPM */
static char * m100_xpm[] = {
"16 16 5 1",
" 	c None",
".	c #E1E190900000",
"X	c #B0B070700000",
"o	c #FFFFC8C80000",
"O	c #A1A190905050",
"                ",
"                ",
"     .          ",
"    X           ",
"  . X o         ",
"   OXO          ",
"    X .         ",
"  o X.          ",
"   .X           ",
"    X           ",
"    X           ",
"                ",
"                ",
"                ",
"                ",
"                "};
