/* XPM */
static char * m101_xpm[] = {
"16 16 9 1",
" 	c None",
".	c #E1E190900000",
"X	c #B0B070700000",
"o	c #C1C15F5F5F5F",
"O	c #FFFFC8C80000",
"+	c #FFFFB0B0B0B0",
"@	c #A1A190905050",
"#	c #9A9A9A9AAFAF",
"$	c #C6C6C6C6E0E0",
"                ",
"                ",
"     .          ",
"    X    oo     ",
"  . X O o++o    ",
"   @X@  o++o    ",
"    X .  o##    ",
"  O X.   #$$#   ",
"   .X    #$$#   ",
"    X     ##    ",
"    X           ",
"                ",
"                ",
"                ",
"                ",
"                "};
