/* XPM */
static char * m110_xpm[] = {
"16 16 9 1",
" 	c None",
".	c #E1E190900000",
"X	c #B0B070700000",
"o	c #FFFFC8C80000",
"O	c #A1A190905050",
"+	c #C1C1C1C1C1C1",
"@	c #D0D0D0D0D0D0",
"#	c #A1A1A1A1A1A1",
"$	c #B0B0B0B0B0B0",
"                ",
"    .           ",
"   X            ",
" . X o          ",
"  OXO           ",
"   X .          ",
" o X.           ",
"  .X            ",
"   X            ",
"   X oo +@      ",
"    X.oo#+@     ",
"     .oo.$@$    ",
"      ooo@@@    ",
"                ",
"                ",
"                "};
