#define m110_width 16
#define m110_height 16
static unsigned char m110_bits[] = {
  0x00, 0x00, 0x00, 0x00, 0x00, 0x00, 0x20, 0x00, 0x50, 0x00, 0x30, 0x00,
  0x58, 0x00, 0x34, 0x00, 0x18, 0x00, 0x10, 0x00, 0x90, 0x01, 0x40, 0x02,
  0xc0, 0x03, 0x00, 0x00, 0x00, 0x00, 0x00, 0x00, };
