#define m111_width 16
#define m111_height 16
static unsigned char m111_bits[] = {
  0x00, 0x00, 0x00, 0x00, 0x00, 0x00, 0x20, 0x06, 0x50, 0x09, 0x30, 0x09,
  0x58, 0x0e, 0x34, 0x12, 0x18, 0x12, 0x10, 0x0c, 0x90, 0x01, 0x40, 0x02,
  0xc0, 0x03, 0x00, 0x00, 0x00, 0x00, 0x00, 0x00, };
