/* XPM */
static char * m111_xpm[] = {
"16 16 13 1",
" 	c None",
".	c #E1E190900000",
"X	c #B0B070700000",
"o	c #FFFFC8C80000",
"O	c #C1C15F5F5F5F",
"+	c #A1A190905050",
"@	c #FFFFB0B0B0B0",
"#	c #9A9A9A9AAFAF",
"$	c #C6C6C6C6E0E0",
"%	c #C1C1C1C1C1C1",
"&	c #D0D0D0D0D0D0",
"*	c #A1A1A1A1A1A1",
"=	c #B0B0B0B0B0B0",
"                ",
"    .           ",
"   X            ",
" . X o   OO     ",
"  +X+   O@@O    ",
"   X .  O@@O    ",
" o X.    O##    ",
"  .X     #$$#   ",
"   X     #$$#   ",
"   X      ##    ",
"     oo %&      ",
"    X.oo*%&     ",
"     .oo.=&=    ",
"      ooo&&&    ",
"                ",
"                "};
