/* XPM */
static char * eplasmacloud_xpm[] = {
"13 65 14 1",
" 	c None",
".	c #FFFFC8C80000",
"X	c #FFFFFFFF3F3F",
"o	c #FFFFFFFFC1C1",
"O	c #FFFFFFFFFFFF",
"+	c #E1E190900000",
"@	c #FFFFFFFF0000",
"#	c #FFFFFFFF7F7F",
"$	c #7F7F50503F3F",
"%	c #B0B070700000",
"&	c #909000000000",
"*	c #B0B000000000",
"=	c #FFFF00000000",
"-	c #606000000000",
"             ",
"             ",
"             ",
"             ",
"      .      ",
"     XoX     ",
"    .oOo.    ",
"     XoX     ",
"      .      ",
"             ",
"             ",
"             ",
"             ",
"             ",
"             ",
"             ",
"     .       ",
"    +@.@+    ",
"    @O#O@    ",
"    $#O#.    ",
"    @O#O@.   ",
"    +@%@+    ",
"     %%      ",
"             ",
"             ",
"             ",
"             ",
"             ",
"    +$& $    ",
"   *+=.*+*   ",
"   +%..+%+   ",
"  $+.+@..+   ",
"  &=..oX..$  ",
"   +%@.%.=$  ",
"   ++.+.%+&  ",
"   &+.++++   ",
"     &*+     ",
"             ",
"             ",
"             ",
"             ",
"    %&*      ",
"   &*=++&&   ",
" *%+.*+=*&*  ",
"  *+..=.*+&  ",
" *+*+==.=*%  ",
" &=*==.=+.&  ",
"  &+.*+.+=%  ",
"  *+*+.++**  ",
"   &*=*+&%%  ",
"  **&&&&*    ",
"     %%      ",
"             ",
"   ----      ",
"  ---&&---   ",
"  -%&&*%---  ",
" -*&+**&*%-  ",
" -&****&*&&- ",
" --&*=**+**- ",
" -&&**=**&&- ",
" -%****&*&%  ",
"  -&&+*&&--  ",
"  ---&&%--   ",
"   -----     ",
"             "};
