/* XPM */
static char * edrone_xpm[] = {
"6 96 5 1",
" 	c None",
".	c #B0B070700000",
"X	c #7F7F50503F3F",
"o	c #E1E190900000",
"O	c #FFFFFFFF0000",
"  .X  ",
"  o.  ",
"  o.  ",
"  o.  ",
" .oo. ",
" XOOX ",
"   Xo ",
"   .X ",
"  Xo  ",
" XoX  ",
"X.oX  ",
" OO.  ",
"     X",
"   Xo ",
"  XoX ",
".XoX  ",
".OX   ",
" ..   ",
"      ",
"    Xo",
".XXo.X",
"OooX  ",
"O..   ",
" .    ",
"      ",
"X.    ",
"Ooooo.",
"Oo...X",
"X.    ",
"      ",
" .    ",
"O.X   ",
"OooX  ",
".XXo.X",
"    Xo",
"      ",
" ..   ",
".OX   ",
".XoX  ",
"  XoX ",
"   Xo ",
"     X",
" OO.  ",
"X.oX  ",
" XoX  ",
"  Xo  ",
"   .X ",
"   Xo ",
" XOOX ",
" .oo. ",
"  .o  ",
"  .o  ",
"  .o  ",
"  X.  ",
"  .OO ",
"  Xo..",
"  XoX ",
"  oX  ",
" Xo   ",
" oX   ",
"   .. ",
"   XO.",
"  XoX.",
" XoX  ",
" oX   ",
"X     ",
"    . ",
"   X.O",
"  XooO",
"XooXX.",
"oX    ",
"      ",
"      ",
"    .X",
"X...oO",
".ooooO",
"    .X",
"      ",
"      ",
"oX    ",
"XooXX.",
"  XooO",
"   X.O",
"    . ",
"X     ",
" oX   ",
" XoX  ",
"  XoX.",
"   XO.",
"   .. ",
" oX   ",
" Xo   ",
"  oX  ",
"  XoX ",
"  Xo..",
"  .OO "};
