/* XPM */
static char * efighter_xpm[] = {
"5 80 7 1",
" 	c None",
".	c #E1E190900000",
"X	c #FFFFC8C80000",
"o	c #B0B070700000",
"O	c #00007F7FEFEF",
"+	c #0000FFFF0000",
"@	c #7F7F50503F3F",
" . . ",
" XoX ",
"oXOXo",
"oXoXo",
" + + ",
"  @. ",
" @X .",
"oX.oX",
"o+OXo",
"  o+o",
"  @. ",
"@oX .",
"oXoX@",
"+OXo ",
" +o@ ",
"o@X. ",
"+Xo @",
"oO.X.",
" +X@ ",
" oo  ",
" oo  ",
"+XXX.",
" oOo ",
"+XXX.",
" oo  ",
" oo  ",
" +X@ ",
"oO.X ",
"+Xo .",
"ooX. ",
" +o@ ",
"+OXo ",
"oXoX@",
"@oX .",
"  @. ",
"  o+o",
"o+OX@",
"oX.oX",
" @X .",
"  @. ",
" + + ",
"oXoXo",
"oXOXo",
" XoX ",
" . . ",
"o+o  ",
"@XO+o",
"Xo.Xo",
". X@ ",
" .@  ",
" @o+ ",
" oXO+",
"@XoXo",
". Xo@",
" .@  ",
"  oo ",
" @X+ ",
".X.Oo",
"@ oX+",
" .X@o",
"  oo ",
".XXX+",
" oOo ",
".XXX+",
"  oo ",
" .X@o",
"@ oX+",
".X.Oo",
" @X+ ",
"  oo ",
" .@  ",
". Xo@",
"@XoXo",
" oXO+",
" @o+ ",
" .@  ",
". X@ ",
"Xo.Xo",
"oXO+o",
"o+o  "};
