#define plasmacloud_width 13
#define plasmacloud_height 65
static char plasmacloud_bits[] = {
	0x40, 0x00, 0xf2, 0x09, 0xfc, 0x07, 0xfc, 0x07, 0xfe, 0x0f, 0xfe, 0x0f, 0xff, 0x1f, 0xfe,
0x0f, 0xfe, 0x0f, 0xfc, 0x07, 0xfc, 0x07, 0xf2, 0x09, 0x40, 0x00,
0x40, 0x00, 0x42, 0x08, 0x44, 0x04, 0xe8, 0x02, 0xf0, 0x01, 0xf8, 0x03, 0xff, 0x1f, 0xf8,
0x03, 0xf0, 0x01, 0xe8, 0x02, 0x44, 0x04, 0x42, 0x08, 0x40, 0x00,
0x00, 0x00, 0x00, 0x00, 0x40, 0x00, 0x48, 0x02, 0x50, 0x01, 0xe0, 0x00, 0xbc, 0x07, 0xe0,
0x00, 0x50, 0x01, 0x48, 0x02, 0x40, 0x00, 0x00, 0x00, 0x00, 0x00,
0x00, 0x00, 0x00, 0x00, 0x00, 0x00, 0x40, 0x00, 0x40, 0x00, 0x40, 0x00, 0xb8, 0x03, 0x40,
0x00, 0x40, 0x00, 0x40, 0x00, 0x00, 0x00, 0x00, 0x00, 0x00, 0x00,
0x00, 0x00, 0x00, 0x00, 0x00, 0x00, 0x40, 0x00, 0x40, 0x00, 0x40, 0x00, 0xb8, 0x03, 0x40,
0x00, 0x40, 0x00, 0x40, 0x00, 0x00, 0x00, 0x00, 0x00, 0x00, 0x00};
