#define eplasmatorp_width 	7
#define eplasmatorp_height 	7
static char eplasmatorp_bits[] = {
0x08, 0x2a, 0x1c, 0x7f, 0x1c, 0x2a, 0x08};
