#define etorp_width 		3
#define etorp_height 		3
static char etorp_bits[] = {
0x05, 0x02, 0x05};
