/* XPM */
static char * etorpcloud_xpm[] = {
"7 35 6 1",
" 	c None",
".	c #909000000000",
"X	c #B0B000000000",
"o	c #FFFF00000000",
"O	c #FFFFB0B0B0B0",
"+	c #606000000000",
"       ",
"  .X.  ",
" .oOo. ",
" XOoOX ",
" .oOo. ",
"  .X.  ",
"       ",
"  ...  ",
" .oXo. ",
".oOooo.",
".XoXOX.",
".ooOoo.",
"  .oX. ",
"  ...  ",
" X     ",
"XoXXo  ",
" oX.+X ",
".X..XoX",
" .+.+X ",
" +.OoX ",
"    X  ",
"  .X.X ",
".X+++. ",
"X +++..",
"..+..X ",
".+ +  X",
" ..X X ",
"   XX  ",
" .   . ",
" . .. .",
" .++ + ",
" ++.+X.",
"..+ +  ",
" .+++..",
"  .+  ."};
