/* XPM */
static char * mdrone_xpm[] = {
"6 96 7 1",
" 	c None",
".	c #A1A1A1A1A1A1",
"X	c #909090909090",
"o	c #E0E0E0E0E0E0",
"O	c #0000FFFF0000",
"+	c #B0B0B0B0B0B0",
"@	c #C1C1C1C1C1C1",
"  .X  ",
"  o.  ",
"  o.  ",
"  o.  ",
" .oo. ",
" XOOX ",
"   Xo ",
"   .X ",
"  Xo  ",
" XoX  ",
"+ooX  ",
" OO+  ",
"     X",
"   Xo ",
"  XoX ",
".XoX  ",
".OX   ",
" ..   ",
"      ",
"    X@",
".XX@.X",
"O@@X  ",
"O.X   ",
" .    ",
"      ",
"X.    ",
"Ooooo.",
"Oo...X",
"X.    ",
"      ",
" .    ",
"O.X   ",
"OooX  ",
".XXo.X",
"    Xo",
"      ",
" ..   ",
".OX   ",
".XoX  ",
"  XoX ",
"   Xo ",
"     X",
" OO.  ",
"X.oX  ",
" XoX  ",
"  Xo  ",
"   .X ",
"   Xo ",
" XOOX ",
" .oo. ",
"  .o  ",
"  .o  ",
"  .o  ",
"  X.  ",
"  .OO ",
"  Xo..",
"  XoX ",
"  oX  ",
" X.   ",
" oX   ",
"   .. ",
"   XO.",
"  XoX.",
" XoX  ",
" oX   ",
"X     ",
"    . ",
"   X.O",
"  XooO",
"X.oXX.",
"oX    ",
"      ",
"      ",
"    .X",
"X...oO",
".ooooO",
"    .X",
"      ",
"      ",
"oX    ",
"X.oXX.",
"  XooO",
"   X.O",
"    . ",
"X     ",
" oX   ",
" XoX  ",
"  XoX.",
"   XO.",
"   .. ",
" oX   ",
" X.   ",
"  oX  ",
"  XoX ",
"  Xo..",
"  .OO "};
