/* XPM */
static char * mfighter_xpm[] = {
"5 80 9 1",
" 	c None",
".	c #C1C1C1C1C1C1",
"X	c #00005050AFAF",
"o	c #B0B0B0B0B0B0",
"O	c #00007F7FEFEF",
"+	c #E0E0E0E0E0E0",
"@	c #B0B000000000",
"#	c #909090909090",
"$	c #A1A1A1A1A1A1",
"  .  ",
"  X  ",
" oOo ",
"oo+oo",
" @+@ ",
"   . ",
"  #X ",
"ooO$ ",
"@$+$ ",
" +@o#",
"    .",
"$ooO ",
"#@+o ",
" +@o ",
"  #$ ",
"#    ",
"o$$X.",
"@+O# ",
"+$o  ",
" @#  ",
" o   ",
"@oo  ",
"++OX.",
"@oo  ",
" o   ",
" @o  ",
"+$o  ",
"@+O# ",
"o$$X.",
"#    ",
"  #$ ",
" +@o ",
"#@+o ",
"$ooO ",
"    .",
" +@o#",
"@$+$ ",
"#oO$ ",
"  #X ",
"   . ",
" @+@ ",
"oo+oo",
" oOo ",
"  X  ",
"  .  ",
"#o@+ ",
" $+$@",
" $Oo#",
" X#  ",
" .   ",
" $#  ",
" o@+ ",
" o+@#",
" Ooo$",
".    ",
"  o@ ",
"  o$+",
" #O+@",
".X$$o",
"    #",
"   o ",
"  oo@",
".XO++",
"  oo@",
"   o ",
"    #",
".X$$o",
" #O+@",
"  o$+",
"  #@ ",
".    ",
" Ooo$",
" o+@#",
" o@+ ",
" $#  ",
" .   ",
" X#  ",
" $Ooo",
" $+$@",
"#o@+ "};
