/* XPM */
static char * mplasmatorp_xpm[] = {
"7 56 5 1 XPMEXT",
" 	c #000000000000",
".	c #7F7F97977F7F",
"X	c #AFAFCFCFAFAF",
"o	c #0000FFFF0000",
"O	c #A0A0C0C0A0A0",
"       ",
"  .X.  ",
" .XoX. ",
" XoooX ",
" .XoX. ",
"  .X.  ",
"       ",
"       ",
"  X... ",
" ..X.X ",
" XooX. ",
" ..oo. ",
"  .XX  ",
"       ",
"       ",
"  X..  ",
" ..o.O ",
" XooXX ",
" OooXX ",
"  X..  ",
"       ",
"       ",
"  XXX  ",
" .ooX. ",
" .ooo. ",
" .X.X. ",
"  X..  ",
"       ",
"       ",
"  ...  ",
" ..oo. ",
" .ooo. ",
" ..o.. ",
"  ...  ",
"       ",
"       ",
"  ..o  ",
" XXo.O ",
" XoXo. ",
" ..ooX ",
"  X..  ",
"       ",
"       ",
"  .X.  ",
" .oo.. ",
" ooXo. ",
" O..X. ",
"  o..  ",
"       ",
"       ",
"  X.X  ",
" X.o.O ",
" .ooo. ",
" O.o.X ",
"  X.X  ",
"       "
"XPMEXT num_views",
"8",
"XPMENDEXT"};
