/* XPM */
static char * eplasmacloud_xpm[] = {
"15 75 7 1",
" 	c None",
".	c #7F7F97977F7F",
"X	c #9090ABAB9090",
"o	c #AFAFCFCFAFAF",
"O	c #0000FFFF0000",
"+	c #FFFFFFFFFFFF",
"@	c #A0A0C0C0A0A0",
"               ",
"               ",
"               ",
"               ",
"       .       ",
"     .XoX      ",
"     XOOOX.    ",
"    .oO+Oo.    ",
"     XOOOX     ",
"      XoX      ",
"      ..       ",
"               ",
"               ",
"               ",
"               ",
"               ",
"               ",
"     ..        ",
"    . . .  .   ",
"   ..@o@o@X.   ",
"  . @oOoO@@.   ",
"   .oOoOOOo.   ",
"   .@.OOXOo    ",
"   .X@oOOo@ .  ",
"      @oo@X    ",
"      ... .    ",
"               ",
"               ",
"               ",
"               ",
"               ",
"      .        ",
"    ..X.   .   ",
"   .X..  Oo    ",
"    . X@XoOO@  ",
"   .XXoOXXoO@  ",
"   oOoXOo X@   ",
" .  XoXOOX..X  ",
" @. @O@X@@X X  ",
"   X X@.oO@X   ",
"  . o@O@OO@X.  ",
"   @OoX@Oo     ",
"    @ X @X ..  ",
"               ",
"               ",
"               ",
"   X           ",
".      X       ",
"  . o  .     . ",
" X XOo  X.XX   ",
" X .X..XX ooo. ",
"   . ..o.@ @   ",
"  X @ @.o  X . ",
" . .Oo . .  X  ",
" X .o..  @@  . ",
" X XXX@ . @ .. ",
"     oOo oO@ .X",
"   X XXX   @ . ",
"    .       .. ",
"   .  .     .  ",
"               ",
"  .            ",
" X ..X         ",
" ..Xo. XXo X.  ",
"  .oo@. ..o  . ",
"  .X .   .o.   ",
"  . .. X.    X ",
"   ..XX .    . ",
" .XX XX    .   ",
"  Xo    ...oo. ",
"  .@...  .Xo@. ",
"  . .o..XXX..  ",
" ...XXoo    .  ",
"   ..XX. .     ",
"        ..    X"};
