#define masteroid_width 16
#define masteroid_height 16
static char masteroid_bits[] = {
    0xe0, 0x07, 0x18, 0x08, 0x34, 0x30, 0x4a, 0x2c, 0x4a, 0x4c, 0x31, 0x40,
    0x05, 0x80, 0xc1, 0x90, 0xc1, 0xc4, 0x11, 0xca, 0x07, 0x84, 0x1c, 0x81,
0xb0, 0x4a, 0x30, 0x31, 0x60, 0x0c, 0xc0, 0x07};
