#define MOObarren_width 30
#define MOObarren_height 30
static unsigned char MOObarren_bits[] = {
  0x00, 0x18, 0x03, 0x00, 0x00, 0x00, 0x00, 0x00, 0xc0, 0x00, 0x60, 0x00,
  0x00, 0x00, 0x00, 0x00, 0x10, 0x00, 0x00, 0x01, 0x08, 0x00, 0x00, 0x02,
  0x00, 0x00, 0x00, 0x00, 0x02, 0x00, 0x00, 0x08, 0x02, 0x00, 0x00, 0x08,
  0x00, 0x00, 0x00, 0x00, 0x00, 0x00, 0x00, 0x00, 0x01, 0x00, 0x00, 0x10,
  0x01, 0x00, 0x00, 0x10, 0x00, 0x00, 0x00, 0x00, 0x00, 0x00, 0x00, 0x00,
  0x00, 0x00, 0x00, 0x00, 0x01, 0x00, 0x00, 0x10, 0x01, 0x00, 0x00, 0x10,
  0x00, 0x00, 0x00, 0x00, 0x00, 0x00, 0x00, 0x00, 0x02, 0x00, 0x00, 0x08,
  0x02, 0x00, 0x00, 0x08, 0x00, 0x00, 0x00, 0x00, 0x08, 0x00, 0x00, 0x02,
  0x10, 0x00, 0x00, 0x01, 0x00, 0x00, 0x00, 0x00, 0xc0, 0x00, 0x60, 0x00,
  0x00, 0x00, 0x00, 0x00, 0x00, 0x18, 0x03, 0x00, 0x00, 0x00, 0x00, 0x00,
  };
