/* XPM */
static char * r000_xpm[] = {
"30 480 12 1",
" 	c None",
".	c #303030303030",
"X	c #404040404040",
"o	c #505050505050",
"O	c #606060606060",
"+	c #707070707070",
"@	c #808080808080",
"#	c #909090909090",
"$	c #A0A0A0A0A0A0",
"%	c #B0B0B0B0B0B0",
"&	c #D0D0D0D0D0D0",
"*	c #E0E0E0E0E0E0",
"         ..XooO+@@+o          ",
"       ..oooO+@#$$$#@+X       ",
"      .ooOO+@###$$$$$%$+X     ",
"    ..oOO+@@##$$$$##$&&%#X    ",
"    oooOOO+@@#$$$###$%&&&#X   ",
"   ooooooOO++@#$$$##$$%&&&@X  ",
"   XooooooOO+@##$$$###$%%%%@. ",
"  oooooooOOOO@@@@##$$##$$$%#X ",
"  XooooooOOOO+@@@@#####$$$$$O.",
"  .ooo+OoOOOOO++@@@####$$$$%@.",
"  XooO@@@++++++++@#####$$$$%#X",
" .XooO+##@+++++++@#####$$$$%%+",
" XooooO#$#@+++++@@####$$%%%&&@",
"ooooooo@##@++++@####$$$$%%&&%@",
"ooooooO+###+OO@#$$$$$$$$%&&&%@",
"ooooooOO@$#@+O+#$$$$$#$%%&&%$@",
"oooooooO#$#@+O+@######%%%&&%$@",
"ooooooo+#$$@++@##@@@#$%&&&&%$O",
".Xoooooo#$$@++@#@@@@#$%&&&&&#X",
" .oooooO+##@++@#@@@@#$%&&*&&@.",
"  Xoooo+@@@+++@##@@@#$&&&&&&+.",
"  .Xoo+@@+O+++@@@@@#$%&&&&&$o ",
"  .XooO+Oo++++++@###$%&&&&&@. ",
"   .XoOOo++@+++@####$%&**&#X  ",
"    .oOOo+++O+@######%&*&#X   ",
"    .XooooOOO+#$#####$&&#X    ",
"     .XooooOO+######$$$@X     ",
"       ..XoOO@@##$#@@@o.      ",
"         ..XoOO++@+X..        ",
"            .......           ",
"         .XXoo+++@+o          ",
"       ..oooO@###$$$#+X       ",
"      .XoO++@#$$$%%%&$#+X     ",
"     .XoO+#####$%&&%%%%%@X    ",
"     XooO+###@@#$%&&%%%%%#X   ",
"    XoooO@@@@+++@#$%&&%%%%#X  ",
"   XoooOO+@++O+++@#$%&%%$%$+. ",
"   ooooOO++OOO+++@#$$%%$$$$#X ",
"  XoooOOO+++OO+++@@#$$$$$$$#O.",
"  Xooo+OO@@@+++++@@####$$$$$@.",
"  XoooO+@#####@+@@@@##$$$$$$@X",
" .oooooO@##$$$$#@@@@###$$$$%$+",
" XoooooO+@@#$%%#@@@@@##$%%%%%#",
" XoooooOO++#$%%$@@+@#$$%&&&%%#",
" XooooOooO+@#%%$#@@@$$%&&&%%%@",
" XooooOooOO@#%%$#@@##$%&%%%&%@",
".XooooooOOO@#%%$#@@@#$$$$$&&&@",
" XooooooOOO+#%%%#@@######$&&&+",
" .ooOooooOO+#$%$#@@#$$###$&&%o",
"  XoOOoooO+@#$$#@@@#$$##$$&&$.",
"  .oooooO+@#$$#@@@@$$$$$$%&&@.",
"  .XoooO+@#$#@@@@@@#$$$$%&&$o ",
"   .oooO@@##@@@@@@@##$$$&&&@. ",
"   .Xooo+##@@#@@@@##$$$%&&#X  ",
"    .Xoo+##@@@@++@$$$$$%&$X   ",
"    ..ooO+@+++++@#%$$#$%#X    ",
"     ..ooOO++O++@$%$$##@X     ",
"       ..oo+OO+#$$$#@OX.      ",
"         ..XooO+@@+o..        ",
"            .......           ",
"          .Xoo+@@@+o          ",
"       ..Xooo@#$$%$##+X       ",
"      .XoooO@#$$$%%%&%$+.     ",
"     .oooo+@#$$$%%%%&&&%@X    ",
"     ooooo+@#$%%$$$$%&&&%@X   ",
"    ooooo+@@#$$$##@#$$%&&%@.  ",
" . XoooooO@##$$#@@@@##$%&&%+. ",
"   oooooo+@#$##@@@@@###$%&&#X ",
"  .oooooo+####@@@@@####$%%%$O.",
"  .oooOoo+@####$$######$$%$$@.",
"  XooooOOO++@#$$%%%$$#$$$$$$@X",
" .oooooOOOOO+@#$%&&&%$$$$$$%$+",
" Xooooo+++OOO+@#$%&&&%$$$$%%%#",
" Xooooo+++++O++@#$%&&&$#$%&&&#",
" Xoooo+O+++++O++@#%&&&%$$&&&&#",
" XooooOOO+@@+O+++#%&&&%$$%&&&#",
" ooooooO++@++O+++@$&&&%##$%%%#",
" XooooO+++++O++++@$&&&%#$$%%$@",
" .XoooO+@@@+OOO++@$&&&%$%%%%#o",
"  XoooO+@##+OOO+@#%&&%$$%&%%#.",
"  .XoooO@@@+O++@$%%%%$$$%&%%@.",
"  .XoooOOOOO+@#$%$$$$$$$%%%$o ",
"   .XoooooO+@#$$$####$$$%%%@. ",
"   .XooooO+@$%%$##$##$$%%%#X  ",
"    .oooo+@#$%$######$%%$@X   ",
"     Xoooo+#$$#@@@##$%%$+.    ",
"     .Xoooo@$#@++@#$$%#+.     ",
"       ..Xo+##@+@#$#@+X.      ",
"         ..XO++++@+o..        ",
"            ..XXX..           ",
"          .XooO+@#@o          ",
"        .oooO+@#$%%$#@o       ",
"      .XoooO+@##%&&&&&%@X     ",
"     .oooo+++@#$%&&&&&&&@X    ",
"    .oOOoO+@@@$$%&&&&&%&%@X   ",
"    ooOOo+++@@#$$%&&&%$$%%@X  ",
"   XooOOoo+++@#$%&%%$$#$$%%@. ",
"   XoooOo++++@#$&%$$$##$$$&$X ",
"  .XoooOO++++@#$%%$$$$$$$$%$+.",
"  .Xoo+OO++OO+@#$%%%%%%$$$$$@.",
"  Xooo++OOOOO++@@#$%&&&&%$$$@X",
" .oooooOOOOO+++++@#$%&&&&%%$$+",
" XoooooOOOO+@@+++@@@#$&&&&%$$@",
" .oooooOOO+@##@@@@+@##%&&&%$%@",
" .ooooooO+@##@@@@@@@##$&*&%%&#",
" Xooooooo+@##@@##@@@@#$&*&&%%#",
" XooooooO+@##@@#@@@@##$%&&&$$@",
" Xoooooo+@#$#@@@@@@@##$%&&&%$O",
" .XoooooO@#$$$#@++@@##$&&&&%#X",
"  Xoooooo+@$$$$#@+@@#$%&&&%&@.",
"  .oooooOO+####@+@@#$%&&&%%%+.",
"  .XoooOOOO++++++@#%&&%%%%%#X ",
"   .oooOOoOOOO++@$%&&%$$%$$O. ",
"    .XoooOOO++@#$&&%$$%%%$+.  ",
"     .oooO++@@#$%&%$$$%%$+.   ",
"     .Xooo+@@#$%&%$#$$%%+.    ",
"      .XooO@@#$%%$##$$#+.     ",
"       ..Xo+@#$$$$##@+X.      ",
"         ..oO+@@@@+o..        ",
"            .XXXX..           ",
"         ..XooO++@+o          ",
"       ..oooo+@@#$$$$@o       ",
"      .oooOo++@##$%&&&%@X     ",
"     .ooo+@@+@@##$&&&*&&#X    ",
"     oooO@##@####$&&&&&&%@X   ",
"    XoooO###@@@@#$%%%&&&%$@X  ",
"   XoooooO##@@@@@#$$%&&&%$$+. ",
"   oooooo+@#@@@@@@#$&&&%$$$#X ",
"  Xoooooo+@@@@@@@@#$&&&%%%$$+.",
"  Xoooooo+@@@@@++@@$%&&&&&%$@.",
"  XooooOO+@++++++@@##$%&&&&%#X",
" .oooooO+++OOO+++@@@##$%&&&&%+",
" Xooooo+++OOO+++@##@###$%&&&&@",
" .ooooo++OOO+++@$$$#####$$&&&@",
" .ooooOoOOO++++#%$$######$%&&@",
" .ooooOooOOOO+@#$$$##$##$$%&&#",
" .oooOooOOOO+@##$$##$$###$%&&#",
" .oooOoOOOOO+@$%%%$$$$###$%&&+",
" .XooooooOOOO+#%&&%%$####$&&$X",
"  XooooooOOOO+@$%&&&$###$%&&#.",
"  XoooooOOOOOO+@$%%$$#$$%&&&@.",
"  .oooooOOOOOOO+@@###$%&&&%#X ",
"   Xoooooo+++++++@@#$%&&&%$O. ",
"   .XooooO+@@+++@##$&&&&&%+.  ",
"     .Xoo++@@@@@#$%&&&&&%@.   ",
"     .Xooo++@@@#$%&&&%%%@X    ",
"      .Xooo++@##$%&%%$#+X     ",
"       ..XoO+@##$%%#@+X.      ",
"         ..XO+@@#@+o..        ",
"            .XXXX..           ",
"          .XooO++@+o          ",
"       ..oooO+@@##$##@o       ",
"      .ooooO@@@@@#$%%%%@X     ",
"      Xooo+@#$#@#$$$%&&&#X    ",
"     XoooO@#$%$$#$$$%&&&&@.   ",
"    XoOOo+@##$$$####$%&&&&@.  ",
" . .oOOooo+@@#$$#####$%&&&%+. ",
"   oOOoooO++++#$$####$$&&&%#X ",
"  .ooooooO+OO+#$$##$$#$&&&&$+.",
"  XooooooOOOO+#$######$%&&&&@.",
"  XooooOOOOOO+@@@@@@###$$%&&$X",
" .oooooOOOO++++++@@@###$$$%&&@",
" Xooooo++++@@@+++@@@@#$$$$$%&$",
" XoooooO++@@@@+++@+@#$%%$$$$%$",
" oooooooO+@@+++@++@@#$%%$$$$%$",
" oooooOoo+@+OO++++@#$$%%%%$$%$",
" ooooooO+@@+++++++#$$%%%%%$$%$",
" Xooooo+@#@++++++@#%&&%$$$$$%@",
" .oooooO@@@+OOO+++@$&&&&%$$%$o",
"  oOoooO+@++OOO+++@#%&&&%$$%#.",
"  XoOOOO+++OOOO+++@#$%&%%%%%@.",
"  .XoO++OOOOOO++++@@#$$$$%&#X ",
"   .oOOOOoOOO++@@@@@###$%&&+. ",
"    XooooOO++@@@#####$%&&&#X  ",
"    .XooooO@@@@@@##$$%&&%@X   ",
"     .XoooO@@@@@##$%&&&%+X    ",
"      ..Xoo+@@@#$$%&&&$+.     ",
"        ..oO+@##$%%$#+X.      ",
"          ..o++@#@+o..        ",
"            .XXXX..           ",
"          .Xoo+++@+o          ",
"       ..ooO+@###$$##@o       ",
"      .ooO++@@#$$$$$%%$@X     ",
"     .XoO+@+@@#$%%$$%%&&#X    ",
"    .XooOO@@@##$&&&%%%%&&#X   ",
"   .XoooO+##@@#$%%&&%%%%&&#X  ",
" . .ooOOO+#@@+@###$%&%%$%&&@. ",
"  .XoO+++#@++O+@#@@$%%%%%%&$o ",
"  XooO+++++OOO++@@@#%&%%%%%%+.",
" .oooO@+OOOOOO+++@@#$%%%%$%&#.",
"  ooooO++++OOO+++@@#$$$$$$$%$o",
" XoooooO+++OO++++@#####$$$$$$+",
" XoooooO+++O++@@@########$%%%@",
" XooooooOOO++@@@#$######$$&&%@",
" XOOoooooO+++@@@###@####$%&&%@",
" XOOoooooO+@@@@##@@@###$$%&&%@",
" XOOooooO+@##@#$$@@@###$%&&&%@",
" .oOoooO++@###$$$@@@###$&&&&$O",
" .oooooO@@@@#####@@@###$&**&#X",
"  Xoooo++@@####@@@@@###$&&*&@.",
"  .oooO+##@###@@@@@@###$%&&&+.",
"  .Xoo+#####@@++++@@####$%%$o ",
"   .Xoo@#@@++++++@@#####$$%@. ",
"    .ooOO++OO++@@@##$$$$%%@X  ",
"    .XoooOOOOO+####$$$%&&#X   ",
"     .ooooOOOO+#$$$$%%&&#X    ",
"      .XXoo+++@#$%%%%%$+X     ",
"        .XoO+@@@$%%$#+X.      ",
"          .Xo+++@#+o..        ",
"            ..XXX..           ",
"         ..Xoo@@@@+o          ",
"        .oooO@$$$$$##+X       ",
"      .Xoo+@##$$##$%%$#@X     ",
"     .XooO#$##@@##$&&&&%@X    ",
"    .XoooO@##@###$$&&&&&%@X   ",
"   .XXooo@@@@$$$###%&&&&&%@X  ",
" ..XooooO+#@#$%$#@@#%%%&&&$+. ",
" ..oooooO#$$$%$#@@@#$$$%&&%#X ",
" .ooooooO#$$$$#@+@@####%&&&%@.",
"..ooooOoO@###@@++@@####$&&%%@.",
"..oooo+++++++@@++@@@###$%%%$@X",
".XoOooO+++OO+@#@+@@###$$%%$$#O",
" XoOOoO++OOO+@@@+@@###$%$$$$$@",
" XoOOOO++OOOO+++@@@##$%%$$$$$@",
" .ooO+@+++OOOO++@@@#$$$$$$$$$@",
" .ooo+@OO+OOOO+@@@#$$$$$$$$$%@",
" .oooO+OOOO++++###$$%%$##$$$%#",
" .XooO++OO++@@@#$$$$%%$###$%%+",
" .XooO+oOO+#####$$$$%$$##$$&%o",
"  XooO+Oo+@#$$##$%%$$$##$$$&$.",
"  .ooOOOO+@$$$##$%$$####$$$$@.",
"  .XooOOO+#$$$$#########$$$@X ",
"   .ooooOO@#$$#@@@@@###$$$#O. ",
"    .oooo+@@##@++@###$$$%$+.  ",
"     .oooO+++++++@$%$$$%$@X   ",
"     .XoooOOO++++#%%%%%%@X    ",
"      .XoooOO+@@@#%&&%$@X     ",
"        .XXo+@#$#$$$$@o.      ",
"          ..oO+##@@OX.        ",
"            ...XX..           ",
"          .Xoo+@@@+o          ",
"        .XooO@#$%%$#@+X       ",
"      .Xoooo@#$%%%$$%%#+X     ",
"     .XoooO+@$%%%$##$&&&@X    ",
"    .XooooO@#$$$##$$%%&&&@X   ",
"   .XooooO+@#####$%&%%%&&%@X  ",
" ..oooooooO@#$$$$&&&%$$%%%%+. ",
" ..oOooooOO+#%%%%&&%$##$$%&$X ",
" .XoOOOooOO+@$%&&&%$###$$%%%@.",
"..ooO+@OO+++@#$%%$#####$$$%&#.",
"..XoO+@@@@@@+@@##@#####$$$%%#X",
".XoooO+@@@@@@++@+@#$$##$$$$%$O",
" XoooO+###@@@++++@@####$$%%%$@",
" XooooO@#####@@++@@@###$$%%%$@",
" XooooOO@$$$##@@++@@###$$%%%$@",
" XooooooO#$$#@@@++@@#$$$%%%$$@",
" Xoooooo+#$$#++++@@@#$%%%&%$%#",
" .oooooo+#$#@++@####$%%%&&%$$@",
" .XoooooO#$#+++#$%$$$%&&&%$$#o",
"  XoooooO#$@+++#%&%%%%&&%%$$@.",
"  .ooooo+@#@++@$%&&%%%&%%$$#O.",
"  .XoooOO++++@#$%&&%%$$$$$$@X ",
"   .ooooooOO+#$$%&&$$##$$$#O. ",
"   ..ooooO++@###$$$###$$%$+.  ",
"    ..ooo+@++@++@@###$%%$+.   ",
"     .XooO@+O++++@##$&&%@.    ",
"      .XoOO+OO+@####$%$+.     ",
"       ..ooOO+@#$%$@@+o.      ",
"         ..XooO@##@o..        ",
"            ...XX..           ",
"          .Xoo++@@+o          ",
"       ..Xooo+@#$%&%$+X       ",
"      .XooOO++@$%&&&&%#+X     ",
"     .Xooo++++@#%&&&%%%%#X    ",
"    .XooooO++O+#$%%%%%&&&#X   ",
"   .oooooOOOOO+$$$$$%&&&&&#X  ",
" ..ooooooO++OO+#$%%%&&&&%%%@. ",
" ..ooO+OO++++++@#%&&&&&&$$%#X ",
" .XooO+++@@@@@@+@$&&&&&%$$$$+.",
"..XooO@++#####@@@#$%&&%%$$$$@.",
"..oooo+@@#$#####@@##$$$%%$$$#X",
".oooooo+@#$$######@@##$%%$$$$O",
" XoooooO+@#$$$##$#@@@##$$$$%%@",
" XoooooOO+@#$%%%$$#@@###$$$%%@",
" .oooooooOO+#$&&%$$$####$$$%%@",
" .oooooooOOO@#%&%$$$####$%%%%@",
" XooooooOOOO+@$%%#######$%&&&@",
" .ooooooOOOOO+#%$#@##$$$%&&&%+",
" .XoooooOO+OO+#%$@@#%&&%%&&&#X",
"  XooooooO+OO@$$#@@#%&&&&&&%@.",
"  .oooooOOOO+@##@@#$&&&&&&&$O.",
"  .XooOOOOOO++@@+@#%&&&&%%%@X ",
" . .ooooooOO++@+@#$%&&&%%$$O. ",
"   .XooooOO++@@@#$$$%%%%%$+.  ",
"    .XooooO+###@######$%%@.   ",
"     .ooooO+##@+@@####$%@X    ",
"      .XXoo@##++@##$$$#+X     ",
"        .Xo+@@++#$$#@+X.      ",
"          ..oOO+@@+o..        ",
"            ....X..           ",
"          .XooO+@@+o          ",
"       ..XooO@@##$%$$@o       ",
"      .XoooO@@#@@#$&&&$@X     ",
"     .Xooo@@@@@@@@#%&&&%@X    ",
"    .ooooO@+++++@@@$&&&&%@X   ",
"   .ooooo+++++++++@#%&&%&&#X  ",
" ..XoOOO++@+@@@@+@@@$%&&&&&+. ",
" ..ooooO+#######@@@@#%&&&&&#X ",
" .XoooooO#$$$$$$##$$#$%&&&&$O.",
"..XoooOoO@@#%%%%$$$%$#$%&&&$@.",
"..oooooOOO+@#$$%%%$$%$$%%%%%#X",
".XoooooOOOO++@#%&&%$%%%%$$$%%+",
" XoooooOOOOO++@$%&&%%%%%$$$%%@",
" XoooooOOO+OO++@#%&&&&&%%$$$$@",
" XooooooOOOOOO++@#$&&&&&&$$$$@",
" XoooooooOOOOO++++#$&&&&&%$$%@",
" XooooooOOOOO+++++@#%&&%$$$$%#",
" XooooooOOOO++++@@@#%&&$$$%%%@",
" .oooooooOOO+++@@@@#%&&$$%&&$o",
"  oooooooO+OO+++@@@#&&%$%&&&#.",
"  XoooooOO++OOO+++@$%%$$&&&&@.",
"  .oooO+OO++OOO+++@#$$$%&&&#X ",
" . XoooOOoO+OO+++@@###$%&&%+. ",
"   .oooooOOOO+++@#$$#$%%&%@.  ",
"    .ooooOOOOO+@#%$$$$$%$+.   ",
"     .ooooOOOO+#$%$##$$$+.    ",
"      .XoooOO+#$$###$#@+.     ",
"        .XoO+@####$#@+X.      ",
"          ..o++++@+o..        ",
"             ......           ",
"          .XooO+@@+o          ",
"       ..Xooo+@#$$$$#@o       ",
"      .Xoooo+@##$$$$%%%@X     ",
"     .oooo++@@######$%&&@.    ",
"    .ooooo+++@#@@#@##$%&%@X   ",
"   .XoOOO++++@@+@@@###$%%%#X  ",
" ..XoooOO+@####@######$$%&&#. ",
" ..oooooo+@@#$%%%%$$%$$$%&*%o ",
" .XooooooO++@#%&&&&&&%%%$%&&+.",
" .XXooOooO++@@#%&&&&&&%%%%%&#.",
" .Xooo+@++O++++@$%&&&&&&&&%%#X",
" .ooooO@++OOOO++@##$&&&&&&&%$+",
" XoooOoOOOOO+++++@@#$%&&&&&%%#",
" XooOooOOO++++++@@@@#$&&&&&%%@",
" XooooooOO++OO++++@@##$&&*&&%@",
" XoooooooOOOOO++++@@@##%&*&&%@",
" XooooooOOO+++++++@@###$&&&%$@",
" .oooooOOOOO+++++@@@###$&&&%$+",
" .XoooooO++OOOO++@@@#$$$&&&%$X",
"  XooooooO++++++++@@#$$%&&%%#.",
"  .oooOO+++@@@++++@@###%&&&%@.",
"  .ooo++++@@@@+@++@@###$%%&$o ",
" ..XooO++O+++++++@@@##$$%%%@. ",
"   .XoOOO@@++++++@@##$$%%%@X  ",
"    .ooOO@@@+++++@#$%%$%$@.   ",
"     .ooO+@@+++++@$&%$$$+.    ",
"     ..XoO+@+++@@$%%%$@O.     ",
"       .Xoo++@##$$$@@+X.      ",
"          .XoO@#@@+X..        ",
"            ..XX...           ",
"          .XooOO+@+o          ",
"        .XooO+++#$%$#+X       ",
"      .XoooO+@@@#%%%%$#+X     ",
"     .Xooo+++@@@#%%$$$%%@X    ",
"    .oooO+@@@@@@#$$#$$$$$@X   ",
"   .ooooO@####@@#$$##$$$$$@X  ",
" ..Xooooo+@#####$%%$$%%%$$$@. ",
"  .ooooooO++@@@#$%&&&&&&%%%$o ",
"  .ooooooOO++++@##%&&&&&&&&%@.",
"  XoooOooO+@@++@@##%&&&&&&&&#.",
"  XoooOOO+@##@@+@@@#$%&&&*&&$X",
" .XooooO+@###@@+++@@##$%&*&&%+",
" Xooooo+@@@@+++++@@@@##$%&&&&@",
" Xooooo+@+++++++@@@@@###$%&&&#",
".Xoooo+O+OOOO++@@+@@#####$%&&$",
".Xoooo+OoOOOOO++++@@@###$$$&&$",
" XoooooOOO+++++++@@@#####$$%&#",
" .ooooO++++++++++@@@#####$$%%+",
" .XoooOO+@@@+++++@@@####$%%&#X",
"  XoooOOO@@@++++@@@####$$$%&#.",
"  XoooOO@@@@@@@@########$$%&@.",
"  .ooo+@@@@@@###########$$%$o ",
" ..XooO+++@@###@@@@#####$$$@. ",
"   .XoOOO@#####@@@@####$$$@X  ",
"    .oooO@#$####@@@###$%$+X   ",
"    .XoooO@$$$#@@@##$%%$+.    ",
"     ..XooO##$#####$%%#O.     ",
"       ..XoO+@#$$$$#@+X.      ",
"         ...XO+##@+X..        ",
"             ..XX..           ",
"         ..XooO++++o          ",
"       ..oooo+@#####$@o       ",
"      .ooooo+@####$%&&$@X     ",
"     .oooo+@@@@###$%&&&$+.    ",
"    .ooooo+########$%%%$$+.   ",
"   .XooooO+@#$%%%$$$%%%$%$+.  ",
"   .oooooo++@#$$%%%%&&&&%%$O. ",
"   XoooooOOO++@@##$%%&&&&&&#X ",
"  .XoooooOOOOO++@@##$%&&**&&+.",
"  .ooooooOOOOO+@#####$%&&&*&#.",
"  XooooOOO+OOO@#$$$###$$%&&&$o",
" .oooooOOOOOO+@$$$$#####$$%&&@",
" Xooooo++++++@#$##@@@###$$$%&$",
" Xooooo+++@@###@@@@@@###$$$$%$",
" XooooOo++@###@++@@@####$$$$%$",
" XooooooO@@##+++++@@####$$$$%#",
" ooooooO@@@##@+@++@@#####$$$$@",
" Xooooo+@@@##@@@@@@######$$$$+",
" .oooooO@@######@@@######$$%$o",
"  XooooOO@#######@@##$$$$$$%#.",
" .XooooO@@@#########$$$$%$$$@.",
" .XXooO+@@#@@###$$$$$$$$$$$#X ",
" ..Xooo+@@##@##$$$$$$$$$$$$+. ",
"   .Xoooo@####$$$$$$###$$$@X  ",
"    .XoooO+@#$$$$$$$###$$+X   ",
"    .XooooO+@#%%%$$$#$$$+.    ",
"     ..XoooO+@$%&%$$$$#+.     ",
"       .XXooO+@$&&%#@+X.      ",
"         ..XXoO@$$@o..        ",
"             ..XX..           ",
"         ..XooO++@@o          ",
"       ..oooO@@@#$$#@+o       ",
"      .oooOO@@@##$$$$%$@X     ",
"     .ooOO+@@@@#$$$$$&&%@X    ",
"    .ooOOO++@@#$%%$$%%&&%+.   ",
"   .XooO+@+++@@#$%%%&&%%&$+.  ",
" . .ooooO+@++++@##$$%&&&&&%+. ",
"   Xooooo+++OO++@@@#$$$%&&&$o ",
"  .Xooooo++OOO+++@@###$$%%&&@.",
"  XooooooOOOOO+++@@##$$$$%&&$.",
"  oooooOO+OOO++++@@#$%%%$$%%$X",
" XoooooO+++O+++@@@@#$%&%$$$$$+",
" XoooooO++++@@@@@@#$%%%$$$$$$@",
" Xooooo++@@@@#####$%%$##$$$$$@",
" Xoooo+O+@@@@@@#$$$$####$$$$$@",
" XooooOOO+++@@##$$$#####$$$$$@",
".ooooooo+OO+##$$$$$######$$$$@",
".XoooooOOOO+#$$$$$$$$$$$$$$$#O",
".XoooooooOO+@#$%%%$$%%$$$$$$@X",
"..oooooooOO+@##$%$$$%%%$$$%%@.",
" .ooooooOOO+@##$$$$%%%%$$%%$O.",
" .XoooOOOO+@@#$$$$$%%%%%%%%@X ",
" X.ooooOOO+@@$%$$$$%%%%%%$$O. ",
"   .Xoooo+++@#$$$$%%%%%%$$+.  ",
"    .Xooo+++++#$$&&&&%%%$+.   ",
"    ..XooO++O++@#&&&&%%$+.    ",
"     ..XooO+++++@%&*&%#+X     ",
"       ..XoO+@++#%&%$@X.      ",
"         ..XoOO++@@oX.        ",
"             ...X..           ",
"          .Xoo+++@+o          ",
"        .Xooo@####$##+X       ",
"      .XooOO@@####$%%$#@X     ",
"     .oooO##@@@###$%%%%%#X    ",
"    .ooooO###@@@@#$%&&&&&#X   ",
"    Xoooo+@###@@@@#$%&&&&%@X  ",
"   XoooooO@@###@+@@#$$%&&&&@. ",
"   oooooo+@++@#@+@@@##$$$%&$o ",
"  Xoooooo+++O+@++@@####$$$%%@.",
"  XooooooOO++++++@@####$%%%%#.",
"  XoooOOOOOO+@+++@@@###$%&&%#X",
" .oOOooOOOOO+@@++@@####$%&&&$O",
" XoOOOoOOOO++@@@@##$$##$&&&%$@",
" XooO+OOO++@@@######$$$%%%%$$@",
" XooO++oO+@@####@####$%%$$$$$@",
" XooO++oo+@@##@@@@#$$$%&$$$$$@",
" XooO+OoOO+@@@@+@#$%$%%%$$$$$@",
".XooO+OOO++@++++@$%%%%%%%%$$#O",
".Xooo+OoO+++OO++@$%%&&&&%%%$@X",
"..oooOOoo+@++OO+@#$%&&&&&&%$@.",
" .XooOooO+@@++++@$$$&&&&&&%$O.",
" .XoooOOO++++++@#$%%%%%&&&%@X ",
" ..XoooOOoO++@@@#$&&&%&&&&$O. ",
"  ..oooooOO+@@@@@$&&&&&&&%+.  ",
"    .oooooO@#@+++#$&&&&&%@.   ",
"    .XooooO@#@+++@#%&&&%@.    ",
"     .Xoooo@@@+@@@#%&&$+.     ",
"       ..Xo+++@#####$@o.      ",
"         ..XoOO++++X..        ",
"            .......           "};
