#define mplanet_width 16
#define mplanet_height 16
static char mplanet_bits[] = {
    0xe0, 0x03, 0x18, 0x0c, 0x04, 0x10, 0x02, 0x20, 0xc2, 0x21, 0x21, 0x42, 0x01, 0x42, 0x01,
    0x41, 0x81, 0x40, 0x81, 0x40, 0x02, 0x20, 0x82, 0x20, 0x04, 0x10, 0x18, 0x0c, 0xe0, 0x03,
0x00, 0x00};
