#define holem_width 16
#define holem_height 16
static char holem_bits[] = {
   0x00, 0x01, 0x20, 0x02, 0x40, 0x12, 0x84, 0x0a, 0x98, 0x0a, 0x20, 0x45,
   0x5e, 0x23, 0xe1, 0x19, 0x98, 0x87, 0xc4, 0x7a, 0xa2, 0x04, 0x50, 0x19,
   0x50, 0x21, 0x48, 0x02, 0x40, 0x04, 0x80, 0x00};
