/* XPM */
static char *plan_noinfo[] = {
/* width height ncolors chars_per_pixel */
"30 480 10 1",
/* colors */
"` c None",
"a c #F0F0F0",
"b c #D0D0D0",
"c c #A0A0A0",
"d c #909090",
"e c #808080",
"f c #606060",
"g c #505050",
"h c #404040",
"i c #303030",
/* pixels */
"````````iihgffeeefgii`````````",
"```````hgfeeedddcdeefg````````",
"`````igfeeeeecdddcccdefh``````",
"````igfeedeeedecccbccbceg`````",
"```igfeeededddedcdcbbbbbeg````",
"``igffeeeeeedddcbcbbbbccbeg```",
"``gfffffeddecddcbbbbbcbbbbe```",
"`igffeeeeedccdccbbbbbbbbbbdg``",
"`gffeeeeedeeddcbcbbcbbbbbbcei`",
"igffefgedededcbbbbbbbbbbbbbeh`",
"igffeffedeccbdbbbbbbbbbbbbbcg`",
"gfgfefeeddddcdcbbbbbbabbbbbbei",
"gefeeeefdeddcccbbbbbbabbbbbbdh",
"gefefgeeeedcdccbbbbbbabbbbbbdh",
"geefeeeeddecdccbbbbbbbbbbbbbeh",
"geffeeedeeeddbbccbbbbbbbbbbbdh",
"geeefeedeedcddbcbcbbbbbbbbcbdh",
"geggefeeddedddcdccbcbbbbbbbbei",
"hfeefeeededdcccbcbcbbbbbbbbcg`",
"ifefffefedeedccccccbbbbcbbbdh`",
"`gefgeeeeeeeddccccccbbeeebcei`",
"`hfeggfeeeeeedddccddbbbbbbeg``",
"``geeeeeeeededdddcccccbbbcf```",
"``hgfffeeeeeddeddcdddebcceh```",
"```igfeeeeeeeededddddecdeh````",
"````igeeeeeeeedeedeeeddfh`````",
"`````igfeeeeeeeeedeeeefh``````",
"```````hggfeeeeeeeefgh````````",
"`````````ihggffffghii`````````",
"```````````iiiiiii````````````",
"````````iihgfffeefhii`````````",
"```````hgfeeeeddddeefg````````",
"`````igeeeeeedcecdcbcefh``````",
"````igeeeedededcddcbbbceh`````",
"```igeefeededcddcdccccbbeg````",
"``igfefeeeeedddcbcccbccbceg```",
"``gfeffedeeeddcccbccbbbcbbe```",
"`igeegefdeddcccbcbbbbbbcbbcg``",
"`gffeeeeddeddddccccbbbbbbbbei`",
"igegfeeeeefecccbcbbbbbbbbbbdh`",
"igfgeeeeeeeddccbbbbbbbbbbbbcg`",
"hggfefefdedddccbbcbbbbbbbbbbei",
"gffeeeedddddeccccbbbbbbabbbbdh",
"geeeefedefecddcbbcbbbbabbbbbdh",
"gefeeefeeedccbbcbbbbbbbbbbbbdh",
"fefefeeeeedddccccbbbbbbbbbbbdh",
"feeeeeeeeddcbccccbbbbbbbcbbbdh",
"gefeeeeeeedddcccbccbbbbccbbbei",
"hfegfeeeeeeecccbbbbbbbcbbbbdg`",
"ifeggeeeeeeddccdccbbbbbbbbceh`",
"`gfggeeefeeedeccdccccbbcbddfi`",
"`hfeeeefeeeeecddccdcccdcbbeg``",
"``geeeeeffeeedddccdccbbcbce```",
"``igeefefeedeeeedcddddcddeh```",
"```hfeeeeeeedeeddecdcdddeh````",
"````hgeeeeeeeeeeddeeddefh`````",
"`````igfeeeeeeeeeeeeefgh``````",
"```````hgfeeeeeeeeefgh````````",
"````````iihgfffffghii`````````",
"```````````iiiiiii````````````",
"````````iihgffffefhii`````````",
"```````hgfeeeedddeeefg````````",
"`````igfeeeeeededddcdefh``````",
"````igeeeeeeeeddcdddccdeh`````",
"```igeeeeeeddecddccccccceg````",
"``igeeeeeeeeeeccccccbcbbbeg```",
"``gfeeeedeeedcdeeebbbbbcbbe```",
"`igefeeeeeedebdccbbbbbcbbbdg``",
"`hffeeeeeeeeddcdcbcbbbbbbcbei`",
"`gffeeffeeedcdebecbbbbbbbbbdh`",
"igfeeefgecedcdeddccbbbbbbbbcg`",
"ggfeefggddeecebcbbcbbbbbbbbbei",
"gffeeeeedddddbbbbbdbbbbbbbbbeh",
"geeffeeddeecdbddcbbbbbbbbbbbeh",
"geeeeeededececccbbbbbbbbbbbbeh",
"feeeeeedeeeddccccbbbbbbbbbbbdh",
"feeeeeeddddcdccbbbbbbbbbbbcbdh",
"geeeeeeedddeddcdbccbbbbbbbbcei",
"igeeedefeedddcddccbbbbbbbcbdg`",
"`gefeegggfddcdeddbcbbcbcbbbeh`",
"`gffeeeefeddedddcccccccccbcfi`",
"`igfeeeeedddeddedccccccccbdg``",
"``gfeeeeeedddeeddcddcbcbcce```",
"``igfffeeeeeeeeedddddddddfh```",
"```igeefefeeddeecedcdcddfh````",
"````igeeeeeeeeeeedeecdefh`````",
"`````hgfeeeeeeeeedeeeegh``````",
"```````hgffeeeeeeeefgh````````",
"`````````ihgfffffghii`````````",
"```````````iiiiiii````````````",
"````````iihgffffffhii`````````",
"```````hgfeeddeedeeefg````````",
"`````igfeeeeeeddeddcdefh``````",
"````igeeeddeededecdcccdeh`````",
"```igeeeedddcdecdebcbccceh````",
"``igeeeeeeeddeecccccbcbbbeh```",
"``gfeeeeeeeeccdebcdcddbbbbe```",
"`hgeefeeedddcccccdbcbbbbbbcg``",
"`gfefeedddeeddddccbbcccbbcbei`",
"igfeeeedddefedcdbbccbcbbbbbdh`",
"hgeeeeedddeeedcccccccbbbbbbcg`",
"geeffgeedeefeebcdccbbbbbbbbbei",
"gefefgedddcddbbcbcbbbbbbbbbbdh",
"geffgfdeeedcbbccbcbbbbbbbbbbdh",
"gefffeddedddcbbcbcbcbbbbbbbbdh",
"geffededeedcdbcccbcbbbbbbbbbdh",
"geffedeeddccbcbbbbbbbbbbbbbbdh",
"gfgfeeeeeeeeebccdbdcbbbbbbbbei",
"igfeededddeeeecbbbbccbbbbbbdg`",
"igeeeeeeddfgeecbcccdbccbbcceh`",
"igfeeeeeddeeeecbcdccccccccdfi`",
"`hgeeeeeeddddccccedccccccceg``",
"``gfeefeeedddccddcdeccbccdf```",
"``igeefeeeddddeedddddddddfh```",
"```igeeeeeeedededdddddddfh````",
"````hgeeeeeeedeedededddfh`````",
"`````igfeeeeedeeedeeeefh``````",
"```````hgfeeeeeeeeefgh````````",
"````````iihgfffffghii`````````",
"```````````iiiiiii````````````",
"`````````ihgfffffghii`````````",
"```````hgfeeddddeeeegh````````",
"`````igfeeeeddededdddefh``````",
"````igeeedeedddcdedebcdeh`````",
"```igeeeeeeddeccccdbebbceg````",
"``iggfdeededdedcccbcccbbceg```",
"``ggggdedeeeddccbbdcbcddbbe```",
"`hfefgededeedcccbbdbbdbbbbdg``",
"igefgfedeeeeccccccbccbbbcbbei`",
"ifefggdddeeebbcdeecbcbbcbbbdh`",
"hfefgfddeddcbbddeecbcbbccbbcg`",
"gffgfeeeeeedbbcdeecbbbbbbbcbei",
"gfggeeeeeedccbbbbbbbbbbbbbdbdh",
"gfgeeeeeeecbcbcbbbbbbbbbbbbbdh",
"gfeeeeeeeecbbcbbcbbbbbccbbbbdh",
"gfeeeeeeeddccccccbbbbbbbbbbbdh",
"gffeeeefddcddcbbbbbbbbbbcbbbdh",
"hffeegfedddddccdccbbbcbcbbbbei",
"igfefefeddeeccccdedbbbbcccbcg`",
"`gefgeeedddecbdeeeebbbbdcbbdh`",
"`gfegegdeeeedccdddebbbcccccei`",
"`igffgeddeeeecccccbbbeddcceg``",
"``hfffeeeeeeedcdcbccdbbccdf```",
"``igeegeeedeeedddcdeeedddfh```",
"```igffeeeeddeedeedcddddfh````",
"````igfeeeedeeeeeeeddddfh`````",
"`````iggeeeeedeeddddeefh``````",
"```````iggfeeeeeeeefgh````````",
"`````````ihgfffffghii`````````",
"```````````iiiiiii````````````",
"````````iihgffffeghii`````````",
"```````hgfeeeddddeeefh````````",
"`````igfeeeeecdcdedddefh``````",
"````igeeedeeddecdccceddeh`````",
"```igfeeeddddeedcdbbcdcceg````",
"``igffffeeddcddcbcccbcdcceh```",
"``hgfffggdddccddcccbbbddcce```",
"`igeeeeefedcddccccbbbbdbdcdg``",
"igeeeeeeffdccdcccbbbbbbccccei`",
"ifeffeeeggccccbccbbbcdbbcbbeh`",
"hfeeeeeffeccbcdbbbbbddbbcbbdg`",
"gfeeeefgeccdccedbbbbbcdbbccbei",
"gefeffffddddccecbbbbbbbabbbbeh",
"gfefggeddedcdddbbbbbbbabbbbbeh",
"gffggedddeddcccbbbbbbbbbbbbbdh",
"gfggeeddddddecbbbbbbbbbbbbbbdh",
"gfgfeedededdecbbcbbbbbbbbbbbdh",
"gfeeeeeeegfedbbccbbbbbcbbccbei",
"hfeeeeeeeeedecbccbbbccdbbbbdg`",
"igeeeeeefeedbbbcdcbceeebbcceh`",
"igffeefeeeedccdcdcbbccebbcdfi`",
"`hfffeeeeeedddcdccbbbcbceceg``",
"``gffeefefedddeedcdcbbbbddf```",
"``igfeeeeedddddedddcdcceefh```",
"```igeeeefedddddcedddddefh````",
"````igfeefededdeedeeeddfh`````",
"`````iggeeeeedeeddeeeefh``````",
"```````iggfeeeeeeeeffh````````",
"`````````ihggffffghii`````````",
"```````````iiiiiii````````````",
"`````````ihgfffeefhii`````````",
"```````hgfeeeedddeeefh````````",
"`````igfeeeeeddededcdefh``````",
"````igeeddeeddedcddcbbceh`````",
"```hgeeeeeeedcddccccbbbceh````",
"``igeffffeeeedbbcbbcbcbcceh```",
"``gffgffeeeeeecbbcbcccbbbce```",
"`igfeeddddcddedcbbcbbcbbbbdg``",
"`gfeededddddddecbbbcbbbbbcbei`",
"`gefeeeededddeecbbbbbbbbbdbeh`",
"igfffeeeedcccedbbbbbcbbbcdbdg`",
"gfffeeeedcdeeecbbbbbbbbbbcdcei",
"geeeefeedeeeeebbbcbbbbbabbbbdh",
"gffeeeedefeedcbbbbbbcaabbbbbdh",
"gfffeeeeffecbbbcbbbbbbbbbbbbdh",
"fefeeefefedccbbbccdbbbbbbbbbdh",
"feeeffffdddcbcbcccdbbbbbbbbbeh",
"geefggeededddcdeeecbbbbbbbcbei",
"igeeffeedededddedbcbbbbbbdcdg`",
"`geefgeeedddddcedbbbbbbbcedeh`",
"`geefgeeedeededeecbccccbbcdfi`",
"`ifefgfeedeeeeecbbcccccbcbeg``",
"``geeefeeeeeededccdcdccbbdf```",
"``igeefeeddddeedccdcddcddfh```",
"```hgeeeeeeedeedcdccceddfh````",
"````igffgeeeeeeddddedddeh`````",
"`````igggfeeeeeeeeddeefh``````",
"```````igggeeeeeeeefgh````````",
"``````````igfffffghii`````````",
"```````````iiiiiii````````````",
"````````iihgfffeefhii`````````",
"```````hgfeeeeedddeegh````````",
"`````igfeeeeededdddcdefh``````",
"````igeeeedddddcdddbccdeh`````",
"```hgeeddddddeedcbbccccceh````",
"``igeeeeeeeeeeeddccbbbcbceh```",
"``geefggfeeeeeeeeedbbbbcbce```",
"`igfggfeedccbbbcccdcbbcccbcg``",
"`gfgfedddddcbbcbbccdbbbbbcbei`",
"igffededdedddccbbbddbbbbbbbdh`",
"hfeeeeededcccdbbbcdbbbbbcbbdg`",
"geeeeeeeddddccbbcddcbabbbcbbei",
"geeeeeedeecccbccdddbbbbbbbbbdh",
"geffefedeedcccedecbbbbbbcbbbdh",
"fefffeeeeeddeeedbbbbbbbbbbbbdh",
"fefeeeeddeeeeecbbbbbbbbbbbbbdh",
"fefeeeedeeeeedbccbbbbbcbbbbbdh",
"geeeeeeeeeeddbcccbbbbddbbbbbei",
"hfeeeedeefedccdbccccddcbbcbdg`",
"igfeeeeeefddccbccccbddbbbcbei`",
"igfgeeeeefededbcdcdceebccccfi`",
"`hgffeeeeffdedddddedbbcccbdg``",
"``gfeeeeefedecedddedbbcccce```",
"``igefeeeeedddddddecdddddeh```",
"```igeeeefdededdeedccccdfh````",
"````hgfefggfeeeeedddccdeh`````",
"`````iggffggedeeededeefh``````",
"```````iggggeeeeeeefgh````````",
"`````````iiggffffghii`````````",
"```````````iiiiiii````````````",
"````````iihgeeffefhii`````````",
"```````hgfeedddddeeefh````````",
"`````hgfeeddeeeddedcdefh``````",
"````hgeefedeeccbdcccccdeh`````",
"```hgeeefedcdcdccdccbbbceh````",
"``igefdeedeeeeedddddccbbceh```",
"``geeeeeeeggeeedddddeedbbce```",
"`hfeeeefgfeccbbbbbbbbcdbbbdg``",
"igeeeegfeedcbbcbbbbbbbcdbbbei`",
"ifeeggfddddebcbbbbbbbbbdbbbdh`",
"hfeeeeedddedbdbbbbcbbbccbbbcg`",
"geeeeeddddedcdcbbcbbbbccbbbbei",
"geffeeeeeddcbccbbbbbbbbabbbbdh",
"geeffeeeeeddcccbbbbbccbbbbbbdh",
"geefeeeeeeeddbcccccddbbbbbbbdh",
"fefeeedeedecccccddddbbbbbbcbdh",
"fefeeeeeeedcbdddddcbbbbbbbdbdh",
"geggeeeeddddddedbbbbbbbbbdbbei",
"hfeffededddddeecbbbbbbbcdbbcg`",
"igefffdeddddddecbbcbbbbbebbdh`",
"`gefeeeedddddedcbdcbccdcebcei`",
"`hfeeeeeeeeddeeccdbdcdecbceg``",
"``gfefeeeeddedeccddddccccdf```",
"``igfeeefeedddeddbdddeeddfh```",
"```igeeeefeeddddcecdedcceh````",
"````igeeeefefgfedeeecddeh`````",
"`````igfeeeeffgedeeeeefh``````",
"```````hgffeefeeeeefgh````````",
"````````iihggggffghii`````````",
"```````````iiiiiii````````````",
"````````iihgffffefhii`````````",
"```````hgfeedddddeeefh````````",
"`````hgeeedddcedeeccdefh``````",
"````hfeeeedeeddddbbcbcdeh`````",
"```igeedeeeeeccbcbcccccdeg````",
"``igeeeefdddcdccdddddddcceg```",
"``geeeedddddcdeeeeddddddcce```",
"`hfeeedeeedeeedbbbbbbbbbcceg``",
"`geefeeeeeffeebbbbbbbbbbbcdfi`",
"`gefeeeeefedcbbbcbbbbbbbbbceh`",
"igeeeeeeeddbbbbccbcbbbbbbbbdg`",
"gffeeeddccccbdccbcbbbbbbbbdcei",
"geeeeeeeddccdcbbbbbbbbbbbcdbdh",
"geeeffeeeeecddcbcbbbbabbccbbeh",
"geeeeeeedddddccccbbbbbcccbbbeh",
"geeeeedddddbdbbccbbbbccdbbbbdh",
"geeeeeeddeddcccbcbbccccbbbbbdh",
"geeeeffedddddcccbcddcbbbbbbbei",
"hfeeedeeeeddccbbbcddbbbbbcbdg`",
"igeeeeeeeeddbbccccddbbbbbcbeh`",
"`gfeeeeeeeeedccbccdccbcbcbcei`",
"`igefeedeeeeeccccceecdbcdceg``",
"``geeeffefdddcddcdedccccddf```",
"``igffgeeeeeeeedccdccccdefh```",
"```iggfeeeeeeeddedccdccdfh````",
"````igfeeeeeeeeeffeddddeh`````",
"`````igfeeeeeeeffgeeeefh``````",
"```````hgffeeeeffeefgh````````",
"`````````ihgffggfghii`````````",
"```````````iiiiiii````````````",
"````````iihgfffeefhii`````````",
"```````hgfeeedddddeefg````````",
"`````hgfeeeedcccccdddefh``````",
"````hfeeddeedeeeecccbbceh`````",
"```igeeeedeccedddcbbbbbceg````",
"``igeedeeeddecbbbbbcccdddeh```",
"``geeedfedeebcbcbbcdeeddcdf```",
"`hfeeeededdcccccddedbbbbbbeg``",
"igfeeeeeeeedccddeeebbbbbbbcfi`",
"igeffeeeeecdcdeddbbbbbbbbbbei`",
"hfeeedededdcbccbbbbbbbbbbbbeh`",
"geeeeeeeecdcbbbbbbbbbbbbbbbcfi",
"gefeeedddeddddbbbbbbbbbbbbbbei",
"fefeefddeeecddcbcbbbbbbbbbbbeh",
"fegfeeddddccccbbbbbbbbbbbbcceh",
"feffeededddccbbbcbbbbbbbbbcceh",
"fefeeeeeddcddbbccbbbbbbbccdbdh",
"gefeeeededeeedccbcbbbbbcdbbbei",
"hfefedddddedeedcbbbbbbbddbbdg`",
"`gfgeedeeddecddebbbbbbbddbbei`",
"`gffefedddeeedcedecbbbcecbcfi`",
"`hfeefeeedeeddeddcccbcdecbeg``",
"``gfeeeeeeeeedecdccccbcdcdf```",
"``igffeeeeffdddeddddcdddefh```",
"```igfefffdddddddeddeccdfh````",
"````igffgeeeeeeedeeefddfh`````",
"`````iggfeedeeeeedeeeefh``````",
"```````iggfeeeeeeeffgh````````",
"i````````ihgggfffghii`````````",
"```````````iiiiiii````````````",
"````````iihgeeffefhii`````````",
"```````hgfeeddedddeefh````````",
"`````igfeeeededcccccdefh``````",
"````igeeedddddecdceebbceh`````",
"```igeeedddddccbddcdcbbceh````",
"``igffeeeeddcdcccbbbbbbcdfh```",
"``geeeeedddeebddbbbbbbceddf```",
"`hfeeeeeddddcdcbcbbbcdedbbdg``",
"`geeeeedddddcddcbbbbcddbbbbei`",
"ifefeeeeeededebbbbcddcbbbbbdh`",
"heefeeeeecddbcbbbbbbbbbbbbbcg`",
"geefefddcdeeccbbbbbbbabbbbbbei",
"feeeeedddedbcbcbcccbbabbbbbbdh",
"feefeeedeecbccccbbbbbbabbbbbdh",
"geefeeeedecbbbbbbbbbbbbbbbbbei",
"geeeeeeeeddbebbccbbbbbbbbbbbei",
"geffeeeeeecccdbbccbbbbbbbbbbeh",
"geefeefeddddcccddedbbbbbbbbcei",
"hfeeeeefdddeccbcbddcbbbbbbcdg`",
"igeeeeefddddcccbccccdbbbbbceh`",
"`gfeeeeeeeedcccccdcceccbbbdfi`",
"`ifeeefeedededdddbbdcccccceg``",
"``geeeeeeedddcdeddedcbbbcdf```",
"``igeefeededeeffdbcdeeccdeh```",
"```igeeeeeeefeddddccedddeh````",
"````igeeefggedeedeedeeefh`````",
"`````igfeffeedeeeeeeefgh``````",
"```````hgggeeeeeeefggh````````",
"````````iihgfffffghi``````````",
"```````````iiiiiii````````````",
"````````iihgeefffghii`````````",
"```````hgfeedddddeeefg````````",
"`````igfeeeeedddedcccdfh``````",
"````igeeddedddcbcccdbcceg`````",
"```igeeededcccdcbcbbdcbbeh````",
"``igfeefedeeddcbbcbcdbbbbeh```",
"``gfeeeeedddbcbeddbbbbbbbdf```",
"`hgeeedeeedcbcbcbbbbbbbbddeg``",
"igeeededeedccccbbbbbbbbbcebei`",
"ifeeeeedeeddcdbbcbdbbbbdcbbdh`",
"hfeeeeeeedecdcbbbbbbbbbbbbbcg`",
"geeeeeeededcbbcccbbbbabbbbbbei",
"geefeeeddddbbbccbbbbbbbbbbbbdh",
"geefeeeedddcbccbbbbbbabbbbbbdh",
"geefeeeedeeddecbbbbbbbbbbbbbdh",
"fefeeeeededdecbcbcbbbbbbbbbbdh",
"fefeeeeededccbcbbbbbbbbbbbbbdh",
"geeeeeeeeeeedbccbbbbbcdbbbbbei",
"hfeeeedeeeeeedbbcbbbbbccbbbeg`",
"ifeeffdeeddedbdbbbbbbcbcebbei`",
"`gfgggedeededdccbbbbcccceecfi`",
"`igfeeeddeeeeddcddbccbbccceg``",
"``geeeeeeeeedccccbccdccbccf```",
"``igfeeeeeedddedcdeecccedeh```",
"```igeeffedeedeeeecddcdefh````",
"````igffeeeeefgeddddddegi`````",
"`````iggeeeeffeededeefgi``````",
"```````igfeeeeeeeeefgh````````",
"`````````ihgfffffghi``````````",
"```````````iiiiiii````````````",
"`````````ihgfeeeefgii`````````",
"```````hgfeeeeddddeefg````````",
"`````igfeeedeededdccdeeh``````",
"````igeedeeddeccdbbbcbceg`````",
"```igeeeeddcddcbcbccbbbceg````",
"``igeeeeeeeedccdbcbbbcbdbeg```",
"``gfeeeeeddecccbcbbbddbbbbe```",
"`hfeeeedddcdccbbbbbbbbbbbbeg``",
"`geeeeedddedcddbbbbbbbbbbbcfi`",
"igeeeddeeddecddbbbcbbbbbbbbeh`",
"igeeeeedeccdccccbcbbbbbbbbbcg`",
"gfeeeededccecdcbbbbbbbbbbbbbei",
"gffeeeeeedccccbcbbbbbababbcbdh",
"gffeeeeeddccccbbbbbbbaabbbbbeh",
"geefeeeedddcdccecbcbbbbbbbbbeh",
"gefeedeeeeccdbccccbbbbbbbbbbdh",
"geeefeeedeecdcdccbbbbbbbbbbbdh",
"gefefededddddcddebbbbbbbbccbei",
"hfeefedeedddeddddebbbbbbbdcdg`",
"igefeedeeeddccccdcbbbbbbbcceh`",
"`gffffegggedcdccdccccbbbcccei`",
"`hfeffeddedddceecdbccdbcbceg``",
"``geeefeeedddcdedbcbbbbccde```",
"``igfefeeeedededdbcddeecdfh```",
"```igfeeeeffededddefecddfh````",
"````igfeeffeedeeeeedcddfh`````",
"`````igfeffeeeeffdddeefh``````",
"```````igggeeeeeeeefgh````````",
"`````````ihgfffffghii`````````",
"```````````iiiiiii````````````",
"````````iihgeeeeefgii`````````",
"```````hgfeeddddddeefg````````",
"`````igfeeeeddddddcccdeh``````",
"````igeeedeeddcbddccbbceh`````",
"```igeeeeeedccdbccbbbbbceh````",
"``igeeeeeeeddcdcdcbcbcbbbeg```",
"``gfeeedddeedcbcdcbbbbbbbbe```",
"`hgeefeedddebbbbbbbcbbbbbbcg``",
"`gfffeedededbbbcbbbccbbbbbbei`",
"`gefeeedeedcccbbbcbbcbbbbbbeh`",
"igeeeeedddecbcbbbcbbbbbbbbbdg`",
"geefeeeeccdcbcbbbcbbbbbbbbbbei",
"fefefeeddddbcccbbbbbbbaabbbbeh",
"geefeeededdbcdbbbbbbbbbbbbbbeh",
"geffeeeeeedbccbbbbbbbcbcbbbbdh",
"gffefeededccccccbbbbbbbbbbbbdh",
"gffeeededeedddbccbcbbbbbbbbbdh",
"gfffeeeeeeedcccbbccbbbdbbbbbei",
"igfeeedeeeddcdcbbbcbbcdbbcbdg`",
"`gffefeeeeddccdbbbbbbbcbcbbei`",
"`gffeeeeeeddefeecbbccbcccbbei`",
"`igfefeeeeeedcdcbbccccccdbdg``",
"``gfeeeeeedeedcccbccdcbbbce```",
"``igfffeeeeededecdddddbcdeh```",
"```igfeefeeedeeeddcddeddfh````",
"````igeeefeeefeedddeeddeh`````",
"`````igfeeeeefedeeeeeefh``````",
"```````hggfeeeeeeeffgh````````",
"`````````ihgfffffghii`````````",
"```````````iiiiiii````````````",
"`````````ihgeeeefghhi`````````",
"```````hgfeedddddeeefg````````",
"`````igfeeeeedccddccdefh``````",
"````igfeeeeedddbdcbcdbceg`````",
"```igeeeeeeedddcccbbcbbbeg````",
"``igfeeeeeeddedbbbdcccbbbeg```",
"``ggfeeedeeecccdbcbbdcbbbbe```",
"`igfeeeeedddbdbcbbbbbbbbbbcg``",
"`gfefeeeeedecddcbbbbbbbccbbei`",
"`gffeeeededdccbbbbbbbbbbbbbeh`",
"hgffeeededcbbcbcbbbbbbbbbbbcg`",
"geefeeeeddddbcbbbbbbbabbbbbbei",
"fefgefedeecccbbbbbbbbabbbbbbdh",
"gfffefeeeeddbcbbbbbbbabbbbbbdh",
"gfffeeeeeedcccccbbbbbbbbbcbbdh",
"gffeeeeeedddcbbbcbbbbbbbbbbbdh",
"geeeeeeeeddbdcccccbbbbbbbbbbdh",
"geefeeeeededdcdcbbbbbbbbbbbbei",
"hfeeeeeddedecedbbbcbbbcbbdbcg`",
"igeeeeeeeedddccbbbbcbbbbbdbdh`",
"igfffeeeeeeddddcbdeeecbccccei`",
"`hfeeeeeeeeeededbbbcbbcdcbdg``",
"``gfeeeeeedddddecccbbbbccce```",
"``igfffeeeedddeeddddcddddeh```",
"```igfeeeedeeddedeeeccddfh````",
"````igeeeeedeeeeeeddcdeeh`````",
"`````hgfeeeeeedefeddefgh``````",
"```````hggfeeeeeeeefgh````````",
"`````````ihgfffffghii`````````",
"```````````iiiiiii````````````"
};
