#define planet_width 30
#define planet_height 30
static char planet_bits[] = {
    0x00, 0xf8, 0x03, 0x00, 0x00, 0x07, 0x1c, 0x00, 0xc0, 0x00, 0x60, 0x00, 0x20, 0x00, 0x80,
    0x00, 0x10, 0x00, 0x00, 0x01, 0x08, 0x00, 0x00, 0x02, 0x04, 0x00, 0x00, 0x04, 0x04, 0xf0,
    0x03, 0x04, 0x02, 0xf8, 0x07, 0x08, 0x02, 0x1c, 0x0e, 0x08, 0x02, 0x0c, 0x0c, 0x08, 0x01,
    0x00, 0x0c, 0x10, 0x01, 0x00, 0x0e, 0x10, 0x01, 0x00, 0x07, 0x10, 0x01, 0x80, 0x03, 0x10,
    0x01, 0xc0, 0x01, 0x10, 0x01, 0xc0, 0x00, 0x10, 0x01, 0xc0, 0x00, 0x10, 0x02, 0xc0, 0x00,
    0x08, 0x02, 0x00, 0x00, 0x08, 0x02, 0x00, 0x00, 0x08, 0x04, 0xc0, 0x00, 0x04, 0x04, 0xc0,
    0x00, 0x04, 0x08, 0x00, 0x00, 0x02, 0x10, 0x00, 0x00, 0x01, 0x20, 0x00, 0x80, 0x00, 0xc0,
0x00, 0x60, 0x00, 0x00, 0x07, 0x1c, 0x00, 0x00, 0xf8, 0x03, 0x00, 0x00, 0x00, 0x00, 0x00};
