#define starm_width 16
#define starm_height 16
static unsigned char starm_bits[] = {
   0x00, 0x00, 0x80, 0x01, 0x80, 0x01, 0x80, 0x01, 0x80, 0x01, 0xe0, 0x07,
   0xe0, 0x07, 0xfc, 0x3f, 0xfc, 0x3f, 0xe0, 0x07, 0xe0, 0x07, 0x80, 0x01,
   0x80, 0x01, 0x80, 0x01, 0x80, 0x01, 0x00, 0x00};
