/* XPM */
static char * starm_xpm[] = {
"16 16 8 1",
" 	c #000000000000",
".	c #7F7F50503F3F",
"X	c #E1E190900000",
"o	c #FFFFFFFF0000",
"O	c #FFFFFFFFC1C1",
"+	c #B0B070700000",
"@	c #FFFFC8C80000",
"#	c #FFFFFFFFFFFF",
"       ..       ",
"       XX       ",
"       oo       ",
"   .   OO   .   ",
"    +.+OO+.+    ",
"    .@o##o@.    ",
"    +oO##Oo+    ",
".+XoO######OoX..",
".+XoO######ooX..",
"    +oO##Oo+    ",
"    .@o##o@.    ",
"    +.+OO+.+    ",
"   .   OO   .   ",
"       oo       ",
"       XX       ",
"       ..       "};
