#define star_width 30
#define star_height 300
static char star_bits[] = {
0x00, 0x20, 0x00, 0x00, 0x00, 0x10, 0x00, 0x00, 0x00, 0x10, 0x00, 0x00,
0x00, 0x10, 0x02, 0x00, 0x40, 0x30, 0x03, 0x00, 0x00, 0xfc, 0x0f, 0x00,
0x00, 0x07, 0x1c, 0x00, 0x00, 0x0b, 0x30, 0x00, 0xf8, 0x09, 0x22, 0x00,
0xc0, 0x18, 0x64, 0x1c, 0x40, 0x11, 0xcc, 0x17, 0x60, 0x03, 0x8c, 0x03,
0x60, 0x00, 0x86, 0x00, 0x20, 0x04, 0x80, 0x00, 0x20, 0x18, 0xb8, 0x00,
0x3c, 0x1e, 0xa0, 0x14, 0x7e, 0x00, 0x80, 0x06, 0x72, 0x02, 0xc4, 0x03,
0x60, 0x40, 0xc8, 0x01, 0x40, 0x40, 0x70, 0x00, 0xc0, 0x40, 0xf0, 0x00,
0xc0, 0x03, 0xd8, 0x00, 0x80, 0x77, 0xce, 0x03, 0x80, 0xfc, 0x07, 0x06,
0xc0, 0x40, 0x00, 0x04, 0xc0, 0x60, 0x00, 0x00, 0x40, 0x10, 0x00, 0x00,
0x00, 0x00, 0x00, 0x00, 0x00, 0x00, 0x00, 0x00, 0x00, 0x00, 0x00, 0x00,
0x00, 0x00, 0x00, 0x00, 0x00, 0x10, 0x00, 0x00, 0x00, 0x10, 0x04, 0x00,
0x00, 0x10, 0x02, 0x00, 0x00, 0x30, 0x03, 0x00, 0x00, 0xf8, 0x1f, 0x00,
0x00, 0x06, 0x1c, 0x00, 0x18, 0x0f, 0x30, 0x00, 0xf8, 0x09, 0x26, 0x02,
0xc0, 0x18, 0x66, 0x1d, 0x40, 0x11, 0xc8, 0x17, 0x60, 0x03, 0x88, 0x13,
0x60, 0x00, 0x80, 0x00, 0x20, 0x00, 0x80, 0x00, 0x20, 0x0c, 0xb8, 0x00,
0x3c, 0x1e, 0xa0, 0x10, 0x7e, 0x10, 0x80, 0x06, 0x72, 0x00, 0xc4, 0x03,
0x62, 0x80, 0xc8, 0x01, 0x44, 0x80, 0x70, 0x00, 0xc0, 0x80, 0xf0, 0x00,
0xc0, 0x03, 0xd8, 0x00, 0x80, 0x77, 0xce, 0x03, 0x80, 0xfc, 0x07, 0x02,
0xc0, 0x40, 0x00, 0x00, 0x40, 0x60, 0x00, 0x00, 0x00, 0x10, 0x00, 0x00,
0x00, 0x10, 0x00, 0x00, 0x00, 0x00, 0x00, 0x00, 0x00, 0x00, 0x00, 0x00,
0x00, 0x00, 0x00, 0x00, 0x00, 0x00, 0x04, 0x00, 0x00, 0x10, 0x04, 0x00,
0x00, 0x10, 0x02, 0x00, 0x00, 0x30, 0x03, 0x00, 0x00, 0xfc, 0x1f, 0x00,
0x00, 0x06, 0x3c, 0x04, 0x1c, 0x0f, 0x30, 0x02, 0xf8, 0x09, 0x26, 0x02,
0xc0, 0x18, 0x66, 0x1d, 0x40, 0x11, 0xc0, 0x17, 0x60, 0x03, 0x80, 0x11,
0x60, 0x00, 0x80, 0x08, 0x20, 0x00, 0x80, 0x00, 0x20, 0x1c, 0xb8, 0x00,
0x2c, 0x16, 0xa0, 0x10, 0x6e, 0x88, 0x80, 0x02, 0x72, 0x80, 0xc4, 0x03,
0x62, 0x80, 0xc8, 0x01, 0x46, 0x00, 0x50, 0x00, 0xc4, 0x00, 0xf0, 0x00,
0xc0, 0x03, 0xd8, 0x00, 0x80, 0x77, 0xce, 0x03, 0x80, 0xfc, 0x07, 0x06,
0x80, 0x40, 0x00, 0x00, 0x40, 0x60, 0x00, 0x00, 0x00, 0x10, 0x00, 0x00,
0x00, 0x18, 0x00, 0x00, 0x00, 0x00, 0x00, 0x00, 0x00, 0x00, 0x00, 0x00,
0x00, 0x00, 0x00, 0x00, 0x00, 0x00, 0x0c, 0x00, 0x00, 0x10, 0x04, 0x00,
0x00, 0x10, 0x02, 0x00, 0x00, 0x30, 0x43, 0x00, 0x00, 0xf8, 0x1f, 0x08,
0x00, 0x06, 0x38, 0x04, 0x08, 0x0f, 0x32, 0x02, 0xf8, 0x09, 0x25, 0x02,
0xc0, 0x18, 0x62, 0x19, 0x40, 0x11, 0xc0, 0x13, 0x60, 0x03, 0x80, 0x11,
0x60, 0x00, 0x80, 0x08, 0x20, 0x00, 0x80, 0x04, 0x20, 0x00, 0xb8, 0x00,
0x24, 0x1e, 0xa0, 0x18, 0x6e, 0x9c, 0x80, 0x00, 0x62, 0x80, 0xc4, 0x03,
0x62, 0x82, 0xc8, 0x01, 0x46, 0xc0, 0x70, 0x00, 0xcc, 0x60, 0xf0, 0x00,
0xd0, 0x23, 0xd8, 0x00, 0x80, 0x77, 0xce, 0x01, 0x80, 0xfc, 0x07, 0x06,
0x80, 0x40, 0x02, 0x00, 0x00, 0x60, 0x00, 0x00, 0x00, 0x18, 0x00, 0x00,
0x00, 0x00, 0x00, 0x00, 0x00, 0x00, 0x00, 0x00, 0x00, 0x00, 0x00, 0x00,
0x00, 0x00, 0x00, 0x00, 0x00, 0x00, 0x1e, 0x00, 0x00, 0x00, 0x04, 0x00,
0x00, 0x10, 0x02, 0x00, 0x00, 0x30, 0x03, 0x08, 0x00, 0xf8, 0x1f, 0x00,
0x00, 0x06, 0x38, 0x00, 0x00, 0x0f, 0x30, 0x00, 0xe0, 0x09, 0x20, 0x02,
0xc0, 0x18, 0x60, 0x01, 0x40, 0x11, 0xc0, 0x13, 0x60, 0x03, 0x80, 0x11,
0x60, 0x00, 0x80, 0x0c, 0x20, 0x00, 0x80, 0x06, 0x20, 0x00, 0xb8, 0x00,
0x20, 0x1e, 0xa0, 0x0c, 0x66, 0x9e, 0x80, 0x00, 0x62, 0x80, 0xc0, 0x03,
0x62, 0x80, 0xc0, 0x01, 0x46, 0xc0, 0x70, 0x00, 0xdc, 0x40, 0xf0, 0x00,
0xf0, 0x03, 0xd8, 0x00, 0x80, 0x77, 0x8e, 0x01, 0x80, 0xfd, 0x07, 0x00,
0x00, 0x00, 0x06, 0x00, 0x00, 0x60, 0x00, 0x00, 0x00, 0x18, 0x00, 0x00,
0x00, 0x00, 0x00, 0x00, 0x00, 0x00, 0x00, 0x00, 0x00, 0x00, 0x00, 0x00,
0x00, 0x00, 0x00, 0x00, 0x00, 0x00, 0x1e, 0x00, 0x00, 0x00, 0x25, 0x00,
0x00, 0x00, 0x04, 0x08, 0x00, 0x30, 0x01, 0x00, 0x00, 0xfc, 0x1f, 0x00,
0x00, 0x07, 0x3c, 0x00, 0x00, 0x0f, 0x30, 0x00, 0xc0, 0x09, 0x66, 0x00,
0xe0, 0x18, 0xe2, 0x01, 0x40, 0x11, 0xc0, 0x01, 0x60, 0x03, 0x80, 0x11,
0x60, 0x00, 0x80, 0x16, 0x20, 0x00, 0x80, 0x07, 0x20, 0x10, 0xb8, 0x00,
0x20, 0x1e, 0xa0, 0x06, 0x62, 0x9c, 0x80, 0x00, 0x60, 0x84, 0xc4, 0x03,
0x62, 0x80, 0xc8, 0x01, 0x46, 0xc0, 0xf0, 0x00, 0xfc, 0x60, 0x70, 0x00,
0xf0, 0x23, 0xd8, 0x00, 0x80, 0x77, 0x8e, 0x01, 0x00, 0xfd, 0x07, 0x00,
0x00, 0x00, 0x06, 0x00, 0x00, 0x28, 0x00, 0x00, 0x00, 0x18, 0x00, 0x00,
0x00, 0x00, 0x00, 0x00, 0x00, 0x00, 0x00, 0x00, 0x00, 0x00, 0x00, 0x00,
0x00, 0x00, 0x00, 0x00, 0x00, 0x00, 0x1a, 0x00, 0x00, 0x00, 0x25, 0x10,
0x00, 0x00, 0x21, 0x00, 0x00, 0x38, 0x00, 0x00, 0x00, 0xfc, 0x1f, 0x00,
0x00, 0x06, 0x3c, 0x00, 0x00, 0x0f, 0x30, 0x00, 0xe0, 0x09, 0x60, 0x00,
0xe0, 0x18, 0xe0, 0x01, 0x60, 0x11, 0xc0, 0x01, 0x60, 0x03, 0x80, 0x09,
0x60, 0x00, 0x80, 0x13, 0x20, 0x00, 0x80, 0x03, 0x20, 0x38, 0xb8, 0x00,
0x30, 0x3e, 0xa0, 0x03, 0x70, 0x38, 0x80, 0x01, 0x61, 0x02, 0xc1, 0x01,
0x60, 0x00, 0xc2, 0x01, 0x44, 0x02, 0xe0, 0x00, 0xfc, 0x02, 0x70, 0x00,
0xf0, 0x43, 0x58, 0x00, 0x40, 0xf7, 0x8e, 0x01, 0x00, 0xfe, 0x0f, 0x00,
0x00, 0x10, 0x02, 0x00, 0x00, 0x08, 0x00, 0x00, 0x00, 0x08, 0x08, 0x00,
0x00, 0x00, 0x00, 0x00, 0x00, 0x00, 0x00, 0x00, 0x00, 0x00, 0x00, 0x00,
0x00, 0x00, 0x00, 0x00, 0x00, 0x00, 0x10, 0x10, 0x00, 0x00, 0x21, 0x00,
0x00, 0x80, 0x20, 0x00, 0x00, 0xbc, 0x20, 0x00, 0x00, 0xfe, 0x1f, 0x00,
0x00, 0x07, 0x3c, 0x00, 0x80, 0x0f, 0x34, 0x00, 0xf8, 0x09, 0x60, 0x00,
0xe0, 0x18, 0xe0, 0x01, 0x60, 0x11, 0xc0, 0x01, 0x60, 0x03, 0x80, 0x01,
0x60, 0x00, 0x80, 0x01, 0x30, 0x60, 0x80, 0x01, 0x38, 0x7c, 0xb8, 0x00,
0x30, 0x3e, 0xa0, 0x03, 0x60, 0x10, 0x80, 0x01, 0x60, 0x02, 0xc1, 0x01,
0x60, 0x00, 0xc2, 0x01, 0x40, 0x00, 0xe0, 0x00, 0xf8, 0x00, 0x70, 0x00,
0xf0, 0x03, 0xd8, 0x00, 0x40, 0xf7, 0x9f, 0x00, 0x00, 0xfe, 0x0f, 0x00,
0x00, 0x90, 0x06, 0x00, 0x00, 0x08, 0x00, 0x00, 0x00, 0x00, 0x00, 0x00,
0x00, 0x00, 0x00, 0x00, 0x00, 0x00, 0x00, 0x00, 0x00, 0x00, 0x00, 0x00,
0x00, 0x00, 0x00, 0x00, 0x00, 0x00, 0x00, 0x00, 0x00, 0x10, 0x00, 0x00,
0x00, 0x90, 0x04, 0x00, 0x00, 0xb0, 0x26, 0x00, 0x00, 0xfe, 0x27, 0x00,
0x00, 0x07, 0x3c, 0x00, 0x80, 0x0f, 0x30, 0x00, 0xf0, 0x09, 0x60, 0x00,
0xe0, 0x18, 0xe0, 0x06, 0x60, 0x11, 0xc0, 0x06, 0x60, 0x03, 0x80, 0x00,
0x60, 0x00, 0x83, 0x01, 0x20, 0xc0, 0x81, 0x00, 0x38, 0xdc, 0xb8, 0x00,
0x3c, 0x1e, 0xa0, 0x02, 0x70, 0x10, 0x80, 0x03, 0x60, 0x02, 0xc4, 0x01,
0x60, 0x00, 0xc8, 0x01, 0x60, 0x04, 0xe0, 0x00, 0xf0, 0x04, 0x70, 0x00,
0xc0, 0x07, 0xd8, 0x00, 0xc0, 0x77, 0x8e, 0x01, 0x40, 0xfc, 0x07, 0x00,
0xc0, 0xc0, 0x00, 0x00, 0x00, 0x80, 0x00, 0x00, 0x00, 0x00, 0x00, 0x00,
0x00, 0x00, 0x00, 0x00, 0x00, 0x00, 0x00, 0x00, 0x00, 0x00, 0x00, 0x00,
0x00, 0x00, 0x00, 0x00, 0x00, 0x00, 0x08, 0x00, 0x00, 0x10, 0x04, 0x00,
0x00, 0x10, 0x04, 0x00, 0x00, 0x30, 0x06, 0x00, 0x00, 0xfc, 0x07, 0x00,
0x00, 0x07, 0x1c, 0x00, 0x80, 0x0f, 0x30, 0x00, 0xf0, 0x09, 0x20, 0x00,
0xc0, 0x18, 0x60, 0x1a, 0x60, 0x11, 0xc4, 0x06, 0x60, 0x03, 0x8c, 0x00,
0x20, 0x00, 0x86, 0x01, 0x20, 0x00, 0x83, 0x00, 0x3c, 0x18, 0xb8, 0x00,
0x3e, 0x1e, 0xa0, 0x1c, 0x70, 0x10, 0x80, 0x06, 0x60, 0x02, 0xc4, 0x03,
0x60, 0x20, 0xc8, 0x01, 0x40, 0x20, 0x60, 0x00, 0xc0, 0x20, 0xf0, 0x00,
0x80, 0x03, 0xd8, 0x00, 0x80, 0x77, 0x9c, 0x03, 0xc0, 0xfc, 0x07, 0x00,
0xc0, 0x80, 0x00, 0x00, 0x00, 0xc0, 0x00, 0x00, 0x00, 0x00, 0x00, 0x00,
0x00, 0x00, 0x00, 0x00, 0x00, 0x00, 0x00, 0x00, 0x00, 0x00, 0x00, 0x00};
