/* XPM */
static char * star_xpm[] = {
"30 150 10 1",
" 	c None",
".	c #7F7F50503F3F",
"X	c #E1E190900000",
"o	c #B0B070700000",
"O	c #FFFFC8C80000",
"+	c #FFFFFFFF3F3F",
"@	c #FFFFFFFF0000",
"#	c #FFFFFFFF7F7F",
"$	c #FFFFFFFFC1C1",
"%	c #FFFFFFFFFFFF",
"          .XooooXoo..o        ",
"      ...oXXXOXXXOOoXoo.      ",
"     . .oOOOO+@OOOOOXXXo.     ",
"     ..XOO++######++OOOooo.   ",
"    .oXOO###$#$$$$##@@OOXo.   ",
"  ...XOO##$$%%$%%%$$##+OOo..  ",
"  ..OO+#$$%%%%%%%%%%$##@OXo.  ",
" .oOO+##$%%%%%%%%%%$%$$#@OXo. ",
"..oOO#$$%%%%%%%%%%%%%%$$#@X.. ",
" oO+##$%%%%%%%%%%$%%%%%$##OOo ",
".oO+#$%%%%%%%%%%%%%%%%%%$#@Oo ",
".XO+#$%%%%%%%%%%%%%%%%%%$#+OX.",
"oO+#$$%%%%%%%%%%%%%%%%%%%$#OOo",
"oOO#$%%%%%$#%%%%%%%%%%%%%$#+Oo",
"oOO#$%%%%%%%%%%%%%%%%%%%%$#+OX",
"oO+#$%%%%%%%%%%%%%%%%%%%%$#OOo",
"oOO#$%%%%%%%%%%%%%%%%%%%%$@OXo",
"oOO#$%%%%%%%%%%%%%%%%%%$%$#OOo",
"oX++#$%%%%%%%%%%%%%%%%%%$#OOoo",
" OO@#$%%%%%%%$%%%%%%%%%%$#OXo.",
" oO+##$%%%%%%%%%%%%%%%%$#@OXo ",
"..OO+#$$%%%%%%%%%%%%%%$$#OOo..",
"...XOO#$$%%%%%%%%%%%%$$#+OO.. ",
"  .oOO+#$$%%%%%%%%$%$$#+OXX.  ",
"  ..oOO+@#$$$$%%%$$$##+OXo.   ",
"   ..oOOO###$$$$$$###OOOo.    ",
"    . oOO+++######++OOOo..    ",
"      .ooOXOO++O+OOOXo..      ",
"      ...ooOOOXOOOXoo         ",
"           oooooooo           ",
"          .oooooXoo..         ",
"       ...oOXXoo@oooX..       ",
"     ..ooXOO+OOO++OOOX..      ",
"    ..XXO+O+######++OOOo..    ",
"    .oXOOOO#$#$$$$##@@OXX.    ",
"  ..oXOO##$$%%$%%%$$##+OOo.   ",
"  .oOOOO$$%%%%%%%%%%$##+OOo.  ",
" .oOO+##$%%%%%%%%%%$%$$#+OXo. ",
"..oXO#$$%%%%%%%%%%%%%%$$#OOo. ",
".oOO##$%%%%%%%%%%%%%%%%$##OX. ",
".oOO#$%%%%%%%%%%%%%%%%%%$$OOo ",
"oXOO#$%%%%%%%%%%%%%%%%%%$$@OX.",
"oX+O$$%%%%%%%%%%%%%%%%%%%$@OOo",
"oOO#$%%%%%%%%%%%%%%%%%%%%$#+Oo",
"oO+#$%%%%%%%%%%%%%%%%%%%%$#+OX",
"oO+#$%%%%%%%%%%%%%%%%%%%%$#+Oo",
"oXO#$%%%%%%%%%%%%%$#%%%%%$@OXo",
"oX+#$%%$#%%%%%%%%%%#%%%$%$#OOo",
"oX++#$%$#%%%%%%%%%%%%%%%$#+XOo",
" OO@#$%%%%%%%%%%%%%%%%%%$#+Oo.",
" o@O##$%%%%%%%%%%%%%%%%$#OOXo ",
" .oX+#$$%%%%%%%%%%%%%%$$#OOoo ",
" .oOOO#$$%%%%%%%%%%%%$$#+OOo  ",
"  .oOX+#$$%%%%%%%%$%$$#+OOo.  ",
"  ..oOO+@#$$$$%%%$$$##+OXo.   ",
"   ..oOOO###$$$$$$++#@OOo.    ",
"    ...oOOO+##X###OOOOOo..    ",
"     ..ooOXO+XOO+OOOX...      ",
"      . .oooOooOOOooo.        ",
"           oooooooo           ",
"        . .oooooXoo..         ",
"       ..oXOXXOO@OOoX.        ",
"       ooXOO++@@++OOOXo .     ",
"      oOO+++######+++OOo.     ",
"   . oO@+###$#$$$$##@@OXo     ",
"    oXO+##$$%%$%%%$$##+OOo..  ",
"  .oOO+#$$%%%%%%%%%%$##++Oo.  ",
" .oO++##$%%%%%%%%%%$%$$#++Oo  ",
"..oO+#$$%%%%%%%%%%%%%%$$#+Oo. ",
" oO+##$%%%%%%#%%%%%%%%%$##OOo ",
".oO+#$%%%%%%%%%%$%%%%%%%$#@Oo ",
"oXO+#$%%%%%%%%%%%%%%%%%%$#+OX.",
"oO+#$$%%%%%%%%%%%%%%%%%%%$#+Xo",
"oO+#$%%%%%%%%%%%%%%%%%%%%$#+Xo",
"oO+#$%%%%%%%%%%%%%%%%%%%%$#+OX",
"oO+#$%%%%%%%%%%%%%%%%%%%%$#+Oo",
"oO+#$%%%%$%%%%%%%%%%%%%%%$@+Xo",
"oO+#$%%%#$%%%%%%%%%%%%%$%$#+Oo",
"oX++#$%%%%%%%%%%%%%%%%%%$#+OOo",
" OO@#$%%%%%%%%%%%%%%%%%%$#+Oo.",
" o@+##$%%%%%%%%$$$#%%%%$#@@Xo ",
" .O@+#$$%%%%%%%%%%%%%%$$#+Oo  ",
" .oX+O#$$%%%%%%%%%%%%$$#++Oo. ",
" ..oO++#$$%%%%%%%%$%$$#++Oo.  ",
"   .oX++@#$$$$%%%$$$##+OXo    ",
"    .oO@@###$$$$$$###@OOo..   ",
"    ..oOO+++######+++OO...    ",
"      .ooOX@+++++OOOXoo.      ",
"        .ooOOOXOOOOoo         ",
"           oooooooo           ",
"          .oooooXoo..         ",
"        .oXOXXOO@OOoX..       ",
"      XXoXOO++@@++OOOXo..     ",
"    ..XOO+++######+#+OXX..    ",
"   ..XO@+###$#$$$$##@#OXX..   ",
"  ..XXO+##$$%%%%%%$$##+OXX.   ",
" ..XOO##$$%%%%%%%%%%$###+Xo.. ",
" .oO++##%%%%%%%%%%%$%%$##+Xo. ",
"..oO+##%%%%%%%%%%%%%%%%$#+Oo. ",
" oO+##%%%%%%%%%%%$%%%%%%##OO. ",
".oO##%%%%%%%%%%%%%%%%%%%%##O. ",
"oXO+#%%%%%%%%%%%%%#%%%%%$%#OX.",
"oO+#$%%%%%%%%%%%%%%%%%%%%$#+Xo",
"oO+#%%%%%%$#%%%%%%%%%%%%%$#+Xo",
"oO+#%%%%%%%%%%%%%%%%%%%%%$#+OX",
"oO+#%%%%%#%%%%%%%%%%%%%%%$#+Oo",
"oO+#$%%%%%%%%%%%%%%%%%%%%$#+Xo",
"oO+#$%%%%%%%%%%%%%%%%%%$%%#+Oo",
"oX++#$%%%%%%%%%%%%%%%%%%%##OOo",
".OO@#$%%%%%%%$%%%%%##%%%$#+Oo.",
" o@+##$%%%%%%%%%%%%%%%%%##@X. ",
"..O@+##$%%%%%%%%%%%%%%%$#+OX. ",
" .oX+##$$%%%%%%%%%%%%%$#++O.. ",
" .XXO++#$%%%%%%%%%$%%%#++Oo.  ",
"  .XXX++##$%%$%%%$%%##+OXo.   ",
"   .XXO@@###%%%%%%####OXX.    ",
"    .XXOO+++#######++OOo.     ",
"     ..XXOX@++###OOOXo...     ",
"       ..ooOOOXOOOOoo         ",
"           oooooooo           ",
"          .oooooXoo..         ",
"       ..oXOXXOO@OOoX.        ",
"      .oXXO+++#@++OOOXo       ",
"     .oOO+#++#####+++OO..     ",
"    .XO@+###$$$$$$$#@@OX.o.   ",
"   .XXO+##$$$%%%%%$$$#+OXX..  ",
"  .XOO+#$$%%%%%%%%%%$$$++OXo. ",
"  oX++##$%%%%%%%%%%%%$$#+#OO  ",
" .oO+#$$%%%%%%%%%%%%%%$$+#O.. ",
" oO+##$%%%%%%%%%%$%%%%%$$+OOo ",
".oO+#$%%%%%%%%%%%%%%%%%%$+@Oo ",
"oXO+#$%%%%%%#%%%%%%#%%%%%##OX.",
"oO+#$$%%%%%##%%%%%%#%%%%%$++Xo",
"oO+#$%%%%%$#%%%%%%%%%%%%%$#+Xo",
"oO+#$%%%%%%%%%%%%%%%%%%%%$#+OX",
"oO+#$%%%%%%%%%%%%%%%%%%%%$#+Oo",
"oO+#$%%%%%%%%%%%%%%%%%%%%$@+Xo",
"oO+#$%%%%%%%%%%%%%%%%%%$%$#+Oo",
"oX++#$%%%%%%%%%%%%%%%%%%$$++Oo",
" OO@#$%%%%%%%$%%%%%%%%%%$#++o.",
" o@+##$%%%%%%%%%%%%%%%%$$@@Xo ",
" .O@+#$$%%%%%%%#%%%%%%$$$+XX  ",
"  oX+O#$$%%%%%%%%%%%%$$#++O.  ",
"  .oO++#$$%%%%%%%%$%$$#++Oo.  ",
"  ..oX++@#$$$$%%%$$$##+OO..   ",
"    .oO@@###$$$$$$###@OOo.    ",
"    . oOO+++######+++OO..     ",
"       ooOX@+++++OOOXoo.      ",
"       ..ooOOOXOOOOoo..       ",
"           oooooOoo           "};
