#define wormhole_width 80
#define wormhole_height 640
static char wormhole_bits[] = {
   0x00, 0x00, 0x00, 0x00, 0x00, 0x00, 0x00, 0x00, 0x00, 0x00, 0x00, 0x00,
   0x00, 0x00, 0x00, 0x00, 0x00, 0x00, 0x00, 0x00, 0x00, 0x00, 0x00, 0x80,
   0x00, 0x00, 0x00, 0x00, 0x00, 0x00, 0x00, 0x00, 0x00, 0x10, 0x00, 0x00,
   0x01, 0x00, 0x01, 0x00, 0x00, 0x00, 0x00, 0x20, 0x10, 0x20, 0x00, 0x00,
   0x00, 0x00, 0x00, 0x00, 0x00, 0x10, 0x00, 0x01, 0x80, 0x00, 0x00, 0x00,
   0x00, 0x00, 0x80, 0x84, 0x40, 0x11, 0x00, 0x00, 0x00, 0x00, 0x00, 0x00,
   0x00, 0x00, 0x00, 0x40, 0x80, 0x05, 0x00, 0x00, 0x00, 0x00, 0x04, 0x90,
   0x00, 0xa7, 0x00, 0x14, 0x00, 0x00, 0x00, 0x00, 0x00, 0x00, 0x29, 0x96,
   0x01, 0x00, 0x00, 0x00, 0x00, 0x10, 0x80, 0xe0, 0x10, 0x22, 0x07, 0x90,
   0x04, 0x00, 0x00, 0x00, 0x00, 0x1e, 0x00, 0x00, 0x3c, 0x00, 0x00, 0x00,
   0x00, 0x00, 0x1c, 0x06, 0x00, 0x00, 0xc0, 0x30, 0x08, 0x00, 0x00, 0x04,
   0x84, 0xc1, 0x00, 0x00, 0x00, 0x73, 0x04, 0x00, 0x20, 0x00, 0x43, 0x52,
   0x25, 0x00, 0x40, 0x06, 0x00, 0x00, 0x00, 0x00, 0x30, 0x8b, 0x14, 0x02,
   0x00, 0x1b, 0x00, 0x00, 0x00, 0x00, 0x08, 0x00, 0x20, 0x01, 0x00, 0x72,
   0x00, 0x00, 0x80, 0x10, 0x48, 0x63, 0xe4, 0x51, 0x00, 0x5c, 0x00, 0x04,
   0x00, 0x00, 0x06, 0x00, 0x05, 0x0e, 0x00, 0xa4, 0x00, 0x00, 0x10, 0x00,
   0xc1, 0x55, 0x41, 0x01, 0x25, 0x28, 0x81, 0x04, 0x00, 0x40, 0x3e, 0x2d,
   0xf4, 0x47, 0x01, 0x70, 0x03, 0x00, 0x00, 0x80, 0x90, 0x04, 0x7e, 0x71,
   0x28, 0x60, 0x03, 0x00, 0x00, 0x50, 0x01, 0x10, 0x33, 0x18, 0x41, 0x70,
   0x0c, 0x00, 0x00, 0xa2, 0x00, 0xc0, 0x84, 0x10, 0x5a, 0x60, 0x0a, 0x00,
   0x00, 0x60, 0x00, 0x20, 0x20, 0x02, 0x08, 0x60, 0x08, 0x28, 0x00, 0x50,
   0x10, 0x0f, 0x00, 0xa2, 0x60, 0x60, 0xa8, 0x00, 0x00, 0x00, 0x00, 0x04,
   0x00, 0xc8, 0x40, 0x50, 0x20, 0x00, 0x00, 0x08, 0x50, 0x0a, 0x00, 0x40,
   0xa3, 0x20, 0x20, 0x40, 0x00, 0x20, 0x50, 0x09, 0x20, 0xc0, 0x04, 0xe1,
   0x00, 0x00, 0x00, 0x00, 0xd8, 0x01, 0x00, 0x83, 0x01, 0x40, 0x40, 0x10,
   0x04, 0x0c, 0xca, 0x04, 0x98, 0x00, 0x03, 0xc8, 0xa5, 0x00, 0x00, 0x00,
   0xa2, 0x00, 0xd7, 0x03, 0x02, 0x60, 0x02, 0x04, 0x00, 0x02, 0x05, 0xcd,
   0xef, 0x0f, 0x04, 0x24, 0xc0, 0x00, 0x00, 0x01, 0x68, 0x06, 0xfa, 0x03,
   0x04, 0x04, 0x84, 0x40, 0x00, 0x02, 0x62, 0xa0, 0x1c, 0x20, 0x04, 0x7c,
   0x80, 0x40, 0x40, 0xc4, 0x78, 0xe8, 0x06, 0x40, 0x00, 0x08, 0x86, 0x00,
   0x00, 0x06, 0xf4, 0x74, 0x03, 0x80, 0x06, 0x38, 0x80, 0x00, 0x00, 0x41,
   0xa0, 0x88, 0x00, 0x00, 0x84, 0x48, 0x40, 0x03, 0x80, 0xa3, 0x14, 0x83,
   0x01, 0x00, 0x03, 0x30, 0x02, 0x01, 0x80, 0x80, 0x70, 0x40, 0x01, 0x00,
   0x06, 0x18, 0x06, 0x09, 0x50, 0x20, 0x35, 0x20, 0x00, 0x00, 0x01, 0x18,
   0x12, 0x01, 0x00, 0x41, 0x1c, 0x80, 0x01, 0x00, 0x05, 0x1c, 0x01, 0x03,
   0x00, 0x80, 0x17, 0x20, 0x01, 0x00, 0x43, 0x16, 0x03, 0x0b, 0x00, 0x51,
   0x11, 0xa2, 0x02, 0x80, 0x42, 0x0d, 0x03, 0x03, 0x90, 0xab, 0x23, 0xa0,
   0x03, 0x80, 0x80, 0x0d, 0x80, 0x00, 0x90, 0xc2, 0x09, 0x00, 0x07, 0x00,
   0xb8, 0x88, 0x82, 0x04, 0x00, 0x61, 0x20, 0xa0, 0x05, 0x80, 0x70, 0x4c,
   0xc0, 0x00, 0x80, 0x73, 0x21, 0x60, 0x37, 0x50, 0x0e, 0x0c, 0x00, 0x02,
   0xc0, 0xa2, 0x28, 0x60, 0x47, 0x6f, 0x01, 0x60, 0x04, 0x00, 0x80, 0xc4,
   0x08, 0x40, 0x0e, 0x60, 0x82, 0x02, 0x00, 0x01, 0x20, 0x34, 0xc0, 0x04,
   0x2e, 0x26, 0x00, 0x3a, 0x48, 0x01, 0x44, 0xd6, 0x84, 0x00, 0x12, 0x00,
   0x00, 0x20, 0x00, 0x20, 0x80, 0xe8, 0x09, 0x01, 0x74, 0x01, 0x01, 0x00,
   0x20, 0x00, 0x10, 0x68, 0x02, 0x03, 0x58, 0x00, 0x00, 0x15, 0x00, 0x84,
   0x00, 0xb0, 0x04, 0x05, 0xa0, 0x01, 0x40, 0x06, 0x18, 0x04, 0x00, 0x10,
   0x10, 0x02, 0x50, 0x02, 0x20, 0x03, 0x04, 0x00, 0x00, 0xa0, 0x04, 0x34,
   0x81, 0x09, 0x30, 0x00, 0x08, 0x00, 0x00, 0xa2, 0x0f, 0x40, 0x01, 0x11,
   0x02, 0x08, 0x00, 0x01, 0x08, 0x00, 0x83, 0x68, 0x03, 0xa5, 0x03, 0x00,
   0x04, 0x80, 0x00, 0x10, 0x00, 0x60, 0x3c, 0x7c, 0x00, 0x00, 0x02, 0x00,
   0x10, 0x80, 0x00, 0xc0, 0x91, 0x5d, 0x06, 0x00, 0x48, 0x00, 0x48, 0x50,
   0x06, 0x04, 0x01, 0x80, 0x3f, 0x00, 0x05, 0x08, 0x00, 0x00, 0x02, 0x00,
   0x2f, 0x00, 0xe8, 0x0f, 0x02, 0x02, 0x00, 0x00, 0x82, 0x00, 0x24, 0x00,
   0x00, 0xbc, 0x02, 0x00, 0x00, 0x80, 0x98, 0x00, 0x60, 0x0a, 0x00, 0x28,
   0x00, 0x00, 0x00, 0x10, 0x60, 0x20, 0xc1, 0xe5, 0x06, 0x10, 0x00, 0x00,
   0x00, 0x00, 0x48, 0x00, 0xa0, 0x00, 0x00, 0x0a, 0x00, 0x00, 0x00, 0x00,
   0x80, 0x05, 0x00, 0x00, 0x00, 0x03, 0x02, 0x01, 0x00, 0x42, 0x01, 0x25,
   0x00, 0x58, 0x41, 0x00, 0x00, 0x00, 0x00, 0x00, 0x00, 0x1a, 0x02, 0x40,
   0x30, 0x09, 0x02, 0x00, 0x00, 0x00, 0x00, 0x68, 0x02, 0x00, 0x0c, 0x01,
   0x20, 0x00, 0x00, 0x00, 0x00, 0x40, 0x1d, 0x71, 0x21, 0x00, 0x00, 0x00,
   0x00, 0x80, 0x00, 0xa0, 0xe0, 0x1b, 0x00, 0x40, 0x00, 0x00, 0x00, 0x00,
   0x00, 0x40, 0xb0, 0x00, 0x03, 0x00, 0x00, 0x00, 0x00, 0x00, 0x02, 0x00,
   0x80, 0x02, 0x08, 0x00, 0x01, 0x00, 0x00, 0x00, 0x00, 0x00, 0x24, 0x60,
   0x30, 0x00, 0x00, 0x00, 0x00, 0x00, 0x00, 0x00, 0x10, 0x20, 0x03, 0x00,
   0x00, 0x00, 0x00, 0x00, 0x00, 0x02, 0x00, 0x02, 0x58, 0x00, 0x00, 0x00,
   0x00, 0x00, 0x00, 0x00, 0x00, 0x00, 0x00, 0x01, 0x00, 0x00, 0x00, 0x00,
   0x00, 0x00, 0x00, 0x00, 0x00, 0x00, 0x00, 0x00,
0x00, 0x00, 0x00, 0x00, 0x00, 0x00, 0x00, 0x00, 0x00, 0x00, 0x00, 0x00,
   0x00, 0x08, 0xc8, 0x00, 0x00, 0x00, 0x00, 0x00, 0x00, 0x00, 0x40, 0x00,
   0x00, 0x00, 0x00, 0x00, 0x00, 0x00, 0x00, 0x00, 0x00, 0x40, 0x14, 0x00,
   0x00, 0x00, 0x00, 0x00, 0x00, 0x00, 0x00, 0x02, 0x02, 0x08, 0x00, 0x00,
   0x02, 0x00, 0x00, 0x00, 0x04, 0x00, 0x40, 0x00, 0x80, 0x00, 0x00, 0x00,
   0x00, 0x00, 0x00, 0x00, 0x04, 0xa0, 0x10, 0x00, 0x00, 0x00, 0x00, 0x00,
   0x00, 0x20, 0x20, 0x00, 0x00, 0x00, 0x00, 0x00, 0x00, 0x08, 0x01, 0x01,
   0x40, 0x00, 0x00, 0x00, 0x00, 0x00, 0x00, 0x00, 0x00, 0x87, 0x3f, 0xca,
   0x11, 0x20, 0x00, 0x00, 0x00, 0x00, 0xe1, 0xa0, 0x01, 0x84, 0x2d, 0x00,
   0x40, 0x00, 0x00, 0x10, 0x00, 0x18, 0x00, 0x80, 0x64, 0x60, 0x01, 0x00,
   0x00, 0x00, 0x02, 0x67, 0x1a, 0x00, 0xc8, 0x00, 0x01, 0x00, 0x00, 0x00,
   0x00, 0x41, 0xa9, 0x00, 0x80, 0x01, 0x04, 0x00, 0x00, 0x00, 0xc0, 0x28,
   0x90, 0x04, 0x80, 0x07, 0x00, 0x00, 0x40, 0x00, 0x14, 0x40, 0x04, 0x02,
   0x00, 0x08, 0x12, 0x00, 0x00, 0x00, 0xe8, 0x1c, 0x80, 0x44, 0x00, 0x10,
   0x80, 0x00, 0x00, 0x20, 0x0d, 0x53, 0x51, 0x1e, 0x00, 0x68, 0x04, 0x00,
   0x00, 0x00, 0x16, 0xc9, 0x16, 0x00, 0x01, 0xe0, 0x0a, 0x01, 0x00, 0x00,
   0x0e, 0x40, 0x40, 0xf4, 0x04, 0xb0, 0x81, 0x00, 0x00, 0x80, 0x02, 0x00,
   0x61, 0x1f, 0x00, 0x20, 0x03, 0x00, 0x00, 0x00, 0x80, 0x00, 0xb2, 0x7f,
   0x50, 0xc0, 0x07, 0x00, 0x00, 0x40, 0x00, 0x18, 0xa5, 0x01, 0x17, 0x42,
   0x04, 0x00, 0x20, 0x00, 0x81, 0x60, 0x00, 0xc4, 0x03, 0x80, 0x0a, 0x01,
   0x00, 0x10, 0x80, 0x32, 0x00, 0x81, 0x48, 0x81, 0x13, 0x50, 0x00, 0x20,
   0xe0, 0x4a, 0x00, 0x10, 0x10, 0x02, 0x1b, 0x00, 0x00, 0x08, 0x68, 0x27,
   0x00, 0x10, 0xc1, 0x82, 0x1b, 0x20, 0x00, 0x04, 0x08, 0x03, 0x00, 0x40,
   0x46, 0x00, 0x03, 0x00, 0x00, 0x08, 0x94, 0x12, 0x80, 0x00, 0x03, 0x03,
   0x73, 0x80, 0x00, 0x00, 0x20, 0x04, 0x20, 0x0c, 0x0f, 0x81, 0x43, 0x80,
   0x00, 0x8c, 0x85, 0x39, 0x5f, 0x0a, 0x92, 0x42, 0x21, 0x00, 0x00, 0x02,
   0xf0, 0x00, 0xfe, 0x07, 0x06, 0x84, 0xa1, 0x22, 0x00, 0x87, 0xe8, 0x40,
   0xf5, 0x0f, 0x0c, 0x80, 0x80, 0x80, 0xa0, 0x41, 0xc1, 0xd9, 0xf9, 0x1f,
   0x04, 0x80, 0x83, 0x00, 0x00, 0x00, 0x29, 0xe9, 0x0c, 0x00, 0x08, 0x10,
   0x01, 0x00, 0x00, 0x21, 0x61, 0x16, 0x07, 0x40, 0x08, 0xc0, 0x8b, 0x01,
   0x00, 0x40, 0x74, 0x00, 0x01, 0x80, 0x08, 0xc8, 0x44, 0x21, 0x10, 0x81,
   0x1d, 0x40, 0x01, 0x00, 0x00, 0x08, 0x00, 0x00, 0x90, 0x5b, 0x17, 0x20,
   0x01, 0x00, 0x0e, 0x78, 0x88, 0x09, 0x80, 0xa3, 0x11, 0x80, 0x00, 0x00,
   0x04, 0x88, 0x00, 0x01, 0xc0, 0xe0, 0x01, 0xa2, 0x01, 0x00, 0x83, 0x38,
   0x06, 0x01, 0xe0, 0x39, 0x04, 0xb0, 0x01, 0x00, 0x06, 0x48, 0x80, 0x40,
   0x40, 0xb1, 0x10, 0xd0, 0x01, 0x00, 0x01, 0x30, 0x80, 0x40, 0x10, 0x52,
   0x10, 0x80, 0x01, 0x80, 0x07, 0x18, 0x42, 0x01, 0x10, 0x62, 0x14, 0xd0,
   0x03, 0xc0, 0x01, 0x1c, 0x06, 0x83, 0xa0, 0x0d, 0x04, 0xb0, 0x02, 0x40,
   0x21, 0x0f, 0x01, 0x01, 0x04, 0x32, 0x10, 0xb0, 0x1b, 0x00, 0xa0, 0x8a,
   0x80, 0x04, 0x00, 0x7a, 0x21, 0x91, 0x11, 0x40, 0xcc, 0x86, 0x81, 0x01,
   0x00, 0x9c, 0x22, 0x80, 0xc3, 0x17, 0x5c, 0x86, 0x81, 0x01, 0x00, 0x2c,
   0x40, 0x80, 0x0b, 0x98, 0x17, 0x07, 0x80, 0x05, 0x01, 0x04, 0xc1, 0x80,
   0x84, 0x19, 0x00, 0x93, 0x40, 0x00, 0x40, 0x94, 0xa2, 0x00, 0x0d, 0x88,
   0x00, 0x02, 0x20, 0x00, 0x00, 0xf0, 0x40, 0x00, 0x4f, 0x00, 0xa0, 0x18,
   0x30, 0x01, 0x00, 0x62, 0x81, 0x02, 0x04, 0x20, 0x80, 0x00, 0x81, 0x00,
   0x10, 0x00, 0x10, 0x24, 0x3a, 0x00, 0x00, 0x0e, 0x00, 0x00, 0x00, 0x09,
   0x00, 0x2d, 0x40, 0x00, 0x00, 0x04, 0x41, 0x00, 0x00, 0x64, 0x00, 0x6c,
   0x30, 0x01, 0xa0, 0x00, 0x28, 0x00, 0x00, 0x20, 0x00, 0x46, 0x20, 0x00,
   0xcc, 0x02, 0x00, 0x00, 0x00, 0x20, 0x40, 0xdc, 0x53, 0x20, 0x66, 0x00,
   0x04, 0x04, 0x80, 0x09, 0x08, 0x10, 0xc9, 0x3b, 0x00, 0x00, 0x03, 0x20,
   0x00, 0x80, 0x09, 0x30, 0xd8, 0x07, 0x80, 0x40, 0x80, 0x00, 0x10, 0x40,
   0x07, 0xe0, 0x02, 0x25, 0x00, 0x80, 0x00, 0x00, 0x00, 0x00, 0x02, 0x01,
   0x01, 0x78, 0x00, 0x00, 0x00, 0x00, 0x00, 0x0a, 0x0c, 0x08, 0x03, 0xe0,
   0x03, 0x40, 0x10, 0x00, 0x04, 0x00, 0x28, 0x00, 0x56, 0x40, 0x03, 0x20,
   0x00, 0x00, 0x00, 0x00, 0x20, 0x01, 0x2d, 0x00, 0x7c, 0x48, 0x00, 0x08,
   0x00, 0x00, 0xe8, 0x00, 0x00, 0x17, 0x60, 0x20, 0x00, 0x00, 0x00, 0x02,
   0xa0, 0x08, 0x00, 0x20, 0xc0, 0x15, 0x40, 0x00, 0x80, 0x00, 0x00, 0x09,
   0x60, 0x00, 0x00, 0x11, 0x10, 0x00, 0x00, 0x08, 0x80, 0x15, 0x00, 0x05,
   0xc8, 0x00, 0x00, 0x00, 0x00, 0x01, 0x00, 0x62, 0x00, 0x01, 0x0d, 0x00,
   0x00, 0x00, 0x00, 0x00, 0x00, 0xc1, 0x47, 0xd0, 0x00, 0x08, 0x00, 0x00,
   0x00, 0x00, 0x00, 0x40, 0xee, 0x35, 0x24, 0x00, 0x20, 0x00, 0x00, 0x00,
   0x04, 0x08, 0x01, 0x80, 0x04, 0x08, 0x04, 0x00, 0x00, 0x08, 0x00, 0x40,
   0x04, 0x06, 0x00, 0x00, 0x00, 0x00, 0x00, 0x40, 0x08, 0x20, 0x00, 0x00,
   0x00, 0x00, 0x00, 0x00, 0x00, 0x00, 0x00, 0x00, 0x40, 0x10, 0x80, 0x00,
   0x00, 0x00, 0x00, 0x00, 0x00, 0x00, 0x04, 0x24, 0x00, 0x00, 0x00, 0x00,
   0x00, 0x00, 0x00, 0x00, 0x00, 0x00, 0x00, 0x22, 0x00, 0x00, 0x00, 0x00,
   0x00, 0x00, 0x00, 0x50, 0x00, 0x00, 0x00, 0x00,
0x00, 0x80, 0x01, 0x81, 0x0d, 0x00, 0x00, 0x00, 0x00, 0x00, 0x00, 0x00,
   0x00, 0x20, 0x00, 0x08, 0x00, 0x00, 0x00, 0x00, 0x00, 0x00, 0x10, 0x02,
   0x21, 0x40, 0x00, 0x00, 0x00, 0x00, 0x00, 0x00, 0x00, 0x00, 0x00, 0x0f,
   0x00, 0x00, 0x00, 0x00, 0x00, 0x00, 0x40, 0x00, 0x00, 0x00, 0x00, 0x00,
   0x00, 0x00, 0x00, 0x00, 0x00, 0x00, 0x00, 0x20, 0x04, 0x00, 0x20, 0x00,
   0x00, 0x00, 0xc4, 0xc0, 0x18, 0x02, 0x00, 0x00, 0x00, 0x00, 0x00, 0xc0,
   0x00, 0x78, 0x01, 0x10, 0x00, 0x00, 0x00, 0x00, 0x00, 0x00, 0x80, 0x00,
   0xe0, 0x12, 0x28, 0x00, 0x00, 0x00, 0x00, 0x00, 0x00, 0x80, 0x6e, 0x0d,
   0x20, 0x24, 0x00, 0x00, 0x00, 0x20, 0x00, 0xe0, 0x11, 0x80, 0x02, 0x02,
   0x00, 0x00, 0x00, 0x00, 0x00, 0x38, 0x1c, 0x82, 0x71, 0x00, 0x00, 0x00,
   0x00, 0x00, 0x80, 0x00, 0x21, 0x06, 0x70, 0x04, 0x80, 0x04, 0x00, 0x00,
   0x24, 0x0d, 0x0c, 0x04, 0x90, 0x08, 0x00, 0x00, 0x00, 0x00, 0xa0, 0xf0,
   0x01, 0x12, 0x00, 0x0d, 0x08, 0x00, 0x00, 0x00, 0xe0, 0x20, 0xca, 0x90,
   0x00, 0x08, 0x04, 0x10, 0x20, 0x00, 0x50, 0x80, 0x28, 0x00, 0x00, 0x38,
   0x08, 0x00, 0x00, 0x00, 0x04, 0x00, 0xec, 0x4a, 0x04, 0x30, 0x20, 0x09,
   0x00, 0x00, 0x00, 0x00, 0x00, 0xc1, 0x02, 0xe0, 0x80, 0x40, 0x00, 0x00,
   0x09, 0x08, 0x10, 0x04, 0x03, 0x00, 0x00, 0x00, 0x00, 0x00, 0x03, 0x84,
   0x80, 0x57, 0x12, 0x80, 0x41, 0x00, 0x00, 0x60, 0x00, 0x14, 0x77, 0xfd,
   0x4d, 0x00, 0x02, 0x0a, 0x00, 0x24, 0x40, 0x96, 0x01, 0xba, 0x03, 0x00,
   0x66, 0x00, 0x00, 0x20, 0x40, 0x79, 0x02, 0x80, 0x00, 0x00, 0x67, 0x00,
   0x04, 0x40, 0x20, 0x38, 0x01, 0x28, 0xa8, 0x00, 0x0a, 0x00, 0x00, 0x68,
   0x00, 0x14, 0x00, 0x00, 0xbe, 0x02, 0x1a, 0x04, 0x00, 0x1c, 0xac, 0x82,
   0x00, 0x80, 0x04, 0x10, 0x3e, 0x00, 0x00, 0x15, 0x42, 0x56, 0x00, 0x40,
   0x40, 0x02, 0x2a, 0x40, 0x00, 0x00, 0xa3, 0xe3, 0x00, 0x04, 0x85, 0x08,
   0x1a, 0x00, 0x00, 0x04, 0x82, 0x03, 0xbc, 0x01, 0x10, 0x13, 0x0c, 0x00,
   0x20, 0x80, 0x92, 0x07, 0x79, 0x31, 0x1c, 0x09, 0x5c, 0x00, 0x20, 0x83,
   0x44, 0x52, 0x55, 0x0e, 0x14, 0x04, 0xee, 0x40, 0x80, 0x27, 0xe9, 0xe5,
   0xe3, 0x1f, 0x2c, 0x04, 0x6c, 0x00, 0x00, 0xab, 0x7f, 0x08, 0xfd, 0x1f,
   0x4c, 0x06, 0x0e, 0x00, 0xe0, 0x81, 0x29, 0x00, 0x0a, 0x7c, 0x18, 0x08,
   0xa6, 0x81, 0x40, 0xe1, 0x13, 0x80, 0x03, 0x00, 0x10, 0x08, 0x87, 0x00,
   0x51, 0x39, 0x01, 0x40, 0x02, 0x00, 0x00, 0x00, 0x81, 0x00, 0x10, 0xb2,
   0x24, 0x02, 0x00, 0x80, 0x10, 0x00, 0x01, 0x01, 0x80, 0xf1, 0x10, 0xa0,
   0x01, 0x80, 0x18, 0x20, 0x07, 0x05, 0xa0, 0x2d, 0x12, 0x50, 0x01, 0x00,
   0x01, 0x00, 0x01, 0x41, 0x02, 0x05, 0x0a, 0x50, 0x01, 0x00, 0x0c, 0x88,
   0x07, 0x00, 0x00, 0x1d, 0x02, 0xc8, 0x01, 0x00, 0x05, 0x48, 0x14, 0x00,
   0x08, 0xbe, 0x08, 0xe8, 0x01, 0x00, 0x03, 0x38, 0x40, 0x01, 0x00, 0x0b,
   0x11, 0x58, 0x01, 0x80, 0x83, 0x48, 0x00, 0x01, 0x2c, 0x00, 0x90, 0xe8,
   0x01, 0x80, 0x00, 0x18, 0x80, 0x20, 0x00, 0x43, 0x10, 0xc8, 0x06, 0xc0,
   0x02, 0x20, 0x82, 0x08, 0x00, 0x2c, 0x30, 0xc0, 0x00, 0xa0, 0x00, 0x38,
   0x84, 0x00, 0x84, 0x38, 0x10, 0xe0, 0x09, 0x20, 0x10, 0x0e, 0xc0, 0x00,
   0x00, 0x78, 0x30, 0x20, 0xe2, 0x12, 0x10, 0x07, 0x41, 0x40, 0x40, 0x02,
   0x00, 0x40, 0x81, 0x0e, 0xa3, 0x87, 0x21, 0x20, 0x00, 0x01, 0xa2, 0xc0,
   0x63, 0x66, 0xb6, 0xc1, 0xc0, 0x00, 0x10, 0x0c, 0x80, 0x80, 0x0a, 0x96,
   0x96, 0x61, 0x44, 0x20, 0x00, 0x04, 0x20, 0x45, 0x01, 0x20, 0x80, 0x60,
   0x60, 0x00, 0x88, 0x04, 0x80, 0x05, 0x07, 0x00, 0xc0, 0x48, 0x20, 0x00,
   0x00, 0x08, 0x88, 0x06, 0x08, 0x08, 0xc4, 0x2c, 0x60, 0x00, 0x00, 0x90,
   0x80, 0x09, 0x06, 0x00, 0x10, 0x01, 0xb0, 0x00, 0x28, 0xe4, 0x00, 0x33,
   0x12, 0x00, 0x10, 0x03, 0x28, 0x00, 0x90, 0x20, 0x00, 0x71, 0x22, 0x00,
   0xc0, 0x00, 0x06, 0x00, 0x00, 0x00, 0x00, 0x86, 0x08, 0x80, 0x84, 0x20,
   0x24, 0x00, 0x80, 0xc2, 0x10, 0x2e, 0xbd, 0x44, 0x08, 0x00, 0x10, 0x00,
   0x00, 0x40, 0x81, 0x10, 0x78, 0x63, 0x2e, 0x20, 0x00, 0x00, 0x14, 0x80,
   0x01, 0x10, 0x40, 0x00, 0x04, 0x00, 0x05, 0x00, 0x40, 0x00, 0x0e, 0x30,
   0x40, 0x03, 0x00, 0x40, 0x00, 0x00, 0x40, 0x00, 0x01, 0xe8, 0x80, 0x03,
   0x08, 0x08, 0x00, 0x00, 0x08, 0x00, 0x4c, 0x20, 0x01, 0x0e, 0x00, 0x14,
   0x00, 0x00, 0x00, 0x10, 0x48, 0x00, 0x08, 0x1a, 0x00, 0x08, 0x04, 0x02,
   0x00, 0x00, 0x18, 0x00, 0x30, 0x30, 0x00, 0x00, 0x04, 0x00, 0x00, 0x00,
   0x84, 0x01, 0xc1, 0xc1, 0x01, 0x03, 0x00, 0x00, 0x80, 0x00, 0x00, 0x00,
   0x0a, 0x00, 0x03, 0x80, 0x00, 0x00, 0x00, 0x10, 0x80, 0x1f, 0x34, 0x00,
   0x47, 0x02, 0x00, 0x00, 0x00, 0x10, 0x20, 0x3c, 0x01, 0x00, 0xd5, 0x11,
   0x40, 0x00, 0x00, 0x00, 0x00, 0xc5, 0x07, 0x34, 0x42, 0x00, 0x00, 0x00,
   0x00, 0x00, 0x40, 0x10, 0xe8, 0x23, 0x00, 0x00, 0x28, 0x00, 0x00, 0x00,
   0x00, 0x00, 0x00, 0x18, 0x00, 0x40, 0x01, 0x00, 0x00, 0x00, 0x00, 0x80,
   0x1c, 0x49, 0x00, 0x04, 0x10, 0x00, 0x00, 0x00, 0x00, 0x80, 0x01, 0x00,
   0x00, 0x01, 0x00, 0x00, 0x00, 0x00, 0x00, 0x00, 0x20, 0x08, 0x00, 0x80,
   0x00, 0x00, 0x00, 0x00, 0x00, 0x00, 0x64, 0x03, 0x30, 0x08, 0x00, 0x00,
   0x00, 0x00, 0x00, 0x00, 0x00, 0x4c, 0x01, 0x01, 0x00, 0x00, 0x00, 0x00,
   0x00, 0x00, 0x30, 0x00, 0xc4, 0x00, 0x00, 0x00,
0x00, 0x00, 0x00, 0x00, 0x02, 0x00, 0x00, 0x00, 0x00, 0x00, 0x00, 0x00,
   0x00, 0x40, 0x80, 0x00, 0x00, 0x00, 0x00, 0x00, 0x00, 0x00, 0x00, 0x00,
   0x00, 0x00, 0x00, 0x00, 0x00, 0x00, 0x00, 0x00, 0x20, 0x02, 0x00, 0x00,
   0x04, 0x00, 0x00, 0x00, 0x00, 0x00, 0x00, 0x00, 0x00, 0x80, 0x2f, 0x00,
   0x00, 0x00, 0x00, 0x00, 0x00, 0x20, 0x64, 0x00, 0x00, 0x00, 0x00, 0x00,
   0x00, 0x00, 0x02, 0x20, 0xc8, 0x04, 0x00, 0x00, 0x00, 0x00, 0x00, 0x00,
   0x00, 0x00, 0x00, 0x80, 0x08, 0x00, 0x00, 0x00, 0x00, 0x00, 0x00, 0x00,
   0xa0, 0x18, 0x00, 0x01, 0x01, 0x00, 0x00, 0x00, 0x80, 0x20, 0xca, 0xfa,
   0x04, 0x00, 0x00, 0x00, 0x00, 0x00, 0x00, 0x04, 0x08, 0x05, 0x07, 0x00,
   0x00, 0x00, 0x00, 0x40, 0x00, 0x18, 0x61, 0x02, 0x00, 0x0a, 0x00, 0x00,
   0x00, 0x00, 0x00, 0x5e, 0x86, 0x58, 0x20, 0x0c, 0x20, 0x00, 0x00, 0x00,
   0x80, 0x0c, 0x3c, 0xc1, 0x60, 0x00, 0x01, 0x00, 0x00, 0x00, 0x00, 0x00,
   0x40, 0xc0, 0x00, 0x44, 0x08, 0x00, 0x00, 0x00, 0x10, 0x01, 0x10, 0x19,
   0x02, 0x0c, 0x00, 0x00, 0x00, 0x00, 0x24, 0x00, 0x80, 0x13, 0x03, 0x82,
   0x00, 0x00, 0x00, 0x40, 0x02, 0x00, 0x00, 0x28, 0x1c, 0x90, 0x00, 0x00,
   0x00, 0x00, 0x02, 0x40, 0x00, 0xa0, 0x00, 0xb0, 0x00, 0x08, 0x00, 0x00,
   0x00, 0x54, 0x09, 0x80, 0x04, 0x80, 0x01, 0x00, 0x00, 0xe4, 0x03, 0xb7,
   0x31, 0x40, 0x6c, 0x80, 0x01, 0x00, 0x00, 0xe8, 0x00, 0x84, 0x9e, 0x7e,
   0x30, 0x00, 0xc3, 0x00, 0x00, 0x00, 0x60, 0xe1, 0x13, 0xc0, 0x03, 0x00,
   0x83, 0x00, 0x00, 0x20, 0x10, 0x84, 0x18, 0xd0, 0x6f, 0x01, 0x0c, 0x02,
   0x84, 0x00, 0x00, 0x12, 0x04, 0x80, 0x1c, 0x00, 0x00, 0x00, 0x00, 0x0c,
   0x12, 0x9e, 0x00, 0x40, 0x11, 0x00, 0x18, 0x84, 0x00, 0x1e, 0x00, 0x9e,
   0x03, 0x00, 0x00, 0x00, 0x04, 0x02, 0x00, 0xa8, 0x10, 0x0f, 0x01, 0x00,
   0xf0, 0x05, 0x30, 0x02, 0x84, 0x87, 0x25, 0x09, 0x50, 0x00, 0xb2, 0x16,
   0x38, 0x19, 0xa0, 0x85, 0xbc, 0xc3, 0xe5, 0x12, 0x00, 0x00, 0xb8, 0x01,
   0x20, 0xc0, 0xd7, 0x11, 0xdf, 0x05, 0x14, 0x41, 0x68, 0x42, 0x0c, 0xe4,
   0x47, 0x00, 0x8e, 0x51, 0x10, 0x02, 0x58, 0x00, 0x40, 0x63, 0x00, 0x00,
   0xf8, 0x1f, 0x70, 0x24, 0xf8, 0x70, 0x00, 0x68, 0x69, 0x00, 0xb4, 0x3f,
   0x10, 0x2c, 0x88, 0x00, 0x00, 0x46, 0x00, 0xc0, 0x05, 0x38, 0x70, 0x20,
   0xa0, 0x00, 0x00, 0x19, 0x14, 0x00, 0x06, 0xf0, 0x18, 0x08, 0xb8, 0x00,
   0x00, 0x3e, 0x1a, 0x20, 0x01, 0x00, 0x90, 0x08, 0xbc, 0x00, 0x30, 0xaf,
   0x00, 0x30, 0x01, 0x00, 0x30, 0x04, 0x98, 0x00, 0x00, 0x28, 0x08, 0x40,
   0x01, 0x80, 0x10, 0x08, 0xdc, 0x00, 0x01, 0x01, 0x18, 0xc8, 0x01, 0x00,
   0x30, 0x10, 0x0c, 0x80, 0x42, 0x04, 0x08, 0xec, 0x00, 0x00, 0x10, 0x00,
   0xc5, 0x21, 0x00, 0x0c, 0x50, 0xec, 0x01, 0x00, 0x09, 0x00, 0x85, 0x01,
   0x20, 0x1c, 0x08, 0xec, 0x00, 0x00, 0x06, 0x20, 0x81, 0x00, 0x40, 0x21,
   0x1c, 0xe0, 0x00, 0x80, 0x05, 0x28, 0x47, 0x00, 0x00, 0x00, 0x18, 0x60,
   0x03, 0x00, 0x01, 0xc8, 0x01, 0x01, 0x04, 0x02, 0x00, 0xf0, 0x00, 0x40,
   0x03, 0xc4, 0x83, 0x04, 0x40, 0x01, 0x08, 0x40, 0x00, 0x60, 0x40, 0x1c,
   0x88, 0x40, 0x00, 0x01, 0x20, 0xd0, 0x19, 0x58, 0x00, 0x34, 0x00, 0x80,
   0x00, 0x02, 0x08, 0x70, 0xa0, 0x00, 0x00, 0x0e, 0xe0, 0x00, 0x0c, 0x06,
   0x70, 0xa1, 0x88, 0x06, 0x00, 0x00, 0x82, 0x00, 0x10, 0x25, 0xb1, 0xf1,
   0x92, 0x41, 0x04, 0x9f, 0x21, 0x00, 0x00, 0x1c, 0xb0, 0x91, 0xc0, 0xdd,
   0xe0, 0x03, 0x61, 0x10, 0x00, 0x04, 0x60, 0x01, 0x01, 0xf4, 0xec, 0x01,
   0x20, 0x82, 0x02, 0x08, 0x60, 0x43, 0x01, 0x04, 0xe3, 0x20, 0x10, 0x40,
   0x00, 0x08, 0x20, 0xce, 0x00, 0x00, 0x20, 0x78, 0x14, 0x00, 0x00, 0x28,
   0xc2, 0x42, 0x02, 0x00, 0x38, 0x08, 0x10, 0x08, 0x04, 0x18, 0xc8, 0x90,
   0x00, 0x80, 0x18, 0x8c, 0x38, 0x08, 0x80, 0xa0, 0x08, 0xb2, 0x00, 0x00,
   0x02, 0x09, 0x08, 0x00, 0x00, 0xb0, 0x00, 0xc1, 0x07, 0x00, 0x01, 0x04,
   0x04, 0x00, 0x00, 0x40, 0x00, 0x83, 0x5f, 0x00, 0x64, 0x00, 0x26, 0x00,
   0x00, 0x40, 0x80, 0x03, 0x34, 0x46, 0x18, 0x00, 0x06, 0x00, 0x00, 0x60,
   0x02, 0x0f, 0x04, 0xc0, 0x08, 0x82, 0x16, 0x00, 0x00, 0x60, 0x01, 0x38,
   0x3c, 0xe0, 0x02, 0x60, 0x00, 0x00, 0x00, 0x00, 0x04, 0x00, 0x30, 0x00,
   0x00, 0x00, 0x02, 0x00, 0x80, 0x00, 0x08, 0xc0, 0x60, 0x00, 0x00, 0x80,
   0x00, 0x00, 0x00, 0x00, 0x1c, 0x88, 0xc1, 0x40, 0x00, 0x28, 0x00, 0x00,
   0x00, 0x80, 0x7c, 0x08, 0xc6, 0x00, 0x00, 0x22, 0x00, 0x00, 0x00, 0x00,
   0xf0, 0x20, 0x04, 0x03, 0xe0, 0x00, 0x00, 0x00, 0x00, 0x10, 0x15, 0x84,
   0x00, 0x06, 0x20, 0x00, 0x00, 0x00, 0x00, 0x00, 0x60, 0x0e, 0x00, 0x0c,
   0x00, 0x00, 0x00, 0x00, 0x00, 0x00, 0x00, 0x20, 0x00, 0x0c, 0x0c, 0x20,
   0x01, 0x00, 0x00, 0x00, 0x10, 0x80, 0xd7, 0x14, 0x01, 0x10, 0x00, 0x00,
   0x00, 0x00, 0x10, 0x13, 0xc0, 0x5e, 0x0f, 0x02, 0x00, 0x00, 0x00, 0x00,
   0x00, 0x23, 0x22, 0x00, 0x01, 0x00, 0x02, 0x00, 0x00, 0x00, 0x00, 0x00,
   0x10, 0x00, 0x00, 0x00, 0x00, 0x00, 0x00, 0x00, 0x00, 0x48, 0x80, 0x00,
   0x00, 0x00, 0x00, 0x00, 0x00, 0x00, 0x00, 0xc0, 0x00, 0x00, 0x00, 0x00,
   0x00, 0x00, 0x00, 0x00, 0x00, 0xb0, 0x00, 0x00, 0x80, 0x02, 0x00, 0x00,
   0x00, 0x00, 0x00, 0x20, 0x00, 0x10, 0x02, 0x20, 0x00, 0x00, 0x00, 0x00,
   0x00, 0x80, 0x00, 0x01, 0x00, 0x00, 0x00, 0x00,
0x00, 0x00, 0x00, 0x20, 0x20, 0xb0, 0x00, 0x00, 0x00, 0x00, 0x00, 0x00,
   0x00, 0x00, 0x00, 0x00, 0x0c, 0x00, 0x00, 0x00, 0x00, 0x00, 0x00, 0x00,
   0x30, 0xc0, 0x00, 0x00, 0x00, 0x00, 0x00, 0x00, 0x00, 0x02, 0x00, 0x00,
   0x00, 0x02, 0x00, 0x00, 0x00, 0x00, 0x02, 0x00, 0x10, 0x00, 0x18, 0x00,
   0x00, 0x00, 0x00, 0x00, 0x00, 0x00, 0x00, 0x1a, 0x00, 0x10, 0x00, 0x00,
   0x00, 0x00, 0x10, 0x40, 0x00, 0x28, 0xc0, 0x12, 0x00, 0x00, 0x00, 0x00,
   0x00, 0x00, 0x00, 0x00, 0x02, 0x13, 0x00, 0x00, 0x00, 0x00, 0x00, 0x00,
   0x88, 0x08, 0x00, 0x00, 0x00, 0x00, 0x00, 0x00, 0x00, 0x00, 0x8f, 0xfb,
   0x46, 0x00, 0x00, 0x00, 0x00, 0x80, 0x00, 0x50, 0x65, 0x80, 0x0e, 0x02,
   0x00, 0x00, 0x00, 0x00, 0x00, 0x10, 0xc5, 0xc8, 0x38, 0x01, 0x00, 0x00,
   0x00, 0x00, 0x08, 0x06, 0x80, 0xc1, 0x40, 0x40, 0x00, 0x00, 0x00, 0x00,
   0xc8, 0x24, 0x80, 0x25, 0x01, 0x01, 0x00, 0x00, 0x00, 0x00, 0x40, 0x00,
   0x00, 0x08, 0x19, 0x00, 0x00, 0x00, 0x00, 0x40, 0x48, 0x00, 0x10, 0x06,
   0x18, 0x44, 0x01, 0x02, 0x00, 0x80, 0x2e, 0x00, 0x10, 0x10, 0x19, 0x8c,
   0x01, 0x00, 0x00, 0x00, 0x08, 0x40, 0x0c, 0x78, 0x02, 0x40, 0x00, 0x00,
   0x00, 0x08, 0x01, 0x12, 0x97, 0xc0, 0x20, 0xc0, 0x00, 0x00, 0x00, 0x00,
   0x00, 0x66, 0x88, 0x11, 0x06, 0xc0, 0x0d, 0x00, 0x00, 0xe0, 0xc0, 0x00,
   0x4c, 0x03, 0x4a, 0x81, 0x80, 0x00, 0x20, 0xc0, 0x90, 0x00, 0x5c, 0x3a,
   0x40, 0x00, 0x0d, 0x00, 0x00, 0x7c, 0xc1, 0xb8, 0x84, 0xa1, 0x43, 0x00,
   0x08, 0x20, 0x00, 0x34, 0x01, 0xf2, 0xa4, 0x00, 0x8a, 0x05, 0x0c, 0x20,
   0x20, 0x11, 0x3e, 0x70, 0x00, 0x80, 0x3c, 0x01, 0x08, 0x00, 0x00, 0x91,
   0xe9, 0x5d, 0x1c, 0x00, 0x7c, 0x01, 0x08, 0x00, 0x00, 0x8c, 0xdf, 0x6f,
   0x10, 0x00, 0x60, 0x03, 0x18, 0x08, 0x02, 0x80, 0x19, 0x0f, 0x44, 0x00,
   0xea, 0x0a, 0x18, 0x00, 0x20, 0xbc, 0x85, 0x41, 0xd4, 0x01, 0x80, 0x10,
   0x30, 0x04, 0x01, 0x94, 0x21, 0x00, 0x9f, 0x0b, 0x00, 0x00, 0x20, 0x00,
   0x10, 0x7c, 0x80, 0x00, 0x38, 0x5b, 0x88, 0x05, 0x20, 0x08, 0x01, 0x7e,
   0x48, 0x00, 0x00, 0x0e, 0xc0, 0x12, 0x40, 0xc0, 0x00, 0x52, 0x25, 0x08,
   0xea, 0xcb, 0x00, 0x08, 0x50, 0x10, 0x04, 0x53, 0x00, 0x00, 0x0a, 0x7e,
   0x41, 0x04, 0xc0, 0x08, 0x40, 0x4c, 0x01, 0x40, 0x0c, 0x78, 0x80, 0x04,
   0x70, 0x00, 0x21, 0x44, 0x10, 0x20, 0x02, 0x70, 0xe0, 0x04, 0x20, 0x26,
   0x00, 0x3c, 0x10, 0x80, 0x03, 0xe0, 0x30, 0x58, 0xc0, 0x86, 0x40, 0x91,
   0x10, 0xc8, 0x00, 0x80, 0xf0, 0x50, 0xb0, 0x04, 0x02, 0x00, 0x08, 0xfc,
   0x01, 0x00, 0xa0, 0x60, 0xc0, 0x00, 0x20, 0x03, 0x1c, 0xec, 0x00, 0x00,
   0xb0, 0x18, 0x50, 0x21, 0xa0, 0x02, 0x14, 0xf4, 0x00, 0x00, 0x30, 0x1c,
   0x70, 0x20, 0x00, 0x80, 0x00, 0x70, 0x00, 0x80, 0x00, 0x00, 0xb0, 0x00,
   0x01, 0x01, 0x04, 0x30, 0x01, 0x80, 0x10, 0x08, 0xb8, 0x00, 0x08, 0x03,
   0x10, 0x78, 0x03, 0x00, 0x08, 0x08, 0xdc, 0x00, 0x40, 0x08, 0x14, 0x28,
   0x00, 0x00, 0x02, 0x00, 0xce, 0x00, 0x04, 0x8e, 0x18, 0x60, 0x00, 0x80,
   0x02, 0x00, 0x06, 0x00, 0x10, 0x01, 0xdc, 0x38, 0x04, 0xa0, 0x00, 0x90,
   0xa3, 0x20, 0x00, 0x01, 0x6c, 0x60, 0x08, 0x14, 0x00, 0x94, 0x80, 0x10,
   0x01, 0x02, 0x48, 0x3c, 0x72, 0x76, 0x00, 0x82, 0x41, 0x00, 0x01, 0x01,
   0x58, 0xa0, 0x84, 0x11, 0x10, 0xf2, 0x20, 0x00, 0x00, 0x45, 0xcc, 0x60,
   0x60, 0x00, 0x00, 0x97, 0x81, 0x00, 0x80, 0x00, 0x88, 0x19, 0x30, 0x02,
   0x81, 0x09, 0x42, 0x01, 0x00, 0x16, 0x19, 0x11, 0x00, 0x96, 0x81, 0x02,
   0x22, 0x41, 0x00, 0x00, 0x00, 0x08, 0x80, 0x35, 0xe0, 0x00, 0x00, 0x20,
   0x00, 0x08, 0x60, 0x52, 0x20, 0xa0, 0x7f, 0xa3, 0x08, 0x20, 0x00, 0x0e,
   0x30, 0x58, 0x00, 0x00, 0x3d, 0x60, 0x30, 0x20, 0x00, 0x52, 0x28, 0x38,
   0x00, 0x00, 0x1e, 0x00, 0x0c, 0x00, 0x00, 0x12, 0x28, 0x70, 0x00, 0x10,
   0x07, 0x04, 0x0c, 0x00, 0x08, 0x60, 0xf0, 0x40, 0x01, 0x80, 0x83, 0x0f,
   0x46, 0x1a, 0x00, 0xc0, 0x80, 0x02, 0x06, 0x20, 0xc1, 0x81, 0x03, 0x00,
   0x00, 0x00, 0x00, 0x60, 0xf0, 0x01, 0x98, 0x18, 0x00, 0x08, 0x00, 0xe0,
   0x00, 0xc0, 0x21, 0x44, 0x02, 0x00, 0x03, 0x04, 0x00, 0x40, 0x47, 0x84,
   0x01, 0x8f, 0x00, 0x80, 0x82, 0x00, 0x10, 0xa8, 0xc3, 0x08, 0x03, 0x86,
   0x00, 0x40, 0x80, 0x00, 0x00, 0x80, 0x00, 0x11, 0x06, 0x00, 0x10, 0x60,
   0x02, 0x00, 0x00, 0x00, 0xb9, 0x20, 0x06, 0x00, 0x00, 0x7c, 0x40, 0x00,
   0x00, 0x00, 0x70, 0x02, 0x04, 0x02, 0x00, 0xa6, 0x00, 0x00, 0x00, 0x40,
   0x00, 0x00, 0x08, 0x00, 0x00, 0x00, 0x00, 0x00, 0x00, 0x00, 0x80, 0x00,
   0x10, 0x00, 0x00, 0x14, 0x00, 0x00, 0x00, 0x00, 0x4c, 0x0c, 0x30, 0x80,
   0x12, 0x05, 0x01, 0x00, 0x00, 0x02, 0xc0, 0x70, 0x30, 0x00, 0x86, 0x80,
   0x00, 0x00, 0x00, 0x00, 0x10, 0x08, 0x53, 0xb0, 0x00, 0x00, 0x00, 0x00,
   0x00, 0x00, 0xb0, 0x40, 0x7c, 0x06, 0x00, 0x00, 0x00, 0x00, 0x00, 0x80,
   0x00, 0x40, 0x00, 0x08, 0x00, 0x00, 0x00, 0x00, 0x00, 0x00, 0x20, 0x03,
   0x01, 0x0a, 0x40, 0x04, 0x00, 0x00, 0x00, 0x00, 0x40, 0x24, 0x00, 0x00,
   0x04, 0x00, 0x00, 0x00, 0x00, 0x00, 0x80, 0x00, 0x00, 0x00, 0x00, 0x00,
   0x00, 0x00, 0x00, 0x00, 0x00, 0x00, 0x40, 0x00, 0x00, 0x04, 0x00, 0x00,
   0x00, 0x00, 0x00, 0x41, 0x00, 0x12, 0x00, 0x00, 0x00, 0x00, 0x00, 0x00,
   0x00, 0x00, 0x20, 0x82, 0x00, 0x01, 0x00, 0x00,
0x00, 0x00, 0x00, 0x00, 0x00, 0x21, 0x02, 0x00, 0x00, 0x00, 0x00, 0x00,
   0x00, 0x00, 0x08, 0x00, 0x00, 0x00, 0x00, 0x00, 0x00, 0x00, 0x00, 0x00,
   0x00, 0x10, 0x00, 0x00, 0x00, 0x00, 0x00, 0x00, 0x00, 0x0c, 0x00, 0x00,
   0x00, 0x00, 0x00, 0x00, 0x00, 0x00, 0x00, 0x00, 0x00, 0x08, 0x40, 0x04,
   0x00, 0x00, 0x00, 0x00, 0x00, 0x00, 0x10, 0x00, 0x00, 0x00, 0x00, 0x00,
   0x00, 0x40, 0x00, 0x00, 0x00, 0x00, 0x01, 0x00, 0x00, 0x00, 0x00, 0x00,
   0x00, 0x00, 0x80, 0x00, 0x0f, 0x04, 0x00, 0x00, 0x00, 0x00, 0x00, 0x00,
   0x00, 0x01, 0x18, 0x00, 0x00, 0x00, 0x00, 0x00, 0x00, 0x02, 0x54, 0x23,
   0x80, 0x00, 0x00, 0x00, 0x00, 0x00, 0x08, 0xa0, 0x60, 0xcb, 0x02, 0x30,
   0x00, 0x00, 0x00, 0x00, 0x00, 0x08, 0x04, 0x10, 0x18, 0xc0, 0x04, 0x00,
   0x00, 0x00, 0xf1, 0x0f, 0x00, 0x30, 0xe0, 0x01, 0x04, 0x00, 0x00, 0x80,
   0x81, 0x05, 0x00, 0x30, 0xb8, 0x01, 0x00, 0x00, 0x00, 0x00, 0x20, 0x00,
   0x00, 0x80, 0x14, 0x86, 0x00, 0x00, 0x00, 0x02, 0x0e, 0x00, 0x08, 0x82,
   0x25, 0x28, 0x00, 0x00, 0x00, 0x40, 0x0e, 0x20, 0x8e, 0x80, 0x60, 0x28,
   0x00, 0x00, 0x00, 0xc0, 0x0f, 0x1c, 0x74, 0x00, 0x03, 0x01, 0x08, 0x00,
   0x00, 0x48, 0x11, 0x09, 0x05, 0x89, 0x13, 0x02, 0x00, 0x00, 0x10, 0x88,
   0x21, 0x05, 0xd4, 0x08, 0xa4, 0x43, 0x00, 0x00, 0x00, 0xa8, 0x60, 0x05,
   0xc1, 0x17, 0x0d, 0x40, 0x00, 0x00, 0x0a, 0x60, 0x3c, 0x21, 0x6f, 0x39,
   0x20, 0x06, 0x10, 0x00, 0x00, 0x00, 0xfc, 0x4b, 0x2f, 0x88, 0xb1, 0x00,
   0x04, 0x00, 0x08, 0xf0, 0xc9, 0xee, 0x23, 0x05, 0xc5, 0x0c, 0x04, 0x00,
   0x00, 0x01, 0x1c, 0x78, 0x62, 0x00, 0x3c, 0x04, 0x0e, 0x01, 0x10, 0xf8,
   0x05, 0x4c, 0xc0, 0x00, 0x10, 0x02, 0x44, 0x00, 0x00, 0xc0, 0x01, 0x00,
   0x09, 0x00, 0x64, 0x06, 0x08, 0x20, 0x00, 0x4d, 0x21, 0x00, 0x12, 0x00,
   0xf0, 0x3d, 0x60, 0x00, 0x00, 0x11, 0x95, 0x01, 0x78, 0x02, 0xe0, 0x00,
   0x48, 0x00, 0x00, 0x18, 0x44, 0x00, 0x60, 0x0e, 0x08, 0x07, 0x20, 0x00,
   0x8c, 0x18, 0x00, 0x00, 0xe0, 0x3c, 0xa0, 0x0b, 0x20, 0x00, 0x08, 0x7a,
   0x20, 0x00, 0x6a, 0x28, 0x01, 0x22, 0x20, 0x00, 0x00, 0x60, 0x21, 0x80,
   0x91, 0x2f, 0x20, 0x40, 0x60, 0x00, 0x40, 0x03, 0x00, 0xc0, 0x10, 0x1c,
   0x10, 0x07, 0x60, 0x20, 0x84, 0x01, 0x98, 0x10, 0x05, 0xfc, 0x03, 0x0d,
   0x40, 0x08, 0x00, 0x00, 0x18, 0x98, 0x02, 0xf0, 0x22, 0x20, 0x80, 0x18,
   0x08, 0x81, 0x1c, 0xf8, 0x03, 0xe0, 0xc0, 0x00, 0x40, 0x00, 0x40, 0x01,
   0x00, 0xec, 0x01, 0xc0, 0x00, 0x48, 0xa0, 0x30, 0x00, 0x01, 0x00, 0xf0,
   0x01, 0x80, 0xe1, 0x05, 0x00, 0x00, 0x00, 0x0f, 0x0a, 0xf0, 0x00, 0x00,
   0xa0, 0x20, 0x81, 0x20, 0x00, 0x41, 0x10, 0x38, 0x00, 0x00, 0xb0, 0x18,
   0xe0, 0x08, 0x80, 0x01, 0x1c, 0xb0, 0x01, 0x80, 0xb0, 0x10, 0xa0, 0x04,
   0x80, 0x01, 0x0c, 0x14, 0x01, 0x80, 0xb0, 0x60, 0x80, 0x06, 0x80, 0x00,
   0x36, 0x34, 0x01, 0x80, 0x10, 0x08, 0xb0, 0x24, 0x90, 0x03, 0x14, 0x1c,
   0x00, 0x80, 0x18, 0x0a, 0xe8, 0x04, 0x00, 0x31, 0x06, 0x16, 0x02, 0x00,
   0x0c, 0x00, 0x80, 0x81, 0x80, 0x05, 0x12, 0x04, 0x04, 0x40, 0x01, 0x00,
   0xb8, 0x00, 0x00, 0x44, 0x26, 0x2c, 0x15, 0xf8, 0x01, 0x04, 0x5e, 0x70,
   0x00, 0x03, 0x76, 0x12, 0x00, 0x4f, 0x00, 0x00, 0x5e, 0x00, 0x80, 0x03,
   0x00, 0x04, 0x78, 0x1c, 0x00, 0x40, 0x67, 0x00, 0x41, 0x01, 0x58, 0x03,
   0x1c, 0x00, 0x00, 0x44, 0x63, 0x40, 0x00, 0x0e, 0xc4, 0x00, 0x20, 0x00,
   0x84, 0xe1, 0x20, 0x00, 0x00, 0x04, 0x05, 0x06, 0xa0, 0x02, 0xc0, 0x60,
   0x20, 0x00, 0x00, 0x08, 0x04, 0x1b, 0xa4, 0x67, 0xc0, 0x5c, 0x30, 0x00,
   0x00, 0x08, 0x1e, 0x0f, 0x00, 0x06, 0x70, 0x29, 0x18, 0x14, 0x80, 0x0c,
   0x00, 0x0e, 0x00, 0xf4, 0x48, 0x23, 0x00, 0x00, 0x00, 0x1c, 0x30, 0x1c,
   0x00, 0xa0, 0x5f, 0x60, 0x10, 0x20, 0x80, 0x13, 0x00, 0x60, 0x00, 0xc0,
   0x4e, 0x00, 0x0c, 0x10, 0x00, 0x38, 0x24, 0x04, 0x00, 0xc1, 0x03, 0x12,
   0x20, 0x00, 0x00, 0x20, 0x44, 0x18, 0x06, 0x7a, 0x00, 0x04, 0x03, 0x40,
   0x00, 0x10, 0xc0, 0x18, 0x06, 0x13, 0xc0, 0x00, 0x02, 0x09, 0x00, 0x80,
   0x09, 0x18, 0x00, 0x00, 0xf8, 0x80, 0x00, 0x00, 0x00, 0x02, 0x02, 0x39,
   0x30, 0x94, 0x1d, 0xc0, 0x00, 0x02, 0x00, 0x00, 0x00, 0x30, 0x70, 0x2c,
   0x88, 0x20, 0x04, 0x00, 0x00, 0x30, 0x04, 0x20, 0x00, 0x05, 0x82, 0x10,
   0x30, 0x00, 0x00, 0x00, 0x11, 0x60, 0x10, 0x00, 0x00, 0x18, 0x80, 0x00,
   0x00, 0x00, 0x72, 0x40, 0x00, 0x80, 0x00, 0x1c, 0x80, 0x00, 0x00, 0x40,
   0xc0, 0x81, 0x00, 0x00, 0x00, 0x03, 0x60, 0x00, 0x00, 0x00, 0x22, 0xc4,
   0x01, 0x40, 0xa8, 0x03, 0x04, 0x00, 0x00, 0x00, 0x00, 0xcc, 0x00, 0x00,
   0x98, 0x11, 0x00, 0x00, 0x00, 0x80, 0x82, 0x41, 0x01, 0x0a, 0x00, 0x02,
   0x00, 0x00, 0x00, 0x80, 0x00, 0xc0, 0x00, 0x6a, 0x51, 0x00, 0x00, 0x00,
   0x40, 0x00, 0x00, 0x04, 0x8a, 0x02, 0x16, 0x00, 0x00, 0x00, 0x00, 0x00,
   0x00, 0x00, 0x08, 0x00, 0x00, 0x00, 0x00, 0x00, 0x00, 0x00, 0x00, 0x00,
   0x44, 0x00, 0x00, 0x00, 0x00, 0x00, 0x00, 0x00, 0x00, 0x00, 0x00, 0x00,
   0x00, 0x00, 0x00, 0x00, 0x00, 0x00, 0x00, 0x82, 0x80, 0x88, 0x00, 0x00,
   0x00, 0x00, 0x00, 0x00, 0x10, 0x20, 0x10, 0x00, 0x08, 0x00, 0x00, 0x00,
   0x00, 0x00, 0x00, 0x00, 0x00, 0x00, 0x00, 0x00, 0x00, 0x00, 0x00, 0x00,
   0x00, 0x03, 0x00, 0x00, 0x00, 0x00, 0x00, 0x00,
0x00, 0x00, 0x00, 0x00, 0x00, 0x00, 0x00, 0x00, 0x00, 0x00, 0x00, 0x00,
   0x00, 0x00, 0x04, 0x00, 0x01, 0x00, 0x00, 0x00, 0x00, 0x00, 0x00, 0x00,
   0x00, 0x00, 0x20, 0x04, 0x00, 0x00, 0x00, 0x00, 0x00, 0x00, 0x00, 0x10,
   0x00, 0x01, 0x00, 0x00, 0x00, 0x00, 0x00, 0x00, 0x00, 0x00, 0x08, 0x00,
   0x00, 0x00, 0x00, 0x00, 0x00, 0x00, 0x00, 0x08, 0x04, 0x88, 0x00, 0x00,
   0x00, 0x00, 0x00, 0x00, 0x00, 0x00, 0x00, 0x48, 0x00, 0x00, 0x00, 0x00,
   0x00, 0x86, 0x00, 0x20, 0x00, 0x00, 0x00, 0x00, 0x00, 0x20, 0x40, 0x00,
   0x0e, 0x01, 0x41, 0x00, 0x43, 0x00, 0x00, 0x00, 0x20, 0x7c, 0x22, 0x70,
   0xc0, 0x03, 0x00, 0x00, 0x00, 0x00, 0x00, 0xa0, 0x00, 0x98, 0x0e, 0x02,
   0x00, 0x00, 0x00, 0x00, 0x80, 0xa4, 0x01, 0x81, 0x0a, 0x06, 0x01, 0x00,
   0x00, 0x40, 0xda, 0x01, 0x00, 0x00, 0xb2, 0x00, 0x40, 0x00, 0x00, 0x11,
   0xfd, 0x01, 0x00, 0x00, 0x84, 0x10, 0x00, 0x00, 0x00, 0x80, 0x30, 0x80,
   0x04, 0x00, 0x06, 0x05, 0x02, 0x00, 0x80, 0x00, 0x10, 0x27, 0xe5, 0x01,
   0x54, 0x14, 0x28, 0x00, 0x00, 0x10, 0x1e, 0x80, 0x00, 0x60, 0x10, 0x3b,
   0x18, 0x00, 0x80, 0x04, 0x44, 0x86, 0x50, 0x1f, 0xd4, 0x22, 0x01, 0x00,
   0x00, 0x10, 0xeb, 0x53, 0x44, 0x00, 0x10, 0xa0, 0x00, 0x00, 0x0c, 0x00,
   0x98, 0x1e, 0x12, 0x1d, 0x20, 0x8a, 0x08, 0x00, 0x20, 0x80, 0x6f, 0xee,
   0x78, 0x8c, 0x38, 0x80, 0x02, 0x00, 0x00, 0x48, 0x0f, 0x61, 0xff, 0xbe,
   0x41, 0x39, 0x02, 0x00, 0x40, 0x2a, 0x0a, 0xc0, 0x33, 0x81, 0x09, 0x0a,
   0x00, 0x00, 0x50, 0x80, 0x08, 0x28, 0x1b, 0x48, 0x80, 0x10, 0x80, 0x00,
   0x00, 0x44, 0xac, 0x11, 0x00, 0x23, 0x0c, 0x00, 0x04, 0x00, 0x04, 0xe8,
   0x14, 0x06, 0x08, 0x07, 0x08, 0x31, 0x4a, 0x00, 0x84, 0xc0, 0x01, 0x02,
   0xc8, 0x00, 0x60, 0x06, 0x00, 0x00, 0x08, 0x8c, 0x84, 0x80, 0x20, 0x00,
   0xe0, 0x60, 0x80, 0x01, 0x00, 0x0a, 0x80, 0x00, 0xc0, 0x0b, 0xa0, 0x50,
   0x20, 0x00, 0x10, 0x00, 0x80, 0x00, 0x80, 0x19, 0x80, 0x19, 0x30, 0x00,
   0x08, 0x02, 0x60, 0x00, 0x08, 0x33, 0xc0, 0x17, 0x78, 0x00, 0x80, 0x02,
   0x31, 0x02, 0xd3, 0x39, 0x20, 0xb3, 0x00, 0x05, 0x11, 0x02, 0x10, 0xa0,
   0x68, 0xb7, 0x00, 0x0e, 0xa0, 0x00, 0x00, 0x0a, 0x28, 0x30, 0x0b, 0xdc,
   0x82, 0x16, 0x20, 0x01, 0x00, 0x01, 0x00, 0x78, 0x05, 0x38, 0x00, 0x34,
   0x00, 0x00, 0x02, 0x41, 0x14, 0xc0, 0x07, 0xe0, 0x61, 0x40, 0x80, 0x40,
   0x80, 0x01, 0x10, 0x60, 0x01, 0xe0, 0x03, 0x02, 0xc0, 0x00, 0x88, 0x02,
   0x1e, 0xf0, 0x01, 0xe0, 0x05, 0x8f, 0x40, 0x00, 0x00, 0x03, 0x0e, 0x7c,
   0x00, 0xc0, 0x21, 0x18, 0xc0, 0x00, 0x80, 0x10, 0x32, 0xb4, 0x00, 0x80,
   0x80, 0x40, 0x40, 0x00, 0x80, 0x11, 0x16, 0x00, 0x01, 0x00, 0x41, 0x20,
   0x80, 0x00, 0x00, 0x02, 0x13, 0xbe, 0x00, 0x00, 0xe0, 0x09, 0x80, 0x20,
   0xa0, 0x21, 0x09, 0x09, 0x00, 0x80, 0x30, 0x04, 0x00, 0x10, 0xa0, 0x00,
   0x13, 0x0e, 0x01, 0x00, 0xd0, 0x20, 0xa0, 0x00, 0x60, 0x00, 0x1a, 0x02,
   0x01, 0x40, 0x10, 0x0c, 0x01, 0x30, 0x18, 0x06, 0x00, 0x55, 0x02, 0x40,
   0x58, 0x50, 0xc0, 0x00, 0x00, 0x00, 0x07, 0x85, 0x02, 0x00, 0x04, 0x24,
   0x70, 0x00, 0x00, 0x43, 0x91, 0x05, 0x04, 0x50, 0x06, 0x15, 0x50, 0x08,
   0x20, 0x82, 0x21, 0x00, 0xce, 0xf7, 0x00, 0x04, 0x48, 0x03, 0x80, 0x80,
   0xc1, 0x04, 0x17, 0x13, 0x00, 0x02, 0x70, 0x03, 0x10, 0x03, 0xc3, 0x02,
   0x00, 0x05, 0x00, 0x01, 0x34, 0x13, 0x40, 0x02, 0xc2, 0x00, 0x18, 0x00,
   0x00, 0x00, 0x7e, 0x20, 0x80, 0x0f, 0xc6, 0x83, 0xa4, 0x00, 0x00, 0x00,
   0x27, 0x00, 0x00, 0x04, 0x80, 0x01, 0xa0, 0x00, 0x01, 0xd0, 0x17, 0x00,
   0x00, 0x81, 0x04, 0x06, 0xc0, 0x0d, 0x70, 0xe1, 0x11, 0x04, 0x20, 0x88,
   0x84, 0x0c, 0x80, 0x00, 0x10, 0x7c, 0x0c, 0xc0, 0x00, 0x18, 0x89, 0x01,
   0x00, 0x0f, 0x9c, 0x0d, 0x0c, 0x00, 0x00, 0xa0, 0x80, 0x23, 0x20, 0xb0,
   0x2e, 0x0b, 0x06, 0x00, 0x00, 0x23, 0x11, 0x61, 0x01, 0xfc, 0x2b, 0x02,
   0x04, 0x10, 0x00, 0x43, 0x90, 0x01, 0x20, 0xff, 0x06, 0x80, 0x83, 0x10,
   0x00, 0x10, 0x00, 0x03, 0x22, 0x07, 0x00, 0x06, 0x40, 0x00, 0x00, 0x92,
   0x00, 0x01, 0x03, 0x00, 0x20, 0x00, 0x81, 0x12, 0x00, 0x02, 0x03, 0x03,
   0x27, 0x00, 0x40, 0xc0, 0x00, 0x01, 0x00, 0x10, 0x02, 0x02, 0x40, 0xcd,
   0x07, 0x18, 0x02, 0x04, 0x00, 0x00, 0x09, 0x82, 0x28, 0xc1, 0x04, 0x20,
   0x00, 0x00, 0x00, 0x16, 0x10, 0x06, 0x00, 0x10, 0x00, 0x14, 0x00, 0x00,
   0x00, 0x30, 0x6c, 0x06, 0x00, 0x00, 0x04, 0x0e, 0x88, 0x00, 0x00, 0x44,
   0x00, 0x07, 0x00, 0x04, 0xc0, 0x01, 0x20, 0x00, 0x00, 0x00, 0x81, 0x05,
   0x00, 0x00, 0x00, 0x30, 0x10, 0x00, 0x00, 0x40, 0x10, 0x02, 0x00, 0x01,
   0x70, 0x80, 0x00, 0x00, 0x00, 0x00, 0x00, 0x28, 0x08, 0xa0, 0x1c, 0x00,
   0x24, 0x00, 0x00, 0x00, 0x01, 0x80, 0x2b, 0xe0, 0x0e, 0x00, 0x00, 0x00,
   0x00, 0x00, 0x00, 0x78, 0x80, 0x04, 0x62, 0x80, 0x00, 0x00, 0x00, 0x20,
   0x04, 0x80, 0x00, 0x28, 0x08, 0x18, 0x00, 0x00, 0x00, 0x00, 0x40, 0x01,
   0x00, 0x04, 0x00, 0x00, 0x00, 0x00, 0x00, 0x00, 0x4a, 0x00, 0x00, 0x00,
   0x00, 0x04, 0x00, 0x00, 0x00, 0x80, 0x00, 0x04, 0x51, 0x00, 0x01, 0x80,
   0x00, 0x00, 0x00, 0x00, 0x00, 0x30, 0xa0, 0x01, 0x00, 0x00, 0x00, 0x00,
   0x00, 0x00, 0xc0, 0x01, 0x00, 0x00, 0x00, 0x00, 0x00, 0x00, 0x00, 0x00,
   0x01, 0x80, 0x01, 0x08, 0x00, 0x00, 0x00, 0x00,
0x00, 0x00, 0x00, 0x00, 0x00, 0x00, 0x00, 0x00, 0x00, 0x00, 0x00, 0x00,
   0x00, 0x00, 0x00, 0x04, 0x20, 0x04, 0x00, 0x00, 0x00, 0x00, 0x00, 0x00,
   0x04, 0x00, 0x00, 0x10, 0x00, 0x00, 0x00, 0x00, 0x00, 0x00, 0x00, 0x10,
   0x80, 0x00, 0x00, 0x00, 0x00, 0x00, 0x00, 0x00, 0x00, 0x00, 0x00, 0x00,
   0x00, 0x00, 0x00, 0x00, 0x20, 0x00, 0x01, 0x00, 0x00, 0x10, 0x01, 0x00,
   0x00, 0x00, 0x00, 0x18, 0x20, 0x00, 0x04, 0x00, 0x00, 0x00, 0x00, 0x00,
   0x08, 0x00, 0x0e, 0x01, 0x00, 0x84, 0x00, 0x00, 0x00, 0x10, 0x00, 0x02,
   0x9c, 0x02, 0x00, 0x01, 0x10, 0x00, 0x00, 0x00, 0x40, 0x77, 0xa9, 0x48,
   0x08, 0x00, 0x10, 0x00, 0x00, 0x00, 0x20, 0x2c, 0x60, 0x08, 0x05, 0x00,
   0x00, 0x00, 0x00, 0x10, 0x00, 0x36, 0x00, 0x40, 0x5e, 0x10, 0x00, 0x00,
   0x00, 0x00, 0xc0, 0x01, 0x00, 0x00, 0xaa, 0x10, 0x04, 0x00, 0x00, 0x10,
   0xc1, 0x81, 0x10, 0x00, 0x10, 0x61, 0x00, 0x00, 0x00, 0x00, 0x60, 0x48,
   0xa4, 0x00, 0x40, 0x41, 0x00, 0x00, 0x00, 0x00, 0x90, 0x9d, 0x9a, 0x04,
   0xc0, 0x8c, 0x00, 0x08, 0x00, 0x82, 0x78, 0x7b, 0x01, 0x19, 0xc0, 0x10,
   0x00, 0x00, 0x00, 0x22, 0xe6, 0xe6, 0x01, 0x68, 0xc0, 0x30, 0x20, 0x00,
   0x00, 0x02, 0xd0, 0xd0, 0xa2, 0xe5, 0x85, 0x45, 0x02, 0x00, 0x00, 0xe0,
   0x8c, 0x00, 0x06, 0x01, 0x00, 0x41, 0x00, 0x00, 0x80, 0x08, 0x46, 0x40,
   0xb4, 0xf7, 0x41, 0x6b, 0xc3, 0x00, 0x00, 0x00, 0x26, 0x0d, 0xdf, 0xe7,
   0x08, 0x08, 0x83, 0x02, 0x88, 0x70, 0x8c, 0x80, 0x30, 0xe1, 0x09, 0x23,
   0x92, 0x01, 0x00, 0x40, 0x14, 0x70, 0x80, 0x11, 0x8a, 0x41, 0x06, 0x00,
   0x02, 0x08, 0x00, 0x04, 0x40, 0x48, 0x0c, 0x02, 0x0c, 0x08, 0x00, 0x10,
   0x00, 0x04, 0x40, 0x18, 0x43, 0x92, 0xa9, 0x00, 0x00, 0x08, 0x00, 0x02,
   0x02, 0x13, 0x20, 0x54, 0x11, 0x00, 0x00, 0x08, 0xc4, 0x01, 0x00, 0x03,
   0x40, 0x80, 0x00, 0x00, 0x08, 0x34, 0xa0, 0x08, 0x00, 0x0e, 0x40, 0x0c,
   0x00, 0x00, 0x00, 0x02, 0xe0, 0x00, 0x20, 0x26, 0x80, 0xc1, 0x30, 0x04,
   0x00, 0x06, 0x01, 0x80, 0x4e, 0x6e, 0x80, 0x37, 0x10, 0x00, 0x00, 0x01,
   0x28, 0xe0, 0x80, 0x63, 0x80, 0x82, 0x20, 0x01, 0x00, 0x06, 0x20, 0xf0,
   0x96, 0xed, 0x00, 0x46, 0x01, 0x01, 0x81, 0x01, 0x1c, 0x80, 0x17, 0x58,
   0x01, 0x67, 0x00, 0x02, 0x00, 0x11, 0x3c, 0xc0, 0x0e, 0xf0, 0x41, 0x2f,
   0x80, 0x00, 0x80, 0x01, 0x44, 0xf8, 0x03, 0x30, 0x04, 0xc4, 0xe0, 0x00,
   0xc0, 0x01, 0x36, 0xf0, 0x00, 0xe0, 0x00, 0x5d, 0xc1, 0x00, 0x60, 0x20,
   0x11, 0x34, 0x00, 0xc0, 0x03, 0x28, 0x00, 0x02, 0xc0, 0x00, 0x09, 0x0e,
   0x01, 0xc0, 0xc5, 0x28, 0x40, 0x08, 0x00, 0x83, 0x11, 0xbd, 0x00, 0xc0,
   0x05, 0x20, 0x20, 0x01, 0x00, 0x00, 0x18, 0x8a, 0x00, 0xc0, 0x21, 0x06,
   0x00, 0x00, 0x10, 0x01, 0x12, 0x05, 0x00, 0x80, 0x00, 0x8e, 0x80, 0x21,
   0x00, 0xa1, 0x81, 0x8a, 0x00, 0x00, 0x80, 0x18, 0xc0, 0x00, 0xc8, 0xc0,
   0xc8, 0x62, 0x01, 0x00, 0x60, 0x00, 0x40, 0x00, 0xd0, 0x60, 0x58, 0x42,
   0x01, 0x40, 0xd0, 0x34, 0x40, 0x00, 0x80, 0x80, 0x00, 0x00, 0x03, 0x20,
   0x38, 0x00, 0x40, 0x00, 0xc0, 0x03, 0x71, 0x01, 0x00, 0x10, 0x4c, 0x44,
   0x40, 0x00, 0x00, 0x81, 0xb0, 0xc0, 0x03, 0x00, 0x0c, 0x10, 0x40, 0x00,
   0x48, 0x00, 0x71, 0x80, 0xe9, 0x2f, 0x22, 0x06, 0x20, 0x14, 0x00, 0x11,
   0x60, 0x00, 0xc0, 0xb4, 0x01, 0x54, 0x28, 0x08, 0x00, 0x03, 0xe1, 0x20,
   0x04, 0x05, 0x40, 0x09, 0x20, 0x00, 0x00, 0x24, 0x91, 0x00, 0x05, 0x00,
   0x80, 0x03, 0x38, 0x0c, 0x60, 0x14, 0x91, 0x01, 0x14, 0x00, 0x80, 0x00,
   0x1c, 0x04, 0x40, 0x20, 0x30, 0x00, 0x30, 0x00, 0x40, 0x00, 0x13, 0x00,
   0x00, 0x05, 0x31, 0x00, 0xb0, 0x21, 0x00, 0x00, 0x4a, 0x01, 0x20, 0x01,
   0x32, 0x04, 0x10, 0x00, 0x00, 0x80, 0xdc, 0x00, 0x40, 0x10, 0x20, 0x0c,
   0xe0, 0x00, 0x06, 0xa0, 0x4a, 0x00, 0x00, 0x11, 0x30, 0x10, 0x42, 0x01,
   0x23, 0xf2, 0x0d, 0x42, 0x20, 0x21, 0x10, 0x20, 0x84, 0xc7, 0x83, 0xfd,
   0x02, 0x00, 0xa0, 0x48, 0x10, 0x30, 0xf2, 0xbd, 0x9a, 0x0e, 0x00, 0x00,
   0x80, 0x00, 0x20, 0x70, 0x70, 0xbe, 0xf2, 0xc0, 0x81, 0x04, 0x40, 0x40,
   0x21, 0x00, 0x02, 0x40, 0x22, 0xa0, 0x01, 0x01, 0x00, 0x20, 0x33, 0x44,
   0x0a, 0x00, 0x40, 0x40, 0x00, 0x00, 0x20, 0x00, 0x38, 0x00, 0x5b, 0x00,
   0x20, 0x70, 0x00, 0x00, 0x00, 0x40, 0x12, 0x00, 0x80, 0x6e, 0x4a, 0x08,
   0x80, 0x00, 0x00, 0x00, 0x38, 0x00, 0x00, 0x36, 0x02, 0x00, 0x00, 0x00,
   0x00, 0x00, 0x00, 0x00, 0x80, 0x00, 0x00, 0x1c, 0x04, 0x00, 0x80, 0x00,
   0x20, 0x00, 0x10, 0x00, 0x80, 0x01, 0x00, 0x00, 0x00, 0x10, 0x80, 0x02,
   0x00, 0x00, 0x20, 0x10, 0x00, 0x00, 0x00, 0x00, 0xe0, 0xac, 0x00, 0x00,
   0xb9, 0x00, 0x14, 0x00, 0x00, 0x04, 0x04, 0xa3, 0x00, 0x00, 0x06, 0x00,
   0x00, 0x00, 0x00, 0x02, 0x00, 0x00, 0x8a, 0xc2, 0x01, 0x40, 0x00, 0x00,
   0x00, 0x00, 0x00, 0x00, 0x88, 0x3d, 0x82, 0x00, 0x02, 0x00, 0x00, 0x00,
   0x00, 0x02, 0x10, 0x38, 0x00, 0x42, 0x00, 0x00, 0x00, 0x90, 0x00, 0x00,
   0x80, 0x82, 0x00, 0x00, 0x00, 0x00, 0x00, 0x00, 0x00, 0x20, 0x00, 0x10,
   0x00, 0x48, 0x00, 0x00, 0x00, 0x00, 0x00, 0x00, 0x03, 0x00, 0x10, 0x01,
   0x00, 0x00, 0x00, 0x00, 0x08, 0x01, 0x00, 0x00, 0x00, 0x00, 0x00, 0x00,
   0x00, 0x00, 0x00, 0x00, 0x00, 0x00, 0x00, 0x00, 0x00, 0x00, 0x00, 0x00,
   0x00, 0x02, 0x00, 0x00, 0x00, 0x00, 0x00, 0x00};
