#define flag_ship_rom_width 80
#define flag_ship_rom_height 110
static char flag_ship_rom_bits[] = {
   0x00, 0x00, 0x00, 0x00, 0x70, 0x00, 0x00, 0x00, 0x00, 0x00, 0x00, 0x00,
   0x00, 0x00, 0xfc, 0x01, 0x00, 0x00, 0x00, 0x00, 0x00, 0x00, 0x00, 0x00,
   0xfe, 0x03, 0x00, 0x00, 0x00, 0x00, 0x00, 0x00, 0x00, 0x00, 0xff, 0x07,
   0x00, 0x00, 0x00, 0x00, 0x00, 0x00, 0x00, 0x00, 0x07, 0x07, 0x00, 0x00,
   0x00, 0x00, 0x00, 0x00, 0x00, 0x80, 0xf9, 0x0c, 0x00, 0x00, 0x00, 0x00,
   0x00, 0x00, 0x00, 0x80, 0x26, 0x0b, 0x00, 0x00, 0x00, 0x00, 0x00, 0x00,
   0x00, 0x00, 0xaf, 0x07, 0x00, 0x00, 0x00, 0x00, 0x00, 0x00, 0x00, 0x00,
   0xaf, 0x07, 0x00, 0x00, 0x00, 0x00, 0x00, 0x00, 0x00, 0x80, 0xaf, 0x0f,
   0x00, 0x00, 0x00, 0x00, 0x00, 0x00, 0x00, 0x80, 0xaf, 0x0f, 0x00, 0x00,
   0x00, 0x00, 0x00, 0x00, 0x00, 0xc0, 0xaf, 0x1f, 0x00, 0x00, 0x00, 0x00,
   0x00, 0x00, 0x00, 0xc0, 0x03, 0x1e, 0x00, 0x00, 0x00, 0x00, 0x00, 0x00,
   0x00, 0xc0, 0x03, 0x1e, 0x00, 0x00, 0x00, 0x00, 0x00, 0x00, 0x00, 0xc0,
   0x03, 0x1e, 0x00, 0x00, 0x00, 0x00, 0x00, 0x00, 0x00, 0xc0, 0x03, 0x1e,
   0x00, 0x00, 0x00, 0x00, 0x00, 0x00, 0x00, 0xc0, 0x07, 0x1f, 0x00, 0x00,
   0x00, 0x00, 0x00, 0x00, 0x00, 0xc0, 0x57, 0x1f, 0x00, 0x00, 0x00, 0x00,
   0x00, 0x00, 0x00, 0xc0, 0x50, 0x18, 0x00, 0x00, 0x00, 0x00, 0x00, 0x00,
   0x00, 0x40, 0xd8, 0x10, 0x00, 0x00, 0x00, 0x00, 0x00, 0x00, 0x00, 0xc0,
   0xdc, 0x19, 0x00, 0x00, 0x00, 0x00, 0x00, 0x00, 0x00, 0xc0, 0xdf, 0x1f,
   0x00, 0x00, 0x00, 0x00, 0x00, 0x00, 0x00, 0xc0, 0x8f, 0x1f, 0x00, 0x00,
   0x00, 0x00, 0x00, 0x00, 0x00, 0xc0, 0x07, 0x1f, 0x00, 0x00, 0x00, 0x00,
   0x00, 0x00, 0x00, 0xc0, 0x8f, 0x1f, 0x00, 0x00, 0x00, 0x00, 0x00, 0x00,
   0x00, 0x80, 0xff, 0x0f, 0x00, 0x00, 0x00, 0x00, 0x00, 0x00, 0x00, 0x80,
   0xff, 0x0f, 0x00, 0x00, 0x00, 0x00, 0x00, 0x00, 0x00, 0x00, 0xff, 0x07,
   0x00, 0x00, 0x00, 0x00, 0x00, 0x00, 0x00, 0x00, 0xfe, 0x03, 0x00, 0x00,
   0x00, 0x00, 0x00, 0x00, 0x00, 0x00, 0xfc, 0x01, 0x00, 0x00, 0x00, 0x00,
   0x00, 0x00, 0x00, 0x00, 0xfc, 0x01, 0x00, 0x00, 0x00, 0x00, 0x00, 0x00,
   0x00, 0x00, 0xf8, 0x00, 0x00, 0x00, 0x00, 0x00, 0x00, 0x00, 0x00, 0x00,
   0x70, 0x00, 0x00, 0x00, 0x00, 0x00, 0x00, 0x00, 0x00, 0x00, 0x70, 0x00,
   0x00, 0x00, 0x00, 0x00, 0x00, 0x00, 0x00, 0x00, 0x70, 0x00, 0x00, 0x00,
   0x00, 0x00, 0x00, 0x00, 0x00, 0x00, 0xf8, 0x00, 0x00, 0x00, 0x00, 0x00,
   0x00, 0x00, 0x00, 0x00, 0xf8, 0x00, 0x00, 0x00, 0x00, 0x00, 0x00, 0x00,
   0x00, 0x00, 0xf8, 0x00, 0x00, 0x00, 0x00, 0x00, 0x00, 0x00, 0x00, 0x00,
   0xf8, 0x00, 0x00, 0x00, 0x00, 0x00, 0x30, 0x00, 0x00, 0x00, 0x70, 0x00,
   0x00, 0x00, 0x60, 0x00, 0x78, 0x00, 0x00, 0x00, 0x76, 0x03, 0x00, 0x00,
   0xf0, 0x00, 0xfc, 0x00, 0x00, 0x00, 0x77, 0x07, 0x00, 0x00, 0xf8, 0x01,
   0x84, 0x00, 0x00, 0x00, 0x77, 0x07, 0x00, 0x00, 0x08, 0x01, 0x84, 0x00,
   0x00, 0x00, 0x77, 0x07, 0x00, 0x00, 0x08, 0x01, 0x84, 0x00, 0x00, 0x00,
   0x77, 0x07, 0x00, 0x00, 0x08, 0x01, 0x84, 0x00, 0x00, 0x00, 0x77, 0x07,
   0x00, 0x00, 0x08, 0x01, 0x84, 0x00, 0x00, 0x00, 0x77, 0x07, 0x00, 0x00,
   0x08, 0x01, 0x84, 0x00, 0x00, 0x00, 0xf9, 0x04, 0x00, 0x00, 0x08, 0x01,
   0x84, 0x00, 0x00, 0x00, 0xfe, 0x03, 0x00, 0x00, 0x08, 0x01, 0x84, 0x05,
   0x00, 0xc0, 0x77, 0x1f, 0x00, 0x00, 0x0d, 0x01, 0x84, 0x3d, 0x00, 0xf0,
   0xf9, 0x7c, 0x00, 0xe0, 0x0d, 0x01, 0x84, 0xfd, 0xff, 0xff, 0xfd, 0xfd,
   0xff, 0xff, 0x0d, 0x01, 0x84, 0xfd, 0xff, 0xff, 0xfe, 0xfb, 0xff, 0xff,
   0x0d, 0x01, 0x84, 0xfd, 0xff, 0xff, 0xfe, 0xfb, 0xff, 0xff, 0x0d, 0x01,
   0x84, 0x0d, 0x80, 0x08, 0xfe, 0x83, 0x08, 0x80, 0x0d, 0x01, 0x84, 0x0d,
   0x80, 0x08, 0xfe, 0x83, 0x08, 0x80, 0x0d, 0x01, 0x84, 0x0d, 0x80, 0x08,
   0xfe, 0x83, 0x08, 0x80, 0x0d, 0x01, 0x84, 0x0d, 0x80, 0x10, 0xfc, 0x41,
   0x08, 0x80, 0x0d, 0x01, 0x84, 0x0d, 0x80, 0x10, 0xf8, 0x40, 0x08, 0x80,
   0x0d, 0x01, 0x84, 0x0d, 0x00, 0x11, 0x00, 0x40, 0x04, 0x80, 0x0d, 0x01,
   0x84, 0x1d, 0x00, 0x21, 0x00, 0x20, 0x04, 0xc0, 0x0d, 0x01, 0x84, 0x1d,
   0x00, 0x41, 0x00, 0x10, 0x04, 0xc0, 0x0d, 0x01, 0x84, 0x1d, 0x00, 0x82,
   0x00, 0x08, 0x02, 0xc0, 0x0d, 0x01, 0x84, 0x3c, 0x00, 0x04, 0x07, 0x07,
   0x01, 0xe0, 0x09, 0x01, 0x84, 0x3c, 0x00, 0x08, 0xf8, 0x80, 0x00, 0xe0,
   0x09, 0x01, 0x84, 0x3c, 0x00, 0x10, 0x00, 0x40, 0x00, 0xe0, 0x09, 0x01,
   0x7c, 0x7c, 0x00, 0x20, 0x00, 0x20, 0x00, 0xf0, 0xf1, 0x01, 0x38, 0xfc,
   0x00, 0xc0, 0x01, 0x1c, 0x00, 0xf8, 0xe1, 0x00, 0x00, 0xfc, 0x00, 0x00,
   0xfe, 0x03, 0x00, 0xf8, 0x01, 0x00, 0x00, 0xfe, 0x01, 0x00, 0x00, 0x00,
   0x00, 0xfc, 0x03, 0x00, 0x00, 0xfe, 0x03, 0x00, 0x00, 0x00, 0x00, 0xfe,
   0x03, 0x00, 0x00, 0xff, 0x03, 0x00, 0x00, 0x00, 0x00, 0xfe, 0x07, 0x00,
   0x00, 0xff, 0x07, 0x00, 0x00, 0x00, 0x00, 0xff, 0x07, 0x00, 0x00, 0xff,
   0x0f, 0x00, 0x00, 0x00, 0x80, 0xff, 0x07, 0x00, 0x00, 0xfe, 0x3f, 0x00,
   0x00, 0x00, 0xe0, 0xff, 0x03, 0x00, 0x00, 0xfe, 0x7f, 0x00, 0x00, 0x00,
   0xf0, 0xff, 0x03, 0x00, 0x00, 0xfc, 0xff, 0x01, 0x00, 0x00, 0xfc, 0xff,
   0x01, 0x00, 0x00, 0xfc, 0xff, 0x03, 0x00, 0x00, 0xfe, 0xff, 0x01, 0x00,
   0x00, 0xf8, 0xff, 0x1f, 0x00, 0xc0, 0xff, 0xff, 0x00, 0x00, 0x00, 0xf8,
   0xff, 0xff, 0x00, 0xf8, 0xff, 0xff, 0xf8, 0x00, 0x00, 0xf0, 0xff, 0xff,
   0xff, 0xff, 0xff, 0x7f, 0xf8, 0x03, 0x00, 0xe0, 0xff, 0xff, 0xff, 0xff,
   0xff, 0x3f, 0xf8, 0x07, 0x00, 0xc0, 0xff, 0xff, 0xfb, 0xfe, 0xff, 0x1f,
   0xf8, 0x07, 0x00, 0x80, 0xff, 0xff, 0x71, 0xfc, 0xff, 0x0f, 0xf8, 0x0f,
   0x00, 0x00, 0xff, 0xff, 0xdb, 0xfe, 0xff, 0x07, 0xf8, 0x0f, 0x00, 0x00,
   0xfc, 0xff, 0xdb, 0xfe, 0xff, 0x01, 0xf8, 0x0f, 0x00, 0x00, 0xf8, 0xff,
   0x01, 0xfc, 0xff, 0x00, 0x00, 0x0e, 0x00, 0x00, 0xe0, 0xff, 0x00, 0xf8,
   0x3f, 0x00, 0x00, 0x0c, 0x00, 0x00, 0x80, 0xff, 0x00, 0xf8, 0x0f, 0x00,
   0x00, 0x0c, 0x00, 0x00, 0x00, 0xff, 0x00, 0xf8, 0x07, 0x00, 0x00, 0x0c,
   0x00, 0x00, 0x00, 0xfc, 0x00, 0xf8, 0x01, 0x00, 0x00, 0x0c, 0x00, 0x00,
   0x00, 0xf0, 0x00, 0x78, 0x00, 0x00, 0x00, 0x0c, 0x00, 0x00, 0x00, 0xe0,
   0x01, 0x3c, 0x00, 0x00, 0x00, 0x0c, 0x00, 0x00, 0x00, 0x80, 0x01, 0x0c,
   0x00, 0x00, 0x00, 0x0c, 0x00, 0x00, 0x00, 0x00, 0x03, 0x06, 0x00, 0x00,
   0x00, 0x0c, 0x00, 0x00, 0x00, 0x00, 0x06, 0x03, 0x00, 0x00, 0x00, 0x0c,
   0x00, 0x00, 0x00, 0x00, 0x04, 0x01, 0x00, 0x00, 0x00, 0x0c, 0x00, 0x00,
   0x00, 0x00, 0x8c, 0x01, 0x00, 0x00, 0x00, 0x0c, 0x00, 0x00, 0x00, 0x00,
   0xfc, 0x01, 0x00, 0x00, 0x00, 0x0c, 0x00, 0x00, 0x00, 0x00, 0xf8, 0x00,
   0x00, 0x00, 0x00, 0x0c, 0x00, 0x00, 0x00, 0x00, 0xf8, 0x00, 0x00, 0x00,
   0x00, 0x0c, 0x00, 0x00, 0x00, 0x00, 0xf8, 0x00, 0x00, 0x00, 0x00, 0x0c,
   0x00, 0x00, 0x00, 0x00, 0xf8, 0x00, 0x00, 0x00, 0x00, 0x0c, 0x00, 0x00,
   0x00, 0x00, 0xf8, 0x00, 0x00, 0x00, 0x00, 0x0c, 0x00, 0x00, 0x00, 0x00,
   0xf8, 0x00, 0x00, 0x00, 0x00, 0x0c, 0x00, 0x00, 0x00, 0x00, 0x70, 0x00,
   0x00, 0x00, 0x00, 0x0c, 0x00, 0x00, 0x00, 0x00, 0x00, 0x00, 0x00, 0x00,
   0x00, 0x0c, 0x00, 0x00, 0x00, 0x00, 0x00, 0x00, 0x00, 0x00, 0x00, 0x0c,
   0x00, 0x00, 0x00, 0x00, 0x00, 0x00, 0x00, 0x00, 0x00, 0x0c, 0x00, 0x00,
   0x00, 0x00, 0x00, 0x00, 0x00, 0x00, 0x00, 0x0c};
