#define flag_fuse_width 10
#define flag_fuse_height 5
static char flag_fuse_bits[] = {
   0xfe, 0xfc, 0xfe, 0xfc, 0x7c, 0xfc, 0x10, 0xfc, 0x00, 0xfc};
