#define flag_fuel_width 25
#define flag_fuel_height 9
static char flag_fuel_bits[] = {
   0xfe, 0xff, 0x7f, 0xfe, 0x87, 0x16, 0xfa, 0xfe, 0xf7, 0xd6, 0xfb, 0xfe,
   0x87, 0x16, 0xfa, 0xfe, 0xf7, 0xd6, 0xfb, 0xfe, 0xf7, 0xd6, 0xfb, 0xfe,
   0xf7, 0x19, 0xc2, 0xfe, 0xfe, 0xff, 0x7f, 0xfe, 0x00, 0x00, 0x00, 0xfe};
