#define flag_etemp_width 26
#define flag_etemp_height 9
static char flag_etemp_bits[] = {
   0xfe, 0xff, 0xff, 0xfd, 0x23, 0x62, 0x8d, 0xff, 0x7b, 0xbb, 0x6a, 0xff,
   0x63, 0xa3, 0x8a, 0xff, 0x7b, 0xbb, 0xea, 0xff, 0x7b, 0xbb, 0xea, 0xff,
   0x63, 0xa3, 0xea, 0xff, 0xfe, 0xff, 0xff, 0xfd, 0x00, 0x00, 0x00, 0xfc};
