#define flag_kli_width 20
#define flag_kli_height 20
static char flag_kli_bits[] = {
   0x00, 0x00, 0xf0, 0x00, 0x00, 0xf0, 0x00, 0x02, 0xf0, 0x00, 0x02, 0xf0,
   0x00, 0x02, 0xf0, 0x00, 0x02, 0xf0, 0x00, 0x02, 0xf0, 0x00, 0x07, 0xf0,
   0x00, 0x07, 0xf0, 0x00, 0x07, 0xf0, 0x00, 0x07, 0xf0, 0x80, 0x0f, 0xf0,
   0x40, 0x17, 0xf0, 0xe0, 0x3a, 0xf0, 0xe0, 0x7d, 0xf0, 0xe0, 0xf0, 0xf1,
   0x30, 0x00, 0xf0, 0x10, 0x00, 0xf0, 0x00, 0x00, 0xf0, 0x00, 0x00, 0xf0};
