#define flag_ship_kli_width 80
#define flag_ship_kli_height 110
static char flag_ship_kli_bits[] = {
   0x00, 0x00, 0x00, 0x00, 0x00, 0x00, 0x00, 0x00, 0x00, 0x00, 0x00, 0x00,
   0x00, 0x00, 0xf8, 0x03, 0x00, 0x00, 0x00, 0x00, 0x00, 0x00, 0x00, 0x00,
   0x9f, 0x1f, 0x00, 0x00, 0x00, 0x00, 0x00, 0x00, 0x00, 0xe0, 0x6f, 0x7f,
   0x00, 0x00, 0x00, 0x00, 0x00, 0x00, 0x00, 0xf0, 0x06, 0xf6, 0x00, 0x00,
   0x00, 0x00, 0x00, 0x00, 0x00, 0x78, 0x07, 0xee, 0x01, 0x00, 0x00, 0x00,
   0x00, 0x00, 0x00, 0x70, 0x0f, 0xef, 0x00, 0x00, 0x00, 0x00, 0x00, 0x00,
   0x00, 0x70, 0x9f, 0xef, 0x00, 0x00, 0x00, 0x00, 0x00, 0x00, 0x00, 0xe0,
   0x94, 0x72, 0x00, 0x00, 0x00, 0x00, 0x00, 0x00, 0x00, 0xc0, 0x6f, 0x3f,
   0x00, 0x00, 0x00, 0x00, 0x00, 0x00, 0x00, 0x80, 0x67, 0x1e, 0x00, 0x00,
   0x00, 0x00, 0x00, 0x00, 0x00, 0x00, 0x0e, 0x07, 0x00, 0x00, 0x00, 0x00,
   0x00, 0x00, 0x00, 0x00, 0x9c, 0x03, 0x00, 0x00, 0x00, 0x00, 0x00, 0x00,
   0x00, 0x00, 0x6c, 0x03, 0x00, 0x00, 0x00, 0x00, 0x00, 0x00, 0x00, 0x00,
   0x98, 0x01, 0x00, 0x00, 0x00, 0x00, 0x00, 0x00, 0x00, 0x00, 0x90, 0x00,
   0x00, 0x00, 0x00, 0x00, 0x00, 0x00, 0x00, 0x00, 0xf0, 0x00, 0x00, 0x00,
   0x00, 0x00, 0x00, 0x00, 0x00, 0x00, 0xf0, 0x00, 0x00, 0x00, 0x00, 0x00,
   0x00, 0x00, 0x00, 0x00, 0x60, 0x00, 0x00, 0x00, 0x00, 0x00, 0x00, 0x00,
   0x00, 0x00, 0x60, 0x00, 0x00, 0x00, 0x00, 0x00, 0x00, 0x00, 0x00, 0x00,
   0x60, 0x00, 0x00, 0x00, 0x00, 0x00, 0x00, 0x00, 0x00, 0x00, 0xf0, 0x00,
   0x00, 0x00, 0x00, 0x00, 0x00, 0x00, 0x00, 0x00, 0xf0, 0x00, 0x00, 0x00,
   0x00, 0x00, 0x00, 0x00, 0x00, 0x00, 0xf0, 0x00, 0x00, 0x00, 0x00, 0x00,
   0x00, 0x00, 0x00, 0x00, 0xf0, 0x00, 0x00, 0x00, 0x00, 0x00, 0x00, 0x00,
   0x00, 0x00, 0xf0, 0x00, 0x00, 0x00, 0x00, 0x00, 0x00, 0x00, 0x00, 0x00,
   0xf0, 0x00, 0x00, 0x00, 0x00, 0x00, 0x00, 0x00, 0x00, 0x00, 0x90, 0x00,
   0x00, 0x00, 0x00, 0x00, 0x00, 0x00, 0x00, 0x00, 0xf0, 0x00, 0x00, 0x00,
   0x00, 0x00, 0x00, 0x00, 0x00, 0x00, 0xf0, 0x00, 0x00, 0x00, 0x00, 0x00,
   0x00, 0x00, 0x00, 0x00, 0xf0, 0x00, 0x00, 0x00, 0x00, 0x00, 0x00, 0x00,
   0x00, 0x00, 0xf0, 0x00, 0x00, 0x00, 0x00, 0x00, 0x00, 0x00, 0x00, 0x00,
   0xf0, 0x00, 0x00, 0x00, 0x00, 0x00, 0x00, 0x00, 0x00, 0x00, 0xf0, 0x00,
   0x00, 0x00, 0x00, 0x00, 0x00, 0x00, 0x00, 0x00, 0xf8, 0x01, 0x00, 0x00,
   0x00, 0x00, 0x00, 0x00, 0x00, 0x00, 0xf8, 0x01, 0x00, 0x00, 0x00, 0x00,
   0x00, 0x00, 0x00, 0x00, 0xf8, 0x01, 0x00, 0x00, 0x00, 0x00, 0x00, 0x00,
   0x00, 0x00, 0xf8, 0x01, 0x00, 0x00, 0x00, 0x00, 0x00, 0x00, 0x00, 0x00,
   0xf8, 0x01, 0x00, 0x00, 0x00, 0x00, 0x00, 0x00, 0x00, 0x00, 0xf8, 0x01,
   0x00, 0x00, 0x00, 0x00, 0x00, 0x00, 0x00, 0x00, 0xf8, 0x01, 0x00, 0x00,
   0x00, 0x00, 0x00, 0x00, 0x00, 0x00, 0xf8, 0x01, 0x00, 0x00, 0x00, 0x00,
   0x00, 0x00, 0x00, 0x00, 0xf8, 0x01, 0x00, 0x00, 0x00, 0x00, 0x00, 0x00,
   0x00, 0x00, 0xf8, 0x01, 0x00, 0x00, 0x00, 0x00, 0x00, 0x00, 0x00, 0x00,
   0xf4, 0x02, 0x00, 0x00, 0x00, 0x00, 0x00, 0x00, 0x60, 0x00, 0x9d, 0x0b,
   0x60, 0x00, 0x00, 0x00, 0x00, 0x00, 0xe0, 0xc1, 0x9f, 0x3f, 0x7c, 0x00,
   0x00, 0x00, 0x00, 0x00, 0xe0, 0x3f, 0x9c, 0xc3, 0x7f, 0x00, 0x00, 0x00,
   0x00, 0x00, 0xd0, 0xff, 0x03, 0xfc, 0xbf, 0x00, 0x00, 0x00, 0x00, 0x00,
   0x90, 0xff, 0xff, 0xff, 0x9f, 0x00, 0x00, 0x00, 0x00, 0x00, 0x98, 0xff,
   0xff, 0xff, 0x9f, 0x01, 0x00, 0x00, 0x00, 0x00, 0x9c, 0x7f, 0xf8, 0xe1,
   0x9f, 0x03, 0x00, 0x00, 0x00, 0x00, 0xbc, 0x0f, 0x60, 0x00, 0xdf, 0x03,
   0x00, 0x00, 0x00, 0x00, 0xbe, 0x03, 0x60, 0x00, 0xdc, 0x07, 0x00, 0x00,
   0x00, 0x00, 0xbe, 0x00, 0x60, 0x00, 0xd0, 0x07, 0x00, 0x00, 0x00, 0x00,
   0xff, 0x00, 0xf0, 0x00, 0xf0, 0x0f, 0x00, 0x00, 0x00, 0x80, 0xff, 0x00,
   0xf0, 0x00, 0xf0, 0x1f, 0x00, 0x00, 0x00, 0x80, 0xbf, 0x00, 0xf8, 0x01,
   0xd0, 0x1f, 0x00, 0x00, 0x00, 0xc0, 0x1f, 0x04, 0xf8, 0x01, 0xc2, 0x3f,
   0x00, 0x00, 0x00, 0xe0, 0x1f, 0x02, 0xfc, 0x03, 0x84, 0x7f, 0x00, 0x00,
   0x00, 0xe0, 0x0f, 0x02, 0xfc, 0x03, 0x84, 0x7f, 0x00, 0x00, 0x00, 0xf0,
   0x0f, 0x02, 0xfe, 0x07, 0x04, 0xff, 0x00, 0x00, 0x30, 0xf0, 0x0f, 0x82,
   0xfe, 0x17, 0x04, 0xff, 0xc0, 0x00, 0x78, 0xf8, 0x0f, 0x06, 0xff, 0x0f,
   0x06, 0xff, 0xe1, 0x01, 0x7c, 0xfc, 0x0f, 0x0c, 0xff, 0x0f, 0x03, 0xff,
   0xe3, 0x03, 0xfc, 0xfc, 0x0f, 0x9c, 0xff, 0x9f, 0x03, 0xff, 0xf3, 0x03,
   0xfe, 0xfe, 0x1f, 0xf8, 0xff, 0xff, 0x81, 0xff, 0xf7, 0x07, 0x6e, 0xfe,
   0x1f, 0xf0, 0x95, 0xfa, 0x80, 0xff, 0x67, 0x07, 0x5e, 0xfd, 0x3f, 0xe0,
   0x92, 0x74, 0xc0, 0xff, 0xab, 0x07, 0xbe, 0xfd, 0x3f, 0xe0, 0x92, 0x74,
   0xc0, 0xff, 0xdb, 0x07, 0x06, 0xfd, 0x7f, 0xc0, 0x06, 0x36, 0xe0, 0xff,
   0x0b, 0x06, 0x06, 0xfd, 0x7f, 0x40, 0x0e, 0x27, 0xe0, 0xff, 0x0b, 0x06,
   0x06, 0xfd, 0xff, 0x40, 0xfc, 0x23, 0xf0, 0xff, 0x0b, 0x06, 0x04, 0xfd,
   0xff, 0x63, 0x95, 0x2a, 0xfc, 0xff, 0x0b, 0x02, 0x04, 0xfd, 0xff, 0x67,
   0x0d, 0x2b, 0xff, 0xff, 0x0b, 0x02, 0x04, 0xfd, 0xff, 0x7f, 0x05, 0xea,
   0xff, 0xff, 0x0b, 0x02, 0x04, 0xfd, 0xff, 0x7f, 0x95, 0xea, 0xff, 0xff,
   0x0b, 0x02, 0x04, 0xfd, 0xff, 0x7f, 0x0d, 0xeb, 0xff, 0xff, 0x0b, 0x02,
   0x04, 0xfd, 0xff, 0x43, 0x65, 0x2a, 0xfc, 0xff, 0x0b, 0x02, 0x06, 0xfd,
   0xff, 0x40, 0x0d, 0x2b, 0xf0, 0xff, 0x0b, 0x06, 0x06, 0xfd, 0x3f, 0x40,
   0x95, 0x2a, 0xc0, 0xff, 0x0b, 0x06, 0x06, 0xfd, 0x0f, 0xc0, 0xfd, 0x3b,
   0x00, 0xff, 0x0b, 0x06, 0x06, 0xfd, 0x03, 0x00, 0x07, 0x0e, 0x00, 0xfc,
   0x0b, 0x06, 0x06, 0xff, 0x00, 0x00, 0x00, 0xc0, 0x03, 0xf0, 0x0f, 0x06,
   0x06, 0x3d, 0x00, 0x00, 0x00, 0xc0, 0x03, 0xc0, 0x0b, 0x06, 0x06, 0x09,
   0x00, 0x00, 0x00, 0xc0, 0x03, 0x00, 0x09, 0x06, 0x06, 0x01, 0x00, 0x00,
   0x00, 0xc0, 0x03, 0x00, 0x08, 0x06, 0x04, 0x01, 0x00, 0x00, 0x00, 0xc0,
   0x03, 0x00, 0x08, 0x02, 0x04, 0x01, 0x00, 0x00, 0x00, 0xc0, 0x03, 0x00,
   0x08, 0x02, 0x04, 0x01, 0x00, 0x00, 0x00, 0xc0, 0x03, 0x00, 0x08, 0x02,
   0x06, 0x01, 0x00, 0x00, 0x00, 0xc0, 0x03, 0x00, 0x08, 0x02, 0x06, 0x01,
   0x00, 0x00, 0x00, 0xc0, 0x03, 0x00, 0x08, 0x06, 0x06, 0x01, 0x00, 0x00,
   0x00, 0xc0, 0x03, 0x00, 0x08, 0x06, 0x04, 0x01, 0x00, 0x00, 0x00, 0xc0,
   0x03, 0x00, 0x08, 0x06, 0x04, 0x01, 0x00, 0x00, 0x00, 0xc0, 0x03, 0x00,
   0x08, 0x02, 0xfc, 0x00, 0x00, 0x00, 0x00, 0xc0, 0x03, 0x00, 0xf0, 0x03,
   0x78, 0x00, 0x00, 0x00, 0x00, 0xc0, 0x03, 0x00, 0xe0, 0x01, 0x78, 0x00,
   0x00, 0x00, 0x00, 0xc0, 0x03, 0x00, 0xe0, 0x01, 0x00, 0x00, 0x00, 0x00,
   0x00, 0xc0, 0x03, 0x00, 0x00, 0x00, 0x00, 0x00, 0x00, 0x00, 0x00, 0xc0,
   0x03, 0x00, 0x00, 0x00, 0x00, 0x00, 0x00, 0x00, 0x00, 0xc0, 0x03, 0x00,
   0x00, 0x00, 0x00, 0x00, 0x00, 0x00, 0x00, 0xc0, 0x03, 0x00, 0x00, 0x00,
   0x00, 0x00, 0x00, 0x00, 0x00, 0x80, 0x03, 0x00, 0x00, 0x00, 0x00, 0x00,
   0x00, 0x00, 0x00, 0x80, 0x07, 0x00, 0x00, 0x00, 0x00, 0x00, 0x00, 0x00,
   0x00, 0x00, 0xff, 0xff, 0xff, 0x0f, 0x00, 0x00, 0x00, 0x00, 0x00, 0x00,
   0x00, 0x00, 0x00, 0x18, 0x00, 0x00, 0x00, 0x00, 0x00, 0x00, 0x00, 0x00,
   0x00, 0x18, 0x00, 0x00, 0x00, 0x00, 0x00, 0x00, 0x00, 0x00, 0x00, 0x18,
   0x00, 0x00, 0x00, 0x00, 0x00, 0x00, 0x00, 0x00, 0x00, 0x18, 0x00, 0x00,
   0x00, 0x00, 0x00, 0x00, 0x00, 0x00, 0x00, 0x18};
