#define flag_up_width 12
#define flag_up_height 6
static char flag_up_bits[] = {
   0x20, 0xf0, 0x70, 0xf0, 0xf8, 0xf0, 0xfc, 0xf1, 0xfe, 0xf3, 0x03, 0xf6};
