#define flag_cloak_width 33
#define flag_cloak_height 33
static char flag_cloak_bits[] = {
   0x00, 0xc0, 0x07, 0x00, 0x00, 0x00, 0x38, 0x38, 0x00, 0x00, 0x00, 0xe7,
   0xcf, 0x01, 0x00, 0x80, 0x1c, 0x70, 0x03, 0x00, 0x40, 0x82, 0x83, 0x04,
   0x00, 0xa0, 0x79, 0x3c, 0x0b, 0x00, 0x50, 0x04, 0x40, 0x14, 0x00, 0x28,
   0x83, 0x83, 0x29, 0x00, 0xa4, 0x70, 0x1c, 0x4a, 0x00, 0x94, 0x08, 0x20,
   0x52, 0x00, 0x4c, 0x04, 0x41, 0x64, 0x00, 0x2a, 0xe2, 0x8e, 0xa8, 0x00,
   0x2a, 0x11, 0x10, 0xa9, 0x00, 0x26, 0x09, 0x20, 0xc9, 0x00, 0x25, 0x09,
   0x20, 0x49, 0x01, 0x95, 0x08, 0x21, 0x52, 0x01, 0x95, 0x84, 0x42, 0x52,
   0x01, 0x95, 0x08, 0x21, 0x52, 0x01, 0x25, 0x09, 0x20, 0x49, 0x01, 0x26,
   0x09, 0x20, 0xc9, 0x00, 0x2a, 0x11, 0x10, 0xa9, 0x00, 0x2a, 0xe2, 0x8e,
   0xa8, 0x00, 0x4c, 0x04, 0x41, 0x64, 0x00, 0x94, 0x08, 0x20, 0x52, 0x00,
   0xa4, 0x70, 0x1c, 0x4a, 0x00, 0x28, 0x83, 0x83, 0x29, 0x00, 0x50, 0x04,
   0x40, 0x14, 0x00, 0xa0, 0x79, 0x3c, 0x0b, 0x00, 0x40, 0x82, 0x83, 0x04,
   0x00, 0x80, 0x1c, 0x70, 0x02, 0x00, 0x00, 0xe7, 0xcf, 0x01, 0x00, 0x00,
   0x38, 0x38, 0x00, 0x00, 0x00, 0xc0, 0x07, 0x00, 0x00};
