#define flag_wtemp_width 30
#define flag_wtemp_height 9
static char flag_wtemp_bits[] = {
   0xfc, 0xff, 0xff, 0xcf, 0x76, 0x11, 0x6b, 0xdc, 0x76, 0xdb, 0x55, 0xdb,
   0x56, 0x1b, 0x55, 0xdc, 0x56, 0xdb, 0x55, 0xdf, 0x56, 0xdb, 0x55, 0xdf,
   0xae, 0x1b, 0x55, 0xdf, 0xfc, 0xff, 0xff, 0xcf, 0x00, 0x00, 0x00, 0xc0};
