#define flag_down_width 12
#define flag_down_height 6
static char flag_down_bits[] = {
   0x03, 0xf6, 0xfe, 0xf3, 0xfc, 0xf1, 0xf8, 0xf0, 0x70, 0xf0, 0x20, 0xf0};
