#define flag_fed_width 20
#define flag_fed_height 20
static char flag_fed_bits[] = {
   0x00, 0x00, 0xf0, 0x00, 0x00, 0xf0, 0x00, 0x00, 0xf0, 0x00, 0x00, 0xf0,
   0x00, 0x10, 0xf0, 0x00, 0x38, 0xf0, 0x00, 0x38, 0xf0, 0x00, 0x7c, 0xf0,
   0x00, 0x7c, 0xf0, 0x00, 0xfe, 0xf0, 0x00, 0xfe, 0xf0, 0x00, 0xff, 0xf0,
   0x00, 0xff, 0xf1, 0x00, 0xff, 0xf1, 0x80, 0xdf, 0xf1, 0x80, 0x87, 0xf3,
   0x80, 0x03, 0xf3, 0x80, 0x01, 0xf2, 0x80, 0x00, 0xf2, 0x00, 0x00, 0xf0};
