#define flag_bomb_width 10
#define flag_bomb_height 20
static char flag_bomb_bits[] = {
   0xfe, 0xfc, 0xee, 0xfc, 0xee, 0xfc, 0xee, 0xfc, 0x6c, 0xfc, 0x28, 0xfc,
   0x28, 0xfc, 0x6c, 0xfc, 0xee, 0xfc, 0xee, 0xfc, 0xfe, 0xfc, 0xfe, 0xfc,
   0xfe, 0xfc, 0xff, 0xfd, 0xff, 0xfd, 0xff, 0xfd, 0xff, 0xfd, 0xff, 0xfd,
   0xff, 0xfd, 0x00, 0xfc};
